%TF.GenerationSoftware,KiCad,Pcbnew,9.0.7*%
%TF.CreationDate,2026-05-19T18:19:15-05:00*%
%TF.ProjectId,SmartWateringFlowerPot,536d6172-7457-4617-9465-72696e67466c,rev?*%
%TF.SameCoordinates,Original*%
%TF.FileFunction,Legend,Top*%
%TF.FilePolarity,Positive*%
%FSLAX46Y46*%
G04 Gerber Fmt 4.6, Leading zero omitted, Abs format (unit mm)*
G04 Created by KiCad (PCBNEW 9.0.7) date 2026-05-19 18:19:15*
%MOMM*%
%LPD*%
G01*
G04 APERTURE LIST*
G04 Aperture macros list*
%AMRoundRect*
0 Rectangle with rounded corners*
0 $1 Rounding radius*
0 $2 $3 $4 $5 $6 $7 $8 $9 X,Y pos of 4 corners*
0 Add a 4 corners polygon primitive as box body*
4,1,4,$2,$3,$4,$5,$6,$7,$8,$9,$2,$3,0*
0 Add four circle primitives for the rounded corners*
1,1,$1+$1,$2,$3*
1,1,$1+$1,$4,$5*
1,1,$1+$1,$6,$7*
1,1,$1+$1,$8,$9*
0 Add four rect primitives between the rounded corners*
20,1,$1+$1,$2,$3,$4,$5,0*
20,1,$1+$1,$4,$5,$6,$7,0*
20,1,$1+$1,$6,$7,$8,$9,0*
20,1,$1+$1,$8,$9,$2,$3,0*%
G04 Aperture macros list end*
%ADD10C,0.120000*%
%ADD11C,0.100000*%
%ADD12C,0.150000*%
%ADD13RoundRect,0.250000X-0.262500X-0.450000X0.262500X-0.450000X0.262500X0.450000X-0.262500X0.450000X0*%
%ADD14C,0.650000*%
%ADD15RoundRect,0.150000X-0.150000X-0.425000X0.150000X-0.425000X0.150000X0.425000X-0.150000X0.425000X0*%
%ADD16RoundRect,0.075000X-0.075000X-0.500000X0.075000X-0.500000X0.075000X0.500000X-0.075000X0.500000X0*%
%ADD17O,1.000000X2.100000*%
%ADD18O,1.000000X1.800000*%
%ADD19RoundRect,0.250000X-1.000000X-0.650000X1.000000X-0.650000X1.000000X0.650000X-1.000000X0.650000X0*%
%ADD20C,1.500000*%
%ADD21RoundRect,0.243750X-0.243750X-0.456250X0.243750X-0.456250X0.243750X0.456250X-0.243750X0.456250X0*%
%ADD22RoundRect,0.250000X-0.600000X-0.750000X0.600000X-0.750000X0.600000X0.750000X-0.600000X0.750000X0*%
%ADD23O,1.700000X2.000000*%
%ADD24RoundRect,0.250000X0.262500X0.450000X-0.262500X0.450000X-0.262500X-0.450000X0.262500X-0.450000X0*%
%ADD25C,3.200000*%
%ADD26R,1.500000X0.900000*%
%ADD27R,0.900000X1.500000*%
%ADD28C,0.600000*%
%ADD29R,3.900000X3.900000*%
%ADD30R,1.700000X1.700000*%
%ADD31C,1.700000*%
%ADD32RoundRect,0.250000X-0.250000X-0.475000X0.250000X-0.475000X0.250000X0.475000X-0.250000X0.475000X0*%
%ADD33R,2.350000X5.100000*%
%ADD34RoundRect,0.150000X-0.512500X-0.150000X0.512500X-0.150000X0.512500X0.150000X-0.512500X0.150000X0*%
%ADD35RoundRect,0.250000X-0.600000X-0.725000X0.600000X-0.725000X0.600000X0.725000X-0.600000X0.725000X0*%
%ADD36O,1.700000X1.950000*%
%ADD37RoundRect,0.150000X-0.587500X-0.150000X0.587500X-0.150000X0.587500X0.150000X-0.587500X0.150000X0*%
%ADD38RoundRect,0.250000X-0.550000X-0.550000X0.550000X-0.550000X0.550000X0.550000X-0.550000X0.550000X0*%
%ADD39C,1.600000*%
G04 APERTURE END LIST*
D10*
X84209523Y-117363855D02*
X84704761Y-117363855D01*
X84704761Y-117363855D02*
X84438095Y-117668617D01*
X84438095Y-117668617D02*
X84552380Y-117668617D01*
X84552380Y-117668617D02*
X84628571Y-117706712D01*
X84628571Y-117706712D02*
X84666666Y-117744807D01*
X84666666Y-117744807D02*
X84704761Y-117820998D01*
X84704761Y-117820998D02*
X84704761Y-118011474D01*
X84704761Y-118011474D02*
X84666666Y-118087664D01*
X84666666Y-118087664D02*
X84628571Y-118125760D01*
X84628571Y-118125760D02*
X84552380Y-118163855D01*
X84552380Y-118163855D02*
X84323809Y-118163855D01*
X84323809Y-118163855D02*
X84247618Y-118125760D01*
X84247618Y-118125760D02*
X84209523Y-118087664D01*
X84933333Y-117363855D02*
X85200000Y-118163855D01*
X85200000Y-118163855D02*
X85466666Y-117363855D01*
X85657142Y-117363855D02*
X86152380Y-117363855D01*
X86152380Y-117363855D02*
X85885714Y-117668617D01*
X85885714Y-117668617D02*
X85999999Y-117668617D01*
X85999999Y-117668617D02*
X86076190Y-117706712D01*
X86076190Y-117706712D02*
X86114285Y-117744807D01*
X86114285Y-117744807D02*
X86152380Y-117820998D01*
X86152380Y-117820998D02*
X86152380Y-118011474D01*
X86152380Y-118011474D02*
X86114285Y-118087664D01*
X86114285Y-118087664D02*
X86076190Y-118125760D01*
X86076190Y-118125760D02*
X85999999Y-118163855D01*
X85999999Y-118163855D02*
X85771428Y-118163855D01*
X85771428Y-118163855D02*
X85695237Y-118125760D01*
X85695237Y-118125760D02*
X85657142Y-118087664D01*
X87523809Y-117401950D02*
X87447619Y-117363855D01*
X87447619Y-117363855D02*
X87333333Y-117363855D01*
X87333333Y-117363855D02*
X87219047Y-117401950D01*
X87219047Y-117401950D02*
X87142857Y-117478140D01*
X87142857Y-117478140D02*
X87104762Y-117554331D01*
X87104762Y-117554331D02*
X87066666Y-117706712D01*
X87066666Y-117706712D02*
X87066666Y-117820998D01*
X87066666Y-117820998D02*
X87104762Y-117973379D01*
X87104762Y-117973379D02*
X87142857Y-118049569D01*
X87142857Y-118049569D02*
X87219047Y-118125760D01*
X87219047Y-118125760D02*
X87333333Y-118163855D01*
X87333333Y-118163855D02*
X87409524Y-118163855D01*
X87409524Y-118163855D02*
X87523809Y-118125760D01*
X87523809Y-118125760D02*
X87561905Y-118087664D01*
X87561905Y-118087664D02*
X87561905Y-117820998D01*
X87561905Y-117820998D02*
X87409524Y-117820998D01*
X87904762Y-118163855D02*
X87904762Y-117363855D01*
X87904762Y-117363855D02*
X88361905Y-118163855D01*
X88361905Y-118163855D02*
X88361905Y-117363855D01*
X88742857Y-118163855D02*
X88742857Y-117363855D01*
X88742857Y-117363855D02*
X88933333Y-117363855D01*
X88933333Y-117363855D02*
X89047619Y-117401950D01*
X89047619Y-117401950D02*
X89123809Y-117478140D01*
X89123809Y-117478140D02*
X89161904Y-117554331D01*
X89161904Y-117554331D02*
X89200000Y-117706712D01*
X89200000Y-117706712D02*
X89200000Y-117820998D01*
X89200000Y-117820998D02*
X89161904Y-117973379D01*
X89161904Y-117973379D02*
X89123809Y-118049569D01*
X89123809Y-118049569D02*
X89047619Y-118125760D01*
X89047619Y-118125760D02*
X88933333Y-118163855D01*
X88933333Y-118163855D02*
X88742857Y-118163855D01*
X90114285Y-118125760D02*
X90228571Y-118163855D01*
X90228571Y-118163855D02*
X90419047Y-118163855D01*
X90419047Y-118163855D02*
X90495238Y-118125760D01*
X90495238Y-118125760D02*
X90533333Y-118087664D01*
X90533333Y-118087664D02*
X90571428Y-118011474D01*
X90571428Y-118011474D02*
X90571428Y-117935283D01*
X90571428Y-117935283D02*
X90533333Y-117859093D01*
X90533333Y-117859093D02*
X90495238Y-117820998D01*
X90495238Y-117820998D02*
X90419047Y-117782902D01*
X90419047Y-117782902D02*
X90266666Y-117744807D01*
X90266666Y-117744807D02*
X90190476Y-117706712D01*
X90190476Y-117706712D02*
X90152381Y-117668617D01*
X90152381Y-117668617D02*
X90114285Y-117592426D01*
X90114285Y-117592426D02*
X90114285Y-117516236D01*
X90114285Y-117516236D02*
X90152381Y-117440045D01*
X90152381Y-117440045D02*
X90190476Y-117401950D01*
X90190476Y-117401950D02*
X90266666Y-117363855D01*
X90266666Y-117363855D02*
X90457143Y-117363855D01*
X90457143Y-117363855D02*
X90571428Y-117401950D01*
X90914286Y-118163855D02*
X90914286Y-117363855D01*
X91714285Y-117401950D02*
X91638095Y-117363855D01*
X91638095Y-117363855D02*
X91523809Y-117363855D01*
X91523809Y-117363855D02*
X91409523Y-117401950D01*
X91409523Y-117401950D02*
X91333333Y-117478140D01*
X91333333Y-117478140D02*
X91295238Y-117554331D01*
X91295238Y-117554331D02*
X91257142Y-117706712D01*
X91257142Y-117706712D02*
X91257142Y-117820998D01*
X91257142Y-117820998D02*
X91295238Y-117973379D01*
X91295238Y-117973379D02*
X91333333Y-118049569D01*
X91333333Y-118049569D02*
X91409523Y-118125760D01*
X91409523Y-118125760D02*
X91523809Y-118163855D01*
X91523809Y-118163855D02*
X91600000Y-118163855D01*
X91600000Y-118163855D02*
X91714285Y-118125760D01*
X91714285Y-118125760D02*
X91752381Y-118087664D01*
X91752381Y-118087664D02*
X91752381Y-117820998D01*
X91752381Y-117820998D02*
X91600000Y-117820998D01*
X95790475Y-118125760D02*
X95904761Y-118163855D01*
X95904761Y-118163855D02*
X96095237Y-118163855D01*
X96095237Y-118163855D02*
X96171428Y-118125760D01*
X96171428Y-118125760D02*
X96209523Y-118087664D01*
X96209523Y-118087664D02*
X96247618Y-118011474D01*
X96247618Y-118011474D02*
X96247618Y-117935283D01*
X96247618Y-117935283D02*
X96209523Y-117859093D01*
X96209523Y-117859093D02*
X96171428Y-117820998D01*
X96171428Y-117820998D02*
X96095237Y-117782902D01*
X96095237Y-117782902D02*
X95942856Y-117744807D01*
X95942856Y-117744807D02*
X95866666Y-117706712D01*
X95866666Y-117706712D02*
X95828571Y-117668617D01*
X95828571Y-117668617D02*
X95790475Y-117592426D01*
X95790475Y-117592426D02*
X95790475Y-117516236D01*
X95790475Y-117516236D02*
X95828571Y-117440045D01*
X95828571Y-117440045D02*
X95866666Y-117401950D01*
X95866666Y-117401950D02*
X95942856Y-117363855D01*
X95942856Y-117363855D02*
X96133333Y-117363855D01*
X96133333Y-117363855D02*
X96247618Y-117401950D01*
X96514285Y-117363855D02*
X96704761Y-118163855D01*
X96704761Y-118163855D02*
X96857142Y-117592426D01*
X96857142Y-117592426D02*
X97009523Y-118163855D01*
X97009523Y-118163855D02*
X97200000Y-117363855D01*
X98533333Y-117401950D02*
X98457143Y-117363855D01*
X98457143Y-117363855D02*
X98342857Y-117363855D01*
X98342857Y-117363855D02*
X98228571Y-117401950D01*
X98228571Y-117401950D02*
X98152381Y-117478140D01*
X98152381Y-117478140D02*
X98114286Y-117554331D01*
X98114286Y-117554331D02*
X98076190Y-117706712D01*
X98076190Y-117706712D02*
X98076190Y-117820998D01*
X98076190Y-117820998D02*
X98114286Y-117973379D01*
X98114286Y-117973379D02*
X98152381Y-118049569D01*
X98152381Y-118049569D02*
X98228571Y-118125760D01*
X98228571Y-118125760D02*
X98342857Y-118163855D01*
X98342857Y-118163855D02*
X98419048Y-118163855D01*
X98419048Y-118163855D02*
X98533333Y-118125760D01*
X98533333Y-118125760D02*
X98571429Y-118087664D01*
X98571429Y-118087664D02*
X98571429Y-117820998D01*
X98571429Y-117820998D02*
X98419048Y-117820998D01*
X98914286Y-118163855D02*
X98914286Y-117363855D01*
X98914286Y-117363855D02*
X99371429Y-118163855D01*
X99371429Y-118163855D02*
X99371429Y-117363855D01*
X99752381Y-118163855D02*
X99752381Y-117363855D01*
X99752381Y-117363855D02*
X99942857Y-117363855D01*
X99942857Y-117363855D02*
X100057143Y-117401950D01*
X100057143Y-117401950D02*
X100133333Y-117478140D01*
X100133333Y-117478140D02*
X100171428Y-117554331D01*
X100171428Y-117554331D02*
X100209524Y-117706712D01*
X100209524Y-117706712D02*
X100209524Y-117820998D01*
X100209524Y-117820998D02*
X100171428Y-117973379D01*
X100171428Y-117973379D02*
X100133333Y-118049569D01*
X100133333Y-118049569D02*
X100057143Y-118125760D01*
X100057143Y-118125760D02*
X99942857Y-118163855D01*
X99942857Y-118163855D02*
X99752381Y-118163855D01*
D11*
X72808093Y-48234912D02*
X72950950Y-48282531D01*
X72950950Y-48282531D02*
X73189045Y-48282531D01*
X73189045Y-48282531D02*
X73284283Y-48234912D01*
X73284283Y-48234912D02*
X73331902Y-48187292D01*
X73331902Y-48187292D02*
X73379521Y-48092054D01*
X73379521Y-48092054D02*
X73379521Y-47996816D01*
X73379521Y-47996816D02*
X73331902Y-47901578D01*
X73331902Y-47901578D02*
X73284283Y-47853959D01*
X73284283Y-47853959D02*
X73189045Y-47806340D01*
X73189045Y-47806340D02*
X72998569Y-47758721D01*
X72998569Y-47758721D02*
X72903331Y-47711102D01*
X72903331Y-47711102D02*
X72855712Y-47663483D01*
X72855712Y-47663483D02*
X72808093Y-47568245D01*
X72808093Y-47568245D02*
X72808093Y-47473007D01*
X72808093Y-47473007D02*
X72855712Y-47377769D01*
X72855712Y-47377769D02*
X72903331Y-47330150D01*
X72903331Y-47330150D02*
X72998569Y-47282531D01*
X72998569Y-47282531D02*
X73236664Y-47282531D01*
X73236664Y-47282531D02*
X73379521Y-47330150D01*
X74189045Y-48234912D02*
X74093807Y-48282531D01*
X74093807Y-48282531D02*
X73903331Y-48282531D01*
X73903331Y-48282531D02*
X73808093Y-48234912D01*
X73808093Y-48234912D02*
X73760474Y-48139673D01*
X73760474Y-48139673D02*
X73760474Y-47758721D01*
X73760474Y-47758721D02*
X73808093Y-47663483D01*
X73808093Y-47663483D02*
X73903331Y-47615864D01*
X73903331Y-47615864D02*
X74093807Y-47615864D01*
X74093807Y-47615864D02*
X74189045Y-47663483D01*
X74189045Y-47663483D02*
X74236664Y-47758721D01*
X74236664Y-47758721D02*
X74236664Y-47853959D01*
X74236664Y-47853959D02*
X73760474Y-47949197D01*
X74808093Y-48282531D02*
X74712855Y-48234912D01*
X74712855Y-48234912D02*
X74665236Y-48139673D01*
X74665236Y-48139673D02*
X74665236Y-47282531D01*
X75046189Y-47615864D02*
X75427141Y-47615864D01*
X75189046Y-48282531D02*
X75189046Y-47425388D01*
X75189046Y-47425388D02*
X75236665Y-47330150D01*
X75236665Y-47330150D02*
X75331903Y-47282531D01*
X75331903Y-47282531D02*
X75427141Y-47282531D01*
X75760475Y-47901578D02*
X76522380Y-47901578D01*
X76903332Y-47282531D02*
X77141427Y-48282531D01*
X77141427Y-48282531D02*
X77331903Y-47568245D01*
X77331903Y-47568245D02*
X77522379Y-48282531D01*
X77522379Y-48282531D02*
X77760475Y-47282531D01*
X78569998Y-48282531D02*
X78569998Y-47758721D01*
X78569998Y-47758721D02*
X78522379Y-47663483D01*
X78522379Y-47663483D02*
X78427141Y-47615864D01*
X78427141Y-47615864D02*
X78236665Y-47615864D01*
X78236665Y-47615864D02*
X78141427Y-47663483D01*
X78569998Y-48234912D02*
X78474760Y-48282531D01*
X78474760Y-48282531D02*
X78236665Y-48282531D01*
X78236665Y-48282531D02*
X78141427Y-48234912D01*
X78141427Y-48234912D02*
X78093808Y-48139673D01*
X78093808Y-48139673D02*
X78093808Y-48044435D01*
X78093808Y-48044435D02*
X78141427Y-47949197D01*
X78141427Y-47949197D02*
X78236665Y-47901578D01*
X78236665Y-47901578D02*
X78474760Y-47901578D01*
X78474760Y-47901578D02*
X78569998Y-47853959D01*
X78903332Y-47615864D02*
X79284284Y-47615864D01*
X79046189Y-47282531D02*
X79046189Y-48139673D01*
X79046189Y-48139673D02*
X79093808Y-48234912D01*
X79093808Y-48234912D02*
X79189046Y-48282531D01*
X79189046Y-48282531D02*
X79284284Y-48282531D01*
X79998570Y-48234912D02*
X79903332Y-48282531D01*
X79903332Y-48282531D02*
X79712856Y-48282531D01*
X79712856Y-48282531D02*
X79617618Y-48234912D01*
X79617618Y-48234912D02*
X79569999Y-48139673D01*
X79569999Y-48139673D02*
X79569999Y-47758721D01*
X79569999Y-47758721D02*
X79617618Y-47663483D01*
X79617618Y-47663483D02*
X79712856Y-47615864D01*
X79712856Y-47615864D02*
X79903332Y-47615864D01*
X79903332Y-47615864D02*
X79998570Y-47663483D01*
X79998570Y-47663483D02*
X80046189Y-47758721D01*
X80046189Y-47758721D02*
X80046189Y-47853959D01*
X80046189Y-47853959D02*
X79569999Y-47949197D01*
X80474761Y-48282531D02*
X80474761Y-47615864D01*
X80474761Y-47806340D02*
X80522380Y-47711102D01*
X80522380Y-47711102D02*
X80569999Y-47663483D01*
X80569999Y-47663483D02*
X80665237Y-47615864D01*
X80665237Y-47615864D02*
X80760475Y-47615864D01*
X81093809Y-48282531D02*
X81093809Y-47615864D01*
X81093809Y-47282531D02*
X81046190Y-47330150D01*
X81046190Y-47330150D02*
X81093809Y-47377769D01*
X81093809Y-47377769D02*
X81141428Y-47330150D01*
X81141428Y-47330150D02*
X81093809Y-47282531D01*
X81093809Y-47282531D02*
X81093809Y-47377769D01*
X81569999Y-47615864D02*
X81569999Y-48282531D01*
X81569999Y-47711102D02*
X81617618Y-47663483D01*
X81617618Y-47663483D02*
X81712856Y-47615864D01*
X81712856Y-47615864D02*
X81855713Y-47615864D01*
X81855713Y-47615864D02*
X81950951Y-47663483D01*
X81950951Y-47663483D02*
X81998570Y-47758721D01*
X81998570Y-47758721D02*
X81998570Y-48282531D01*
X82903332Y-47615864D02*
X82903332Y-48425388D01*
X82903332Y-48425388D02*
X82855713Y-48520626D01*
X82855713Y-48520626D02*
X82808094Y-48568245D01*
X82808094Y-48568245D02*
X82712856Y-48615864D01*
X82712856Y-48615864D02*
X82569999Y-48615864D01*
X82569999Y-48615864D02*
X82474761Y-48568245D01*
X82903332Y-48234912D02*
X82808094Y-48282531D01*
X82808094Y-48282531D02*
X82617618Y-48282531D01*
X82617618Y-48282531D02*
X82522380Y-48234912D01*
X82522380Y-48234912D02*
X82474761Y-48187292D01*
X82474761Y-48187292D02*
X82427142Y-48092054D01*
X82427142Y-48092054D02*
X82427142Y-47806340D01*
X82427142Y-47806340D02*
X82474761Y-47711102D01*
X82474761Y-47711102D02*
X82522380Y-47663483D01*
X82522380Y-47663483D02*
X82617618Y-47615864D01*
X82617618Y-47615864D02*
X82808094Y-47615864D01*
X82808094Y-47615864D02*
X82903332Y-47663483D01*
X84474761Y-47758721D02*
X84141428Y-47758721D01*
X84141428Y-48282531D02*
X84141428Y-47282531D01*
X84141428Y-47282531D02*
X84617618Y-47282531D01*
X85141428Y-48282531D02*
X85046190Y-48234912D01*
X85046190Y-48234912D02*
X84998571Y-48139673D01*
X84998571Y-48139673D02*
X84998571Y-47282531D01*
X85665238Y-48282531D02*
X85570000Y-48234912D01*
X85570000Y-48234912D02*
X85522381Y-48187292D01*
X85522381Y-48187292D02*
X85474762Y-48092054D01*
X85474762Y-48092054D02*
X85474762Y-47806340D01*
X85474762Y-47806340D02*
X85522381Y-47711102D01*
X85522381Y-47711102D02*
X85570000Y-47663483D01*
X85570000Y-47663483D02*
X85665238Y-47615864D01*
X85665238Y-47615864D02*
X85808095Y-47615864D01*
X85808095Y-47615864D02*
X85903333Y-47663483D01*
X85903333Y-47663483D02*
X85950952Y-47711102D01*
X85950952Y-47711102D02*
X85998571Y-47806340D01*
X85998571Y-47806340D02*
X85998571Y-48092054D01*
X85998571Y-48092054D02*
X85950952Y-48187292D01*
X85950952Y-48187292D02*
X85903333Y-48234912D01*
X85903333Y-48234912D02*
X85808095Y-48282531D01*
X85808095Y-48282531D02*
X85665238Y-48282531D01*
X86331905Y-47615864D02*
X86522381Y-48282531D01*
X86522381Y-48282531D02*
X86712857Y-47806340D01*
X86712857Y-47806340D02*
X86903333Y-48282531D01*
X86903333Y-48282531D02*
X87093809Y-47615864D01*
X87855714Y-48234912D02*
X87760476Y-48282531D01*
X87760476Y-48282531D02*
X87570000Y-48282531D01*
X87570000Y-48282531D02*
X87474762Y-48234912D01*
X87474762Y-48234912D02*
X87427143Y-48139673D01*
X87427143Y-48139673D02*
X87427143Y-47758721D01*
X87427143Y-47758721D02*
X87474762Y-47663483D01*
X87474762Y-47663483D02*
X87570000Y-47615864D01*
X87570000Y-47615864D02*
X87760476Y-47615864D01*
X87760476Y-47615864D02*
X87855714Y-47663483D01*
X87855714Y-47663483D02*
X87903333Y-47758721D01*
X87903333Y-47758721D02*
X87903333Y-47853959D01*
X87903333Y-47853959D02*
X87427143Y-47949197D01*
X88331905Y-48282531D02*
X88331905Y-47615864D01*
X88331905Y-47806340D02*
X88379524Y-47711102D01*
X88379524Y-47711102D02*
X88427143Y-47663483D01*
X88427143Y-47663483D02*
X88522381Y-47615864D01*
X88522381Y-47615864D02*
X88617619Y-47615864D01*
X89712858Y-48282531D02*
X89712858Y-47282531D01*
X89712858Y-47282531D02*
X90093810Y-47282531D01*
X90093810Y-47282531D02*
X90189048Y-47330150D01*
X90189048Y-47330150D02*
X90236667Y-47377769D01*
X90236667Y-47377769D02*
X90284286Y-47473007D01*
X90284286Y-47473007D02*
X90284286Y-47615864D01*
X90284286Y-47615864D02*
X90236667Y-47711102D01*
X90236667Y-47711102D02*
X90189048Y-47758721D01*
X90189048Y-47758721D02*
X90093810Y-47806340D01*
X90093810Y-47806340D02*
X89712858Y-47806340D01*
X90855715Y-48282531D02*
X90760477Y-48234912D01*
X90760477Y-48234912D02*
X90712858Y-48187292D01*
X90712858Y-48187292D02*
X90665239Y-48092054D01*
X90665239Y-48092054D02*
X90665239Y-47806340D01*
X90665239Y-47806340D02*
X90712858Y-47711102D01*
X90712858Y-47711102D02*
X90760477Y-47663483D01*
X90760477Y-47663483D02*
X90855715Y-47615864D01*
X90855715Y-47615864D02*
X90998572Y-47615864D01*
X90998572Y-47615864D02*
X91093810Y-47663483D01*
X91093810Y-47663483D02*
X91141429Y-47711102D01*
X91141429Y-47711102D02*
X91189048Y-47806340D01*
X91189048Y-47806340D02*
X91189048Y-48092054D01*
X91189048Y-48092054D02*
X91141429Y-48187292D01*
X91141429Y-48187292D02*
X91093810Y-48234912D01*
X91093810Y-48234912D02*
X90998572Y-48282531D01*
X90998572Y-48282531D02*
X90855715Y-48282531D01*
X91474763Y-47615864D02*
X91855715Y-47615864D01*
X91617620Y-47282531D02*
X91617620Y-48139673D01*
X91617620Y-48139673D02*
X91665239Y-48234912D01*
X91665239Y-48234912D02*
X91760477Y-48282531D01*
X91760477Y-48282531D02*
X91855715Y-48282531D01*
X92808097Y-47282531D02*
X93141430Y-48282531D01*
X93141430Y-48282531D02*
X93474763Y-47282531D01*
X93760478Y-47377769D02*
X93808097Y-47330150D01*
X93808097Y-47330150D02*
X93903335Y-47282531D01*
X93903335Y-47282531D02*
X94141430Y-47282531D01*
X94141430Y-47282531D02*
X94236668Y-47330150D01*
X94236668Y-47330150D02*
X94284287Y-47377769D01*
X94284287Y-47377769D02*
X94331906Y-47473007D01*
X94331906Y-47473007D02*
X94331906Y-47568245D01*
X94331906Y-47568245D02*
X94284287Y-47711102D01*
X94284287Y-47711102D02*
X93712859Y-48282531D01*
X93712859Y-48282531D02*
X94331906Y-48282531D01*
X96093811Y-48282531D02*
X95760478Y-47806340D01*
X95522383Y-48282531D02*
X95522383Y-47282531D01*
X95522383Y-47282531D02*
X95903335Y-47282531D01*
X95903335Y-47282531D02*
X95998573Y-47330150D01*
X95998573Y-47330150D02*
X96046192Y-47377769D01*
X96046192Y-47377769D02*
X96093811Y-47473007D01*
X96093811Y-47473007D02*
X96093811Y-47615864D01*
X96093811Y-47615864D02*
X96046192Y-47711102D01*
X96046192Y-47711102D02*
X95998573Y-47758721D01*
X95998573Y-47758721D02*
X95903335Y-47806340D01*
X95903335Y-47806340D02*
X95522383Y-47806340D01*
X96903335Y-48234912D02*
X96808097Y-48282531D01*
X96808097Y-48282531D02*
X96617621Y-48282531D01*
X96617621Y-48282531D02*
X96522383Y-48234912D01*
X96522383Y-48234912D02*
X96474764Y-48139673D01*
X96474764Y-48139673D02*
X96474764Y-47758721D01*
X96474764Y-47758721D02*
X96522383Y-47663483D01*
X96522383Y-47663483D02*
X96617621Y-47615864D01*
X96617621Y-47615864D02*
X96808097Y-47615864D01*
X96808097Y-47615864D02*
X96903335Y-47663483D01*
X96903335Y-47663483D02*
X96950954Y-47758721D01*
X96950954Y-47758721D02*
X96950954Y-47853959D01*
X96950954Y-47853959D02*
X96474764Y-47949197D01*
X97284288Y-47615864D02*
X97522383Y-48282531D01*
X97522383Y-48282531D02*
X97760478Y-47615864D01*
X98855717Y-47996816D02*
X99331907Y-47996816D01*
X98760479Y-48282531D02*
X99093812Y-47282531D01*
X99093812Y-47282531D02*
X99427145Y-48282531D01*
X77950950Y-49368665D02*
X78093807Y-49416284D01*
X78093807Y-49416284D02*
X78141426Y-49463903D01*
X78141426Y-49463903D02*
X78189045Y-49559141D01*
X78189045Y-49559141D02*
X78189045Y-49701998D01*
X78189045Y-49701998D02*
X78141426Y-49797236D01*
X78141426Y-49797236D02*
X78093807Y-49844856D01*
X78093807Y-49844856D02*
X77998569Y-49892475D01*
X77998569Y-49892475D02*
X77617617Y-49892475D01*
X77617617Y-49892475D02*
X77617617Y-48892475D01*
X77617617Y-48892475D02*
X77950950Y-48892475D01*
X77950950Y-48892475D02*
X78046188Y-48940094D01*
X78046188Y-48940094D02*
X78093807Y-48987713D01*
X78093807Y-48987713D02*
X78141426Y-49082951D01*
X78141426Y-49082951D02*
X78141426Y-49178189D01*
X78141426Y-49178189D02*
X78093807Y-49273427D01*
X78093807Y-49273427D02*
X78046188Y-49321046D01*
X78046188Y-49321046D02*
X77950950Y-49368665D01*
X77950950Y-49368665D02*
X77617617Y-49368665D01*
X78522379Y-49225808D02*
X78760474Y-49892475D01*
X78998569Y-49225808D02*
X78760474Y-49892475D01*
X78760474Y-49892475D02*
X78665236Y-50130570D01*
X78665236Y-50130570D02*
X78617617Y-50178189D01*
X78617617Y-50178189D02*
X78522379Y-50225808D01*
X80712855Y-49797236D02*
X80665236Y-49844856D01*
X80665236Y-49844856D02*
X80522379Y-49892475D01*
X80522379Y-49892475D02*
X80427141Y-49892475D01*
X80427141Y-49892475D02*
X80284284Y-49844856D01*
X80284284Y-49844856D02*
X80189046Y-49749617D01*
X80189046Y-49749617D02*
X80141427Y-49654379D01*
X80141427Y-49654379D02*
X80093808Y-49463903D01*
X80093808Y-49463903D02*
X80093808Y-49321046D01*
X80093808Y-49321046D02*
X80141427Y-49130570D01*
X80141427Y-49130570D02*
X80189046Y-49035332D01*
X80189046Y-49035332D02*
X80284284Y-48940094D01*
X80284284Y-48940094D02*
X80427141Y-48892475D01*
X80427141Y-48892475D02*
X80522379Y-48892475D01*
X80522379Y-48892475D02*
X80665236Y-48940094D01*
X80665236Y-48940094D02*
X80712855Y-48987713D01*
X81141427Y-49892475D02*
X81141427Y-48892475D01*
X81569998Y-49892475D02*
X81569998Y-49368665D01*
X81569998Y-49368665D02*
X81522379Y-49273427D01*
X81522379Y-49273427D02*
X81427141Y-49225808D01*
X81427141Y-49225808D02*
X81284284Y-49225808D01*
X81284284Y-49225808D02*
X81189046Y-49273427D01*
X81189046Y-49273427D02*
X81141427Y-49321046D01*
X82046189Y-49892475D02*
X82046189Y-49225808D01*
X82046189Y-49416284D02*
X82093808Y-49321046D01*
X82093808Y-49321046D02*
X82141427Y-49273427D01*
X82141427Y-49273427D02*
X82236665Y-49225808D01*
X82236665Y-49225808D02*
X82331903Y-49225808D01*
X82665237Y-49892475D02*
X82665237Y-49225808D01*
X82665237Y-48892475D02*
X82617618Y-48940094D01*
X82617618Y-48940094D02*
X82665237Y-48987713D01*
X82665237Y-48987713D02*
X82712856Y-48940094D01*
X82712856Y-48940094D02*
X82665237Y-48892475D01*
X82665237Y-48892475D02*
X82665237Y-48987713D01*
X83093808Y-49844856D02*
X83189046Y-49892475D01*
X83189046Y-49892475D02*
X83379522Y-49892475D01*
X83379522Y-49892475D02*
X83474760Y-49844856D01*
X83474760Y-49844856D02*
X83522379Y-49749617D01*
X83522379Y-49749617D02*
X83522379Y-49701998D01*
X83522379Y-49701998D02*
X83474760Y-49606760D01*
X83474760Y-49606760D02*
X83379522Y-49559141D01*
X83379522Y-49559141D02*
X83236665Y-49559141D01*
X83236665Y-49559141D02*
X83141427Y-49511522D01*
X83141427Y-49511522D02*
X83093808Y-49416284D01*
X83093808Y-49416284D02*
X83093808Y-49368665D01*
X83093808Y-49368665D02*
X83141427Y-49273427D01*
X83141427Y-49273427D02*
X83236665Y-49225808D01*
X83236665Y-49225808D02*
X83379522Y-49225808D01*
X83379522Y-49225808D02*
X83474760Y-49273427D01*
X83808094Y-49225808D02*
X84189046Y-49225808D01*
X83950951Y-48892475D02*
X83950951Y-49749617D01*
X83950951Y-49749617D02*
X83998570Y-49844856D01*
X83998570Y-49844856D02*
X84093808Y-49892475D01*
X84093808Y-49892475D02*
X84189046Y-49892475D01*
X84665237Y-49892475D02*
X84569999Y-49844856D01*
X84569999Y-49844856D02*
X84522380Y-49797236D01*
X84522380Y-49797236D02*
X84474761Y-49701998D01*
X84474761Y-49701998D02*
X84474761Y-49416284D01*
X84474761Y-49416284D02*
X84522380Y-49321046D01*
X84522380Y-49321046D02*
X84569999Y-49273427D01*
X84569999Y-49273427D02*
X84665237Y-49225808D01*
X84665237Y-49225808D02*
X84808094Y-49225808D01*
X84808094Y-49225808D02*
X84903332Y-49273427D01*
X84903332Y-49273427D02*
X84950951Y-49321046D01*
X84950951Y-49321046D02*
X84998570Y-49416284D01*
X84998570Y-49416284D02*
X84998570Y-49701998D01*
X84998570Y-49701998D02*
X84950951Y-49797236D01*
X84950951Y-49797236D02*
X84903332Y-49844856D01*
X84903332Y-49844856D02*
X84808094Y-49892475D01*
X84808094Y-49892475D02*
X84665237Y-49892475D01*
X85427142Y-49225808D02*
X85427142Y-50225808D01*
X85427142Y-49273427D02*
X85522380Y-49225808D01*
X85522380Y-49225808D02*
X85712856Y-49225808D01*
X85712856Y-49225808D02*
X85808094Y-49273427D01*
X85808094Y-49273427D02*
X85855713Y-49321046D01*
X85855713Y-49321046D02*
X85903332Y-49416284D01*
X85903332Y-49416284D02*
X85903332Y-49701998D01*
X85903332Y-49701998D02*
X85855713Y-49797236D01*
X85855713Y-49797236D02*
X85808094Y-49844856D01*
X85808094Y-49844856D02*
X85712856Y-49892475D01*
X85712856Y-49892475D02*
X85522380Y-49892475D01*
X85522380Y-49892475D02*
X85427142Y-49844856D01*
X86331904Y-49892475D02*
X86331904Y-48892475D01*
X86760475Y-49892475D02*
X86760475Y-49368665D01*
X86760475Y-49368665D02*
X86712856Y-49273427D01*
X86712856Y-49273427D02*
X86617618Y-49225808D01*
X86617618Y-49225808D02*
X86474761Y-49225808D01*
X86474761Y-49225808D02*
X86379523Y-49273427D01*
X86379523Y-49273427D02*
X86331904Y-49321046D01*
X87617618Y-49844856D02*
X87522380Y-49892475D01*
X87522380Y-49892475D02*
X87331904Y-49892475D01*
X87331904Y-49892475D02*
X87236666Y-49844856D01*
X87236666Y-49844856D02*
X87189047Y-49749617D01*
X87189047Y-49749617D02*
X87189047Y-49368665D01*
X87189047Y-49368665D02*
X87236666Y-49273427D01*
X87236666Y-49273427D02*
X87331904Y-49225808D01*
X87331904Y-49225808D02*
X87522380Y-49225808D01*
X87522380Y-49225808D02*
X87617618Y-49273427D01*
X87617618Y-49273427D02*
X87665237Y-49368665D01*
X87665237Y-49368665D02*
X87665237Y-49463903D01*
X87665237Y-49463903D02*
X87189047Y-49559141D01*
X88093809Y-49892475D02*
X88093809Y-49225808D01*
X88093809Y-49416284D02*
X88141428Y-49321046D01*
X88141428Y-49321046D02*
X88189047Y-49273427D01*
X88189047Y-49273427D02*
X88284285Y-49225808D01*
X88284285Y-49225808D02*
X88379523Y-49225808D01*
X89474762Y-49892475D02*
X89474762Y-48892475D01*
X89474762Y-49368665D02*
X90046190Y-49368665D01*
X90046190Y-49892475D02*
X90046190Y-48892475D01*
X90903333Y-49844856D02*
X90808095Y-49892475D01*
X90808095Y-49892475D02*
X90617619Y-49892475D01*
X90617619Y-49892475D02*
X90522381Y-49844856D01*
X90522381Y-49844856D02*
X90474762Y-49749617D01*
X90474762Y-49749617D02*
X90474762Y-49368665D01*
X90474762Y-49368665D02*
X90522381Y-49273427D01*
X90522381Y-49273427D02*
X90617619Y-49225808D01*
X90617619Y-49225808D02*
X90808095Y-49225808D01*
X90808095Y-49225808D02*
X90903333Y-49273427D01*
X90903333Y-49273427D02*
X90950952Y-49368665D01*
X90950952Y-49368665D02*
X90950952Y-49463903D01*
X90950952Y-49463903D02*
X90474762Y-49559141D01*
X91331905Y-49844856D02*
X91427143Y-49892475D01*
X91427143Y-49892475D02*
X91617619Y-49892475D01*
X91617619Y-49892475D02*
X91712857Y-49844856D01*
X91712857Y-49844856D02*
X91760476Y-49749617D01*
X91760476Y-49749617D02*
X91760476Y-49701998D01*
X91760476Y-49701998D02*
X91712857Y-49606760D01*
X91712857Y-49606760D02*
X91617619Y-49559141D01*
X91617619Y-49559141D02*
X91474762Y-49559141D01*
X91474762Y-49559141D02*
X91379524Y-49511522D01*
X91379524Y-49511522D02*
X91331905Y-49416284D01*
X91331905Y-49416284D02*
X91331905Y-49368665D01*
X91331905Y-49368665D02*
X91379524Y-49273427D01*
X91379524Y-49273427D02*
X91474762Y-49225808D01*
X91474762Y-49225808D02*
X91617619Y-49225808D01*
X91617619Y-49225808D02*
X91712857Y-49273427D01*
X92189048Y-49892475D02*
X92189048Y-48892475D01*
X92284286Y-49511522D02*
X92570000Y-49892475D01*
X92570000Y-49225808D02*
X92189048Y-49606760D01*
X93379524Y-49844856D02*
X93284286Y-49892475D01*
X93284286Y-49892475D02*
X93093810Y-49892475D01*
X93093810Y-49892475D02*
X92998572Y-49844856D01*
X92998572Y-49844856D02*
X92950953Y-49749617D01*
X92950953Y-49749617D02*
X92950953Y-49368665D01*
X92950953Y-49368665D02*
X92998572Y-49273427D01*
X92998572Y-49273427D02*
X93093810Y-49225808D01*
X93093810Y-49225808D02*
X93284286Y-49225808D01*
X93284286Y-49225808D02*
X93379524Y-49273427D01*
X93379524Y-49273427D02*
X93427143Y-49368665D01*
X93427143Y-49368665D02*
X93427143Y-49463903D01*
X93427143Y-49463903D02*
X92950953Y-49559141D01*
X93712858Y-49225808D02*
X94093810Y-49225808D01*
X93855715Y-48892475D02*
X93855715Y-49749617D01*
X93855715Y-49749617D02*
X93903334Y-49844856D01*
X93903334Y-49844856D02*
X93998572Y-49892475D01*
X93998572Y-49892475D02*
X94093810Y-49892475D01*
X94284287Y-49225808D02*
X94665239Y-49225808D01*
X94427144Y-48892475D02*
X94427144Y-49749617D01*
X94427144Y-49749617D02*
X94474763Y-49844856D01*
X94474763Y-49844856D02*
X94570001Y-49892475D01*
X94570001Y-49892475D02*
X94665239Y-49892475D01*
X81808094Y-50978609D02*
X81474761Y-50978609D01*
X81474761Y-51502419D02*
X81474761Y-50502419D01*
X81474761Y-50502419D02*
X81950951Y-50502419D01*
X82474761Y-51502419D02*
X82379523Y-51454800D01*
X82379523Y-51454800D02*
X82331904Y-51407180D01*
X82331904Y-51407180D02*
X82284285Y-51311942D01*
X82284285Y-51311942D02*
X82284285Y-51026228D01*
X82284285Y-51026228D02*
X82331904Y-50930990D01*
X82331904Y-50930990D02*
X82379523Y-50883371D01*
X82379523Y-50883371D02*
X82474761Y-50835752D01*
X82474761Y-50835752D02*
X82617618Y-50835752D01*
X82617618Y-50835752D02*
X82712856Y-50883371D01*
X82712856Y-50883371D02*
X82760475Y-50930990D01*
X82760475Y-50930990D02*
X82808094Y-51026228D01*
X82808094Y-51026228D02*
X82808094Y-51311942D01*
X82808094Y-51311942D02*
X82760475Y-51407180D01*
X82760475Y-51407180D02*
X82712856Y-51454800D01*
X82712856Y-51454800D02*
X82617618Y-51502419D01*
X82617618Y-51502419D02*
X82474761Y-51502419D01*
X83236666Y-51502419D02*
X83236666Y-50835752D01*
X83236666Y-51026228D02*
X83284285Y-50930990D01*
X83284285Y-50930990D02*
X83331904Y-50883371D01*
X83331904Y-50883371D02*
X83427142Y-50835752D01*
X83427142Y-50835752D02*
X83522380Y-50835752D01*
X84474762Y-50835752D02*
X84855714Y-50835752D01*
X84617619Y-50502419D02*
X84617619Y-51359561D01*
X84617619Y-51359561D02*
X84665238Y-51454800D01*
X84665238Y-51454800D02*
X84760476Y-51502419D01*
X84760476Y-51502419D02*
X84855714Y-51502419D01*
X85189048Y-51502419D02*
X85189048Y-50502419D01*
X85617619Y-51502419D02*
X85617619Y-50978609D01*
X85617619Y-50978609D02*
X85570000Y-50883371D01*
X85570000Y-50883371D02*
X85474762Y-50835752D01*
X85474762Y-50835752D02*
X85331905Y-50835752D01*
X85331905Y-50835752D02*
X85236667Y-50883371D01*
X85236667Y-50883371D02*
X85189048Y-50930990D01*
X86474762Y-51454800D02*
X86379524Y-51502419D01*
X86379524Y-51502419D02*
X86189048Y-51502419D01*
X86189048Y-51502419D02*
X86093810Y-51454800D01*
X86093810Y-51454800D02*
X86046191Y-51359561D01*
X86046191Y-51359561D02*
X86046191Y-50978609D01*
X86046191Y-50978609D02*
X86093810Y-50883371D01*
X86093810Y-50883371D02*
X86189048Y-50835752D01*
X86189048Y-50835752D02*
X86379524Y-50835752D01*
X86379524Y-50835752D02*
X86474762Y-50883371D01*
X86474762Y-50883371D02*
X86522381Y-50978609D01*
X86522381Y-50978609D02*
X86522381Y-51073847D01*
X86522381Y-51073847D02*
X86046191Y-51169085D01*
X87570001Y-50502419D02*
X88141429Y-50502419D01*
X87855715Y-51502419D02*
X87855715Y-50502419D01*
X88474763Y-50978609D02*
X88808096Y-50978609D01*
X88950953Y-51502419D02*
X88474763Y-51502419D01*
X88474763Y-51502419D02*
X88474763Y-50502419D01*
X88474763Y-50502419D02*
X88950953Y-50502419D01*
X89236668Y-50502419D02*
X89808096Y-50502419D01*
X89522382Y-51502419D02*
X89522382Y-50502419D01*
X90712858Y-51407180D02*
X90665239Y-51454800D01*
X90665239Y-51454800D02*
X90522382Y-51502419D01*
X90522382Y-51502419D02*
X90427144Y-51502419D01*
X90427144Y-51502419D02*
X90284287Y-51454800D01*
X90284287Y-51454800D02*
X90189049Y-51359561D01*
X90189049Y-51359561D02*
X90141430Y-51264323D01*
X90141430Y-51264323D02*
X90093811Y-51073847D01*
X90093811Y-51073847D02*
X90093811Y-50930990D01*
X90093811Y-50930990D02*
X90141430Y-50740514D01*
X90141430Y-50740514D02*
X90189049Y-50645276D01*
X90189049Y-50645276D02*
X90284287Y-50550038D01*
X90284287Y-50550038D02*
X90427144Y-50502419D01*
X90427144Y-50502419D02*
X90522382Y-50502419D01*
X90522382Y-50502419D02*
X90665239Y-50550038D01*
X90665239Y-50550038D02*
X90712858Y-50597657D01*
D10*
X57828571Y-96944807D02*
X58095237Y-96944807D01*
X58209523Y-97363855D02*
X57828571Y-97363855D01*
X57828571Y-97363855D02*
X57828571Y-96563855D01*
X57828571Y-96563855D02*
X58209523Y-96563855D01*
X59009524Y-97363855D02*
X58742857Y-96982902D01*
X58552381Y-97363855D02*
X58552381Y-96563855D01*
X58552381Y-96563855D02*
X58857143Y-96563855D01*
X58857143Y-96563855D02*
X58933333Y-96601950D01*
X58933333Y-96601950D02*
X58971428Y-96640045D01*
X58971428Y-96640045D02*
X59009524Y-96716236D01*
X59009524Y-96716236D02*
X59009524Y-96830521D01*
X59009524Y-96830521D02*
X58971428Y-96906712D01*
X58971428Y-96906712D02*
X58933333Y-96944807D01*
X58933333Y-96944807D02*
X58857143Y-96982902D01*
X58857143Y-96982902D02*
X58552381Y-96982902D01*
X59809524Y-97363855D02*
X59542857Y-96982902D01*
X59352381Y-97363855D02*
X59352381Y-96563855D01*
X59352381Y-96563855D02*
X59657143Y-96563855D01*
X59657143Y-96563855D02*
X59733333Y-96601950D01*
X59733333Y-96601950D02*
X59771428Y-96640045D01*
X59771428Y-96640045D02*
X59809524Y-96716236D01*
X59809524Y-96716236D02*
X59809524Y-96830521D01*
X59809524Y-96830521D02*
X59771428Y-96906712D01*
X59771428Y-96906712D02*
X59733333Y-96944807D01*
X59733333Y-96944807D02*
X59657143Y-96982902D01*
X59657143Y-96982902D02*
X59352381Y-96982902D01*
X94276190Y-112963855D02*
X94009523Y-112582902D01*
X93819047Y-112963855D02*
X93819047Y-112163855D01*
X93819047Y-112163855D02*
X94123809Y-112163855D01*
X94123809Y-112163855D02*
X94199999Y-112201950D01*
X94199999Y-112201950D02*
X94238094Y-112240045D01*
X94238094Y-112240045D02*
X94276190Y-112316236D01*
X94276190Y-112316236D02*
X94276190Y-112430521D01*
X94276190Y-112430521D02*
X94238094Y-112506712D01*
X94238094Y-112506712D02*
X94199999Y-112544807D01*
X94199999Y-112544807D02*
X94123809Y-112582902D01*
X94123809Y-112582902D02*
X93819047Y-112582902D01*
X94619047Y-112544807D02*
X94885713Y-112544807D01*
X94999999Y-112963855D02*
X94619047Y-112963855D01*
X94619047Y-112963855D02*
X94619047Y-112163855D01*
X94619047Y-112163855D02*
X94999999Y-112163855D01*
X95304761Y-112925760D02*
X95419047Y-112963855D01*
X95419047Y-112963855D02*
X95609523Y-112963855D01*
X95609523Y-112963855D02*
X95685714Y-112925760D01*
X95685714Y-112925760D02*
X95723809Y-112887664D01*
X95723809Y-112887664D02*
X95761904Y-112811474D01*
X95761904Y-112811474D02*
X95761904Y-112735283D01*
X95761904Y-112735283D02*
X95723809Y-112659093D01*
X95723809Y-112659093D02*
X95685714Y-112620998D01*
X95685714Y-112620998D02*
X95609523Y-112582902D01*
X95609523Y-112582902D02*
X95457142Y-112544807D01*
X95457142Y-112544807D02*
X95380952Y-112506712D01*
X95380952Y-112506712D02*
X95342857Y-112468617D01*
X95342857Y-112468617D02*
X95304761Y-112392426D01*
X95304761Y-112392426D02*
X95304761Y-112316236D01*
X95304761Y-112316236D02*
X95342857Y-112240045D01*
X95342857Y-112240045D02*
X95380952Y-112201950D01*
X95380952Y-112201950D02*
X95457142Y-112163855D01*
X95457142Y-112163855D02*
X95647619Y-112163855D01*
X95647619Y-112163855D02*
X95761904Y-112201950D01*
X96866667Y-112163855D02*
X97019048Y-112163855D01*
X97019048Y-112163855D02*
X97095238Y-112201950D01*
X97095238Y-112201950D02*
X97171429Y-112278140D01*
X97171429Y-112278140D02*
X97209524Y-112430521D01*
X97209524Y-112430521D02*
X97209524Y-112697188D01*
X97209524Y-112697188D02*
X97171429Y-112849569D01*
X97171429Y-112849569D02*
X97095238Y-112925760D01*
X97095238Y-112925760D02*
X97019048Y-112963855D01*
X97019048Y-112963855D02*
X96866667Y-112963855D01*
X96866667Y-112963855D02*
X96790476Y-112925760D01*
X96790476Y-112925760D02*
X96714286Y-112849569D01*
X96714286Y-112849569D02*
X96676190Y-112697188D01*
X96676190Y-112697188D02*
X96676190Y-112430521D01*
X96676190Y-112430521D02*
X96714286Y-112278140D01*
X96714286Y-112278140D02*
X96790476Y-112201950D01*
X96790476Y-112201950D02*
X96866667Y-112163855D01*
X97552381Y-112963855D02*
X97552381Y-112163855D01*
X97552381Y-112163855D02*
X97857143Y-112163855D01*
X97857143Y-112163855D02*
X97933333Y-112201950D01*
X97933333Y-112201950D02*
X97971428Y-112240045D01*
X97971428Y-112240045D02*
X98009524Y-112316236D01*
X98009524Y-112316236D02*
X98009524Y-112430521D01*
X98009524Y-112430521D02*
X97971428Y-112506712D01*
X97971428Y-112506712D02*
X97933333Y-112544807D01*
X97933333Y-112544807D02*
X97857143Y-112582902D01*
X97857143Y-112582902D02*
X97552381Y-112582902D01*
X98238095Y-112163855D02*
X98695238Y-112163855D01*
X98466666Y-112963855D02*
X98466666Y-112163855D01*
X71419047Y-105125760D02*
X71533333Y-105163855D01*
X71533333Y-105163855D02*
X71723809Y-105163855D01*
X71723809Y-105163855D02*
X71800000Y-105125760D01*
X71800000Y-105125760D02*
X71838095Y-105087664D01*
X71838095Y-105087664D02*
X71876190Y-105011474D01*
X71876190Y-105011474D02*
X71876190Y-104935283D01*
X71876190Y-104935283D02*
X71838095Y-104859093D01*
X71838095Y-104859093D02*
X71800000Y-104820998D01*
X71800000Y-104820998D02*
X71723809Y-104782902D01*
X71723809Y-104782902D02*
X71571428Y-104744807D01*
X71571428Y-104744807D02*
X71495238Y-104706712D01*
X71495238Y-104706712D02*
X71457143Y-104668617D01*
X71457143Y-104668617D02*
X71419047Y-104592426D01*
X71419047Y-104592426D02*
X71419047Y-104516236D01*
X71419047Y-104516236D02*
X71457143Y-104440045D01*
X71457143Y-104440045D02*
X71495238Y-104401950D01*
X71495238Y-104401950D02*
X71571428Y-104363855D01*
X71571428Y-104363855D02*
X71761905Y-104363855D01*
X71761905Y-104363855D02*
X71876190Y-104401950D01*
X72104762Y-104363855D02*
X72561905Y-104363855D01*
X72333333Y-105163855D02*
X72333333Y-104363855D01*
X72790476Y-104935283D02*
X73171429Y-104935283D01*
X72714286Y-105163855D02*
X72980953Y-104363855D01*
X72980953Y-104363855D02*
X73247619Y-105163855D01*
X73400000Y-104363855D02*
X73857143Y-104363855D01*
X73628571Y-105163855D02*
X73628571Y-104363855D01*
X81485714Y-112544807D02*
X81219048Y-112544807D01*
X81219048Y-112963855D02*
X81219048Y-112163855D01*
X81219048Y-112163855D02*
X81600000Y-112163855D01*
X82285714Y-112963855D02*
X81904762Y-112963855D01*
X81904762Y-112963855D02*
X81904762Y-112163855D01*
X82704762Y-112163855D02*
X82857143Y-112163855D01*
X82857143Y-112163855D02*
X82933333Y-112201950D01*
X82933333Y-112201950D02*
X83009524Y-112278140D01*
X83009524Y-112278140D02*
X83047619Y-112430521D01*
X83047619Y-112430521D02*
X83047619Y-112697188D01*
X83047619Y-112697188D02*
X83009524Y-112849569D01*
X83009524Y-112849569D02*
X82933333Y-112925760D01*
X82933333Y-112925760D02*
X82857143Y-112963855D01*
X82857143Y-112963855D02*
X82704762Y-112963855D01*
X82704762Y-112963855D02*
X82628571Y-112925760D01*
X82628571Y-112925760D02*
X82552381Y-112849569D01*
X82552381Y-112849569D02*
X82514285Y-112697188D01*
X82514285Y-112697188D02*
X82514285Y-112430521D01*
X82514285Y-112430521D02*
X82552381Y-112278140D01*
X82552381Y-112278140D02*
X82628571Y-112201950D01*
X82628571Y-112201950D02*
X82704762Y-112163855D01*
X83314285Y-112163855D02*
X83504761Y-112963855D01*
X83504761Y-112963855D02*
X83657142Y-112392426D01*
X83657142Y-112392426D02*
X83809523Y-112963855D01*
X83809523Y-112963855D02*
X84000000Y-112163855D01*
X85066667Y-112163855D02*
X85219048Y-112163855D01*
X85219048Y-112163855D02*
X85295238Y-112201950D01*
X85295238Y-112201950D02*
X85371429Y-112278140D01*
X85371429Y-112278140D02*
X85409524Y-112430521D01*
X85409524Y-112430521D02*
X85409524Y-112697188D01*
X85409524Y-112697188D02*
X85371429Y-112849569D01*
X85371429Y-112849569D02*
X85295238Y-112925760D01*
X85295238Y-112925760D02*
X85219048Y-112963855D01*
X85219048Y-112963855D02*
X85066667Y-112963855D01*
X85066667Y-112963855D02*
X84990476Y-112925760D01*
X84990476Y-112925760D02*
X84914286Y-112849569D01*
X84914286Y-112849569D02*
X84876190Y-112697188D01*
X84876190Y-112697188D02*
X84876190Y-112430521D01*
X84876190Y-112430521D02*
X84914286Y-112278140D01*
X84914286Y-112278140D02*
X84990476Y-112201950D01*
X84990476Y-112201950D02*
X85066667Y-112163855D01*
X85752381Y-112963855D02*
X85752381Y-112163855D01*
X85752381Y-112163855D02*
X86057143Y-112163855D01*
X86057143Y-112163855D02*
X86133333Y-112201950D01*
X86133333Y-112201950D02*
X86171428Y-112240045D01*
X86171428Y-112240045D02*
X86209524Y-112316236D01*
X86209524Y-112316236D02*
X86209524Y-112430521D01*
X86209524Y-112430521D02*
X86171428Y-112506712D01*
X86171428Y-112506712D02*
X86133333Y-112544807D01*
X86133333Y-112544807D02*
X86057143Y-112582902D01*
X86057143Y-112582902D02*
X85752381Y-112582902D01*
X86438095Y-112163855D02*
X86895238Y-112163855D01*
X86666666Y-112963855D02*
X86666666Y-112163855D01*
D12*
X74946666Y-105494819D02*
X74946666Y-106209104D01*
X74946666Y-106209104D02*
X74899047Y-106351961D01*
X74899047Y-106351961D02*
X74803809Y-106447200D01*
X74803809Y-106447200D02*
X74660952Y-106494819D01*
X74660952Y-106494819D02*
X74565714Y-106494819D01*
X75946666Y-106494819D02*
X75375238Y-106494819D01*
X75660952Y-106494819D02*
X75660952Y-105494819D01*
X75660952Y-105494819D02*
X75565714Y-105637676D01*
X75565714Y-105637676D02*
X75470476Y-105732914D01*
X75470476Y-105732914D02*
X75375238Y-105780533D01*
X105768095Y-59336819D02*
X106339523Y-59336819D01*
X106053809Y-60336819D02*
X106053809Y-59336819D01*
X106672857Y-60336819D02*
X106672857Y-59336819D01*
X106672857Y-59336819D02*
X107053809Y-59336819D01*
X107053809Y-59336819D02*
X107149047Y-59384438D01*
X107149047Y-59384438D02*
X107196666Y-59432057D01*
X107196666Y-59432057D02*
X107244285Y-59527295D01*
X107244285Y-59527295D02*
X107244285Y-59670152D01*
X107244285Y-59670152D02*
X107196666Y-59765390D01*
X107196666Y-59765390D02*
X107149047Y-59813009D01*
X107149047Y-59813009D02*
X107053809Y-59860628D01*
X107053809Y-59860628D02*
X106672857Y-59860628D01*
X107625238Y-59432057D02*
X107672857Y-59384438D01*
X107672857Y-59384438D02*
X107768095Y-59336819D01*
X107768095Y-59336819D02*
X108006190Y-59336819D01*
X108006190Y-59336819D02*
X108101428Y-59384438D01*
X108101428Y-59384438D02*
X108149047Y-59432057D01*
X108149047Y-59432057D02*
X108196666Y-59527295D01*
X108196666Y-59527295D02*
X108196666Y-59622533D01*
X108196666Y-59622533D02*
X108149047Y-59765390D01*
X108149047Y-59765390D02*
X107577619Y-60336819D01*
X107577619Y-60336819D02*
X108196666Y-60336819D01*
X105768095Y-55786819D02*
X106339523Y-55786819D01*
X106053809Y-56786819D02*
X106053809Y-55786819D01*
X106672857Y-56786819D02*
X106672857Y-55786819D01*
X106672857Y-55786819D02*
X107053809Y-55786819D01*
X107053809Y-55786819D02*
X107149047Y-55834438D01*
X107149047Y-55834438D02*
X107196666Y-55882057D01*
X107196666Y-55882057D02*
X107244285Y-55977295D01*
X107244285Y-55977295D02*
X107244285Y-56120152D01*
X107244285Y-56120152D02*
X107196666Y-56215390D01*
X107196666Y-56215390D02*
X107149047Y-56263009D01*
X107149047Y-56263009D02*
X107053809Y-56310628D01*
X107053809Y-56310628D02*
X106672857Y-56310628D01*
X108196666Y-56786819D02*
X107625238Y-56786819D01*
X107910952Y-56786819D02*
X107910952Y-55786819D01*
X107910952Y-55786819D02*
X107815714Y-55929676D01*
X107815714Y-55929676D02*
X107720476Y-56024914D01*
X107720476Y-56024914D02*
X107625238Y-56072533D01*
X99496666Y-97734819D02*
X99496666Y-98449104D01*
X99496666Y-98449104D02*
X99449047Y-98591961D01*
X99449047Y-98591961D02*
X99353809Y-98687200D01*
X99353809Y-98687200D02*
X99210952Y-98734819D01*
X99210952Y-98734819D02*
X99115714Y-98734819D01*
X99925238Y-97830057D02*
X99972857Y-97782438D01*
X99972857Y-97782438D02*
X100068095Y-97734819D01*
X100068095Y-97734819D02*
X100306190Y-97734819D01*
X100306190Y-97734819D02*
X100401428Y-97782438D01*
X100401428Y-97782438D02*
X100449047Y-97830057D01*
X100449047Y-97830057D02*
X100496666Y-97925295D01*
X100496666Y-97925295D02*
X100496666Y-98020533D01*
X100496666Y-98020533D02*
X100449047Y-98163390D01*
X100449047Y-98163390D02*
X99877619Y-98734819D01*
X99877619Y-98734819D02*
X100496666Y-98734819D01*
X105768095Y-62886819D02*
X106339523Y-62886819D01*
X106053809Y-63886819D02*
X106053809Y-62886819D01*
X106672857Y-63886819D02*
X106672857Y-62886819D01*
X106672857Y-62886819D02*
X107053809Y-62886819D01*
X107053809Y-62886819D02*
X107149047Y-62934438D01*
X107149047Y-62934438D02*
X107196666Y-62982057D01*
X107196666Y-62982057D02*
X107244285Y-63077295D01*
X107244285Y-63077295D02*
X107244285Y-63220152D01*
X107244285Y-63220152D02*
X107196666Y-63315390D01*
X107196666Y-63315390D02*
X107149047Y-63363009D01*
X107149047Y-63363009D02*
X107053809Y-63410628D01*
X107053809Y-63410628D02*
X106672857Y-63410628D01*
X107577619Y-62886819D02*
X108196666Y-62886819D01*
X108196666Y-62886819D02*
X107863333Y-63267771D01*
X107863333Y-63267771D02*
X108006190Y-63267771D01*
X108006190Y-63267771D02*
X108101428Y-63315390D01*
X108101428Y-63315390D02*
X108149047Y-63363009D01*
X108149047Y-63363009D02*
X108196666Y-63458247D01*
X108196666Y-63458247D02*
X108196666Y-63696342D01*
X108196666Y-63696342D02*
X108149047Y-63791580D01*
X108149047Y-63791580D02*
X108101428Y-63839200D01*
X108101428Y-63839200D02*
X108006190Y-63886819D01*
X108006190Y-63886819D02*
X107720476Y-63886819D01*
X107720476Y-63886819D02*
X107625238Y-63839200D01*
X107625238Y-63839200D02*
X107577619Y-63791580D01*
X105768095Y-69986819D02*
X106339523Y-69986819D01*
X106053809Y-70986819D02*
X106053809Y-69986819D01*
X106672857Y-70986819D02*
X106672857Y-69986819D01*
X106672857Y-69986819D02*
X107053809Y-69986819D01*
X107053809Y-69986819D02*
X107149047Y-70034438D01*
X107149047Y-70034438D02*
X107196666Y-70082057D01*
X107196666Y-70082057D02*
X107244285Y-70177295D01*
X107244285Y-70177295D02*
X107244285Y-70320152D01*
X107244285Y-70320152D02*
X107196666Y-70415390D01*
X107196666Y-70415390D02*
X107149047Y-70463009D01*
X107149047Y-70463009D02*
X107053809Y-70510628D01*
X107053809Y-70510628D02*
X106672857Y-70510628D01*
X108149047Y-69986819D02*
X107672857Y-69986819D01*
X107672857Y-69986819D02*
X107625238Y-70463009D01*
X107625238Y-70463009D02*
X107672857Y-70415390D01*
X107672857Y-70415390D02*
X107768095Y-70367771D01*
X107768095Y-70367771D02*
X108006190Y-70367771D01*
X108006190Y-70367771D02*
X108101428Y-70415390D01*
X108101428Y-70415390D02*
X108149047Y-70463009D01*
X108149047Y-70463009D02*
X108196666Y-70558247D01*
X108196666Y-70558247D02*
X108196666Y-70796342D01*
X108196666Y-70796342D02*
X108149047Y-70891580D01*
X108149047Y-70891580D02*
X108101428Y-70939200D01*
X108101428Y-70939200D02*
X108006190Y-70986819D01*
X108006190Y-70986819D02*
X107768095Y-70986819D01*
X107768095Y-70986819D02*
X107672857Y-70939200D01*
X107672857Y-70939200D02*
X107625238Y-70891580D01*
X69684819Y-96641904D02*
X70494342Y-96641904D01*
X70494342Y-96641904D02*
X70589580Y-96594285D01*
X70589580Y-96594285D02*
X70637200Y-96546666D01*
X70637200Y-96546666D02*
X70684819Y-96451428D01*
X70684819Y-96451428D02*
X70684819Y-96260952D01*
X70684819Y-96260952D02*
X70637200Y-96165714D01*
X70637200Y-96165714D02*
X70589580Y-96118095D01*
X70589580Y-96118095D02*
X70494342Y-96070476D01*
X70494342Y-96070476D02*
X69684819Y-96070476D01*
X70684819Y-95070476D02*
X70684819Y-95641904D01*
X70684819Y-95356190D02*
X69684819Y-95356190D01*
X69684819Y-95356190D02*
X69827676Y-95451428D01*
X69827676Y-95451428D02*
X69922914Y-95546666D01*
X69922914Y-95546666D02*
X69970533Y-95641904D01*
X106516666Y-97824819D02*
X106516666Y-98539104D01*
X106516666Y-98539104D02*
X106469047Y-98681961D01*
X106469047Y-98681961D02*
X106373809Y-98777200D01*
X106373809Y-98777200D02*
X106230952Y-98824819D01*
X106230952Y-98824819D02*
X106135714Y-98824819D01*
X106897619Y-97824819D02*
X107564285Y-97824819D01*
X107564285Y-97824819D02*
X107135714Y-98824819D01*
X88796666Y-97734819D02*
X88796666Y-98449104D01*
X88796666Y-98449104D02*
X88749047Y-98591961D01*
X88749047Y-98591961D02*
X88653809Y-98687200D01*
X88653809Y-98687200D02*
X88510952Y-98734819D01*
X88510952Y-98734819D02*
X88415714Y-98734819D01*
X89177619Y-97734819D02*
X89796666Y-97734819D01*
X89796666Y-97734819D02*
X89463333Y-98115771D01*
X89463333Y-98115771D02*
X89606190Y-98115771D01*
X89606190Y-98115771D02*
X89701428Y-98163390D01*
X89701428Y-98163390D02*
X89749047Y-98211009D01*
X89749047Y-98211009D02*
X89796666Y-98306247D01*
X89796666Y-98306247D02*
X89796666Y-98544342D01*
X89796666Y-98544342D02*
X89749047Y-98639580D01*
X89749047Y-98639580D02*
X89701428Y-98687200D01*
X89701428Y-98687200D02*
X89606190Y-98734819D01*
X89606190Y-98734819D02*
X89320476Y-98734819D01*
X89320476Y-98734819D02*
X89225238Y-98687200D01*
X89225238Y-98687200D02*
X89177619Y-98639580D01*
X105768095Y-66436819D02*
X106339523Y-66436819D01*
X106053809Y-67436819D02*
X106053809Y-66436819D01*
X106672857Y-67436819D02*
X106672857Y-66436819D01*
X106672857Y-66436819D02*
X107053809Y-66436819D01*
X107053809Y-66436819D02*
X107149047Y-66484438D01*
X107149047Y-66484438D02*
X107196666Y-66532057D01*
X107196666Y-66532057D02*
X107244285Y-66627295D01*
X107244285Y-66627295D02*
X107244285Y-66770152D01*
X107244285Y-66770152D02*
X107196666Y-66865390D01*
X107196666Y-66865390D02*
X107149047Y-66913009D01*
X107149047Y-66913009D02*
X107053809Y-66960628D01*
X107053809Y-66960628D02*
X106672857Y-66960628D01*
X108101428Y-66770152D02*
X108101428Y-67436819D01*
X107863333Y-66389200D02*
X107625238Y-67103485D01*
X107625238Y-67103485D02*
X108244285Y-67103485D01*
X109148533Y-73839580D02*
X109100914Y-73887200D01*
X109100914Y-73887200D02*
X108958057Y-73934819D01*
X108958057Y-73934819D02*
X108862819Y-73934819D01*
X108862819Y-73934819D02*
X108719962Y-73887200D01*
X108719962Y-73887200D02*
X108624724Y-73791961D01*
X108624724Y-73791961D02*
X108577105Y-73696723D01*
X108577105Y-73696723D02*
X108529486Y-73506247D01*
X108529486Y-73506247D02*
X108529486Y-73363390D01*
X108529486Y-73363390D02*
X108577105Y-73172914D01*
X108577105Y-73172914D02*
X108624724Y-73077676D01*
X108624724Y-73077676D02*
X108719962Y-72982438D01*
X108719962Y-72982438D02*
X108862819Y-72934819D01*
X108862819Y-72934819D02*
X108958057Y-72934819D01*
X108958057Y-72934819D02*
X109100914Y-72982438D01*
X109100914Y-72982438D02*
X109148533Y-73030057D01*
X110005676Y-72934819D02*
X109815200Y-72934819D01*
X109815200Y-72934819D02*
X109719962Y-72982438D01*
X109719962Y-72982438D02*
X109672343Y-73030057D01*
X109672343Y-73030057D02*
X109577105Y-73172914D01*
X109577105Y-73172914D02*
X109529486Y-73363390D01*
X109529486Y-73363390D02*
X109529486Y-73744342D01*
X109529486Y-73744342D02*
X109577105Y-73839580D01*
X109577105Y-73839580D02*
X109624724Y-73887200D01*
X109624724Y-73887200D02*
X109719962Y-73934819D01*
X109719962Y-73934819D02*
X109910438Y-73934819D01*
X109910438Y-73934819D02*
X110005676Y-73887200D01*
X110005676Y-73887200D02*
X110053295Y-73839580D01*
X110053295Y-73839580D02*
X110100914Y-73744342D01*
X110100914Y-73744342D02*
X110100914Y-73506247D01*
X110100914Y-73506247D02*
X110053295Y-73411009D01*
X110053295Y-73411009D02*
X110005676Y-73363390D01*
X110005676Y-73363390D02*
X109910438Y-73315771D01*
X109910438Y-73315771D02*
X109719962Y-73315771D01*
X109719962Y-73315771D02*
X109624724Y-73363390D01*
X109624724Y-73363390D02*
X109577105Y-73411009D01*
X109577105Y-73411009D02*
X109529486Y-73506247D01*
D10*
%TO.C,R10*%
X67002936Y-112895000D02*
X67457064Y-112895000D01*
X67002936Y-114365000D02*
X67457064Y-114365000D01*
%TO.C,J1*%
X70610000Y-111440000D02*
X70610000Y-109740000D01*
X79950000Y-111440000D02*
X79950000Y-109740000D01*
%TO.C,R3*%
X58182936Y-112895000D02*
X58637064Y-112895000D01*
X58182936Y-114365000D02*
X58637064Y-114365000D01*
%TO.C,D1*%
X105815000Y-89980000D02*
X105815000Y-93280000D01*
X105815000Y-89980000D02*
X111325000Y-89980000D01*
X105815000Y-93280000D02*
X111325000Y-93280000D01*
%TO.C,TP2*%
X107980000Y-61530000D02*
G75*
G02*
X106080000Y-61530000I-950000J0D01*
G01*
X106080000Y-61530000D02*
G75*
G02*
X107980000Y-61530000I950000J0D01*
G01*
%TO.C,TP1*%
X107980000Y-57980000D02*
G75*
G02*
X106080000Y-57980000I-950000J0D01*
G01*
X106080000Y-57980000D02*
G75*
G02*
X107980000Y-57980000I950000J0D01*
G01*
%TO.C,D3*%
X64115000Y-101240000D02*
X64115000Y-103160000D01*
X64115000Y-103160000D02*
X66800000Y-103160000D01*
X66800000Y-101240000D02*
X64115000Y-101240000D01*
%TO.C,J2*%
X95730000Y-99080000D02*
X95730000Y-100330000D01*
X96030000Y-101630000D02*
X96780000Y-101630000D01*
X96780000Y-101630000D02*
X96780000Y-104580000D01*
X96780000Y-104580000D02*
X99830000Y-104580000D01*
X96980000Y-99080000D02*
X95730000Y-99080000D01*
X102880000Y-101630000D02*
X102880000Y-104580000D01*
X102880000Y-104580000D02*
X99830000Y-104580000D01*
X103630000Y-101630000D02*
X102880000Y-101630000D01*
X96020000Y-99370000D02*
X103640000Y-99370000D01*
X103640000Y-105340000D01*
X96020000Y-105340000D01*
X96020000Y-99370000D01*
X96030000Y-99380000D02*
X97830000Y-99380000D01*
X97830000Y-100130000D01*
X96030000Y-100130000D01*
X96030000Y-99380000D01*
X99330000Y-99380000D02*
X100330000Y-99380000D01*
X100330000Y-100130000D01*
X99330000Y-100130000D01*
X99330000Y-99380000D01*
X101830000Y-99380000D02*
X103630000Y-99380000D01*
X103630000Y-100130000D01*
X101830000Y-100130000D01*
X101830000Y-99380000D01*
%TO.C,R11*%
X67227064Y-98265000D02*
X66772936Y-98265000D01*
X67227064Y-99735000D02*
X66772936Y-99735000D01*
%TO.C,TP3*%
X107980000Y-65080000D02*
G75*
G02*
X106080000Y-65080000I-950000J0D01*
G01*
X106080000Y-65080000D02*
G75*
G02*
X107980000Y-65080000I950000J0D01*
G01*
%TO.C,TP5*%
X107980000Y-72180000D02*
G75*
G02*
X106080000Y-72180000I-950000J0D01*
G01*
X106080000Y-72180000D02*
G75*
G02*
X107980000Y-72180000I950000J0D01*
G01*
%TO.C,U1*%
X71530000Y-71580000D02*
X71530000Y-77780000D01*
X71530000Y-71580000D02*
X89930000Y-71580000D01*
X71530000Y-96430000D02*
X71530000Y-97430000D01*
X71530000Y-97430000D02*
X73030000Y-97430000D01*
X89930000Y-71580000D02*
X89930000Y-77780000D01*
X89930000Y-97430000D02*
X88430000Y-97430000D01*
X89930000Y-97430000D02*
X89930000Y-96430000D01*
X71530000Y-78455000D02*
X71030000Y-78455000D01*
X71530000Y-77955000D01*
X71530000Y-78455000D01*
G36*
X71530000Y-78455000D02*
G01*
X71030000Y-78455000D01*
X71530000Y-77955000D01*
X71530000Y-78455000D01*
G37*
%TO.C,TP6*%
X99530000Y-109630000D02*
G75*
G02*
X97630000Y-109630000I-950000J0D01*
G01*
X97630000Y-109630000D02*
G75*
G02*
X99530000Y-109630000I950000J0D01*
G01*
%TO.C,J7*%
X105470000Y-99370000D02*
X106850000Y-99370000D01*
X105470000Y-100750000D02*
X105470000Y-99370000D01*
X105470000Y-102020000D02*
X105470000Y-114830000D01*
X105470000Y-102020000D02*
X108230000Y-102020000D01*
X105470000Y-114830000D02*
X108230000Y-114830000D01*
X108230000Y-102020000D02*
X108230000Y-114830000D01*
%TO.C,R1*%
X58182936Y-106995000D02*
X58637064Y-106995000D01*
X58182936Y-108465000D02*
X58637064Y-108465000D01*
%TO.C,C1*%
X111108748Y-99225000D02*
X111631252Y-99225000D01*
X111108748Y-100695000D02*
X111631252Y-100695000D01*
%TO.C,TP9*%
X90080000Y-109630000D02*
G75*
G02*
X88180000Y-109630000I-950000J0D01*
G01*
X88180000Y-109630000D02*
G75*
G02*
X90080000Y-109630000I950000J0D01*
G01*
%TO.C,L1*%
X106180000Y-82480000D02*
X106180000Y-82930000D01*
X106180000Y-82480000D02*
X112380000Y-82480000D01*
X106180000Y-88680000D02*
X106180000Y-88230000D01*
X112380000Y-82480000D02*
X112380000Y-82930000D01*
X112380000Y-88680000D02*
X106180000Y-88680000D01*
X112380000Y-88680000D02*
X112380000Y-88230000D01*
%TO.C,TP8*%
X87580000Y-109630000D02*
G75*
G02*
X85680000Y-109630000I-950000J0D01*
G01*
X85680000Y-109630000D02*
G75*
G02*
X87580000Y-109630000I950000J0D01*
G01*
%TO.C,U2*%
X110470000Y-57045000D02*
X112290000Y-57045000D01*
X110470000Y-57095000D02*
X110470000Y-57045000D01*
X110470000Y-60165000D02*
X110470000Y-60115000D01*
X112290000Y-57045000D02*
X112290000Y-57095000D01*
X112290000Y-60115000D02*
X112290000Y-60165000D01*
X112290000Y-60165000D02*
X110470000Y-60165000D01*
X109930000Y-57095000D02*
X109690000Y-56765000D01*
X110170000Y-56765000D01*
X109930000Y-57095000D01*
G36*
X109930000Y-57095000D02*
G01*
X109690000Y-56765000D01*
X110170000Y-56765000D01*
X109930000Y-57095000D01*
G37*
%TO.C,C3*%
X111108748Y-105245000D02*
X111631252Y-105245000D01*
X111108748Y-106715000D02*
X111631252Y-106715000D01*
%TO.C,J3*%
X83780000Y-99080000D02*
X83780000Y-100330000D01*
X84080000Y-101630000D02*
X84830000Y-101630000D01*
X84830000Y-101630000D02*
X84830000Y-104580000D01*
X84830000Y-104580000D02*
X89130000Y-104580000D01*
X85030000Y-99080000D02*
X83780000Y-99080000D01*
X93430000Y-101630000D02*
X93430000Y-104580000D01*
X93430000Y-104580000D02*
X89130000Y-104580000D01*
X94180000Y-101630000D02*
X93430000Y-101630000D01*
X84070000Y-99370000D02*
X94190000Y-99370000D01*
X94190000Y-105340000D01*
X84070000Y-105340000D01*
X84070000Y-99370000D01*
X84080000Y-99380000D02*
X85880000Y-99380000D01*
X85880000Y-100130000D01*
X84080000Y-100130000D01*
X84080000Y-99380000D01*
X87380000Y-99380000D02*
X90880000Y-99380000D01*
X90880000Y-100130000D01*
X87380000Y-100130000D01*
X87380000Y-99380000D01*
X92380000Y-99380000D02*
X94180000Y-99380000D01*
X94180000Y-100130000D01*
X92380000Y-100130000D01*
X92380000Y-99380000D01*
%TO.C,C2*%
X111108748Y-102235000D02*
X111631252Y-102235000D01*
X111108748Y-103705000D02*
X111631252Y-103705000D01*
%TO.C,D2*%
X60615000Y-98040000D02*
X60615000Y-99960000D01*
X60615000Y-99960000D02*
X63300000Y-99960000D01*
X63300000Y-98040000D02*
X60615000Y-98040000D01*
%TO.C,TP4*%
X107980000Y-68630000D02*
G75*
G02*
X106080000Y-68630000I-950000J0D01*
G01*
X106080000Y-68630000D02*
G75*
G02*
X107980000Y-68630000I950000J0D01*
G01*
%TO.C,Q1*%
X110500000Y-61490000D02*
X112020000Y-61490000D01*
X110500000Y-61540000D02*
X110500000Y-61490000D01*
X110500000Y-63440000D02*
X110500000Y-62660000D01*
X110500000Y-64610000D02*
X110500000Y-64560000D01*
X112020000Y-61490000D02*
X112020000Y-62490000D01*
X112020000Y-63610000D02*
X112020000Y-64610000D01*
X112020000Y-64610000D02*
X110500000Y-64610000D01*
X110200000Y-63000000D02*
X109720000Y-63000000D01*
X109960000Y-62670000D01*
X110200000Y-63000000D01*
G36*
X110200000Y-63000000D02*
G01*
X109720000Y-63000000D01*
X109960000Y-62670000D01*
X110200000Y-63000000D01*
G37*
%TO.C,TP7*%
X102030000Y-109630000D02*
G75*
G02*
X100130000Y-109630000I-950000J0D01*
G01*
X100130000Y-109630000D02*
G75*
G02*
X102030000Y-109630000I950000J0D01*
G01*
%TO.C,R12*%
X70727064Y-101465000D02*
X70272936Y-101465000D01*
X70727064Y-102935000D02*
X70272936Y-102935000D01*
%TO.C,R4*%
X62592936Y-106995000D02*
X63047064Y-106995000D01*
X62592936Y-108465000D02*
X63047064Y-108465000D01*
%TO.C,R2*%
X58182936Y-109945000D02*
X58637064Y-109945000D01*
X58182936Y-111415000D02*
X58637064Y-111415000D01*
%TO.C,R5*%
X62592936Y-109945000D02*
X63047064Y-109945000D01*
X62592936Y-111415000D02*
X63047064Y-111415000D01*
%TO.C,C6*%
X105814959Y-76041000D02*
X106444959Y-76041000D01*
X106129959Y-75726000D02*
X106129959Y-76356000D01*
X109315200Y-74650000D02*
X109315200Y-81110000D01*
X109355200Y-74650000D02*
X109355200Y-81110000D01*
X109395200Y-74651000D02*
X109395200Y-81109000D01*
X109435200Y-74652000D02*
X109435200Y-81108000D01*
X109475200Y-74654000D02*
X109475200Y-81106000D01*
X109515200Y-74656000D02*
X109515200Y-81104000D01*
X109555200Y-74659000D02*
X109555200Y-76840000D01*
X109555200Y-78920000D02*
X109555200Y-81101000D01*
X109595200Y-74662000D02*
X109595200Y-76840000D01*
X109595200Y-78920000D02*
X109595200Y-81098000D01*
X109635200Y-74666000D02*
X109635200Y-76840000D01*
X109635200Y-78920000D02*
X109635200Y-81094000D01*
X109675200Y-74670000D02*
X109675200Y-76840000D01*
X109675200Y-78920000D02*
X109675200Y-81090000D01*
X109715200Y-74675000D02*
X109715200Y-76840000D01*
X109715200Y-78920000D02*
X109715200Y-81085000D01*
X109755200Y-74680000D02*
X109755200Y-76840000D01*
X109755200Y-78920000D02*
X109755200Y-81080000D01*
X109795200Y-74685000D02*
X109795200Y-76840000D01*
X109795200Y-78920000D02*
X109795200Y-81075000D01*
X109835200Y-74692000D02*
X109835200Y-76840000D01*
X109835200Y-78920000D02*
X109835200Y-81068000D01*
X109875200Y-74698000D02*
X109875200Y-76840000D01*
X109875200Y-78920000D02*
X109875200Y-81062000D01*
X109915200Y-74706000D02*
X109915200Y-76840000D01*
X109915200Y-78920000D02*
X109915200Y-81054000D01*
X109955200Y-74713000D02*
X109955200Y-76840000D01*
X109955200Y-78920000D02*
X109955200Y-81047000D01*
X109995200Y-74721000D02*
X109995200Y-76840000D01*
X109995200Y-78920000D02*
X109995200Y-81039000D01*
X110035200Y-74730000D02*
X110035200Y-76840000D01*
X110035200Y-78920000D02*
X110035200Y-81030000D01*
X110075200Y-74740000D02*
X110075200Y-76840000D01*
X110075200Y-78920000D02*
X110075200Y-81020000D01*
X110115200Y-74749000D02*
X110115200Y-76840000D01*
X110115200Y-78920000D02*
X110115200Y-81011000D01*
X110155200Y-74760000D02*
X110155200Y-76840000D01*
X110155200Y-78920000D02*
X110155200Y-81000000D01*
X110195200Y-74771000D02*
X110195200Y-76840000D01*
X110195200Y-78920000D02*
X110195200Y-80989000D01*
X110235200Y-74782000D02*
X110235200Y-76840000D01*
X110235200Y-78920000D02*
X110235200Y-80978000D01*
X110275200Y-74794000D02*
X110275200Y-76840000D01*
X110275200Y-78920000D02*
X110275200Y-80966000D01*
X110315200Y-74807000D02*
X110315200Y-76840000D01*
X110315200Y-78920000D02*
X110315200Y-80953000D01*
X110355200Y-74820000D02*
X110355200Y-76840000D01*
X110355200Y-78920000D02*
X110355200Y-80940000D01*
X110395200Y-74833000D02*
X110395200Y-76840000D01*
X110395200Y-78920000D02*
X110395200Y-80927000D01*
X110435200Y-74848000D02*
X110435200Y-76840000D01*
X110435200Y-78920000D02*
X110435200Y-80912000D01*
X110475200Y-74863000D02*
X110475200Y-76840000D01*
X110475200Y-78920000D02*
X110475200Y-80897000D01*
X110515200Y-74878000D02*
X110515200Y-76840000D01*
X110515200Y-78920000D02*
X110515200Y-80882000D01*
X110555200Y-74894000D02*
X110555200Y-76840000D01*
X110555200Y-78920000D02*
X110555200Y-80866000D01*
X110595200Y-74911000D02*
X110595200Y-76840000D01*
X110595200Y-78920000D02*
X110595200Y-80849000D01*
X110635200Y-74928000D02*
X110635200Y-76840000D01*
X110635200Y-78920000D02*
X110635200Y-80832000D01*
X110675200Y-74946000D02*
X110675200Y-76840000D01*
X110675200Y-78920000D02*
X110675200Y-80814000D01*
X110715200Y-74965000D02*
X110715200Y-76840000D01*
X110715200Y-78920000D02*
X110715200Y-80795000D01*
X110755200Y-74984000D02*
X110755200Y-76840000D01*
X110755200Y-78920000D02*
X110755200Y-80776000D01*
X110795200Y-75004000D02*
X110795200Y-76840000D01*
X110795200Y-78920000D02*
X110795200Y-80756000D01*
X110835200Y-75025000D02*
X110835200Y-76840000D01*
X110835200Y-78920000D02*
X110835200Y-80735000D01*
X110875200Y-75046000D02*
X110875200Y-76840000D01*
X110875200Y-78920000D02*
X110875200Y-80714000D01*
X110915200Y-75068000D02*
X110915200Y-76840000D01*
X110915200Y-78920000D02*
X110915200Y-80692000D01*
X110955200Y-75091000D02*
X110955200Y-76840000D01*
X110955200Y-78920000D02*
X110955200Y-80669000D01*
X110995200Y-75115000D02*
X110995200Y-76840000D01*
X110995200Y-78920000D02*
X110995200Y-80645000D01*
X111035200Y-75139000D02*
X111035200Y-76840000D01*
X111035200Y-78920000D02*
X111035200Y-80621000D01*
X111075200Y-75164000D02*
X111075200Y-76840000D01*
X111075200Y-78920000D02*
X111075200Y-80596000D01*
X111115200Y-75190000D02*
X111115200Y-76840000D01*
X111115200Y-78920000D02*
X111115200Y-80570000D01*
X111155200Y-75217000D02*
X111155200Y-76840000D01*
X111155200Y-78920000D02*
X111155200Y-80543000D01*
X111195200Y-75244000D02*
X111195200Y-76840000D01*
X111195200Y-78920000D02*
X111195200Y-80516000D01*
X111235200Y-75273000D02*
X111235200Y-76840000D01*
X111235200Y-78920000D02*
X111235200Y-80487000D01*
X111275200Y-75303000D02*
X111275200Y-76840000D01*
X111275200Y-78920000D02*
X111275200Y-80457000D01*
X111315200Y-75333000D02*
X111315200Y-76840000D01*
X111315200Y-78920000D02*
X111315200Y-80427000D01*
X111355200Y-75364000D02*
X111355200Y-76840000D01*
X111355200Y-78920000D02*
X111355200Y-80396000D01*
X111395200Y-75397000D02*
X111395200Y-76840000D01*
X111395200Y-78920000D02*
X111395200Y-80363000D01*
X111435200Y-75430000D02*
X111435200Y-76840000D01*
X111435200Y-78920000D02*
X111435200Y-80330000D01*
X111475200Y-75465000D02*
X111475200Y-76840000D01*
X111475200Y-78920000D02*
X111475200Y-80295000D01*
X111515200Y-75501000D02*
X111515200Y-76840000D01*
X111515200Y-78920000D02*
X111515200Y-80259000D01*
X111555200Y-75538000D02*
X111555200Y-76840000D01*
X111555200Y-78920000D02*
X111555200Y-80222000D01*
X111595200Y-75576000D02*
X111595200Y-76840000D01*
X111595200Y-78920000D02*
X111595200Y-80184000D01*
X111635200Y-75616000D02*
X111635200Y-80144000D01*
X111675200Y-75657000D02*
X111675200Y-80103000D01*
X111715200Y-75699000D02*
X111715200Y-80061000D01*
X111755200Y-75743000D02*
X111755200Y-80017000D01*
X111795200Y-75789000D02*
X111795200Y-79971000D01*
X111835200Y-75836000D02*
X111835200Y-79924000D01*
X111875200Y-75885000D02*
X111875200Y-79875000D01*
X111915200Y-75937000D02*
X111915200Y-79823000D01*
X111955200Y-75990000D02*
X111955200Y-79770000D01*
X111995200Y-76046000D02*
X111995200Y-79714000D01*
X112035200Y-76105000D02*
X112035200Y-79655000D01*
X112075200Y-76166000D02*
X112075200Y-79594000D01*
X112115200Y-76231000D02*
X112115200Y-79529000D01*
X112155200Y-76299000D02*
X112155200Y-79461000D01*
X112195200Y-76371000D02*
X112195200Y-79389000D01*
X112235200Y-76448000D02*
X112235200Y-79312000D01*
X112275200Y-76530000D02*
X112275200Y-79230000D01*
X112315200Y-76619000D02*
X112315200Y-79141000D01*
X112355200Y-76715000D02*
X112355200Y-79045000D01*
X112395200Y-76822000D02*
X112395200Y-78938000D01*
X112435200Y-76941000D02*
X112435200Y-78819000D01*
X112475200Y-77079000D02*
X112475200Y-78681000D01*
X112515200Y-77247000D02*
X112515200Y-78513000D01*
X112555200Y-77478000D02*
X112555200Y-78282000D01*
X112585200Y-77880000D02*
G75*
G02*
X106045200Y-77880000I-3270000J0D01*
G01*
X106045200Y-77880000D02*
G75*
G02*
X112585200Y-77880000I3270000J0D01*
G01*
%TO.C,TP10*%
X92580000Y-109630000D02*
G75*
G02*
X90680000Y-109630000I-950000J0D01*
G01*
X90680000Y-109630000D02*
G75*
G02*
X92580000Y-109630000I950000J0D01*
G01*
%TO.C,C5*%
X111108748Y-111265000D02*
X111631252Y-111265000D01*
X111108748Y-112735000D02*
X111631252Y-112735000D01*
%TD*%
%LPC*%
D13*
%TO.C,R10*%
X66317500Y-113630000D03*
X68142500Y-113630000D03*
%TD*%
D14*
%TO.C,J1*%
X72390000Y-108935000D03*
X78170000Y-108935000D03*
D15*
X72080000Y-107860000D03*
X72880000Y-107860000D03*
D16*
X74030000Y-107860000D03*
X75030000Y-107860000D03*
X75530000Y-107860000D03*
X76530000Y-107860000D03*
D15*
X77680000Y-107860000D03*
X78480000Y-107860000D03*
X78480000Y-107860000D03*
X77680000Y-107860000D03*
D16*
X77030000Y-107860000D03*
X76030000Y-107860000D03*
X74530000Y-107860000D03*
X73530000Y-107860000D03*
D15*
X72880000Y-107860000D03*
X72080000Y-107860000D03*
D17*
X70960000Y-108435000D03*
D18*
X70960000Y-112615000D03*
D17*
X79600000Y-108435000D03*
D18*
X79600000Y-112615000D03*
%TD*%
D13*
%TO.C,R3*%
X57497500Y-113630000D03*
X59322500Y-113630000D03*
%TD*%
D19*
%TO.C,D1*%
X107325000Y-91630000D03*
X111325000Y-91630000D03*
%TD*%
D20*
%TO.C,TP2*%
X107030000Y-61530000D03*
%TD*%
%TO.C,TP1*%
X107030000Y-57980000D03*
%TD*%
D21*
%TO.C,D3*%
X64862500Y-102200000D03*
X66737500Y-102200000D03*
%TD*%
D22*
%TO.C,J2*%
X98580000Y-101830000D03*
D23*
X101080000Y-101830000D03*
%TD*%
D24*
%TO.C,R11*%
X67912500Y-99000000D03*
X66087500Y-99000000D03*
%TD*%
D20*
%TO.C,TP3*%
X107030000Y-65080000D03*
%TD*%
D25*
%TO.C,H3*%
X60960000Y-119380000D03*
%TD*%
D20*
%TO.C,TP5*%
X107030000Y-72180000D03*
%TD*%
D26*
%TO.C,U1*%
X71980000Y-79220000D03*
X71980000Y-80490000D03*
X71980000Y-81760000D03*
X71980000Y-83030000D03*
X71980000Y-84300000D03*
X71980000Y-85570000D03*
X71980000Y-86840000D03*
X71980000Y-88110000D03*
X71980000Y-89380000D03*
X71980000Y-90650000D03*
X71980000Y-91920000D03*
X71980000Y-93190000D03*
X71980000Y-94460000D03*
X71980000Y-95730000D03*
D27*
X73745000Y-96980000D03*
X75015000Y-96980000D03*
X76285000Y-96980000D03*
X77555000Y-96980000D03*
X78825000Y-96980000D03*
X80095000Y-96980000D03*
X81365000Y-96980000D03*
X82635000Y-96980000D03*
X83905000Y-96980000D03*
X85175000Y-96980000D03*
X86445000Y-96980000D03*
X87715000Y-96980000D03*
D26*
X89480000Y-95730000D03*
X89480000Y-94460000D03*
X89480000Y-93190000D03*
X89480000Y-91920000D03*
X89480000Y-90650000D03*
X89480000Y-89380000D03*
X89480000Y-88110000D03*
X89480000Y-86840000D03*
X89480000Y-85570000D03*
X89480000Y-84300000D03*
X89480000Y-83030000D03*
X89480000Y-81760000D03*
X89480000Y-80490000D03*
X89480000Y-79220000D03*
D28*
X77830000Y-86240000D03*
X77830000Y-87640000D03*
X78530000Y-85540000D03*
X78530000Y-86940000D03*
X78530000Y-88340000D03*
X79230000Y-86240000D03*
D29*
X79230000Y-86940000D03*
D28*
X79230000Y-87640000D03*
X79930000Y-85540000D03*
X79930000Y-86940000D03*
X79930000Y-88340000D03*
X80630000Y-86240000D03*
X80630000Y-87640000D03*
%TD*%
D20*
%TO.C,TP6*%
X98580000Y-109630000D03*
%TD*%
D30*
%TO.C,J7*%
X106850000Y-100750000D03*
D31*
X106850000Y-103290000D03*
X106850000Y-105830000D03*
X106850000Y-108370000D03*
X106850000Y-110910000D03*
X106850000Y-113450000D03*
%TD*%
D13*
%TO.C,R1*%
X57497500Y-107730000D03*
X59322500Y-107730000D03*
%TD*%
D32*
%TO.C,C1*%
X110420000Y-99960000D03*
X112320000Y-99960000D03*
%TD*%
D20*
%TO.C,TP9*%
X89130000Y-109630000D03*
%TD*%
D33*
%TO.C,L1*%
X107205000Y-85580000D03*
X111355000Y-85580000D03*
%TD*%
D20*
%TO.C,TP8*%
X86630000Y-109630000D03*
%TD*%
D25*
%TO.C,H4*%
X111760000Y-119380000D03*
%TD*%
D34*
%TO.C,U2*%
X110242500Y-57655000D03*
X110242500Y-58605000D03*
X110242500Y-59555000D03*
X112517500Y-59555000D03*
X112517500Y-58605000D03*
X112517500Y-57655000D03*
%TD*%
D32*
%TO.C,C3*%
X110420000Y-105980000D03*
X112320000Y-105980000D03*
%TD*%
D35*
%TO.C,J3*%
X86630000Y-101830000D03*
D36*
X89130000Y-101830000D03*
X91630000Y-101830000D03*
%TD*%
D32*
%TO.C,C2*%
X110420000Y-102970000D03*
X112320000Y-102970000D03*
%TD*%
D21*
%TO.C,D2*%
X61362500Y-99000000D03*
X63237500Y-99000000D03*
%TD*%
D20*
%TO.C,TP4*%
X107030000Y-68630000D03*
%TD*%
D37*
%TO.C,Q1*%
X110322500Y-62100000D03*
X110322500Y-64000000D03*
X112197500Y-63050000D03*
%TD*%
D20*
%TO.C,TP7*%
X101080000Y-109630000D03*
%TD*%
D24*
%TO.C,R12*%
X71412500Y-102200000D03*
X69587500Y-102200000D03*
%TD*%
D13*
%TO.C,R4*%
X61907500Y-107730000D03*
X63732500Y-107730000D03*
%TD*%
D25*
%TO.C,H1*%
X60960000Y-48260000D03*
%TD*%
D13*
%TO.C,R2*%
X57497500Y-110680000D03*
X59322500Y-110680000D03*
%TD*%
D25*
%TO.C,H2*%
X111760000Y-48260000D03*
%TD*%
D13*
%TO.C,R5*%
X61907500Y-110680000D03*
X63732500Y-110680000D03*
%TD*%
D38*
%TO.C,C6*%
X108065200Y-77880000D03*
D39*
X110565200Y-77880000D03*
%TD*%
D20*
%TO.C,TP10*%
X91630000Y-109630000D03*
%TD*%
D32*
%TO.C,C5*%
X110420000Y-112000000D03*
X112320000Y-112000000D03*
%TD*%
%LPD*%
M02*
