%TF.GenerationSoftware,KiCad,Pcbnew,9.0.7*%
%TF.CreationDate,2026-05-19T18:19:15-05:00*%
%TF.ProjectId,SmartWateringFlowerPot,536d6172-7457-4617-9465-72696e67466c,rev?*%
%TF.SameCoordinates,Original*%
%TF.FileFunction,Paste,Top*%
%TF.FilePolarity,Positive*%
%FSLAX46Y46*%
G04 Gerber Fmt 4.6, Leading zero omitted, Abs format (unit mm)*
G04 Created by KiCad (PCBNEW 9.0.7) date 2026-05-19 18:19:15*
%MOMM*%
%LPD*%
G01*
G04 APERTURE LIST*
G04 Aperture macros list*
%AMRoundRect*
0 Rectangle with rounded corners*
0 $1 Rounding radius*
0 $2 $3 $4 $5 $6 $7 $8 $9 X,Y pos of 4 corners*
0 Add a 4 corners polygon primitive as box body*
4,1,4,$2,$3,$4,$5,$6,$7,$8,$9,$2,$3,0*
0 Add four circle primitives for the rounded corners*
1,1,$1+$1,$2,$3*
1,1,$1+$1,$4,$5*
1,1,$1+$1,$6,$7*
1,1,$1+$1,$8,$9*
0 Add four rect primitives between the rounded corners*
20,1,$1+$1,$2,$3,$4,$5,0*
20,1,$1+$1,$4,$5,$6,$7,0*
20,1,$1+$1,$6,$7,$8,$9,0*
20,1,$1+$1,$8,$9,$2,$3,0*%
G04 Aperture macros list end*
%ADD10RoundRect,0.250000X-0.262500X-0.450000X0.262500X-0.450000X0.262500X0.450000X-0.262500X0.450000X0*%
%ADD11RoundRect,0.150000X-0.150000X-0.425000X0.150000X-0.425000X0.150000X0.425000X-0.150000X0.425000X0*%
%ADD12RoundRect,0.075000X-0.075000X-0.500000X0.075000X-0.500000X0.075000X0.500000X-0.075000X0.500000X0*%
%ADD13O,1.000000X2.100000*%
%ADD14O,1.000000X1.800000*%
%ADD15RoundRect,0.250000X-1.000000X-0.650000X1.000000X-0.650000X1.000000X0.650000X-1.000000X0.650000X0*%
%ADD16RoundRect,0.243750X-0.243750X-0.456250X0.243750X-0.456250X0.243750X0.456250X-0.243750X0.456250X0*%
%ADD17RoundRect,0.250000X0.262500X0.450000X-0.262500X0.450000X-0.262500X-0.450000X0.262500X-0.450000X0*%
%ADD18R,0.900000X0.900000*%
%ADD19R,1.500000X0.900000*%
%ADD20R,0.900000X1.500000*%
%ADD21RoundRect,0.250000X-0.250000X-0.475000X0.250000X-0.475000X0.250000X0.475000X-0.250000X0.475000X0*%
%ADD22R,2.350000X5.100000*%
%ADD23RoundRect,0.150000X-0.512500X-0.150000X0.512500X-0.150000X0.512500X0.150000X-0.512500X0.150000X0*%
%ADD24RoundRect,0.150000X-0.587500X-0.150000X0.587500X-0.150000X0.587500X0.150000X-0.587500X0.150000X0*%
G04 APERTURE END LIST*
D10*
%TO.C,R10*%
X66317500Y-113630000D03*
X68142500Y-113630000D03*
%TD*%
D11*
%TO.C,J1*%
X72080000Y-107860000D03*
X72880000Y-107860000D03*
D12*
X74030000Y-107860000D03*
X75030000Y-107860000D03*
X75530000Y-107860000D03*
X76530000Y-107860000D03*
D11*
X77680000Y-107860000D03*
X78480000Y-107860000D03*
X78480000Y-107860000D03*
X77680000Y-107860000D03*
D12*
X77030000Y-107860000D03*
X76030000Y-107860000D03*
X74530000Y-107860000D03*
X73530000Y-107860000D03*
D11*
X72880000Y-107860000D03*
X72080000Y-107860000D03*
D13*
X70960000Y-108435000D03*
D14*
X70960000Y-112615000D03*
D13*
X79600000Y-108435000D03*
D14*
X79600000Y-112615000D03*
%TD*%
D10*
%TO.C,R3*%
X57497500Y-113630000D03*
X59322500Y-113630000D03*
%TD*%
D15*
%TO.C,D1*%
X107325000Y-91630000D03*
X111325000Y-91630000D03*
%TD*%
D16*
%TO.C,D3*%
X64862500Y-102200000D03*
X66737500Y-102200000D03*
%TD*%
D17*
%TO.C,R11*%
X67912500Y-99000000D03*
X66087500Y-99000000D03*
%TD*%
D18*
%TO.C,U1*%
X77830000Y-85540000D03*
X77830000Y-86940000D03*
X77830000Y-88340000D03*
X79230000Y-85540000D03*
X79230000Y-86940000D03*
X79230000Y-88340000D03*
X80630000Y-85540000D03*
X80630000Y-86940000D03*
X80630000Y-88340000D03*
D19*
X71980000Y-79220000D03*
X71980000Y-80490000D03*
X71980000Y-81760000D03*
X71980000Y-83030000D03*
X71980000Y-84300000D03*
X71980000Y-85570000D03*
X71980000Y-86840000D03*
X71980000Y-88110000D03*
X71980000Y-89380000D03*
X71980000Y-90650000D03*
X71980000Y-91920000D03*
X71980000Y-93190000D03*
X71980000Y-94460000D03*
X71980000Y-95730000D03*
D20*
X73745000Y-96980000D03*
X75015000Y-96980000D03*
X76285000Y-96980000D03*
X77555000Y-96980000D03*
X78825000Y-96980000D03*
X80095000Y-96980000D03*
X81365000Y-96980000D03*
X82635000Y-96980000D03*
X83905000Y-96980000D03*
X85175000Y-96980000D03*
X86445000Y-96980000D03*
X87715000Y-96980000D03*
D19*
X89480000Y-95730000D03*
X89480000Y-94460000D03*
X89480000Y-93190000D03*
X89480000Y-91920000D03*
X89480000Y-90650000D03*
X89480000Y-89380000D03*
X89480000Y-88110000D03*
X89480000Y-86840000D03*
X89480000Y-85570000D03*
X89480000Y-84300000D03*
X89480000Y-83030000D03*
X89480000Y-81760000D03*
X89480000Y-80490000D03*
X89480000Y-79220000D03*
%TD*%
D10*
%TO.C,R1*%
X57497500Y-107730000D03*
X59322500Y-107730000D03*
%TD*%
D21*
%TO.C,C1*%
X110420000Y-99960000D03*
X112320000Y-99960000D03*
%TD*%
D22*
%TO.C,L1*%
X107205000Y-85580000D03*
X111355000Y-85580000D03*
%TD*%
D23*
%TO.C,U2*%
X110242500Y-57655000D03*
X110242500Y-58605000D03*
X110242500Y-59555000D03*
X112517500Y-59555000D03*
X112517500Y-58605000D03*
X112517500Y-57655000D03*
%TD*%
D21*
%TO.C,C3*%
X110420000Y-105980000D03*
X112320000Y-105980000D03*
%TD*%
%TO.C,C2*%
X110420000Y-102970000D03*
X112320000Y-102970000D03*
%TD*%
D16*
%TO.C,D2*%
X61362500Y-99000000D03*
X63237500Y-99000000D03*
%TD*%
D24*
%TO.C,Q1*%
X110322500Y-62100000D03*
X110322500Y-64000000D03*
X112197500Y-63050000D03*
%TD*%
D17*
%TO.C,R12*%
X71412500Y-102200000D03*
X69587500Y-102200000D03*
%TD*%
D10*
%TO.C,R4*%
X61907500Y-107730000D03*
X63732500Y-107730000D03*
%TD*%
%TO.C,R2*%
X57497500Y-110680000D03*
X59322500Y-110680000D03*
%TD*%
%TO.C,R5*%
X61907500Y-110680000D03*
X63732500Y-110680000D03*
%TD*%
D21*
%TO.C,C5*%
X110420000Y-112000000D03*
X112320000Y-112000000D03*
%TD*%
M02*
