M48
; DRILL file {KiCad 9.0.7} date 2026-05-19T18:19:16-0500
; FORMAT={-:-/ absolute / metric / decimal}
; #@! TF.CreationDate,2026-05-19T18:19:16-05:00
; #@! TF.GenerationSoftware,Kicad,Pcbnew,9.0.7
; #@! TF.FileFunction,Plated,1,2,PTH
FMAT,2
METRIC
; #@! TA.AperFunction,Plated,PTH,ComponentDrill
T1C0.200
; #@! TA.AperFunction,Plated,PTH,ViaDrill
T2C0.300
; #@! TA.AperFunction,Plated,PTH,ComponentDrill
T3C0.600
; #@! TA.AperFunction,Plated,PTH,ComponentDrill
T4C0.800
; #@! TA.AperFunction,Plated,PTH,ComponentDrill
T5C0.950
; #@! TA.AperFunction,Plated,PTH,ComponentDrill
T6C1.000
%
G90
G05
T1
X77.83Y-86.24
X77.83Y-87.64
X78.53Y-85.54
X78.53Y-86.94
X78.53Y-88.34
X79.23Y-86.24
X79.23Y-87.64
X79.93Y-85.54
X79.93Y-86.94
X79.93Y-88.34
X80.63Y-86.24
X80.63Y-87.64
T2
X57.49Y-111.8
X57.498Y-113.63
X60.55Y-107.63
X60.55Y-109.16
X61.1Y-103.67
X62.55Y-112.23
X62.74Y-106.32
X64.904Y-109.07
X64.92Y-113.68
X69.53Y-112.28
X69.66Y-113.86
X69.95Y-90.63
X72.92Y-105.12
X72.95Y-106.32
X73.07Y-111.75
X73.49Y-95.12
X73.54Y-109.08
X74.05Y-106.78
X74.23Y-94.44
X74.54Y-84.1
X74.94Y-109.76
X75.36Y-104.52
X75.78Y-106.36
X78.13Y-110.42
X78.76Y-106.32
X79.373Y-105.12
X79.94Y-81.91
X82.6Y-99.18
X82.93Y-106.36
X83.19Y-95.68
X87.2Y-79.58
X89.4Y-97.11
X90.74Y-80.49
X91.29Y-98.28
X91.3Y-95.72
X93.73Y-104.07
X95.08Y-104.69
X97.71Y-86.57
X98.252Y-97.69
X104.202Y-96.98
X104.955Y-106.462
X107.03Y-73.41
X107.05Y-63.19
X108.34Y-70.37
X108.41Y-67.26
X110.27Y-63.03
X110.31Y-65.57
X110.43Y-104.49
X111.325Y-94.675
X111.821Y-101.48
X111.84Y-107.49
X111.96Y-81.72
X112.266Y-72.85
X112.37Y-56.47
X113.62Y-58.57
X114.53Y-85.63
T4
X108.065Y-77.88
X110.565Y-77.88
T5
X86.63Y-101.83
X89.13Y-101.83
X91.63Y-101.83
T6
X98.58Y-101.83
X101.08Y-101.83
X106.85Y-100.75
X106.85Y-103.29
X106.85Y-105.83
X106.85Y-108.37
X106.85Y-110.91
X106.85Y-113.45
T3
X70.96Y-107.885G85X70.96Y-108.985
G05
X70.96Y-112.215G85X70.96Y-113.015
G05
X79.6Y-107.885G85X79.6Y-108.985
G05
X79.6Y-112.215G85X79.6Y-113.015
G05
M30
