%TF.GenerationSoftware,KiCad,Pcbnew,9.0.7*%
%TF.CreationDate,2026-05-18T19:34:36-05:00*%
%TF.ProjectId,BoardB_UI,426f6172-6442-45f5-9549-2e6b69636164,rev?*%
%TF.SameCoordinates,Original*%
%TF.FileFunction,Legend,Bot*%
%TF.FilePolarity,Positive*%
%FSLAX46Y46*%
G04 Gerber Fmt 4.6, Leading zero omitted, Abs format (unit mm)*
G04 Created by KiCad (PCBNEW 9.0.7) date 2026-05-18 19:34:36*
%MOMM*%
%LPD*%
G01*
G04 APERTURE LIST*
%ADD10C,0.120000*%
G04 APERTURE END LIST*
D10*
%TO.C,R3*%
X34265000Y-11772936D02*
X34265000Y-12227064D01*
X35735000Y-11772936D02*
X35735000Y-12227064D01*
%TO.C,C1*%
X29265000Y-17261252D02*
X29265000Y-16738748D01*
X30735000Y-17261252D02*
X30735000Y-16738748D01*
%TO.C,R2*%
X31765000Y-11772936D02*
X31765000Y-12227064D01*
X33235000Y-11772936D02*
X33235000Y-12227064D01*
%TO.C,R1*%
X29265000Y-11772936D02*
X29265000Y-12227064D01*
X30735000Y-11772936D02*
X30735000Y-12227064D01*
%TO.C,R5*%
X51265000Y-10827064D02*
X51265000Y-10372936D01*
X52735000Y-10827064D02*
X52735000Y-10372936D01*
%TO.C,R4*%
X42265000Y-10827064D02*
X42265000Y-10372936D01*
X43735000Y-10827064D02*
X43735000Y-10372936D01*
%TO.C,C3*%
X34265000Y-17261252D02*
X34265000Y-16738748D01*
X35735000Y-17261252D02*
X35735000Y-16738748D01*
%TO.C,J1*%
X17440000Y-24690000D02*
X17440000Y-36410000D01*
X17440000Y-36410000D02*
X18860000Y-36410000D01*
X18860000Y-31910000D02*
X30000000Y-31910000D01*
X18860000Y-36410000D02*
X18860000Y-31910000D01*
X19700000Y-36100000D02*
X20300000Y-36100000D01*
X20000000Y-35500000D02*
X19700000Y-36100000D01*
X20300000Y-36100000D02*
X20000000Y-35500000D01*
X30000000Y-24690000D02*
X17440000Y-24690000D01*
X30000000Y-24690000D02*
X42560000Y-24690000D01*
X41140000Y-31910000D02*
X30000000Y-31910000D01*
X41140000Y-36410000D02*
X41140000Y-31910000D01*
X42560000Y-24690000D02*
X42560000Y-36410000D01*
X42560000Y-36410000D02*
X41140000Y-36410000D01*
X19750000Y-30800000D02*
X20250000Y-30800000D01*
X20250000Y-25300000D01*
X19750000Y-25300000D01*
X19750000Y-30800000D01*
X22250000Y-30800000D02*
X22750000Y-30800000D01*
X22750000Y-25300000D01*
X22250000Y-25300000D01*
X22250000Y-30800000D01*
X24750000Y-30800000D02*
X25250000Y-30800000D01*
X25250000Y-25300000D01*
X24750000Y-25300000D01*
X24750000Y-30800000D01*
X27250000Y-30800000D02*
X27750000Y-30800000D01*
X27750000Y-25300000D01*
X27250000Y-25300000D01*
X27250000Y-30800000D01*
X29750000Y-30800000D02*
X30250000Y-30800000D01*
X30250000Y-25300000D01*
X29750000Y-25300000D01*
X29750000Y-30800000D01*
X32250000Y-30800000D02*
X32750000Y-30800000D01*
X32750000Y-25300000D01*
X32250000Y-25300000D01*
X32250000Y-30800000D01*
X34750000Y-30800000D02*
X35250000Y-30800000D01*
X35250000Y-25300000D01*
X34750000Y-25300000D01*
X34750000Y-30800000D01*
X37250000Y-30800000D02*
X37750000Y-30800000D01*
X37750000Y-25300000D01*
X37250000Y-25300000D01*
X37250000Y-30800000D01*
X39750000Y-30800000D02*
X40250000Y-30800000D01*
X40250000Y-25300000D01*
X39750000Y-25300000D01*
X39750000Y-30800000D01*
%TO.C,C2*%
X31765000Y-17261252D02*
X31765000Y-16738748D01*
X33235000Y-17261252D02*
X33235000Y-16738748D01*
%TD*%
M02*
