%TF.GenerationSoftware,KiCad,Pcbnew,9.0.7*%
%TF.CreationDate,2026-05-18T18:11:22-05:00*%
%TF.ProjectId,BoardB_UI,426f6172-6442-45f5-9549-2e6b69636164,rev?*%
%TF.SameCoordinates,Original*%
%TF.FileFunction,Copper,L2,Bot*%
%TF.FilePolarity,Positive*%
%FSLAX46Y46*%
G04 Gerber Fmt 4.6, Leading zero omitted, Abs format (unit mm)*
G04 Created by KiCad (PCBNEW 9.0.7) date 2026-05-18 18:11:22*
%MOMM*%
%LPD*%
G01*
G04 APERTURE LIST*
G04 Aperture macros list*
%AMRoundRect*
0 Rectangle with rounded corners*
0 $1 Rounding radius*
0 $2 $3 $4 $5 $6 $7 $8 $9 X,Y pos of 4 corners*
0 Add a 4 corners polygon primitive as box body*
4,1,4,$2,$3,$4,$5,$6,$7,$8,$9,$2,$3,0*
0 Add four circle primitives for the rounded corners*
1,1,$1+$1,$2,$3*
1,1,$1+$1,$4,$5*
1,1,$1+$1,$6,$7*
1,1,$1+$1,$8,$9*
0 Add four rect primitives between the rounded corners*
20,1,$1+$1,$2,$3,$4,$5,0*
20,1,$1+$1,$4,$5,$6,$7,0*
20,1,$1+$1,$6,$7,$8,$9,0*
20,1,$1+$1,$8,$9,$2,$3,0*%
G04 Aperture macros list end*
%TA.AperFunction,ComponentPad*%
%ADD10R,1.700000X1.700000*%
%TD*%
%TA.AperFunction,ComponentPad*%
%ADD11C,1.700000*%
%TD*%
%TA.AperFunction,ComponentPad*%
%ADD12RoundRect,0.250000X-0.600000X-0.725000X0.600000X-0.725000X0.600000X0.725000X-0.600000X0.725000X0*%
%TD*%
%TA.AperFunction,ComponentPad*%
%ADD13O,1.700000X1.950000*%
%TD*%
%TA.AperFunction,ComponentPad*%
%ADD14R,2.000000X2.000000*%
%TD*%
%TA.AperFunction,ComponentPad*%
%ADD15C,2.000000*%
%TD*%
%TA.AperFunction,ComponentPad*%
%ADD16R,3.200000X2.000000*%
%TD*%
%TA.AperFunction,ViaPad*%
%ADD17C,0.800000*%
%TD*%
%TA.AperFunction,Conductor*%
%ADD18C,0.350000*%
%TD*%
%TA.AperFunction,Conductor*%
%ADD19C,0.250000*%
%TD*%
G04 APERTURE END LIST*
D10*
%TO.P,J2,1*%
%TO.N,/GND*%
X39190000Y-24550000D03*
D11*
%TO.P,J2,2*%
%TO.N,/+3V3*%
X39190000Y-27090000D03*
%TO.P,J2,3*%
%TO.N,/SCL*%
X39190000Y-29630000D03*
%TO.P,J2,4*%
%TO.N,/SDA*%
X39190000Y-32170000D03*
%TD*%
D12*
%TO.P,J1,1*%
%TO.N,/+3V3*%
X50190000Y-44550000D03*
D13*
%TO.P,J1,2*%
%TO.N,/GND*%
X52690000Y-44550000D03*
%TO.P,J1,3*%
%TO.N,/SDA*%
X55190000Y-44550000D03*
%TO.P,J1,4*%
%TO.N,/SCL*%
X57690000Y-44550000D03*
%TO.P,J1,5*%
%TO.N,/ENC_A*%
X60190000Y-44550000D03*
%TO.P,J1,6*%
%TO.N,/ENC_B*%
X62690000Y-44550000D03*
%TO.P,J1,7*%
%TO.N,/ENC_SW*%
X65190000Y-44550000D03*
%TO.P,J1,8*%
%TO.N,/ERROR_LED*%
X67690000Y-44550000D03*
%TO.P,J1,9*%
%TO.N,/STATUS_LED*%
X70190000Y-44550000D03*
%TD*%
D14*
%TO.P,SW1,A*%
%TO.N,/ENC_A*%
X69190000Y-31550000D03*
D15*
%TO.P,SW1,B*%
%TO.N,/ENC_B*%
X69190000Y-36550000D03*
%TO.P,SW1,C*%
%TO.N,/GND*%
X69190000Y-34050000D03*
D16*
%TO.P,SW1,MP*%
X76690000Y-28450000D03*
X76690000Y-39650000D03*
D15*
%TO.P,SW1,S1*%
%TO.N,/ENC_SW*%
X83690000Y-36550000D03*
%TO.P,SW1,S2*%
%TO.N,/GND*%
X83690000Y-31550000D03*
%TD*%
D17*
%TO.N,/ENC_A*%
X58590000Y-24150000D03*
%TO.N,/ENC_B*%
X61190000Y-28550000D03*
X71190000Y-28550000D03*
X58590000Y-28350000D03*
%TO.N,/ENC_SW*%
X58590000Y-32550000D03*
X61690000Y-35550000D03*
%TO.N,/ERROR_LED*%
X74190000Y-26250000D03*
%TO.N,/STATUS_LED*%
X81190000Y-27250000D03*
%TD*%
D18*
%TO.N,/GND*%
X39190000Y-24550000D02*
X35190000Y-24550000D01*
X35190000Y-24550000D02*
X35190000Y-48050000D01*
X52690000Y-48050000D02*
X52690000Y-44550000D01*
X35190000Y-48050000D02*
X52690000Y-48050000D01*
D19*
%TO.N,/SDA*%
X41190000Y-33250000D02*
X39190000Y-32170000D01*
X50190000Y-39550000D02*
X41190000Y-33250000D01*
X55190000Y-44550000D02*
X50190000Y-39550000D01*
%TO.N,/SCL*%
X57690000Y-44550000D02*
X52190000Y-39550000D01*
X41190000Y-30650000D02*
X39190000Y-29630000D01*
X52190000Y-39550000D02*
X41190000Y-30650000D01*
%TO.N,/ENC_A*%
X61390000Y-42350000D02*
X60190000Y-44550000D01*
X67190000Y-29550000D02*
X69190000Y-31550000D01*
X69190000Y-31550000D02*
X66190000Y-34550000D01*
X66190000Y-34550000D02*
X61390000Y-42350000D01*
X58590000Y-24150000D02*
X62690000Y-25350000D01*
X62690000Y-25350000D02*
X67190000Y-29550000D01*
%TO.N,/ENC_B*%
X63890000Y-43350000D02*
X62690000Y-44550000D01*
X69190000Y-36550000D02*
X66190000Y-39550000D01*
X58590000Y-28350000D02*
X61190000Y-28550000D01*
X71190000Y-28550000D02*
X71190000Y-36550000D01*
X66190000Y-39550000D02*
X63890000Y-43350000D01*
X71190000Y-36550000D02*
X69190000Y-36550000D01*
%TO.N,/ENC_SW*%
X65190000Y-44550000D02*
X67190000Y-43050000D01*
X86690000Y-39550000D02*
X83690000Y-36550000D01*
X86690000Y-43050000D02*
X86690000Y-39550000D01*
X58590000Y-32550000D02*
X61690000Y-35550000D01*
X67190000Y-43050000D02*
X86690000Y-43050000D01*
%TO.N,/ERROR_LED*%
X67690000Y-44550000D02*
X67690000Y-47550000D01*
X91190000Y-26250000D02*
X74190000Y-26250000D01*
X67690000Y-47550000D02*
X71190000Y-48550000D01*
X71190000Y-48550000D02*
X91190000Y-48550000D01*
X91190000Y-48550000D02*
X91190000Y-26250000D01*
%TO.N,/STATUS_LED*%
X89190000Y-27250000D02*
X81190000Y-27250000D01*
X89190000Y-46550000D02*
X89190000Y-27250000D01*
X70190000Y-46550000D02*
X89190000Y-46550000D01*
X70190000Y-44550000D02*
X70190000Y-46550000D01*
%TD*%
%TA.AperFunction,Conductor*%
%TO.N,/GND*%
G36*
X70412658Y-34919105D02*
G01*
X70412658Y-34919104D01*
X70472914Y-34836169D01*
X70472918Y-34836163D01*
X70580015Y-34625974D01*
X70627989Y-34575178D01*
X70695810Y-34558383D01*
X70761945Y-34580920D01*
X70805397Y-34635635D01*
X70814500Y-34682269D01*
X70814500Y-36050500D01*
X70811949Y-36059185D01*
X70813238Y-36068147D01*
X70802259Y-36092187D01*
X70794815Y-36117539D01*
X70787974Y-36123466D01*
X70784213Y-36131703D01*
X70761978Y-36145992D01*
X70742011Y-36163294D01*
X70731496Y-36165581D01*
X70725435Y-36169477D01*
X70690500Y-36174500D01*
X70472938Y-36174500D01*
X70405899Y-36154815D01*
X70360144Y-36102011D01*
X70355007Y-36088819D01*
X70353328Y-36083653D01*
X70348884Y-36069975D01*
X70259524Y-35894595D01*
X70143828Y-35735354D01*
X70004646Y-35596172D01*
X69943631Y-35551841D01*
X69900967Y-35496513D01*
X69894988Y-35426899D01*
X69927594Y-35365104D01*
X69960224Y-35341040D01*
X69976167Y-35332916D01*
X69976174Y-35332912D01*
X70059104Y-35272658D01*
X70059105Y-35272658D01*
X69319408Y-34532962D01*
X69382993Y-34515925D01*
X69497007Y-34450099D01*
X69590099Y-34357007D01*
X69655925Y-34242993D01*
X69672962Y-34179409D01*
X70412658Y-34919105D01*
G37*
%TD.AperFunction*%
%TA.AperFunction,Conductor*%
G36*
X92533039Y-17169685D02*
G01*
X92578794Y-17222489D01*
X92590000Y-17274000D01*
X92590000Y-53826000D01*
X92570315Y-53893039D01*
X92517511Y-53938794D01*
X92466000Y-53950000D01*
X29914000Y-53950000D01*
X29846961Y-53930315D01*
X29801206Y-53877511D01*
X29790000Y-53826000D01*
X29790000Y-50424038D01*
X31589500Y-50424038D01*
X31589500Y-50675961D01*
X31628910Y-50924785D01*
X31706760Y-51164383D01*
X31821132Y-51388848D01*
X31969201Y-51592649D01*
X31969205Y-51592654D01*
X32147345Y-51770794D01*
X32147350Y-51770798D01*
X32325117Y-51899952D01*
X32351155Y-51918870D01*
X32494184Y-51991747D01*
X32575616Y-52033239D01*
X32575618Y-52033239D01*
X32575621Y-52033241D01*
X32815215Y-52111090D01*
X33064038Y-52150500D01*
X33064039Y-52150500D01*
X33315961Y-52150500D01*
X33315962Y-52150500D01*
X33564785Y-52111090D01*
X33804379Y-52033241D01*
X34028845Y-51918870D01*
X34232656Y-51770793D01*
X34410793Y-51592656D01*
X34558870Y-51388845D01*
X34673241Y-51164379D01*
X34751090Y-50924785D01*
X34790500Y-50675962D01*
X34790500Y-50424038D01*
X34751090Y-50175215D01*
X34673241Y-49935621D01*
X34673239Y-49935618D01*
X34673239Y-49935616D01*
X34631747Y-49854184D01*
X34558870Y-49711155D01*
X34539952Y-49685117D01*
X34410798Y-49507350D01*
X34410794Y-49507345D01*
X34232654Y-49329205D01*
X34232649Y-49329201D01*
X34028848Y-49181132D01*
X34028847Y-49181131D01*
X34028845Y-49181130D01*
X33958747Y-49145413D01*
X33804383Y-49066760D01*
X33564785Y-48988910D01*
X33315962Y-48949500D01*
X33064038Y-48949500D01*
X32939626Y-48969205D01*
X32815214Y-48988910D01*
X32575616Y-49066760D01*
X32351151Y-49181132D01*
X32147350Y-49329201D01*
X32147345Y-49329205D01*
X31969205Y-49507345D01*
X31969201Y-49507350D01*
X31821132Y-49711151D01*
X31706760Y-49935616D01*
X31628910Y-50175214D01*
X31589500Y-50424038D01*
X29790000Y-50424038D01*
X29790000Y-29543389D01*
X38089500Y-29543389D01*
X38089500Y-29716610D01*
X38105889Y-29820091D01*
X38116598Y-29887701D01*
X38170127Y-30052445D01*
X38248768Y-30206788D01*
X38350586Y-30346928D01*
X38473072Y-30469414D01*
X38613212Y-30571232D01*
X38767555Y-30649873D01*
X38932299Y-30703402D01*
X39103389Y-30730500D01*
X39103390Y-30730500D01*
X39276610Y-30730500D01*
X39276611Y-30730500D01*
X39447701Y-30703402D01*
X39612445Y-30649873D01*
X39766788Y-30571232D01*
X39887694Y-30483387D01*
X39953500Y-30459907D01*
X40016915Y-30473240D01*
X40972814Y-30960749D01*
X40994470Y-30974812D01*
X51881426Y-39783350D01*
X51942626Y-39832866D01*
X51948040Y-39837510D01*
X55590368Y-43148718D01*
X55626732Y-43208378D01*
X55625068Y-43278228D01*
X55585905Y-43336090D01*
X55521676Y-43363593D01*
X55468641Y-43358402D01*
X55447701Y-43351598D01*
X55447697Y-43351597D01*
X55447696Y-43351597D01*
X55339755Y-43334501D01*
X55276611Y-43324500D01*
X55103389Y-43324500D01*
X55063728Y-43330781D01*
X54932302Y-43351597D01*
X54767557Y-43405126D01*
X54767551Y-43405128D01*
X54721036Y-43428829D01*
X54652367Y-43441724D01*
X54587627Y-43415446D01*
X54577062Y-43406024D01*
X50470919Y-39299882D01*
X50467095Y-39296058D01*
X50445834Y-39270727D01*
X50432267Y-39261230D01*
X50420563Y-39249526D01*
X50396608Y-39235695D01*
X50387507Y-39229898D01*
X41435301Y-32963354D01*
X41427861Y-32958146D01*
X41411917Y-32943085D01*
X41387539Y-32929921D01*
X41381656Y-32925803D01*
X41381655Y-32925802D01*
X41381653Y-32925801D01*
X41364836Y-32914028D01*
X41352747Y-32909630D01*
X41336227Y-32902212D01*
X41307923Y-32886928D01*
X40949764Y-32693522D01*
X40355425Y-32372579D01*
X40305789Y-32323405D01*
X40292016Y-32261483D01*
X40290500Y-32261483D01*
X40290500Y-32083389D01*
X40273101Y-31973535D01*
X40263402Y-31912299D01*
X40209873Y-31747555D01*
X40131232Y-31593212D01*
X40029414Y-31453072D01*
X39906928Y-31330586D01*
X39766788Y-31228768D01*
X39612445Y-31150127D01*
X39447701Y-31096598D01*
X39447699Y-31096597D01*
X39447698Y-31096597D01*
X39316271Y-31075781D01*
X39276611Y-31069500D01*
X39103389Y-31069500D01*
X39063728Y-31075781D01*
X38932302Y-31096597D01*
X38767552Y-31150128D01*
X38613211Y-31228768D01*
X38533256Y-31286859D01*
X38473072Y-31330586D01*
X38473070Y-31330588D01*
X38473069Y-31330588D01*
X38350588Y-31453069D01*
X38350588Y-31453070D01*
X38350586Y-31453072D01*
X38327989Y-31484174D01*
X38248768Y-31593211D01*
X38170128Y-31747552D01*
X38116597Y-31912302D01*
X38100185Y-32015925D01*
X38089500Y-32083389D01*
X38089500Y-32256611D01*
X38094018Y-32285139D01*
X38115236Y-32419105D01*
X38116598Y-32427701D01*
X38170127Y-32592445D01*
X38248768Y-32746788D01*
X38350586Y-32886928D01*
X38473072Y-33009414D01*
X38613212Y-33111232D01*
X38767555Y-33189873D01*
X38932299Y-33243402D01*
X39103389Y-33270500D01*
X39103390Y-33270500D01*
X39276610Y-33270500D01*
X39276611Y-33270500D01*
X39447701Y-33243402D01*
X39612445Y-33189873D01*
X39766788Y-33111232D01*
X39863944Y-33040643D01*
X39929749Y-33017164D01*
X39995745Y-33031853D01*
X40986161Y-33566677D01*
X40998332Y-33574188D01*
X49830776Y-39756899D01*
X49938836Y-39832541D01*
X49955408Y-39846445D01*
X52989008Y-42880046D01*
X53022493Y-42941369D01*
X53017509Y-43011061D01*
X52981858Y-43062017D01*
X52940000Y-43097767D01*
X52940000Y-44145854D01*
X52873343Y-44107370D01*
X52752535Y-44075000D01*
X52627465Y-44075000D01*
X52506657Y-44107370D01*
X52440000Y-44145854D01*
X52440000Y-43097768D01*
X52439999Y-43097768D01*
X52373875Y-43108241D01*
X52171784Y-43173903D01*
X51982442Y-43270379D01*
X51810540Y-43395272D01*
X51810535Y-43395276D01*
X51660276Y-43545535D01*
X51660272Y-43545540D01*
X51535377Y-43717444D01*
X51517087Y-43753339D01*
X51469112Y-43804133D01*
X51401290Y-43820927D01*
X51335156Y-43798388D01*
X51291706Y-43743672D01*
X51286976Y-43724807D01*
X51285876Y-43725068D01*
X51284092Y-43717520D01*
X51280567Y-43708070D01*
X51247077Y-43618278D01*
X51233797Y-43582671D01*
X51233793Y-43582664D01*
X51147547Y-43467455D01*
X51147544Y-43467452D01*
X51032335Y-43381206D01*
X51032328Y-43381202D01*
X50897482Y-43330908D01*
X50897483Y-43330908D01*
X50837883Y-43324501D01*
X50837881Y-43324500D01*
X50837873Y-43324500D01*
X50837864Y-43324500D01*
X49542129Y-43324500D01*
X49542123Y-43324501D01*
X49482516Y-43330908D01*
X49347671Y-43381202D01*
X49347664Y-43381206D01*
X49232455Y-43467452D01*
X49232452Y-43467455D01*
X49146206Y-43582664D01*
X49146202Y-43582671D01*
X49095908Y-43717517D01*
X49089501Y-43777116D01*
X49089500Y-43777135D01*
X49089500Y-45322870D01*
X49089501Y-45322876D01*
X49095908Y-45382483D01*
X49146202Y-45517328D01*
X49146206Y-45517335D01*
X49232452Y-45632544D01*
X49232455Y-45632547D01*
X49347664Y-45718793D01*
X49347671Y-45718797D01*
X49482517Y-45769091D01*
X49482516Y-45769091D01*
X49489444Y-45769835D01*
X49542127Y-45775500D01*
X50837872Y-45775499D01*
X50897483Y-45769091D01*
X51032331Y-45718796D01*
X51147546Y-45632546D01*
X51233796Y-45517331D01*
X51284091Y-45382483D01*
X51284091Y-45382481D01*
X51285874Y-45374938D01*
X51289117Y-45375704D01*
X51310035Y-45325172D01*
X51367419Y-45285311D01*
X51437243Y-45282802D01*
X51497340Y-45318441D01*
X51517089Y-45346662D01*
X51535379Y-45382557D01*
X51660272Y-45554459D01*
X51660276Y-45554464D01*
X51810535Y-45704723D01*
X51810540Y-45704727D01*
X51982442Y-45829620D01*
X52171782Y-45926095D01*
X52373871Y-45991757D01*
X52440000Y-46002231D01*
X52440000Y-44954145D01*
X52506657Y-44992630D01*
X52627465Y-45025000D01*
X52752535Y-45025000D01*
X52873343Y-44992630D01*
X52940000Y-44954145D01*
X52940000Y-46002230D01*
X53006126Y-45991757D01*
X53006129Y-45991757D01*
X53208217Y-45926095D01*
X53397557Y-45829620D01*
X53569459Y-45704727D01*
X53569464Y-45704723D01*
X53719723Y-45554464D01*
X53719727Y-45554459D01*
X53844620Y-45382557D01*
X53941094Y-45193219D01*
X53956768Y-45144978D01*
X53996205Y-45087302D01*
X54060563Y-45060103D01*
X54129409Y-45072016D01*
X54180886Y-45119259D01*
X54185185Y-45126999D01*
X54248768Y-45251788D01*
X54350586Y-45391928D01*
X54473072Y-45514414D01*
X54613212Y-45616232D01*
X54767555Y-45694873D01*
X54932299Y-45748402D01*
X55103389Y-45775500D01*
X55103390Y-45775500D01*
X55276610Y-45775500D01*
X55276611Y-45775500D01*
X55447701Y-45748402D01*
X55612445Y-45694873D01*
X55766788Y-45616232D01*
X55906928Y-45514414D01*
X56029414Y-45391928D01*
X56131232Y-45251788D01*
X56209873Y-45097445D01*
X56263402Y-44932701D01*
X56290500Y-44761611D01*
X56290500Y-44338389D01*
X56263402Y-44167299D01*
X56220227Y-44034423D01*
X56220132Y-44031068D01*
X56218384Y-44028201D01*
X56219141Y-43996397D01*
X56218233Y-43964587D01*
X56219967Y-43961709D01*
X56220048Y-43958351D01*
X56237883Y-43931998D01*
X56254313Y-43904754D01*
X56257327Y-43903271D01*
X56259211Y-43900489D01*
X56288459Y-43887964D01*
X56317014Y-43873925D01*
X56320352Y-43874308D01*
X56323440Y-43872986D01*
X56354810Y-43878261D01*
X56386428Y-43881889D01*
X56390013Y-43884181D01*
X56392342Y-43884573D01*
X56421571Y-43904356D01*
X56519142Y-43993058D01*
X56579184Y-44047641D01*
X56615548Y-44107302D01*
X56616275Y-44162315D01*
X56617360Y-44162487D01*
X56616597Y-44167304D01*
X56589500Y-44338389D01*
X56589500Y-44761611D01*
X56616598Y-44932701D01*
X56670127Y-45097445D01*
X56748768Y-45251788D01*
X56850586Y-45391928D01*
X56973072Y-45514414D01*
X57113212Y-45616232D01*
X57267555Y-45694873D01*
X57432299Y-45748402D01*
X57603389Y-45775500D01*
X57603390Y-45775500D01*
X57776610Y-45775500D01*
X57776611Y-45775500D01*
X57947701Y-45748402D01*
X58112445Y-45694873D01*
X58266788Y-45616232D01*
X58406928Y-45514414D01*
X58529414Y-45391928D01*
X58631232Y-45251788D01*
X58709873Y-45097445D01*
X58763402Y-44932701D01*
X58790500Y-44761611D01*
X58790500Y-44338389D01*
X58763402Y-44167299D01*
X58709873Y-44002555D01*
X58631232Y-43848212D01*
X58529414Y-43708072D01*
X58406928Y-43585586D01*
X58266788Y-43483768D01*
X58177954Y-43438505D01*
X58112447Y-43405128D01*
X58112446Y-43405127D01*
X58112445Y-43405127D01*
X57947701Y-43351598D01*
X57947699Y-43351597D01*
X57947698Y-43351597D01*
X57816271Y-43330781D01*
X57776611Y-43324500D01*
X57603389Y-43324500D01*
X57563728Y-43330781D01*
X57432302Y-43351597D01*
X57267549Y-43405129D01*
X57165281Y-43457237D01*
X57096612Y-43470133D01*
X57031872Y-43443856D01*
X57025576Y-43438505D01*
X52480465Y-39306586D01*
X52480464Y-39306585D01*
X52471060Y-39298036D01*
X52464619Y-39289177D01*
X52434589Y-39264880D01*
X52406010Y-39238899D01*
X52406009Y-39238898D01*
X52400907Y-39235356D01*
X52386394Y-39225886D01*
X44214489Y-32614071D01*
X57939499Y-32614071D01*
X57964497Y-32739738D01*
X57964499Y-32739744D01*
X58013533Y-32858124D01*
X58013538Y-32858133D01*
X58084723Y-32964668D01*
X58084726Y-32964672D01*
X58175327Y-33055273D01*
X58175331Y-33055276D01*
X58281866Y-33126461D01*
X58281872Y-33126464D01*
X58281873Y-33126465D01*
X58400256Y-33175501D01*
X58400260Y-33175501D01*
X58400261Y-33175502D01*
X58525928Y-33200500D01*
X58525931Y-33200500D01*
X58654070Y-33200500D01*
X58658789Y-33200035D01*
X58727436Y-33213050D01*
X58757179Y-33234328D01*
X60627921Y-35044724D01*
X61001732Y-35406477D01*
X61036218Y-35467243D01*
X61039500Y-35495584D01*
X61039500Y-35614069D01*
X61039500Y-35614071D01*
X61039499Y-35614071D01*
X61064497Y-35739738D01*
X61064499Y-35739744D01*
X61113533Y-35858124D01*
X61113538Y-35858133D01*
X61184723Y-35964668D01*
X61184726Y-35964672D01*
X61275327Y-36055273D01*
X61275331Y-36055276D01*
X61381866Y-36126461D01*
X61381875Y-36126466D01*
X61408692Y-36137574D01*
X61500256Y-36175501D01*
X61500260Y-36175501D01*
X61500261Y-36175502D01*
X61625928Y-36200500D01*
X61625931Y-36200500D01*
X61754071Y-36200500D01*
X61838615Y-36183682D01*
X61879744Y-36175501D01*
X61998127Y-36126465D01*
X62104669Y-36055276D01*
X62195276Y-35964669D01*
X62266465Y-35858127D01*
X62315501Y-35739744D01*
X62340500Y-35614069D01*
X62340500Y-35485931D01*
X62340500Y-35485928D01*
X62315502Y-35360261D01*
X62315501Y-35360260D01*
X62315501Y-35360256D01*
X62266465Y-35241873D01*
X62266464Y-35241872D01*
X62266461Y-35241866D01*
X62195276Y-35135331D01*
X62195273Y-35135327D01*
X62104672Y-35044726D01*
X62104668Y-35044723D01*
X61998133Y-34973538D01*
X61998124Y-34973533D01*
X61879744Y-34924499D01*
X61879738Y-34924497D01*
X61754071Y-34899500D01*
X61754069Y-34899500D01*
X61625931Y-34899500D01*
X61621197Y-34899966D01*
X61552552Y-34886943D01*
X61522818Y-34865669D01*
X61492328Y-34836163D01*
X60419790Y-33798222D01*
X59278268Y-32693522D01*
X59243782Y-32632756D01*
X59240500Y-32604415D01*
X59240500Y-32485928D01*
X59215502Y-32360261D01*
X59215501Y-32360260D01*
X59215501Y-32360256D01*
X59166465Y-32241873D01*
X59166464Y-32241872D01*
X59166461Y-32241866D01*
X59095276Y-32135331D01*
X59095273Y-32135327D01*
X59004672Y-32044726D01*
X59004668Y-32044723D01*
X58898133Y-31973538D01*
X58898124Y-31973533D01*
X58779744Y-31924499D01*
X58779738Y-31924497D01*
X58654071Y-31899500D01*
X58654069Y-31899500D01*
X58525931Y-31899500D01*
X58525929Y-31899500D01*
X58400261Y-31924497D01*
X58400255Y-31924499D01*
X58281875Y-31973533D01*
X58281866Y-31973538D01*
X58175331Y-32044723D01*
X58175327Y-32044726D01*
X58084726Y-32135327D01*
X58084723Y-32135331D01*
X58013538Y-32241866D01*
X58013533Y-32241875D01*
X57964499Y-32360255D01*
X57964497Y-32360261D01*
X57939500Y-32485928D01*
X57939500Y-32485931D01*
X57939500Y-32614069D01*
X57939500Y-32614071D01*
X57939499Y-32614071D01*
X44214489Y-32614071D01*
X44167729Y-32576238D01*
X41436506Y-30366430D01*
X41436506Y-30366429D01*
X41433932Y-30364346D01*
X41404638Y-30337951D01*
X41395623Y-30333353D01*
X41387756Y-30326988D01*
X41354703Y-30312288D01*
X41348778Y-30309462D01*
X40358164Y-29804249D01*
X40307386Y-29756255D01*
X40290500Y-29693785D01*
X40290500Y-29543389D01*
X40263402Y-29372302D01*
X40263402Y-29372299D01*
X40209873Y-29207555D01*
X40131232Y-29053212D01*
X40029414Y-28913072D01*
X39906928Y-28790586D01*
X39766788Y-28688768D01*
X39612445Y-28610127D01*
X39447701Y-28556598D01*
X39447699Y-28556597D01*
X39447698Y-28556597D01*
X39316271Y-28535781D01*
X39276611Y-28529500D01*
X39103389Y-28529500D01*
X39063728Y-28535781D01*
X38932302Y-28556597D01*
X38767552Y-28610128D01*
X38613211Y-28688768D01*
X38543058Y-28739738D01*
X38473072Y-28790586D01*
X38473070Y-28790588D01*
X38473069Y-28790588D01*
X38350588Y-28913069D01*
X38350588Y-28913070D01*
X38350586Y-28913072D01*
X38313096Y-28964672D01*
X38248768Y-29053211D01*
X38170128Y-29207552D01*
X38116597Y-29372302D01*
X38089500Y-29543389D01*
X29790000Y-29543389D01*
X29790000Y-28414071D01*
X57939499Y-28414071D01*
X57964497Y-28539738D01*
X57964499Y-28539744D01*
X58013533Y-28658124D01*
X58013538Y-28658133D01*
X58084723Y-28764668D01*
X58084726Y-28764672D01*
X58175327Y-28855273D01*
X58175331Y-28855276D01*
X58281866Y-28926461D01*
X58281872Y-28926464D01*
X58281873Y-28926465D01*
X58400256Y-28975501D01*
X58400260Y-28975501D01*
X58400261Y-28975502D01*
X58525928Y-29000500D01*
X58525931Y-29000500D01*
X58654071Y-29000500D01*
X58738615Y-28983682D01*
X58779744Y-28975501D01*
X58898127Y-28926465D01*
X59004669Y-28855276D01*
X59054197Y-28805746D01*
X59115520Y-28772261D01*
X59151388Y-28769792D01*
X60570436Y-28878949D01*
X60635767Y-28903718D01*
X60664026Y-28933693D01*
X60684723Y-28964668D01*
X60684726Y-28964672D01*
X60775327Y-29055273D01*
X60775331Y-29055276D01*
X60881866Y-29126461D01*
X60881872Y-29126464D01*
X60881873Y-29126465D01*
X61000256Y-29175501D01*
X61000260Y-29175501D01*
X61000261Y-29175502D01*
X61125928Y-29200500D01*
X61125931Y-29200500D01*
X61254071Y-29200500D01*
X61338615Y-29183682D01*
X61379744Y-29175501D01*
X61498127Y-29126465D01*
X61604669Y-29055276D01*
X61695276Y-28964669D01*
X61766465Y-28858127D01*
X61815501Y-28739744D01*
X61838436Y-28624446D01*
X61840500Y-28614071D01*
X61840500Y-28485928D01*
X61815502Y-28360261D01*
X61815501Y-28360260D01*
X61815501Y-28360256D01*
X61766465Y-28241873D01*
X61766464Y-28241872D01*
X61766461Y-28241866D01*
X61695276Y-28135331D01*
X61695273Y-28135327D01*
X61604672Y-28044726D01*
X61604668Y-28044723D01*
X61498133Y-27973538D01*
X61498124Y-27973533D01*
X61379744Y-27924499D01*
X61379738Y-27924497D01*
X61254071Y-27899500D01*
X61254069Y-27899500D01*
X61125931Y-27899500D01*
X61125929Y-27899500D01*
X61000261Y-27924497D01*
X61000255Y-27924499D01*
X60881875Y-27973533D01*
X60881866Y-27973538D01*
X60775334Y-28044721D01*
X60725798Y-28094255D01*
X60664474Y-28127738D01*
X60628609Y-28130206D01*
X59209564Y-28021049D01*
X59144231Y-27996280D01*
X59115972Y-27966305D01*
X59095276Y-27935331D01*
X59095274Y-27935328D01*
X59004672Y-27844726D01*
X59004668Y-27844723D01*
X58898133Y-27773538D01*
X58898124Y-27773533D01*
X58779744Y-27724499D01*
X58779738Y-27724497D01*
X58654071Y-27699500D01*
X58654069Y-27699500D01*
X58525931Y-27699500D01*
X58525929Y-27699500D01*
X58400261Y-27724497D01*
X58400255Y-27724499D01*
X58281875Y-27773533D01*
X58281866Y-27773538D01*
X58175331Y-27844723D01*
X58175327Y-27844726D01*
X58084726Y-27935327D01*
X58084723Y-27935331D01*
X58013538Y-28041866D01*
X58013533Y-28041875D01*
X57964499Y-28160255D01*
X57964497Y-28160261D01*
X57939500Y-28285928D01*
X57939500Y-28285931D01*
X57939500Y-28414069D01*
X57939500Y-28414071D01*
X57939499Y-28414071D01*
X29790000Y-28414071D01*
X29790000Y-23652155D01*
X37840000Y-23652155D01*
X37840000Y-24300000D01*
X38756988Y-24300000D01*
X38724075Y-24357007D01*
X38690000Y-24484174D01*
X38690000Y-24615826D01*
X38724075Y-24742993D01*
X38756988Y-24800000D01*
X37840000Y-24800000D01*
X37840000Y-25447844D01*
X37846401Y-25507372D01*
X37846403Y-25507379D01*
X37896645Y-25642086D01*
X37896649Y-25642093D01*
X37982809Y-25757187D01*
X37982812Y-25757190D01*
X38097906Y-25843350D01*
X38097913Y-25843354D01*
X38232620Y-25893596D01*
X38232627Y-25893598D01*
X38292155Y-25899999D01*
X38292172Y-25900000D01*
X38584949Y-25900000D01*
X38651988Y-25919685D01*
X38697743Y-25972489D01*
X38707687Y-26041647D01*
X38678662Y-26105203D01*
X38641244Y-26134485D01*
X38613211Y-26148768D01*
X38541920Y-26200565D01*
X38473072Y-26250586D01*
X38473070Y-26250588D01*
X38473069Y-26250588D01*
X38350588Y-26373069D01*
X38350588Y-26373070D01*
X38350586Y-26373072D01*
X38306859Y-26433256D01*
X38248768Y-26513211D01*
X38170128Y-26667552D01*
X38116597Y-26832302D01*
X38089500Y-27003389D01*
X38089500Y-27176610D01*
X38111271Y-27314071D01*
X38116598Y-27347701D01*
X38170127Y-27512445D01*
X38248768Y-27666788D01*
X38350586Y-27806928D01*
X38473072Y-27929414D01*
X38613212Y-28031232D01*
X38767555Y-28109873D01*
X38932299Y-28163402D01*
X39103389Y-28190500D01*
X39103390Y-28190500D01*
X39276610Y-28190500D01*
X39276611Y-28190500D01*
X39447701Y-28163402D01*
X39612445Y-28109873D01*
X39766788Y-28031232D01*
X39906928Y-27929414D01*
X40029414Y-27806928D01*
X40131232Y-27666788D01*
X40209873Y-27512445D01*
X40263402Y-27347701D01*
X40290500Y-27176611D01*
X40290500Y-27003389D01*
X40263402Y-26832299D01*
X40209873Y-26667555D01*
X40131232Y-26513212D01*
X40029414Y-26373072D01*
X39906928Y-26250586D01*
X39766788Y-26148768D01*
X39738756Y-26134485D01*
X39687960Y-26086510D01*
X39671165Y-26018689D01*
X39693703Y-25952554D01*
X39748418Y-25909103D01*
X39795051Y-25900000D01*
X40087828Y-25900000D01*
X40087844Y-25899999D01*
X40147372Y-25893598D01*
X40147379Y-25893596D01*
X40282086Y-25843354D01*
X40282093Y-25843350D01*
X40397187Y-25757190D01*
X40397190Y-25757187D01*
X40483350Y-25642093D01*
X40483354Y-25642086D01*
X40533596Y-25507379D01*
X40533598Y-25507372D01*
X40539999Y-25447844D01*
X40540000Y-25447827D01*
X40540000Y-24800000D01*
X39623012Y-24800000D01*
X39655925Y-24742993D01*
X39690000Y-24615826D01*
X39690000Y-24484174D01*
X39655925Y-24357007D01*
X39623012Y-24300000D01*
X40540000Y-24300000D01*
X40540000Y-24214071D01*
X57939499Y-24214071D01*
X57964497Y-24339738D01*
X57964499Y-24339744D01*
X58013533Y-24458124D01*
X58013538Y-24458133D01*
X58084723Y-24564668D01*
X58084726Y-24564672D01*
X58175327Y-24655273D01*
X58175331Y-24655276D01*
X58281866Y-24726461D01*
X58281872Y-24726464D01*
X58281873Y-24726465D01*
X58400256Y-24775501D01*
X58400260Y-24775501D01*
X58400261Y-24775502D01*
X58525928Y-24800500D01*
X58525931Y-24800500D01*
X58654071Y-24800500D01*
X58738615Y-24783682D01*
X58779744Y-24775501D01*
X58898127Y-24726465D01*
X58948880Y-24692552D01*
X59015555Y-24671674D01*
X59052594Y-24676646D01*
X62470708Y-25677070D01*
X62520483Y-25705426D01*
X66927494Y-29818635D01*
X66930568Y-29821605D01*
X67903181Y-30794218D01*
X67936666Y-30855541D01*
X67939500Y-30881899D01*
X67939500Y-32218100D01*
X67919815Y-32285139D01*
X67903181Y-32305781D01*
X65929443Y-34279518D01*
X65928197Y-34280763D01*
X65896111Y-34311099D01*
X65893306Y-34315655D01*
X65889525Y-34319437D01*
X65868322Y-34356160D01*
X65866543Y-34359144D01*
X61097724Y-42108478D01*
X61090893Y-42119579D01*
X61084022Y-42126792D01*
X61065055Y-42161562D01*
X61063348Y-42164337D01*
X61044295Y-42195300D01*
X61040977Y-42202717D01*
X61040877Y-42202672D01*
X61035208Y-42216282D01*
X60460348Y-43270191D01*
X60410965Y-43319618D01*
X60342699Y-43334501D01*
X60332092Y-43333286D01*
X60276618Y-43324500D01*
X60276611Y-43324500D01*
X60103389Y-43324500D01*
X60063728Y-43330781D01*
X59932302Y-43351597D01*
X59767552Y-43405128D01*
X59613211Y-43483768D01*
X59576018Y-43510791D01*
X59473072Y-43585586D01*
X59473070Y-43585588D01*
X59473069Y-43585588D01*
X59350588Y-43708069D01*
X59350588Y-43708070D01*
X59350586Y-43708072D01*
X59306859Y-43768256D01*
X59248768Y-43848211D01*
X59170128Y-44002552D01*
X59170127Y-44002554D01*
X59170127Y-44002555D01*
X59159771Y-44034428D01*
X59116597Y-44167302D01*
X59102711Y-44254978D01*
X59089500Y-44338389D01*
X59089500Y-44761611D01*
X59116598Y-44932701D01*
X59170127Y-45097445D01*
X59248768Y-45251788D01*
X59350586Y-45391928D01*
X59473072Y-45514414D01*
X59613212Y-45616232D01*
X59767555Y-45694873D01*
X59932299Y-45748402D01*
X60103389Y-45775500D01*
X60103390Y-45775500D01*
X60276610Y-45775500D01*
X60276611Y-45775500D01*
X60447701Y-45748402D01*
X60612445Y-45694873D01*
X60766788Y-45616232D01*
X60906928Y-45514414D01*
X61029414Y-45391928D01*
X61131232Y-45251788D01*
X61209873Y-45097445D01*
X61263402Y-44932701D01*
X61290500Y-44761611D01*
X61290500Y-44338389D01*
X61263402Y-44167299D01*
X61209873Y-44002555D01*
X61131232Y-43848212D01*
X61102657Y-43808882D01*
X61079177Y-43743077D01*
X61094115Y-43676621D01*
X61713399Y-42541265D01*
X61716645Y-42535669D01*
X61913191Y-42216282D01*
X66479066Y-34796736D01*
X66496984Y-34774051D01*
X67486188Y-33784848D01*
X67547507Y-33751366D01*
X67617199Y-33756350D01*
X67673132Y-33798222D01*
X67697549Y-33863686D01*
X67696338Y-33891929D01*
X67690000Y-33931946D01*
X67690000Y-34168052D01*
X67726934Y-34401247D01*
X67799897Y-34625802D01*
X67907087Y-34836174D01*
X67967338Y-34919104D01*
X67967340Y-34919105D01*
X68707037Y-34179408D01*
X68724075Y-34242993D01*
X68789901Y-34357007D01*
X68882993Y-34450099D01*
X68997007Y-34515925D01*
X69060590Y-34532962D01*
X68320893Y-35272658D01*
X68403824Y-35332911D01*
X68403832Y-35332916D01*
X68419777Y-35341041D01*
X68470572Y-35389016D01*
X68487367Y-35456837D01*
X68464829Y-35522971D01*
X68436368Y-35551842D01*
X68375354Y-35596171D01*
X68236174Y-35735351D01*
X68236174Y-35735352D01*
X68236172Y-35735354D01*
X68186485Y-35803741D01*
X68120476Y-35894594D01*
X68031117Y-36069970D01*
X67970290Y-36257173D01*
X67939500Y-36451577D01*
X67939500Y-36648422D01*
X67970290Y-36842826D01*
X67997416Y-36926308D01*
X68031116Y-37030025D01*
X68031117Y-37030027D01*
X68031118Y-37030029D01*
X68040111Y-37047680D01*
X68053006Y-37116350D01*
X68026728Y-37181090D01*
X68017306Y-37191654D01*
X65928134Y-39280825D01*
X65928135Y-39280826D01*
X65927191Y-39281769D01*
X65894357Y-39313274D01*
X65892314Y-39316647D01*
X65889527Y-39319435D01*
X65867404Y-39357751D01*
X65866101Y-39359955D01*
X63600091Y-43103798D01*
X63581690Y-43127271D01*
X63302937Y-43406024D01*
X63241614Y-43439509D01*
X63171922Y-43434525D01*
X63158962Y-43428828D01*
X63112452Y-43405130D01*
X63112446Y-43405127D01*
X63112445Y-43405127D01*
X62947701Y-43351598D01*
X62947699Y-43351597D01*
X62947698Y-43351597D01*
X62816271Y-43330781D01*
X62776611Y-43324500D01*
X62603389Y-43324500D01*
X62563728Y-43330781D01*
X62432302Y-43351597D01*
X62267552Y-43405128D01*
X62113211Y-43483768D01*
X62076018Y-43510791D01*
X61973072Y-43585586D01*
X61973070Y-43585588D01*
X61973069Y-43585588D01*
X61850588Y-43708069D01*
X61850588Y-43708070D01*
X61850586Y-43708072D01*
X61806859Y-43768256D01*
X61748768Y-43848211D01*
X61670128Y-44002552D01*
X61670127Y-44002554D01*
X61670127Y-44002555D01*
X61659771Y-44034428D01*
X61616597Y-44167302D01*
X61602711Y-44254978D01*
X61589500Y-44338389D01*
X61589500Y-44761611D01*
X61616598Y-44932701D01*
X61670127Y-45097445D01*
X61748768Y-45251788D01*
X61850586Y-45391928D01*
X61973072Y-45514414D01*
X62113212Y-45616232D01*
X62267555Y-45694873D01*
X62432299Y-45748402D01*
X62603389Y-45775500D01*
X62603390Y-45775500D01*
X62776610Y-45775500D01*
X62776611Y-45775500D01*
X62947701Y-45748402D01*
X63112445Y-45694873D01*
X63266788Y-45616232D01*
X63406928Y-45514414D01*
X63529414Y-45391928D01*
X63631232Y-45251788D01*
X63709873Y-45097445D01*
X63763402Y-44932701D01*
X63790500Y-44761611D01*
X63790500Y-44338389D01*
X63763402Y-44167299D01*
X63747726Y-44119056D01*
X63745732Y-44049216D01*
X63777975Y-43993060D01*
X64033777Y-43737258D01*
X64095098Y-43703775D01*
X64164790Y-43708759D01*
X64220723Y-43750631D01*
X64245140Y-43816095D01*
X64231941Y-43881235D01*
X64170129Y-44002549D01*
X64170127Y-44002554D01*
X64170127Y-44002555D01*
X64159771Y-44034428D01*
X64116597Y-44167302D01*
X64102711Y-44254978D01*
X64089500Y-44338389D01*
X64089500Y-44761611D01*
X64116598Y-44932701D01*
X64170127Y-45097445D01*
X64248768Y-45251788D01*
X64350586Y-45391928D01*
X64473072Y-45514414D01*
X64613212Y-45616232D01*
X64767555Y-45694873D01*
X64932299Y-45748402D01*
X65103389Y-45775500D01*
X65103390Y-45775500D01*
X65276610Y-45775500D01*
X65276611Y-45775500D01*
X65447701Y-45748402D01*
X65612445Y-45694873D01*
X65766788Y-45616232D01*
X65906928Y-45514414D01*
X66029414Y-45391928D01*
X66131232Y-45251788D01*
X66209873Y-45097445D01*
X66263402Y-44932701D01*
X66290500Y-44761611D01*
X66290500Y-44338389D01*
X66281744Y-44283107D01*
X66283575Y-44268938D01*
X66280525Y-44254978D01*
X66287963Y-44234978D01*
X66290698Y-44213816D01*
X66300367Y-44201628D01*
X66304882Y-44189491D01*
X66329816Y-44164512D01*
X66332516Y-44162487D01*
X66411030Y-44103600D01*
X66476470Y-44079125D01*
X66544757Y-44093915D01*
X66594207Y-44143275D01*
X66609121Y-44211534D01*
X66607902Y-44222198D01*
X66598255Y-44283110D01*
X66589500Y-44338389D01*
X66589500Y-44761611D01*
X66616598Y-44932701D01*
X66670127Y-45097445D01*
X66748768Y-45251788D01*
X66850586Y-45391928D01*
X66973072Y-45514414D01*
X67028196Y-45554464D01*
X67113213Y-45616233D01*
X67246794Y-45684295D01*
X67297591Y-45732269D01*
X67314500Y-45794780D01*
X67314500Y-47546926D01*
X67313736Y-47593234D01*
X67314500Y-47596285D01*
X67314500Y-47599436D01*
X67326219Y-47643173D01*
X67326731Y-47645151D01*
X67337744Y-47689140D01*
X67339256Y-47692969D01*
X67339265Y-47692991D01*
X67339882Y-47694555D01*
X67339948Y-47694691D01*
X67340089Y-47694936D01*
X67340090Y-47694938D01*
X67359205Y-47728046D01*
X67362739Y-47734167D01*
X67363747Y-47735946D01*
X67385766Y-47775581D01*
X67388219Y-47778889D01*
X67388228Y-47778901D01*
X67389242Y-47780269D01*
X67389310Y-47780347D01*
X67421563Y-47812600D01*
X67422941Y-47814000D01*
X67454511Y-47846629D01*
X67457756Y-47849204D01*
X67457756Y-47849205D01*
X67457781Y-47849224D01*
X67459114Y-47850282D01*
X67459165Y-47850317D01*
X67459437Y-47850474D01*
X67459438Y-47850475D01*
X67499586Y-47873654D01*
X67539309Y-47897471D01*
X67542330Y-47898333D01*
X67545057Y-47899908D01*
X67545059Y-47899908D01*
X67545062Y-47899910D01*
X67588864Y-47911646D01*
X67590819Y-47912188D01*
X71032048Y-48895397D01*
X71032047Y-48895397D01*
X71042335Y-48898336D01*
X71045062Y-48899910D01*
X71089814Y-48911901D01*
X71134375Y-48924633D01*
X71134380Y-48924633D01*
X71134709Y-48924727D01*
X71134713Y-48924728D01*
X71136475Y-48924961D01*
X71136474Y-48924961D01*
X71140563Y-48925500D01*
X71140565Y-48925500D01*
X71185910Y-48925500D01*
X71187955Y-48925517D01*
X71194847Y-48925630D01*
X71233234Y-48926264D01*
X71233234Y-48926263D01*
X71233545Y-48926269D01*
X71246983Y-48925500D01*
X88336360Y-48925500D01*
X88403399Y-48945185D01*
X88449154Y-48997989D01*
X88459098Y-49067147D01*
X88430073Y-49130703D01*
X88392656Y-49159984D01*
X88378601Y-49167145D01*
X88351150Y-49181132D01*
X88147350Y-49329201D01*
X88147345Y-49329205D01*
X87969205Y-49507345D01*
X87969201Y-49507350D01*
X87821132Y-49711151D01*
X87706760Y-49935616D01*
X87628910Y-50175214D01*
X87589500Y-50424038D01*
X87589500Y-50675961D01*
X87628910Y-50924785D01*
X87706760Y-51164383D01*
X87821132Y-51388848D01*
X87969201Y-51592649D01*
X87969205Y-51592654D01*
X88147345Y-51770794D01*
X88147350Y-51770798D01*
X88325117Y-51899952D01*
X88351155Y-51918870D01*
X88494184Y-51991747D01*
X88575616Y-52033239D01*
X88575618Y-52033239D01*
X88575621Y-52033241D01*
X88815215Y-52111090D01*
X89064038Y-52150500D01*
X89064039Y-52150500D01*
X89315961Y-52150500D01*
X89315962Y-52150500D01*
X89564785Y-52111090D01*
X89804379Y-52033241D01*
X90028845Y-51918870D01*
X90232656Y-51770793D01*
X90410793Y-51592656D01*
X90558870Y-51388845D01*
X90673241Y-51164379D01*
X90751090Y-50924785D01*
X90790500Y-50675962D01*
X90790500Y-50424038D01*
X90751090Y-50175215D01*
X90673241Y-49935621D01*
X90673239Y-49935618D01*
X90673239Y-49935616D01*
X90631747Y-49854184D01*
X90558870Y-49711155D01*
X90539952Y-49685117D01*
X90410798Y-49507350D01*
X90410794Y-49507345D01*
X90232654Y-49329205D01*
X90232649Y-49329201D01*
X90028849Y-49181132D01*
X90023883Y-49178602D01*
X89987344Y-49159984D01*
X89936549Y-49112011D01*
X89919754Y-49044190D01*
X89942291Y-48978055D01*
X89997006Y-48934603D01*
X90043640Y-48925500D01*
X91239432Y-48925500D01*
X91239435Y-48925500D01*
X91334938Y-48899910D01*
X91420562Y-48850475D01*
X91490475Y-48780562D01*
X91539910Y-48694938D01*
X91565500Y-48599435D01*
X91565500Y-26200565D01*
X91539910Y-26105062D01*
X91490475Y-26019438D01*
X91420562Y-25949525D01*
X91334938Y-25900090D01*
X91239435Y-25874500D01*
X91239433Y-25874500D01*
X74785808Y-25874500D01*
X74718769Y-25854815D01*
X74698127Y-25838181D01*
X74604672Y-25744726D01*
X74604668Y-25744723D01*
X74498133Y-25673538D01*
X74498124Y-25673533D01*
X74379744Y-25624499D01*
X74379738Y-25624497D01*
X74254071Y-25599500D01*
X74254069Y-25599500D01*
X74125931Y-25599500D01*
X74125929Y-25599500D01*
X74000261Y-25624497D01*
X74000255Y-25624499D01*
X73881875Y-25673533D01*
X73881866Y-25673538D01*
X73775331Y-25744723D01*
X73775327Y-25744726D01*
X73684726Y-25835327D01*
X73684723Y-25835331D01*
X73613538Y-25941866D01*
X73613533Y-25941875D01*
X73564499Y-26060255D01*
X73564497Y-26060261D01*
X73539500Y-26185928D01*
X73539500Y-26185931D01*
X73539500Y-26314069D01*
X73539500Y-26314071D01*
X73539499Y-26314071D01*
X73564497Y-26439738D01*
X73564499Y-26439744D01*
X73613533Y-26558124D01*
X73613538Y-26558133D01*
X73684723Y-26664668D01*
X73684726Y-26664672D01*
X73775327Y-26755273D01*
X73775331Y-26755276D01*
X73881866Y-26826461D01*
X73881872Y-26826464D01*
X73881873Y-26826465D01*
X74000256Y-26875501D01*
X74000260Y-26875501D01*
X74000261Y-26875502D01*
X74125928Y-26900500D01*
X74125931Y-26900500D01*
X74254071Y-26900500D01*
X74338615Y-26883682D01*
X74379744Y-26875501D01*
X74498127Y-26826465D01*
X74604669Y-26755276D01*
X74615221Y-26744724D01*
X74698127Y-26661819D01*
X74759450Y-26628334D01*
X74785808Y-26625500D01*
X80595192Y-26625500D01*
X80662231Y-26645185D01*
X80707986Y-26697989D01*
X80717930Y-26767147D01*
X80688905Y-26830703D01*
X80685674Y-26834172D01*
X80684723Y-26835331D01*
X80613538Y-26941866D01*
X80613533Y-26941875D01*
X80564499Y-27060255D01*
X80564497Y-27060261D01*
X80539500Y-27185928D01*
X80539500Y-27185931D01*
X80539500Y-27314069D01*
X80539500Y-27314071D01*
X80539499Y-27314071D01*
X80564497Y-27439738D01*
X80564499Y-27439744D01*
X80613533Y-27558124D01*
X80613538Y-27558133D01*
X80684723Y-27664668D01*
X80684726Y-27664672D01*
X80775327Y-27755273D01*
X80775331Y-27755276D01*
X80881866Y-27826461D01*
X80881872Y-27826464D01*
X80881873Y-27826465D01*
X81000256Y-27875501D01*
X81000260Y-27875501D01*
X81000261Y-27875502D01*
X81125928Y-27900500D01*
X81125931Y-27900500D01*
X81254071Y-27900500D01*
X81338615Y-27883682D01*
X81379744Y-27875501D01*
X81498127Y-27826465D01*
X81604669Y-27755276D01*
X81635448Y-27724497D01*
X81698127Y-27661819D01*
X81759450Y-27628334D01*
X81785808Y-27625500D01*
X88690500Y-27625500D01*
X88757539Y-27645185D01*
X88803294Y-27697989D01*
X88814500Y-27749500D01*
X88814500Y-46050500D01*
X88794815Y-46117539D01*
X88742011Y-46163294D01*
X88690500Y-46174500D01*
X70689500Y-46174500D01*
X70622461Y-46154815D01*
X70576706Y-46102011D01*
X70565500Y-46050500D01*
X70565500Y-45794780D01*
X70585185Y-45727741D01*
X70633206Y-45684295D01*
X70766786Y-45616233D01*
X70766785Y-45616233D01*
X70766788Y-45616232D01*
X70906928Y-45514414D01*
X71029414Y-45391928D01*
X71131232Y-45251788D01*
X71209873Y-45097445D01*
X71263402Y-44932701D01*
X71290500Y-44761611D01*
X71290500Y-44338389D01*
X71263402Y-44167299D01*
X71209873Y-44002555D01*
X71131232Y-43848212D01*
X71029414Y-43708072D01*
X70958523Y-43637181D01*
X70925038Y-43575858D01*
X70930022Y-43506166D01*
X70971894Y-43450233D01*
X71037358Y-43425816D01*
X71046204Y-43425500D01*
X86739432Y-43425500D01*
X86739435Y-43425500D01*
X86834938Y-43399910D01*
X86920562Y-43350475D01*
X86990475Y-43280562D01*
X87039910Y-43194938D01*
X87065500Y-43099435D01*
X87065500Y-39500565D01*
X87044414Y-39421870D01*
X87044414Y-39421868D01*
X87039911Y-39405064D01*
X87039911Y-39405063D01*
X86990475Y-39319437D01*
X84862691Y-37191654D01*
X84829207Y-37130332D01*
X84834191Y-37060640D01*
X84839888Y-37047680D01*
X84848884Y-37030025D01*
X84909709Y-36842826D01*
X84940500Y-36648422D01*
X84940500Y-36451577D01*
X84909709Y-36257173D01*
X84876450Y-36154815D01*
X84848884Y-36069975D01*
X84848882Y-36069972D01*
X84848882Y-36069970D01*
X84759523Y-35894594D01*
X84643828Y-35735354D01*
X84504646Y-35596172D01*
X84345405Y-35480476D01*
X84299011Y-35456837D01*
X84170029Y-35391117D01*
X83982826Y-35330290D01*
X83788422Y-35299500D01*
X83788417Y-35299500D01*
X83591583Y-35299500D01*
X83591578Y-35299500D01*
X83397173Y-35330290D01*
X83209970Y-35391117D01*
X83034594Y-35480476D01*
X82976106Y-35522971D01*
X82875354Y-35596172D01*
X82875352Y-35596174D01*
X82875351Y-35596174D01*
X82736174Y-35735351D01*
X82736174Y-35735352D01*
X82736172Y-35735354D01*
X82686485Y-35803741D01*
X82620476Y-35894594D01*
X82531117Y-36069970D01*
X82470290Y-36257173D01*
X82439500Y-36451577D01*
X82439500Y-36648422D01*
X82470290Y-36842826D01*
X82531117Y-37030029D01*
X82613470Y-37191655D01*
X82620476Y-37205405D01*
X82736172Y-37364646D01*
X82875354Y-37503828D01*
X83034595Y-37619524D01*
X83112048Y-37658988D01*
X83209970Y-37708882D01*
X83209972Y-37708882D01*
X83209975Y-37708884D01*
X83310317Y-37741487D01*
X83397173Y-37769709D01*
X83591578Y-37800500D01*
X83591583Y-37800500D01*
X83788422Y-37800500D01*
X83982826Y-37769709D01*
X84170025Y-37708884D01*
X84187677Y-37699889D01*
X84256344Y-37686992D01*
X84321085Y-37713266D01*
X84331655Y-37722692D01*
X86278181Y-39669218D01*
X86311666Y-39730541D01*
X86314500Y-39756899D01*
X86314500Y-42550500D01*
X86294815Y-42617539D01*
X86242011Y-42663294D01*
X86190500Y-42674500D01*
X67216685Y-42674500D01*
X67194165Y-42671283D01*
X67167462Y-42674500D01*
X67140560Y-42674500D01*
X67127097Y-42678108D01*
X67109844Y-42681441D01*
X67096008Y-42683108D01*
X67096005Y-42683108D01*
X67096004Y-42683109D01*
X67096002Y-42683109D01*
X67095998Y-42683111D01*
X67077947Y-42690354D01*
X67077948Y-42690355D01*
X67071040Y-42693128D01*
X67045062Y-42700090D01*
X67025361Y-42711463D01*
X67017188Y-42714744D01*
X67017187Y-42714744D01*
X67004248Y-42719939D01*
X67004246Y-42719939D01*
X67004244Y-42719941D01*
X66988676Y-42731616D01*
X66982727Y-42736077D01*
X66959438Y-42749525D01*
X66943358Y-42765604D01*
X66936306Y-42770894D01*
X66936304Y-42770896D01*
X65951268Y-43509673D01*
X65885826Y-43534149D01*
X65817539Y-43519359D01*
X65803983Y-43510791D01*
X65766791Y-43483770D01*
X65766790Y-43483769D01*
X65766788Y-43483768D01*
X65618439Y-43408181D01*
X65612447Y-43405128D01*
X65612446Y-43405127D01*
X65612445Y-43405127D01*
X65447701Y-43351598D01*
X65447699Y-43351597D01*
X65447698Y-43351597D01*
X65316271Y-43330781D01*
X65276611Y-43324500D01*
X65103389Y-43324500D01*
X65063728Y-43330781D01*
X64932302Y-43351597D01*
X64767552Y-43405128D01*
X64613211Y-43483768D01*
X64576018Y-43510791D01*
X64473072Y-43585586D01*
X64473070Y-43585588D01*
X64473065Y-43585592D01*
X64470421Y-43588236D01*
X64409095Y-43621716D01*
X64339404Y-43616726D01*
X64283474Y-43574850D01*
X64259062Y-43509384D01*
X64273920Y-43441112D01*
X64276648Y-43436367D01*
X66479912Y-39796193D01*
X66498305Y-39772730D01*
X67668881Y-38602155D01*
X74590000Y-38602155D01*
X74590000Y-39400000D01*
X75331759Y-39400000D01*
X75318822Y-39431233D01*
X75290000Y-39576131D01*
X75290000Y-39723869D01*
X75318822Y-39868767D01*
X75331759Y-39900000D01*
X74590000Y-39900000D01*
X74590000Y-40697844D01*
X74596401Y-40757372D01*
X74596403Y-40757379D01*
X74646645Y-40892086D01*
X74646649Y-40892093D01*
X74732809Y-41007187D01*
X74732812Y-41007190D01*
X74847906Y-41093350D01*
X74847913Y-41093354D01*
X74982620Y-41143596D01*
X74982627Y-41143598D01*
X75042155Y-41149999D01*
X75042172Y-41150000D01*
X76440000Y-41150000D01*
X76440000Y-40400000D01*
X76940000Y-40400000D01*
X76940000Y-41150000D01*
X78337828Y-41150000D01*
X78337844Y-41149999D01*
X78397372Y-41143598D01*
X78397379Y-41143596D01*
X78532086Y-41093354D01*
X78532093Y-41093350D01*
X78647187Y-41007190D01*
X78647190Y-41007187D01*
X78733350Y-40892093D01*
X78733354Y-40892086D01*
X78783596Y-40757379D01*
X78783598Y-40757372D01*
X78789999Y-40697844D01*
X78790000Y-40697827D01*
X78790000Y-39900000D01*
X78048241Y-39900000D01*
X78061178Y-39868767D01*
X78090000Y-39723869D01*
X78090000Y-39576131D01*
X78061178Y-39431233D01*
X78048241Y-39400000D01*
X78790000Y-39400000D01*
X78790000Y-38602172D01*
X78789999Y-38602155D01*
X78783598Y-38542627D01*
X78783596Y-38542620D01*
X78733354Y-38407913D01*
X78733350Y-38407906D01*
X78647190Y-38292812D01*
X78647187Y-38292809D01*
X78532093Y-38206649D01*
X78532086Y-38206645D01*
X78397379Y-38156403D01*
X78397372Y-38156401D01*
X78337844Y-38150000D01*
X76940000Y-38150000D01*
X76940000Y-38900000D01*
X76440000Y-38900000D01*
X76440000Y-38150000D01*
X75042155Y-38150000D01*
X74982627Y-38156401D01*
X74982620Y-38156403D01*
X74847913Y-38206645D01*
X74847906Y-38206649D01*
X74732812Y-38292809D01*
X74732809Y-38292812D01*
X74646649Y-38407906D01*
X74646645Y-38407913D01*
X74596403Y-38542620D01*
X74596401Y-38542627D01*
X74590000Y-38602155D01*
X67668881Y-38602155D01*
X68548346Y-37722690D01*
X68609667Y-37689207D01*
X68679359Y-37694191D01*
X68692317Y-37699887D01*
X68709975Y-37708884D01*
X68837844Y-37750431D01*
X68897173Y-37769709D01*
X69091578Y-37800500D01*
X69091583Y-37800500D01*
X69288422Y-37800500D01*
X69482826Y-37769709D01*
X69670025Y-37708884D01*
X69845405Y-37619524D01*
X70004646Y-37503828D01*
X70143828Y-37364646D01*
X70259524Y-37205405D01*
X70348884Y-37030025D01*
X70355007Y-37011181D01*
X70394445Y-36953506D01*
X70458804Y-36926308D01*
X70472938Y-36925500D01*
X71239432Y-36925500D01*
X71239435Y-36925500D01*
X71334938Y-36899910D01*
X71420562Y-36850475D01*
X71490475Y-36780562D01*
X71539910Y-36694938D01*
X71565500Y-36599435D01*
X71565500Y-31431947D01*
X82190000Y-31431947D01*
X82190000Y-31668052D01*
X82226934Y-31901247D01*
X82299897Y-32125802D01*
X82407087Y-32336174D01*
X82467338Y-32419104D01*
X82467340Y-32419105D01*
X83207037Y-31679408D01*
X83224075Y-31742993D01*
X83289901Y-31857007D01*
X83382993Y-31950099D01*
X83497007Y-32015925D01*
X83560590Y-32032962D01*
X82820893Y-32772658D01*
X82903828Y-32832914D01*
X83114197Y-32940102D01*
X83338752Y-33013065D01*
X83338751Y-33013065D01*
X83571948Y-33050000D01*
X83808052Y-33050000D01*
X84041247Y-33013065D01*
X84265802Y-32940102D01*
X84476163Y-32832918D01*
X84476169Y-32832914D01*
X84559104Y-32772658D01*
X84559105Y-32772658D01*
X83819408Y-32032962D01*
X83882993Y-32015925D01*
X83997007Y-31950099D01*
X84090099Y-31857007D01*
X84155925Y-31742993D01*
X84172962Y-31679409D01*
X84912658Y-32419105D01*
X84912658Y-32419104D01*
X84972914Y-32336169D01*
X84972918Y-32336163D01*
X85080102Y-32125802D01*
X85153065Y-31901247D01*
X85190000Y-31668052D01*
X85190000Y-31431947D01*
X85153065Y-31198752D01*
X85080102Y-30974197D01*
X84972914Y-30763828D01*
X84912658Y-30680894D01*
X84912658Y-30680893D01*
X84172962Y-31420590D01*
X84155925Y-31357007D01*
X84090099Y-31242993D01*
X83997007Y-31149901D01*
X83882993Y-31084075D01*
X83819409Y-31067037D01*
X84559105Y-30327340D01*
X84559104Y-30327338D01*
X84476174Y-30267087D01*
X84265802Y-30159897D01*
X84041247Y-30086934D01*
X84041248Y-30086934D01*
X83808052Y-30050000D01*
X83571948Y-30050000D01*
X83338752Y-30086934D01*
X83114197Y-30159897D01*
X82903830Y-30267084D01*
X82820894Y-30327340D01*
X83560591Y-31067037D01*
X83497007Y-31084075D01*
X83382993Y-31149901D01*
X83289901Y-31242993D01*
X83224075Y-31357007D01*
X83207037Y-31420591D01*
X82467340Y-30680894D01*
X82407084Y-30763830D01*
X82299897Y-30974197D01*
X82226934Y-31198752D01*
X82190000Y-31431947D01*
X71565500Y-31431947D01*
X71565500Y-29145807D01*
X71585185Y-29078768D01*
X71601819Y-29058125D01*
X71604665Y-29055278D01*
X71604669Y-29055276D01*
X71695276Y-28964669D01*
X71766465Y-28858127D01*
X71815501Y-28739744D01*
X71840500Y-28614069D01*
X71840500Y-28485931D01*
X71840500Y-28485928D01*
X71815502Y-28360261D01*
X71815501Y-28360260D01*
X71815501Y-28360256D01*
X71766465Y-28241873D01*
X71766464Y-28241872D01*
X71766461Y-28241866D01*
X71695276Y-28135331D01*
X71695273Y-28135327D01*
X71604672Y-28044726D01*
X71604668Y-28044723D01*
X71498133Y-27973538D01*
X71498124Y-27973533D01*
X71379744Y-27924499D01*
X71379738Y-27924497D01*
X71254071Y-27899500D01*
X71254069Y-27899500D01*
X71125931Y-27899500D01*
X71125929Y-27899500D01*
X71000261Y-27924497D01*
X71000255Y-27924499D01*
X70881875Y-27973533D01*
X70881866Y-27973538D01*
X70775331Y-28044723D01*
X70775327Y-28044726D01*
X70684726Y-28135327D01*
X70684723Y-28135331D01*
X70613538Y-28241866D01*
X70613533Y-28241875D01*
X70564499Y-28360255D01*
X70564497Y-28360261D01*
X70539500Y-28485928D01*
X70539500Y-28485931D01*
X70539500Y-28614069D01*
X70539500Y-28614071D01*
X70539499Y-28614071D01*
X70564497Y-28739738D01*
X70564499Y-28739744D01*
X70613533Y-28858124D01*
X70613538Y-28858133D01*
X70684722Y-28964667D01*
X70684723Y-28964668D01*
X70684724Y-28964669D01*
X70775331Y-29055276D01*
X70775333Y-29055277D01*
X70778181Y-29058125D01*
X70811666Y-29119448D01*
X70814500Y-29145807D01*
X70814500Y-33417730D01*
X70794815Y-33484769D01*
X70742011Y-33530524D01*
X70672853Y-33540468D01*
X70609297Y-33511443D01*
X70580015Y-33474025D01*
X70472914Y-33263828D01*
X70412658Y-33180894D01*
X70412658Y-33180893D01*
X69672962Y-33920590D01*
X69655925Y-33857007D01*
X69590099Y-33742993D01*
X69497007Y-33649901D01*
X69382993Y-33584075D01*
X69319408Y-33567037D01*
X70049627Y-32836819D01*
X70110950Y-32803334D01*
X70137308Y-32800500D01*
X70214676Y-32800500D01*
X70214677Y-32800499D01*
X70287740Y-32785966D01*
X70370601Y-32730601D01*
X70425966Y-32647740D01*
X70440500Y-32574674D01*
X70440500Y-30525326D01*
X70440500Y-30525323D01*
X70440499Y-30525321D01*
X70425967Y-30452264D01*
X70425966Y-30452260D01*
X70414300Y-30434800D01*
X70370601Y-30369399D01*
X70307129Y-30326989D01*
X70287739Y-30314033D01*
X70287735Y-30314032D01*
X70214677Y-30299500D01*
X70214674Y-30299500D01*
X68521899Y-30299500D01*
X68454860Y-30279815D01*
X68434218Y-30263181D01*
X67485828Y-29314791D01*
X67482350Y-29309219D01*
X67450939Y-29279902D01*
X67420563Y-29249526D01*
X67420562Y-29249525D01*
X67420561Y-29249524D01*
X67414120Y-29244582D01*
X67414558Y-29244011D01*
X67404528Y-29236585D01*
X67373424Y-29207555D01*
X66338768Y-28241875D01*
X65532654Y-27489502D01*
X65439068Y-27402155D01*
X74590000Y-27402155D01*
X74590000Y-28200000D01*
X75331759Y-28200000D01*
X75318822Y-28231233D01*
X75290000Y-28376131D01*
X75290000Y-28523869D01*
X75318822Y-28668767D01*
X75331759Y-28700000D01*
X74590000Y-28700000D01*
X74590000Y-29497844D01*
X74596401Y-29557372D01*
X74596403Y-29557379D01*
X74646645Y-29692086D01*
X74646649Y-29692093D01*
X74732809Y-29807187D01*
X74732812Y-29807190D01*
X74847906Y-29893350D01*
X74847913Y-29893354D01*
X74982620Y-29943596D01*
X74982627Y-29943598D01*
X75042155Y-29949999D01*
X75042172Y-29950000D01*
X76440000Y-29950000D01*
X76440000Y-29200000D01*
X76940000Y-29200000D01*
X76940000Y-29950000D01*
X78337828Y-29950000D01*
X78337844Y-29949999D01*
X78397372Y-29943598D01*
X78397379Y-29943596D01*
X78532086Y-29893354D01*
X78532093Y-29893350D01*
X78647187Y-29807190D01*
X78647190Y-29807187D01*
X78733350Y-29692093D01*
X78733354Y-29692086D01*
X78783596Y-29557379D01*
X78783598Y-29557372D01*
X78789999Y-29497844D01*
X78790000Y-29497827D01*
X78790000Y-28700000D01*
X78048241Y-28700000D01*
X78061178Y-28668767D01*
X78090000Y-28523869D01*
X78090000Y-28376131D01*
X78061178Y-28231233D01*
X78048241Y-28200000D01*
X78790000Y-28200000D01*
X78790000Y-27402172D01*
X78789999Y-27402155D01*
X78783598Y-27342627D01*
X78783596Y-27342620D01*
X78733354Y-27207913D01*
X78733350Y-27207906D01*
X78647190Y-27092812D01*
X78647187Y-27092809D01*
X78532093Y-27006649D01*
X78532086Y-27006645D01*
X78397379Y-26956403D01*
X78397372Y-26956401D01*
X78337844Y-26950000D01*
X76940000Y-26950000D01*
X76940000Y-27700000D01*
X76440000Y-27700000D01*
X76440000Y-26950000D01*
X75042155Y-26950000D01*
X74982627Y-26956401D01*
X74982620Y-26956403D01*
X74847913Y-27006645D01*
X74847906Y-27006649D01*
X74732812Y-27092809D01*
X74732809Y-27092812D01*
X74646649Y-27207906D01*
X74646645Y-27207913D01*
X74596403Y-27342620D01*
X74596401Y-27342627D01*
X74590000Y-27402155D01*
X65439068Y-27402155D01*
X62956689Y-25085268D01*
X62954086Y-25082839D01*
X62927392Y-25054891D01*
X62918058Y-25049213D01*
X62910071Y-25041758D01*
X62910067Y-25041755D01*
X62910065Y-25041754D01*
X62879087Y-25025265D01*
X62872910Y-25021746D01*
X62842924Y-25003506D01*
X62837121Y-25000944D01*
X62828744Y-24997531D01*
X62822794Y-24995303D01*
X62788585Y-24987389D01*
X62781705Y-24985587D01*
X59263812Y-23955959D01*
X59205001Y-23918236D01*
X59184084Y-23884409D01*
X59166465Y-23841873D01*
X59166463Y-23841870D01*
X59166461Y-23841866D01*
X59095276Y-23735331D01*
X59095273Y-23735327D01*
X59004672Y-23644726D01*
X59004668Y-23644723D01*
X58898133Y-23573538D01*
X58898124Y-23573533D01*
X58779744Y-23524499D01*
X58779738Y-23524497D01*
X58654071Y-23499500D01*
X58654069Y-23499500D01*
X58525931Y-23499500D01*
X58525929Y-23499500D01*
X58400261Y-23524497D01*
X58400255Y-23524499D01*
X58281875Y-23573533D01*
X58281866Y-23573538D01*
X58175331Y-23644723D01*
X58175327Y-23644726D01*
X58084726Y-23735327D01*
X58084723Y-23735331D01*
X58013538Y-23841866D01*
X58013533Y-23841875D01*
X57964499Y-23960255D01*
X57964497Y-23960261D01*
X57939500Y-24085928D01*
X57939500Y-24085931D01*
X57939500Y-24214069D01*
X57939500Y-24214071D01*
X57939499Y-24214071D01*
X40540000Y-24214071D01*
X40540000Y-23652172D01*
X40539999Y-23652155D01*
X40533598Y-23592627D01*
X40533596Y-23592620D01*
X40483354Y-23457913D01*
X40483350Y-23457906D01*
X40397190Y-23342812D01*
X40397187Y-23342809D01*
X40282093Y-23256649D01*
X40282086Y-23256645D01*
X40147379Y-23206403D01*
X40147372Y-23206401D01*
X40087844Y-23200000D01*
X39440000Y-23200000D01*
X39440000Y-24116988D01*
X39382993Y-24084075D01*
X39255826Y-24050000D01*
X39124174Y-24050000D01*
X38997007Y-24084075D01*
X38940000Y-24116988D01*
X38940000Y-23200000D01*
X38292155Y-23200000D01*
X38232627Y-23206401D01*
X38232620Y-23206403D01*
X38097913Y-23256645D01*
X38097906Y-23256649D01*
X37982812Y-23342809D01*
X37982809Y-23342812D01*
X37896649Y-23457906D01*
X37896645Y-23457913D01*
X37846403Y-23592620D01*
X37846401Y-23592627D01*
X37840000Y-23652155D01*
X29790000Y-23652155D01*
X29790000Y-20424038D01*
X31589500Y-20424038D01*
X31589500Y-20675961D01*
X31628910Y-20924785D01*
X31706760Y-21164383D01*
X31821132Y-21388848D01*
X31969201Y-21592649D01*
X31969205Y-21592654D01*
X32147345Y-21770794D01*
X32147350Y-21770798D01*
X32325117Y-21899952D01*
X32351155Y-21918870D01*
X32494184Y-21991747D01*
X32575616Y-22033239D01*
X32575618Y-22033239D01*
X32575621Y-22033241D01*
X32815215Y-22111090D01*
X33064038Y-22150500D01*
X33064039Y-22150500D01*
X33315961Y-22150500D01*
X33315962Y-22150500D01*
X33564785Y-22111090D01*
X33804379Y-22033241D01*
X34028845Y-21918870D01*
X34232656Y-21770793D01*
X34410793Y-21592656D01*
X34558870Y-21388845D01*
X34673241Y-21164379D01*
X34751090Y-20924785D01*
X34790500Y-20675962D01*
X34790500Y-20424038D01*
X87589500Y-20424038D01*
X87589500Y-20675961D01*
X87628910Y-20924785D01*
X87706760Y-21164383D01*
X87821132Y-21388848D01*
X87969201Y-21592649D01*
X87969205Y-21592654D01*
X88147345Y-21770794D01*
X88147350Y-21770798D01*
X88325117Y-21899952D01*
X88351155Y-21918870D01*
X88494184Y-21991747D01*
X88575616Y-22033239D01*
X88575618Y-22033239D01*
X88575621Y-22033241D01*
X88815215Y-22111090D01*
X89064038Y-22150500D01*
X89064039Y-22150500D01*
X89315961Y-22150500D01*
X89315962Y-22150500D01*
X89564785Y-22111090D01*
X89804379Y-22033241D01*
X90028845Y-21918870D01*
X90232656Y-21770793D01*
X90410793Y-21592656D01*
X90558870Y-21388845D01*
X90673241Y-21164379D01*
X90751090Y-20924785D01*
X90790500Y-20675962D01*
X90790500Y-20424038D01*
X90751090Y-20175215D01*
X90673241Y-19935621D01*
X90673239Y-19935618D01*
X90673239Y-19935616D01*
X90631747Y-19854184D01*
X90558870Y-19711155D01*
X90539952Y-19685117D01*
X90410798Y-19507350D01*
X90410794Y-19507345D01*
X90232654Y-19329205D01*
X90232649Y-19329201D01*
X90028848Y-19181132D01*
X90028847Y-19181131D01*
X90028845Y-19181130D01*
X89958747Y-19145413D01*
X89804383Y-19066760D01*
X89564785Y-18988910D01*
X89315962Y-18949500D01*
X89064038Y-18949500D01*
X88939626Y-18969205D01*
X88815214Y-18988910D01*
X88575616Y-19066760D01*
X88351151Y-19181132D01*
X88147350Y-19329201D01*
X88147345Y-19329205D01*
X87969205Y-19507345D01*
X87969201Y-19507350D01*
X87821132Y-19711151D01*
X87706760Y-19935616D01*
X87628910Y-20175214D01*
X87589500Y-20424038D01*
X34790500Y-20424038D01*
X34751090Y-20175215D01*
X34673241Y-19935621D01*
X34673239Y-19935618D01*
X34673239Y-19935616D01*
X34631747Y-19854184D01*
X34558870Y-19711155D01*
X34539952Y-19685117D01*
X34410798Y-19507350D01*
X34410794Y-19507345D01*
X34232654Y-19329205D01*
X34232649Y-19329201D01*
X34028848Y-19181132D01*
X34028847Y-19181131D01*
X34028845Y-19181130D01*
X33958747Y-19145413D01*
X33804383Y-19066760D01*
X33564785Y-18988910D01*
X33315962Y-18949500D01*
X33064038Y-18949500D01*
X32939626Y-18969205D01*
X32815214Y-18988910D01*
X32575616Y-19066760D01*
X32351151Y-19181132D01*
X32147350Y-19329201D01*
X32147345Y-19329205D01*
X31969205Y-19507345D01*
X31969201Y-19507350D01*
X31821132Y-19711151D01*
X31706760Y-19935616D01*
X31628910Y-20175214D01*
X31589500Y-20424038D01*
X29790000Y-20424038D01*
X29790000Y-17274000D01*
X29809685Y-17206961D01*
X29862489Y-17161206D01*
X29914000Y-17150000D01*
X92466000Y-17150000D01*
X92533039Y-17169685D01*
G37*
%TD.AperFunction*%
%TD*%
M02*
