%TF.GenerationSoftware,KiCad,Pcbnew,9.0.7*%
%TF.CreationDate,2026-05-19T14:18:59-05:00*%
%TF.ProjectId,BoardB_UI,426f6172-6442-45f5-9549-2e6b69636164,rev?*%
%TF.SameCoordinates,Original*%
%TF.FileFunction,Copper,L2,Bot*%
%TF.FilePolarity,Positive*%
%FSLAX46Y46*%
G04 Gerber Fmt 4.6, Leading zero omitted, Abs format (unit mm)*
G04 Created by KiCad (PCBNEW 9.0.7) date 2026-05-19 14:18:59*
%MOMM*%
%LPD*%
G01*
G04 APERTURE LIST*
G04 Aperture macros list*
%AMRoundRect*
0 Rectangle with rounded corners*
0 $1 Rounding radius*
0 $2 $3 $4 $5 $6 $7 $8 $9 X,Y pos of 4 corners*
0 Add a 4 corners polygon primitive as box body*
4,1,4,$2,$3,$4,$5,$6,$7,$8,$9,$2,$3,0*
0 Add four circle primitives for the rounded corners*
1,1,$1+$1,$2,$3*
1,1,$1+$1,$4,$5*
1,1,$1+$1,$6,$7*
1,1,$1+$1,$8,$9*
0 Add four rect primitives between the rounded corners*
20,1,$1+$1,$2,$3,$4,$5,0*
20,1,$1+$1,$4,$5,$6,$7,0*
20,1,$1+$1,$6,$7,$8,$9,0*
20,1,$1+$1,$8,$9,$2,$3,0*%
G04 Aperture macros list end*
%TA.AperFunction,ComponentPad*%
%ADD10R,1.700000X1.700000*%
%TD*%
%TA.AperFunction,ComponentPad*%
%ADD11C,1.700000*%
%TD*%
%TA.AperFunction,ComponentPad*%
%ADD12R,2.000000X2.000000*%
%TD*%
%TA.AperFunction,ComponentPad*%
%ADD13C,2.000000*%
%TD*%
%TA.AperFunction,ComponentPad*%
%ADD14R,3.200000X2.000000*%
%TD*%
%TA.AperFunction,SMDPad,CuDef*%
%ADD15RoundRect,0.250000X-0.450000X0.262500X-0.450000X-0.262500X0.450000X-0.262500X0.450000X0.262500X0*%
%TD*%
%TA.AperFunction,SMDPad,CuDef*%
%ADD16RoundRect,0.250000X0.475000X-0.250000X0.475000X0.250000X-0.475000X0.250000X-0.475000X-0.250000X0*%
%TD*%
%TA.AperFunction,SMDPad,CuDef*%
%ADD17RoundRect,0.250000X0.450000X-0.262500X0.450000X0.262500X-0.450000X0.262500X-0.450000X-0.262500X0*%
%TD*%
%TA.AperFunction,ComponentPad*%
%ADD18RoundRect,0.250000X-0.600000X-0.725000X0.600000X-0.725000X0.600000X0.725000X-0.600000X0.725000X0*%
%TD*%
%TA.AperFunction,ComponentPad*%
%ADD19O,1.700000X1.950000*%
%TD*%
%TA.AperFunction,ViaPad*%
%ADD20C,0.800000*%
%TD*%
%TA.AperFunction,Conductor*%
%ADD21C,0.300000*%
%TD*%
%TA.AperFunction,Conductor*%
%ADD22C,0.250000*%
%TD*%
%ADD23C,0.350000*%
%ADD24O,2.800000X1.500000*%
G04 APERTURE END LIST*
D10*
%TO.P,J2,1*%
%TO.N,/GND*%
X12000000Y-10000000D03*
D11*
%TO.P,J2,2*%
%TO.N,/+3V3*%
X12000000Y-12540000D03*
%TO.P,J2,3*%
%TO.N,/SCL*%
X12000000Y-15080000D03*
%TO.P,J2,4*%
%TO.N,/SDA*%
X12000000Y-17620000D03*
%TD*%
D12*
%TO.P,SW1,A*%
%TO.N,/ENC_A*%
X44000000Y-20000000D03*
D13*
%TO.P,SW1,B*%
%TO.N,/ENC_B*%
X44000000Y-25000000D03*
%TO.P,SW1,C*%
%TO.N,/GND*%
X44000000Y-22500000D03*
D14*
%TO.P,SW1,MP*%
X51500000Y-16900000D03*
X51500000Y-28100000D03*
D13*
%TO.P,SW1,S1*%
%TO.N,/ENC_SW*%
X58500000Y-25000000D03*
%TO.P,SW1,S2*%
%TO.N,/GND*%
X58500000Y-20000000D03*
%TD*%
D15*
%TO.P,R3,1*%
%TO.N,/+3V3*%
X35000000Y-11087500D03*
%TO.P,R3,2*%
%TO.N,/ENC_SW*%
X35000000Y-12912500D03*
%TD*%
D16*
%TO.P,C1,1*%
%TO.N,/ENC_A*%
X30000000Y-17950000D03*
%TO.P,C1,2*%
%TO.N,/GND*%
X30000000Y-16050000D03*
%TD*%
D15*
%TO.P,R2,1*%
%TO.N,/+3V3*%
X32500000Y-11087500D03*
%TO.P,R2,2*%
%TO.N,/ENC_B*%
X32500000Y-12912500D03*
%TD*%
%TO.P,R1,1*%
%TO.N,/+3V3*%
X30000000Y-11087500D03*
%TO.P,R1,2*%
%TO.N,/ENC_A*%
X30000000Y-12912500D03*
%TD*%
D17*
%TO.P,R5,1*%
%TO.N,/STATUS_LED*%
X52000000Y-11512500D03*
%TO.P,R5,2*%
%TO.N,/STAT_LED_A*%
X52000000Y-9687500D03*
%TD*%
%TO.P,R4,1*%
%TO.N,/ERROR_LED*%
X43000000Y-11512500D03*
%TO.P,R4,2*%
%TO.N,/ERR_LED_A*%
X43000000Y-9687500D03*
%TD*%
D16*
%TO.P,C3,1*%
%TO.N,/ENC_SW*%
X35000000Y-17950000D03*
%TO.P,C3,2*%
%TO.N,/GND*%
X35000000Y-16050000D03*
%TD*%
D18*
%TO.P,J1,1*%
%TO.N,/+3V3*%
X20000000Y-34000000D03*
D19*
%TO.P,J1,2*%
%TO.N,/GND*%
X22500000Y-34000000D03*
%TO.P,J1,3*%
%TO.N,/SDA*%
X25000000Y-34000000D03*
%TO.P,J1,4*%
%TO.N,/SCL*%
X27500000Y-34000000D03*
%TO.P,J1,5*%
%TO.N,/ENC_A*%
X30000000Y-34000000D03*
%TO.P,J1,6*%
%TO.N,/ENC_B*%
X32500000Y-34000000D03*
%TO.P,J1,7*%
%TO.N,/ENC_SW*%
X35000000Y-34000000D03*
%TO.P,J1,8*%
%TO.N,/ERROR_LED*%
X37500000Y-34000000D03*
%TO.P,J1,9*%
%TO.N,/STATUS_LED*%
X40000000Y-34000000D03*
%TD*%
D16*
%TO.P,C2,1*%
%TO.N,/ENC_B*%
X32500000Y-17950000D03*
%TO.P,C2,2*%
%TO.N,/GND*%
X32500000Y-16050000D03*
%TD*%
D20*
%TO.N,/GND*%
X30000000Y-16050000D03*
%TO.N,/ERR_LED_A*%
X45200000Y-8500000D03*
%TO.N,/STAT_LED_A*%
X54200000Y-8500000D03*
%TD*%
D21*
%TO.N,/+3V3*%
X30000000Y-11087500D02*
X32500000Y-11087500D01*
X32500000Y-11087500D02*
X35000000Y-11087500D01*
X17000000Y-34000000D02*
X17000000Y-13000000D01*
X17000000Y-13000000D02*
X26000000Y-10088000D01*
X20000000Y-34000000D02*
X17000000Y-34000000D01*
X26000000Y-10088000D02*
X30000000Y-11087500D01*
X17000000Y-13000000D02*
X12000000Y-12540000D01*
D22*
%TO.N,/ENC_A*%
X30000000Y-34000000D02*
X30000000Y-17950000D01*
X28600000Y-13912000D02*
X30000000Y-12912500D01*
X30000000Y-17950000D02*
X28600000Y-17950000D01*
X28600000Y-17950000D02*
X28600000Y-13912000D01*
%TO.N,/ENC_B*%
X32500000Y-17950000D02*
X31100000Y-17950000D01*
X31100000Y-13912000D02*
X32500000Y-12912500D01*
X31100000Y-17950000D02*
X31100000Y-13912000D01*
X32500000Y-34000000D02*
X32500000Y-17950000D01*
%TO.N,/ENC_SW*%
X36400000Y-13912000D02*
X35000000Y-12912500D01*
X35000000Y-17950000D02*
X36400000Y-17950000D01*
X36400000Y-17950000D02*
X36400000Y-13912000D01*
X35000000Y-34000000D02*
X35000000Y-17950000D01*
%TO.N,/ERROR_LED*%
X37500000Y-34000000D02*
X37500000Y-32000000D01*
X37500000Y-32000000D02*
X39000000Y-32000000D01*
X39000000Y-12000000D02*
X43000000Y-11512500D01*
X39000000Y-32000000D02*
X39000000Y-12000000D01*
%TO.N,/STATUS_LED*%
X55000000Y-12000000D02*
X52000000Y-11512500D01*
X40000000Y-34000000D02*
X55000000Y-34000000D01*
X55000000Y-34000000D02*
X55000000Y-12000000D01*
%TO.N,/ERR_LED_A*%
X43000000Y-9687500D02*
X45200000Y-8500000D01*
%TO.N,/STAT_LED_A*%
X52000000Y-9687500D02*
X54200000Y-8500000D01*
%TD*%
%TA.AperFunction,Conductor*%
%TO.N,/GND*%
G36*
X30703345Y-13692048D02*
G01*
X30736832Y-13753370D01*
X30737974Y-13800151D01*
X30733591Y-13826406D01*
X30731060Y-13838076D01*
X30724501Y-13862558D01*
X30724500Y-13862563D01*
X30724500Y-13862565D01*
X30724500Y-13880878D01*
X30721485Y-13898942D01*
X30724500Y-13930115D01*
X30724500Y-14933069D01*
X30704815Y-15000108D01*
X30652011Y-15045863D01*
X30587899Y-15056427D01*
X30524991Y-15050000D01*
X30250000Y-15050000D01*
X30250000Y-15800000D01*
X30600500Y-15800000D01*
X30667539Y-15819685D01*
X30713294Y-15872489D01*
X30724500Y-15924000D01*
X30724500Y-16176000D01*
X30704815Y-16243039D01*
X30652011Y-16288794D01*
X30600500Y-16300000D01*
X30124000Y-16300000D01*
X30056961Y-16280315D01*
X30011206Y-16227511D01*
X30000000Y-16176000D01*
X30000000Y-16050000D01*
X29874000Y-16050000D01*
X29806961Y-16030315D01*
X29761206Y-15977511D01*
X29750000Y-15926000D01*
X29750000Y-15050000D01*
X29475029Y-15050000D01*
X29475012Y-15050001D01*
X29372302Y-15060494D01*
X29205880Y-15115641D01*
X29205866Y-15115648D01*
X29164595Y-15141104D01*
X29097203Y-15159544D01*
X29030540Y-15138621D01*
X28985771Y-15084978D01*
X28975500Y-15035565D01*
X28975500Y-14169126D01*
X28995185Y-14102087D01*
X29027450Y-14068206D01*
X29027452Y-14068205D01*
X29545186Y-13698579D01*
X29611185Y-13675647D01*
X29617236Y-13675499D01*
X30497871Y-13675499D01*
X30497872Y-13675499D01*
X30557483Y-13669091D01*
X30572331Y-13663552D01*
X30642020Y-13658566D01*
X30703345Y-13692048D01*
G37*
%TD.AperFunction*%
%TA.AperFunction,Conductor*%
G36*
X63343039Y-619685D02*
G01*
X63388794Y-672489D01*
X63400000Y-724000D01*
X63400000Y-37276000D01*
X63380315Y-37343039D01*
X63327511Y-37388794D01*
X63276000Y-37400000D01*
X724000Y-37400000D01*
X656961Y-37380315D01*
X611206Y-37327511D01*
X600000Y-37276000D01*
X600000Y-33874038D01*
X2399500Y-33874038D01*
X2399500Y-34125962D01*
X2413066Y-34211611D01*
X2438910Y-34374785D01*
X2516760Y-34614383D01*
X2561296Y-34701788D01*
X2627926Y-34832557D01*
X2631132Y-34838848D01*
X2779201Y-35042649D01*
X2779205Y-35042654D01*
X2957345Y-35220794D01*
X2957350Y-35220798D01*
X3135117Y-35349952D01*
X3161155Y-35368870D01*
X3304184Y-35441747D01*
X3385616Y-35483239D01*
X3385618Y-35483239D01*
X3385621Y-35483241D01*
X3625215Y-35561090D01*
X3874038Y-35600500D01*
X3874039Y-35600500D01*
X4125961Y-35600500D01*
X4125962Y-35600500D01*
X4374785Y-35561090D01*
X4614379Y-35483241D01*
X4838845Y-35368870D01*
X5042656Y-35220793D01*
X5220793Y-35042656D01*
X5368870Y-34838845D01*
X5483241Y-34614379D01*
X5561090Y-34374785D01*
X5600500Y-34125962D01*
X5600500Y-33874038D01*
X5561090Y-33625215D01*
X5483241Y-33385621D01*
X5483239Y-33385618D01*
X5483239Y-33385616D01*
X5438703Y-33298211D01*
X5368870Y-33161155D01*
X5349952Y-33135117D01*
X5220798Y-32957350D01*
X5220794Y-32957345D01*
X5042654Y-32779205D01*
X5042649Y-32779201D01*
X4838848Y-32631132D01*
X4838847Y-32631131D01*
X4838845Y-32631130D01*
X4768747Y-32595413D01*
X4614383Y-32516760D01*
X4374785Y-32438910D01*
X4334068Y-32432461D01*
X4125962Y-32399500D01*
X3874038Y-32399500D01*
X3749626Y-32419205D01*
X3625214Y-32438910D01*
X3385616Y-32516760D01*
X3161151Y-32631132D01*
X2957350Y-32779201D01*
X2957345Y-32779205D01*
X2779205Y-32957345D01*
X2779201Y-32957350D01*
X2631132Y-33161151D01*
X2516760Y-33385616D01*
X2465773Y-33542539D01*
X2438910Y-33625215D01*
X2399500Y-33874038D01*
X600000Y-33874038D01*
X600000Y-17533389D01*
X10899500Y-17533389D01*
X10899500Y-17706611D01*
X10926598Y-17877701D01*
X10980127Y-18042445D01*
X11058768Y-18196788D01*
X11160586Y-18336928D01*
X11283072Y-18459414D01*
X11423212Y-18561232D01*
X11577555Y-18639873D01*
X11742299Y-18693402D01*
X11913389Y-18720500D01*
X11913390Y-18720500D01*
X12086610Y-18720500D01*
X12086611Y-18720500D01*
X12257701Y-18693402D01*
X12422445Y-18639873D01*
X12576788Y-18561232D01*
X12716928Y-18459414D01*
X12839414Y-18336928D01*
X12941232Y-18196788D01*
X13019873Y-18042445D01*
X13073402Y-17877701D01*
X13100500Y-17706611D01*
X13100500Y-17533389D01*
X13073402Y-17362299D01*
X13019873Y-17197555D01*
X12941232Y-17043212D01*
X12839414Y-16903072D01*
X12716928Y-16780586D01*
X12576788Y-16678768D01*
X12422445Y-16600127D01*
X12257701Y-16546598D01*
X12257699Y-16546597D01*
X12257698Y-16546597D01*
X12126271Y-16525781D01*
X12086611Y-16519500D01*
X11913389Y-16519500D01*
X11873728Y-16525781D01*
X11742302Y-16546597D01*
X11577552Y-16600128D01*
X11423211Y-16678768D01*
X11343256Y-16736859D01*
X11283072Y-16780586D01*
X11283070Y-16780588D01*
X11283069Y-16780588D01*
X11160588Y-16903069D01*
X11160588Y-16903070D01*
X11160586Y-16903072D01*
X11116859Y-16963256D01*
X11058768Y-17043211D01*
X10980128Y-17197552D01*
X10926597Y-17362302D01*
X10907550Y-17482563D01*
X10899500Y-17533389D01*
X600000Y-17533389D01*
X600000Y-14993389D01*
X10899500Y-14993389D01*
X10899500Y-15166611D01*
X10926598Y-15337701D01*
X10980127Y-15502445D01*
X11058768Y-15656788D01*
X11160586Y-15796928D01*
X11283072Y-15919414D01*
X11423212Y-16021232D01*
X11577555Y-16099873D01*
X11742299Y-16153402D01*
X11913389Y-16180500D01*
X11913390Y-16180500D01*
X12086610Y-16180500D01*
X12086611Y-16180500D01*
X12257701Y-16153402D01*
X12422445Y-16099873D01*
X12576788Y-16021232D01*
X12716928Y-15919414D01*
X12839414Y-15796928D01*
X12941232Y-15656788D01*
X13019873Y-15502445D01*
X13073402Y-15337701D01*
X13100500Y-15166611D01*
X13100500Y-14993389D01*
X13073402Y-14822299D01*
X13019873Y-14657555D01*
X12941232Y-14503212D01*
X12839414Y-14363072D01*
X12716928Y-14240586D01*
X12576788Y-14138768D01*
X12422445Y-14060127D01*
X12257701Y-14006598D01*
X12257699Y-14006597D01*
X12257698Y-14006597D01*
X12126271Y-13985781D01*
X12086611Y-13979500D01*
X11913389Y-13979500D01*
X11873728Y-13985781D01*
X11742302Y-14006597D01*
X11577552Y-14060128D01*
X11423211Y-14138768D01*
X11343256Y-14196859D01*
X11283072Y-14240586D01*
X11283070Y-14240588D01*
X11283069Y-14240588D01*
X11160588Y-14363069D01*
X11160588Y-14363070D01*
X11160586Y-14363072D01*
X11116859Y-14423256D01*
X11058768Y-14503211D01*
X10980128Y-14657552D01*
X10926597Y-14822302D01*
X10909054Y-14933069D01*
X10899500Y-14993389D01*
X600000Y-14993389D01*
X600000Y-9102155D01*
X10650000Y-9102155D01*
X10650000Y-9750000D01*
X11566988Y-9750000D01*
X11534075Y-9807007D01*
X11500000Y-9934174D01*
X11500000Y-10065826D01*
X11534075Y-10192993D01*
X11566988Y-10250000D01*
X10650000Y-10250000D01*
X10650000Y-10897844D01*
X10656401Y-10957372D01*
X10656403Y-10957379D01*
X10706645Y-11092086D01*
X10706649Y-11092093D01*
X10792809Y-11207187D01*
X10792812Y-11207190D01*
X10907906Y-11293350D01*
X10907913Y-11293354D01*
X11042620Y-11343596D01*
X11042627Y-11343598D01*
X11102155Y-11349999D01*
X11102172Y-11350000D01*
X11394949Y-11350000D01*
X11461988Y-11369685D01*
X11507743Y-11422489D01*
X11517687Y-11491647D01*
X11488662Y-11555203D01*
X11451244Y-11584485D01*
X11423211Y-11598768D01*
X11352571Y-11650092D01*
X11283072Y-11700586D01*
X11283070Y-11700588D01*
X11283069Y-11700588D01*
X11160588Y-11823069D01*
X11160588Y-11823070D01*
X11160586Y-11823072D01*
X11121194Y-11877290D01*
X11058768Y-11963211D01*
X10980128Y-12117552D01*
X10926597Y-12282302D01*
X10906742Y-12407664D01*
X10899500Y-12453389D01*
X10899500Y-12626611D01*
X10926598Y-12797701D01*
X10980127Y-12962445D01*
X11058768Y-13116788D01*
X11160586Y-13256928D01*
X11283072Y-13379414D01*
X11423212Y-13481232D01*
X11577555Y-13559873D01*
X11742299Y-13613402D01*
X11913389Y-13640500D01*
X11913390Y-13640500D01*
X12086610Y-13640500D01*
X12086611Y-13640500D01*
X12257701Y-13613402D01*
X12422445Y-13559873D01*
X12576788Y-13481232D01*
X12716928Y-13379414D01*
X12839414Y-13256928D01*
X12941232Y-13116788D01*
X12945907Y-13107611D01*
X12993879Y-13056814D01*
X13061699Y-13040016D01*
X13067730Y-13040421D01*
X16486860Y-13354982D01*
X16551814Y-13380726D01*
X16592539Y-13437500D01*
X16599500Y-13478461D01*
X16599500Y-33947273D01*
X16599500Y-34052727D01*
X16626793Y-34154587D01*
X16679520Y-34245913D01*
X16754087Y-34320480D01*
X16845413Y-34373207D01*
X16947273Y-34400500D01*
X18775501Y-34400500D01*
X18842540Y-34420185D01*
X18888295Y-34472989D01*
X18899501Y-34524500D01*
X18899501Y-34772876D01*
X18905908Y-34832483D01*
X18956202Y-34967328D01*
X18956206Y-34967335D01*
X19042452Y-35082544D01*
X19042455Y-35082547D01*
X19157664Y-35168793D01*
X19157671Y-35168797D01*
X19292517Y-35219091D01*
X19292516Y-35219091D01*
X19299444Y-35219835D01*
X19352127Y-35225500D01*
X20647872Y-35225499D01*
X20707483Y-35219091D01*
X20842331Y-35168796D01*
X20957546Y-35082546D01*
X21043796Y-34967331D01*
X21094091Y-34832483D01*
X21094091Y-34832481D01*
X21095874Y-34824938D01*
X21099117Y-34825704D01*
X21120035Y-34775172D01*
X21177419Y-34735311D01*
X21247243Y-34732802D01*
X21307340Y-34768441D01*
X21327089Y-34796662D01*
X21345379Y-34832557D01*
X21470272Y-35004459D01*
X21470276Y-35004464D01*
X21620535Y-35154723D01*
X21620540Y-35154727D01*
X21792442Y-35279620D01*
X21981782Y-35376095D01*
X22183871Y-35441757D01*
X22250000Y-35452231D01*
X22250000Y-34404145D01*
X22316657Y-34442630D01*
X22437465Y-34475000D01*
X22562535Y-34475000D01*
X22683343Y-34442630D01*
X22750000Y-34404145D01*
X22750000Y-35452230D01*
X22816126Y-35441757D01*
X22816129Y-35441757D01*
X23018217Y-35376095D01*
X23207557Y-35279620D01*
X23379459Y-35154727D01*
X23379464Y-35154723D01*
X23529723Y-35004464D01*
X23529727Y-35004459D01*
X23654620Y-34832557D01*
X23751094Y-34643219D01*
X23766768Y-34594978D01*
X23806205Y-34537302D01*
X23870563Y-34510103D01*
X23939409Y-34522016D01*
X23990886Y-34569259D01*
X23995185Y-34576999D01*
X24058768Y-34701788D01*
X24160586Y-34841928D01*
X24283072Y-34964414D01*
X24423212Y-35066232D01*
X24577555Y-35144873D01*
X24742299Y-35198402D01*
X24913389Y-35225500D01*
X24913390Y-35225500D01*
X25086610Y-35225500D01*
X25086611Y-35225500D01*
X25257701Y-35198402D01*
X25422445Y-35144873D01*
X25576788Y-35066232D01*
X25716928Y-34964414D01*
X25839414Y-34841928D01*
X25941232Y-34701788D01*
X26019873Y-34547445D01*
X26073402Y-34382701D01*
X26100500Y-34211611D01*
X26100500Y-33788389D01*
X26399500Y-33788389D01*
X26399500Y-34211611D01*
X26426598Y-34382701D01*
X26480127Y-34547445D01*
X26558768Y-34701788D01*
X26660586Y-34841928D01*
X26783072Y-34964414D01*
X26923212Y-35066232D01*
X27077555Y-35144873D01*
X27242299Y-35198402D01*
X27413389Y-35225500D01*
X27413390Y-35225500D01*
X27586610Y-35225500D01*
X27586611Y-35225500D01*
X27757701Y-35198402D01*
X27922445Y-35144873D01*
X28076788Y-35066232D01*
X28216928Y-34964414D01*
X28339414Y-34841928D01*
X28441232Y-34701788D01*
X28519873Y-34547445D01*
X28573402Y-34382701D01*
X28600500Y-34211611D01*
X28600500Y-33788389D01*
X28573402Y-33617299D01*
X28519873Y-33452555D01*
X28441232Y-33298212D01*
X28339414Y-33158072D01*
X28216928Y-33035586D01*
X28076788Y-32933768D01*
X27922445Y-32855127D01*
X27757701Y-32801598D01*
X27757699Y-32801597D01*
X27757698Y-32801597D01*
X27616292Y-32779201D01*
X27586611Y-32774500D01*
X27413389Y-32774500D01*
X27383708Y-32779201D01*
X27242302Y-32801597D01*
X27077552Y-32855128D01*
X26923211Y-32933768D01*
X26890761Y-32957345D01*
X26783072Y-33035586D01*
X26783070Y-33035588D01*
X26783069Y-33035588D01*
X26660588Y-33158069D01*
X26660588Y-33158070D01*
X26660586Y-33158072D01*
X26616859Y-33218256D01*
X26558768Y-33298211D01*
X26480128Y-33452552D01*
X26426597Y-33617302D01*
X26426185Y-33619905D01*
X26399500Y-33788389D01*
X26100500Y-33788389D01*
X26073402Y-33617299D01*
X26019873Y-33452555D01*
X25941232Y-33298212D01*
X25839414Y-33158072D01*
X25716928Y-33035586D01*
X25576788Y-32933768D01*
X25422445Y-32855127D01*
X25257701Y-32801598D01*
X25257699Y-32801597D01*
X25257698Y-32801597D01*
X25116292Y-32779201D01*
X25086611Y-32774500D01*
X24913389Y-32774500D01*
X24883708Y-32779201D01*
X24742302Y-32801597D01*
X24577552Y-32855128D01*
X24423211Y-32933768D01*
X24390761Y-32957345D01*
X24283072Y-33035586D01*
X24283070Y-33035588D01*
X24283069Y-33035588D01*
X24160588Y-33158069D01*
X24160588Y-33158070D01*
X24160586Y-33158072D01*
X24116859Y-33218256D01*
X24058768Y-33298211D01*
X23995185Y-33423000D01*
X23947210Y-33473796D01*
X23879389Y-33490591D01*
X23813254Y-33468053D01*
X23769803Y-33413338D01*
X23766768Y-33405022D01*
X23751093Y-33356778D01*
X23654620Y-33167442D01*
X23529727Y-32995540D01*
X23529723Y-32995535D01*
X23379464Y-32845276D01*
X23379459Y-32845272D01*
X23207557Y-32720379D01*
X23018215Y-32623903D01*
X22816124Y-32558241D01*
X22750000Y-32547768D01*
X22750000Y-33595854D01*
X22683343Y-33557370D01*
X22562535Y-33525000D01*
X22437465Y-33525000D01*
X22316657Y-33557370D01*
X22250000Y-33595854D01*
X22250000Y-32547768D01*
X22249999Y-32547768D01*
X22183875Y-32558241D01*
X21981784Y-32623903D01*
X21792442Y-32720379D01*
X21620540Y-32845272D01*
X21620535Y-32845276D01*
X21470276Y-32995535D01*
X21470272Y-32995540D01*
X21345377Y-33167444D01*
X21327087Y-33203339D01*
X21279112Y-33254133D01*
X21211290Y-33270927D01*
X21145156Y-33248388D01*
X21101706Y-33193672D01*
X21096976Y-33174807D01*
X21095876Y-33175068D01*
X21094092Y-33167520D01*
X21090567Y-33158070D01*
X21043796Y-33032669D01*
X21043795Y-33032668D01*
X21043793Y-33032664D01*
X20957547Y-32917455D01*
X20957544Y-32917452D01*
X20842335Y-32831206D01*
X20842328Y-32831202D01*
X20707482Y-32780908D01*
X20707483Y-32780908D01*
X20647883Y-32774501D01*
X20647881Y-32774500D01*
X20647873Y-32774500D01*
X20647864Y-32774500D01*
X19352129Y-32774500D01*
X19352123Y-32774501D01*
X19292516Y-32780908D01*
X19157671Y-32831202D01*
X19157664Y-32831206D01*
X19042455Y-32917452D01*
X19042452Y-32917455D01*
X18956206Y-33032664D01*
X18956202Y-33032671D01*
X18905908Y-33167517D01*
X18899501Y-33227116D01*
X18899500Y-33227135D01*
X18899500Y-33475500D01*
X18879815Y-33542539D01*
X18827011Y-33588294D01*
X18775500Y-33599500D01*
X17524500Y-33599500D01*
X17457461Y-33579815D01*
X17411706Y-33527011D01*
X17400500Y-33475500D01*
X17400500Y-13898942D01*
X28221485Y-13898942D01*
X28221877Y-13902996D01*
X28221877Y-13902998D01*
X28223924Y-13924160D01*
X28224500Y-13936096D01*
X28224500Y-17999435D01*
X28250090Y-18094938D01*
X28299525Y-18180562D01*
X28369438Y-18250475D01*
X28455062Y-18299910D01*
X28550565Y-18325500D01*
X28649435Y-18325500D01*
X28951533Y-18325500D01*
X29018572Y-18345185D01*
X29064327Y-18397989D01*
X29067715Y-18406166D01*
X29081203Y-18442330D01*
X29081206Y-18442335D01*
X29167452Y-18557544D01*
X29167455Y-18557547D01*
X29282664Y-18643793D01*
X29282671Y-18643797D01*
X29327618Y-18660561D01*
X29417517Y-18694091D01*
X29477127Y-18700500D01*
X29500497Y-18700499D01*
X29567536Y-18720181D01*
X29613292Y-18772983D01*
X29624500Y-18824499D01*
X29624500Y-32755219D01*
X29604815Y-32822258D01*
X29556795Y-32865704D01*
X29423211Y-32933768D01*
X29390761Y-32957345D01*
X29283072Y-33035586D01*
X29283070Y-33035588D01*
X29283069Y-33035588D01*
X29160588Y-33158069D01*
X29160588Y-33158070D01*
X29160586Y-33158072D01*
X29116859Y-33218256D01*
X29058768Y-33298211D01*
X28980128Y-33452552D01*
X28926597Y-33617302D01*
X28926185Y-33619905D01*
X28899500Y-33788389D01*
X28899500Y-34211611D01*
X28926598Y-34382701D01*
X28980127Y-34547445D01*
X29058768Y-34701788D01*
X29160586Y-34841928D01*
X29283072Y-34964414D01*
X29423212Y-35066232D01*
X29577555Y-35144873D01*
X29742299Y-35198402D01*
X29913389Y-35225500D01*
X29913390Y-35225500D01*
X30086610Y-35225500D01*
X30086611Y-35225500D01*
X30257701Y-35198402D01*
X30422445Y-35144873D01*
X30576788Y-35066232D01*
X30716928Y-34964414D01*
X30839414Y-34841928D01*
X30941232Y-34701788D01*
X31019873Y-34547445D01*
X31073402Y-34382701D01*
X31100500Y-34211611D01*
X31100500Y-33788389D01*
X31073402Y-33617299D01*
X31019873Y-33452555D01*
X30941232Y-33298212D01*
X30839414Y-33158072D01*
X30716928Y-33035586D01*
X30576788Y-32933768D01*
X30544766Y-32917452D01*
X30443205Y-32865704D01*
X30392409Y-32817729D01*
X30375500Y-32755219D01*
X30375500Y-18824499D01*
X30395185Y-18757460D01*
X30447989Y-18711705D01*
X30499500Y-18700499D01*
X30522871Y-18700499D01*
X30522872Y-18700499D01*
X30582483Y-18694091D01*
X30717331Y-18643796D01*
X30832546Y-18557546D01*
X30918796Y-18442331D01*
X30932285Y-18406166D01*
X30974157Y-18350233D01*
X31039621Y-18325816D01*
X31048467Y-18325500D01*
X31050565Y-18325500D01*
X31149435Y-18325500D01*
X31451533Y-18325500D01*
X31518572Y-18345185D01*
X31564327Y-18397989D01*
X31567715Y-18406166D01*
X31581203Y-18442330D01*
X31581206Y-18442335D01*
X31667452Y-18557544D01*
X31667455Y-18557547D01*
X31782664Y-18643793D01*
X31782671Y-18643797D01*
X31827618Y-18660561D01*
X31917517Y-18694091D01*
X31977127Y-18700500D01*
X32000497Y-18700499D01*
X32067536Y-18720181D01*
X32113292Y-18772983D01*
X32124500Y-18824499D01*
X32124500Y-32755219D01*
X32104815Y-32822258D01*
X32056795Y-32865704D01*
X31923211Y-32933768D01*
X31890761Y-32957345D01*
X31783072Y-33035586D01*
X31783070Y-33035588D01*
X31783069Y-33035588D01*
X31660588Y-33158069D01*
X31660588Y-33158070D01*
X31660586Y-33158072D01*
X31616859Y-33218256D01*
X31558768Y-33298211D01*
X31480128Y-33452552D01*
X31426597Y-33617302D01*
X31426185Y-33619905D01*
X31399500Y-33788389D01*
X31399500Y-34211611D01*
X31426598Y-34382701D01*
X31480127Y-34547445D01*
X31558768Y-34701788D01*
X31660586Y-34841928D01*
X31783072Y-34964414D01*
X31923212Y-35066232D01*
X32077555Y-35144873D01*
X32242299Y-35198402D01*
X32413389Y-35225500D01*
X32413390Y-35225500D01*
X32586610Y-35225500D01*
X32586611Y-35225500D01*
X32757701Y-35198402D01*
X32922445Y-35144873D01*
X33076788Y-35066232D01*
X33216928Y-34964414D01*
X33339414Y-34841928D01*
X33441232Y-34701788D01*
X33519873Y-34547445D01*
X33573402Y-34382701D01*
X33600500Y-34211611D01*
X33600500Y-33788389D01*
X33573402Y-33617299D01*
X33519873Y-33452555D01*
X33441232Y-33298212D01*
X33339414Y-33158072D01*
X33216928Y-33035586D01*
X33076788Y-32933768D01*
X33044766Y-32917452D01*
X32943205Y-32865704D01*
X32892409Y-32817729D01*
X32875500Y-32755219D01*
X32875500Y-18824499D01*
X32895185Y-18757460D01*
X32947989Y-18711705D01*
X32999500Y-18700499D01*
X33022871Y-18700499D01*
X33022872Y-18700499D01*
X33082483Y-18694091D01*
X33217331Y-18643796D01*
X33332546Y-18557546D01*
X33418796Y-18442331D01*
X33469091Y-18307483D01*
X33475500Y-18247873D01*
X33475499Y-17652128D01*
X33469091Y-17592517D01*
X33418796Y-17457669D01*
X33418795Y-17457668D01*
X33418793Y-17457664D01*
X33332547Y-17342455D01*
X33332544Y-17342452D01*
X33217335Y-17256206D01*
X33217329Y-17256203D01*
X33197529Y-17248818D01*
X33141596Y-17206946D01*
X33117179Y-17141482D01*
X33132031Y-17073209D01*
X33181437Y-17023804D01*
X33201860Y-17014930D01*
X33294117Y-16984359D01*
X33294124Y-16984356D01*
X33443345Y-16892315D01*
X33567315Y-16768345D01*
X33644461Y-16643273D01*
X33696409Y-16596549D01*
X33765372Y-16585326D01*
X33829454Y-16613170D01*
X33855539Y-16643273D01*
X33932684Y-16768345D01*
X34056654Y-16892315D01*
X34205875Y-16984356D01*
X34205880Y-16984358D01*
X34298140Y-17014930D01*
X34355585Y-17054702D01*
X34382408Y-17119218D01*
X34370093Y-17187994D01*
X34322550Y-17239194D01*
X34302471Y-17248817D01*
X34282674Y-17256201D01*
X34282664Y-17256206D01*
X34167455Y-17342452D01*
X34167452Y-17342455D01*
X34081206Y-17457664D01*
X34081202Y-17457671D01*
X34030910Y-17592513D01*
X34030909Y-17592517D01*
X34024500Y-17652127D01*
X34024500Y-17652134D01*
X34024500Y-17652135D01*
X34024500Y-18247870D01*
X34024501Y-18247876D01*
X34030908Y-18307483D01*
X34081202Y-18442328D01*
X34081206Y-18442335D01*
X34167452Y-18557544D01*
X34167455Y-18557547D01*
X34282664Y-18643793D01*
X34282671Y-18643797D01*
X34327618Y-18660561D01*
X34417517Y-18694091D01*
X34477127Y-18700500D01*
X34500497Y-18700499D01*
X34567536Y-18720181D01*
X34613292Y-18772983D01*
X34624500Y-18824499D01*
X34624500Y-32755219D01*
X34604815Y-32822258D01*
X34556795Y-32865704D01*
X34423211Y-32933768D01*
X34390761Y-32957345D01*
X34283072Y-33035586D01*
X34283070Y-33035588D01*
X34283069Y-33035588D01*
X34160588Y-33158069D01*
X34160588Y-33158070D01*
X34160586Y-33158072D01*
X34116859Y-33218256D01*
X34058768Y-33298211D01*
X33980128Y-33452552D01*
X33926597Y-33617302D01*
X33926185Y-33619905D01*
X33899500Y-33788389D01*
X33899500Y-34211611D01*
X33926598Y-34382701D01*
X33980127Y-34547445D01*
X34058768Y-34701788D01*
X34160586Y-34841928D01*
X34283072Y-34964414D01*
X34423212Y-35066232D01*
X34577555Y-35144873D01*
X34742299Y-35198402D01*
X34913389Y-35225500D01*
X34913390Y-35225500D01*
X35086610Y-35225500D01*
X35086611Y-35225500D01*
X35257701Y-35198402D01*
X35422445Y-35144873D01*
X35576788Y-35066232D01*
X35716928Y-34964414D01*
X35839414Y-34841928D01*
X35941232Y-34701788D01*
X36019873Y-34547445D01*
X36073402Y-34382701D01*
X36100500Y-34211611D01*
X36100500Y-33788389D01*
X36399500Y-33788389D01*
X36399500Y-34211611D01*
X36426598Y-34382701D01*
X36480127Y-34547445D01*
X36558768Y-34701788D01*
X36660586Y-34841928D01*
X36783072Y-34964414D01*
X36923212Y-35066232D01*
X37077555Y-35144873D01*
X37242299Y-35198402D01*
X37413389Y-35225500D01*
X37413390Y-35225500D01*
X37586610Y-35225500D01*
X37586611Y-35225500D01*
X37757701Y-35198402D01*
X37922445Y-35144873D01*
X38076788Y-35066232D01*
X38216928Y-34964414D01*
X38339414Y-34841928D01*
X38441232Y-34701788D01*
X38519873Y-34547445D01*
X38573402Y-34382701D01*
X38600500Y-34211611D01*
X38600500Y-33788389D01*
X38899500Y-33788389D01*
X38899500Y-34211611D01*
X38926598Y-34382701D01*
X38980127Y-34547445D01*
X39058768Y-34701788D01*
X39160586Y-34841928D01*
X39283072Y-34964414D01*
X39423212Y-35066232D01*
X39577555Y-35144873D01*
X39742299Y-35198402D01*
X39913389Y-35225500D01*
X39913390Y-35225500D01*
X40086610Y-35225500D01*
X40086611Y-35225500D01*
X40257701Y-35198402D01*
X40422445Y-35144873D01*
X40576788Y-35066232D01*
X40716928Y-34964414D01*
X40839414Y-34841928D01*
X40941232Y-34701788D01*
X41019873Y-34547445D01*
X41047902Y-34461180D01*
X41087340Y-34403506D01*
X41151699Y-34376308D01*
X41165833Y-34375500D01*
X55049432Y-34375500D01*
X55049435Y-34375500D01*
X55144938Y-34349910D01*
X55230562Y-34300475D01*
X55300475Y-34230562D01*
X55349910Y-34144938D01*
X55375500Y-34049435D01*
X55375500Y-33874038D01*
X58399500Y-33874038D01*
X58399500Y-34125962D01*
X58413066Y-34211611D01*
X58438910Y-34374785D01*
X58516760Y-34614383D01*
X58561296Y-34701788D01*
X58627926Y-34832557D01*
X58631132Y-34838848D01*
X58779201Y-35042649D01*
X58779205Y-35042654D01*
X58957345Y-35220794D01*
X58957350Y-35220798D01*
X59135117Y-35349952D01*
X59161155Y-35368870D01*
X59304184Y-35441747D01*
X59385616Y-35483239D01*
X59385618Y-35483239D01*
X59385621Y-35483241D01*
X59625215Y-35561090D01*
X59874038Y-35600500D01*
X59874039Y-35600500D01*
X60125961Y-35600500D01*
X60125962Y-35600500D01*
X60374785Y-35561090D01*
X60614379Y-35483241D01*
X60838845Y-35368870D01*
X61042656Y-35220793D01*
X61220793Y-35042656D01*
X61368870Y-34838845D01*
X61483241Y-34614379D01*
X61561090Y-34374785D01*
X61600500Y-34125962D01*
X61600500Y-33874038D01*
X61561090Y-33625215D01*
X61483241Y-33385621D01*
X61483239Y-33385618D01*
X61483239Y-33385616D01*
X61438703Y-33298211D01*
X61368870Y-33161155D01*
X61349952Y-33135117D01*
X61220798Y-32957350D01*
X61220794Y-32957345D01*
X61042654Y-32779205D01*
X61042649Y-32779201D01*
X60838848Y-32631132D01*
X60838847Y-32631131D01*
X60838845Y-32631130D01*
X60768747Y-32595413D01*
X60614383Y-32516760D01*
X60374785Y-32438910D01*
X60334068Y-32432461D01*
X60125962Y-32399500D01*
X59874038Y-32399500D01*
X59749626Y-32419205D01*
X59625214Y-32438910D01*
X59385616Y-32516760D01*
X59161151Y-32631132D01*
X58957350Y-32779201D01*
X58957345Y-32779205D01*
X58779205Y-32957345D01*
X58779201Y-32957350D01*
X58631132Y-33161151D01*
X58516760Y-33385616D01*
X58465773Y-33542539D01*
X58438910Y-33625215D01*
X58399500Y-33874038D01*
X55375500Y-33874038D01*
X55375500Y-24901577D01*
X57249500Y-24901577D01*
X57249500Y-25098422D01*
X57280290Y-25292826D01*
X57341117Y-25480029D01*
X57430476Y-25655405D01*
X57546172Y-25814646D01*
X57685354Y-25953828D01*
X57844595Y-26069524D01*
X57927455Y-26111743D01*
X58019970Y-26158882D01*
X58019972Y-26158882D01*
X58019975Y-26158884D01*
X58120317Y-26191487D01*
X58207173Y-26219709D01*
X58401578Y-26250500D01*
X58401583Y-26250500D01*
X58598422Y-26250500D01*
X58792826Y-26219709D01*
X58980025Y-26158884D01*
X59155405Y-26069524D01*
X59314646Y-25953828D01*
X59453828Y-25814646D01*
X59569524Y-25655405D01*
X59658884Y-25480025D01*
X59719709Y-25292826D01*
X59750500Y-25098422D01*
X59750500Y-24901577D01*
X59719709Y-24707173D01*
X59658882Y-24519970D01*
X59569523Y-24344594D01*
X59453828Y-24185354D01*
X59314646Y-24046172D01*
X59155405Y-23930476D01*
X59109011Y-23906837D01*
X58980029Y-23841117D01*
X58792826Y-23780290D01*
X58598422Y-23749500D01*
X58598417Y-23749500D01*
X58401583Y-23749500D01*
X58401578Y-23749500D01*
X58207173Y-23780290D01*
X58019970Y-23841117D01*
X57844594Y-23930476D01*
X57786106Y-23972971D01*
X57685354Y-24046172D01*
X57685352Y-24046174D01*
X57685351Y-24046174D01*
X57546174Y-24185351D01*
X57546174Y-24185352D01*
X57546172Y-24185354D01*
X57496485Y-24253741D01*
X57430476Y-24344594D01*
X57341117Y-24519970D01*
X57280290Y-24707173D01*
X57249500Y-24901577D01*
X55375500Y-24901577D01*
X55375500Y-19881947D01*
X57000000Y-19881947D01*
X57000000Y-20118052D01*
X57036934Y-20351247D01*
X57109897Y-20575802D01*
X57217087Y-20786174D01*
X57277338Y-20869104D01*
X57277340Y-20869105D01*
X58017037Y-20129408D01*
X58034075Y-20192993D01*
X58099901Y-20307007D01*
X58192993Y-20400099D01*
X58307007Y-20465925D01*
X58370590Y-20482962D01*
X57630893Y-21222658D01*
X57713828Y-21282914D01*
X57924197Y-21390102D01*
X58148752Y-21463065D01*
X58148751Y-21463065D01*
X58381948Y-21500000D01*
X58618052Y-21500000D01*
X58851247Y-21463065D01*
X59075802Y-21390102D01*
X59286163Y-21282918D01*
X59286169Y-21282914D01*
X59369104Y-21222658D01*
X59369105Y-21222658D01*
X58629408Y-20482962D01*
X58692993Y-20465925D01*
X58807007Y-20400099D01*
X58900099Y-20307007D01*
X58965925Y-20192993D01*
X58982962Y-20129409D01*
X59722658Y-20869105D01*
X59722658Y-20869104D01*
X59782914Y-20786169D01*
X59782918Y-20786163D01*
X59890102Y-20575802D01*
X59963065Y-20351247D01*
X60000000Y-20118052D01*
X60000000Y-19881947D01*
X59963065Y-19648752D01*
X59890102Y-19424197D01*
X59782914Y-19213828D01*
X59722658Y-19130894D01*
X59722658Y-19130893D01*
X58982962Y-19870590D01*
X58965925Y-19807007D01*
X58900099Y-19692993D01*
X58807007Y-19599901D01*
X58692993Y-19534075D01*
X58629409Y-19517037D01*
X59369105Y-18777340D01*
X59369104Y-18777338D01*
X59286174Y-18717087D01*
X59075802Y-18609897D01*
X58851247Y-18536934D01*
X58851248Y-18536934D01*
X58618052Y-18500000D01*
X58381948Y-18500000D01*
X58148752Y-18536934D01*
X57924197Y-18609897D01*
X57713830Y-18717084D01*
X57630894Y-18777340D01*
X58370591Y-19517037D01*
X58307007Y-19534075D01*
X58192993Y-19599901D01*
X58099901Y-19692993D01*
X58034075Y-19807007D01*
X58017037Y-19870591D01*
X57277340Y-19130894D01*
X57217084Y-19213830D01*
X57109897Y-19424197D01*
X57036934Y-19648752D01*
X57000000Y-19881947D01*
X55375500Y-19881947D01*
X55375500Y-12030308D01*
X55378567Y-12011434D01*
X55375500Y-11981081D01*
X55375500Y-11950565D01*
X55370549Y-11932089D01*
X55368627Y-11913063D01*
X55357807Y-11884534D01*
X55357258Y-11882486D01*
X55356192Y-11878506D01*
X55356189Y-11878497D01*
X55355866Y-11877290D01*
X55349910Y-11855062D01*
X55343576Y-11844091D01*
X55340347Y-11838498D01*
X55333566Y-11820618D01*
X55315734Y-11795867D01*
X55312615Y-11790464D01*
X55312606Y-11790450D01*
X55311980Y-11789365D01*
X55300475Y-11769438D01*
X55286950Y-11755913D01*
X55275772Y-11740397D01*
X55252138Y-11721101D01*
X55240667Y-11709630D01*
X55230563Y-11699525D01*
X55222658Y-11694961D01*
X55222658Y-11694960D01*
X55213991Y-11689956D01*
X55199185Y-11677868D01*
X55171370Y-11665350D01*
X55165955Y-11662224D01*
X55165953Y-11662223D01*
X55144938Y-11650090D01*
X55144937Y-11650089D01*
X55136125Y-11647728D01*
X55136125Y-11647727D01*
X55126455Y-11645136D01*
X55109023Y-11637291D01*
X55078916Y-11632398D01*
X55072880Y-11630781D01*
X55072877Y-11630781D01*
X55049435Y-11624500D01*
X55049434Y-11624500D01*
X55040321Y-11624500D01*
X55020432Y-11622895D01*
X53053031Y-11303192D01*
X52990017Y-11273009D01*
X52953324Y-11213550D01*
X52949631Y-11194055D01*
X52944091Y-11142517D01*
X52925281Y-11092086D01*
X52893797Y-11007671D01*
X52893793Y-11007664D01*
X52807547Y-10892455D01*
X52807544Y-10892452D01*
X52692335Y-10806206D01*
X52692328Y-10806202D01*
X52557482Y-10755908D01*
X52557483Y-10755908D01*
X52497883Y-10749501D01*
X52497881Y-10749500D01*
X52497873Y-10749500D01*
X52497864Y-10749500D01*
X51502129Y-10749500D01*
X51502123Y-10749501D01*
X51442516Y-10755908D01*
X51307671Y-10806202D01*
X51307664Y-10806206D01*
X51192455Y-10892452D01*
X51192452Y-10892455D01*
X51106206Y-11007664D01*
X51106202Y-11007671D01*
X51055910Y-11142513D01*
X51055909Y-11142517D01*
X51049500Y-11202127D01*
X51049500Y-11202134D01*
X51049500Y-11202135D01*
X51049500Y-11822870D01*
X51049501Y-11822876D01*
X51055908Y-11882483D01*
X51106202Y-12017328D01*
X51106206Y-12017335D01*
X51192452Y-12132544D01*
X51192455Y-12132547D01*
X51307664Y-12218793D01*
X51307671Y-12218797D01*
X51442517Y-12269091D01*
X51442516Y-12269091D01*
X51449444Y-12269835D01*
X51502127Y-12275500D01*
X52497872Y-12275499D01*
X52557483Y-12269091D01*
X52692331Y-12218796D01*
X52807546Y-12132546D01*
X52834875Y-12096038D01*
X52890806Y-12054168D01*
X52954026Y-12047954D01*
X54520392Y-12302488D01*
X54583403Y-12332670D01*
X54620096Y-12392129D01*
X54624500Y-12424882D01*
X54624500Y-33500500D01*
X54604815Y-33567539D01*
X54552011Y-33613294D01*
X54500500Y-33624500D01*
X41165833Y-33624500D01*
X41098794Y-33604815D01*
X41053039Y-33552011D01*
X41047902Y-33538819D01*
X41035451Y-33500500D01*
X41019873Y-33452555D01*
X41019871Y-33452552D01*
X41019871Y-33452550D01*
X40941231Y-33298211D01*
X40921408Y-33270927D01*
X40839414Y-33158072D01*
X40716928Y-33035586D01*
X40576788Y-32933768D01*
X40422445Y-32855127D01*
X40257701Y-32801598D01*
X40257699Y-32801597D01*
X40257698Y-32801597D01*
X40116292Y-32779201D01*
X40086611Y-32774500D01*
X39913389Y-32774500D01*
X39883708Y-32779201D01*
X39742302Y-32801597D01*
X39577552Y-32855128D01*
X39423211Y-32933768D01*
X39390761Y-32957345D01*
X39283072Y-33035586D01*
X39283070Y-33035588D01*
X39283069Y-33035588D01*
X39160588Y-33158069D01*
X39160588Y-33158070D01*
X39160586Y-33158072D01*
X39116859Y-33218256D01*
X39058768Y-33298211D01*
X38980128Y-33452552D01*
X38926597Y-33617302D01*
X38926185Y-33619905D01*
X38899500Y-33788389D01*
X38600500Y-33788389D01*
X38573402Y-33617299D01*
X38519873Y-33452555D01*
X38441232Y-33298212D01*
X38339414Y-33158072D01*
X38216928Y-33035586D01*
X38076788Y-32933768D01*
X38044766Y-32917452D01*
X37943205Y-32865704D01*
X37892409Y-32817729D01*
X37875500Y-32755219D01*
X37875500Y-32499500D01*
X37895185Y-32432461D01*
X37947989Y-32386706D01*
X37999500Y-32375500D01*
X39049432Y-32375500D01*
X39049435Y-32375500D01*
X39144938Y-32349910D01*
X39230562Y-32300475D01*
X39300475Y-32230562D01*
X39349910Y-32144938D01*
X39375500Y-32049435D01*
X39375500Y-27052155D01*
X49400000Y-27052155D01*
X49400000Y-27850000D01*
X50141759Y-27850000D01*
X50128822Y-27881233D01*
X50100000Y-28026131D01*
X50100000Y-28173869D01*
X50128822Y-28318767D01*
X50141759Y-28350000D01*
X49400000Y-28350000D01*
X49400000Y-29147844D01*
X49406401Y-29207372D01*
X49406403Y-29207379D01*
X49456645Y-29342086D01*
X49456649Y-29342093D01*
X49542809Y-29457187D01*
X49542812Y-29457190D01*
X49657906Y-29543350D01*
X49657913Y-29543354D01*
X49792620Y-29593596D01*
X49792627Y-29593598D01*
X49852155Y-29599999D01*
X49852172Y-29600000D01*
X51250000Y-29600000D01*
X51250000Y-28850000D01*
X51750000Y-28850000D01*
X51750000Y-29600000D01*
X53147828Y-29600000D01*
X53147844Y-29599999D01*
X53207372Y-29593598D01*
X53207379Y-29593596D01*
X53342086Y-29543354D01*
X53342093Y-29543350D01*
X53457187Y-29457190D01*
X53457190Y-29457187D01*
X53543350Y-29342093D01*
X53543354Y-29342086D01*
X53593596Y-29207379D01*
X53593598Y-29207372D01*
X53599999Y-29147844D01*
X53600000Y-29147827D01*
X53600000Y-28350000D01*
X52858241Y-28350000D01*
X52871178Y-28318767D01*
X52900000Y-28173869D01*
X52900000Y-28026131D01*
X52871178Y-27881233D01*
X52858241Y-27850000D01*
X53600000Y-27850000D01*
X53600000Y-27052172D01*
X53599999Y-27052155D01*
X53593598Y-26992627D01*
X53593596Y-26992620D01*
X53543354Y-26857913D01*
X53543350Y-26857906D01*
X53457190Y-26742812D01*
X53457187Y-26742809D01*
X53342093Y-26656649D01*
X53342086Y-26656645D01*
X53207379Y-26606403D01*
X53207372Y-26606401D01*
X53147844Y-26600000D01*
X51750000Y-26600000D01*
X51750000Y-27350000D01*
X51250000Y-27350000D01*
X51250000Y-26600000D01*
X49852155Y-26600000D01*
X49792627Y-26606401D01*
X49792620Y-26606403D01*
X49657913Y-26656645D01*
X49657906Y-26656649D01*
X49542812Y-26742809D01*
X49542809Y-26742812D01*
X49456649Y-26857906D01*
X49456645Y-26857913D01*
X49406403Y-26992620D01*
X49406401Y-26992627D01*
X49400000Y-27052155D01*
X39375500Y-27052155D01*
X39375500Y-22381947D01*
X42500000Y-22381947D01*
X42500000Y-22618052D01*
X42536934Y-22851247D01*
X42609897Y-23075802D01*
X42717087Y-23286174D01*
X42777338Y-23369104D01*
X42777340Y-23369105D01*
X43517037Y-22629408D01*
X43534075Y-22692993D01*
X43599901Y-22807007D01*
X43692993Y-22900099D01*
X43807007Y-22965925D01*
X43870590Y-22982962D01*
X43130893Y-23722658D01*
X43213824Y-23782911D01*
X43213832Y-23782916D01*
X43229777Y-23791041D01*
X43280572Y-23839016D01*
X43297367Y-23906837D01*
X43274829Y-23972971D01*
X43246368Y-24001842D01*
X43185354Y-24046171D01*
X43046174Y-24185351D01*
X43046174Y-24185352D01*
X43046172Y-24185354D01*
X42996485Y-24253741D01*
X42930476Y-24344594D01*
X42841117Y-24519970D01*
X42780290Y-24707173D01*
X42749500Y-24901577D01*
X42749500Y-25098422D01*
X42780290Y-25292826D01*
X42841117Y-25480029D01*
X42930476Y-25655405D01*
X43046172Y-25814646D01*
X43185354Y-25953828D01*
X43344595Y-26069524D01*
X43427455Y-26111743D01*
X43519970Y-26158882D01*
X43519972Y-26158882D01*
X43519975Y-26158884D01*
X43620317Y-26191487D01*
X43707173Y-26219709D01*
X43901578Y-26250500D01*
X43901583Y-26250500D01*
X44098422Y-26250500D01*
X44292826Y-26219709D01*
X44480025Y-26158884D01*
X44655405Y-26069524D01*
X44814646Y-25953828D01*
X44953828Y-25814646D01*
X45069524Y-25655405D01*
X45158884Y-25480025D01*
X45219709Y-25292826D01*
X45250500Y-25098422D01*
X45250500Y-24901577D01*
X45219709Y-24707173D01*
X45158882Y-24519970D01*
X45069523Y-24344594D01*
X44953828Y-24185354D01*
X44814646Y-24046172D01*
X44753631Y-24001841D01*
X44710967Y-23946513D01*
X44704988Y-23876899D01*
X44737594Y-23815104D01*
X44770224Y-23791040D01*
X44786167Y-23782916D01*
X44786174Y-23782912D01*
X44869104Y-23722658D01*
X44869105Y-23722658D01*
X44129408Y-22982962D01*
X44192993Y-22965925D01*
X44307007Y-22900099D01*
X44400099Y-22807007D01*
X44465925Y-22692993D01*
X44482962Y-22629409D01*
X45222658Y-23369105D01*
X45222658Y-23369104D01*
X45282914Y-23286169D01*
X45282918Y-23286163D01*
X45390102Y-23075802D01*
X45463065Y-22851247D01*
X45500000Y-22618052D01*
X45500000Y-22381947D01*
X45463065Y-22148752D01*
X45390102Y-21924197D01*
X45282914Y-21713828D01*
X45222658Y-21630894D01*
X45222658Y-21630893D01*
X44482962Y-22370590D01*
X44465925Y-22307007D01*
X44400099Y-22192993D01*
X44307007Y-22099901D01*
X44192993Y-22034075D01*
X44129409Y-22017037D01*
X44859627Y-21286819D01*
X44920950Y-21253334D01*
X44947308Y-21250500D01*
X45024676Y-21250500D01*
X45024677Y-21250499D01*
X45097740Y-21235966D01*
X45180601Y-21180601D01*
X45235966Y-21097740D01*
X45250500Y-21024674D01*
X45250500Y-18975326D01*
X45250500Y-18975323D01*
X45250499Y-18975321D01*
X45235967Y-18902264D01*
X45235966Y-18902260D01*
X45180601Y-18819399D01*
X45117651Y-18777338D01*
X45097739Y-18764033D01*
X45097735Y-18764032D01*
X45024677Y-18749500D01*
X45024674Y-18749500D01*
X42975326Y-18749500D01*
X42975323Y-18749500D01*
X42902264Y-18764032D01*
X42902260Y-18764033D01*
X42819399Y-18819399D01*
X42764033Y-18902260D01*
X42764032Y-18902264D01*
X42749500Y-18975321D01*
X42749500Y-21024678D01*
X42764032Y-21097735D01*
X42764033Y-21097739D01*
X42764034Y-21097740D01*
X42819399Y-21180601D01*
X42882343Y-21222658D01*
X42902260Y-21235966D01*
X42902264Y-21235967D01*
X42975321Y-21250499D01*
X42975324Y-21250500D01*
X43052692Y-21250500D01*
X43119731Y-21270185D01*
X43140373Y-21286819D01*
X43870591Y-22017037D01*
X43807007Y-22034075D01*
X43692993Y-22099901D01*
X43599901Y-22192993D01*
X43534075Y-22307007D01*
X43517037Y-22370591D01*
X42777340Y-21630894D01*
X42717084Y-21713830D01*
X42609897Y-21924197D01*
X42536934Y-22148752D01*
X42500000Y-22381947D01*
X39375500Y-22381947D01*
X39375500Y-15852155D01*
X49400000Y-15852155D01*
X49400000Y-16650000D01*
X50141759Y-16650000D01*
X50128822Y-16681233D01*
X50100000Y-16826131D01*
X50100000Y-16973869D01*
X50128822Y-17118767D01*
X50141759Y-17150000D01*
X49400000Y-17150000D01*
X49400000Y-17947844D01*
X49406401Y-18007372D01*
X49406403Y-18007379D01*
X49456645Y-18142086D01*
X49456649Y-18142093D01*
X49542809Y-18257187D01*
X49542812Y-18257190D01*
X49657906Y-18343350D01*
X49657913Y-18343354D01*
X49792620Y-18393596D01*
X49792627Y-18393598D01*
X49852155Y-18399999D01*
X49852172Y-18400000D01*
X51250000Y-18400000D01*
X51250000Y-17650000D01*
X51750000Y-17650000D01*
X51750000Y-18400000D01*
X53147828Y-18400000D01*
X53147844Y-18399999D01*
X53207372Y-18393598D01*
X53207379Y-18393596D01*
X53342086Y-18343354D01*
X53342093Y-18343350D01*
X53457187Y-18257190D01*
X53457190Y-18257187D01*
X53543350Y-18142093D01*
X53543354Y-18142086D01*
X53593596Y-18007379D01*
X53593598Y-18007372D01*
X53599999Y-17947844D01*
X53600000Y-17947827D01*
X53600000Y-17150000D01*
X52858241Y-17150000D01*
X52871178Y-17118767D01*
X52900000Y-16973869D01*
X52900000Y-16826131D01*
X52871178Y-16681233D01*
X52858241Y-16650000D01*
X53600000Y-16650000D01*
X53600000Y-15852172D01*
X53599999Y-15852155D01*
X53593598Y-15792627D01*
X53593596Y-15792620D01*
X53543354Y-15657913D01*
X53543350Y-15657906D01*
X53457190Y-15542812D01*
X53457187Y-15542809D01*
X53342093Y-15456649D01*
X53342086Y-15456645D01*
X53207379Y-15406403D01*
X53207372Y-15406401D01*
X53147844Y-15400000D01*
X51750000Y-15400000D01*
X51750000Y-16150000D01*
X51250000Y-16150000D01*
X51250000Y-15400000D01*
X49852155Y-15400000D01*
X49792627Y-15406401D01*
X49792620Y-15406403D01*
X49657913Y-15456645D01*
X49657906Y-15456649D01*
X49542812Y-15542809D01*
X49542809Y-15542812D01*
X49456649Y-15657906D01*
X49456645Y-15657913D01*
X49406403Y-15792620D01*
X49406401Y-15792627D01*
X49400000Y-15852155D01*
X39375500Y-15852155D01*
X39375500Y-12442318D01*
X39395185Y-12375279D01*
X39447989Y-12329524D01*
X39484494Y-12319230D01*
X42022863Y-12009866D01*
X42091791Y-12021295D01*
X42137130Y-12058643D01*
X42192453Y-12132545D01*
X42192455Y-12132547D01*
X42307664Y-12218793D01*
X42307671Y-12218797D01*
X42442517Y-12269091D01*
X42442516Y-12269091D01*
X42449444Y-12269835D01*
X42502127Y-12275500D01*
X43497872Y-12275499D01*
X43557483Y-12269091D01*
X43692331Y-12218796D01*
X43807546Y-12132546D01*
X43893796Y-12017331D01*
X43944091Y-11882483D01*
X43950500Y-11822873D01*
X43950499Y-11202128D01*
X43944091Y-11142517D01*
X43925281Y-11092086D01*
X43893797Y-11007671D01*
X43893793Y-11007664D01*
X43807547Y-10892455D01*
X43807544Y-10892452D01*
X43692335Y-10806206D01*
X43692328Y-10806202D01*
X43557482Y-10755908D01*
X43557483Y-10755908D01*
X43497883Y-10749501D01*
X43497881Y-10749500D01*
X43497873Y-10749500D01*
X43497864Y-10749500D01*
X42502129Y-10749500D01*
X42502123Y-10749501D01*
X42442516Y-10755908D01*
X42307671Y-10806202D01*
X42307664Y-10806206D01*
X42192455Y-10892452D01*
X42192452Y-10892455D01*
X42106206Y-11007664D01*
X42106202Y-11007671D01*
X42055908Y-11142516D01*
X42054805Y-11152782D01*
X42028065Y-11217333D01*
X41970672Y-11257179D01*
X41946518Y-11262613D01*
X39039349Y-11616926D01*
X38977205Y-11624500D01*
X38950565Y-11624500D01*
X38928338Y-11630455D01*
X38925664Y-11630781D01*
X38919673Y-11631511D01*
X38905501Y-11633238D01*
X38905499Y-11633239D01*
X38887767Y-11640384D01*
X38873524Y-11645142D01*
X38855064Y-11650089D01*
X38855057Y-11650092D01*
X38842684Y-11657233D01*
X38842685Y-11657234D01*
X38835125Y-11661598D01*
X38813795Y-11670195D01*
X38792508Y-11686204D01*
X38785989Y-11689968D01*
X38785987Y-11689968D01*
X38769439Y-11699524D01*
X38769435Y-11699527D01*
X38759331Y-11709630D01*
X38746202Y-11721032D01*
X38734780Y-11729624D01*
X38726348Y-11740397D01*
X38718360Y-11750602D01*
X38699525Y-11769438D01*
X38688023Y-11789356D01*
X38682653Y-11796218D01*
X38682647Y-11796229D01*
X38673838Y-11807483D01*
X38673836Y-11807488D01*
X38666355Y-11825067D01*
X38659648Y-11838506D01*
X38650089Y-11855063D01*
X38650088Y-11855065D01*
X38646391Y-11868857D01*
X38646392Y-11868858D01*
X38644133Y-11877290D01*
X38635126Y-11898459D01*
X38631396Y-11924822D01*
X38629448Y-11932094D01*
X38624500Y-11950560D01*
X38624500Y-11964843D01*
X38623278Y-11982209D01*
X38621277Y-11996355D01*
X38623589Y-12015326D01*
X38624500Y-12030327D01*
X38624500Y-31500500D01*
X38604815Y-31567539D01*
X38552011Y-31613294D01*
X38500500Y-31624500D01*
X37549435Y-31624500D01*
X37450565Y-31624500D01*
X37355062Y-31650090D01*
X37355060Y-31650091D01*
X37355059Y-31650091D01*
X37269436Y-31699526D01*
X37199526Y-31769436D01*
X37150091Y-31855059D01*
X37150091Y-31855060D01*
X37150090Y-31855062D01*
X37124500Y-31950565D01*
X37124500Y-31950567D01*
X37124500Y-32755219D01*
X37104815Y-32822258D01*
X37056795Y-32865704D01*
X36923211Y-32933768D01*
X36890761Y-32957345D01*
X36783072Y-33035586D01*
X36783070Y-33035588D01*
X36783069Y-33035588D01*
X36660588Y-33158069D01*
X36660588Y-33158070D01*
X36660586Y-33158072D01*
X36616859Y-33218256D01*
X36558768Y-33298211D01*
X36480128Y-33452552D01*
X36426597Y-33617302D01*
X36426185Y-33619905D01*
X36399500Y-33788389D01*
X36100500Y-33788389D01*
X36073402Y-33617299D01*
X36019873Y-33452555D01*
X35941232Y-33298212D01*
X35839414Y-33158072D01*
X35716928Y-33035586D01*
X35576788Y-32933768D01*
X35544766Y-32917452D01*
X35443205Y-32865704D01*
X35392409Y-32817729D01*
X35375500Y-32755219D01*
X35375500Y-18824499D01*
X35395185Y-18757460D01*
X35447989Y-18711705D01*
X35499500Y-18700499D01*
X35522871Y-18700499D01*
X35522872Y-18700499D01*
X35582483Y-18694091D01*
X35717331Y-18643796D01*
X35832546Y-18557546D01*
X35918796Y-18442331D01*
X35932285Y-18406166D01*
X35974157Y-18350233D01*
X36039621Y-18325816D01*
X36048467Y-18325500D01*
X36449432Y-18325500D01*
X36449435Y-18325500D01*
X36544938Y-18299910D01*
X36630562Y-18250475D01*
X36700475Y-18180562D01*
X36749910Y-18094938D01*
X36775500Y-17999435D01*
X36775500Y-13930115D01*
X36778515Y-13898942D01*
X36775500Y-13880878D01*
X36775500Y-13862565D01*
X36767393Y-13832309D01*
X36762237Y-13801419D01*
X36754650Y-13784752D01*
X36749910Y-13767062D01*
X36734248Y-13739935D01*
X36721274Y-13711434D01*
X36709632Y-13697299D01*
X36700475Y-13681438D01*
X36700473Y-13681436D01*
X36700472Y-13681434D01*
X36682560Y-13663523D01*
X36674524Y-13654673D01*
X36658416Y-13635115D01*
X36643510Y-13624473D01*
X36630562Y-13611525D01*
X36603443Y-13595868D01*
X36598572Y-13592390D01*
X36002449Y-13166801D01*
X35959325Y-13111827D01*
X35950499Y-13065881D01*
X35950499Y-12602129D01*
X35950498Y-12602123D01*
X35950497Y-12602116D01*
X35944091Y-12542517D01*
X35910848Y-12453389D01*
X35893797Y-12407671D01*
X35893793Y-12407664D01*
X35807547Y-12292455D01*
X35807544Y-12292452D01*
X35692335Y-12206206D01*
X35692328Y-12206202D01*
X35557482Y-12155908D01*
X35557483Y-12155908D01*
X35497883Y-12149501D01*
X35497881Y-12149500D01*
X35497873Y-12149500D01*
X35497864Y-12149500D01*
X34502129Y-12149500D01*
X34502123Y-12149501D01*
X34442516Y-12155908D01*
X34307671Y-12206202D01*
X34307664Y-12206206D01*
X34192455Y-12292452D01*
X34192452Y-12292455D01*
X34106206Y-12407664D01*
X34106202Y-12407671D01*
X34055910Y-12542513D01*
X34055909Y-12542517D01*
X34049500Y-12602127D01*
X34049500Y-12602134D01*
X34049500Y-12602135D01*
X34049500Y-13222870D01*
X34049501Y-13222876D01*
X34055908Y-13282483D01*
X34106202Y-13417328D01*
X34106206Y-13417335D01*
X34192452Y-13532544D01*
X34192455Y-13532547D01*
X34307664Y-13618793D01*
X34307671Y-13618797D01*
X34442517Y-13669091D01*
X34442516Y-13669091D01*
X34449444Y-13669835D01*
X34502127Y-13675500D01*
X35382762Y-13675499D01*
X35449801Y-13695183D01*
X35454811Y-13698579D01*
X35972549Y-14068205D01*
X36015673Y-14123178D01*
X36024500Y-14169125D01*
X36024500Y-15035565D01*
X36004815Y-15102604D01*
X35952011Y-15148359D01*
X35882853Y-15158303D01*
X35835405Y-15141104D01*
X35794133Y-15115648D01*
X35794119Y-15115641D01*
X35627697Y-15060494D01*
X35627690Y-15060493D01*
X35524986Y-15050000D01*
X35250000Y-15050000D01*
X35250000Y-15926000D01*
X35230315Y-15993039D01*
X35177511Y-16038794D01*
X35126000Y-16050000D01*
X35000000Y-16050000D01*
X35000000Y-16176000D01*
X34980315Y-16243039D01*
X34927511Y-16288794D01*
X34876000Y-16300000D01*
X31599500Y-16300000D01*
X31532461Y-16280315D01*
X31486706Y-16227511D01*
X31475500Y-16176000D01*
X31475500Y-15924000D01*
X31495185Y-15856961D01*
X31547989Y-15811206D01*
X31599500Y-15800000D01*
X32250000Y-15800000D01*
X32750000Y-15800000D01*
X34750000Y-15800000D01*
X34750000Y-15050000D01*
X34475029Y-15050000D01*
X34475012Y-15050001D01*
X34372302Y-15060494D01*
X34205880Y-15115641D01*
X34205875Y-15115643D01*
X34056654Y-15207684D01*
X33932683Y-15331655D01*
X33932680Y-15331659D01*
X33855538Y-15456726D01*
X33803590Y-15503451D01*
X33734628Y-15514672D01*
X33670546Y-15486829D01*
X33644462Y-15456726D01*
X33567319Y-15331659D01*
X33567316Y-15331655D01*
X33443345Y-15207684D01*
X33294124Y-15115643D01*
X33294119Y-15115641D01*
X33127697Y-15060494D01*
X33127690Y-15060493D01*
X33024986Y-15050000D01*
X32750000Y-15050000D01*
X32750000Y-15800000D01*
X32250000Y-15800000D01*
X32250000Y-15050000D01*
X31975029Y-15050000D01*
X31975012Y-15050001D01*
X31872302Y-15060494D01*
X31705880Y-15115641D01*
X31705866Y-15115648D01*
X31664595Y-15141104D01*
X31597203Y-15159544D01*
X31530540Y-15138621D01*
X31485771Y-15084978D01*
X31475500Y-15035565D01*
X31475500Y-14169126D01*
X31495185Y-14102087D01*
X31527450Y-14068206D01*
X31527452Y-14068205D01*
X32045186Y-13698579D01*
X32111185Y-13675647D01*
X32117236Y-13675499D01*
X32997871Y-13675499D01*
X32997872Y-13675499D01*
X33057483Y-13669091D01*
X33192331Y-13618796D01*
X33307546Y-13532546D01*
X33393796Y-13417331D01*
X33444091Y-13282483D01*
X33450500Y-13222873D01*
X33450499Y-12602128D01*
X33444091Y-12542517D01*
X33410848Y-12453389D01*
X33393797Y-12407671D01*
X33393793Y-12407664D01*
X33307547Y-12292455D01*
X33307544Y-12292452D01*
X33192335Y-12206206D01*
X33192328Y-12206202D01*
X33057482Y-12155908D01*
X33057483Y-12155908D01*
X32997883Y-12149501D01*
X32997881Y-12149500D01*
X32997873Y-12149500D01*
X32997864Y-12149500D01*
X32002129Y-12149500D01*
X32002123Y-12149501D01*
X31942516Y-12155908D01*
X31807671Y-12206202D01*
X31807664Y-12206206D01*
X31692455Y-12292452D01*
X31692452Y-12292455D01*
X31606206Y-12407664D01*
X31606202Y-12407671D01*
X31555908Y-12542517D01*
X31549501Y-12602116D01*
X31549501Y-12602123D01*
X31549500Y-12602135D01*
X31549500Y-13065881D01*
X31529815Y-13132920D01*
X31497550Y-13166801D01*
X31131910Y-13427841D01*
X31065910Y-13450773D01*
X30997990Y-13434383D01*
X30949713Y-13383875D01*
X30936407Y-13315284D01*
X30943681Y-13283579D01*
X30944091Y-13282483D01*
X30950500Y-13222873D01*
X30950499Y-12602128D01*
X30944091Y-12542517D01*
X30910848Y-12453389D01*
X30893797Y-12407671D01*
X30893793Y-12407664D01*
X30807547Y-12292455D01*
X30807544Y-12292452D01*
X30692335Y-12206206D01*
X30692328Y-12206202D01*
X30557482Y-12155908D01*
X30557483Y-12155908D01*
X30497883Y-12149501D01*
X30497881Y-12149500D01*
X30497873Y-12149500D01*
X30497864Y-12149500D01*
X29502129Y-12149500D01*
X29502123Y-12149501D01*
X29442516Y-12155908D01*
X29307671Y-12206202D01*
X29307664Y-12206206D01*
X29192455Y-12292452D01*
X29192452Y-12292455D01*
X29106206Y-12407664D01*
X29106202Y-12407671D01*
X29055908Y-12542517D01*
X29049501Y-12602116D01*
X29049501Y-12602123D01*
X29049500Y-12602135D01*
X29049500Y-13065881D01*
X29029815Y-13132920D01*
X28997550Y-13166801D01*
X28401425Y-13592391D01*
X28396551Y-13595870D01*
X28369438Y-13611525D01*
X28356492Y-13624469D01*
X28348131Y-13630439D01*
X28348132Y-13630439D01*
X28341584Y-13635114D01*
X28341580Y-13635118D01*
X28325472Y-13654673D01*
X28325473Y-13654674D01*
X28321666Y-13659295D01*
X28299525Y-13681438D01*
X28290372Y-13697290D01*
X28283837Y-13705225D01*
X28283838Y-13705225D01*
X28278729Y-13711428D01*
X28278723Y-13711437D01*
X28268225Y-13734498D01*
X28262760Y-13745114D01*
X28250089Y-13767061D01*
X28250089Y-13767063D01*
X28248008Y-13774824D01*
X28248009Y-13774825D01*
X28245349Y-13784752D01*
X28237763Y-13801419D01*
X28232606Y-13832308D01*
X28231059Y-13838082D01*
X28231057Y-13838083D01*
X28224501Y-13862558D01*
X28224500Y-13862567D01*
X28224500Y-13870601D01*
X28223744Y-13879714D01*
X28223884Y-13882947D01*
X28223478Y-13886998D01*
X28221485Y-13898942D01*
X17400500Y-13898942D01*
X17400500Y-13381565D01*
X17420185Y-13314526D01*
X17472989Y-13268771D01*
X17486323Y-13263588D01*
X25980394Y-10515284D01*
X26048620Y-10512962D01*
X28955562Y-11239335D01*
X29015828Y-11274683D01*
X29047417Y-11337004D01*
X29049500Y-11359632D01*
X29049500Y-11397868D01*
X29049501Y-11397876D01*
X29055908Y-11457483D01*
X29106202Y-11592328D01*
X29106206Y-11592335D01*
X29192452Y-11707544D01*
X29192455Y-11707547D01*
X29307664Y-11793793D01*
X29307671Y-11793797D01*
X29442517Y-11844091D01*
X29442516Y-11844091D01*
X29449444Y-11844835D01*
X29502127Y-11850500D01*
X30497872Y-11850499D01*
X30557483Y-11844091D01*
X30692331Y-11793796D01*
X30807546Y-11707546D01*
X30893796Y-11592331D01*
X30902621Y-11568668D01*
X30944492Y-11512734D01*
X31009956Y-11488316D01*
X31018804Y-11488000D01*
X31481196Y-11488000D01*
X31548235Y-11507685D01*
X31593990Y-11560489D01*
X31597379Y-11568669D01*
X31606203Y-11592330D01*
X31606206Y-11592335D01*
X31692452Y-11707544D01*
X31692455Y-11707547D01*
X31807664Y-11793793D01*
X31807671Y-11793797D01*
X31942517Y-11844091D01*
X31942516Y-11844091D01*
X31949444Y-11844835D01*
X32002127Y-11850500D01*
X32997872Y-11850499D01*
X33057483Y-11844091D01*
X33192331Y-11793796D01*
X33307546Y-11707546D01*
X33393796Y-11592331D01*
X33402621Y-11568668D01*
X33444492Y-11512734D01*
X33509956Y-11488316D01*
X33518804Y-11488000D01*
X33981196Y-11488000D01*
X34048235Y-11507685D01*
X34093990Y-11560489D01*
X34097379Y-11568669D01*
X34106203Y-11592330D01*
X34106206Y-11592335D01*
X34192452Y-11707544D01*
X34192455Y-11707547D01*
X34307664Y-11793793D01*
X34307671Y-11793797D01*
X34442517Y-11844091D01*
X34442516Y-11844091D01*
X34449444Y-11844835D01*
X34502127Y-11850500D01*
X35497872Y-11850499D01*
X35557483Y-11844091D01*
X35692331Y-11793796D01*
X35807546Y-11707546D01*
X35893796Y-11592331D01*
X35944091Y-11457483D01*
X35950500Y-11397873D01*
X35950499Y-10777128D01*
X35944091Y-10717517D01*
X35905672Y-10614511D01*
X35893797Y-10582671D01*
X35893793Y-10582664D01*
X35807547Y-10467455D01*
X35807544Y-10467452D01*
X35692335Y-10381206D01*
X35692328Y-10381202D01*
X35557482Y-10330908D01*
X35557483Y-10330908D01*
X35497883Y-10324501D01*
X35497881Y-10324500D01*
X35497873Y-10324500D01*
X35497864Y-10324500D01*
X34502129Y-10324500D01*
X34502123Y-10324501D01*
X34442516Y-10330908D01*
X34307671Y-10381202D01*
X34307664Y-10381206D01*
X34192455Y-10467452D01*
X34192452Y-10467455D01*
X34106206Y-10582664D01*
X34106203Y-10582669D01*
X34097379Y-10606331D01*
X34055508Y-10662266D01*
X33990044Y-10686684D01*
X33981196Y-10687000D01*
X33518804Y-10687000D01*
X33451765Y-10667315D01*
X33406010Y-10614511D01*
X33402621Y-10606331D01*
X33393796Y-10582669D01*
X33393793Y-10582664D01*
X33307547Y-10467455D01*
X33307544Y-10467452D01*
X33192335Y-10381206D01*
X33192328Y-10381202D01*
X33057482Y-10330908D01*
X33057483Y-10330908D01*
X32997883Y-10324501D01*
X32997881Y-10324500D01*
X32997873Y-10324500D01*
X32997864Y-10324500D01*
X32002129Y-10324500D01*
X32002123Y-10324501D01*
X31942516Y-10330908D01*
X31807671Y-10381202D01*
X31807664Y-10381206D01*
X31692455Y-10467452D01*
X31692452Y-10467455D01*
X31606206Y-10582664D01*
X31606203Y-10582669D01*
X31597379Y-10606331D01*
X31555508Y-10662266D01*
X31490044Y-10686684D01*
X31481196Y-10687000D01*
X31018804Y-10687000D01*
X30951765Y-10667315D01*
X30906010Y-10614511D01*
X30902621Y-10606331D01*
X30893796Y-10582669D01*
X30893793Y-10582664D01*
X30807547Y-10467455D01*
X30807544Y-10467452D01*
X30692335Y-10381206D01*
X30692328Y-10381202D01*
X30557482Y-10330908D01*
X30557483Y-10330908D01*
X30497883Y-10324501D01*
X30497881Y-10324500D01*
X30497873Y-10324500D01*
X30497864Y-10324500D01*
X29502129Y-10324500D01*
X29502123Y-10324501D01*
X29442516Y-10330908D01*
X29307671Y-10381202D01*
X29307668Y-10381204D01*
X29234185Y-10436214D01*
X29168721Y-10460631D01*
X29129814Y-10457248D01*
X26155249Y-9713978D01*
X26141497Y-9710541D01*
X26135313Y-9707381D01*
X26090476Y-9697792D01*
X26088408Y-9697276D01*
X26045937Y-9686663D01*
X26038981Y-9686780D01*
X26032190Y-9685329D01*
X25986439Y-9687669D01*
X25984273Y-9687706D01*
X25984268Y-9687707D01*
X25940501Y-9688449D01*
X25940498Y-9688450D01*
X25933813Y-9690362D01*
X25926875Y-9690718D01*
X25883274Y-9704824D01*
X25881189Y-9705421D01*
X25881189Y-9705422D01*
X25839116Y-9717464D01*
X25831667Y-9720698D01*
X25831397Y-9720077D01*
X25819680Y-9725400D01*
X16979080Y-12585825D01*
X16929547Y-12591326D01*
X13139414Y-12242634D01*
X13074460Y-12216890D01*
X13033735Y-12160116D01*
X13032859Y-12157522D01*
X13019873Y-12117555D01*
X12941232Y-11963212D01*
X12839414Y-11823072D01*
X12716928Y-11700586D01*
X12576788Y-11598768D01*
X12548756Y-11584485D01*
X12497960Y-11536510D01*
X12481165Y-11468689D01*
X12503703Y-11402554D01*
X12558418Y-11359103D01*
X12605051Y-11350000D01*
X12897828Y-11350000D01*
X12897844Y-11349999D01*
X12957372Y-11343598D01*
X12957379Y-11343596D01*
X13092086Y-11293354D01*
X13092093Y-11293350D01*
X13207187Y-11207190D01*
X13207190Y-11207187D01*
X13293350Y-11092093D01*
X13293354Y-11092086D01*
X13343596Y-10957379D01*
X13343598Y-10957372D01*
X13349999Y-10897844D01*
X13350000Y-10897827D01*
X13350000Y-10250000D01*
X12433012Y-10250000D01*
X12465925Y-10192993D01*
X12500000Y-10065826D01*
X12500000Y-9934174D01*
X12465925Y-9807007D01*
X12433012Y-9750000D01*
X13350000Y-9750000D01*
X13350000Y-9377127D01*
X42049500Y-9377127D01*
X42049500Y-9377134D01*
X42049500Y-9377135D01*
X42049500Y-9997870D01*
X42049501Y-9997876D01*
X42055908Y-10057483D01*
X42106202Y-10192328D01*
X42106206Y-10192335D01*
X42192452Y-10307544D01*
X42192455Y-10307547D01*
X42307664Y-10393793D01*
X42307671Y-10393797D01*
X42442517Y-10444091D01*
X42442516Y-10444091D01*
X42449444Y-10444835D01*
X42502127Y-10450500D01*
X43497872Y-10450499D01*
X43557483Y-10444091D01*
X43692331Y-10393796D01*
X43807546Y-10307546D01*
X43893796Y-10192331D01*
X43944091Y-10057483D01*
X43950500Y-9997873D01*
X43950499Y-9675134D01*
X43970183Y-9608096D01*
X44015600Y-9566016D01*
X44074775Y-9534075D01*
X44365541Y-9377127D01*
X51049500Y-9377127D01*
X51049500Y-9377134D01*
X51049500Y-9377135D01*
X51049500Y-9997870D01*
X51049501Y-9997876D01*
X51055908Y-10057483D01*
X51106202Y-10192328D01*
X51106206Y-10192335D01*
X51192452Y-10307544D01*
X51192455Y-10307547D01*
X51307664Y-10393793D01*
X51307671Y-10393797D01*
X51442517Y-10444091D01*
X51442516Y-10444091D01*
X51449444Y-10444835D01*
X51502127Y-10450500D01*
X52497872Y-10450499D01*
X52557483Y-10444091D01*
X52692331Y-10393796D01*
X52807546Y-10307546D01*
X52893796Y-10192331D01*
X52944091Y-10057483D01*
X52950500Y-9997873D01*
X52950499Y-9675134D01*
X52970183Y-9608096D01*
X53015600Y-9566016D01*
X53074775Y-9534075D01*
X53857354Y-9111659D01*
X53925697Y-9097139D01*
X53963706Y-9106219D01*
X54010253Y-9125500D01*
X54010254Y-9125500D01*
X54010256Y-9125501D01*
X54010260Y-9125501D01*
X54010261Y-9125502D01*
X54135928Y-9150500D01*
X54135931Y-9150500D01*
X54264071Y-9150500D01*
X54348615Y-9133682D01*
X54389744Y-9125501D01*
X54508127Y-9076465D01*
X54614669Y-9005276D01*
X54705276Y-8914669D01*
X54776465Y-8808127D01*
X54825501Y-8689744D01*
X54850500Y-8564069D01*
X54850500Y-8435931D01*
X54850500Y-8435928D01*
X54825502Y-8310261D01*
X54825501Y-8310257D01*
X54825501Y-8310256D01*
X54776465Y-8191873D01*
X54776464Y-8191872D01*
X54776461Y-8191866D01*
X54705276Y-8085331D01*
X54705273Y-8085327D01*
X54614672Y-7994726D01*
X54614668Y-7994723D01*
X54508133Y-7923538D01*
X54508124Y-7923533D01*
X54389744Y-7874499D01*
X54389738Y-7874497D01*
X54264071Y-7849500D01*
X54264069Y-7849500D01*
X54135931Y-7849500D01*
X54135929Y-7849500D01*
X54010261Y-7874497D01*
X54010255Y-7874499D01*
X53891875Y-7923533D01*
X53891866Y-7923538D01*
X53785331Y-7994723D01*
X53785327Y-7994726D01*
X53694726Y-8085327D01*
X53694723Y-8085331D01*
X53623538Y-8191866D01*
X53623533Y-8191875D01*
X53574498Y-8310257D01*
X53574498Y-8310258D01*
X53563447Y-8365810D01*
X53531060Y-8427720D01*
X53500729Y-8450735D01*
X52636108Y-8917434D01*
X52567764Y-8931955D01*
X52563955Y-8931605D01*
X52557483Y-8930909D01*
X52497873Y-8924500D01*
X52497865Y-8924500D01*
X51502129Y-8924500D01*
X51502123Y-8924501D01*
X51442516Y-8930908D01*
X51307671Y-8981202D01*
X51307664Y-8981206D01*
X51192455Y-9067452D01*
X51192452Y-9067455D01*
X51106206Y-9182664D01*
X51106202Y-9182671D01*
X51075613Y-9264687D01*
X51055909Y-9317517D01*
X51049500Y-9377127D01*
X44365541Y-9377127D01*
X44857354Y-9111659D01*
X44925697Y-9097139D01*
X44963706Y-9106219D01*
X45010253Y-9125500D01*
X45010254Y-9125500D01*
X45010256Y-9125501D01*
X45010260Y-9125501D01*
X45010261Y-9125502D01*
X45135928Y-9150500D01*
X45135931Y-9150500D01*
X45264071Y-9150500D01*
X45348615Y-9133682D01*
X45389744Y-9125501D01*
X45508127Y-9076465D01*
X45614669Y-9005276D01*
X45705276Y-8914669D01*
X45776465Y-8808127D01*
X45825501Y-8689744D01*
X45850500Y-8564069D01*
X45850500Y-8435931D01*
X45850500Y-8435928D01*
X45825502Y-8310261D01*
X45825501Y-8310257D01*
X45825501Y-8310256D01*
X45776465Y-8191873D01*
X45776464Y-8191872D01*
X45776461Y-8191866D01*
X45705276Y-8085331D01*
X45705273Y-8085327D01*
X45614672Y-7994726D01*
X45614668Y-7994723D01*
X45508133Y-7923538D01*
X45508124Y-7923533D01*
X45389744Y-7874499D01*
X45389738Y-7874497D01*
X45264071Y-7849500D01*
X45264069Y-7849500D01*
X45135931Y-7849500D01*
X45135929Y-7849500D01*
X45010261Y-7874497D01*
X45010255Y-7874499D01*
X44891875Y-7923533D01*
X44891866Y-7923538D01*
X44785331Y-7994723D01*
X44785327Y-7994726D01*
X44694726Y-8085327D01*
X44694723Y-8085331D01*
X44623538Y-8191866D01*
X44623533Y-8191875D01*
X44574498Y-8310257D01*
X44574498Y-8310258D01*
X44563447Y-8365810D01*
X44531060Y-8427720D01*
X44500729Y-8450735D01*
X43636108Y-8917434D01*
X43567764Y-8931955D01*
X43563955Y-8931605D01*
X43557483Y-8930909D01*
X43497873Y-8924500D01*
X43497865Y-8924500D01*
X42502129Y-8924500D01*
X42502123Y-8924501D01*
X42442516Y-8930908D01*
X42307671Y-8981202D01*
X42307664Y-8981206D01*
X42192455Y-9067452D01*
X42192452Y-9067455D01*
X42106206Y-9182664D01*
X42106202Y-9182671D01*
X42075613Y-9264687D01*
X42055909Y-9317517D01*
X42049500Y-9377127D01*
X13350000Y-9377127D01*
X13350000Y-9102172D01*
X13349999Y-9102155D01*
X13343598Y-9042627D01*
X13343596Y-9042620D01*
X13293354Y-8907913D01*
X13293350Y-8907906D01*
X13207190Y-8792812D01*
X13207187Y-8792809D01*
X13092093Y-8706649D01*
X13092086Y-8706645D01*
X12957379Y-8656403D01*
X12957372Y-8656401D01*
X12897844Y-8650000D01*
X12250000Y-8650000D01*
X12250000Y-9566988D01*
X12192993Y-9534075D01*
X12065826Y-9500000D01*
X11934174Y-9500000D01*
X11807007Y-9534075D01*
X11750000Y-9566988D01*
X11750000Y-8650000D01*
X11102155Y-8650000D01*
X11042627Y-8656401D01*
X11042620Y-8656403D01*
X10907913Y-8706645D01*
X10907906Y-8706649D01*
X10792812Y-8792809D01*
X10792809Y-8792812D01*
X10706649Y-8907906D01*
X10706645Y-8907913D01*
X10656403Y-9042620D01*
X10656401Y-9042627D01*
X10650000Y-9102155D01*
X600000Y-9102155D01*
X600000Y-3874038D01*
X2399500Y-3874038D01*
X2399500Y-4125961D01*
X2438910Y-4374785D01*
X2516760Y-4614383D01*
X2631132Y-4838848D01*
X2779201Y-5042649D01*
X2779205Y-5042654D01*
X2957345Y-5220794D01*
X2957350Y-5220798D01*
X3135117Y-5349952D01*
X3161155Y-5368870D01*
X3304184Y-5441747D01*
X3385616Y-5483239D01*
X3385618Y-5483239D01*
X3385621Y-5483241D01*
X3625215Y-5561090D01*
X3874038Y-5600500D01*
X3874039Y-5600500D01*
X4125961Y-5600500D01*
X4125962Y-5600500D01*
X4374785Y-5561090D01*
X4614379Y-5483241D01*
X4838845Y-5368870D01*
X5042656Y-5220793D01*
X5220793Y-5042656D01*
X5368870Y-4838845D01*
X5483241Y-4614379D01*
X5561090Y-4374785D01*
X5600500Y-4125962D01*
X5600500Y-3874038D01*
X58399500Y-3874038D01*
X58399500Y-4125961D01*
X58438910Y-4374785D01*
X58516760Y-4614383D01*
X58631132Y-4838848D01*
X58779201Y-5042649D01*
X58779205Y-5042654D01*
X58957345Y-5220794D01*
X58957350Y-5220798D01*
X59135117Y-5349952D01*
X59161155Y-5368870D01*
X59304184Y-5441747D01*
X59385616Y-5483239D01*
X59385618Y-5483239D01*
X59385621Y-5483241D01*
X59625215Y-5561090D01*
X59874038Y-5600500D01*
X59874039Y-5600500D01*
X60125961Y-5600500D01*
X60125962Y-5600500D01*
X60374785Y-5561090D01*
X60614379Y-5483241D01*
X60838845Y-5368870D01*
X61042656Y-5220793D01*
X61220793Y-5042656D01*
X61368870Y-4838845D01*
X61483241Y-4614379D01*
X61561090Y-4374785D01*
X61600500Y-4125962D01*
X61600500Y-3874038D01*
X61561090Y-3625215D01*
X61483241Y-3385621D01*
X61483239Y-3385618D01*
X61483239Y-3385616D01*
X61441747Y-3304184D01*
X61368870Y-3161155D01*
X61349952Y-3135117D01*
X61220798Y-2957350D01*
X61220794Y-2957345D01*
X61042654Y-2779205D01*
X61042649Y-2779201D01*
X60838848Y-2631132D01*
X60838847Y-2631131D01*
X60838845Y-2631130D01*
X60768747Y-2595413D01*
X60614383Y-2516760D01*
X60374785Y-2438910D01*
X60125962Y-2399500D01*
X59874038Y-2399500D01*
X59749626Y-2419205D01*
X59625214Y-2438910D01*
X59385616Y-2516760D01*
X59161151Y-2631132D01*
X58957350Y-2779201D01*
X58957345Y-2779205D01*
X58779205Y-2957345D01*
X58779201Y-2957350D01*
X58631132Y-3161151D01*
X58516760Y-3385616D01*
X58438910Y-3625214D01*
X58399500Y-3874038D01*
X5600500Y-3874038D01*
X5561090Y-3625215D01*
X5483241Y-3385621D01*
X5483239Y-3385618D01*
X5483239Y-3385616D01*
X5441747Y-3304184D01*
X5368870Y-3161155D01*
X5349952Y-3135117D01*
X5220798Y-2957350D01*
X5220794Y-2957345D01*
X5042654Y-2779205D01*
X5042649Y-2779201D01*
X4838848Y-2631132D01*
X4838847Y-2631131D01*
X4838845Y-2631130D01*
X4768747Y-2595413D01*
X4614383Y-2516760D01*
X4374785Y-2438910D01*
X4125962Y-2399500D01*
X3874038Y-2399500D01*
X3749626Y-2419205D01*
X3625214Y-2438910D01*
X3385616Y-2516760D01*
X3161151Y-2631132D01*
X2957350Y-2779201D01*
X2957345Y-2779205D01*
X2779205Y-2957345D01*
X2779201Y-2957350D01*
X2631132Y-3161151D01*
X2516760Y-3385616D01*
X2438910Y-3625214D01*
X2399500Y-3874038D01*
X600000Y-3874038D01*
X600000Y-724000D01*
X619685Y-656961D01*
X672489Y-611206D01*
X724000Y-600000D01*
X63276000Y-600000D01*
X63343039Y-619685D01*
G37*
%TD.AperFunction*%
%TD*%
D23*
X30000000Y-16050000D03*
X45200000Y-8500000D03*
X54200000Y-8500000D03*
X60000000Y-4000000D03*
X60000000Y-34000000D03*
X12000000Y-10000000D03*
X12000000Y-12540000D03*
X12000000Y-15080000D03*
X12000000Y-17620000D03*
X4000000Y-34000000D03*
X4000000Y-4000000D03*
X44000000Y-20000000D03*
X44000000Y-25000000D03*
X44000000Y-22500000D03*
D24*
X51500000Y-16900000D03*
X51500000Y-28100000D03*
D23*
X58500000Y-25000000D03*
X58500000Y-20000000D03*
X20000000Y-34000000D03*
X22500000Y-34000000D03*
X25000000Y-34000000D03*
X27500000Y-34000000D03*
X30000000Y-34000000D03*
X32500000Y-34000000D03*
X35000000Y-34000000D03*
X37500000Y-34000000D03*
X40000000Y-34000000D03*
M02*
