%TF.GenerationSoftware,KiCad,Pcbnew,9.0.7*%
%TF.CreationDate,2026-05-19T14:18:59-05:00*%
%TF.ProjectId,BoardB_UI,426f6172-6442-45f5-9549-2e6b69636164,rev?*%
%TF.SameCoordinates,Original*%
%TF.FileFunction,Copper,L1,Top*%
%TF.FilePolarity,Positive*%
%FSLAX46Y46*%
G04 Gerber Fmt 4.6, Leading zero omitted, Abs format (unit mm)*
G04 Created by KiCad (PCBNEW 9.0.7) date 2026-05-19 14:18:59*
%MOMM*%
%LPD*%
G01*
G04 APERTURE LIST*
G04 Aperture macros list*
%AMRoundRect*
0 Rectangle with rounded corners*
0 $1 Rounding radius*
0 $2 $3 $4 $5 $6 $7 $8 $9 X,Y pos of 4 corners*
0 Add a 4 corners polygon primitive as box body*
4,1,4,$2,$3,$4,$5,$6,$7,$8,$9,$2,$3,0*
0 Add four circle primitives for the rounded corners*
1,1,$1+$1,$2,$3*
1,1,$1+$1,$4,$5*
1,1,$1+$1,$6,$7*
1,1,$1+$1,$8,$9*
0 Add four rect primitives between the rounded corners*
20,1,$1+$1,$2,$3,$4,$5,0*
20,1,$1+$1,$4,$5,$6,$7,0*
20,1,$1+$1,$6,$7,$8,$9,0*
20,1,$1+$1,$8,$9,$2,$3,0*%
G04 Aperture macros list end*
%TA.AperFunction,SMDPad,CuDef*%
%ADD10RoundRect,0.243750X-0.243750X-0.456250X0.243750X-0.456250X0.243750X0.456250X-0.243750X0.456250X0*%
%TD*%
%TA.AperFunction,ComponentPad*%
%ADD11R,1.700000X1.700000*%
%TD*%
%TA.AperFunction,ComponentPad*%
%ADD12C,1.700000*%
%TD*%
%TA.AperFunction,ComponentPad*%
%ADD13R,2.000000X2.000000*%
%TD*%
%TA.AperFunction,ComponentPad*%
%ADD14C,2.000000*%
%TD*%
%TA.AperFunction,ComponentPad*%
%ADD15R,3.200000X2.000000*%
%TD*%
%TA.AperFunction,ComponentPad*%
%ADD16RoundRect,0.250000X-0.600000X-0.725000X0.600000X-0.725000X0.600000X0.725000X-0.600000X0.725000X0*%
%TD*%
%TA.AperFunction,ComponentPad*%
%ADD17O,1.700000X1.950000*%
%TD*%
%TA.AperFunction,ViaPad*%
%ADD18C,0.800000*%
%TD*%
%TA.AperFunction,Conductor*%
%ADD19C,0.250000*%
%TD*%
%ADD20C,0.350000*%
%ADD21O,2.800000X1.500000*%
G04 APERTURE END LIST*
D10*
%TO.P,D2,1*%
%TO.N,/GND*%
X51062500Y-7000000D03*
%TO.P,D2,2*%
%TO.N,/STAT_LED_A*%
X52937500Y-7000000D03*
%TD*%
%TO.P,D1,1*%
%TO.N,/GND*%
X42062500Y-7000000D03*
%TO.P,D1,2*%
%TO.N,/ERR_LED_A*%
X43937500Y-7000000D03*
%TD*%
D11*
%TO.P,J2,1*%
%TO.N,/GND*%
X12000000Y-10000000D03*
D12*
%TO.P,J2,2*%
%TO.N,/+3V3*%
X12000000Y-12540000D03*
%TO.P,J2,3*%
%TO.N,/SCL*%
X12000000Y-15080000D03*
%TO.P,J2,4*%
%TO.N,/SDA*%
X12000000Y-17620000D03*
%TD*%
D13*
%TO.P,SW1,A*%
%TO.N,/ENC_A*%
X44000000Y-20000000D03*
D14*
%TO.P,SW1,B*%
%TO.N,/ENC_B*%
X44000000Y-25000000D03*
%TO.P,SW1,C*%
%TO.N,/GND*%
X44000000Y-22500000D03*
D15*
%TO.P,SW1,MP*%
X51500000Y-16900000D03*
X51500000Y-28100000D03*
D14*
%TO.P,SW1,S1*%
%TO.N,/ENC_SW*%
X58500000Y-25000000D03*
%TO.P,SW1,S2*%
%TO.N,/GND*%
X58500000Y-20000000D03*
%TD*%
D16*
%TO.P,J1,1*%
%TO.N,/+3V3*%
X20000000Y-34000000D03*
D17*
%TO.P,J1,2*%
%TO.N,/GND*%
X22500000Y-34000000D03*
%TO.P,J1,3*%
%TO.N,/SDA*%
X25000000Y-34000000D03*
%TO.P,J1,4*%
%TO.N,/SCL*%
X27500000Y-34000000D03*
%TO.P,J1,5*%
%TO.N,/ENC_A*%
X30000000Y-34000000D03*
%TO.P,J1,6*%
%TO.N,/ENC_B*%
X32500000Y-34000000D03*
%TO.P,J1,7*%
%TO.N,/ENC_SW*%
X35000000Y-34000000D03*
%TO.P,J1,8*%
%TO.N,/ERROR_LED*%
X37500000Y-34000000D03*
%TO.P,J1,9*%
%TO.N,/STATUS_LED*%
X40000000Y-34000000D03*
%TD*%
D18*
%TO.N,/GND*%
X30000000Y-16050000D03*
%TO.N,/ERR_LED_A*%
X45200000Y-8500000D03*
%TO.N,/STAT_LED_A*%
X54200000Y-8500000D03*
%TD*%
D19*
%TO.N,/SDA*%
X25000000Y-34000000D02*
X22000000Y-30000000D01*
X22000000Y-30000000D02*
X15000000Y-17620000D01*
X15000000Y-17620000D02*
X12000000Y-17620000D01*
%TO.N,/SCL*%
X15000000Y-15080000D02*
X12000000Y-15080000D01*
X27500000Y-25000000D02*
X15000000Y-15080000D01*
X27500000Y-34000000D02*
X27500000Y-25000000D01*
%TO.N,/ENC_A*%
X30000000Y-34000000D02*
X30000000Y-20000000D01*
X30000000Y-20000000D02*
X44000000Y-20000000D01*
%TO.N,/ENC_B*%
X32500000Y-34000000D02*
X32500000Y-25000000D01*
X32500000Y-25000000D02*
X44000000Y-25000000D01*
%TO.N,/ENC_SW*%
X58500000Y-31500000D02*
X58500000Y-25000000D01*
X35000000Y-31500000D02*
X58500000Y-31500000D01*
X35000000Y-34000000D02*
X35000000Y-31500000D01*
%TO.N,/ERR_LED_A*%
X45200000Y-8500000D02*
X43937500Y-7000000D01*
%TO.N,/STAT_LED_A*%
X54200000Y-8500000D02*
X52937500Y-7000000D01*
%TD*%
%TA.AperFunction,Conductor*%
%TO.N,/GND*%
G36*
X63343039Y-619685D02*
G01*
X63388794Y-672489D01*
X63400000Y-724000D01*
X63400000Y-37276000D01*
X63380315Y-37343039D01*
X63327511Y-37388794D01*
X63276000Y-37400000D01*
X724000Y-37400000D01*
X656961Y-37380315D01*
X611206Y-37327511D01*
X600000Y-37276000D01*
X600000Y-33874038D01*
X2399500Y-33874038D01*
X2399500Y-34125962D01*
X2413066Y-34211611D01*
X2438910Y-34374785D01*
X2516760Y-34614383D01*
X2561296Y-34701788D01*
X2627926Y-34832557D01*
X2631132Y-34838848D01*
X2779201Y-35042649D01*
X2779205Y-35042654D01*
X2957345Y-35220794D01*
X2957350Y-35220798D01*
X3135117Y-35349952D01*
X3161155Y-35368870D01*
X3304184Y-35441747D01*
X3385616Y-35483239D01*
X3385618Y-35483239D01*
X3385621Y-35483241D01*
X3625215Y-35561090D01*
X3874038Y-35600500D01*
X3874039Y-35600500D01*
X4125961Y-35600500D01*
X4125962Y-35600500D01*
X4374785Y-35561090D01*
X4614379Y-35483241D01*
X4838845Y-35368870D01*
X5042656Y-35220793D01*
X5220793Y-35042656D01*
X5368870Y-34838845D01*
X5483241Y-34614379D01*
X5561090Y-34374785D01*
X5600500Y-34125962D01*
X5600500Y-33874038D01*
X5561090Y-33625215D01*
X5483241Y-33385621D01*
X5483239Y-33385618D01*
X5483239Y-33385616D01*
X5429476Y-33280101D01*
X5424802Y-33270927D01*
X5368870Y-33161155D01*
X5349952Y-33135117D01*
X5220798Y-32957350D01*
X5220794Y-32957345D01*
X5042654Y-32779205D01*
X5042649Y-32779201D01*
X4838848Y-32631132D01*
X4838847Y-32631131D01*
X4838845Y-32631130D01*
X4768747Y-32595413D01*
X4614383Y-32516760D01*
X4374785Y-32438910D01*
X4125962Y-32399500D01*
X3874038Y-32399500D01*
X3749626Y-32419205D01*
X3625214Y-32438910D01*
X3385616Y-32516760D01*
X3161151Y-32631132D01*
X2957350Y-32779201D01*
X2957345Y-32779205D01*
X2779205Y-32957345D01*
X2779201Y-32957350D01*
X2631132Y-33161151D01*
X2516760Y-33385616D01*
X2460954Y-33557370D01*
X2438910Y-33625215D01*
X2399500Y-33874038D01*
X600000Y-33874038D01*
X600000Y-17533389D01*
X10899500Y-17533389D01*
X10899500Y-17706611D01*
X10926598Y-17877701D01*
X10980127Y-18042445D01*
X11058768Y-18196788D01*
X11160586Y-18336928D01*
X11283072Y-18459414D01*
X11423212Y-18561232D01*
X11577555Y-18639873D01*
X11742299Y-18693402D01*
X11913389Y-18720500D01*
X11913390Y-18720500D01*
X12086610Y-18720500D01*
X12086611Y-18720500D01*
X12257701Y-18693402D01*
X12422445Y-18639873D01*
X12576788Y-18561232D01*
X12716928Y-18459414D01*
X12839414Y-18336928D01*
X12941232Y-18196788D01*
X13009295Y-18063206D01*
X13057269Y-18012409D01*
X13119780Y-17995500D01*
X14708613Y-17995500D01*
X14775652Y-18015185D01*
X14816552Y-18058467D01*
X15981100Y-20118052D01*
X21448261Y-29787119D01*
X21660832Y-30163065D01*
X21669939Y-30185752D01*
X21685060Y-30205912D01*
X21688999Y-30212879D01*
X21689000Y-30212881D01*
X21697463Y-30227850D01*
X21697466Y-30227854D01*
X21708813Y-30239407D01*
X21719545Y-30251894D01*
X23511984Y-32641812D01*
X23536460Y-32707254D01*
X23521670Y-32775541D01*
X23472309Y-32824991D01*
X23404050Y-32839904D01*
X23339899Y-32816530D01*
X23207557Y-32720379D01*
X23018215Y-32623903D01*
X22816124Y-32558241D01*
X22750000Y-32547768D01*
X22750000Y-33595854D01*
X22683343Y-33557370D01*
X22562535Y-33525000D01*
X22437465Y-33525000D01*
X22316657Y-33557370D01*
X22250000Y-33595854D01*
X22250000Y-32547768D01*
X22249999Y-32547768D01*
X22183875Y-32558241D01*
X21981784Y-32623903D01*
X21792442Y-32720379D01*
X21620540Y-32845272D01*
X21620535Y-32845276D01*
X21470276Y-32995535D01*
X21470272Y-32995540D01*
X21345377Y-33167444D01*
X21327087Y-33203339D01*
X21279112Y-33254133D01*
X21211290Y-33270927D01*
X21145156Y-33248388D01*
X21101706Y-33193672D01*
X21096976Y-33174807D01*
X21095876Y-33175068D01*
X21094092Y-33167520D01*
X21090567Y-33158070D01*
X21043796Y-33032669D01*
X21043795Y-33032668D01*
X21043793Y-33032664D01*
X20957547Y-32917455D01*
X20957544Y-32917452D01*
X20842335Y-32831206D01*
X20842328Y-32831202D01*
X20707482Y-32780908D01*
X20707483Y-32780908D01*
X20647883Y-32774501D01*
X20647881Y-32774500D01*
X20647873Y-32774500D01*
X20647864Y-32774500D01*
X19352129Y-32774500D01*
X19352123Y-32774501D01*
X19292516Y-32780908D01*
X19157671Y-32831202D01*
X19157664Y-32831206D01*
X19042455Y-32917452D01*
X19042452Y-32917455D01*
X18956206Y-33032664D01*
X18956202Y-33032671D01*
X18905908Y-33167517D01*
X18899501Y-33227116D01*
X18899500Y-33227135D01*
X18899500Y-34772870D01*
X18899501Y-34772876D01*
X18905908Y-34832483D01*
X18956202Y-34967328D01*
X18956206Y-34967335D01*
X19042452Y-35082544D01*
X19042455Y-35082547D01*
X19157664Y-35168793D01*
X19157671Y-35168797D01*
X19292517Y-35219091D01*
X19292516Y-35219091D01*
X19299444Y-35219835D01*
X19352127Y-35225500D01*
X20647872Y-35225499D01*
X20707483Y-35219091D01*
X20842331Y-35168796D01*
X20957546Y-35082546D01*
X21043796Y-34967331D01*
X21094091Y-34832483D01*
X21094091Y-34832481D01*
X21095874Y-34824938D01*
X21099117Y-34825704D01*
X21120035Y-34775172D01*
X21177419Y-34735311D01*
X21247243Y-34732802D01*
X21307340Y-34768441D01*
X21327089Y-34796662D01*
X21345379Y-34832557D01*
X21470272Y-35004459D01*
X21470276Y-35004464D01*
X21620535Y-35154723D01*
X21620540Y-35154727D01*
X21792442Y-35279620D01*
X21981782Y-35376095D01*
X22183871Y-35441757D01*
X22250000Y-35452231D01*
X22250000Y-34404145D01*
X22316657Y-34442630D01*
X22437465Y-34475000D01*
X22562535Y-34475000D01*
X22683343Y-34442630D01*
X22750000Y-34404145D01*
X22750000Y-35452230D01*
X22816126Y-35441757D01*
X22816129Y-35441757D01*
X23018217Y-35376095D01*
X23207557Y-35279620D01*
X23379459Y-35154727D01*
X23379464Y-35154723D01*
X23529723Y-35004464D01*
X23529727Y-35004459D01*
X23654620Y-34832557D01*
X23751094Y-34643219D01*
X23766768Y-34594978D01*
X23806205Y-34537302D01*
X23870563Y-34510103D01*
X23939409Y-34522016D01*
X23990886Y-34569259D01*
X23995185Y-34576999D01*
X24058768Y-34701788D01*
X24160586Y-34841928D01*
X24283072Y-34964414D01*
X24423212Y-35066232D01*
X24577555Y-35144873D01*
X24742299Y-35198402D01*
X24913389Y-35225500D01*
X24913390Y-35225500D01*
X25086610Y-35225500D01*
X25086611Y-35225500D01*
X25257701Y-35198402D01*
X25422445Y-35144873D01*
X25576788Y-35066232D01*
X25716928Y-34964414D01*
X25839414Y-34841928D01*
X25941232Y-34701788D01*
X26019873Y-34547445D01*
X26073402Y-34382701D01*
X26100500Y-34211611D01*
X26100500Y-33788389D01*
X26073402Y-33617299D01*
X26019873Y-33452555D01*
X25941232Y-33298212D01*
X25839414Y-33158072D01*
X25716928Y-33035586D01*
X25576788Y-32933768D01*
X25422445Y-32855127D01*
X25257701Y-32801598D01*
X25257699Y-32801597D01*
X25257698Y-32801597D01*
X25116292Y-32779201D01*
X25086611Y-32774500D01*
X24913389Y-32774500D01*
X24883708Y-32779201D01*
X24742295Y-32801598D01*
X24688541Y-32819064D01*
X24618700Y-32821059D01*
X24558868Y-32784978D01*
X24551024Y-32775533D01*
X24550249Y-32774500D01*
X22319740Y-29800487D01*
X22311000Y-29787119D01*
X22201577Y-29593596D01*
X15350354Y-17476719D01*
X15349910Y-17475062D01*
X15326030Y-17433701D01*
X15302535Y-17392148D01*
X15302534Y-17392147D01*
X15302481Y-17392053D01*
X15301833Y-17391208D01*
X15301828Y-17391201D01*
X15300477Y-17389441D01*
X15300475Y-17389438D01*
X15267108Y-17356071D01*
X15266418Y-17355375D01*
X15233253Y-17321609D01*
X15233252Y-17321608D01*
X15233249Y-17321605D01*
X15231505Y-17320242D01*
X15230658Y-17319580D01*
X15189756Y-17295966D01*
X15188792Y-17295404D01*
X15148076Y-17271406D01*
X15145944Y-17270501D01*
X15145942Y-17270499D01*
X15145048Y-17270119D01*
X15099347Y-17257874D01*
X15099347Y-17257873D01*
X15098732Y-17257708D01*
X15052808Y-17244959D01*
X15051090Y-17244943D01*
X15049435Y-17244500D01*
X15049428Y-17244500D01*
X15002262Y-17244500D01*
X15001148Y-17244495D01*
X14950423Y-17244039D01*
X14942874Y-17244500D01*
X13119780Y-17244500D01*
X13052741Y-17224815D01*
X13009295Y-17176794D01*
X12941233Y-17043213D01*
X12890851Y-16973869D01*
X12839414Y-16903072D01*
X12716928Y-16780586D01*
X12576788Y-16678768D01*
X12422445Y-16600127D01*
X12257701Y-16546598D01*
X12257699Y-16546597D01*
X12257698Y-16546597D01*
X12126271Y-16525781D01*
X12086611Y-16519500D01*
X11913389Y-16519500D01*
X11873728Y-16525781D01*
X11742302Y-16546597D01*
X11577552Y-16600128D01*
X11423211Y-16678768D01*
X11343256Y-16736859D01*
X11283072Y-16780586D01*
X11283070Y-16780588D01*
X11283069Y-16780588D01*
X11160588Y-16903069D01*
X11160588Y-16903070D01*
X11160586Y-16903072D01*
X11116859Y-16963256D01*
X11058768Y-17043211D01*
X10980128Y-17197552D01*
X10926597Y-17362302D01*
X10907550Y-17482563D01*
X10899500Y-17533389D01*
X600000Y-17533389D01*
X600000Y-14993389D01*
X10899500Y-14993389D01*
X10899500Y-15166611D01*
X10926598Y-15337701D01*
X10980127Y-15502445D01*
X11058768Y-15656788D01*
X11160586Y-15796928D01*
X11283072Y-15919414D01*
X11423212Y-16021232D01*
X11577555Y-16099873D01*
X11742299Y-16153402D01*
X11913389Y-16180500D01*
X11913390Y-16180500D01*
X12086610Y-16180500D01*
X12086611Y-16180500D01*
X12257701Y-16153402D01*
X12422445Y-16099873D01*
X12576788Y-16021232D01*
X12716928Y-15919414D01*
X12839414Y-15796928D01*
X12941232Y-15656788D01*
X13009295Y-15523206D01*
X13057269Y-15472409D01*
X13119780Y-15455500D01*
X14825882Y-15455500D01*
X14892921Y-15475185D01*
X14902965Y-15482370D01*
X18094516Y-18015185D01*
X27077584Y-25144147D01*
X27117859Y-25201239D01*
X27124500Y-25241276D01*
X27124500Y-32755219D01*
X27104815Y-32822258D01*
X27056795Y-32865704D01*
X26923211Y-32933768D01*
X26890761Y-32957345D01*
X26783072Y-33035586D01*
X26783070Y-33035588D01*
X26783069Y-33035588D01*
X26660588Y-33158069D01*
X26660588Y-33158070D01*
X26660586Y-33158072D01*
X26616859Y-33218256D01*
X26558768Y-33298211D01*
X26480128Y-33452552D01*
X26426597Y-33617302D01*
X26426185Y-33619905D01*
X26399500Y-33788389D01*
X26399500Y-34211611D01*
X26426598Y-34382701D01*
X26480127Y-34547445D01*
X26558768Y-34701788D01*
X26660586Y-34841928D01*
X26783072Y-34964414D01*
X26923212Y-35066232D01*
X27077555Y-35144873D01*
X27242299Y-35198402D01*
X27413389Y-35225500D01*
X27413390Y-35225500D01*
X27586610Y-35225500D01*
X27586611Y-35225500D01*
X27757701Y-35198402D01*
X27922445Y-35144873D01*
X28076788Y-35066232D01*
X28216928Y-34964414D01*
X28339414Y-34841928D01*
X28441232Y-34701788D01*
X28519873Y-34547445D01*
X28573402Y-34382701D01*
X28600500Y-34211611D01*
X28600500Y-33788389D01*
X28899500Y-33788389D01*
X28899500Y-34211611D01*
X28926598Y-34382701D01*
X28980127Y-34547445D01*
X29058768Y-34701788D01*
X29160586Y-34841928D01*
X29283072Y-34964414D01*
X29423212Y-35066232D01*
X29577555Y-35144873D01*
X29742299Y-35198402D01*
X29913389Y-35225500D01*
X29913390Y-35225500D01*
X30086610Y-35225500D01*
X30086611Y-35225500D01*
X30257701Y-35198402D01*
X30422445Y-35144873D01*
X30576788Y-35066232D01*
X30716928Y-34964414D01*
X30839414Y-34841928D01*
X30941232Y-34701788D01*
X31019873Y-34547445D01*
X31073402Y-34382701D01*
X31100500Y-34211611D01*
X31100500Y-33788389D01*
X31073402Y-33617299D01*
X31019873Y-33452555D01*
X30941232Y-33298212D01*
X30839414Y-33158072D01*
X30716928Y-33035586D01*
X30576788Y-32933768D01*
X30544766Y-32917452D01*
X30443205Y-32865704D01*
X30392409Y-32817729D01*
X30375500Y-32755219D01*
X30375500Y-20499500D01*
X30395185Y-20432461D01*
X30447989Y-20386706D01*
X30499500Y-20375500D01*
X42625500Y-20375500D01*
X42692539Y-20395185D01*
X42738294Y-20447989D01*
X42749500Y-20499500D01*
X42749500Y-21024678D01*
X42764032Y-21097735D01*
X42764033Y-21097739D01*
X42769892Y-21106507D01*
X42819399Y-21180601D01*
X42882343Y-21222658D01*
X42902260Y-21235966D01*
X42902264Y-21235967D01*
X42975321Y-21250499D01*
X42975324Y-21250500D01*
X43052692Y-21250500D01*
X43119731Y-21270185D01*
X43140373Y-21286819D01*
X43870591Y-22017037D01*
X43807007Y-22034075D01*
X43692993Y-22099901D01*
X43599901Y-22192993D01*
X43534075Y-22307007D01*
X43517037Y-22370591D01*
X42777340Y-21630894D01*
X42717084Y-21713830D01*
X42609897Y-21924197D01*
X42536934Y-22148752D01*
X42500000Y-22381947D01*
X42500000Y-22618052D01*
X42536934Y-22851247D01*
X42609897Y-23075802D01*
X42717087Y-23286174D01*
X42777338Y-23369104D01*
X42777340Y-23369105D01*
X43517037Y-22629408D01*
X43534075Y-22692993D01*
X43599901Y-22807007D01*
X43692993Y-22900099D01*
X43807007Y-22965925D01*
X43870590Y-22982962D01*
X43130893Y-23722658D01*
X43213824Y-23782911D01*
X43213832Y-23782916D01*
X43229777Y-23791041D01*
X43280572Y-23839016D01*
X43297367Y-23906837D01*
X43274829Y-23972971D01*
X43246368Y-24001842D01*
X43185354Y-24046171D01*
X43046174Y-24185351D01*
X43046174Y-24185352D01*
X43046172Y-24185354D01*
X42996485Y-24253741D01*
X42930476Y-24344594D01*
X42841116Y-24519974D01*
X42834993Y-24538819D01*
X42795555Y-24596494D01*
X42731196Y-24623692D01*
X42717062Y-24624500D01*
X32549435Y-24624500D01*
X32450565Y-24624500D01*
X32355062Y-24650090D01*
X32355060Y-24650091D01*
X32355059Y-24650091D01*
X32269436Y-24699526D01*
X32199526Y-24769436D01*
X32150091Y-24855059D01*
X32150091Y-24855060D01*
X32150090Y-24855062D01*
X32124500Y-24950565D01*
X32124500Y-24950567D01*
X32124500Y-32755219D01*
X32104815Y-32822258D01*
X32056795Y-32865704D01*
X31923211Y-32933768D01*
X31890761Y-32957345D01*
X31783072Y-33035586D01*
X31783070Y-33035588D01*
X31783069Y-33035588D01*
X31660588Y-33158069D01*
X31660588Y-33158070D01*
X31660586Y-33158072D01*
X31616859Y-33218256D01*
X31558768Y-33298211D01*
X31480128Y-33452552D01*
X31426597Y-33617302D01*
X31426185Y-33619905D01*
X31399500Y-33788389D01*
X31399500Y-34211611D01*
X31426598Y-34382701D01*
X31480127Y-34547445D01*
X31558768Y-34701788D01*
X31660586Y-34841928D01*
X31783072Y-34964414D01*
X31923212Y-35066232D01*
X32077555Y-35144873D01*
X32242299Y-35198402D01*
X32413389Y-35225500D01*
X32413390Y-35225500D01*
X32586610Y-35225500D01*
X32586611Y-35225500D01*
X32757701Y-35198402D01*
X32922445Y-35144873D01*
X33076788Y-35066232D01*
X33216928Y-34964414D01*
X33339414Y-34841928D01*
X33441232Y-34701788D01*
X33519873Y-34547445D01*
X33573402Y-34382701D01*
X33600500Y-34211611D01*
X33600500Y-33788389D01*
X33899500Y-33788389D01*
X33899500Y-34211611D01*
X33926598Y-34382701D01*
X33980127Y-34547445D01*
X34058768Y-34701788D01*
X34160586Y-34841928D01*
X34283072Y-34964414D01*
X34423212Y-35066232D01*
X34577555Y-35144873D01*
X34742299Y-35198402D01*
X34913389Y-35225500D01*
X34913390Y-35225500D01*
X35086610Y-35225500D01*
X35086611Y-35225500D01*
X35257701Y-35198402D01*
X35422445Y-35144873D01*
X35576788Y-35066232D01*
X35716928Y-34964414D01*
X35839414Y-34841928D01*
X35941232Y-34701788D01*
X36019873Y-34547445D01*
X36073402Y-34382701D01*
X36100500Y-34211611D01*
X36100500Y-33788389D01*
X36399500Y-33788389D01*
X36399500Y-34211611D01*
X36426598Y-34382701D01*
X36480127Y-34547445D01*
X36558768Y-34701788D01*
X36660586Y-34841928D01*
X36783072Y-34964414D01*
X36923212Y-35066232D01*
X37077555Y-35144873D01*
X37242299Y-35198402D01*
X37413389Y-35225500D01*
X37413390Y-35225500D01*
X37586610Y-35225500D01*
X37586611Y-35225500D01*
X37757701Y-35198402D01*
X37922445Y-35144873D01*
X38076788Y-35066232D01*
X38216928Y-34964414D01*
X38339414Y-34841928D01*
X38441232Y-34701788D01*
X38519873Y-34547445D01*
X38573402Y-34382701D01*
X38600500Y-34211611D01*
X38600500Y-33788389D01*
X38899500Y-33788389D01*
X38899500Y-34211611D01*
X38926598Y-34382701D01*
X38980127Y-34547445D01*
X39058768Y-34701788D01*
X39160586Y-34841928D01*
X39283072Y-34964414D01*
X39423212Y-35066232D01*
X39577555Y-35144873D01*
X39742299Y-35198402D01*
X39913389Y-35225500D01*
X39913390Y-35225500D01*
X40086610Y-35225500D01*
X40086611Y-35225500D01*
X40257701Y-35198402D01*
X40422445Y-35144873D01*
X40576788Y-35066232D01*
X40716928Y-34964414D01*
X40839414Y-34841928D01*
X40941232Y-34701788D01*
X41019873Y-34547445D01*
X41073402Y-34382701D01*
X41100500Y-34211611D01*
X41100500Y-33874038D01*
X58399500Y-33874038D01*
X58399500Y-34125962D01*
X58413066Y-34211611D01*
X58438910Y-34374785D01*
X58516760Y-34614383D01*
X58561296Y-34701788D01*
X58627926Y-34832557D01*
X58631132Y-34838848D01*
X58779201Y-35042649D01*
X58779205Y-35042654D01*
X58957345Y-35220794D01*
X58957350Y-35220798D01*
X59135117Y-35349952D01*
X59161155Y-35368870D01*
X59304184Y-35441747D01*
X59385616Y-35483239D01*
X59385618Y-35483239D01*
X59385621Y-35483241D01*
X59625215Y-35561090D01*
X59874038Y-35600500D01*
X59874039Y-35600500D01*
X60125961Y-35600500D01*
X60125962Y-35600500D01*
X60374785Y-35561090D01*
X60614379Y-35483241D01*
X60838845Y-35368870D01*
X61042656Y-35220793D01*
X61220793Y-35042656D01*
X61368870Y-34838845D01*
X61483241Y-34614379D01*
X61561090Y-34374785D01*
X61600500Y-34125962D01*
X61600500Y-33874038D01*
X61561090Y-33625215D01*
X61483241Y-33385621D01*
X61483239Y-33385618D01*
X61483239Y-33385616D01*
X61429476Y-33280101D01*
X61368870Y-33161155D01*
X61349952Y-33135117D01*
X61220798Y-32957350D01*
X61220794Y-32957345D01*
X61042654Y-32779205D01*
X61042649Y-32779201D01*
X60838848Y-32631132D01*
X60838847Y-32631131D01*
X60838845Y-32631130D01*
X60768747Y-32595413D01*
X60614383Y-32516760D01*
X60374785Y-32438910D01*
X60125962Y-32399500D01*
X59874038Y-32399500D01*
X59749626Y-32419205D01*
X59625214Y-32438910D01*
X59385616Y-32516760D01*
X59161151Y-32631132D01*
X58957350Y-32779201D01*
X58957345Y-32779205D01*
X58779205Y-32957345D01*
X58779201Y-32957350D01*
X58631132Y-33161151D01*
X58516760Y-33385616D01*
X58460954Y-33557370D01*
X58438910Y-33625215D01*
X58399500Y-33874038D01*
X41100500Y-33874038D01*
X41100500Y-33788389D01*
X41073402Y-33617299D01*
X41019873Y-33452555D01*
X40941232Y-33298212D01*
X40839414Y-33158072D01*
X40716928Y-33035586D01*
X40576788Y-32933768D01*
X40422445Y-32855127D01*
X40257701Y-32801598D01*
X40257699Y-32801597D01*
X40257698Y-32801597D01*
X40116292Y-32779201D01*
X40086611Y-32774500D01*
X39913389Y-32774500D01*
X39883708Y-32779201D01*
X39742302Y-32801597D01*
X39577552Y-32855128D01*
X39423211Y-32933768D01*
X39390761Y-32957345D01*
X39283072Y-33035586D01*
X39283070Y-33035588D01*
X39283069Y-33035588D01*
X39160588Y-33158069D01*
X39160588Y-33158070D01*
X39160586Y-33158072D01*
X39116859Y-33218256D01*
X39058768Y-33298211D01*
X38980128Y-33452552D01*
X38926597Y-33617302D01*
X38926185Y-33619905D01*
X38899500Y-33788389D01*
X38600500Y-33788389D01*
X38573402Y-33617299D01*
X38519873Y-33452555D01*
X38441232Y-33298212D01*
X38339414Y-33158072D01*
X38216928Y-33035586D01*
X38076788Y-32933768D01*
X37922445Y-32855127D01*
X37757701Y-32801598D01*
X37757699Y-32801597D01*
X37757698Y-32801597D01*
X37616292Y-32779201D01*
X37586611Y-32774500D01*
X37413389Y-32774500D01*
X37383708Y-32779201D01*
X37242302Y-32801597D01*
X37077552Y-32855128D01*
X36923211Y-32933768D01*
X36890761Y-32957345D01*
X36783072Y-33035586D01*
X36783070Y-33035588D01*
X36783069Y-33035588D01*
X36660588Y-33158069D01*
X36660588Y-33158070D01*
X36660586Y-33158072D01*
X36616859Y-33218256D01*
X36558768Y-33298211D01*
X36480128Y-33452552D01*
X36426597Y-33617302D01*
X36426185Y-33619905D01*
X36399500Y-33788389D01*
X36100500Y-33788389D01*
X36073402Y-33617299D01*
X36019873Y-33452555D01*
X35941232Y-33298212D01*
X35839414Y-33158072D01*
X35716928Y-33035586D01*
X35576788Y-32933768D01*
X35544766Y-32917452D01*
X35443205Y-32865704D01*
X35392409Y-32817729D01*
X35375500Y-32755219D01*
X35375500Y-31999500D01*
X35395185Y-31932461D01*
X35447989Y-31886706D01*
X35499500Y-31875500D01*
X58549432Y-31875500D01*
X58549435Y-31875500D01*
X58644938Y-31849910D01*
X58730562Y-31800475D01*
X58800475Y-31730562D01*
X58849910Y-31644938D01*
X58875500Y-31549435D01*
X58875500Y-26282937D01*
X58895185Y-26215898D01*
X58947989Y-26170143D01*
X58961186Y-26165005D01*
X58980025Y-26158884D01*
X59155405Y-26069524D01*
X59314646Y-25953828D01*
X59453828Y-25814646D01*
X59569524Y-25655405D01*
X59658884Y-25480025D01*
X59719709Y-25292826D01*
X59734215Y-25201239D01*
X59750500Y-25098422D01*
X59750500Y-24901577D01*
X59719709Y-24707173D01*
X59658882Y-24519970D01*
X59569523Y-24344594D01*
X59453828Y-24185354D01*
X59314646Y-24046172D01*
X59155405Y-23930476D01*
X59109011Y-23906837D01*
X58980029Y-23841117D01*
X58792826Y-23780290D01*
X58598422Y-23749500D01*
X58598417Y-23749500D01*
X58401583Y-23749500D01*
X58401578Y-23749500D01*
X58207173Y-23780290D01*
X58019970Y-23841117D01*
X57844594Y-23930476D01*
X57786106Y-23972971D01*
X57685354Y-24046172D01*
X57685352Y-24046174D01*
X57685351Y-24046174D01*
X57546174Y-24185351D01*
X57546174Y-24185352D01*
X57546172Y-24185354D01*
X57496485Y-24253741D01*
X57430476Y-24344594D01*
X57341117Y-24519970D01*
X57280290Y-24707173D01*
X57249500Y-24901577D01*
X57249500Y-25098422D01*
X57280290Y-25292826D01*
X57341117Y-25480029D01*
X57430476Y-25655405D01*
X57546172Y-25814646D01*
X57685354Y-25953828D01*
X57844595Y-26069524D01*
X58019975Y-26158884D01*
X58038814Y-26165005D01*
X58096491Y-26204440D01*
X58123691Y-26268798D01*
X58124500Y-26282937D01*
X58124500Y-31000500D01*
X58104815Y-31067539D01*
X58052011Y-31113294D01*
X58000500Y-31124500D01*
X35049435Y-31124500D01*
X34950565Y-31124500D01*
X34855062Y-31150090D01*
X34855060Y-31150091D01*
X34855059Y-31150091D01*
X34769436Y-31199526D01*
X34699526Y-31269436D01*
X34650091Y-31355059D01*
X34650091Y-31355060D01*
X34650090Y-31355062D01*
X34624500Y-31450565D01*
X34624500Y-31450567D01*
X34624500Y-32755219D01*
X34604815Y-32822258D01*
X34556795Y-32865704D01*
X34423211Y-32933768D01*
X34390761Y-32957345D01*
X34283072Y-33035586D01*
X34283070Y-33035588D01*
X34283069Y-33035588D01*
X34160588Y-33158069D01*
X34160588Y-33158070D01*
X34160586Y-33158072D01*
X34116859Y-33218256D01*
X34058768Y-33298211D01*
X33980128Y-33452552D01*
X33926597Y-33617302D01*
X33926185Y-33619905D01*
X33899500Y-33788389D01*
X33600500Y-33788389D01*
X33573402Y-33617299D01*
X33519873Y-33452555D01*
X33441232Y-33298212D01*
X33339414Y-33158072D01*
X33216928Y-33035586D01*
X33076788Y-32933768D01*
X33044766Y-32917452D01*
X32943205Y-32865704D01*
X32892409Y-32817729D01*
X32875500Y-32755219D01*
X32875500Y-27052155D01*
X49400000Y-27052155D01*
X49400000Y-27850000D01*
X50141759Y-27850000D01*
X50128822Y-27881233D01*
X50100000Y-28026131D01*
X50100000Y-28173869D01*
X50128822Y-28318767D01*
X50141759Y-28350000D01*
X49400000Y-28350000D01*
X49400000Y-29147844D01*
X49406401Y-29207372D01*
X49406403Y-29207379D01*
X49456645Y-29342086D01*
X49456649Y-29342093D01*
X49542809Y-29457187D01*
X49542812Y-29457190D01*
X49657906Y-29543350D01*
X49657913Y-29543354D01*
X49792620Y-29593596D01*
X49792627Y-29593598D01*
X49852155Y-29599999D01*
X49852172Y-29600000D01*
X51250000Y-29600000D01*
X51250000Y-28850000D01*
X51750000Y-28850000D01*
X51750000Y-29600000D01*
X53147828Y-29600000D01*
X53147844Y-29599999D01*
X53207372Y-29593598D01*
X53207379Y-29593596D01*
X53342086Y-29543354D01*
X53342093Y-29543350D01*
X53457187Y-29457190D01*
X53457190Y-29457187D01*
X53543350Y-29342093D01*
X53543354Y-29342086D01*
X53593596Y-29207379D01*
X53593598Y-29207372D01*
X53599999Y-29147844D01*
X53600000Y-29147827D01*
X53600000Y-28350000D01*
X52858241Y-28350000D01*
X52871178Y-28318767D01*
X52900000Y-28173869D01*
X52900000Y-28026131D01*
X52871178Y-27881233D01*
X52858241Y-27850000D01*
X53600000Y-27850000D01*
X53600000Y-27052172D01*
X53599999Y-27052155D01*
X53593598Y-26992627D01*
X53593596Y-26992620D01*
X53543354Y-26857913D01*
X53543350Y-26857906D01*
X53457190Y-26742812D01*
X53457187Y-26742809D01*
X53342093Y-26656649D01*
X53342086Y-26656645D01*
X53207379Y-26606403D01*
X53207372Y-26606401D01*
X53147844Y-26600000D01*
X51750000Y-26600000D01*
X51750000Y-27350000D01*
X51250000Y-27350000D01*
X51250000Y-26600000D01*
X49852155Y-26600000D01*
X49792627Y-26606401D01*
X49792620Y-26606403D01*
X49657913Y-26656645D01*
X49657906Y-26656649D01*
X49542812Y-26742809D01*
X49542809Y-26742812D01*
X49456649Y-26857906D01*
X49456645Y-26857913D01*
X49406403Y-26992620D01*
X49406401Y-26992627D01*
X49400000Y-27052155D01*
X32875500Y-27052155D01*
X32875500Y-25499500D01*
X32895185Y-25432461D01*
X32947989Y-25386706D01*
X32999500Y-25375500D01*
X42717062Y-25375500D01*
X42784101Y-25395185D01*
X42829856Y-25447989D01*
X42834993Y-25461181D01*
X42841116Y-25480025D01*
X42930476Y-25655405D01*
X43046172Y-25814646D01*
X43185354Y-25953828D01*
X43344595Y-26069524D01*
X43427455Y-26111743D01*
X43519970Y-26158882D01*
X43519972Y-26158882D01*
X43519975Y-26158884D01*
X43620317Y-26191487D01*
X43707173Y-26219709D01*
X43901578Y-26250500D01*
X43901583Y-26250500D01*
X44098422Y-26250500D01*
X44292826Y-26219709D01*
X44304555Y-26215898D01*
X44480025Y-26158884D01*
X44655405Y-26069524D01*
X44814646Y-25953828D01*
X44953828Y-25814646D01*
X45069524Y-25655405D01*
X45158884Y-25480025D01*
X45219709Y-25292826D01*
X45234215Y-25201239D01*
X45250500Y-25098422D01*
X45250500Y-24901577D01*
X45219709Y-24707173D01*
X45158882Y-24519970D01*
X45069523Y-24344594D01*
X44953828Y-24185354D01*
X44814646Y-24046172D01*
X44753631Y-24001841D01*
X44710967Y-23946513D01*
X44704988Y-23876899D01*
X44737594Y-23815104D01*
X44770224Y-23791040D01*
X44786167Y-23782916D01*
X44786174Y-23782912D01*
X44869104Y-23722658D01*
X44869105Y-23722658D01*
X44129408Y-22982962D01*
X44192993Y-22965925D01*
X44307007Y-22900099D01*
X44400099Y-22807007D01*
X44465925Y-22692993D01*
X44482962Y-22629409D01*
X45222658Y-23369105D01*
X45222658Y-23369104D01*
X45282914Y-23286169D01*
X45282918Y-23286163D01*
X45390102Y-23075802D01*
X45463065Y-22851247D01*
X45500000Y-22618052D01*
X45500000Y-22381947D01*
X45463065Y-22148752D01*
X45390102Y-21924197D01*
X45282914Y-21713828D01*
X45222658Y-21630894D01*
X45222658Y-21630893D01*
X44482962Y-22370590D01*
X44465925Y-22307007D01*
X44400099Y-22192993D01*
X44307007Y-22099901D01*
X44192993Y-22034075D01*
X44129409Y-22017037D01*
X44859627Y-21286819D01*
X44920950Y-21253334D01*
X44947308Y-21250500D01*
X45024676Y-21250500D01*
X45024677Y-21250499D01*
X45097740Y-21235966D01*
X45180601Y-21180601D01*
X45235966Y-21097740D01*
X45250500Y-21024674D01*
X45250500Y-19881947D01*
X57000000Y-19881947D01*
X57000000Y-20118052D01*
X57036934Y-20351247D01*
X57109897Y-20575802D01*
X57217087Y-20786174D01*
X57277338Y-20869104D01*
X57277340Y-20869105D01*
X58017037Y-20129408D01*
X58034075Y-20192993D01*
X58099901Y-20307007D01*
X58192993Y-20400099D01*
X58307007Y-20465925D01*
X58370590Y-20482962D01*
X57630893Y-21222658D01*
X57713828Y-21282914D01*
X57924197Y-21390102D01*
X58148752Y-21463065D01*
X58148751Y-21463065D01*
X58381948Y-21500000D01*
X58618052Y-21500000D01*
X58851247Y-21463065D01*
X59075802Y-21390102D01*
X59286163Y-21282918D01*
X59286169Y-21282914D01*
X59369104Y-21222658D01*
X59369105Y-21222658D01*
X58629408Y-20482962D01*
X58692993Y-20465925D01*
X58807007Y-20400099D01*
X58900099Y-20307007D01*
X58965925Y-20192993D01*
X58982962Y-20129409D01*
X59722658Y-20869105D01*
X59722658Y-20869104D01*
X59782914Y-20786169D01*
X59782918Y-20786163D01*
X59890102Y-20575802D01*
X59963065Y-20351247D01*
X60000000Y-20118052D01*
X60000000Y-19881947D01*
X59963065Y-19648752D01*
X59890102Y-19424197D01*
X59782914Y-19213828D01*
X59722658Y-19130894D01*
X59722658Y-19130893D01*
X58982962Y-19870590D01*
X58965925Y-19807007D01*
X58900099Y-19692993D01*
X58807007Y-19599901D01*
X58692993Y-19534075D01*
X58629409Y-19517037D01*
X59369105Y-18777340D01*
X59369104Y-18777338D01*
X59286174Y-18717087D01*
X59075802Y-18609897D01*
X58851247Y-18536934D01*
X58851248Y-18536934D01*
X58618052Y-18500000D01*
X58381948Y-18500000D01*
X58148752Y-18536934D01*
X57924197Y-18609897D01*
X57713830Y-18717084D01*
X57630894Y-18777340D01*
X58370591Y-19517037D01*
X58307007Y-19534075D01*
X58192993Y-19599901D01*
X58099901Y-19692993D01*
X58034075Y-19807007D01*
X58017037Y-19870591D01*
X57277340Y-19130894D01*
X57217084Y-19213830D01*
X57109897Y-19424197D01*
X57036934Y-19648752D01*
X57000000Y-19881947D01*
X45250500Y-19881947D01*
X45250500Y-18975326D01*
X45250500Y-18975323D01*
X45250499Y-18975321D01*
X45235967Y-18902264D01*
X45235966Y-18902262D01*
X45235966Y-18902260D01*
X45180601Y-18819399D01*
X45097740Y-18764034D01*
X45097739Y-18764033D01*
X45097735Y-18764032D01*
X45024677Y-18749500D01*
X45024674Y-18749500D01*
X42975326Y-18749500D01*
X42975323Y-18749500D01*
X42902264Y-18764032D01*
X42902260Y-18764033D01*
X42819399Y-18819399D01*
X42764033Y-18902260D01*
X42764032Y-18902264D01*
X42749500Y-18975321D01*
X42749500Y-19500500D01*
X42729815Y-19567539D01*
X42677011Y-19613294D01*
X42625500Y-19624500D01*
X30049435Y-19624500D01*
X29950565Y-19624500D01*
X29855062Y-19650090D01*
X29855060Y-19650091D01*
X29855059Y-19650091D01*
X29769436Y-19699526D01*
X29699526Y-19769436D01*
X29650091Y-19855059D01*
X29650091Y-19855060D01*
X29650090Y-19855062D01*
X29624500Y-19950565D01*
X29624500Y-19950567D01*
X29624500Y-32755219D01*
X29604815Y-32822258D01*
X29556795Y-32865704D01*
X29423211Y-32933768D01*
X29390761Y-32957345D01*
X29283072Y-33035586D01*
X29283070Y-33035588D01*
X29283069Y-33035588D01*
X29160588Y-33158069D01*
X29160588Y-33158070D01*
X29160586Y-33158072D01*
X29116859Y-33218256D01*
X29058768Y-33298211D01*
X28980128Y-33452552D01*
X28926597Y-33617302D01*
X28926185Y-33619905D01*
X28899500Y-33788389D01*
X28600500Y-33788389D01*
X28573402Y-33617299D01*
X28519873Y-33452555D01*
X28441232Y-33298212D01*
X28339414Y-33158072D01*
X28216928Y-33035586D01*
X28076788Y-32933768D01*
X28044766Y-32917452D01*
X27943205Y-32865704D01*
X27892409Y-32817729D01*
X27875500Y-32755219D01*
X27875500Y-25027688D01*
X27878689Y-25006184D01*
X27875500Y-24978471D01*
X27875500Y-24950565D01*
X27869871Y-24929559D01*
X27867386Y-24907960D01*
X27857131Y-24882012D01*
X27849910Y-24855062D01*
X27849908Y-24855058D01*
X27843612Y-24844153D01*
X27843611Y-24844153D01*
X27839038Y-24836232D01*
X27831047Y-24816011D01*
X27814425Y-24793601D01*
X27800475Y-24769438D01*
X27800473Y-24769436D01*
X27800472Y-24769434D01*
X27791571Y-24760534D01*
X27779653Y-24746719D01*
X27772146Y-24736598D01*
X27755857Y-24723671D01*
X27750289Y-24719252D01*
X27730562Y-24699525D01*
X27711732Y-24688653D01*
X27595604Y-24596494D01*
X18270093Y-17195768D01*
X16695261Y-15945981D01*
X16577033Y-15852155D01*
X49400000Y-15852155D01*
X49400000Y-16650000D01*
X50141759Y-16650000D01*
X50128822Y-16681233D01*
X50100000Y-16826131D01*
X50100000Y-16973869D01*
X50128822Y-17118767D01*
X50141759Y-17150000D01*
X49400000Y-17150000D01*
X49400000Y-17947844D01*
X49406401Y-18007372D01*
X49406403Y-18007379D01*
X49456645Y-18142086D01*
X49456649Y-18142093D01*
X49542809Y-18257187D01*
X49542812Y-18257190D01*
X49657906Y-18343350D01*
X49657913Y-18343354D01*
X49792620Y-18393596D01*
X49792627Y-18393598D01*
X49852155Y-18399999D01*
X49852172Y-18400000D01*
X51250000Y-18400000D01*
X51250000Y-17650000D01*
X51750000Y-17650000D01*
X51750000Y-18400000D01*
X53147828Y-18400000D01*
X53147844Y-18399999D01*
X53207372Y-18393598D01*
X53207379Y-18393596D01*
X53342086Y-18343354D01*
X53342093Y-18343350D01*
X53457187Y-18257190D01*
X53457190Y-18257187D01*
X53543350Y-18142093D01*
X53543354Y-18142086D01*
X53593596Y-18007379D01*
X53593598Y-18007372D01*
X53599999Y-17947844D01*
X53600000Y-17947827D01*
X53600000Y-17150000D01*
X52858241Y-17150000D01*
X52871178Y-17118767D01*
X52900000Y-16973869D01*
X52900000Y-16826131D01*
X52871178Y-16681233D01*
X52858241Y-16650000D01*
X53600000Y-16650000D01*
X53600000Y-15852172D01*
X53599999Y-15852155D01*
X53593598Y-15792627D01*
X53593596Y-15792620D01*
X53543354Y-15657913D01*
X53543350Y-15657906D01*
X53457190Y-15542812D01*
X53457187Y-15542809D01*
X53342093Y-15456649D01*
X53342086Y-15456645D01*
X53207379Y-15406403D01*
X53207372Y-15406401D01*
X53147844Y-15400000D01*
X51750000Y-15400000D01*
X51750000Y-16150000D01*
X51250000Y-16150000D01*
X51250000Y-15400000D01*
X49852155Y-15400000D01*
X49792627Y-15406401D01*
X49792620Y-15406403D01*
X49657913Y-15456645D01*
X49657906Y-15456649D01*
X49542812Y-15542809D01*
X49542809Y-15542812D01*
X49456649Y-15657906D01*
X49456645Y-15657913D01*
X49406403Y-15792620D01*
X49406401Y-15792627D01*
X49400000Y-15852155D01*
X16577033Y-15852155D01*
X15255854Y-14803668D01*
X15250287Y-14799250D01*
X15230562Y-14779525D01*
X15211735Y-14768655D01*
X15194701Y-14755137D01*
X15194700Y-14755136D01*
X15194694Y-14755133D01*
X15175621Y-14746864D01*
X15175621Y-14746865D01*
X15169094Y-14744036D01*
X15144938Y-14730090D01*
X15123937Y-14724462D01*
X15115546Y-14720825D01*
X15103984Y-14715813D01*
X15083419Y-14712763D01*
X15076382Y-14711720D01*
X15049435Y-14704500D01*
X15027694Y-14704500D01*
X15018646Y-14703158D01*
X15018645Y-14703158D01*
X15016222Y-14702798D01*
X15006188Y-14701310D01*
X15006181Y-14701310D01*
X14985529Y-14703687D01*
X14971353Y-14704500D01*
X13119780Y-14704500D01*
X13052741Y-14684815D01*
X13009295Y-14636794D01*
X12941233Y-14503213D01*
X12925937Y-14482160D01*
X12839414Y-14363072D01*
X12716928Y-14240586D01*
X12576788Y-14138768D01*
X12422445Y-14060127D01*
X12257701Y-14006598D01*
X12257699Y-14006597D01*
X12257698Y-14006597D01*
X12126271Y-13985781D01*
X12086611Y-13979500D01*
X11913389Y-13979500D01*
X11873728Y-13985781D01*
X11742302Y-14006597D01*
X11577552Y-14060128D01*
X11423211Y-14138768D01*
X11343256Y-14196859D01*
X11283072Y-14240586D01*
X11283070Y-14240588D01*
X11283069Y-14240588D01*
X11160588Y-14363069D01*
X11160588Y-14363070D01*
X11160586Y-14363072D01*
X11116859Y-14423256D01*
X11058768Y-14503211D01*
X10980128Y-14657552D01*
X10926597Y-14822302D01*
X10899500Y-14993389D01*
X600000Y-14993389D01*
X600000Y-9102155D01*
X10650000Y-9102155D01*
X10650000Y-9750000D01*
X11566988Y-9750000D01*
X11534075Y-9807007D01*
X11500000Y-9934174D01*
X11500000Y-10065826D01*
X11534075Y-10192993D01*
X11566988Y-10250000D01*
X10650000Y-10250000D01*
X10650000Y-10897844D01*
X10656401Y-10957372D01*
X10656403Y-10957379D01*
X10706645Y-11092086D01*
X10706649Y-11092093D01*
X10792809Y-11207187D01*
X10792812Y-11207190D01*
X10907906Y-11293350D01*
X10907913Y-11293354D01*
X11042620Y-11343596D01*
X11042627Y-11343598D01*
X11102155Y-11349999D01*
X11102172Y-11350000D01*
X11394949Y-11350000D01*
X11461988Y-11369685D01*
X11507743Y-11422489D01*
X11517687Y-11491647D01*
X11488662Y-11555203D01*
X11451244Y-11584485D01*
X11423211Y-11598768D01*
X11343256Y-11656859D01*
X11283072Y-11700586D01*
X11283070Y-11700588D01*
X11283069Y-11700588D01*
X11160588Y-11823069D01*
X11160588Y-11823070D01*
X11160586Y-11823072D01*
X11116859Y-11883256D01*
X11058768Y-11963211D01*
X10980128Y-12117552D01*
X10926597Y-12282302D01*
X10899500Y-12453389D01*
X10899500Y-12626611D01*
X10926598Y-12797701D01*
X10980127Y-12962445D01*
X11058768Y-13116788D01*
X11160586Y-13256928D01*
X11283072Y-13379414D01*
X11423212Y-13481232D01*
X11577555Y-13559873D01*
X11742299Y-13613402D01*
X11913389Y-13640500D01*
X11913390Y-13640500D01*
X12086610Y-13640500D01*
X12086611Y-13640500D01*
X12257701Y-13613402D01*
X12422445Y-13559873D01*
X12576788Y-13481232D01*
X12716928Y-13379414D01*
X12839414Y-13256928D01*
X12941232Y-13116788D01*
X13019873Y-12962445D01*
X13073402Y-12797701D01*
X13100500Y-12626611D01*
X13100500Y-12453389D01*
X13073402Y-12282299D01*
X13019873Y-12117555D01*
X12941232Y-11963212D01*
X12839414Y-11823072D01*
X12716928Y-11700586D01*
X12576788Y-11598768D01*
X12548756Y-11584485D01*
X12497960Y-11536510D01*
X12481165Y-11468689D01*
X12503703Y-11402554D01*
X12558418Y-11359103D01*
X12605051Y-11350000D01*
X12897828Y-11350000D01*
X12897844Y-11349999D01*
X12957372Y-11343598D01*
X12957379Y-11343596D01*
X13092086Y-11293354D01*
X13092093Y-11293350D01*
X13207187Y-11207190D01*
X13207190Y-11207187D01*
X13293350Y-11092093D01*
X13293354Y-11092086D01*
X13343596Y-10957379D01*
X13343598Y-10957372D01*
X13349999Y-10897844D01*
X13350000Y-10897827D01*
X13350000Y-10250000D01*
X12433012Y-10250000D01*
X12465925Y-10192993D01*
X12500000Y-10065826D01*
X12500000Y-9934174D01*
X12465925Y-9807007D01*
X12433012Y-9750000D01*
X13350000Y-9750000D01*
X13350000Y-9102172D01*
X13349999Y-9102155D01*
X13343598Y-9042627D01*
X13343596Y-9042620D01*
X13293354Y-8907913D01*
X13293350Y-8907906D01*
X13207190Y-8792812D01*
X13207187Y-8792809D01*
X13092093Y-8706649D01*
X13092086Y-8706645D01*
X12957379Y-8656403D01*
X12957372Y-8656401D01*
X12897844Y-8650000D01*
X12250000Y-8650000D01*
X12250000Y-9566988D01*
X12192993Y-9534075D01*
X12065826Y-9500000D01*
X11934174Y-9500000D01*
X11807007Y-9534075D01*
X11750000Y-9566988D01*
X11750000Y-8650000D01*
X11102155Y-8650000D01*
X11042627Y-8656401D01*
X11042620Y-8656403D01*
X10907913Y-8706645D01*
X10907906Y-8706649D01*
X10792812Y-8792809D01*
X10792809Y-8792812D01*
X10706649Y-8907906D01*
X10706645Y-8907913D01*
X10656403Y-9042620D01*
X10656401Y-9042627D01*
X10650000Y-9102155D01*
X600000Y-9102155D01*
X600000Y-7505815D01*
X41075000Y-7505815D01*
X41085407Y-7607673D01*
X41140094Y-7772709D01*
X41140096Y-7772714D01*
X41231370Y-7920691D01*
X41354308Y-8043629D01*
X41502285Y-8134903D01*
X41502290Y-8134905D01*
X41667326Y-8189592D01*
X41769184Y-8199999D01*
X41769197Y-8200000D01*
X41812500Y-8200000D01*
X42312500Y-8200000D01*
X42355803Y-8200000D01*
X42355815Y-8199999D01*
X42457673Y-8189592D01*
X42622709Y-8134905D01*
X42622714Y-8134903D01*
X42770691Y-8043629D01*
X42893629Y-7920691D01*
X42984903Y-7772714D01*
X42984905Y-7772709D01*
X43014952Y-7682034D01*
X43054724Y-7624589D01*
X43119240Y-7597766D01*
X43188016Y-7610081D01*
X43239216Y-7657624D01*
X43248839Y-7677704D01*
X43255496Y-7695553D01*
X43255497Y-7695554D01*
X43340669Y-7809331D01*
X43454446Y-7894503D01*
X43587609Y-7944171D01*
X43646479Y-7950500D01*
X44188994Y-7950499D01*
X44256033Y-7970183D01*
X44283863Y-7994651D01*
X44531345Y-8288689D01*
X44559455Y-8352654D01*
X44558093Y-8392728D01*
X44549500Y-8435926D01*
X44549500Y-8435931D01*
X44549500Y-8564069D01*
X44549500Y-8564071D01*
X44549499Y-8564071D01*
X44574497Y-8689738D01*
X44574499Y-8689744D01*
X44623533Y-8808124D01*
X44623538Y-8808133D01*
X44694723Y-8914668D01*
X44694726Y-8914672D01*
X44785327Y-9005273D01*
X44785331Y-9005276D01*
X44891866Y-9076461D01*
X44891872Y-9076464D01*
X44891873Y-9076465D01*
X45010256Y-9125501D01*
X45010260Y-9125501D01*
X45010261Y-9125502D01*
X45135928Y-9150500D01*
X45135931Y-9150500D01*
X45264071Y-9150500D01*
X45348615Y-9133682D01*
X45389744Y-9125501D01*
X45508127Y-9076465D01*
X45614669Y-9005276D01*
X45705276Y-8914669D01*
X45776465Y-8808127D01*
X45825501Y-8689744D01*
X45850500Y-8564069D01*
X45850500Y-8435931D01*
X45850500Y-8435928D01*
X45825502Y-8310261D01*
X45825501Y-8310260D01*
X45825501Y-8310256D01*
X45776465Y-8191873D01*
X45776464Y-8191872D01*
X45776461Y-8191866D01*
X45705276Y-8085331D01*
X45705273Y-8085327D01*
X45614672Y-7994726D01*
X45614668Y-7994723D01*
X45508133Y-7923538D01*
X45508124Y-7923533D01*
X45389744Y-7874499D01*
X45389738Y-7874497D01*
X45264071Y-7849500D01*
X45264069Y-7849500D01*
X45201005Y-7849500D01*
X45133966Y-7829815D01*
X45106136Y-7805349D01*
X44854028Y-7505815D01*
X50075000Y-7505815D01*
X50085407Y-7607673D01*
X50140094Y-7772709D01*
X50140096Y-7772714D01*
X50231370Y-7920691D01*
X50354308Y-8043629D01*
X50502285Y-8134903D01*
X50502290Y-8134905D01*
X50667326Y-8189592D01*
X50769184Y-8199999D01*
X50769197Y-8200000D01*
X50812500Y-8200000D01*
X51312500Y-8200000D01*
X51355803Y-8200000D01*
X51355815Y-8199999D01*
X51457673Y-8189592D01*
X51622709Y-8134905D01*
X51622714Y-8134903D01*
X51770691Y-8043629D01*
X51893629Y-7920691D01*
X51984903Y-7772714D01*
X51984905Y-7772709D01*
X52014952Y-7682034D01*
X52054724Y-7624589D01*
X52119240Y-7597766D01*
X52188016Y-7610081D01*
X52239216Y-7657624D01*
X52248839Y-7677704D01*
X52255496Y-7695553D01*
X52255497Y-7695554D01*
X52340669Y-7809331D01*
X52454446Y-7894503D01*
X52587609Y-7944171D01*
X52646479Y-7950500D01*
X53188994Y-7950499D01*
X53256033Y-7970183D01*
X53283863Y-7994651D01*
X53531345Y-8288689D01*
X53559455Y-8352654D01*
X53558093Y-8392728D01*
X53549500Y-8435926D01*
X53549500Y-8435931D01*
X53549500Y-8564069D01*
X53549500Y-8564071D01*
X53549499Y-8564071D01*
X53574497Y-8689738D01*
X53574499Y-8689744D01*
X53623533Y-8808124D01*
X53623538Y-8808133D01*
X53694723Y-8914668D01*
X53694726Y-8914672D01*
X53785327Y-9005273D01*
X53785331Y-9005276D01*
X53891866Y-9076461D01*
X53891872Y-9076464D01*
X53891873Y-9076465D01*
X54010256Y-9125501D01*
X54010260Y-9125501D01*
X54010261Y-9125502D01*
X54135928Y-9150500D01*
X54135931Y-9150500D01*
X54264071Y-9150500D01*
X54348615Y-9133682D01*
X54389744Y-9125501D01*
X54508127Y-9076465D01*
X54614669Y-9005276D01*
X54705276Y-8914669D01*
X54776465Y-8808127D01*
X54825501Y-8689744D01*
X54850500Y-8564069D01*
X54850500Y-8435931D01*
X54850500Y-8435928D01*
X54825502Y-8310261D01*
X54825501Y-8310260D01*
X54825501Y-8310256D01*
X54776465Y-8191873D01*
X54776464Y-8191872D01*
X54776461Y-8191866D01*
X54705276Y-8085331D01*
X54705273Y-8085327D01*
X54614672Y-7994726D01*
X54614668Y-7994723D01*
X54508133Y-7923538D01*
X54508124Y-7923533D01*
X54389744Y-7874499D01*
X54389738Y-7874497D01*
X54264071Y-7849500D01*
X54264069Y-7849500D01*
X54201005Y-7849500D01*
X54133966Y-7829815D01*
X54106136Y-7805349D01*
X53704630Y-7328313D01*
X53676520Y-7264347D01*
X53675499Y-7248464D01*
X53675499Y-6496482D01*
X53675499Y-6496479D01*
X53669171Y-6437609D01*
X53619503Y-6304446D01*
X53534331Y-6190669D01*
X53465962Y-6139489D01*
X53420556Y-6105498D01*
X53420554Y-6105497D01*
X53287391Y-6055829D01*
X53287389Y-6055828D01*
X53287387Y-6055828D01*
X53228529Y-6049500D01*
X52646482Y-6049500D01*
X52646473Y-6049501D01*
X52587608Y-6055828D01*
X52454445Y-6105497D01*
X52340669Y-6190669D01*
X52255497Y-6304444D01*
X52248839Y-6322297D01*
X52206967Y-6378230D01*
X52141502Y-6402645D01*
X52073229Y-6387792D01*
X52023825Y-6338386D01*
X52014952Y-6317965D01*
X51984905Y-6227290D01*
X51984903Y-6227285D01*
X51893629Y-6079308D01*
X51770691Y-5956370D01*
X51622714Y-5865096D01*
X51622709Y-5865094D01*
X51457673Y-5810407D01*
X51355815Y-5800000D01*
X51312500Y-5800000D01*
X51312500Y-8200000D01*
X50812500Y-8200000D01*
X50812500Y-7250000D01*
X50075000Y-7250000D01*
X50075000Y-7505815D01*
X44854028Y-7505815D01*
X44704630Y-7328313D01*
X44694344Y-7304906D01*
X44680522Y-7283399D01*
X44678396Y-7268617D01*
X44676520Y-7264347D01*
X44675499Y-7248464D01*
X44675499Y-6496480D01*
X44675499Y-6496479D01*
X44675252Y-6494184D01*
X50075000Y-6494184D01*
X50075000Y-6750000D01*
X50812500Y-6750000D01*
X50812500Y-5800000D01*
X50769184Y-5800000D01*
X50667326Y-5810407D01*
X50502290Y-5865094D01*
X50502285Y-5865096D01*
X50354308Y-5956370D01*
X50231370Y-6079308D01*
X50140096Y-6227285D01*
X50140094Y-6227290D01*
X50085407Y-6392326D01*
X50075000Y-6494184D01*
X44675252Y-6494184D01*
X44669171Y-6437609D01*
X44619503Y-6304446D01*
X44534331Y-6190669D01*
X44465962Y-6139489D01*
X44420556Y-6105498D01*
X44420554Y-6105497D01*
X44287391Y-6055829D01*
X44287389Y-6055828D01*
X44287387Y-6055828D01*
X44228529Y-6049500D01*
X43646482Y-6049500D01*
X43646473Y-6049501D01*
X43587608Y-6055828D01*
X43454445Y-6105497D01*
X43340669Y-6190669D01*
X43255497Y-6304444D01*
X43248839Y-6322297D01*
X43206967Y-6378230D01*
X43141502Y-6402645D01*
X43073229Y-6387792D01*
X43023825Y-6338386D01*
X43014952Y-6317965D01*
X42984905Y-6227290D01*
X42984903Y-6227285D01*
X42893629Y-6079308D01*
X42770691Y-5956370D01*
X42622714Y-5865096D01*
X42622709Y-5865094D01*
X42457673Y-5810407D01*
X42355815Y-5800000D01*
X42312500Y-5800000D01*
X42312500Y-8200000D01*
X41812500Y-8200000D01*
X41812500Y-7250000D01*
X41075000Y-7250000D01*
X41075000Y-7505815D01*
X600000Y-7505815D01*
X600000Y-6494184D01*
X41075000Y-6494184D01*
X41075000Y-6750000D01*
X41812500Y-6750000D01*
X41812500Y-5800000D01*
X41769184Y-5800000D01*
X41667326Y-5810407D01*
X41502290Y-5865094D01*
X41502285Y-5865096D01*
X41354308Y-5956370D01*
X41231370Y-6079308D01*
X41140096Y-6227285D01*
X41140094Y-6227290D01*
X41085407Y-6392326D01*
X41075000Y-6494184D01*
X600000Y-6494184D01*
X600000Y-3874038D01*
X2399500Y-3874038D01*
X2399500Y-4125961D01*
X2438910Y-4374785D01*
X2516760Y-4614383D01*
X2631132Y-4838848D01*
X2779201Y-5042649D01*
X2779205Y-5042654D01*
X2957345Y-5220794D01*
X2957350Y-5220798D01*
X3135117Y-5349952D01*
X3161155Y-5368870D01*
X3304184Y-5441747D01*
X3385616Y-5483239D01*
X3385618Y-5483239D01*
X3385621Y-5483241D01*
X3625215Y-5561090D01*
X3874038Y-5600500D01*
X3874039Y-5600500D01*
X4125961Y-5600500D01*
X4125962Y-5600500D01*
X4374785Y-5561090D01*
X4614379Y-5483241D01*
X4838845Y-5368870D01*
X5042656Y-5220793D01*
X5220793Y-5042656D01*
X5368870Y-4838845D01*
X5483241Y-4614379D01*
X5561090Y-4374785D01*
X5600500Y-4125962D01*
X5600500Y-3874038D01*
X58399500Y-3874038D01*
X58399500Y-4125961D01*
X58438910Y-4374785D01*
X58516760Y-4614383D01*
X58631132Y-4838848D01*
X58779201Y-5042649D01*
X58779205Y-5042654D01*
X58957345Y-5220794D01*
X58957350Y-5220798D01*
X59135117Y-5349952D01*
X59161155Y-5368870D01*
X59304184Y-5441747D01*
X59385616Y-5483239D01*
X59385618Y-5483239D01*
X59385621Y-5483241D01*
X59625215Y-5561090D01*
X59874038Y-5600500D01*
X59874039Y-5600500D01*
X60125961Y-5600500D01*
X60125962Y-5600500D01*
X60374785Y-5561090D01*
X60614379Y-5483241D01*
X60838845Y-5368870D01*
X61042656Y-5220793D01*
X61220793Y-5042656D01*
X61368870Y-4838845D01*
X61483241Y-4614379D01*
X61561090Y-4374785D01*
X61600500Y-4125962D01*
X61600500Y-3874038D01*
X61561090Y-3625215D01*
X61483241Y-3385621D01*
X61483239Y-3385618D01*
X61483239Y-3385616D01*
X61441747Y-3304184D01*
X61368870Y-3161155D01*
X61349952Y-3135117D01*
X61220798Y-2957350D01*
X61220794Y-2957345D01*
X61042654Y-2779205D01*
X61042649Y-2779201D01*
X60838848Y-2631132D01*
X60838847Y-2631131D01*
X60838845Y-2631130D01*
X60768747Y-2595413D01*
X60614383Y-2516760D01*
X60374785Y-2438910D01*
X60125962Y-2399500D01*
X59874038Y-2399500D01*
X59749626Y-2419205D01*
X59625214Y-2438910D01*
X59385616Y-2516760D01*
X59161151Y-2631132D01*
X58957350Y-2779201D01*
X58957345Y-2779205D01*
X58779205Y-2957345D01*
X58779201Y-2957350D01*
X58631132Y-3161151D01*
X58516760Y-3385616D01*
X58438910Y-3625214D01*
X58399500Y-3874038D01*
X5600500Y-3874038D01*
X5561090Y-3625215D01*
X5483241Y-3385621D01*
X5483239Y-3385618D01*
X5483239Y-3385616D01*
X5441747Y-3304184D01*
X5368870Y-3161155D01*
X5349952Y-3135117D01*
X5220798Y-2957350D01*
X5220794Y-2957345D01*
X5042654Y-2779205D01*
X5042649Y-2779201D01*
X4838848Y-2631132D01*
X4838847Y-2631131D01*
X4838845Y-2631130D01*
X4768747Y-2595413D01*
X4614383Y-2516760D01*
X4374785Y-2438910D01*
X4125962Y-2399500D01*
X3874038Y-2399500D01*
X3749626Y-2419205D01*
X3625214Y-2438910D01*
X3385616Y-2516760D01*
X3161151Y-2631132D01*
X2957350Y-2779201D01*
X2957345Y-2779205D01*
X2779205Y-2957345D01*
X2779201Y-2957350D01*
X2631132Y-3161151D01*
X2516760Y-3385616D01*
X2438910Y-3625214D01*
X2399500Y-3874038D01*
X600000Y-3874038D01*
X600000Y-724000D01*
X619685Y-656961D01*
X672489Y-611206D01*
X724000Y-600000D01*
X63276000Y-600000D01*
X63343039Y-619685D01*
G37*
%TD.AperFunction*%
%TD*%
D20*
X30000000Y-16050000D03*
X45200000Y-8500000D03*
X54200000Y-8500000D03*
X60000000Y-4000000D03*
X60000000Y-34000000D03*
X12000000Y-10000000D03*
X12000000Y-12540000D03*
X12000000Y-15080000D03*
X12000000Y-17620000D03*
X4000000Y-34000000D03*
X4000000Y-4000000D03*
X44000000Y-20000000D03*
X44000000Y-25000000D03*
X44000000Y-22500000D03*
D21*
X51500000Y-16900000D03*
X51500000Y-28100000D03*
D20*
X58500000Y-25000000D03*
X58500000Y-20000000D03*
X20000000Y-34000000D03*
X22500000Y-34000000D03*
X25000000Y-34000000D03*
X27500000Y-34000000D03*
X30000000Y-34000000D03*
X32500000Y-34000000D03*
X35000000Y-34000000D03*
X37500000Y-34000000D03*
X40000000Y-34000000D03*
M02*
