%TF.GenerationSoftware,KiCad,Pcbnew,9.0.7*%
%TF.CreationDate,2026-05-19T07:49:01-05:00*%
%TF.ProjectId,BoardB_UI,426f6172-6442-45f5-9549-2e6b69636164,rev?*%
%TF.SameCoordinates,Original*%
%TF.FileFunction,Legend,Top*%
%TF.FilePolarity,Positive*%
%FSLAX46Y46*%
G04 Gerber Fmt 4.6, Leading zero omitted, Abs format (unit mm)*
G04 Created by KiCad (PCBNEW 9.0.7) date 2026-05-19 07:49:01*
%MOMM*%
%LPD*%
G01*
G04 APERTURE LIST*
%ADD10C,0.120000*%
%ADD11C,0.150000*%
%ADD12C,0.350000*%
%ADD13O,2.800000X1.500000*%
G04 APERTURE END LIST*
D10*
X39728571Y-3144807D02*
X39995237Y-3144807D01*
X40109523Y-3563855D02*
X39728571Y-3563855D01*
X39728571Y-3563855D02*
X39728571Y-2763855D01*
X39728571Y-2763855D02*
X40109523Y-2763855D01*
X40909524Y-3563855D02*
X40642857Y-3182902D01*
X40452381Y-3563855D02*
X40452381Y-2763855D01*
X40452381Y-2763855D02*
X40757143Y-2763855D01*
X40757143Y-2763855D02*
X40833333Y-2801950D01*
X40833333Y-2801950D02*
X40871428Y-2840045D01*
X40871428Y-2840045D02*
X40909524Y-2916236D01*
X40909524Y-2916236D02*
X40909524Y-3030521D01*
X40909524Y-3030521D02*
X40871428Y-3106712D01*
X40871428Y-3106712D02*
X40833333Y-3144807D01*
X40833333Y-3144807D02*
X40757143Y-3182902D01*
X40757143Y-3182902D02*
X40452381Y-3182902D01*
X41709524Y-3563855D02*
X41442857Y-3182902D01*
X41252381Y-3563855D02*
X41252381Y-2763855D01*
X41252381Y-2763855D02*
X41557143Y-2763855D01*
X41557143Y-2763855D02*
X41633333Y-2801950D01*
X41633333Y-2801950D02*
X41671428Y-2840045D01*
X41671428Y-2840045D02*
X41709524Y-2916236D01*
X41709524Y-2916236D02*
X41709524Y-3030521D01*
X41709524Y-3030521D02*
X41671428Y-3106712D01*
X41671428Y-3106712D02*
X41633333Y-3144807D01*
X41633333Y-3144807D02*
X41557143Y-3182902D01*
X41557143Y-3182902D02*
X41252381Y-3182902D01*
X47819047Y-3525760D02*
X47933333Y-3563855D01*
X47933333Y-3563855D02*
X48123809Y-3563855D01*
X48123809Y-3563855D02*
X48200000Y-3525760D01*
X48200000Y-3525760D02*
X48238095Y-3487664D01*
X48238095Y-3487664D02*
X48276190Y-3411474D01*
X48276190Y-3411474D02*
X48276190Y-3335283D01*
X48276190Y-3335283D02*
X48238095Y-3259093D01*
X48238095Y-3259093D02*
X48200000Y-3220998D01*
X48200000Y-3220998D02*
X48123809Y-3182902D01*
X48123809Y-3182902D02*
X47971428Y-3144807D01*
X47971428Y-3144807D02*
X47895238Y-3106712D01*
X47895238Y-3106712D02*
X47857143Y-3068617D01*
X47857143Y-3068617D02*
X47819047Y-2992426D01*
X47819047Y-2992426D02*
X47819047Y-2916236D01*
X47819047Y-2916236D02*
X47857143Y-2840045D01*
X47857143Y-2840045D02*
X47895238Y-2801950D01*
X47895238Y-2801950D02*
X47971428Y-2763855D01*
X47971428Y-2763855D02*
X48161905Y-2763855D01*
X48161905Y-2763855D02*
X48276190Y-2801950D01*
X48504762Y-2763855D02*
X48961905Y-2763855D01*
X48733333Y-3563855D02*
X48733333Y-2763855D01*
X49190476Y-3335283D02*
X49571429Y-3335283D01*
X49114286Y-3563855D02*
X49380953Y-2763855D01*
X49380953Y-2763855D02*
X49647619Y-3563855D01*
X49800000Y-2763855D02*
X50257143Y-2763855D01*
X50028571Y-3563855D02*
X50028571Y-2763855D01*
X51800000Y-31867260D02*
X51928572Y-31910117D01*
X51928572Y-31910117D02*
X52142857Y-31910117D01*
X52142857Y-31910117D02*
X52228572Y-31867260D01*
X52228572Y-31867260D02*
X52271429Y-31824402D01*
X52271429Y-31824402D02*
X52314286Y-31738688D01*
X52314286Y-31738688D02*
X52314286Y-31652974D01*
X52314286Y-31652974D02*
X52271429Y-31567260D01*
X52271429Y-31567260D02*
X52228572Y-31524402D01*
X52228572Y-31524402D02*
X52142857Y-31481545D01*
X52142857Y-31481545D02*
X51971429Y-31438688D01*
X51971429Y-31438688D02*
X51885714Y-31395831D01*
X51885714Y-31395831D02*
X51842857Y-31352974D01*
X51842857Y-31352974D02*
X51800000Y-31267260D01*
X51800000Y-31267260D02*
X51800000Y-31181545D01*
X51800000Y-31181545D02*
X51842857Y-31095831D01*
X51842857Y-31095831D02*
X51885714Y-31052974D01*
X51885714Y-31052974D02*
X51971429Y-31010117D01*
X51971429Y-31010117D02*
X52185714Y-31010117D01*
X52185714Y-31010117D02*
X52314286Y-31052974D01*
X52614286Y-31010117D02*
X52828572Y-31910117D01*
X52828572Y-31910117D02*
X53000000Y-31267260D01*
X53000000Y-31267260D02*
X53171429Y-31910117D01*
X53171429Y-31910117D02*
X53385715Y-31010117D01*
X54200000Y-31910117D02*
X53685714Y-31910117D01*
X53942857Y-31910117D02*
X53942857Y-31010117D01*
X53942857Y-31010117D02*
X53857143Y-31138688D01*
X53857143Y-31138688D02*
X53771428Y-31224402D01*
X53771428Y-31224402D02*
X53685714Y-31267260D01*
X17095238Y-1932569D02*
X17238095Y-1980188D01*
X17238095Y-1980188D02*
X17285714Y-2027807D01*
X17285714Y-2027807D02*
X17333333Y-2123045D01*
X17333333Y-2123045D02*
X17333333Y-2265902D01*
X17333333Y-2265902D02*
X17285714Y-2361140D01*
X17285714Y-2361140D02*
X17238095Y-2408760D01*
X17238095Y-2408760D02*
X17142857Y-2456379D01*
X17142857Y-2456379D02*
X16761905Y-2456379D01*
X16761905Y-2456379D02*
X16761905Y-1456379D01*
X16761905Y-1456379D02*
X17095238Y-1456379D01*
X17095238Y-1456379D02*
X17190476Y-1503998D01*
X17190476Y-1503998D02*
X17238095Y-1551617D01*
X17238095Y-1551617D02*
X17285714Y-1646855D01*
X17285714Y-1646855D02*
X17285714Y-1742093D01*
X17285714Y-1742093D02*
X17238095Y-1837331D01*
X17238095Y-1837331D02*
X17190476Y-1884950D01*
X17190476Y-1884950D02*
X17095238Y-1932569D01*
X17095238Y-1932569D02*
X16761905Y-1932569D01*
X17952381Y-1456379D02*
X18142857Y-1456379D01*
X18142857Y-1456379D02*
X18238095Y-1503998D01*
X18238095Y-1503998D02*
X18333333Y-1599236D01*
X18333333Y-1599236D02*
X18380952Y-1789712D01*
X18380952Y-1789712D02*
X18380952Y-2123045D01*
X18380952Y-2123045D02*
X18333333Y-2313521D01*
X18333333Y-2313521D02*
X18238095Y-2408760D01*
X18238095Y-2408760D02*
X18142857Y-2456379D01*
X18142857Y-2456379D02*
X17952381Y-2456379D01*
X17952381Y-2456379D02*
X17857143Y-2408760D01*
X17857143Y-2408760D02*
X17761905Y-2313521D01*
X17761905Y-2313521D02*
X17714286Y-2123045D01*
X17714286Y-2123045D02*
X17714286Y-1789712D01*
X17714286Y-1789712D02*
X17761905Y-1599236D01*
X17761905Y-1599236D02*
X17857143Y-1503998D01*
X17857143Y-1503998D02*
X17952381Y-1456379D01*
X18761905Y-2170664D02*
X19238095Y-2170664D01*
X18666667Y-2456379D02*
X19000000Y-1456379D01*
X19000000Y-1456379D02*
X19333333Y-2456379D01*
X20238095Y-2456379D02*
X19904762Y-1980188D01*
X19666667Y-2456379D02*
X19666667Y-1456379D01*
X19666667Y-1456379D02*
X20047619Y-1456379D01*
X20047619Y-1456379D02*
X20142857Y-1503998D01*
X20142857Y-1503998D02*
X20190476Y-1551617D01*
X20190476Y-1551617D02*
X20238095Y-1646855D01*
X20238095Y-1646855D02*
X20238095Y-1789712D01*
X20238095Y-1789712D02*
X20190476Y-1884950D01*
X20190476Y-1884950D02*
X20142857Y-1932569D01*
X20142857Y-1932569D02*
X20047619Y-1980188D01*
X20047619Y-1980188D02*
X19666667Y-1980188D01*
X20666667Y-2456379D02*
X20666667Y-1456379D01*
X20666667Y-1456379D02*
X20904762Y-1456379D01*
X20904762Y-1456379D02*
X21047619Y-1503998D01*
X21047619Y-1503998D02*
X21142857Y-1599236D01*
X21142857Y-1599236D02*
X21190476Y-1694474D01*
X21190476Y-1694474D02*
X21238095Y-1884950D01*
X21238095Y-1884950D02*
X21238095Y-2027807D01*
X21238095Y-2027807D02*
X21190476Y-2218283D01*
X21190476Y-2218283D02*
X21142857Y-2313521D01*
X21142857Y-2313521D02*
X21047619Y-2408760D01*
X21047619Y-2408760D02*
X20904762Y-2456379D01*
X20904762Y-2456379D02*
X20666667Y-2456379D01*
X22761905Y-1932569D02*
X22904762Y-1980188D01*
X22904762Y-1980188D02*
X22952381Y-2027807D01*
X22952381Y-2027807D02*
X23000000Y-2123045D01*
X23000000Y-2123045D02*
X23000000Y-2265902D01*
X23000000Y-2265902D02*
X22952381Y-2361140D01*
X22952381Y-2361140D02*
X22904762Y-2408760D01*
X22904762Y-2408760D02*
X22809524Y-2456379D01*
X22809524Y-2456379D02*
X22428572Y-2456379D01*
X22428572Y-2456379D02*
X22428572Y-1456379D01*
X22428572Y-1456379D02*
X22761905Y-1456379D01*
X22761905Y-1456379D02*
X22857143Y-1503998D01*
X22857143Y-1503998D02*
X22904762Y-1551617D01*
X22904762Y-1551617D02*
X22952381Y-1646855D01*
X22952381Y-1646855D02*
X22952381Y-1742093D01*
X22952381Y-1742093D02*
X22904762Y-1837331D01*
X22904762Y-1837331D02*
X22857143Y-1884950D01*
X22857143Y-1884950D02*
X22761905Y-1932569D01*
X22761905Y-1932569D02*
X22428572Y-1932569D01*
X24190477Y-1456379D02*
X24190477Y-2265902D01*
X24190477Y-2265902D02*
X24238096Y-2361140D01*
X24238096Y-2361140D02*
X24285715Y-2408760D01*
X24285715Y-2408760D02*
X24380953Y-2456379D01*
X24380953Y-2456379D02*
X24571429Y-2456379D01*
X24571429Y-2456379D02*
X24666667Y-2408760D01*
X24666667Y-2408760D02*
X24714286Y-2361140D01*
X24714286Y-2361140D02*
X24761905Y-2265902D01*
X24761905Y-2265902D02*
X24761905Y-1456379D01*
X25238096Y-2456379D02*
X25238096Y-1456379D01*
X2104761Y-31301950D02*
X2028571Y-31263855D01*
X2028571Y-31263855D02*
X1914285Y-31263855D01*
X1914285Y-31263855D02*
X1799999Y-31301950D01*
X1799999Y-31301950D02*
X1723809Y-31378140D01*
X1723809Y-31378140D02*
X1685714Y-31454331D01*
X1685714Y-31454331D02*
X1647618Y-31606712D01*
X1647618Y-31606712D02*
X1647618Y-31720998D01*
X1647618Y-31720998D02*
X1685714Y-31873379D01*
X1685714Y-31873379D02*
X1723809Y-31949569D01*
X1723809Y-31949569D02*
X1799999Y-32025760D01*
X1799999Y-32025760D02*
X1914285Y-32063855D01*
X1914285Y-32063855D02*
X1990476Y-32063855D01*
X1990476Y-32063855D02*
X2104761Y-32025760D01*
X2104761Y-32025760D02*
X2142857Y-31987664D01*
X2142857Y-31987664D02*
X2142857Y-31720998D01*
X2142857Y-31720998D02*
X1990476Y-31720998D01*
X2485714Y-32063855D02*
X2485714Y-31263855D01*
X2485714Y-31263855D02*
X2942857Y-32063855D01*
X2942857Y-32063855D02*
X2942857Y-31263855D01*
X3323809Y-32063855D02*
X3323809Y-31263855D01*
X3323809Y-31263855D02*
X3514285Y-31263855D01*
X3514285Y-31263855D02*
X3628571Y-31301950D01*
X3628571Y-31301950D02*
X3704761Y-31378140D01*
X3704761Y-31378140D02*
X3742856Y-31454331D01*
X3742856Y-31454331D02*
X3780952Y-31606712D01*
X3780952Y-31606712D02*
X3780952Y-31720998D01*
X3780952Y-31720998D02*
X3742856Y-31873379D01*
X3742856Y-31873379D02*
X3704761Y-31949569D01*
X3704761Y-31949569D02*
X3628571Y-32025760D01*
X3628571Y-32025760D02*
X3514285Y-32063855D01*
X3514285Y-32063855D02*
X3323809Y-32063855D01*
X4619047Y-31263855D02*
X4885714Y-32063855D01*
X4885714Y-32063855D02*
X5152380Y-31263855D01*
X5876190Y-31987664D02*
X5838094Y-32025760D01*
X5838094Y-32025760D02*
X5723809Y-32063855D01*
X5723809Y-32063855D02*
X5647618Y-32063855D01*
X5647618Y-32063855D02*
X5533332Y-32025760D01*
X5533332Y-32025760D02*
X5457142Y-31949569D01*
X5457142Y-31949569D02*
X5419047Y-31873379D01*
X5419047Y-31873379D02*
X5380951Y-31720998D01*
X5380951Y-31720998D02*
X5380951Y-31606712D01*
X5380951Y-31606712D02*
X5419047Y-31454331D01*
X5419047Y-31454331D02*
X5457142Y-31378140D01*
X5457142Y-31378140D02*
X5533332Y-31301950D01*
X5533332Y-31301950D02*
X5647618Y-31263855D01*
X5647618Y-31263855D02*
X5723809Y-31263855D01*
X5723809Y-31263855D02*
X5838094Y-31301950D01*
X5838094Y-31301950D02*
X5876190Y-31340045D01*
X6676190Y-31987664D02*
X6638094Y-32025760D01*
X6638094Y-32025760D02*
X6523809Y-32063855D01*
X6523809Y-32063855D02*
X6447618Y-32063855D01*
X6447618Y-32063855D02*
X6333332Y-32025760D01*
X6333332Y-32025760D02*
X6257142Y-31949569D01*
X6257142Y-31949569D02*
X6219047Y-31873379D01*
X6219047Y-31873379D02*
X6180951Y-31720998D01*
X6180951Y-31720998D02*
X6180951Y-31606712D01*
X6180951Y-31606712D02*
X6219047Y-31454331D01*
X6219047Y-31454331D02*
X6257142Y-31378140D01*
X6257142Y-31378140D02*
X6333332Y-31301950D01*
X6333332Y-31301950D02*
X6447618Y-31263855D01*
X6447618Y-31263855D02*
X6523809Y-31263855D01*
X6523809Y-31263855D02*
X6638094Y-31301950D01*
X6638094Y-31301950D02*
X6676190Y-31340045D01*
X7590475Y-32025760D02*
X7704761Y-32063855D01*
X7704761Y-32063855D02*
X7895237Y-32063855D01*
X7895237Y-32063855D02*
X7971428Y-32025760D01*
X7971428Y-32025760D02*
X8009523Y-31987664D01*
X8009523Y-31987664D02*
X8047618Y-31911474D01*
X8047618Y-31911474D02*
X8047618Y-31835283D01*
X8047618Y-31835283D02*
X8009523Y-31759093D01*
X8009523Y-31759093D02*
X7971428Y-31720998D01*
X7971428Y-31720998D02*
X7895237Y-31682902D01*
X7895237Y-31682902D02*
X7742856Y-31644807D01*
X7742856Y-31644807D02*
X7666666Y-31606712D01*
X7666666Y-31606712D02*
X7628571Y-31568617D01*
X7628571Y-31568617D02*
X7590475Y-31492426D01*
X7590475Y-31492426D02*
X7590475Y-31416236D01*
X7590475Y-31416236D02*
X7628571Y-31340045D01*
X7628571Y-31340045D02*
X7666666Y-31301950D01*
X7666666Y-31301950D02*
X7742856Y-31263855D01*
X7742856Y-31263855D02*
X7933333Y-31263855D01*
X7933333Y-31263855D02*
X8047618Y-31301950D01*
X8847619Y-31987664D02*
X8809523Y-32025760D01*
X8809523Y-32025760D02*
X8695238Y-32063855D01*
X8695238Y-32063855D02*
X8619047Y-32063855D01*
X8619047Y-32063855D02*
X8504761Y-32025760D01*
X8504761Y-32025760D02*
X8428571Y-31949569D01*
X8428571Y-31949569D02*
X8390476Y-31873379D01*
X8390476Y-31873379D02*
X8352380Y-31720998D01*
X8352380Y-31720998D02*
X8352380Y-31606712D01*
X8352380Y-31606712D02*
X8390476Y-31454331D01*
X8390476Y-31454331D02*
X8428571Y-31378140D01*
X8428571Y-31378140D02*
X8504761Y-31301950D01*
X8504761Y-31301950D02*
X8619047Y-31263855D01*
X8619047Y-31263855D02*
X8695238Y-31263855D01*
X8695238Y-31263855D02*
X8809523Y-31301950D01*
X8809523Y-31301950D02*
X8847619Y-31340045D01*
X9571428Y-32063855D02*
X9190476Y-32063855D01*
X9190476Y-32063855D02*
X9190476Y-31263855D01*
X10409523Y-32025760D02*
X10523809Y-32063855D01*
X10523809Y-32063855D02*
X10714285Y-32063855D01*
X10714285Y-32063855D02*
X10790476Y-32025760D01*
X10790476Y-32025760D02*
X10828571Y-31987664D01*
X10828571Y-31987664D02*
X10866666Y-31911474D01*
X10866666Y-31911474D02*
X10866666Y-31835283D01*
X10866666Y-31835283D02*
X10828571Y-31759093D01*
X10828571Y-31759093D02*
X10790476Y-31720998D01*
X10790476Y-31720998D02*
X10714285Y-31682902D01*
X10714285Y-31682902D02*
X10561904Y-31644807D01*
X10561904Y-31644807D02*
X10485714Y-31606712D01*
X10485714Y-31606712D02*
X10447619Y-31568617D01*
X10447619Y-31568617D02*
X10409523Y-31492426D01*
X10409523Y-31492426D02*
X10409523Y-31416236D01*
X10409523Y-31416236D02*
X10447619Y-31340045D01*
X10447619Y-31340045D02*
X10485714Y-31301950D01*
X10485714Y-31301950D02*
X10561904Y-31263855D01*
X10561904Y-31263855D02*
X10752381Y-31263855D01*
X10752381Y-31263855D02*
X10866666Y-31301950D01*
X11209524Y-32063855D02*
X11209524Y-31263855D01*
X11209524Y-31263855D02*
X11400000Y-31263855D01*
X11400000Y-31263855D02*
X11514286Y-31301950D01*
X11514286Y-31301950D02*
X11590476Y-31378140D01*
X11590476Y-31378140D02*
X11628571Y-31454331D01*
X11628571Y-31454331D02*
X11666667Y-31606712D01*
X11666667Y-31606712D02*
X11666667Y-31720998D01*
X11666667Y-31720998D02*
X11628571Y-31873379D01*
X11628571Y-31873379D02*
X11590476Y-31949569D01*
X11590476Y-31949569D02*
X11514286Y-32025760D01*
X11514286Y-32025760D02*
X11400000Y-32063855D01*
X11400000Y-32063855D02*
X11209524Y-32063855D01*
X11971428Y-31835283D02*
X12352381Y-31835283D01*
X11895238Y-32063855D02*
X12161905Y-31263855D01*
X12161905Y-31263855D02*
X12428571Y-32063855D01*
D11*
X51261905Y-5804819D02*
X51261905Y-4804819D01*
X51261905Y-4804819D02*
X51500000Y-4804819D01*
X51500000Y-4804819D02*
X51642857Y-4852438D01*
X51642857Y-4852438D02*
X51738095Y-4947676D01*
X51738095Y-4947676D02*
X51785714Y-5042914D01*
X51785714Y-5042914D02*
X51833333Y-5233390D01*
X51833333Y-5233390D02*
X51833333Y-5376247D01*
X51833333Y-5376247D02*
X51785714Y-5566723D01*
X51785714Y-5566723D02*
X51738095Y-5661961D01*
X51738095Y-5661961D02*
X51642857Y-5757200D01*
X51642857Y-5757200D02*
X51500000Y-5804819D01*
X51500000Y-5804819D02*
X51261905Y-5804819D01*
X52214286Y-4900057D02*
X52261905Y-4852438D01*
X52261905Y-4852438D02*
X52357143Y-4804819D01*
X52357143Y-4804819D02*
X52595238Y-4804819D01*
X52595238Y-4804819D02*
X52690476Y-4852438D01*
X52690476Y-4852438D02*
X52738095Y-4900057D01*
X52738095Y-4900057D02*
X52785714Y-4995295D01*
X52785714Y-4995295D02*
X52785714Y-5090533D01*
X52785714Y-5090533D02*
X52738095Y-5233390D01*
X52738095Y-5233390D02*
X52166667Y-5804819D01*
X52166667Y-5804819D02*
X52785714Y-5804819D01*
X42261905Y-5804819D02*
X42261905Y-4804819D01*
X42261905Y-4804819D02*
X42500000Y-4804819D01*
X42500000Y-4804819D02*
X42642857Y-4852438D01*
X42642857Y-4852438D02*
X42738095Y-4947676D01*
X42738095Y-4947676D02*
X42785714Y-5042914D01*
X42785714Y-5042914D02*
X42833333Y-5233390D01*
X42833333Y-5233390D02*
X42833333Y-5376247D01*
X42833333Y-5376247D02*
X42785714Y-5566723D01*
X42785714Y-5566723D02*
X42738095Y-5661961D01*
X42738095Y-5661961D02*
X42642857Y-5757200D01*
X42642857Y-5757200D02*
X42500000Y-5804819D01*
X42500000Y-5804819D02*
X42261905Y-5804819D01*
X43785714Y-5804819D02*
X43214286Y-5804819D01*
X43500000Y-5804819D02*
X43500000Y-4804819D01*
X43500000Y-4804819D02*
X43404762Y-4947676D01*
X43404762Y-4947676D02*
X43309524Y-5042914D01*
X43309524Y-5042914D02*
X43214286Y-5090533D01*
X11666666Y-7074819D02*
X11666666Y-7789104D01*
X11666666Y-7789104D02*
X11619047Y-7931961D01*
X11619047Y-7931961D02*
X11523809Y-8027200D01*
X11523809Y-8027200D02*
X11380952Y-8074819D01*
X11380952Y-8074819D02*
X11285714Y-8074819D01*
X12095238Y-7170057D02*
X12142857Y-7122438D01*
X12142857Y-7122438D02*
X12238095Y-7074819D01*
X12238095Y-7074819D02*
X12476190Y-7074819D01*
X12476190Y-7074819D02*
X12571428Y-7122438D01*
X12571428Y-7122438D02*
X12619047Y-7170057D01*
X12619047Y-7170057D02*
X12666666Y-7265295D01*
X12666666Y-7265295D02*
X12666666Y-7360533D01*
X12666666Y-7360533D02*
X12619047Y-7503390D01*
X12619047Y-7503390D02*
X12047619Y-8074819D01*
X12047619Y-8074819D02*
X12666666Y-8074819D01*
X45466667Y-15707200D02*
X45609524Y-15754819D01*
X45609524Y-15754819D02*
X45847619Y-15754819D01*
X45847619Y-15754819D02*
X45942857Y-15707200D01*
X45942857Y-15707200D02*
X45990476Y-15659580D01*
X45990476Y-15659580D02*
X46038095Y-15564342D01*
X46038095Y-15564342D02*
X46038095Y-15469104D01*
X46038095Y-15469104D02*
X45990476Y-15373866D01*
X45990476Y-15373866D02*
X45942857Y-15326247D01*
X45942857Y-15326247D02*
X45847619Y-15278628D01*
X45847619Y-15278628D02*
X45657143Y-15231009D01*
X45657143Y-15231009D02*
X45561905Y-15183390D01*
X45561905Y-15183390D02*
X45514286Y-15135771D01*
X45514286Y-15135771D02*
X45466667Y-15040533D01*
X45466667Y-15040533D02*
X45466667Y-14945295D01*
X45466667Y-14945295D02*
X45514286Y-14850057D01*
X45514286Y-14850057D02*
X45561905Y-14802438D01*
X45561905Y-14802438D02*
X45657143Y-14754819D01*
X45657143Y-14754819D02*
X45895238Y-14754819D01*
X45895238Y-14754819D02*
X46038095Y-14802438D01*
X46371429Y-14754819D02*
X46609524Y-15754819D01*
X46609524Y-15754819D02*
X46800000Y-15040533D01*
X46800000Y-15040533D02*
X46990476Y-15754819D01*
X46990476Y-15754819D02*
X47228572Y-14754819D01*
X48133333Y-15754819D02*
X47561905Y-15754819D01*
X47847619Y-15754819D02*
X47847619Y-14754819D01*
X47847619Y-14754819D02*
X47752381Y-14897676D01*
X47752381Y-14897676D02*
X47657143Y-14992914D01*
X47657143Y-14992914D02*
X47561905Y-15040533D01*
D10*
%TO.C,D2*%
X50315000Y-6040000D02*
X50315000Y-7960000D01*
X50315000Y-7960000D02*
X53000000Y-7960000D01*
X53000000Y-6040000D02*
X50315000Y-6040000D01*
%TO.C,D1*%
X41315000Y-6040000D02*
X41315000Y-7960000D01*
X41315000Y-7960000D02*
X44000000Y-7960000D01*
X44000000Y-6040000D02*
X41315000Y-6040000D01*
%TO.C,J2*%
X10620000Y-8620000D02*
X12000000Y-8620000D01*
X10620000Y-10000000D02*
X10620000Y-8620000D01*
X10620000Y-11270000D02*
X10620000Y-19000000D01*
X10620000Y-11270000D02*
X13380000Y-11270000D01*
X10620000Y-19000000D02*
X13380000Y-19000000D01*
X13380000Y-11270000D02*
X13380000Y-19000000D01*
%TO.C,SW1*%
X43700000Y-18400000D02*
X44300000Y-18400000D01*
X44000000Y-18700000D02*
X43700000Y-18400000D01*
X44300000Y-18400000D02*
X44000000Y-18700000D01*
X45400000Y-16600000D02*
X45400000Y-28400000D01*
X49500000Y-16600000D02*
X45400000Y-16600000D01*
X49500000Y-28400000D02*
X45400000Y-28400000D01*
X51000000Y-22500000D02*
X52000000Y-22500000D01*
X51500000Y-22000000D02*
X51500000Y-23000000D01*
X53500000Y-16600000D02*
X57600000Y-16600000D01*
X57600000Y-16600000D02*
X57600000Y-19000000D01*
X57600000Y-21200000D02*
X57600000Y-23800000D01*
X57600000Y-26000000D02*
X57600000Y-28400000D01*
X57600000Y-28400000D02*
X53500000Y-28400000D01*
X54500000Y-22500000D02*
G75*
G02*
X48500000Y-22500000I-3000000J0D01*
G01*
X48500000Y-22500000D02*
G75*
G02*
X54500000Y-22500000I3000000J0D01*
G01*
%TD*%
D12*
X60000000Y-4000000D03*
X60000000Y-34000000D03*
X12000000Y-10000000D03*
X12000000Y-12540000D03*
X12000000Y-15080000D03*
X12000000Y-17620000D03*
X4000000Y-34000000D03*
X4000000Y-4000000D03*
X44000000Y-20000000D03*
X44000000Y-25000000D03*
X44000000Y-22500000D03*
D13*
X51500000Y-16900000D03*
X51500000Y-28100000D03*
D12*
X58500000Y-25000000D03*
X58500000Y-20000000D03*
X20000000Y-34000000D03*
X22500000Y-34000000D03*
X25000000Y-34000000D03*
X27500000Y-34000000D03*
X30000000Y-34000000D03*
X32500000Y-34000000D03*
X35000000Y-34000000D03*
X37500000Y-34000000D03*
X40000000Y-34000000D03*
M02*
