%TF.GenerationSoftware,KiCad,Pcbnew,9.0.7*%
%TF.CreationDate,2026-05-18T21:03:40-05:00*%
%TF.ProjectId,BoardB_UI,426f6172-6442-45f5-9549-2e6b69636164,rev?*%
%TF.SameCoordinates,Original*%
%TF.FileFunction,Soldermask,Bot*%
%TF.FilePolarity,Negative*%
%FSLAX46Y46*%
G04 Gerber Fmt 4.6, Leading zero omitted, Abs format (unit mm)*
G04 Created by KiCad (PCBNEW 9.0.7) date 2026-05-18 21:03:40*
%MOMM*%
%LPD*%
G01*
G04 APERTURE LIST*
G04 Aperture macros list*
%AMRoundRect*
0 Rectangle with rounded corners*
0 $1 Rounding radius*
0 $2 $3 $4 $5 $6 $7 $8 $9 X,Y pos of 4 corners*
0 Add a 4 corners polygon primitive as box body*
4,1,4,$2,$3,$4,$5,$6,$7,$8,$9,$2,$3,0*
0 Add four circle primitives for the rounded corners*
1,1,$1+$1,$2,$3*
1,1,$1+$1,$4,$5*
1,1,$1+$1,$6,$7*
1,1,$1+$1,$8,$9*
0 Add four rect primitives between the rounded corners*
20,1,$1+$1,$2,$3,$4,$5,0*
20,1,$1+$1,$4,$5,$6,$7,0*
20,1,$1+$1,$6,$7,$8,$9,0*
20,1,$1+$1,$8,$9,$2,$3,0*%
G04 Aperture macros list end*
%ADD10C,2.700000*%
%ADD11R,1.700000X1.700000*%
%ADD12C,1.700000*%
%ADD13R,2.000000X2.000000*%
%ADD14C,2.000000*%
%ADD15R,3.200000X2.000000*%
%ADD16RoundRect,0.250000X-0.450000X0.262500X-0.450000X-0.262500X0.450000X-0.262500X0.450000X0.262500X0*%
%ADD17RoundRect,0.250000X0.475000X-0.250000X0.475000X0.250000X-0.475000X0.250000X-0.475000X-0.250000X0*%
%ADD18RoundRect,0.250000X0.450000X-0.262500X0.450000X0.262500X-0.450000X0.262500X-0.450000X-0.262500X0*%
%ADD19RoundRect,0.250000X-0.600000X-0.725000X0.600000X-0.725000X0.600000X0.725000X-0.600000X0.725000X0*%
%ADD20O,1.700000X1.950000*%
%ADD21C,0.350000*%
%ADD22O,2.800000X1.500000*%
G04 APERTURE END LIST*
D10*
%TO.C,H2*%
X60000000Y-4000000D03*
%TD*%
%TO.C,H4*%
X60000000Y-34000000D03*
%TD*%
D11*
%TO.C,J2*%
X12000000Y-10000000D03*
D12*
X12000000Y-12540000D03*
X12000000Y-15080000D03*
X12000000Y-17620000D03*
%TD*%
D10*
%TO.C,H3*%
X4000000Y-34000000D03*
%TD*%
%TO.C,H1*%
X4000000Y-4000000D03*
%TD*%
D13*
%TO.C,SW1*%
X44000000Y-20000000D03*
D14*
X44000000Y-25000000D03*
X44000000Y-22500000D03*
D15*
X51500000Y-16900000D03*
X51500000Y-28100000D03*
D14*
X58500000Y-25000000D03*
X58500000Y-20000000D03*
%TD*%
D16*
%TO.C,R3*%
X35000000Y-11087500D03*
X35000000Y-12912500D03*
%TD*%
D17*
%TO.C,C1*%
X30000000Y-17950000D03*
X30000000Y-16050000D03*
%TD*%
D16*
%TO.C,R2*%
X32500000Y-11087500D03*
X32500000Y-12912500D03*
%TD*%
%TO.C,R1*%
X30000000Y-11087500D03*
X30000000Y-12912500D03*
%TD*%
D18*
%TO.C,R5*%
X52000000Y-11512500D03*
X52000000Y-9687500D03*
%TD*%
%TO.C,R4*%
X43000000Y-11512500D03*
X43000000Y-9687500D03*
%TD*%
D17*
%TO.C,C3*%
X35000000Y-17950000D03*
X35000000Y-16050000D03*
%TD*%
D19*
%TO.C,J1*%
X20000000Y-34000000D03*
D20*
X22500000Y-34000000D03*
X25000000Y-34000000D03*
X27500000Y-34000000D03*
X30000000Y-34000000D03*
X32500000Y-34000000D03*
X35000000Y-34000000D03*
X37500000Y-34000000D03*
X40000000Y-34000000D03*
%TD*%
D17*
%TO.C,C2*%
X32500000Y-17950000D03*
X32500000Y-16050000D03*
%TD*%
D21*
X60000000Y-4000000D03*
X60000000Y-34000000D03*
X12000000Y-10000000D03*
X12000000Y-12540000D03*
X12000000Y-15080000D03*
X12000000Y-17620000D03*
X4000000Y-34000000D03*
X4000000Y-4000000D03*
X44000000Y-20000000D03*
X44000000Y-25000000D03*
X44000000Y-22500000D03*
D22*
X51500000Y-16900000D03*
X51500000Y-28100000D03*
D21*
X58500000Y-25000000D03*
X58500000Y-20000000D03*
X20000000Y-34000000D03*
X22500000Y-34000000D03*
X25000000Y-34000000D03*
X27500000Y-34000000D03*
X30000000Y-34000000D03*
X32500000Y-34000000D03*
X35000000Y-34000000D03*
X37500000Y-34000000D03*
X40000000Y-34000000D03*
M02*
