%TF.GenerationSoftware,KiCad,Pcbnew,9.0.7*%
%TF.CreationDate,2026-05-18T18:11:22-05:00*%
%TF.ProjectId,BoardB_UI,426f6172-6442-45f5-9549-2e6b69636164,rev?*%
%TF.SameCoordinates,Original*%
%TF.FileFunction,Soldermask,Top*%
%TF.FilePolarity,Negative*%
%FSLAX46Y46*%
G04 Gerber Fmt 4.6, Leading zero omitted, Abs format (unit mm)*
G04 Created by KiCad (PCBNEW 9.0.7) date 2026-05-18 18:11:22*
%MOMM*%
%LPD*%
G01*
G04 APERTURE LIST*
G04 Aperture macros list*
%AMRoundRect*
0 Rectangle with rounded corners*
0 $1 Rounding radius*
0 $2 $3 $4 $5 $6 $7 $8 $9 X,Y pos of 4 corners*
0 Add a 4 corners polygon primitive as box body*
4,1,4,$2,$3,$4,$5,$6,$7,$8,$9,$2,$3,0*
0 Add four circle primitives for the rounded corners*
1,1,$1+$1,$2,$3*
1,1,$1+$1,$4,$5*
1,1,$1+$1,$6,$7*
1,1,$1+$1,$8,$9*
0 Add four rect primitives between the rounded corners*
20,1,$1+$1,$2,$3,$4,$5,0*
20,1,$1+$1,$4,$5,$6,$7,0*
20,1,$1+$1,$6,$7,$8,$9,0*
20,1,$1+$1,$8,$9,$2,$3,0*%
G04 Aperture macros list end*
%ADD10RoundRect,0.250000X-0.262500X-0.450000X0.262500X-0.450000X0.262500X0.450000X-0.262500X0.450000X0*%
%ADD11C,2.700000*%
%ADD12R,1.700000X1.700000*%
%ADD13C,1.700000*%
%ADD14RoundRect,0.250000X0.475000X-0.250000X0.475000X0.250000X-0.475000X0.250000X-0.475000X-0.250000X0*%
%ADD15RoundRect,0.243750X-0.243750X-0.456250X0.243750X-0.456250X0.243750X0.456250X-0.243750X0.456250X0*%
%ADD16RoundRect,0.250000X-0.600000X-0.725000X0.600000X-0.725000X0.600000X0.725000X-0.600000X0.725000X0*%
%ADD17O,1.700000X1.950000*%
%ADD18RoundRect,0.250000X0.450000X-0.262500X0.450000X0.262500X-0.450000X0.262500X-0.450000X-0.262500X0*%
%ADD19R,2.000000X2.000000*%
%ADD20C,2.000000*%
%ADD21R,3.200000X2.000000*%
G04 APERTURE END LIST*
D10*
%TO.C,R2*%
X51777500Y-28350000D03*
X53602500Y-28350000D03*
%TD*%
D11*
%TO.C,H4*%
X89190000Y-50550000D03*
%TD*%
D12*
%TO.C,J2*%
X39190000Y-24550000D03*
D13*
X39190000Y-27090000D03*
X39190000Y-29630000D03*
X39190000Y-32170000D03*
%TD*%
D14*
%TO.C,C2*%
X56690000Y-28350000D03*
X56690000Y-26450000D03*
%TD*%
D15*
%TO.C,D2*%
X80252500Y-20750000D03*
X82127500Y-20750000D03*
%TD*%
D16*
%TO.C,J1*%
X50190000Y-44550000D03*
D17*
X52690000Y-44550000D03*
X55190000Y-44550000D03*
X57690000Y-44550000D03*
X60190000Y-44550000D03*
X62690000Y-44550000D03*
X65190000Y-44550000D03*
X67690000Y-44550000D03*
X70190000Y-44550000D03*
%TD*%
D11*
%TO.C,H1*%
X33190000Y-20550000D03*
%TD*%
D15*
%TO.C,D1*%
X73252500Y-20750000D03*
X75127500Y-20750000D03*
%TD*%
D11*
%TO.C,H2*%
X89190000Y-20550000D03*
%TD*%
D14*
%TO.C,C3*%
X56690000Y-32550000D03*
X56690000Y-30650000D03*
%TD*%
D10*
%TO.C,R1*%
X51777500Y-24150000D03*
X53602500Y-24150000D03*
%TD*%
D18*
%TO.C,R4*%
X74190000Y-24862500D03*
X74190000Y-23037500D03*
%TD*%
D19*
%TO.C,SW1*%
X69190000Y-31550000D03*
D20*
X69190000Y-36550000D03*
X69190000Y-34050000D03*
D21*
X76690000Y-28450000D03*
X76690000Y-39650000D03*
D20*
X83690000Y-36550000D03*
X83690000Y-31550000D03*
%TD*%
D10*
%TO.C,R3*%
X51777500Y-32550000D03*
X53602500Y-32550000D03*
%TD*%
D18*
%TO.C,R5*%
X81190000Y-24862500D03*
X81190000Y-23037500D03*
%TD*%
D14*
%TO.C,C1*%
X56690000Y-24150000D03*
X56690000Y-22250000D03*
%TD*%
D11*
%TO.C,H3*%
X33190000Y-50550000D03*
%TD*%
M02*
