%TF.GenerationSoftware,KiCad,Pcbnew,9.0.7*%
%TF.CreationDate,2026-05-19T14:18:52-05:00*%
%TF.ProjectId,SmartWateringFlowerPot,536d6172-7457-4617-9465-72696e67466c,rev?*%
%TF.SameCoordinates,Original*%
%TF.FileFunction,Copper,L2,Bot*%
%TF.FilePolarity,Positive*%
%FSLAX46Y46*%
G04 Gerber Fmt 4.6, Leading zero omitted, Abs format (unit mm)*
G04 Created by KiCad (PCBNEW 9.0.7) date 2026-05-19 14:18:52*
%MOMM*%
%LPD*%
G01*
G04 APERTURE LIST*
G04 Aperture macros list*
%AMRoundRect*
0 Rectangle with rounded corners*
0 $1 Rounding radius*
0 $2 $3 $4 $5 $6 $7 $8 $9 X,Y pos of 4 corners*
0 Add a 4 corners polygon primitive as box body*
4,1,4,$2,$3,$4,$5,$6,$7,$8,$9,$2,$3,0*
0 Add four circle primitives for the rounded corners*
1,1,$1+$1,$2,$3*
1,1,$1+$1,$4,$5*
1,1,$1+$1,$6,$7*
1,1,$1+$1,$8,$9*
0 Add four rect primitives between the rounded corners*
20,1,$1+$1,$2,$3,$4,$5,0*
20,1,$1+$1,$4,$5,$6,$7,0*
20,1,$1+$1,$6,$7,$8,$9,0*
20,1,$1+$1,$8,$9,$2,$3,0*%
G04 Aperture macros list end*
%TA.AperFunction,HeatsinkPad*%
%ADD10O,1.000000X2.100000*%
%TD*%
%TA.AperFunction,HeatsinkPad*%
%ADD11O,1.000000X1.800000*%
%TD*%
%TA.AperFunction,ComponentPad*%
%ADD12RoundRect,0.250000X-0.600000X-0.750000X0.600000X-0.750000X0.600000X0.750000X-0.600000X0.750000X0*%
%TD*%
%TA.AperFunction,ComponentPad*%
%ADD13O,1.700000X2.000000*%
%TD*%
%TA.AperFunction,ComponentPad*%
%ADD14RoundRect,0.250000X-0.600000X-0.725000X0.600000X-0.725000X0.600000X0.725000X-0.600000X0.725000X0*%
%TD*%
%TA.AperFunction,ComponentPad*%
%ADD15O,1.700000X1.950000*%
%TD*%
%TA.AperFunction,HeatsinkPad*%
%ADD16C,0.600000*%
%TD*%
%TA.AperFunction,ComponentPad*%
%ADD17R,1.700000X1.700000*%
%TD*%
%TA.AperFunction,ComponentPad*%
%ADD18C,1.700000*%
%TD*%
%TA.AperFunction,ComponentPad*%
%ADD19RoundRect,0.250000X-0.550000X-0.550000X0.550000X-0.550000X0.550000X0.550000X-0.550000X0.550000X0*%
%TD*%
%TA.AperFunction,ComponentPad*%
%ADD20C,1.600000*%
%TD*%
%TA.AperFunction,SMDPad,CuDef*%
%ADD21RoundRect,0.250000X0.475000X-0.250000X0.475000X0.250000X-0.475000X0.250000X-0.475000X-0.250000X0*%
%TD*%
%TA.AperFunction,SMDPad,CuDef*%
%ADD22RoundRect,0.250000X0.262500X0.450000X-0.262500X0.450000X-0.262500X-0.450000X0.262500X-0.450000X0*%
%TD*%
%TA.AperFunction,ViaPad*%
%ADD23C,0.600000*%
%TD*%
%TA.AperFunction,Conductor*%
%ADD24C,0.200000*%
%TD*%
%ADD25C,0.300000*%
%ADD26C,0.350000*%
%ADD27O,0.600000X1.700000*%
%ADD28O,0.600000X1.400000*%
%ADD29C,0.200000*%
G04 APERTURE END LIST*
D10*
%TO.P,J1,S1,SHIELD*%
%TO.N,GND*%
X70960000Y-108435000D03*
D11*
X70960000Y-112615000D03*
D10*
X79600000Y-108435000D03*
D11*
X79600000Y-112615000D03*
%TD*%
D12*
%TO.P,J4,1,Pin_1*%
%TO.N,Net-(J4-Pin_1)*%
X98580000Y-109630000D03*
D13*
%TO.P,J4,2,Pin_2*%
%TO.N,GND*%
X101080000Y-109630000D03*
%TD*%
D12*
%TO.P,J2,1,Pin_1*%
%TO.N,+5V*%
X98580000Y-101830000D03*
D13*
%TO.P,J2,2,Pin_2*%
%TO.N,Net-(D1-A)*%
X101080000Y-101830000D03*
%TD*%
D14*
%TO.P,J5,1,Pin_1*%
%TO.N,+3V3*%
X86630000Y-109630000D03*
D15*
%TO.P,J5,2,Pin_2*%
%TO.N,GND*%
X89130000Y-109630000D03*
%TO.P,J5,3,Pin_3*%
%TO.N,Net-(J5-Pin_3)*%
X91630000Y-109630000D03*
%TD*%
D16*
%TO.P,U1,41,GND*%
%TO.N,GND*%
X77830000Y-86240000D03*
X77830000Y-87640000D03*
X78530000Y-85540000D03*
X78530000Y-86940000D03*
X78530000Y-88340000D03*
X79230000Y-86240000D03*
X79230000Y-87640000D03*
X79930000Y-85540000D03*
X79930000Y-86940000D03*
X79930000Y-88340000D03*
X80630000Y-86240000D03*
X80630000Y-87640000D03*
%TD*%
D17*
%TO.P,J7,1,Pin_1*%
%TO.N,+3V3*%
X106850000Y-100750000D03*
D18*
%TO.P,J7,2,Pin_2*%
%TO.N,GND*%
X106850000Y-103290000D03*
%TO.P,J7,3,Pin_3*%
%TO.N,Net-(J7-Pin_3)*%
X106850000Y-105830000D03*
%TO.P,J7,4,Pin_4*%
%TO.N,Net-(J7-Pin_4)*%
X106850000Y-108370000D03*
%TO.P,J7,5,Pin_5*%
%TO.N,Net-(J7-Pin_5)*%
X106850000Y-110910000D03*
%TO.P,J7,6,Pin_6*%
%TO.N,Net-(J7-Pin_6)*%
X106850000Y-113450000D03*
%TD*%
D14*
%TO.P,J3,1,Pin_1*%
%TO.N,+3V3*%
X86630000Y-101830000D03*
D15*
%TO.P,J3,2,Pin_2*%
%TO.N,GND*%
X89130000Y-101830000D03*
%TO.P,J3,3,Pin_3*%
%TO.N,Net-(J3-Pin_3)*%
X91630000Y-101830000D03*
%TD*%
D14*
%TO.P,J6,1,Pin_1*%
%TO.N,+3V3*%
X59680000Y-101830000D03*
D15*
%TO.P,J6,2,Pin_2*%
%TO.N,GND*%
X62180000Y-101830000D03*
%TO.P,J6,3,Pin_3*%
%TO.N,Net-(J6-Pin_3)*%
X64680000Y-101830000D03*
%TO.P,J6,4,Pin_4*%
%TO.N,Net-(J6-Pin_4)*%
X67180000Y-101830000D03*
%TO.P,J6,5,Pin_5*%
%TO.N,Net-(J6-Pin_5)*%
X69680000Y-101830000D03*
%TO.P,J6,6,Pin_6*%
%TO.N,Net-(J6-Pin_6)*%
X72180000Y-101830000D03*
%TO.P,J6,7,Pin_7*%
%TO.N,Net-(J6-Pin_7)*%
X74680000Y-101830000D03*
%TO.P,J6,8,Pin_8*%
%TO.N,Net-(J6-Pin_8)*%
X77180000Y-101830000D03*
%TO.P,J6,9,Pin_9*%
%TO.N,Net-(J6-Pin_9)*%
X79680000Y-101830000D03*
%TD*%
D19*
%TO.P,C6,1*%
%TO.N,+5V*%
X108065200Y-77880000D03*
D20*
%TO.P,C6,2*%
%TO.N,GND*%
X110565200Y-77880000D03*
%TD*%
D21*
%TO.P,C4,1*%
%TO.N,Net-(TP5-Pin_1)*%
X106000000Y-73450000D03*
%TO.P,C4,2*%
%TO.N,GND*%
X106000000Y-71550000D03*
%TD*%
D22*
%TO.P,R8,1*%
%TO.N,Net-(J4-Pin_1)*%
X93512500Y-115200000D03*
%TO.P,R8,2*%
%TO.N,+3V3*%
X91687500Y-115200000D03*
%TD*%
D23*
%TO.N,+5V*%
X79372700Y-105120000D03*
X72920000Y-105120000D03*
X78760000Y-106320000D03*
X72950000Y-106320000D03*
%TO.N,GND*%
X110310000Y-65570000D03*
X97710000Y-86570000D03*
X107050000Y-63190000D03*
X61100000Y-103670000D03*
X87200000Y-79580000D03*
X79940000Y-81910000D03*
X60550000Y-109160000D03*
X111821000Y-101480000D03*
X78130000Y-110420000D03*
X112266000Y-72850000D03*
X62550000Y-112230000D03*
X69530000Y-112280000D03*
X69950000Y-90630000D03*
%TO.N,+3V3*%
X63087500Y-93000000D03*
X91687500Y-115200000D03*
%TO.N,Net-(U2-BST)*%
X110430000Y-104490000D03*
X112370000Y-56470000D03*
%TO.N,Net-(U2-SW)*%
X111840000Y-107490000D03*
X111960000Y-81720000D03*
X114530000Y-85630000D03*
X113620000Y-58570000D03*
%TO.N,Net-(D1-A)*%
X111325000Y-94675000D03*
%TO.N,Net-(U1-USB_D-)*%
X73540000Y-109080000D03*
X74230000Y-94440000D03*
%TO.N,Net-(J1-CC2)*%
X73070000Y-111750000D03*
X57490000Y-111800000D03*
X62740000Y-106320000D03*
X74940000Y-109760000D03*
%TO.N,Net-(U1-USB_D+)*%
X73490000Y-95120000D03*
X75780000Y-106360000D03*
%TO.N,Net-(J1-CC1)*%
X75360000Y-104520000D03*
X74050000Y-106780000D03*
%TO.N,Net-(J3-Pin_3)*%
X82930000Y-106360000D03*
X69660000Y-113860000D03*
%TO.N,Net-(J4-Pin_1)*%
X95080000Y-104690000D03*
X93512500Y-115200000D03*
X91290000Y-98280000D03*
%TO.N,Net-(J5-Pin_3)*%
X82600000Y-99180000D03*
X89400000Y-97110000D03*
X93730000Y-104070000D03*
X83190000Y-95680000D03*
%TO.N,Net-(J6-Pin_8)*%
X75237600Y-95420700D03*
%TO.N,Net-(J6-Pin_9)*%
X73799700Y-91553800D03*
%TO.N,Net-(J6-Pin_7)*%
X76576900Y-99796400D03*
%TO.N,Net-(J6-Pin_6)*%
X78051800Y-98329400D03*
X74984700Y-103512500D03*
%TO.N,Net-(J7-Pin_5)*%
X57498000Y-113630000D03*
%TO.N,Net-(J7-Pin_6)*%
X91300000Y-95720000D03*
%TO.N,Net-(Q1-G)*%
X108340000Y-70370000D03*
X64904000Y-109070000D03*
X110270000Y-63030000D03*
X108410000Y-67260000D03*
%TO.N,Net-(U1-IO4)*%
X60550000Y-107630000D03*
X74540000Y-84100000D03*
%TO.N,Net-(TP5-Pin_1)*%
X90740000Y-80490000D03*
X64920000Y-113680000D03*
X107030000Y-73410000D03*
%TO.N,Net-(J6-Pin_3)*%
X73510000Y-92496400D03*
%TO.N,Net-(J6-Pin_4)*%
X67869900Y-106424500D03*
X74739100Y-88552800D03*
X67975000Y-97153700D03*
%TO.N,Net-(J7-Pin_3)*%
X98252200Y-97689900D03*
X104954900Y-106461500D03*
X104201900Y-96979700D03*
%TD*%
D24*
%TO.N,+5V*%
X72920000Y-106290000D02*
X72950000Y-106320000D01*
X72920000Y-106290000D02*
X72950000Y-106320000D01*
X78760000Y-106320000D02*
X78760000Y-105733000D01*
X72920000Y-105120000D02*
X72920000Y-106290000D01*
X78760000Y-105733000D02*
X79372700Y-105120000D01*
%TO.N,GND*%
X101080000Y-109630000D02*
X99779000Y-110931000D01*
X59949000Y-104821000D02*
X59949000Y-108559000D01*
X107809000Y-67011100D02*
X109250000Y-65570000D01*
X62600000Y-112280000D02*
X62550000Y-112230000D01*
X59949000Y-104821000D02*
X59949000Y-108559000D01*
X99779000Y-110931000D02*
X90431000Y-110931000D01*
X106000000Y-71550000D02*
X107809000Y-68393000D01*
X101080000Y-109060000D02*
X106850000Y-103290000D01*
X77640000Y-90630000D02*
X79930000Y-88340000D01*
X106850000Y-103290000D02*
X108660000Y-101480000D01*
X107809000Y-68392800D02*
X107809000Y-67011100D01*
X107050000Y-63190000D02*
X109430000Y-65570000D01*
X69530000Y-112280000D02*
X62600000Y-112280000D01*
X109430000Y-65570000D02*
X110310000Y-65570000D01*
X84170000Y-79580000D02*
X81840000Y-81910000D01*
X89130000Y-109630000D02*
X89130000Y-101830000D01*
X89130000Y-109630000D02*
X86145000Y-112615000D01*
X59949000Y-108559000D02*
X60550000Y-109160000D01*
X69950000Y-90630000D02*
X77640000Y-90630000D01*
X61100000Y-103670000D02*
X59949000Y-104821000D01*
X107050000Y-63190000D02*
X109430000Y-65570000D01*
X101080000Y-109630000D02*
X101080000Y-109060000D01*
X77640000Y-90630000D02*
X79930000Y-88340000D01*
X110565000Y-77880000D02*
X101875000Y-86570000D01*
X81840000Y-81910000D02*
X79940000Y-81910000D01*
X79600000Y-108950000D02*
X79600000Y-108435000D01*
X109250000Y-65570000D02*
X110310000Y-65570000D01*
X86145000Y-112615000D02*
X79600000Y-112615000D01*
X78130000Y-110420000D02*
X79600000Y-108950000D01*
X112266000Y-72850000D02*
X107809000Y-68392800D01*
X84170000Y-79580000D02*
X81840000Y-81910000D01*
X101875000Y-86570000D02*
X97710000Y-86570000D01*
X101080000Y-109630000D02*
X101080000Y-109060000D01*
X69530000Y-112280000D02*
X62600000Y-112280000D01*
X99779000Y-110931000D02*
X90431000Y-110931000D01*
X81840000Y-81910000D02*
X79940000Y-81910000D01*
X107809000Y-67011100D02*
X109250000Y-65570000D01*
X87200000Y-79580000D02*
X84170000Y-79580000D01*
X108660000Y-101480000D02*
X111821000Y-101480000D01*
X78130000Y-110420000D02*
X79600000Y-108950000D01*
X112266000Y-72850000D02*
X107809000Y-68392800D01*
X109250000Y-65570000D02*
X110310000Y-65570000D01*
X59949000Y-108559000D02*
X60550000Y-109160000D01*
X101080000Y-109630000D02*
X99779000Y-110931000D01*
X101875000Y-86570000D02*
X97710000Y-86570000D01*
X90431000Y-110931000D02*
X89130000Y-109630000D01*
X86145000Y-112615000D02*
X79600000Y-112615000D01*
X106850000Y-103290000D02*
X108660000Y-101480000D01*
%TO.N,+3V3*%
X63087500Y-93000000D02*
X59680000Y-93000000D01*
X59680000Y-93000000D02*
X59680000Y-101830000D01*
%TO.N,Net-(U2-BST)*%
X114920000Y-59020000D02*
X114920000Y-59220000D01*
X113680000Y-60460000D02*
X113680000Y-103730000D01*
X112370000Y-56470000D02*
X114920000Y-59020000D01*
X112370000Y-56470000D02*
X114920000Y-59020000D01*
X114920000Y-59220000D02*
X113680000Y-60460000D01*
X114920000Y-59020000D02*
X114920000Y-59220000D01*
X113680000Y-103730000D02*
X112920000Y-104490000D01*
X113680000Y-103730000D02*
X112920000Y-104490000D01*
X112920000Y-104490000D02*
X110430000Y-104490000D01*
X114920000Y-59220000D02*
X113680000Y-60460000D01*
X112920000Y-104490000D02*
X110430000Y-104490000D01*
%TO.N,Net-(U2-SW)*%
X111840000Y-107490000D02*
X114530000Y-104800000D01*
X112930000Y-80750000D02*
X111960000Y-81720000D01*
X112930000Y-80750000D02*
X111960000Y-81720000D01*
X112930000Y-59260000D02*
X112930000Y-80750000D01*
X114530000Y-104800000D02*
X114530000Y-85630000D01*
X111840000Y-107490000D02*
X114530000Y-104800000D01*
X113620000Y-58570000D02*
X112930000Y-59260000D01*
X113620000Y-58570000D02*
X112930000Y-59260000D01*
%TO.N,Net-(D1-A)*%
X111325000Y-94675000D02*
X110910000Y-95090000D01*
X110910000Y-95090000D02*
X107820000Y-95090000D01*
X107820000Y-95090000D02*
X101080000Y-101830000D01*
%TO.N,Net-(U1-USB_D-)*%
X73331100Y-93239000D02*
X71029000Y-95541100D01*
X71029000Y-106569000D02*
X73540000Y-109080000D01*
X71029000Y-95541100D02*
X71029000Y-106569000D01*
X73331100Y-93239000D02*
X71029000Y-95541100D01*
X73828900Y-93239000D02*
X73331100Y-93239000D01*
X74230000Y-93640100D02*
X73828900Y-93239000D01*
X71029000Y-106569000D02*
X73540000Y-109080000D01*
X74230000Y-93640100D02*
X73828900Y-93239000D01*
X74230000Y-94440000D02*
X74230000Y-93640100D01*
X73828900Y-93239000D02*
X73331100Y-93239000D01*
X74230000Y-94440000D02*
X74230000Y-93640100D01*
%TO.N,Net-(J1-CC2)*%
X58759900Y-111800000D02*
X57490000Y-111800000D01*
X74940000Y-109760000D02*
X74940000Y-109880000D01*
X74940000Y-109880000D02*
X73070000Y-111750000D01*
X62740000Y-107820000D02*
X58759900Y-111800000D01*
X74940000Y-109880000D02*
X73070000Y-111750000D01*
X62740000Y-107820000D02*
X58759900Y-111800000D01*
X62740000Y-106320000D02*
X62740000Y-107820000D01*
X58759900Y-111800000D02*
X57490000Y-111800000D01*
%TO.N,Net-(U1-USB_D+)*%
X73490000Y-103959000D02*
X73490000Y-95120000D01*
X75780000Y-106360000D02*
X75780000Y-106249000D01*
X75780000Y-106249000D02*
X73490000Y-103959000D01*
%TO.N,Net-(J1-CC1)*%
X76381000Y-105541000D02*
X76381000Y-106609000D01*
X76381000Y-106609000D02*
X76028900Y-106961000D01*
X76028900Y-106961000D02*
X74231000Y-106961000D01*
X76381000Y-106609000D02*
X76028900Y-106961000D01*
X75360000Y-104520000D02*
X76381000Y-105541000D01*
X75360000Y-104520000D02*
X76381000Y-105541000D01*
X74231000Y-106961000D02*
X74050000Y-106780000D01*
X76381000Y-105541000D02*
X76381000Y-106609000D01*
X74231000Y-106961000D02*
X74050000Y-106780000D01*
%TO.N,Net-(J3-Pin_3)*%
X82930000Y-106360000D02*
X82930000Y-106788000D01*
X75857800Y-113860000D02*
X69660000Y-113860000D01*
X82930000Y-106788000D02*
X75857800Y-113860000D01*
X75857800Y-113860000D02*
X69660000Y-113860000D01*
%TO.N,Net-(J4-Pin_1)*%
X95080000Y-102070000D02*
X91290000Y-98280000D01*
X95080000Y-104690000D02*
X95080000Y-102070000D01*
X95080000Y-102070000D02*
X91290000Y-98280000D01*
%TO.N,Net-(J5-Pin_3)*%
X82600000Y-99180000D02*
X83280000Y-98500000D01*
X89400000Y-97239900D02*
X89400000Y-97110000D01*
X93730000Y-101570000D02*
X89400000Y-97239900D01*
X89400000Y-97239900D02*
X89400000Y-97110000D01*
X83280000Y-98500000D02*
X83280000Y-95770000D01*
X83280000Y-95770000D02*
X83190000Y-95680000D01*
X83280000Y-95770000D02*
X83190000Y-95680000D01*
X93730000Y-104070000D02*
X93730000Y-101570000D01*
X93730000Y-101570000D02*
X89400000Y-97239900D01*
%TO.N,Net-(J6-Pin_8)*%
X77180000Y-97363100D02*
X75237600Y-95420700D01*
X77180000Y-101830000D02*
X77180000Y-97363100D01*
%TO.N,Net-(J6-Pin_9)*%
X79680000Y-101830000D02*
X79680000Y-97434100D01*
X79680000Y-97434100D02*
X73799700Y-91553800D01*
%TO.N,Net-(J6-Pin_7)*%
X76576900Y-99933100D02*
X76576900Y-99796400D01*
X74680000Y-101830000D02*
X76576900Y-99933100D01*
%TO.N,Net-(J6-Pin_6)*%
X78335400Y-102459300D02*
X78335400Y-98613000D01*
X74984700Y-103512500D02*
X77282200Y-103512500D01*
X77282200Y-103512500D02*
X78335400Y-102459300D01*
X78335400Y-98613000D02*
X78051800Y-98329400D01*
%TO.N,Net-(J7-Pin_5)*%
X106850000Y-110910000D02*
X104400000Y-110910000D01*
X104400000Y-116500000D02*
X57498000Y-116500000D01*
X57498000Y-116500000D02*
X57498000Y-113630000D01*
X104400000Y-110910000D02*
X104400000Y-116500000D01*
%TO.N,Net-(J7-Pin_6)*%
X112422000Y-101729000D02*
X112422000Y-94922100D01*
X111574000Y-94074000D02*
X92946000Y-94074000D01*
X106850000Y-113450000D02*
X108001000Y-112299000D01*
X112422000Y-101729000D02*
X112422000Y-94922100D01*
X112070000Y-102081000D02*
X112422000Y-101729000D01*
X112070000Y-102081000D02*
X112422000Y-101729000D01*
X108001000Y-105652000D02*
X111572000Y-102081000D01*
X108001000Y-105652000D02*
X111572000Y-102081000D01*
X92946000Y-94074000D02*
X91300000Y-95720000D01*
X106850000Y-113450000D02*
X108001000Y-112299000D01*
X112422000Y-94922100D02*
X111574000Y-94074000D01*
X92946000Y-94074000D02*
X91300000Y-95720000D01*
X108001000Y-112299000D02*
X108001000Y-105652000D01*
X112422000Y-94922100D02*
X111574000Y-94074000D01*
X111572000Y-102081000D02*
X112070000Y-102081000D01*
X111574000Y-94074000D02*
X92946000Y-94074000D01*
X108001000Y-112299000D02*
X108001000Y-105652000D01*
%TO.N,Net-(Q1-G)*%
X108340000Y-74829900D02*
X108340000Y-70370000D01*
X110911000Y-65818900D02*
X110911000Y-63671000D01*
X69059000Y-113611000D02*
X69059000Y-114109000D01*
X64904000Y-109070000D02*
X67169900Y-109070000D01*
X87862800Y-102819000D02*
X87862800Y-95307200D01*
X70159000Y-112059000D02*
X70159000Y-112511000D01*
X108340000Y-74829900D02*
X108340000Y-70370000D01*
X69411100Y-114461000D02*
X76221200Y-114461000D01*
X70159000Y-112059000D02*
X70159000Y-112511000D01*
X67169900Y-109070000D02*
X70159000Y-112059000D01*
X69059000Y-113611000D02*
X69059000Y-114109000D01*
X70159000Y-112511000D02*
X69059000Y-113611000D01*
X76221200Y-114461000D02*
X87862800Y-102819000D01*
X64904000Y-109070000D02*
X67169900Y-109070000D01*
X76221200Y-114461000D02*
X87862800Y-102819000D01*
X110911000Y-63671000D02*
X110270000Y-63030000D01*
X69059000Y-114109000D02*
X69411100Y-114461000D01*
X110911000Y-65818900D02*
X110911000Y-63671000D01*
X69411100Y-114461000D02*
X76221200Y-114461000D01*
X87862800Y-95307200D02*
X108340000Y-74829900D01*
X87862800Y-102819000D02*
X87862800Y-95307200D01*
X110911000Y-63671000D02*
X110270000Y-63030000D01*
X108410000Y-67260000D02*
X109470000Y-67260000D01*
X109470000Y-67260000D02*
X110911000Y-65818900D01*
X87862800Y-95307200D02*
X108340000Y-74829900D01*
X69059000Y-114109000D02*
X69411100Y-114461000D01*
X109470000Y-67260000D02*
X110911000Y-65818900D01*
X67169900Y-109070000D02*
X70159000Y-112059000D01*
%TO.N,Net-(U1-IO4)*%
X63331000Y-95309000D02*
X74540000Y-84100000D01*
X63331000Y-104698000D02*
X63331000Y-95309000D01*
X60550000Y-107630000D02*
X61907500Y-106272000D01*
X63331000Y-104698000D02*
X63331000Y-95309000D01*
X61907500Y-106272000D02*
X61907500Y-106122000D01*
X63331000Y-95309000D02*
X74540000Y-84100000D01*
X61907500Y-106272000D02*
X61907500Y-106122000D01*
X61907500Y-106122000D02*
X63331000Y-104698000D01*
X61907500Y-106122000D02*
X63331000Y-104698000D01*
%TO.N,Net-(TP5-Pin_1)*%
X61949000Y-112479000D02*
X63150100Y-113680000D01*
X107030000Y-75572800D02*
X107030000Y-73410000D01*
X63150100Y-113680000D02*
X64920000Y-113680000D01*
X71761000Y-111883000D02*
X68346800Y-108469000D01*
X64655100Y-108469000D02*
X61949000Y-111175000D01*
X90740000Y-81330000D02*
X87461800Y-84608200D01*
X87461800Y-84608200D02*
X87461800Y-96182500D01*
X87461800Y-84608200D02*
X87461800Y-96182500D01*
X90740000Y-81330000D02*
X87461800Y-84608200D01*
X87461800Y-96182500D02*
X71761000Y-111883000D01*
X102033000Y-80570000D02*
X107030000Y-75572800D01*
X90740000Y-80490000D02*
X90820000Y-80570000D01*
X90740000Y-80490000D02*
X90740000Y-81330000D01*
X61949000Y-111175000D02*
X61949000Y-112479000D01*
X90740000Y-80490000D02*
X90820000Y-80570000D01*
X107030000Y-75572800D02*
X107030000Y-73410000D01*
X90820000Y-80570000D02*
X102033000Y-80570000D01*
X71761000Y-111883000D02*
X68346800Y-108469000D01*
X68346800Y-108469000D02*
X64655100Y-108469000D01*
X61949000Y-111175000D02*
X61949000Y-112479000D01*
X63150100Y-113680000D02*
X64920000Y-113680000D01*
X68346800Y-108469000D02*
X64655100Y-108469000D01*
X90820000Y-80570000D02*
X102033000Y-80570000D01*
X61949000Y-112479000D02*
X63150100Y-113680000D01*
X90740000Y-80490000D02*
X90740000Y-81330000D01*
X64655100Y-108469000D02*
X61949000Y-111175000D01*
X106000000Y-73450000D02*
X107030000Y-73410000D01*
%TO.N,Net-(J6-Pin_3)*%
X64680000Y-101299600D02*
X73483100Y-92496500D01*
X73483100Y-92496500D02*
X73483100Y-92496400D01*
X64680000Y-101830000D02*
X64680000Y-101299600D01*
X73483100Y-92496400D02*
X73510000Y-92496400D01*
%TO.N,Net-(J6-Pin_4)*%
X67180000Y-101830000D02*
X67180000Y-105734600D01*
X67180000Y-105734600D02*
X67869900Y-106424500D01*
X67975000Y-91687300D02*
X71109500Y-88552800D01*
X67975000Y-97153700D02*
X67975000Y-91687300D01*
X71109500Y-88552800D02*
X74739100Y-88552800D01*
%TO.N,Net-(J7-Pin_3)*%
X103491700Y-97689900D02*
X104201900Y-96979700D01*
X105586400Y-105830000D02*
X104954900Y-106461500D01*
X106850000Y-105830000D02*
X105586400Y-105830000D01*
X98252200Y-97689900D02*
X103491700Y-97689900D01*
%TD*%
%TA.AperFunction,NonConductor*%
G36*
X116812539Y-44700185D02*
G01*
X116858294Y-44752989D01*
X116869500Y-44804500D01*
X116869500Y-124495500D01*
X116849815Y-124562539D01*
X116797011Y-124608294D01*
X116745500Y-124619500D01*
X56104500Y-124619500D01*
X56037461Y-124599815D01*
X55991706Y-124547011D01*
X55980500Y-124495500D01*
X55980500Y-119258711D01*
X59109500Y-119258711D01*
X59109500Y-119501288D01*
X59141161Y-119741785D01*
X59203947Y-119976104D01*
X59296773Y-120200205D01*
X59296776Y-120200212D01*
X59418064Y-120410289D01*
X59418066Y-120410292D01*
X59418067Y-120410293D01*
X59565733Y-120602736D01*
X59565739Y-120602743D01*
X59737256Y-120774260D01*
X59737262Y-120774265D01*
X59929711Y-120921936D01*
X60139788Y-121043224D01*
X60363900Y-121136054D01*
X60598211Y-121198838D01*
X60778586Y-121222584D01*
X60838711Y-121230500D01*
X60838712Y-121230500D01*
X61081289Y-121230500D01*
X61129388Y-121224167D01*
X61321789Y-121198838D01*
X61556100Y-121136054D01*
X61780212Y-121043224D01*
X61990289Y-120921936D01*
X62182738Y-120774265D01*
X62354265Y-120602738D01*
X62501936Y-120410289D01*
X62623224Y-120200212D01*
X62716054Y-119976100D01*
X62778838Y-119741789D01*
X62810500Y-119501288D01*
X62810500Y-119258712D01*
X62810500Y-119258711D01*
X109909500Y-119258711D01*
X109909500Y-119501288D01*
X109941161Y-119741785D01*
X110003947Y-119976104D01*
X110096773Y-120200205D01*
X110096776Y-120200212D01*
X110218064Y-120410289D01*
X110218066Y-120410292D01*
X110218067Y-120410293D01*
X110365733Y-120602736D01*
X110365739Y-120602743D01*
X110537256Y-120774260D01*
X110537262Y-120774265D01*
X110729711Y-120921936D01*
X110939788Y-121043224D01*
X111163900Y-121136054D01*
X111398211Y-121198838D01*
X111578586Y-121222584D01*
X111638711Y-121230500D01*
X111638712Y-121230500D01*
X111881289Y-121230500D01*
X111929388Y-121224167D01*
X112121789Y-121198838D01*
X112356100Y-121136054D01*
X112580212Y-121043224D01*
X112790289Y-120921936D01*
X112982738Y-120774265D01*
X113154265Y-120602738D01*
X113301936Y-120410289D01*
X113423224Y-120200212D01*
X113516054Y-119976100D01*
X113578838Y-119741789D01*
X113610500Y-119501288D01*
X113610500Y-119258712D01*
X113578838Y-119018211D01*
X113516054Y-118783900D01*
X113423224Y-118559788D01*
X113301936Y-118349711D01*
X113154265Y-118157262D01*
X113154260Y-118157256D01*
X112982743Y-117985739D01*
X112982736Y-117985733D01*
X112790293Y-117838067D01*
X112790292Y-117838066D01*
X112790289Y-117838064D01*
X112580212Y-117716776D01*
X112580205Y-117716773D01*
X112356104Y-117623947D01*
X112121785Y-117561161D01*
X111881289Y-117529500D01*
X111881288Y-117529500D01*
X111638712Y-117529500D01*
X111638711Y-117529500D01*
X111398214Y-117561161D01*
X111163895Y-117623947D01*
X110939794Y-117716773D01*
X110939785Y-117716777D01*
X110729706Y-117838067D01*
X110537263Y-117985733D01*
X110537256Y-117985739D01*
X110365739Y-118157256D01*
X110365733Y-118157263D01*
X110218067Y-118349706D01*
X110096777Y-118559785D01*
X110096773Y-118559794D01*
X110003947Y-118783895D01*
X109941161Y-119018214D01*
X109909500Y-119258711D01*
X62810500Y-119258711D01*
X62778838Y-119018211D01*
X62716054Y-118783900D01*
X62623224Y-118559788D01*
X62501936Y-118349711D01*
X62354265Y-118157262D01*
X62354260Y-118157256D01*
X62182743Y-117985739D01*
X62182736Y-117985733D01*
X61990293Y-117838067D01*
X61990292Y-117838066D01*
X61990289Y-117838064D01*
X61780212Y-117716776D01*
X61780205Y-117716773D01*
X61556104Y-117623947D01*
X61321785Y-117561161D01*
X61081289Y-117529500D01*
X61081288Y-117529500D01*
X60838712Y-117529500D01*
X60838711Y-117529500D01*
X60598214Y-117561161D01*
X60363895Y-117623947D01*
X60139794Y-117716773D01*
X60139785Y-117716777D01*
X59929706Y-117838067D01*
X59737263Y-117985733D01*
X59737256Y-117985739D01*
X59565739Y-118157256D01*
X59565733Y-118157263D01*
X59418067Y-118349706D01*
X59296777Y-118559785D01*
X59296773Y-118559794D01*
X59203947Y-118783895D01*
X59141161Y-119018214D01*
X59109500Y-119258711D01*
X55980500Y-119258711D01*
X55980500Y-101050730D01*
X58629500Y-101050730D01*
X58629500Y-102609269D01*
X58632353Y-102639699D01*
X58632353Y-102639701D01*
X58677206Y-102767880D01*
X58677207Y-102767882D01*
X58757850Y-102877150D01*
X58867118Y-102957793D01*
X58888089Y-102965131D01*
X58995299Y-103002646D01*
X59025730Y-103005500D01*
X59025734Y-103005500D01*
X60334270Y-103005500D01*
X60364699Y-103002646D01*
X60364701Y-103002646D01*
X60430235Y-102979714D01*
X60492882Y-102957793D01*
X60602150Y-102877150D01*
X60682793Y-102767882D01*
X60711643Y-102685433D01*
X60727646Y-102639701D01*
X60727646Y-102639699D01*
X60730500Y-102609269D01*
X60730500Y-101050730D01*
X60727646Y-101020300D01*
X60727646Y-101020298D01*
X60686793Y-100903549D01*
X60682793Y-100892118D01*
X60602150Y-100782850D01*
X60492882Y-100702207D01*
X60492880Y-100702206D01*
X60364700Y-100657353D01*
X60334270Y-100654500D01*
X60334266Y-100654500D01*
X60104500Y-100654500D01*
X60037461Y-100634815D01*
X59991706Y-100582011D01*
X59980500Y-100530500D01*
X59980500Y-93424500D01*
X60000185Y-93357461D01*
X60052989Y-93311706D01*
X60104500Y-93300500D01*
X62628824Y-93300500D01*
X62695863Y-93320185D01*
X62716505Y-93336819D01*
X62780186Y-93400500D01*
X62894314Y-93466392D01*
X63021608Y-93500500D01*
X63021610Y-93500500D01*
X63153390Y-93500500D01*
X63153392Y-93500500D01*
X63280686Y-93466392D01*
X63394814Y-93400500D01*
X63488000Y-93307314D01*
X63553892Y-93193186D01*
X63588000Y-93065892D01*
X63588000Y-92934108D01*
X63553892Y-92806814D01*
X63488000Y-92692686D01*
X63394814Y-92599500D01*
X63330365Y-92562290D01*
X63280687Y-92533608D01*
X63217039Y-92516554D01*
X63153392Y-92499500D01*
X63021608Y-92499500D01*
X62894312Y-92533608D01*
X62780186Y-92599500D01*
X62780183Y-92599502D01*
X62716505Y-92663181D01*
X62655182Y-92696666D01*
X62628824Y-92699500D01*
X59719562Y-92699500D01*
X59640438Y-92699500D01*
X59602224Y-92709739D01*
X59564009Y-92719979D01*
X59564004Y-92719982D01*
X59495495Y-92759535D01*
X59495487Y-92759541D01*
X59439541Y-92815487D01*
X59439535Y-92815495D01*
X59399982Y-92884004D01*
X59399979Y-92884009D01*
X59379500Y-92960439D01*
X59379500Y-100530500D01*
X59359815Y-100597539D01*
X59307011Y-100643294D01*
X59255500Y-100654500D01*
X59025730Y-100654500D01*
X58995300Y-100657353D01*
X58995298Y-100657353D01*
X58867119Y-100702206D01*
X58867117Y-100702207D01*
X58757850Y-100782850D01*
X58677207Y-100892117D01*
X58677206Y-100892119D01*
X58632353Y-101020298D01*
X58632353Y-101020300D01*
X58629500Y-101050730D01*
X55980500Y-101050730D01*
X55980500Y-81844108D01*
X79439500Y-81844108D01*
X79439500Y-81975891D01*
X79473608Y-82103187D01*
X79500902Y-82150460D01*
X79539500Y-82217314D01*
X79632686Y-82310500D01*
X79746814Y-82376392D01*
X79874108Y-82410500D01*
X79874110Y-82410500D01*
X80005890Y-82410500D01*
X80005892Y-82410500D01*
X80133186Y-82376392D01*
X80247314Y-82310500D01*
X80310995Y-82246819D01*
X80372318Y-82213334D01*
X80398676Y-82210500D01*
X81879560Y-82210500D01*
X81879562Y-82210500D01*
X81955989Y-82190021D01*
X82024511Y-82150460D01*
X82080460Y-82094511D01*
X84258152Y-79916819D01*
X84319475Y-79883334D01*
X84345833Y-79880500D01*
X86741324Y-79880500D01*
X86808363Y-79900185D01*
X86829005Y-79916819D01*
X86892686Y-79980500D01*
X87006814Y-80046392D01*
X87134108Y-80080500D01*
X87134110Y-80080500D01*
X87265890Y-80080500D01*
X87265892Y-80080500D01*
X87393186Y-80046392D01*
X87507314Y-79980500D01*
X87600500Y-79887314D01*
X87666392Y-79773186D01*
X87700500Y-79645892D01*
X87700500Y-79514108D01*
X87666392Y-79386814D01*
X87600500Y-79272686D01*
X87507314Y-79179500D01*
X87450250Y-79146554D01*
X87393187Y-79113608D01*
X87329539Y-79096554D01*
X87265892Y-79079500D01*
X87134108Y-79079500D01*
X87006812Y-79113608D01*
X86892686Y-79179500D01*
X86892683Y-79179502D01*
X86829005Y-79243181D01*
X86767682Y-79276666D01*
X86741324Y-79279500D01*
X84130438Y-79279500D01*
X84054010Y-79299978D01*
X83985489Y-79339540D01*
X83985486Y-79339542D01*
X81751848Y-81573181D01*
X81690525Y-81606666D01*
X81664167Y-81609500D01*
X80398676Y-81609500D01*
X80331637Y-81589815D01*
X80310995Y-81573181D01*
X80247316Y-81509502D01*
X80247314Y-81509500D01*
X80190250Y-81476554D01*
X80133187Y-81443608D01*
X80017782Y-81412686D01*
X80005892Y-81409500D01*
X79874108Y-81409500D01*
X79746812Y-81443608D01*
X79632686Y-81509500D01*
X79632683Y-81509502D01*
X79539502Y-81602683D01*
X79539500Y-81602686D01*
X79473608Y-81716812D01*
X79439500Y-81844108D01*
X55980500Y-81844108D01*
X55980500Y-56730000D01*
X56730000Y-56730000D01*
X56730000Y-77730000D01*
X104148570Y-77730000D01*
X104215609Y-77749685D01*
X104261364Y-77802489D01*
X104271308Y-77871647D01*
X104242283Y-77935203D01*
X104236259Y-77941671D01*
X102088518Y-80089500D01*
X101944845Y-80233179D01*
X101883523Y-80266666D01*
X101857162Y-80269500D01*
X91262213Y-80269500D01*
X91195174Y-80249815D01*
X91154828Y-80207503D01*
X91140500Y-80182686D01*
X91047314Y-80089500D01*
X90972649Y-80046392D01*
X90933187Y-80023608D01*
X90869539Y-80006554D01*
X90805892Y-79989500D01*
X90674108Y-79989500D01*
X90546812Y-80023608D01*
X90432686Y-80089500D01*
X90432683Y-80089502D01*
X90339502Y-80182683D01*
X90339500Y-80182686D01*
X90273608Y-80296812D01*
X90239500Y-80424108D01*
X90239500Y-80555892D01*
X90256554Y-80619539D01*
X90273608Y-80683187D01*
X90306554Y-80740250D01*
X90339500Y-80797314D01*
X90339502Y-80797316D01*
X90403181Y-80860995D01*
X90417884Y-80887922D01*
X90434477Y-80913741D01*
X90435368Y-80919941D01*
X90436666Y-80922318D01*
X90439500Y-80948676D01*
X90439500Y-81154167D01*
X90419815Y-81221206D01*
X90403181Y-81241848D01*
X87221341Y-84423687D01*
X87221335Y-84423695D01*
X87181782Y-84492204D01*
X87181779Y-84492209D01*
X87161300Y-84568639D01*
X87161300Y-96006663D01*
X87141615Y-96073702D01*
X87124980Y-96094345D01*
X80912714Y-102306492D01*
X80851391Y-102339976D01*
X80781699Y-102334991D01*
X80725766Y-102293119D01*
X80701350Y-102227655D01*
X80703416Y-102194622D01*
X80730500Y-102058465D01*
X80730500Y-101601535D01*
X80690130Y-101398580D01*
X80610941Y-101207402D01*
X80495977Y-101035345D01*
X80495975Y-101035342D01*
X80349657Y-100889024D01*
X80177595Y-100774057D01*
X80057047Y-100724124D01*
X80002643Y-100680282D01*
X79980579Y-100613988D01*
X79980500Y-100609563D01*
X79980500Y-99114108D01*
X82099500Y-99114108D01*
X82099500Y-99245892D01*
X82116554Y-99309539D01*
X82133608Y-99373187D01*
X82145150Y-99393178D01*
X82199500Y-99487314D01*
X82292686Y-99580500D01*
X82406814Y-99646392D01*
X82534108Y-99680500D01*
X82534110Y-99680500D01*
X82665890Y-99680500D01*
X82665892Y-99680500D01*
X82793186Y-99646392D01*
X82907314Y-99580500D01*
X83000500Y-99487314D01*
X83066392Y-99373186D01*
X83100500Y-99245892D01*
X83100500Y-99155832D01*
X83120185Y-99088793D01*
X83136819Y-99068151D01*
X83287359Y-98917611D01*
X83520460Y-98684511D01*
X83538533Y-98653207D01*
X83560021Y-98615989D01*
X83580500Y-98539562D01*
X83580500Y-96037860D01*
X83597112Y-95975860D01*
X83656392Y-95873186D01*
X83690500Y-95745892D01*
X83690500Y-95614108D01*
X83656392Y-95486814D01*
X83654208Y-95483032D01*
X83624555Y-95431671D01*
X83590500Y-95372686D01*
X83497314Y-95279500D01*
X83407272Y-95227514D01*
X83383187Y-95213608D01*
X83279747Y-95185892D01*
X83255892Y-95179500D01*
X83124108Y-95179500D01*
X82996812Y-95213608D01*
X82882686Y-95279500D01*
X82882683Y-95279502D01*
X82789502Y-95372683D01*
X82789500Y-95372686D01*
X82723608Y-95486812D01*
X82689500Y-95614108D01*
X82689500Y-95745891D01*
X82723608Y-95873187D01*
X82750153Y-95919163D01*
X82789500Y-95987314D01*
X82882686Y-96080500D01*
X82917501Y-96100600D01*
X82965714Y-96151163D01*
X82979500Y-96207986D01*
X82979500Y-98324166D01*
X82959815Y-98391205D01*
X82943181Y-98411847D01*
X82711847Y-98643181D01*
X82650524Y-98676666D01*
X82624166Y-98679500D01*
X82534108Y-98679500D01*
X82406812Y-98713608D01*
X82292686Y-98779500D01*
X82292683Y-98779502D01*
X82199502Y-98872683D01*
X82199500Y-98872686D01*
X82133608Y-98986812D01*
X82111814Y-99068151D01*
X82099500Y-99114108D01*
X79980500Y-99114108D01*
X79980500Y-97394539D01*
X79977297Y-97382586D01*
X79960021Y-97318111D01*
X79943445Y-97289400D01*
X79920464Y-97249595D01*
X79920458Y-97249587D01*
X74336519Y-91665648D01*
X74303034Y-91604325D01*
X74300200Y-91577967D01*
X74300200Y-91487910D01*
X74300200Y-91487908D01*
X74266092Y-91360614D01*
X74200200Y-91246486D01*
X74107014Y-91153300D01*
X74107012Y-91153299D01*
X74106461Y-91152876D01*
X74106111Y-91152397D01*
X74101267Y-91147553D01*
X74102022Y-91146797D01*
X74065258Y-91096449D01*
X74061103Y-91026703D01*
X74095315Y-90965782D01*
X74157032Y-90933029D01*
X74181947Y-90930500D01*
X77679560Y-90930500D01*
X77679562Y-90930500D01*
X77755989Y-90910021D01*
X77824511Y-90870460D01*
X77880460Y-90814511D01*
X79818151Y-88876818D01*
X79879474Y-88843334D01*
X79905832Y-88840500D01*
X79995890Y-88840500D01*
X79995892Y-88840500D01*
X80123186Y-88806392D01*
X80237314Y-88740500D01*
X80330500Y-88647314D01*
X80396392Y-88533186D01*
X80430500Y-88405892D01*
X80430500Y-88274108D01*
X80430500Y-88265981D01*
X80433599Y-88265981D01*
X80442089Y-88211451D01*
X80488457Y-88159184D01*
X80555722Y-88140283D01*
X80558754Y-88140500D01*
X80564108Y-88140500D01*
X80695890Y-88140500D01*
X80695892Y-88140500D01*
X80823186Y-88106392D01*
X80937314Y-88040500D01*
X81030500Y-87947314D01*
X81096392Y-87833186D01*
X81130500Y-87705892D01*
X81130500Y-87574108D01*
X81096392Y-87446814D01*
X81030500Y-87332686D01*
X80937314Y-87239500D01*
X80880250Y-87206554D01*
X80823187Y-87173608D01*
X80759539Y-87156554D01*
X80695892Y-87139500D01*
X80564108Y-87139500D01*
X80555981Y-87139500D01*
X80555981Y-87136412D01*
X80553537Y-87136030D01*
X80536628Y-87138462D01*
X80519734Y-87130746D01*
X80501386Y-87127879D01*
X80488612Y-87116534D01*
X80473072Y-87109437D01*
X80463031Y-87093813D01*
X80449146Y-87081481D01*
X80444337Y-87064724D01*
X80435298Y-87050659D01*
X80433452Y-87026794D01*
X80430275Y-87015724D01*
X80430275Y-87006731D01*
X80430500Y-87005892D01*
X80430500Y-86874108D01*
X80430275Y-86873268D01*
X80430275Y-86864275D01*
X80437916Y-86838252D01*
X80442089Y-86811451D01*
X80447615Y-86805221D01*
X80449960Y-86797236D01*
X80470452Y-86779479D01*
X80488457Y-86759184D01*
X80496474Y-86756931D01*
X80502764Y-86751481D01*
X80529605Y-86747621D01*
X80555722Y-86740283D01*
X80558754Y-86740500D01*
X80564108Y-86740500D01*
X80695890Y-86740500D01*
X80695892Y-86740500D01*
X80823186Y-86706392D01*
X80937314Y-86640500D01*
X81030500Y-86547314D01*
X81096392Y-86433186D01*
X81130500Y-86305892D01*
X81130500Y-86174108D01*
X81096392Y-86046814D01*
X81030500Y-85932686D01*
X80937314Y-85839500D01*
X80880250Y-85806554D01*
X80823187Y-85773608D01*
X80759539Y-85756554D01*
X80695892Y-85739500D01*
X80564108Y-85739500D01*
X80555981Y-85739500D01*
X80555981Y-85736412D01*
X80501386Y-85727879D01*
X80449146Y-85681481D01*
X80430284Y-85614206D01*
X80430500Y-85611201D01*
X80430500Y-85474110D01*
X80430500Y-85474108D01*
X80396392Y-85346814D01*
X80330500Y-85232686D01*
X80237314Y-85139500D01*
X80180250Y-85106554D01*
X80123187Y-85073608D01*
X80059539Y-85056554D01*
X79995892Y-85039500D01*
X79864108Y-85039500D01*
X79736812Y-85073608D01*
X79622686Y-85139500D01*
X79622683Y-85139502D01*
X79529502Y-85232683D01*
X79529500Y-85232686D01*
X79463608Y-85346812D01*
X79429500Y-85474108D01*
X79429500Y-85614019D01*
X79426411Y-85614019D01*
X79426030Y-85616457D01*
X79428462Y-85633371D01*
X79420748Y-85650260D01*
X79417883Y-85668604D01*
X79406536Y-85681381D01*
X79399437Y-85696927D01*
X79383817Y-85706964D01*
X79371489Y-85720848D01*
X79354729Y-85725658D01*
X79340659Y-85734701D01*
X79316758Y-85736556D01*
X79305724Y-85739724D01*
X79296728Y-85739724D01*
X79295892Y-85739500D01*
X79164108Y-85739500D01*
X79163272Y-85739724D01*
X79154275Y-85739724D01*
X79128219Y-85732073D01*
X79101386Y-85727879D01*
X79095187Y-85722373D01*
X79087236Y-85720039D01*
X79069455Y-85699519D01*
X79049146Y-85681481D01*
X79046907Y-85673497D01*
X79041481Y-85667235D01*
X79037616Y-85640359D01*
X79030284Y-85614206D01*
X79030500Y-85611201D01*
X79030500Y-85474110D01*
X79030500Y-85474108D01*
X78996392Y-85346814D01*
X78930500Y-85232686D01*
X78837314Y-85139500D01*
X78780250Y-85106554D01*
X78723187Y-85073608D01*
X78659539Y-85056554D01*
X78595892Y-85039500D01*
X78464108Y-85039500D01*
X78336812Y-85073608D01*
X78222686Y-85139500D01*
X78222683Y-85139502D01*
X78129502Y-85232683D01*
X78129500Y-85232686D01*
X78063608Y-85346812D01*
X78029500Y-85474108D01*
X78029500Y-85614019D01*
X78026411Y-85614019D01*
X78017883Y-85668604D01*
X77971489Y-85720848D01*
X77904215Y-85739715D01*
X77901208Y-85739500D01*
X77895892Y-85739500D01*
X77764108Y-85739500D01*
X77636812Y-85773608D01*
X77522686Y-85839500D01*
X77522683Y-85839502D01*
X77429502Y-85932683D01*
X77429500Y-85932686D01*
X77363608Y-86046812D01*
X77329500Y-86174108D01*
X77329500Y-86305891D01*
X77363608Y-86433187D01*
X77367253Y-86439500D01*
X77429500Y-86547314D01*
X77522686Y-86640500D01*
X77636814Y-86706392D01*
X77764108Y-86740500D01*
X77764110Y-86740500D01*
X77904019Y-86740500D01*
X77904019Y-86743600D01*
X77906421Y-86743974D01*
X77923371Y-86741537D01*
X77940227Y-86749235D01*
X77958540Y-86752085D01*
X77971351Y-86763448D01*
X77986927Y-86770562D01*
X77996945Y-86786150D01*
X78010810Y-86798449D01*
X78015630Y-86815226D01*
X78024701Y-86829340D01*
X78026559Y-86853260D01*
X78029724Y-86864275D01*
X78029724Y-86873272D01*
X78029500Y-86874108D01*
X78029500Y-87005892D01*
X78029724Y-87006727D01*
X78029724Y-87015724D01*
X78022074Y-87041774D01*
X78017883Y-87068604D01*
X78012375Y-87074806D01*
X78010039Y-87082763D01*
X77989522Y-87100540D01*
X77971489Y-87120848D01*
X77963501Y-87123088D01*
X77957235Y-87128518D01*
X77930362Y-87132381D01*
X77904215Y-87139715D01*
X77901208Y-87139500D01*
X77895892Y-87139500D01*
X77764108Y-87139500D01*
X77636812Y-87173608D01*
X77522686Y-87239500D01*
X77522683Y-87239502D01*
X77429502Y-87332683D01*
X77429500Y-87332686D01*
X77363608Y-87446812D01*
X77329500Y-87574108D01*
X77329500Y-87705891D01*
X77363608Y-87833187D01*
X77367253Y-87839500D01*
X77429500Y-87947314D01*
X77522686Y-88040500D01*
X77636814Y-88106392D01*
X77764108Y-88140500D01*
X77764110Y-88140500D01*
X77904019Y-88140500D01*
X77904019Y-88143600D01*
X77958540Y-88152085D01*
X78010810Y-88198449D01*
X78029716Y-88265712D01*
X78029500Y-88268745D01*
X78029500Y-88274108D01*
X78029500Y-88405892D01*
X78046554Y-88469539D01*
X78063608Y-88533187D01*
X78077953Y-88558033D01*
X78129500Y-88647314D01*
X78222686Y-88740500D01*
X78336814Y-88806392D01*
X78464108Y-88840500D01*
X78464110Y-88840500D01*
X78595890Y-88840500D01*
X78595892Y-88840500D01*
X78707096Y-88810703D01*
X78776944Y-88812366D01*
X78834807Y-88851529D01*
X78862311Y-88915757D01*
X78850725Y-88984659D01*
X78826869Y-89018159D01*
X77551848Y-90293181D01*
X77490525Y-90326666D01*
X77464167Y-90329500D01*
X70408676Y-90329500D01*
X70341637Y-90309815D01*
X70320995Y-90293181D01*
X70257316Y-90229502D01*
X70257314Y-90229500D01*
X70143962Y-90164056D01*
X70095747Y-90113489D01*
X70082525Y-90044881D01*
X70108493Y-89980017D01*
X70118274Y-89968996D01*
X71197652Y-88889619D01*
X71258975Y-88856134D01*
X71285333Y-88853300D01*
X74280424Y-88853300D01*
X74347463Y-88872985D01*
X74368105Y-88889619D01*
X74431786Y-88953300D01*
X74545914Y-89019192D01*
X74673208Y-89053300D01*
X74673210Y-89053300D01*
X74804990Y-89053300D01*
X74804992Y-89053300D01*
X74932286Y-89019192D01*
X75046414Y-88953300D01*
X75139600Y-88860114D01*
X75205492Y-88745986D01*
X75239600Y-88618692D01*
X75239600Y-88486908D01*
X75205492Y-88359614D01*
X75139600Y-88245486D01*
X75046414Y-88152300D01*
X74989350Y-88119354D01*
X74932287Y-88086408D01*
X74868639Y-88069354D01*
X74804992Y-88052300D01*
X74673208Y-88052300D01*
X74545912Y-88086408D01*
X74431786Y-88152300D01*
X74431783Y-88152302D01*
X74368105Y-88215981D01*
X74306782Y-88249466D01*
X74280424Y-88252300D01*
X71112032Y-88252300D01*
X71044993Y-88232615D01*
X70999238Y-88179811D01*
X70989294Y-88110653D01*
X71018319Y-88047097D01*
X71024351Y-88040619D01*
X74428151Y-84636819D01*
X74489474Y-84603334D01*
X74515832Y-84600500D01*
X74605890Y-84600500D01*
X74605892Y-84600500D01*
X74733186Y-84566392D01*
X74847314Y-84500500D01*
X74940500Y-84407314D01*
X75006392Y-84293186D01*
X75040500Y-84165892D01*
X75040500Y-84034108D01*
X75006392Y-83906814D01*
X74940500Y-83792686D01*
X74847314Y-83699500D01*
X74790250Y-83666554D01*
X74733187Y-83633608D01*
X74669539Y-83616554D01*
X74605892Y-83599500D01*
X74474108Y-83599500D01*
X74346812Y-83633608D01*
X74232686Y-83699500D01*
X74232683Y-83699502D01*
X74139502Y-83792683D01*
X74139500Y-83792686D01*
X74073608Y-83906812D01*
X74039500Y-84034108D01*
X74039500Y-84124166D01*
X74019815Y-84191205D01*
X74003181Y-84211847D01*
X63146489Y-95068540D01*
X63090541Y-95124487D01*
X63090535Y-95124495D01*
X63050982Y-95193004D01*
X63050979Y-95193009D01*
X63030500Y-95269439D01*
X63030500Y-100777871D01*
X63010815Y-100844910D01*
X62958011Y-100890665D01*
X62888853Y-100900609D01*
X62837610Y-100880974D01*
X62699968Y-100789006D01*
X62677598Y-100774059D01*
X62677593Y-100774057D01*
X62486420Y-100694870D01*
X62486412Y-100694868D01*
X62283469Y-100654500D01*
X62283465Y-100654500D01*
X62076535Y-100654500D01*
X62076530Y-100654500D01*
X61873587Y-100694868D01*
X61873579Y-100694870D01*
X61682403Y-100774058D01*
X61510342Y-100889024D01*
X61364024Y-101035342D01*
X61249058Y-101207403D01*
X61169870Y-101398579D01*
X61169868Y-101398587D01*
X61129500Y-101601530D01*
X61129500Y-102058469D01*
X61169868Y-102261412D01*
X61169870Y-102261420D01*
X61211702Y-102362412D01*
X61249059Y-102452598D01*
X61297444Y-102525012D01*
X61364024Y-102624657D01*
X61510342Y-102770975D01*
X61510345Y-102770977D01*
X61682402Y-102885941D01*
X61873580Y-102965130D01*
X62066536Y-103003511D01*
X62076530Y-103005499D01*
X62076534Y-103005500D01*
X62076535Y-103005500D01*
X62283466Y-103005500D01*
X62283467Y-103005499D01*
X62486420Y-102965130D01*
X62677598Y-102885941D01*
X62677599Y-102885940D01*
X62677600Y-102885940D01*
X62837610Y-102779026D01*
X62904287Y-102758148D01*
X62971667Y-102776633D01*
X63018357Y-102828612D01*
X63030500Y-102882128D01*
X63030500Y-104522208D01*
X63010815Y-104589247D01*
X62994197Y-104609874D01*
X61692771Y-105911756D01*
X61692662Y-105911866D01*
X61667040Y-105937489D01*
X61667027Y-105937510D01*
X61667007Y-105937531D01*
X61666734Y-105938003D01*
X61666732Y-105938006D01*
X61652288Y-105963036D01*
X61647399Y-105971508D01*
X61627479Y-106006011D01*
X61627472Y-106006036D01*
X61627458Y-106006061D01*
X61627376Y-106006365D01*
X61627375Y-106006368D01*
X61618882Y-106038085D01*
X61616948Y-106045310D01*
X61607000Y-106082438D01*
X61607000Y-106082464D01*
X61606993Y-106082491D01*
X61606993Y-106082692D01*
X61606993Y-106082693D01*
X61606995Y-106096198D01*
X61587320Y-106163240D01*
X61570692Y-106183880D01*
X60661744Y-107093165D01*
X60641380Y-107104289D01*
X60623578Y-107119178D01*
X60608296Y-107122362D01*
X60600428Y-107126661D01*
X60589545Y-107128528D01*
X60581829Y-107129500D01*
X60484108Y-107129500D01*
X60397403Y-107152732D01*
X60388998Y-107153791D01*
X60362538Y-107149512D01*
X60335743Y-107148875D01*
X60328571Y-107144020D01*
X60320024Y-107142639D01*
X60300077Y-107124735D01*
X60277881Y-107109712D01*
X60274472Y-107101752D01*
X60268028Y-107095968D01*
X60260927Y-107070121D01*
X60250377Y-107045484D01*
X60249500Y-107030763D01*
X60249500Y-104996832D01*
X60269185Y-104929793D01*
X60285815Y-104909155D01*
X60988151Y-104206818D01*
X61049474Y-104173334D01*
X61075832Y-104170500D01*
X61165890Y-104170500D01*
X61165892Y-104170500D01*
X61293186Y-104136392D01*
X61407314Y-104070500D01*
X61500500Y-103977314D01*
X61566392Y-103863186D01*
X61600500Y-103735892D01*
X61600500Y-103604108D01*
X61566392Y-103476814D01*
X61500500Y-103362686D01*
X61407314Y-103269500D01*
X61350250Y-103236554D01*
X61293187Y-103203608D01*
X61227225Y-103185934D01*
X61165892Y-103169500D01*
X61034108Y-103169500D01*
X60906812Y-103203608D01*
X60792686Y-103269500D01*
X60792683Y-103269502D01*
X60699502Y-103362683D01*
X60699500Y-103362686D01*
X60633608Y-103476812D01*
X60599500Y-103604108D01*
X60599500Y-103694166D01*
X60579815Y-103761205D01*
X60563181Y-103781847D01*
X59764489Y-104580540D01*
X59708541Y-104636487D01*
X59708535Y-104636495D01*
X59668982Y-104705004D01*
X59668979Y-104705009D01*
X59660271Y-104737508D01*
X59648500Y-104781438D01*
X59648500Y-108598562D01*
X59659554Y-108639815D01*
X59668980Y-108674993D01*
X59668981Y-108674994D01*
X59684543Y-108701947D01*
X59687341Y-108706793D01*
X59690847Y-108712865D01*
X59708539Y-108743510D01*
X60013181Y-109048152D01*
X60046666Y-109109475D01*
X60049500Y-109135833D01*
X60049500Y-109225891D01*
X60083608Y-109353187D01*
X60103312Y-109387314D01*
X60149500Y-109467314D01*
X60242686Y-109560500D01*
X60313080Y-109601142D01*
X60361296Y-109651709D01*
X60374519Y-109720316D01*
X60348551Y-109785181D01*
X60338760Y-109796211D01*
X58885437Y-111249500D01*
X58736076Y-111398858D01*
X58671750Y-111463182D01*
X58610427Y-111496667D01*
X58584070Y-111499500D01*
X57948676Y-111499500D01*
X57881637Y-111479815D01*
X57860995Y-111463181D01*
X57797316Y-111399502D01*
X57797314Y-111399500D01*
X57710712Y-111349500D01*
X57683187Y-111333608D01*
X57619539Y-111316554D01*
X57555892Y-111299500D01*
X57424108Y-111299500D01*
X57296812Y-111333608D01*
X57182686Y-111399500D01*
X57182683Y-111399502D01*
X57089502Y-111492683D01*
X57089500Y-111492686D01*
X57023608Y-111606812D01*
X56989500Y-111734108D01*
X56989500Y-111865891D01*
X57023608Y-111993187D01*
X57049295Y-112037677D01*
X57089500Y-112107314D01*
X57182686Y-112200500D01*
X57296814Y-112266392D01*
X57424108Y-112300500D01*
X57424110Y-112300500D01*
X57555890Y-112300500D01*
X57555892Y-112300500D01*
X57683186Y-112266392D01*
X57797314Y-112200500D01*
X57860995Y-112136819D01*
X57922318Y-112103334D01*
X57948676Y-112100500D01*
X58799461Y-112100500D01*
X58799462Y-112100500D01*
X58840416Y-112089526D01*
X58875885Y-112080023D01*
X58875888Y-112080021D01*
X58875889Y-112080021D01*
X58875892Y-112080019D01*
X58876318Y-112079905D01*
X58879336Y-112078031D01*
X58915215Y-112057316D01*
X58934966Y-112045913D01*
X58944408Y-112040462D01*
X58944408Y-112040461D01*
X58944411Y-112040460D01*
X58944413Y-112040457D01*
X58946010Y-112039536D01*
X58946011Y-112039535D01*
X58949230Y-112037677D01*
X58955947Y-112028923D01*
X59000360Y-111984511D01*
X59000359Y-111984511D01*
X59008205Y-111976666D01*
X59057132Y-111927739D01*
X62980458Y-108004514D01*
X63020020Y-107935991D01*
X63021494Y-107930493D01*
X63036119Y-107875913D01*
X63040500Y-107859565D01*
X63040501Y-107780442D01*
X63040500Y-107780438D01*
X63040500Y-106778676D01*
X63060185Y-106711637D01*
X63076819Y-106690995D01*
X63108191Y-106659623D01*
X63140500Y-106627314D01*
X63206392Y-106513186D01*
X63240500Y-106385892D01*
X63240500Y-106254108D01*
X63206392Y-106126814D01*
X63140500Y-106012686D01*
X63047314Y-105919500D01*
X62967739Y-105873557D01*
X62933187Y-105853608D01*
X62915985Y-105848999D01*
X62878350Y-105838914D01*
X62818692Y-105802551D01*
X62788162Y-105739705D01*
X62796456Y-105670329D01*
X62822746Y-105631477D01*
X63545820Y-104908149D01*
X63545834Y-104908137D01*
X63558434Y-104895535D01*
X63570664Y-104883306D01*
X63571453Y-104882536D01*
X63571490Y-104882471D01*
X63571493Y-104882469D01*
X63593345Y-104844603D01*
X63593358Y-104844591D01*
X63593354Y-104844589D01*
X63603613Y-104826819D01*
X63611021Y-104813989D01*
X63611021Y-104813987D01*
X63611036Y-104813962D01*
X63611533Y-104812107D01*
X63622802Y-104770022D01*
X63622806Y-104770023D01*
X63622806Y-104770003D01*
X63631500Y-104737562D01*
X63631500Y-104737558D01*
X63631504Y-104737516D01*
X63631507Y-104737509D01*
X63631500Y-104697947D01*
X63631500Y-102685433D01*
X63651185Y-102618394D01*
X63703989Y-102572639D01*
X63773147Y-102562695D01*
X63836703Y-102591720D01*
X63858603Y-102616544D01*
X63864020Y-102624652D01*
X63864025Y-102624658D01*
X64010342Y-102770975D01*
X64010345Y-102770977D01*
X64182402Y-102885941D01*
X64373580Y-102965130D01*
X64566536Y-103003511D01*
X64576530Y-103005499D01*
X64576534Y-103005500D01*
X64576535Y-103005500D01*
X64783466Y-103005500D01*
X64783467Y-103005499D01*
X64986420Y-102965130D01*
X65177598Y-102885941D01*
X65349655Y-102770977D01*
X65495977Y-102624655D01*
X65610941Y-102452598D01*
X65690130Y-102261420D01*
X65730500Y-102058465D01*
X65730500Y-101601535D01*
X65730499Y-101601530D01*
X66129500Y-101601530D01*
X66129500Y-102058469D01*
X66169868Y-102261412D01*
X66169870Y-102261420D01*
X66211702Y-102362412D01*
X66249059Y-102452598D01*
X66297444Y-102525012D01*
X66364024Y-102624657D01*
X66510342Y-102770975D01*
X66510345Y-102770977D01*
X66682402Y-102885941D01*
X66802953Y-102935875D01*
X66857356Y-102979714D01*
X66879421Y-103046008D01*
X66879500Y-103050435D01*
X66879500Y-105774162D01*
X66880119Y-105776471D01*
X66899979Y-105850590D01*
X66899980Y-105850591D01*
X66903927Y-105857428D01*
X66924153Y-105892460D01*
X66939540Y-105919111D01*
X66939542Y-105919113D01*
X67333081Y-106312652D01*
X67366566Y-106373975D01*
X67369400Y-106400333D01*
X67369400Y-106490392D01*
X67386225Y-106553186D01*
X67403508Y-106617687D01*
X67427720Y-106659623D01*
X67469400Y-106731814D01*
X67562586Y-106825000D01*
X67676714Y-106890892D01*
X67804008Y-106925000D01*
X67804010Y-106925000D01*
X67935790Y-106925000D01*
X67935792Y-106925000D01*
X68063086Y-106890892D01*
X68177214Y-106825000D01*
X68270400Y-106731814D01*
X68336292Y-106617686D01*
X68370400Y-106490392D01*
X68370400Y-106358608D01*
X68336292Y-106231314D01*
X68270400Y-106117186D01*
X68177214Y-106024000D01*
X68099281Y-105979005D01*
X68063087Y-105958108D01*
X67993206Y-105939384D01*
X67935792Y-105924000D01*
X67845733Y-105924000D01*
X67778694Y-105904315D01*
X67758052Y-105887681D01*
X67516819Y-105646448D01*
X67483334Y-105585125D01*
X67480500Y-105558767D01*
X67480500Y-103050435D01*
X67500185Y-102983396D01*
X67552989Y-102937641D01*
X67557012Y-102935889D01*
X67677598Y-102885941D01*
X67849655Y-102770977D01*
X67995977Y-102624655D01*
X68110941Y-102452598D01*
X68190130Y-102261420D01*
X68230500Y-102058465D01*
X68230500Y-101601535D01*
X68190130Y-101398580D01*
X68110941Y-101207402D01*
X67995977Y-101035345D01*
X67995975Y-101035342D01*
X67849657Y-100889024D01*
X67699968Y-100789006D01*
X67677598Y-100774059D01*
X67677593Y-100774057D01*
X67486420Y-100694870D01*
X67486412Y-100694868D01*
X67283469Y-100654500D01*
X67283465Y-100654500D01*
X67076535Y-100654500D01*
X67076530Y-100654500D01*
X66873587Y-100694868D01*
X66873579Y-100694870D01*
X66682403Y-100774058D01*
X66510342Y-100889024D01*
X66364024Y-101035342D01*
X66249058Y-101207403D01*
X66169870Y-101398579D01*
X66169868Y-101398587D01*
X66129500Y-101601530D01*
X65730499Y-101601530D01*
X65690130Y-101398580D01*
X65610941Y-101207402D01*
X65610940Y-101207400D01*
X65501744Y-101043975D01*
X65480866Y-100977298D01*
X65499351Y-100909918D01*
X65517161Y-100887408D01*
X70516821Y-95887749D01*
X70578142Y-95854266D01*
X70647834Y-95859250D01*
X70703767Y-95901122D01*
X70728184Y-95966586D01*
X70728500Y-95975432D01*
X70728500Y-100974566D01*
X70708815Y-101041605D01*
X70656011Y-101087360D01*
X70586853Y-101097304D01*
X70523297Y-101068279D01*
X70501399Y-101043459D01*
X70495976Y-101035343D01*
X70349657Y-100889024D01*
X70199968Y-100789006D01*
X70177598Y-100774059D01*
X70177593Y-100774057D01*
X69986420Y-100694870D01*
X69986412Y-100694868D01*
X69783469Y-100654500D01*
X69783465Y-100654500D01*
X69576535Y-100654500D01*
X69576530Y-100654500D01*
X69373587Y-100694868D01*
X69373579Y-100694870D01*
X69182403Y-100774058D01*
X69010342Y-100889024D01*
X68864024Y-101035342D01*
X68749058Y-101207403D01*
X68669870Y-101398579D01*
X68669868Y-101398587D01*
X68629500Y-101601530D01*
X68629500Y-102058469D01*
X68669868Y-102261412D01*
X68669870Y-102261420D01*
X68711702Y-102362412D01*
X68749059Y-102452598D01*
X68797444Y-102525012D01*
X68864024Y-102624657D01*
X69010342Y-102770975D01*
X69010345Y-102770977D01*
X69182402Y-102885941D01*
X69373580Y-102965130D01*
X69566536Y-103003511D01*
X69576530Y-103005499D01*
X69576534Y-103005500D01*
X69576535Y-103005500D01*
X69783466Y-103005500D01*
X69783467Y-103005499D01*
X69986420Y-102965130D01*
X70177598Y-102885941D01*
X70349655Y-102770977D01*
X70495977Y-102624655D01*
X70495980Y-102624652D01*
X70501397Y-102616544D01*
X70555008Y-102571738D01*
X70624333Y-102563029D01*
X70687361Y-102593183D01*
X70724081Y-102652626D01*
X70728500Y-102685433D01*
X70728500Y-106608562D01*
X70742182Y-106659623D01*
X70748979Y-106684989D01*
X70771752Y-106724434D01*
X70773392Y-106727273D01*
X70776013Y-106731813D01*
X70788540Y-106753511D01*
X71007848Y-106972819D01*
X71041333Y-107034142D01*
X71036349Y-107103834D01*
X70994477Y-107159767D01*
X70929013Y-107184184D01*
X70920167Y-107184500D01*
X70891005Y-107184500D01*
X70755677Y-107211418D01*
X70755667Y-107211421D01*
X70628195Y-107264221D01*
X70628182Y-107264228D01*
X70513458Y-107340885D01*
X70513454Y-107340888D01*
X70415888Y-107438454D01*
X70415885Y-107438458D01*
X70339228Y-107553182D01*
X70339221Y-107553195D01*
X70286421Y-107680667D01*
X70286418Y-107680677D01*
X70259500Y-107816004D01*
X70259500Y-107816007D01*
X70259500Y-109053993D01*
X70259500Y-109053995D01*
X70259499Y-109053995D01*
X70286418Y-109189322D01*
X70286421Y-109189332D01*
X70339221Y-109316804D01*
X70339228Y-109316817D01*
X70415885Y-109431541D01*
X70415888Y-109431545D01*
X70513454Y-109529111D01*
X70513458Y-109529114D01*
X70628182Y-109605771D01*
X70628195Y-109605778D01*
X70699611Y-109635359D01*
X70755672Y-109658580D01*
X70755676Y-109658580D01*
X70755677Y-109658581D01*
X70891004Y-109685500D01*
X70891007Y-109685500D01*
X71028995Y-109685500D01*
X71120041Y-109667389D01*
X71164328Y-109658580D01*
X71262924Y-109617740D01*
X71291804Y-109605778D01*
X71291804Y-109605777D01*
X71291811Y-109605775D01*
X71406542Y-109529114D01*
X71504114Y-109431542D01*
X71580775Y-109316811D01*
X71604514Y-109259500D01*
X71635911Y-109183701D01*
X71637718Y-109184449D01*
X71671044Y-109133565D01*
X71734847Y-109105089D01*
X71803918Y-109115629D01*
X71856325Y-109161838D01*
X71858822Y-109165974D01*
X71875018Y-109194026D01*
X71929485Y-109288365D01*
X72036635Y-109395515D01*
X72135658Y-109452686D01*
X72166510Y-109470499D01*
X72167865Y-109471281D01*
X72314234Y-109510500D01*
X72314236Y-109510500D01*
X72465764Y-109510500D01*
X72465766Y-109510500D01*
X72612135Y-109471281D01*
X72743365Y-109395515D01*
X72850515Y-109288365D01*
X72859056Y-109273570D01*
X72909622Y-109225356D01*
X72978229Y-109212132D01*
X73043094Y-109238100D01*
X73073830Y-109273571D01*
X73082373Y-109288367D01*
X73139500Y-109387314D01*
X73232686Y-109480500D01*
X73346814Y-109546392D01*
X73396356Y-109559666D01*
X73456016Y-109596031D01*
X73486545Y-109658878D01*
X73478250Y-109728253D01*
X73451942Y-109767123D01*
X71848674Y-111370359D01*
X71787351Y-111403843D01*
X71717659Y-111398858D01*
X71673315Y-111370361D01*
X68548398Y-108245627D01*
X68548398Y-108245626D01*
X68548397Y-108245626D01*
X68531304Y-108228533D01*
X68488761Y-108203974D01*
X68488761Y-108203972D01*
X68488756Y-108203971D01*
X68462789Y-108188979D01*
X68462785Y-108188977D01*
X68462780Y-108188975D01*
X68462775Y-108188973D01*
X68439015Y-108182607D01*
X68422316Y-108178133D01*
X68422148Y-108178088D01*
X68386362Y-108168500D01*
X68386357Y-108168500D01*
X68386353Y-108168499D01*
X68385927Y-108168499D01*
X68346791Y-108168500D01*
X64655106Y-108168500D01*
X64615544Y-108168499D01*
X64615540Y-108168500D01*
X64615538Y-108168500D01*
X64592320Y-108174720D01*
X64592320Y-108174721D01*
X64550351Y-108185965D01*
X64539113Y-108188977D01*
X64538520Y-108189214D01*
X64535925Y-108190818D01*
X64532398Y-108192854D01*
X64529479Y-108194540D01*
X64513142Y-108203972D01*
X64470610Y-108228526D01*
X64470590Y-108228538D01*
X64470587Y-108228542D01*
X64448639Y-108250488D01*
X64448640Y-108250489D01*
X61778530Y-110920500D01*
X61764491Y-110934538D01*
X61764489Y-110934540D01*
X61735621Y-110963407D01*
X61708543Y-110990485D01*
X61708541Y-110990487D01*
X61708540Y-110990489D01*
X61699939Y-111005384D01*
X61699937Y-111005388D01*
X61668982Y-111059004D01*
X61668979Y-111059009D01*
X61655326Y-111109962D01*
X61648500Y-111135438D01*
X61648500Y-111171460D01*
X61648499Y-111214556D01*
X61648500Y-111214559D01*
X61648500Y-112431836D01*
X61648498Y-112431870D01*
X61648498Y-112439449D01*
X61648498Y-112439451D01*
X61648499Y-112471429D01*
X61648500Y-112471440D01*
X61648500Y-112518565D01*
X61648502Y-112518573D01*
X61648505Y-112518586D01*
X61657369Y-112551665D01*
X61657371Y-112551670D01*
X61659478Y-112559532D01*
X61668979Y-112594989D01*
X61668980Y-112594992D01*
X61668983Y-112595000D01*
X61687454Y-112626989D01*
X61691507Y-112634010D01*
X61691508Y-112634011D01*
X61708539Y-112663510D01*
X61708543Y-112663515D01*
X61708546Y-112663518D01*
X61708548Y-112663521D01*
X61730483Y-112685454D01*
X61732724Y-112687695D01*
X61771540Y-112726511D01*
X61771560Y-112726528D01*
X62085802Y-113040743D01*
X62935176Y-113890048D01*
X62935197Y-113890068D01*
X62936150Y-113891021D01*
X62965589Y-113920460D01*
X62965593Y-113920462D01*
X62965599Y-113920468D01*
X62969012Y-113922438D01*
X63002320Y-113941667D01*
X63002323Y-113941668D01*
X63030702Y-113958052D01*
X63033540Y-113959815D01*
X63034105Y-113960017D01*
X63034111Y-113960021D01*
X63034117Y-113960022D01*
X63034123Y-113960026D01*
X63034143Y-113960031D01*
X63036205Y-113960771D01*
X63039870Y-113961565D01*
X63058514Y-113966560D01*
X63068218Y-113969160D01*
X63068221Y-113969160D01*
X63110538Y-113980500D01*
X63110546Y-113980500D01*
X63110550Y-113980501D01*
X63136925Y-113980500D01*
X64461324Y-113980500D01*
X64528363Y-114000185D01*
X64549005Y-114016819D01*
X64612686Y-114080500D01*
X64726814Y-114146392D01*
X64854108Y-114180500D01*
X64854110Y-114180500D01*
X64985890Y-114180500D01*
X64985892Y-114180500D01*
X65113186Y-114146392D01*
X65227314Y-114080500D01*
X65320500Y-113987314D01*
X65386392Y-113873186D01*
X65420500Y-113745892D01*
X65420500Y-113614108D01*
X65386392Y-113486814D01*
X65320500Y-113372686D01*
X65227314Y-113279500D01*
X65170250Y-113246554D01*
X65113187Y-113213608D01*
X65049539Y-113196554D01*
X64985892Y-113179500D01*
X64854108Y-113179500D01*
X64726812Y-113213608D01*
X64612686Y-113279500D01*
X64612683Y-113279502D01*
X64549005Y-113343181D01*
X64487682Y-113376666D01*
X64461324Y-113379500D01*
X63325923Y-113379500D01*
X63258884Y-113359815D01*
X63238245Y-113343185D01*
X63217741Y-113322683D01*
X62761236Y-112866215D01*
X62751262Y-112847951D01*
X62737291Y-112832532D01*
X62734855Y-112817906D01*
X62727750Y-112804894D01*
X62729233Y-112784137D01*
X62725816Y-112763612D01*
X62731673Y-112749992D01*
X62732731Y-112735202D01*
X62745201Y-112718542D01*
X62753423Y-112699428D01*
X62769969Y-112685454D01*
X62774601Y-112679267D01*
X62779577Y-112675729D01*
X62783153Y-112673316D01*
X62857314Y-112630500D01*
X62879440Y-112608373D01*
X62889338Y-112601698D01*
X62911712Y-112594585D01*
X62932318Y-112583334D01*
X62954666Y-112580931D01*
X62955925Y-112580531D01*
X62956626Y-112580720D01*
X62958676Y-112580500D01*
X69071324Y-112580500D01*
X69138363Y-112600185D01*
X69159005Y-112616819D01*
X69222686Y-112680500D01*
X69299456Y-112724823D01*
X69347672Y-112775390D01*
X69360895Y-112843997D01*
X69334927Y-112908862D01*
X69325137Y-112919891D01*
X68874489Y-113370540D01*
X68818541Y-113426487D01*
X68818535Y-113426495D01*
X68778982Y-113495004D01*
X68778979Y-113495009D01*
X68765326Y-113545962D01*
X68758500Y-113571438D01*
X68758500Y-114069462D01*
X68758495Y-114069481D01*
X68758500Y-114105446D01*
X68758500Y-114148583D01*
X68768724Y-114186722D01*
X68768727Y-114186732D01*
X68778980Y-114224992D01*
X68778995Y-114225028D01*
X68799005Y-114259675D01*
X68799015Y-114259692D01*
X68818539Y-114293510D01*
X68818563Y-114293541D01*
X68818564Y-114293542D01*
X68818566Y-114293545D01*
X68846707Y-114321678D01*
X68872235Y-114347206D01*
X68880552Y-114355523D01*
X68880626Y-114355587D01*
X69197583Y-114672455D01*
X69197601Y-114672473D01*
X69198481Y-114673352D01*
X69226589Y-114701460D01*
X69226607Y-114701470D01*
X69226623Y-114701486D01*
X69260079Y-114720795D01*
X69260094Y-114720810D01*
X69260097Y-114720806D01*
X69294569Y-114740709D01*
X69294570Y-114740709D01*
X69295195Y-114741070D01*
X69296567Y-114741417D01*
X69334995Y-114751708D01*
X69371538Y-114761500D01*
X69371550Y-114761500D01*
X69371569Y-114761502D01*
X69371581Y-114761506D01*
X69411137Y-114761500D01*
X69411144Y-114761500D01*
X76181639Y-114761500D01*
X76181643Y-114761501D01*
X76221205Y-114761500D01*
X76260762Y-114761500D01*
X76260948Y-114761500D01*
X76261338Y-114761442D01*
X76264329Y-114760544D01*
X76281246Y-114756010D01*
X76337189Y-114741021D01*
X76337191Y-114741019D01*
X76337193Y-114741019D01*
X76358393Y-114728778D01*
X76394849Y-114707730D01*
X76397473Y-114706550D01*
X76404134Y-114702434D01*
X76405727Y-114701482D01*
X76406970Y-114700201D01*
X76441870Y-114665301D01*
X76461660Y-114645511D01*
X76461660Y-114645509D01*
X76471861Y-114635309D01*
X76471866Y-114635302D01*
X78687817Y-112419275D01*
X78749140Y-112385790D01*
X78818832Y-112390774D01*
X78874766Y-112432644D01*
X78899184Y-112498108D01*
X78899500Y-112506956D01*
X78899500Y-113083993D01*
X78899500Y-113083995D01*
X78899499Y-113083995D01*
X78926418Y-113219322D01*
X78926421Y-113219332D01*
X78979221Y-113346804D01*
X78979228Y-113346817D01*
X79055885Y-113461541D01*
X79055888Y-113461545D01*
X79153454Y-113559111D01*
X79153458Y-113559114D01*
X79268182Y-113635771D01*
X79268195Y-113635778D01*
X79395667Y-113688578D01*
X79395672Y-113688580D01*
X79395676Y-113688580D01*
X79395677Y-113688581D01*
X79531004Y-113715500D01*
X79531007Y-113715500D01*
X79668995Y-113715500D01*
X79767578Y-113695890D01*
X79804328Y-113688580D01*
X79931811Y-113635775D01*
X80046542Y-113559114D01*
X80144114Y-113461542D01*
X80220775Y-113346811D01*
X80273580Y-113219328D01*
X80282389Y-113175041D01*
X80300500Y-113083995D01*
X80300500Y-113039500D01*
X80320185Y-112972461D01*
X80372989Y-112926706D01*
X80424500Y-112915500D01*
X86184560Y-112915500D01*
X86184562Y-112915500D01*
X86260989Y-112895021D01*
X86329511Y-112855460D01*
X86385460Y-112799511D01*
X88480494Y-110704475D01*
X88541815Y-110670992D01*
X88611507Y-110675976D01*
X88626679Y-110683736D01*
X88627035Y-110683072D01*
X88632398Y-110685938D01*
X88632402Y-110685941D01*
X88823580Y-110765130D01*
X88968776Y-110794011D01*
X89026530Y-110805499D01*
X89026534Y-110805500D01*
X89026535Y-110805500D01*
X89233466Y-110805500D01*
X89233467Y-110805499D01*
X89436420Y-110765130D01*
X89627598Y-110685941D01*
X89627605Y-110685935D01*
X89632965Y-110683072D01*
X89634287Y-110685545D01*
X89689385Y-110668182D01*
X89756799Y-110686544D01*
X89779506Y-110704477D01*
X90190540Y-111115511D01*
X90246489Y-111171460D01*
X90246491Y-111171461D01*
X90246495Y-111171464D01*
X90314109Y-111210500D01*
X90315011Y-111211021D01*
X90391438Y-111231500D01*
X90391440Y-111231500D01*
X99818560Y-111231500D01*
X99818562Y-111231500D01*
X99894989Y-111211021D01*
X99963511Y-111171460D01*
X100019460Y-111115511D01*
X100415508Y-110719461D01*
X100476829Y-110685978D01*
X100546520Y-110690962D01*
X100572075Y-110704041D01*
X100582402Y-110710941D01*
X100773580Y-110790130D01*
X100949815Y-110825185D01*
X100976530Y-110830499D01*
X100976534Y-110830500D01*
X100976535Y-110830500D01*
X101183466Y-110830500D01*
X101183467Y-110830499D01*
X101386420Y-110790130D01*
X101577598Y-110710941D01*
X101749655Y-110595977D01*
X101895977Y-110449655D01*
X102010941Y-110277598D01*
X102090130Y-110086420D01*
X102130500Y-109883465D01*
X102130500Y-109376535D01*
X102090130Y-109173580D01*
X102010941Y-108982402D01*
X102010847Y-108982261D01*
X101895896Y-108810223D01*
X101875018Y-108743546D01*
X101893503Y-108676166D01*
X101911313Y-108653656D01*
X104242719Y-106322251D01*
X104304042Y-106288766D01*
X104373734Y-106293750D01*
X104429667Y-106335622D01*
X104454084Y-106401086D01*
X104454400Y-106409932D01*
X104454400Y-106527392D01*
X104461312Y-106553187D01*
X104488508Y-106654687D01*
X104516962Y-106703969D01*
X104554400Y-106768814D01*
X104647586Y-106862000D01*
X104761714Y-106927892D01*
X104889008Y-106962000D01*
X104889010Y-106962000D01*
X105020790Y-106962000D01*
X105020792Y-106962000D01*
X105148086Y-106927892D01*
X105262214Y-106862000D01*
X105355400Y-106768814D01*
X105421292Y-106654686D01*
X105455400Y-106527392D01*
X105455400Y-106437332D01*
X105475085Y-106370293D01*
X105491719Y-106349651D01*
X105573259Y-106268111D01*
X105669130Y-106172239D01*
X105730452Y-106138756D01*
X105800144Y-106143740D01*
X105856077Y-106185612D01*
X105871369Y-106212467D01*
X105919059Y-106327598D01*
X105964502Y-106395608D01*
X106034024Y-106499657D01*
X106180342Y-106645975D01*
X106180345Y-106645977D01*
X106352402Y-106760941D01*
X106543580Y-106840130D01*
X106746530Y-106880499D01*
X106746534Y-106880500D01*
X106746535Y-106880500D01*
X106953466Y-106880500D01*
X106953467Y-106880499D01*
X107156420Y-106840130D01*
X107347598Y-106760941D01*
X107347599Y-106760940D01*
X107347600Y-106760940D01*
X107507610Y-106654026D01*
X107574287Y-106633148D01*
X107641667Y-106651633D01*
X107688357Y-106703612D01*
X107700500Y-106757128D01*
X107700500Y-107442871D01*
X107680815Y-107509910D01*
X107628011Y-107555665D01*
X107558853Y-107565609D01*
X107507610Y-107545974D01*
X107353303Y-107442871D01*
X107347598Y-107439059D01*
X107346137Y-107438454D01*
X107156420Y-107359870D01*
X107156412Y-107359868D01*
X106953469Y-107319500D01*
X106953465Y-107319500D01*
X106746535Y-107319500D01*
X106746530Y-107319500D01*
X106543587Y-107359868D01*
X106543579Y-107359870D01*
X106352403Y-107439058D01*
X106180342Y-107554024D01*
X106034024Y-107700342D01*
X105919058Y-107872403D01*
X105839870Y-108063579D01*
X105839868Y-108063587D01*
X105799500Y-108266530D01*
X105799500Y-108473469D01*
X105839868Y-108676412D01*
X105839870Y-108676420D01*
X105911113Y-108848416D01*
X105919059Y-108867598D01*
X105931899Y-108886814D01*
X106034024Y-109039657D01*
X106180342Y-109185975D01*
X106180345Y-109185977D01*
X106352402Y-109300941D01*
X106543580Y-109380130D01*
X106677756Y-109406819D01*
X106746530Y-109420499D01*
X106746534Y-109420500D01*
X106746535Y-109420500D01*
X106953466Y-109420500D01*
X106953467Y-109420499D01*
X107156420Y-109380130D01*
X107347598Y-109300941D01*
X107347599Y-109300940D01*
X107347600Y-109300940D01*
X107507610Y-109194026D01*
X107574287Y-109173148D01*
X107641667Y-109191633D01*
X107688357Y-109243612D01*
X107700500Y-109297128D01*
X107700500Y-109982871D01*
X107680815Y-110049910D01*
X107628011Y-110095665D01*
X107558853Y-110105609D01*
X107507610Y-110085974D01*
X107353303Y-109982871D01*
X107347598Y-109979059D01*
X107286154Y-109953608D01*
X107156420Y-109899870D01*
X107156412Y-109899868D01*
X106953469Y-109859500D01*
X106953465Y-109859500D01*
X106746535Y-109859500D01*
X106746530Y-109859500D01*
X106543587Y-109899868D01*
X106543579Y-109899870D01*
X106352403Y-109979058D01*
X106180342Y-110094024D01*
X106034024Y-110240342D01*
X105919058Y-110412403D01*
X105894342Y-110472073D01*
X105872773Y-110524147D01*
X105869125Y-110532953D01*
X105825284Y-110587356D01*
X105758990Y-110609421D01*
X105754564Y-110609500D01*
X104439562Y-110609500D01*
X104360438Y-110609500D01*
X104332012Y-110617117D01*
X104284009Y-110629979D01*
X104284004Y-110629982D01*
X104215495Y-110669535D01*
X104215487Y-110669541D01*
X104159541Y-110725487D01*
X104159535Y-110725495D01*
X104119982Y-110794004D01*
X104119979Y-110794009D01*
X104099500Y-110870439D01*
X104099500Y-116075500D01*
X104079815Y-116142539D01*
X104027011Y-116188294D01*
X103975500Y-116199500D01*
X94165933Y-116199500D01*
X94098894Y-116179815D01*
X94053139Y-116127011D01*
X94043195Y-116057853D01*
X94072220Y-115994297D01*
X94092298Y-115975731D01*
X94092778Y-115975376D01*
X94097150Y-115972150D01*
X94177793Y-115862882D01*
X94200219Y-115798790D01*
X94222646Y-115734701D01*
X94222646Y-115734699D01*
X94225500Y-115704269D01*
X94225500Y-114695730D01*
X94222646Y-114665300D01*
X94222646Y-114665298D01*
X94177793Y-114537119D01*
X94177792Y-114537117D01*
X94097150Y-114427850D01*
X93987882Y-114347207D01*
X93987880Y-114347206D01*
X93859700Y-114302353D01*
X93829270Y-114299500D01*
X93829266Y-114299500D01*
X93195734Y-114299500D01*
X93195730Y-114299500D01*
X93165300Y-114302353D01*
X93165298Y-114302353D01*
X93037119Y-114347206D01*
X93037117Y-114347207D01*
X92927850Y-114427850D01*
X92847207Y-114537117D01*
X92847206Y-114537119D01*
X92802353Y-114665298D01*
X92802353Y-114665300D01*
X92799500Y-114695730D01*
X92799500Y-115704269D01*
X92802353Y-115734699D01*
X92802353Y-115734701D01*
X92847206Y-115862880D01*
X92847207Y-115862882D01*
X92927850Y-115972150D01*
X92932702Y-115975731D01*
X92974952Y-116031379D01*
X92980409Y-116101035D01*
X92947341Y-116162584D01*
X92886247Y-116196485D01*
X92859067Y-116199500D01*
X92340933Y-116199500D01*
X92273894Y-116179815D01*
X92228139Y-116127011D01*
X92218195Y-116057853D01*
X92247220Y-115994297D01*
X92267298Y-115975731D01*
X92267778Y-115975376D01*
X92272150Y-115972150D01*
X92352793Y-115862882D01*
X92375219Y-115798790D01*
X92397646Y-115734701D01*
X92397646Y-115734699D01*
X92400500Y-115704269D01*
X92400500Y-114695730D01*
X92397646Y-114665300D01*
X92397646Y-114665298D01*
X92352793Y-114537119D01*
X92352792Y-114537117D01*
X92272150Y-114427850D01*
X92162882Y-114347207D01*
X92162880Y-114347206D01*
X92034700Y-114302353D01*
X92004270Y-114299500D01*
X92004266Y-114299500D01*
X91370734Y-114299500D01*
X91370730Y-114299500D01*
X91340300Y-114302353D01*
X91340298Y-114302353D01*
X91212119Y-114347206D01*
X91212117Y-114347207D01*
X91102850Y-114427850D01*
X91022207Y-114537117D01*
X91022206Y-114537119D01*
X90977353Y-114665298D01*
X90977353Y-114665300D01*
X90974500Y-114695730D01*
X90974500Y-115704269D01*
X90977353Y-115734699D01*
X90977353Y-115734701D01*
X91022206Y-115862880D01*
X91022207Y-115862882D01*
X91102850Y-115972150D01*
X91107702Y-115975731D01*
X91149952Y-116031379D01*
X91155409Y-116101035D01*
X91122341Y-116162584D01*
X91061247Y-116196485D01*
X91034067Y-116199500D01*
X57922500Y-116199500D01*
X57855461Y-116179815D01*
X57809706Y-116127011D01*
X57798500Y-116075500D01*
X57798500Y-114088676D01*
X57818185Y-114021637D01*
X57834819Y-114000995D01*
X57866654Y-113969160D01*
X57898500Y-113937314D01*
X57964392Y-113823186D01*
X57998500Y-113695892D01*
X57998500Y-113564108D01*
X57964392Y-113436814D01*
X57898500Y-113322686D01*
X57805314Y-113229500D01*
X57718712Y-113179500D01*
X57691187Y-113163608D01*
X57616436Y-113143579D01*
X57563892Y-113129500D01*
X57432108Y-113129500D01*
X57304812Y-113163608D01*
X57190686Y-113229500D01*
X57190683Y-113229502D01*
X57097502Y-113322683D01*
X57097500Y-113322686D01*
X57031608Y-113436812D01*
X56997500Y-113564108D01*
X56997500Y-113695891D01*
X57031608Y-113823187D01*
X57060476Y-113873186D01*
X57097500Y-113937314D01*
X57097502Y-113937316D01*
X57161181Y-114000995D01*
X57194666Y-114062318D01*
X57197500Y-114088676D01*
X57197500Y-116460438D01*
X57197500Y-116539562D01*
X57211152Y-116590513D01*
X57217979Y-116615990D01*
X57217982Y-116615995D01*
X57257535Y-116684504D01*
X57257539Y-116684509D01*
X57257540Y-116684511D01*
X57313489Y-116740460D01*
X57313491Y-116740461D01*
X57313495Y-116740464D01*
X57382004Y-116780017D01*
X57382011Y-116780021D01*
X57458438Y-116800500D01*
X57458440Y-116800500D01*
X104439560Y-116800500D01*
X104439562Y-116800500D01*
X104515989Y-116780021D01*
X104584511Y-116740460D01*
X104640460Y-116684511D01*
X104680021Y-116615989D01*
X104700500Y-116539562D01*
X104700500Y-111334500D01*
X104720185Y-111267461D01*
X104772989Y-111221706D01*
X104824500Y-111210500D01*
X105754564Y-111210500D01*
X105821603Y-111230185D01*
X105867358Y-111282989D01*
X105869125Y-111287047D01*
X105919058Y-111407596D01*
X106034024Y-111579657D01*
X106180342Y-111725975D01*
X106180345Y-111725977D01*
X106352402Y-111840941D01*
X106543580Y-111920130D01*
X106711082Y-111953448D01*
X106746530Y-111960499D01*
X106746534Y-111960500D01*
X106746535Y-111960500D01*
X106953466Y-111960500D01*
X106953467Y-111960499D01*
X107156420Y-111920130D01*
X107347598Y-111840941D01*
X107347599Y-111840940D01*
X107347600Y-111840940D01*
X107507610Y-111734026D01*
X107574287Y-111713148D01*
X107641667Y-111731633D01*
X107688357Y-111783612D01*
X107700500Y-111837128D01*
X107700500Y-112123166D01*
X107680815Y-112190205D01*
X107664181Y-112210847D01*
X107412104Y-112462923D01*
X107350781Y-112496408D01*
X107281089Y-112491424D01*
X107276971Y-112489803D01*
X107156424Y-112439871D01*
X107156412Y-112439868D01*
X106953469Y-112399500D01*
X106953465Y-112399500D01*
X106746535Y-112399500D01*
X106746530Y-112399500D01*
X106543587Y-112439868D01*
X106543579Y-112439870D01*
X106352403Y-112519058D01*
X106180342Y-112634024D01*
X106034024Y-112780342D01*
X105919058Y-112952403D01*
X105839870Y-113143579D01*
X105839868Y-113143587D01*
X105799500Y-113346530D01*
X105799500Y-113553469D01*
X105839868Y-113756412D01*
X105839870Y-113756420D01*
X105867525Y-113823186D01*
X105919059Y-113947598D01*
X105965311Y-114016819D01*
X106034024Y-114119657D01*
X106180342Y-114265975D01*
X106180345Y-114265977D01*
X106352402Y-114380941D01*
X106543580Y-114460130D01*
X106746530Y-114500499D01*
X106746534Y-114500500D01*
X106746535Y-114500500D01*
X106953466Y-114500500D01*
X106953467Y-114500499D01*
X107156420Y-114460130D01*
X107347598Y-114380941D01*
X107519655Y-114265977D01*
X107665977Y-114119655D01*
X107780941Y-113947598D01*
X107860130Y-113756420D01*
X107900500Y-113553465D01*
X107900500Y-113346535D01*
X107860130Y-113143580D01*
X107810194Y-113023026D01*
X107802726Y-112953559D01*
X107834001Y-112891080D01*
X107837017Y-112887953D01*
X108241460Y-112483511D01*
X108248430Y-112471438D01*
X108281021Y-112414989D01*
X108301500Y-112338562D01*
X108301500Y-105827833D01*
X108321185Y-105760794D01*
X108337819Y-105740152D01*
X109717819Y-104360152D01*
X109779142Y-104326667D01*
X109848834Y-104331651D01*
X109904767Y-104373523D01*
X109929184Y-104438987D01*
X109929500Y-104447833D01*
X109929500Y-104555892D01*
X109937539Y-104585893D01*
X109963608Y-104683187D01*
X109990902Y-104730460D01*
X110029500Y-104797314D01*
X110122686Y-104890500D01*
X110236814Y-104956392D01*
X110364108Y-104990500D01*
X110364110Y-104990500D01*
X110495890Y-104990500D01*
X110495892Y-104990500D01*
X110623186Y-104956392D01*
X110737314Y-104890500D01*
X110800995Y-104826819D01*
X110862318Y-104793334D01*
X110888676Y-104790500D01*
X112959560Y-104790500D01*
X112959562Y-104790500D01*
X113035989Y-104770021D01*
X113104511Y-104730460D01*
X113160460Y-104674511D01*
X113920460Y-103914511D01*
X113942224Y-103876814D01*
X113960021Y-103845989D01*
X113980500Y-103769562D01*
X113980500Y-86087676D01*
X113986738Y-86066430D01*
X113988318Y-86044342D01*
X113996390Y-86033558D01*
X114000185Y-86020637D01*
X114016918Y-86006137D01*
X114030190Y-85988409D01*
X114042810Y-85983701D01*
X114052989Y-85974882D01*
X114074906Y-85971730D01*
X114095654Y-85963992D01*
X114108814Y-85966854D01*
X114122147Y-85964938D01*
X114142290Y-85974137D01*
X114163927Y-85978844D01*
X114181652Y-85992112D01*
X114185703Y-85993963D01*
X114192181Y-85999995D01*
X114193181Y-86000995D01*
X114226666Y-86062318D01*
X114229500Y-86088676D01*
X114229500Y-104624166D01*
X114209815Y-104691205D01*
X114193181Y-104711847D01*
X111951847Y-106953181D01*
X111890524Y-106986666D01*
X111864166Y-106989500D01*
X111774108Y-106989500D01*
X111646812Y-107023608D01*
X111532686Y-107089500D01*
X111532683Y-107089502D01*
X111439502Y-107182683D01*
X111439500Y-107182686D01*
X111373608Y-107296812D01*
X111356713Y-107359868D01*
X111339500Y-107424108D01*
X111339500Y-107555892D01*
X111342104Y-107565609D01*
X111373608Y-107683187D01*
X111389783Y-107711202D01*
X111439500Y-107797314D01*
X111532686Y-107890500D01*
X111646814Y-107956392D01*
X111774108Y-107990500D01*
X111774110Y-107990500D01*
X111905890Y-107990500D01*
X111905892Y-107990500D01*
X112033186Y-107956392D01*
X112147314Y-107890500D01*
X112240500Y-107797314D01*
X112306392Y-107683186D01*
X112340500Y-107555892D01*
X112340500Y-107465832D01*
X112360185Y-107398793D01*
X112376819Y-107378151D01*
X113554388Y-106200582D01*
X114770460Y-104984511D01*
X114798518Y-104935913D01*
X114810021Y-104915989D01*
X114830500Y-104839562D01*
X114830500Y-86088676D01*
X114850185Y-86021637D01*
X114866819Y-86000995D01*
X114896084Y-85971730D01*
X114930500Y-85937314D01*
X114996392Y-85823186D01*
X115030500Y-85695892D01*
X115030500Y-85564108D01*
X114996392Y-85436814D01*
X114930500Y-85322686D01*
X114837314Y-85229500D01*
X114780250Y-85196554D01*
X114723187Y-85163608D01*
X114633220Y-85139502D01*
X114595892Y-85129500D01*
X114464108Y-85129500D01*
X114336812Y-85163608D01*
X114222686Y-85229500D01*
X114222683Y-85229502D01*
X114192181Y-85260005D01*
X114130858Y-85293490D01*
X114061166Y-85288506D01*
X114005233Y-85246634D01*
X113980816Y-85181170D01*
X113980500Y-85172324D01*
X113980500Y-60635833D01*
X114000185Y-60568794D01*
X114016819Y-60548152D01*
X114379804Y-60185167D01*
X115160460Y-59404511D01*
X115200021Y-59335989D01*
X115220500Y-59259562D01*
X115220500Y-58980438D01*
X115215468Y-58961659D01*
X115209659Y-58939977D01*
X115200023Y-58904014D01*
X115200022Y-58904013D01*
X115200022Y-58904012D01*
X115160460Y-58835489D01*
X112906819Y-56581848D01*
X112873334Y-56520525D01*
X112870500Y-56494167D01*
X112870500Y-56404110D01*
X112870500Y-56404108D01*
X112836392Y-56276814D01*
X112770500Y-56162686D01*
X112677314Y-56069500D01*
X112620250Y-56036554D01*
X112563187Y-56003608D01*
X112499539Y-55986554D01*
X112435892Y-55969500D01*
X112304108Y-55969500D01*
X112176812Y-56003608D01*
X112062686Y-56069500D01*
X112062683Y-56069502D01*
X111969502Y-56162683D01*
X111969500Y-56162686D01*
X111903608Y-56276812D01*
X111869500Y-56404108D01*
X111869500Y-56535892D01*
X111881814Y-56581848D01*
X111903608Y-56663187D01*
X111936554Y-56720250D01*
X111969500Y-56777314D01*
X112062686Y-56870500D01*
X112176814Y-56936392D01*
X112304108Y-56970500D01*
X112304110Y-56970500D01*
X112394167Y-56970500D01*
X112461206Y-56990185D01*
X112481848Y-57006819D01*
X113408797Y-57933768D01*
X113442282Y-57995091D01*
X113437298Y-58064783D01*
X113395426Y-58120716D01*
X113383117Y-58128835D01*
X113312692Y-58169495D01*
X113312683Y-58169502D01*
X113219502Y-58262683D01*
X113219500Y-58262686D01*
X113153608Y-58376812D01*
X113119500Y-58504108D01*
X113119500Y-58594166D01*
X113099815Y-58661205D01*
X113083181Y-58681847D01*
X112745489Y-59019540D01*
X112689541Y-59075487D01*
X112689535Y-59075495D01*
X112649982Y-59144004D01*
X112649979Y-59144009D01*
X112629500Y-59220439D01*
X112629500Y-72268575D01*
X112609815Y-72335614D01*
X112557011Y-72381369D01*
X112487853Y-72391313D01*
X112467064Y-72385610D01*
X112467037Y-72385712D01*
X112459187Y-72383608D01*
X112459186Y-72383608D01*
X112331892Y-72349500D01*
X112241848Y-72349500D01*
X112174809Y-72329815D01*
X112154165Y-72313179D01*
X108145817Y-68304651D01*
X108112333Y-68243327D01*
X108109500Y-68216972D01*
X108109500Y-67859236D01*
X108129185Y-67792197D01*
X108181989Y-67746442D01*
X108251147Y-67736498D01*
X108265571Y-67739456D01*
X108344108Y-67760500D01*
X108344111Y-67760500D01*
X108475890Y-67760500D01*
X108475892Y-67760500D01*
X108603186Y-67726392D01*
X108717314Y-67660500D01*
X108780995Y-67596819D01*
X108842318Y-67563334D01*
X108868676Y-67560500D01*
X109430445Y-67560500D01*
X109430449Y-67560501D01*
X109470011Y-67560500D01*
X109509562Y-67560500D01*
X109509750Y-67560500D01*
X109510139Y-67560442D01*
X109513095Y-67559554D01*
X109548850Y-67549972D01*
X109585989Y-67540021D01*
X109585994Y-67540018D01*
X109585998Y-67540017D01*
X109617798Y-67521656D01*
X109654511Y-67500460D01*
X109654511Y-67500458D01*
X109654515Y-67500457D01*
X109654517Y-67500454D01*
X109654519Y-67500454D01*
X109666612Y-67488358D01*
X109683303Y-67471668D01*
X109719350Y-67435621D01*
X109719364Y-67435602D01*
X111122678Y-66032192D01*
X111145250Y-66009619D01*
X111148287Y-66006987D01*
X111148977Y-66006210D01*
X111151098Y-66003956D01*
X111151452Y-66003418D01*
X111151460Y-66003411D01*
X111151462Y-66003406D01*
X111151466Y-66003403D01*
X111151487Y-66003365D01*
X111153499Y-66000317D01*
X111153500Y-66000315D01*
X111153506Y-66000307D01*
X111154140Y-65999345D01*
X111155892Y-65995735D01*
X111170461Y-65970500D01*
X111191021Y-65934889D01*
X111191021Y-65934885D01*
X111191024Y-65934881D01*
X111192565Y-65929132D01*
X111192569Y-65929114D01*
X111198541Y-65906822D01*
X111200037Y-65901239D01*
X111210547Y-65862015D01*
X111211361Y-65859307D01*
X111211493Y-65858486D01*
X111211500Y-65858462D01*
X111211500Y-65858455D01*
X111211501Y-65858452D01*
X111211500Y-65832077D01*
X111211500Y-63631438D01*
X111191021Y-63555011D01*
X111157710Y-63497314D01*
X111151464Y-63486495D01*
X111151458Y-63486487D01*
X110806819Y-63141848D01*
X110773334Y-63080525D01*
X110770500Y-63054167D01*
X110770500Y-62964110D01*
X110770500Y-62964108D01*
X110736392Y-62836814D01*
X110670500Y-62722686D01*
X110577314Y-62629500D01*
X110520250Y-62596554D01*
X110463187Y-62563608D01*
X110399539Y-62546554D01*
X110335892Y-62529500D01*
X110204108Y-62529500D01*
X110076812Y-62563608D01*
X109962686Y-62629500D01*
X109962683Y-62629502D01*
X109869502Y-62722683D01*
X109869500Y-62722686D01*
X109803608Y-62836812D01*
X109769500Y-62964108D01*
X109769500Y-63095892D01*
X109777061Y-63124110D01*
X109803608Y-63223187D01*
X109822490Y-63255891D01*
X109869500Y-63337314D01*
X109962686Y-63430500D01*
X110076814Y-63496392D01*
X110204108Y-63530500D01*
X110204110Y-63530500D01*
X110294167Y-63530500D01*
X110361206Y-63550185D01*
X110381848Y-63566819D01*
X110574181Y-63759152D01*
X110607666Y-63820475D01*
X110610500Y-63846833D01*
X110610500Y-64970763D01*
X110590815Y-65037802D01*
X110538011Y-65083557D01*
X110468853Y-65093501D01*
X110454409Y-65090538D01*
X110375892Y-65069500D01*
X110244108Y-65069500D01*
X110116812Y-65103608D01*
X110002686Y-65169500D01*
X110002683Y-65169502D01*
X109939005Y-65233181D01*
X109912077Y-65247884D01*
X109886259Y-65264477D01*
X109880058Y-65265368D01*
X109877682Y-65266666D01*
X109851324Y-65269500D01*
X109605833Y-65269500D01*
X109538794Y-65249815D01*
X109518152Y-65233181D01*
X107586819Y-63301848D01*
X107553334Y-63240525D01*
X107550500Y-63214167D01*
X107550500Y-63124110D01*
X107550500Y-63124108D01*
X107516392Y-62996814D01*
X107450500Y-62882686D01*
X107357314Y-62789500D01*
X107300250Y-62756554D01*
X107243187Y-62723608D01*
X107179539Y-62706554D01*
X107115892Y-62689500D01*
X106984108Y-62689500D01*
X106856812Y-62723608D01*
X106742686Y-62789500D01*
X106742683Y-62789502D01*
X106649502Y-62882683D01*
X106649500Y-62882686D01*
X106583608Y-62996812D01*
X106568240Y-63054167D01*
X106549500Y-63124108D01*
X106549500Y-63255892D01*
X106561814Y-63301848D01*
X106583608Y-63383187D01*
X106610923Y-63430497D01*
X106649500Y-63497314D01*
X106742686Y-63590500D01*
X106856814Y-63656392D01*
X106984108Y-63690500D01*
X106984110Y-63690500D01*
X107074167Y-63690500D01*
X107141206Y-63710185D01*
X107161848Y-63726819D01*
X108827354Y-65392325D01*
X108860839Y-65453648D01*
X108855855Y-65523340D01*
X108827357Y-65567684D01*
X107583066Y-66812062D01*
X107568543Y-66826586D01*
X107568538Y-66826590D01*
X107568532Y-66826597D01*
X107549539Y-66859500D01*
X107549535Y-66859506D01*
X107528983Y-66895102D01*
X107528979Y-66895110D01*
X107528973Y-66895124D01*
X107528934Y-66895240D01*
X107528695Y-66896165D01*
X107521792Y-66921931D01*
X107521791Y-66921935D01*
X107508499Y-66971542D01*
X107508500Y-67011110D01*
X107508500Y-68279994D01*
X107492089Y-68341644D01*
X106090785Y-70787150D01*
X106040375Y-70835530D01*
X105983196Y-70849500D01*
X105470730Y-70849500D01*
X105440300Y-70852353D01*
X105440298Y-70852353D01*
X105312119Y-70897206D01*
X105312117Y-70897207D01*
X105202850Y-70977850D01*
X105122207Y-71087117D01*
X105122206Y-71087119D01*
X105077353Y-71215298D01*
X105077353Y-71215300D01*
X105074500Y-71245730D01*
X105074500Y-71854269D01*
X105077353Y-71884699D01*
X105077353Y-71884701D01*
X105122206Y-72012880D01*
X105122207Y-72012882D01*
X105202850Y-72122150D01*
X105312118Y-72202793D01*
X105354845Y-72217744D01*
X105440299Y-72247646D01*
X105470730Y-72250500D01*
X105470734Y-72250500D01*
X106529270Y-72250500D01*
X106559699Y-72247646D01*
X106559701Y-72247646D01*
X106623790Y-72225219D01*
X106687882Y-72202793D01*
X106797150Y-72122150D01*
X106877793Y-72012882D01*
X106900219Y-71948790D01*
X106922646Y-71884701D01*
X106922646Y-71884699D01*
X106925500Y-71854269D01*
X106925500Y-71245730D01*
X106922646Y-71215300D01*
X106922646Y-71215298D01*
X106877793Y-71087119D01*
X106877792Y-71087117D01*
X106797150Y-70977850D01*
X106797148Y-70977849D01*
X106797148Y-70977848D01*
X106790579Y-70971279D01*
X106792089Y-70969768D01*
X106757346Y-70924001D01*
X106751893Y-70854344D01*
X106765645Y-70818238D01*
X107793819Y-69023906D01*
X107844228Y-68975528D01*
X107912792Y-68962082D01*
X107977741Y-68987838D01*
X107989090Y-68997879D01*
X108722738Y-69731560D01*
X108756222Y-69792884D01*
X108751236Y-69862575D01*
X108709363Y-69918508D01*
X108643898Y-69942923D01*
X108575626Y-69928070D01*
X108573055Y-69926626D01*
X108533188Y-69903609D01*
X108533187Y-69903608D01*
X108533186Y-69903608D01*
X108405892Y-69869500D01*
X108274108Y-69869500D01*
X108146812Y-69903608D01*
X108032686Y-69969500D01*
X108032683Y-69969502D01*
X107939502Y-70062683D01*
X107939500Y-70062686D01*
X107873608Y-70176812D01*
X107839500Y-70304108D01*
X107839500Y-70435891D01*
X107873608Y-70563187D01*
X107906554Y-70620250D01*
X107939500Y-70677314D01*
X107939502Y-70677316D01*
X108003181Y-70740995D01*
X108036666Y-70802318D01*
X108039500Y-70828676D01*
X108039500Y-74654067D01*
X108019815Y-74721106D01*
X108003181Y-74741748D01*
X107542181Y-75202750D01*
X107480858Y-75236235D01*
X107411167Y-75231251D01*
X107355233Y-75189380D01*
X107330816Y-75123915D01*
X107330500Y-75115069D01*
X107330500Y-73868676D01*
X107350185Y-73801637D01*
X107366819Y-73780995D01*
X107393548Y-73754266D01*
X107430500Y-73717314D01*
X107496392Y-73603186D01*
X107530500Y-73475892D01*
X107530500Y-73344108D01*
X107496392Y-73216814D01*
X107430500Y-73102686D01*
X107337314Y-73009500D01*
X107280250Y-72976554D01*
X107223187Y-72943608D01*
X107134123Y-72919744D01*
X107095892Y-72909500D01*
X106964108Y-72909500D01*
X106925874Y-72919744D01*
X106856024Y-72918079D01*
X106804761Y-72883380D01*
X106803721Y-72884421D01*
X106798323Y-72879023D01*
X106798163Y-72878915D01*
X106797977Y-72878677D01*
X106797151Y-72877851D01*
X106687882Y-72797207D01*
X106687880Y-72797206D01*
X106559700Y-72752353D01*
X106529270Y-72749500D01*
X106529266Y-72749500D01*
X105470734Y-72749500D01*
X105470730Y-72749500D01*
X105440300Y-72752353D01*
X105440298Y-72752353D01*
X105312119Y-72797206D01*
X105312117Y-72797207D01*
X105202850Y-72877850D01*
X105122207Y-72987117D01*
X105122206Y-72987119D01*
X105077353Y-73115298D01*
X105077353Y-73115300D01*
X105074500Y-73145730D01*
X105074500Y-73754269D01*
X105077353Y-73784699D01*
X105077353Y-73784701D01*
X105122206Y-73912880D01*
X105122207Y-73912882D01*
X105202850Y-74022150D01*
X105312118Y-74102793D01*
X105354845Y-74117744D01*
X105440299Y-74147646D01*
X105470730Y-74150500D01*
X105470734Y-74150500D01*
X106529270Y-74150500D01*
X106553612Y-74148216D01*
X106559699Y-74147646D01*
X106562183Y-74146776D01*
X106564544Y-74145951D01*
X106634322Y-74142388D01*
X106694950Y-74177116D01*
X106727178Y-74239109D01*
X106729500Y-74262992D01*
X106729500Y-75396970D01*
X106709815Y-75464009D01*
X106693183Y-75484649D01*
X104941683Y-77236219D01*
X104880361Y-77269706D01*
X104810669Y-77264723D01*
X104754734Y-77222852D01*
X104730316Y-77157389D01*
X104730000Y-77148540D01*
X104730000Y-56730000D01*
X56730000Y-56730000D01*
X55980500Y-56730000D01*
X55980500Y-48138711D01*
X59109500Y-48138711D01*
X59109500Y-48381288D01*
X59141161Y-48621785D01*
X59203947Y-48856104D01*
X59296773Y-49080205D01*
X59296776Y-49080212D01*
X59418064Y-49290289D01*
X59418066Y-49290292D01*
X59418067Y-49290293D01*
X59565733Y-49482736D01*
X59565739Y-49482743D01*
X59737256Y-49654260D01*
X59737262Y-49654265D01*
X59929711Y-49801936D01*
X60139788Y-49923224D01*
X60363900Y-50016054D01*
X60598211Y-50078838D01*
X60778586Y-50102584D01*
X60838711Y-50110500D01*
X60838712Y-50110500D01*
X61081289Y-50110500D01*
X61129388Y-50104167D01*
X61321789Y-50078838D01*
X61556100Y-50016054D01*
X61780212Y-49923224D01*
X61990289Y-49801936D01*
X62182738Y-49654265D01*
X62354265Y-49482738D01*
X62501936Y-49290289D01*
X62623224Y-49080212D01*
X62716054Y-48856100D01*
X62778838Y-48621789D01*
X62810500Y-48381288D01*
X62810500Y-48138712D01*
X62810500Y-48138711D01*
X109909500Y-48138711D01*
X109909500Y-48381288D01*
X109941161Y-48621785D01*
X110003947Y-48856104D01*
X110096773Y-49080205D01*
X110096776Y-49080212D01*
X110218064Y-49290289D01*
X110218066Y-49290292D01*
X110218067Y-49290293D01*
X110365733Y-49482736D01*
X110365739Y-49482743D01*
X110537256Y-49654260D01*
X110537262Y-49654265D01*
X110729711Y-49801936D01*
X110939788Y-49923224D01*
X111163900Y-50016054D01*
X111398211Y-50078838D01*
X111578586Y-50102584D01*
X111638711Y-50110500D01*
X111638712Y-50110500D01*
X111881289Y-50110500D01*
X111929388Y-50104167D01*
X112121789Y-50078838D01*
X112356100Y-50016054D01*
X112580212Y-49923224D01*
X112790289Y-49801936D01*
X112982738Y-49654265D01*
X113154265Y-49482738D01*
X113301936Y-49290289D01*
X113423224Y-49080212D01*
X113516054Y-48856100D01*
X113578838Y-48621789D01*
X113610500Y-48381288D01*
X113610500Y-48138712D01*
X113578838Y-47898211D01*
X113516054Y-47663900D01*
X113423224Y-47439788D01*
X113301936Y-47229711D01*
X113154265Y-47037262D01*
X113154260Y-47037256D01*
X112982743Y-46865739D01*
X112982736Y-46865733D01*
X112790293Y-46718067D01*
X112790292Y-46718066D01*
X112790289Y-46718064D01*
X112580212Y-46596776D01*
X112580205Y-46596773D01*
X112356104Y-46503947D01*
X112121785Y-46441161D01*
X111881289Y-46409500D01*
X111881288Y-46409500D01*
X111638712Y-46409500D01*
X111638711Y-46409500D01*
X111398214Y-46441161D01*
X111163895Y-46503947D01*
X110939794Y-46596773D01*
X110939785Y-46596777D01*
X110729706Y-46718067D01*
X110537263Y-46865733D01*
X110537256Y-46865739D01*
X110365739Y-47037256D01*
X110365733Y-47037263D01*
X110218067Y-47229706D01*
X110096777Y-47439785D01*
X110096773Y-47439794D01*
X110003947Y-47663895D01*
X109941161Y-47898214D01*
X109909500Y-48138711D01*
X62810500Y-48138711D01*
X62778838Y-47898211D01*
X62716054Y-47663900D01*
X62623224Y-47439788D01*
X62501936Y-47229711D01*
X62354265Y-47037262D01*
X62354260Y-47037256D01*
X62182743Y-46865739D01*
X62182736Y-46865733D01*
X61990293Y-46718067D01*
X61990292Y-46718066D01*
X61990289Y-46718064D01*
X61780212Y-46596776D01*
X61780205Y-46596773D01*
X61556104Y-46503947D01*
X61321785Y-46441161D01*
X61081289Y-46409500D01*
X61081288Y-46409500D01*
X60838712Y-46409500D01*
X60838711Y-46409500D01*
X60598214Y-46441161D01*
X60363895Y-46503947D01*
X60139794Y-46596773D01*
X60139785Y-46596777D01*
X59929706Y-46718067D01*
X59737263Y-46865733D01*
X59737256Y-46865739D01*
X59565739Y-47037256D01*
X59565733Y-47037263D01*
X59418067Y-47229706D01*
X59296777Y-47439785D01*
X59296773Y-47439794D01*
X59203947Y-47663895D01*
X59141161Y-47898214D01*
X59109500Y-48138711D01*
X55980500Y-48138711D01*
X55980500Y-44804500D01*
X56000185Y-44737461D01*
X56052989Y-44691706D01*
X56104500Y-44680500D01*
X116745500Y-44680500D01*
X116812539Y-44700185D01*
G37*
%TD.AperFunction*%
%TA.AperFunction,NonConductor*%
G36*
X114245201Y-58771412D02*
G01*
X114256231Y-58781202D01*
X114507348Y-59032319D01*
X114540833Y-59093642D01*
X114535849Y-59163334D01*
X114507348Y-59207681D01*
X113442181Y-60272848D01*
X113380858Y-60306333D01*
X113311166Y-60301349D01*
X113255233Y-60259477D01*
X113230816Y-60194013D01*
X113230500Y-60185167D01*
X113230500Y-59435832D01*
X113250185Y-59368793D01*
X113266815Y-59348155D01*
X113508151Y-59106818D01*
X113569474Y-59073334D01*
X113595832Y-59070500D01*
X113685890Y-59070500D01*
X113685892Y-59070500D01*
X113813186Y-59036392D01*
X113927314Y-58970500D01*
X114020500Y-58877314D01*
X114061164Y-58806882D01*
X114111730Y-58758668D01*
X114180337Y-58745444D01*
X114245201Y-58771412D01*
G37*
%TD.AperFunction*%
%TA.AperFunction,NonConductor*%
G36*
X109873582Y-65877035D02*
G01*
X109896691Y-65879097D01*
X109913843Y-65888857D01*
X109918363Y-65890185D01*
X109923620Y-65894421D01*
X109927366Y-65896553D01*
X109933505Y-65901319D01*
X110002686Y-65970500D01*
X110080426Y-66015383D01*
X110087121Y-66020581D01*
X110102800Y-66042311D01*
X110121294Y-66061707D01*
X110122933Y-66070215D01*
X110128004Y-66077242D01*
X110129446Y-66104000D01*
X110134518Y-66130314D01*
X110131297Y-66138357D01*
X110131764Y-66147010D01*
X110117821Y-66172018D01*
X110108550Y-66195179D01*
X110102514Y-66199477D01*
X110098763Y-66206206D01*
X109381841Y-66923178D01*
X109320519Y-66956665D01*
X109294157Y-66959500D01*
X108868676Y-66959500D01*
X108801637Y-66939815D01*
X108780995Y-66923181D01*
X108717316Y-66859502D01*
X108717314Y-66859500D01*
X108672216Y-66833463D01*
X108646919Y-66818857D01*
X108598704Y-66768289D01*
X108585482Y-66699682D01*
X108611450Y-66634817D01*
X108621231Y-66623797D01*
X109338158Y-65906821D01*
X109399479Y-65873335D01*
X109425841Y-65870500D01*
X109469562Y-65870500D01*
X109851324Y-65870500D01*
X109873582Y-65877035D01*
G37*
%TD.AperFunction*%
%TA.AperFunction,NonConductor*%
G36*
X79158754Y-88140500D02*
G01*
X79304019Y-88140500D01*
X79304019Y-88143600D01*
X79306555Y-88143995D01*
X79323646Y-88141577D01*
X79340361Y-88149256D01*
X79358540Y-88152085D01*
X79371453Y-88163538D01*
X79387137Y-88170744D01*
X79397047Y-88186241D01*
X79410810Y-88198449D01*
X79415480Y-88215067D01*
X79424779Y-88229607D01*
X79429724Y-88264553D01*
X79429704Y-88273345D01*
X79429500Y-88274108D01*
X79429500Y-88364444D01*
X79419561Y-88398011D01*
X79409815Y-88431205D01*
X79409706Y-88431299D01*
X79409665Y-88431439D01*
X79393181Y-88451847D01*
X79208159Y-88636868D01*
X79146836Y-88670353D01*
X79077144Y-88665369D01*
X79021211Y-88623497D01*
X78996794Y-88558033D01*
X79000702Y-88517099D01*
X79030500Y-88405892D01*
X79030500Y-88274108D01*
X79030500Y-88265981D01*
X79033599Y-88265981D01*
X79042089Y-88211451D01*
X79088457Y-88159184D01*
X79155722Y-88140283D01*
X79158754Y-88140500D01*
G37*
%TD.AperFunction*%
%TA.AperFunction,NonConductor*%
G36*
X101642138Y-80890185D02*
G01*
X101687893Y-80942989D01*
X101697837Y-81012147D01*
X101668812Y-81075703D01*
X101662780Y-81082181D01*
X87973981Y-94771045D01*
X87912658Y-94804530D01*
X87842967Y-94799546D01*
X87787033Y-94757675D01*
X87762616Y-94692210D01*
X87762300Y-94683364D01*
X87762300Y-84784033D01*
X87781985Y-84716994D01*
X87798619Y-84696352D01*
X90980457Y-81514514D01*
X90980460Y-81514511D01*
X90983353Y-81509500D01*
X91020021Y-81445989D01*
X91040500Y-81369562D01*
X91040500Y-80994500D01*
X91060185Y-80927461D01*
X91112989Y-80881706D01*
X91164500Y-80870500D01*
X101575099Y-80870500D01*
X101642138Y-80890185D01*
G37*
%TD.AperFunction*%
%TA.AperFunction,NonConductor*%
G36*
X69420002Y-90769781D02*
G01*
X69475936Y-90811653D01*
X69484056Y-90823962D01*
X69549500Y-90937314D01*
X69642686Y-91030500D01*
X69756814Y-91096392D01*
X69884108Y-91130500D01*
X69884110Y-91130500D01*
X70015890Y-91130500D01*
X70015892Y-91130500D01*
X70143186Y-91096392D01*
X70257314Y-91030500D01*
X70320995Y-90966819D01*
X70382318Y-90933334D01*
X70408676Y-90930500D01*
X73417453Y-90930500D01*
X73484492Y-90950185D01*
X73530247Y-91002989D01*
X73540191Y-91072147D01*
X73511166Y-91135703D01*
X73492939Y-91152876D01*
X73492384Y-91153301D01*
X73399202Y-91246483D01*
X73399200Y-91246486D01*
X73333308Y-91360612D01*
X73310204Y-91446840D01*
X73299200Y-91487908D01*
X73299200Y-91619692D01*
X73301236Y-91627292D01*
X73333309Y-91746988D01*
X73333309Y-91746989D01*
X73391809Y-91848313D01*
X73408282Y-91916213D01*
X73385430Y-91982240D01*
X73330508Y-92025430D01*
X73317049Y-92029910D01*
X73316814Y-92030007D01*
X73202686Y-92095900D01*
X73202683Y-92095902D01*
X73109502Y-92189083D01*
X73109500Y-92189086D01*
X73043608Y-92303212D01*
X73009500Y-92430508D01*
X73009500Y-92493766D01*
X72989815Y-92560805D01*
X72973181Y-92581447D01*
X68611560Y-96943067D01*
X68596825Y-96951112D01*
X68585157Y-96963187D01*
X68566793Y-96967511D01*
X68550237Y-96976552D01*
X68533490Y-96975354D01*
X68517148Y-96979203D01*
X68499362Y-96972913D01*
X68480545Y-96971568D01*
X68466637Y-96961341D01*
X68451276Y-96955909D01*
X68435518Y-96938458D01*
X68425896Y-96931382D01*
X68420718Y-96924706D01*
X68375500Y-96846386D01*
X68306300Y-96777186D01*
X68301517Y-96771019D01*
X68291485Y-96745466D01*
X68278334Y-96721380D01*
X68276939Y-96708414D01*
X68275985Y-96705982D01*
X68276435Y-96703725D01*
X68275500Y-96695023D01*
X68275500Y-91863133D01*
X68295185Y-91796094D01*
X68311819Y-91775452D01*
X68726659Y-91360612D01*
X69288990Y-90798280D01*
X69350311Y-90764797D01*
X69420002Y-90769781D01*
G37*
%TD.AperFunction*%
%TA.AperFunction,NonConductor*%
G36*
X77685703Y-98671563D02*
G01*
X77692181Y-98677595D01*
X77744486Y-98729900D01*
X77858614Y-98795792D01*
X77942994Y-98818401D01*
X78002653Y-98854764D01*
X78033183Y-98917611D01*
X78034900Y-98938175D01*
X78034900Y-100780811D01*
X78015215Y-100847850D01*
X77962411Y-100893605D01*
X77893253Y-100903549D01*
X77842010Y-100883914D01*
X77677596Y-100774057D01*
X77557047Y-100724124D01*
X77502643Y-100680282D01*
X77480579Y-100613988D01*
X77480500Y-100609563D01*
X77480500Y-98765276D01*
X77500185Y-98698237D01*
X77552989Y-98652482D01*
X77622147Y-98642538D01*
X77685703Y-98671563D01*
G37*
%TD.AperFunction*%
%TA.AperFunction,NonConductor*%
G36*
X73720106Y-93559185D02*
G01*
X73740748Y-93575819D01*
X73893181Y-93728252D01*
X73907884Y-93755179D01*
X73924477Y-93780998D01*
X73925368Y-93787198D01*
X73926666Y-93789575D01*
X73929500Y-93815933D01*
X73929500Y-93981323D01*
X73909815Y-94048362D01*
X73893182Y-94069004D01*
X73829500Y-94132686D01*
X73763608Y-94246812D01*
X73729500Y-94374108D01*
X73729500Y-94504418D01*
X73709815Y-94571457D01*
X73657011Y-94617212D01*
X73587853Y-94627156D01*
X73573409Y-94624193D01*
X73555896Y-94619500D01*
X73555892Y-94619500D01*
X73424108Y-94619500D01*
X73296812Y-94653608D01*
X73182686Y-94719500D01*
X73182683Y-94719502D01*
X73089502Y-94812683D01*
X73089500Y-94812686D01*
X73023608Y-94926812D01*
X72998585Y-95020202D01*
X72989500Y-95054108D01*
X72989500Y-95185892D01*
X73006554Y-95249539D01*
X73023608Y-95313187D01*
X73047640Y-95354810D01*
X73089500Y-95427314D01*
X73089502Y-95427316D01*
X73153181Y-95490995D01*
X73186666Y-95552318D01*
X73189500Y-95578676D01*
X73189500Y-100929505D01*
X73169815Y-100996544D01*
X73117011Y-101042299D01*
X73047853Y-101052243D01*
X72984297Y-101023218D01*
X72977819Y-101017186D01*
X72849657Y-100889024D01*
X72699968Y-100789006D01*
X72677598Y-100774059D01*
X72677593Y-100774057D01*
X72486420Y-100694870D01*
X72486412Y-100694868D01*
X72283469Y-100654500D01*
X72283465Y-100654500D01*
X72076535Y-100654500D01*
X72076530Y-100654500D01*
X71873587Y-100694868D01*
X71873579Y-100694870D01*
X71682403Y-100774058D01*
X71522390Y-100880974D01*
X71455712Y-100901851D01*
X71388332Y-100883366D01*
X71341643Y-100831387D01*
X71329500Y-100777871D01*
X71329500Y-95716933D01*
X71349185Y-95649894D01*
X71365819Y-95629252D01*
X73419252Y-93575819D01*
X73446179Y-93561115D01*
X73471998Y-93544523D01*
X73478198Y-93543631D01*
X73480575Y-93542334D01*
X73506933Y-93539500D01*
X73653067Y-93539500D01*
X73720106Y-93559185D01*
G37*
%TD.AperFunction*%
%TA.AperFunction,NonConductor*%
G36*
X74215703Y-92395220D02*
G01*
X74222181Y-92401252D01*
X79343181Y-97522252D01*
X79376666Y-97583575D01*
X79379500Y-97609933D01*
X79379500Y-100609563D01*
X79359815Y-100676602D01*
X79307011Y-100722357D01*
X79302953Y-100724124D01*
X79182404Y-100774057D01*
X79010342Y-100889024D01*
X78864024Y-101035342D01*
X78863000Y-101036876D01*
X78862256Y-101037497D01*
X78860159Y-101040053D01*
X78859674Y-101039655D01*
X78809386Y-101081679D01*
X78740060Y-101090384D01*
X78677034Y-101060226D01*
X78640317Y-101000782D01*
X78635900Y-100967981D01*
X78635900Y-98573439D01*
X78635900Y-98573438D01*
X78615421Y-98497011D01*
X78615417Y-98497004D01*
X78571797Y-98421450D01*
X78573729Y-98420334D01*
X78552729Y-98366001D01*
X78552300Y-98355692D01*
X78552300Y-98263510D01*
X78552300Y-98263508D01*
X78518192Y-98136214D01*
X78452300Y-98022086D01*
X78359114Y-97928900D01*
X78279762Y-97883086D01*
X78244987Y-97863008D01*
X78181339Y-97845954D01*
X78117692Y-97828900D01*
X77985908Y-97828900D01*
X77858612Y-97863008D01*
X77744486Y-97928900D01*
X77744483Y-97928902D01*
X77692181Y-97981205D01*
X77630858Y-98014690D01*
X77561166Y-98009706D01*
X77505233Y-97967834D01*
X77480816Y-97902370D01*
X77480500Y-97893524D01*
X77480500Y-97323539D01*
X77475047Y-97303187D01*
X77460021Y-97247111D01*
X77444133Y-97219592D01*
X77420464Y-97178595D01*
X77420458Y-97178587D01*
X75774419Y-95532548D01*
X75740934Y-95471225D01*
X75738100Y-95444867D01*
X75738100Y-95354810D01*
X75738100Y-95354808D01*
X75703992Y-95227514D01*
X75638100Y-95113386D01*
X75544914Y-95020200D01*
X75479292Y-94982313D01*
X75430787Y-94954308D01*
X75350677Y-94932843D01*
X75303492Y-94920200D01*
X75171708Y-94920200D01*
X75044412Y-94954308D01*
X74930286Y-95020200D01*
X74930283Y-95020202D01*
X74837102Y-95113383D01*
X74837100Y-95113386D01*
X74771208Y-95227512D01*
X74743624Y-95330460D01*
X74737100Y-95354808D01*
X74737100Y-95486592D01*
X74743811Y-95511637D01*
X74771208Y-95613887D01*
X74790042Y-95646507D01*
X74837100Y-95728014D01*
X74930286Y-95821200D01*
X75044414Y-95887092D01*
X75171708Y-95921200D01*
X75171710Y-95921200D01*
X75261767Y-95921200D01*
X75328806Y-95940885D01*
X75349448Y-95957519D01*
X76843181Y-97451252D01*
X76876666Y-97512575D01*
X76879500Y-97538933D01*
X76879500Y-99197725D01*
X76859815Y-99264764D01*
X76807011Y-99310519D01*
X76737853Y-99320463D01*
X76723408Y-99317500D01*
X76642793Y-99295900D01*
X76642792Y-99295900D01*
X76511008Y-99295900D01*
X76383712Y-99330008D01*
X76269586Y-99395900D01*
X76269583Y-99395902D01*
X76176402Y-99489083D01*
X76176400Y-99489086D01*
X76110508Y-99603212D01*
X76076400Y-99730508D01*
X76076400Y-99862293D01*
X76088795Y-99908553D01*
X76087132Y-99978403D01*
X76056701Y-100028326D01*
X75329506Y-100755521D01*
X75268183Y-100789006D01*
X75198491Y-100784022D01*
X75183331Y-100776262D01*
X75182973Y-100776932D01*
X75177595Y-100774057D01*
X74986420Y-100694870D01*
X74986412Y-100694868D01*
X74783469Y-100654500D01*
X74783465Y-100654500D01*
X74576535Y-100654500D01*
X74576530Y-100654500D01*
X74373587Y-100694868D01*
X74373579Y-100694870D01*
X74182403Y-100774058D01*
X74010342Y-100889024D01*
X74010341Y-100889025D01*
X74002181Y-100897186D01*
X73940858Y-100930671D01*
X73871166Y-100925687D01*
X73815233Y-100883815D01*
X73790816Y-100818351D01*
X73790500Y-100809505D01*
X73790500Y-95578676D01*
X73810185Y-95511637D01*
X73826819Y-95490995D01*
X73846589Y-95471225D01*
X73890500Y-95427314D01*
X73956392Y-95313186D01*
X73990500Y-95185892D01*
X73990500Y-95055581D01*
X74010185Y-94988542D01*
X74062989Y-94942787D01*
X74132147Y-94932843D01*
X74146584Y-94935804D01*
X74164108Y-94940500D01*
X74164110Y-94940500D01*
X74295890Y-94940500D01*
X74295892Y-94940500D01*
X74423186Y-94906392D01*
X74537314Y-94840500D01*
X74630500Y-94747314D01*
X74696392Y-94633186D01*
X74730500Y-94505892D01*
X74730500Y-94374108D01*
X74696392Y-94246814D01*
X74630500Y-94132686D01*
X74566818Y-94069004D01*
X74533334Y-94007680D01*
X74530500Y-93981323D01*
X74530500Y-93600539D01*
X74514904Y-93542334D01*
X74510021Y-93524111D01*
X74496389Y-93500499D01*
X74470464Y-93455595D01*
X74470458Y-93455587D01*
X74414511Y-93399640D01*
X74013413Y-92998541D01*
X74010570Y-92996900D01*
X73959250Y-92967270D01*
X73911036Y-92916703D01*
X73897814Y-92848096D01*
X73913865Y-92797885D01*
X73976392Y-92689586D01*
X74010500Y-92562292D01*
X74010500Y-92488933D01*
X74030185Y-92421894D01*
X74082989Y-92376139D01*
X74152147Y-92366195D01*
X74215703Y-92395220D01*
G37*
%TD.AperFunction*%
%TA.AperFunction,NonConductor*%
G36*
X67593834Y-91573650D02*
G01*
X67649767Y-91615522D01*
X67674184Y-91680986D01*
X67674500Y-91689832D01*
X67674500Y-96695023D01*
X67654815Y-96762062D01*
X67638182Y-96782704D01*
X67574500Y-96846386D01*
X67508608Y-96960512D01*
X67483775Y-97053192D01*
X67474500Y-97087808D01*
X67474500Y-97219592D01*
X67481872Y-97247104D01*
X67508608Y-97346887D01*
X67541554Y-97403950D01*
X67574500Y-97461014D01*
X67667686Y-97554200D01*
X67706122Y-97576391D01*
X67738686Y-97595192D01*
X67786902Y-97645759D01*
X67800125Y-97714366D01*
X67774156Y-97779231D01*
X67764367Y-97790260D01*
X64927639Y-100626988D01*
X64866316Y-100660473D01*
X64815769Y-100660925D01*
X64783465Y-100654500D01*
X64576535Y-100654500D01*
X64576530Y-100654500D01*
X64373587Y-100694868D01*
X64373579Y-100694870D01*
X64182403Y-100774058D01*
X64010342Y-100889024D01*
X63864023Y-101035343D01*
X63858601Y-101043459D01*
X63804988Y-101088263D01*
X63735662Y-101096969D01*
X63672636Y-101066813D01*
X63635918Y-101007369D01*
X63631500Y-100974566D01*
X63631500Y-95484832D01*
X63651185Y-95417793D01*
X63667814Y-95397156D01*
X67462820Y-91602150D01*
X67524142Y-91568666D01*
X67593834Y-91573650D01*
G37*
%TD.AperFunction*%
%TA.AperFunction,NonConductor*%
G36*
X76793257Y-100276962D02*
G01*
X76851119Y-100316125D01*
X76878623Y-100380354D01*
X76879500Y-100395074D01*
X76879500Y-100609563D01*
X76859815Y-100676602D01*
X76807011Y-100722357D01*
X76802953Y-100724124D01*
X76682404Y-100774057D01*
X76510342Y-100889024D01*
X76364024Y-101035342D01*
X76249058Y-101207403D01*
X76169870Y-101398579D01*
X76169868Y-101398587D01*
X76129500Y-101601530D01*
X76129500Y-102058469D01*
X76169868Y-102261412D01*
X76169870Y-102261420D01*
X76211702Y-102362412D01*
X76249059Y-102452598D01*
X76297444Y-102525012D01*
X76364024Y-102624657D01*
X76510342Y-102770975D01*
X76510345Y-102770977D01*
X76682402Y-102885941D01*
X76873580Y-102965130D01*
X76876493Y-102965709D01*
X76879877Y-102966383D01*
X76941788Y-102998767D01*
X76976362Y-103059483D01*
X76972623Y-103129252D01*
X76931757Y-103185925D01*
X76866739Y-103211506D01*
X76855686Y-103212000D01*
X75443376Y-103212000D01*
X75421105Y-103205460D01*
X75397990Y-103203395D01*
X75384932Y-103194838D01*
X75376337Y-103192315D01*
X75367318Y-103185934D01*
X75361184Y-103181170D01*
X75292014Y-103112000D01*
X75214479Y-103067235D01*
X75207772Y-103062026D01*
X75192102Y-103040301D01*
X75173614Y-103020912D01*
X75171972Y-103012394D01*
X75166898Y-103005359D01*
X75165460Y-102978606D01*
X75160392Y-102952305D01*
X75163615Y-102944253D01*
X75163150Y-102935590D01*
X75176404Y-102912306D01*
X75186360Y-102887440D01*
X75195239Y-102879221D01*
X75197717Y-102874870D01*
X75202835Y-102872191D01*
X75214935Y-102860992D01*
X75349655Y-102770977D01*
X75495977Y-102624655D01*
X75610941Y-102452598D01*
X75690130Y-102261420D01*
X75730500Y-102058465D01*
X75730500Y-101601535D01*
X75690130Y-101398580D01*
X75676807Y-101366416D01*
X75669338Y-101296947D01*
X75700613Y-101234467D01*
X75703657Y-101231312D01*
X76612850Y-100322120D01*
X76626734Y-100314104D01*
X76635992Y-100303921D01*
X76668431Y-100290030D01*
X76723408Y-100275299D01*
X76793257Y-100276962D01*
G37*
%TD.AperFunction*%
%TA.AperFunction,NonConductor*%
G36*
X73995703Y-102756782D02*
G01*
X74002181Y-102762814D01*
X74010342Y-102770975D01*
X74010345Y-102770977D01*
X74182402Y-102885941D01*
X74373580Y-102965130D01*
X74521956Y-102994643D01*
X74583865Y-103027027D01*
X74618439Y-103087743D01*
X74614700Y-103157512D01*
X74588861Y-103198521D01*
X74589147Y-103198740D01*
X74586783Y-103201819D01*
X74585451Y-103203935D01*
X74584202Y-103205183D01*
X74584200Y-103205186D01*
X74518308Y-103319312D01*
X74498439Y-103393465D01*
X74484200Y-103446608D01*
X74484200Y-103578392D01*
X74489031Y-103596420D01*
X74518308Y-103705687D01*
X74545602Y-103752960D01*
X74584200Y-103819814D01*
X74677386Y-103913000D01*
X74791514Y-103978892D01*
X74900933Y-104008210D01*
X74960592Y-104044573D01*
X74991122Y-104107420D01*
X74982828Y-104176796D01*
X74963430Y-104205460D01*
X74964447Y-104206240D01*
X74959500Y-104212686D01*
X74893608Y-104326812D01*
X74859500Y-104454108D01*
X74859500Y-104585893D01*
X74859978Y-104589525D01*
X74859500Y-104592589D01*
X74859500Y-104594019D01*
X74859277Y-104594019D01*
X74849209Y-104658560D01*
X74802827Y-104710814D01*
X74735557Y-104729696D01*
X74668758Y-104709212D01*
X74649357Y-104693386D01*
X73826819Y-103870848D01*
X73793334Y-103809525D01*
X73790500Y-103783167D01*
X73790500Y-102850495D01*
X73810185Y-102783456D01*
X73862989Y-102737701D01*
X73932147Y-102727757D01*
X73995703Y-102756782D01*
G37*
%TD.AperFunction*%
%TA.AperFunction,NonConductor*%
G36*
X75289091Y-105019155D02*
G01*
X75294108Y-105020500D01*
X75385047Y-105020500D01*
X75385904Y-105020512D01*
X75418506Y-105030583D01*
X75451206Y-105040185D01*
X75451797Y-105040867D01*
X75452661Y-105041134D01*
X75471848Y-105056819D01*
X76044181Y-105629152D01*
X76077666Y-105690475D01*
X76080500Y-105716833D01*
X76080500Y-105760763D01*
X76060815Y-105827802D01*
X76008011Y-105873557D01*
X75938853Y-105883501D01*
X75924409Y-105880538D01*
X75845892Y-105859500D01*
X75845891Y-105859500D01*
X75838042Y-105857397D01*
X75838868Y-105854313D01*
X75788688Y-105832111D01*
X75781095Y-105825124D01*
X75186613Y-105230642D01*
X75175598Y-105210470D01*
X75160789Y-105192888D01*
X75159169Y-105180383D01*
X75153128Y-105169319D01*
X75154767Y-105146393D01*
X75151815Y-105123597D01*
X75157212Y-105112203D01*
X75158112Y-105099627D01*
X75171888Y-105081224D01*
X75181728Y-105060454D01*
X75192428Y-105053787D01*
X75199984Y-105043694D01*
X75221519Y-105035661D01*
X75241029Y-105023506D01*
X75261067Y-105020910D01*
X75265448Y-105019277D01*
X75272144Y-105019476D01*
X75276031Y-105018973D01*
X75289091Y-105019155D01*
G37*
%TD.AperFunction*%
%TA.AperFunction,NonConductor*%
G36*
X111215205Y-101800185D02*
G01*
X111260960Y-101852989D01*
X111270904Y-101922147D01*
X111241879Y-101985703D01*
X111235847Y-101992181D01*
X107933717Y-105294311D01*
X107872394Y-105327796D01*
X107802702Y-105322812D01*
X107746769Y-105280940D01*
X107742949Y-105275543D01*
X107665977Y-105160345D01*
X107665975Y-105160342D01*
X107519657Y-105014024D01*
X107393595Y-104929793D01*
X107347598Y-104899059D01*
X107326932Y-104890499D01*
X107156420Y-104819870D01*
X107156412Y-104819868D01*
X106953469Y-104779500D01*
X106953465Y-104779500D01*
X106746535Y-104779500D01*
X106746530Y-104779500D01*
X106543587Y-104819868D01*
X106543579Y-104819870D01*
X106352403Y-104899058D01*
X106180342Y-105014024D01*
X106034024Y-105160342D01*
X105919058Y-105332403D01*
X105869125Y-105452953D01*
X105825284Y-105507356D01*
X105758990Y-105529421D01*
X105754564Y-105529500D01*
X105546838Y-105529500D01*
X105516267Y-105537691D01*
X105470408Y-105549979D01*
X105470407Y-105549980D01*
X105407346Y-105586389D01*
X105407344Y-105586390D01*
X105401892Y-105589537D01*
X105401888Y-105589540D01*
X105066747Y-105924681D01*
X105039819Y-105939384D01*
X105014001Y-105955977D01*
X105007800Y-105956868D01*
X105005424Y-105958166D01*
X104979066Y-105961000D01*
X104903332Y-105961000D01*
X104836293Y-105941315D01*
X104790538Y-105888511D01*
X104780594Y-105819353D01*
X104809619Y-105755797D01*
X104815651Y-105749319D01*
X105550947Y-105014023D01*
X106287896Y-104277073D01*
X106349217Y-104243590D01*
X106418909Y-104248574D01*
X106423007Y-104250186D01*
X106543580Y-104300130D01*
X106702048Y-104331651D01*
X106746530Y-104340499D01*
X106746534Y-104340500D01*
X106746535Y-104340500D01*
X106953466Y-104340500D01*
X106953467Y-104340499D01*
X107156420Y-104300130D01*
X107347598Y-104220941D01*
X107519655Y-104105977D01*
X107665977Y-103959655D01*
X107780941Y-103787598D01*
X107860130Y-103596420D01*
X107900500Y-103393465D01*
X107900500Y-103186535D01*
X107860130Y-102983580D01*
X107810194Y-102863026D01*
X107802726Y-102793559D01*
X107834001Y-102731080D01*
X107837045Y-102727924D01*
X108748152Y-101816819D01*
X108809475Y-101783334D01*
X108835833Y-101780500D01*
X111148166Y-101780500D01*
X111215205Y-101800185D01*
G37*
%TD.AperFunction*%
%TA.AperFunction,NonConductor*%
G36*
X78736614Y-102514142D02*
G01*
X78738505Y-102513836D01*
X78768926Y-102527077D01*
X78799703Y-102539399D01*
X78801369Y-102541200D01*
X78802569Y-102541722D01*
X78826152Y-102567977D01*
X78842017Y-102591720D01*
X78864024Y-102624657D01*
X79010342Y-102770975D01*
X79010345Y-102770977D01*
X79182402Y-102885941D01*
X79373580Y-102965130D01*
X79566536Y-103003511D01*
X79576530Y-103005499D01*
X79576534Y-103005500D01*
X79576535Y-103005500D01*
X79783466Y-103005500D01*
X79783467Y-103005499D01*
X79860741Y-102990129D01*
X79919598Y-102978422D01*
X79989189Y-102984649D01*
X80044367Y-103027512D01*
X80067611Y-103093402D01*
X80051543Y-103161399D01*
X80031469Y-103187721D01*
X76893180Y-106325951D01*
X76831857Y-106359435D01*
X76762165Y-106354450D01*
X76706232Y-106312578D01*
X76681816Y-106247114D01*
X76681500Y-106238269D01*
X76681500Y-105501439D01*
X76681500Y-105501438D01*
X76661021Y-105425011D01*
X76661017Y-105425004D01*
X76621464Y-105356495D01*
X76621458Y-105356487D01*
X75896819Y-104631848D01*
X75863334Y-104570525D01*
X75860500Y-104544167D01*
X75860500Y-104454110D01*
X75860500Y-104454108D01*
X75826392Y-104326814D01*
X75760500Y-104212686D01*
X75667314Y-104119500D01*
X75553186Y-104053608D01*
X75553183Y-104053606D01*
X75548247Y-104051562D01*
X75493843Y-104007723D01*
X75471776Y-103941429D01*
X75489054Y-103873729D01*
X75540190Y-103826117D01*
X75595697Y-103813000D01*
X77321760Y-103813000D01*
X77321762Y-103813000D01*
X77398189Y-103792521D01*
X77466711Y-103752960D01*
X77522660Y-103697011D01*
X78575860Y-102643811D01*
X78615422Y-102575288D01*
X78615421Y-102575288D01*
X78615664Y-102574869D01*
X78617049Y-102573548D01*
X78617556Y-102571701D01*
X78642230Y-102549537D01*
X78666231Y-102526653D01*
X78668111Y-102526290D01*
X78669535Y-102525012D01*
X78702268Y-102519707D01*
X78734838Y-102513431D01*
X78736614Y-102514142D01*
G37*
%TD.AperFunction*%
%TA.AperFunction,NonConductor*%
G36*
X71865703Y-107831120D02*
G01*
X71872181Y-107837152D01*
X72225692Y-108190663D01*
X72259177Y-108251986D01*
X72254193Y-108321678D01*
X72212321Y-108377611D01*
X72175352Y-108395570D01*
X72175369Y-108395611D01*
X72174693Y-108395890D01*
X72170110Y-108398117D01*
X72169354Y-108398319D01*
X72167863Y-108398719D01*
X72036635Y-108474485D01*
X72036632Y-108474487D01*
X71929487Y-108581632D01*
X71929485Y-108581635D01*
X71891887Y-108646756D01*
X71841319Y-108694971D01*
X71772712Y-108708193D01*
X71707847Y-108682225D01*
X71667319Y-108625310D01*
X71660500Y-108584755D01*
X71660500Y-107924833D01*
X71680185Y-107857794D01*
X71732989Y-107812039D01*
X71802147Y-107802095D01*
X71865703Y-107831120D01*
G37*
%TD.AperFunction*%
%TA.AperFunction,NonConductor*%
G36*
X62205585Y-106482077D02*
G01*
X62223601Y-106483363D01*
X62237689Y-106493905D01*
X62254202Y-106499989D01*
X62279258Y-106524846D01*
X62283859Y-106530941D01*
X62339500Y-106627314D01*
X62409277Y-106697091D01*
X62414469Y-106703969D01*
X62423888Y-106728917D01*
X62436666Y-106752318D01*
X62436038Y-106761097D01*
X62439148Y-106769335D01*
X62439500Y-106778676D01*
X62439500Y-107644163D01*
X62419815Y-107711202D01*
X62403180Y-107731845D01*
X61186217Y-108948776D01*
X61124894Y-108982261D01*
X61055202Y-108977275D01*
X60999269Y-108935403D01*
X60991150Y-108923094D01*
X60989283Y-108919860D01*
X60950500Y-108852686D01*
X60857314Y-108759500D01*
X60768448Y-108708193D01*
X60743187Y-108693608D01*
X60673698Y-108674989D01*
X60615892Y-108659500D01*
X60525833Y-108659500D01*
X60496392Y-108650855D01*
X60466406Y-108644332D01*
X60461390Y-108640577D01*
X60458794Y-108639815D01*
X60438152Y-108623181D01*
X60285819Y-108470848D01*
X60252334Y-108409525D01*
X60249500Y-108383167D01*
X60249500Y-108229236D01*
X60269185Y-108162197D01*
X60321989Y-108116442D01*
X60391147Y-108106498D01*
X60405571Y-108109456D01*
X60484108Y-108130500D01*
X60484111Y-108130500D01*
X60615890Y-108130500D01*
X60615892Y-108130500D01*
X60743186Y-108096392D01*
X60857314Y-108030500D01*
X60950500Y-107937314D01*
X61016392Y-107823186D01*
X61050500Y-107695892D01*
X61050500Y-107605712D01*
X61070185Y-107538673D01*
X61086799Y-107518051D01*
X62092592Y-106511887D01*
X62108032Y-106503453D01*
X62120427Y-106490959D01*
X62138061Y-106487049D01*
X62153909Y-106478392D01*
X62171460Y-106479643D01*
X62188640Y-106475835D01*
X62205585Y-106482077D01*
G37*
%TD.AperFunction*%
%TA.AperFunction,NonConductor*%
G36*
X73108834Y-102614313D02*
G01*
X73164767Y-102656185D01*
X73189184Y-102721649D01*
X73189500Y-102730495D01*
X73189500Y-103998562D01*
X73201829Y-104044573D01*
X73209979Y-104074989D01*
X73245141Y-104135892D01*
X73249540Y-104143511D01*
X73249542Y-104143514D01*
X75254370Y-106148341D01*
X75287855Y-106209664D01*
X75286465Y-106268111D01*
X75279500Y-106294106D01*
X75279500Y-106294108D01*
X75279500Y-106425892D01*
X75297613Y-106493490D01*
X75300538Y-106504407D01*
X75298875Y-106574257D01*
X75259712Y-106632119D01*
X75195484Y-106659623D01*
X75180763Y-106660500D01*
X74629768Y-106660500D01*
X74562729Y-106640815D01*
X74521509Y-106593244D01*
X74520456Y-106593853D01*
X74517300Y-106588388D01*
X74516974Y-106588011D01*
X74516639Y-106587243D01*
X74516392Y-106586816D01*
X74516392Y-106586814D01*
X74450500Y-106472686D01*
X74357314Y-106379500D01*
X74300250Y-106346554D01*
X74243187Y-106313608D01*
X74169074Y-106293750D01*
X74115892Y-106279500D01*
X73984108Y-106279500D01*
X73856812Y-106313608D01*
X73742686Y-106379500D01*
X73742683Y-106379502D01*
X73662181Y-106460005D01*
X73600858Y-106493490D01*
X73531166Y-106488506D01*
X73475233Y-106446634D01*
X73450816Y-106381170D01*
X73450500Y-106372324D01*
X73450500Y-106254110D01*
X73450500Y-106254108D01*
X73416392Y-106126814D01*
X73350500Y-106012686D01*
X73257314Y-105919500D01*
X73257313Y-105919499D01*
X73256818Y-105919004D01*
X73223334Y-105857680D01*
X73220500Y-105831323D01*
X73220500Y-105578676D01*
X73240185Y-105511637D01*
X73256819Y-105490995D01*
X73320500Y-105427314D01*
X73386392Y-105313186D01*
X73420500Y-105185892D01*
X73420500Y-105054108D01*
X73386392Y-104926814D01*
X73320500Y-104812686D01*
X73227314Y-104719500D01*
X73164418Y-104683187D01*
X73113187Y-104653608D01*
X73031976Y-104631848D01*
X72985892Y-104619500D01*
X72854108Y-104619500D01*
X72726812Y-104653608D01*
X72612686Y-104719500D01*
X72612683Y-104719502D01*
X72519502Y-104812683D01*
X72519500Y-104812686D01*
X72453608Y-104926812D01*
X72428505Y-105020500D01*
X72419500Y-105054108D01*
X72419500Y-105185892D01*
X72420735Y-105190500D01*
X72453608Y-105313187D01*
X72486554Y-105370250D01*
X72519500Y-105427314D01*
X72519502Y-105427316D01*
X72583181Y-105490995D01*
X72616666Y-105552318D01*
X72619500Y-105578676D01*
X72619500Y-105891324D01*
X72599815Y-105958363D01*
X72583181Y-105979005D01*
X72549502Y-106012683D01*
X72549500Y-106012686D01*
X72483608Y-106126812D01*
X72453744Y-106238269D01*
X72449500Y-106254108D01*
X72449500Y-106385892D01*
X72458512Y-106419525D01*
X72483608Y-106513187D01*
X72514691Y-106567024D01*
X72549500Y-106627314D01*
X72642686Y-106720500D01*
X72741521Y-106777563D01*
X72745453Y-106779833D01*
X72756814Y-106786392D01*
X72884108Y-106820500D01*
X72884110Y-106820500D01*
X73015890Y-106820500D01*
X73015892Y-106820500D01*
X73143186Y-106786392D01*
X73257314Y-106720500D01*
X73337819Y-106639995D01*
X73399142Y-106606510D01*
X73468834Y-106611494D01*
X73524767Y-106653366D01*
X73549184Y-106718830D01*
X73549500Y-106727676D01*
X73549500Y-106845891D01*
X73583608Y-106973187D01*
X73612719Y-107023608D01*
X73649500Y-107087314D01*
X73742686Y-107180500D01*
X73856814Y-107246392D01*
X73984108Y-107280500D01*
X73984110Y-107280500D01*
X74115891Y-107280500D01*
X74115892Y-107280500D01*
X74171027Y-107265726D01*
X74203122Y-107261500D01*
X74270562Y-107261500D01*
X75658247Y-107261500D01*
X75725286Y-107281185D01*
X75771041Y-107333989D01*
X75780985Y-107403147D01*
X75751960Y-107466703D01*
X75745927Y-107473182D01*
X74227124Y-108991955D01*
X74165801Y-109025439D01*
X74096109Y-109020454D01*
X74040176Y-108978582D01*
X74019669Y-108936366D01*
X74019411Y-108935403D01*
X74006392Y-108886814D01*
X73940500Y-108772686D01*
X73847314Y-108679500D01*
X73778578Y-108639815D01*
X73733187Y-108613608D01*
X73669539Y-108596554D01*
X73605892Y-108579500D01*
X73515833Y-108579500D01*
X73448794Y-108559815D01*
X73428152Y-108543181D01*
X71365819Y-106480848D01*
X71332334Y-106419525D01*
X71329500Y-106393167D01*
X71329500Y-102882128D01*
X71349185Y-102815089D01*
X71401989Y-102769334D01*
X71471147Y-102759390D01*
X71522390Y-102779026D01*
X71682400Y-102885940D01*
X71682401Y-102885940D01*
X71682402Y-102885941D01*
X71873580Y-102965130D01*
X72066536Y-103003511D01*
X72076530Y-103005499D01*
X72076534Y-103005500D01*
X72076535Y-103005500D01*
X72283466Y-103005500D01*
X72283467Y-103005499D01*
X72486420Y-102965130D01*
X72677598Y-102885941D01*
X72849655Y-102770977D01*
X72898983Y-102721649D01*
X72977819Y-102642814D01*
X73039142Y-102609329D01*
X73108834Y-102614313D01*
G37*
%TD.AperFunction*%
%TA.AperFunction,NonConductor*%
G36*
X108976345Y-69985228D02*
G01*
X108978444Y-69987277D01*
X111440557Y-72449500D01*
X111729183Y-72738139D01*
X111762667Y-72799463D01*
X111765500Y-72825818D01*
X111765500Y-72915892D01*
X111782554Y-72979539D01*
X111799608Y-73043187D01*
X111832554Y-73100250D01*
X111865500Y-73157314D01*
X111958686Y-73250500D01*
X112072814Y-73316392D01*
X112200108Y-73350500D01*
X112200110Y-73350500D01*
X112331890Y-73350500D01*
X112331892Y-73350500D01*
X112459186Y-73316392D01*
X112459187Y-73316391D01*
X112467037Y-73314288D01*
X112467456Y-73315853D01*
X112527509Y-73309393D01*
X112589990Y-73340664D01*
X112625646Y-73400751D01*
X112629500Y-73431424D01*
X112629500Y-80574166D01*
X112609815Y-80641205D01*
X112593181Y-80661847D01*
X112071847Y-81183181D01*
X112010524Y-81216666D01*
X111984166Y-81219500D01*
X111894108Y-81219500D01*
X111766812Y-81253608D01*
X111652686Y-81319500D01*
X111652683Y-81319502D01*
X111559502Y-81412683D01*
X111559500Y-81412686D01*
X111493608Y-81526812D01*
X111459500Y-81654108D01*
X111459500Y-81785891D01*
X111493608Y-81913187D01*
X111526554Y-81970250D01*
X111559500Y-82027314D01*
X111652686Y-82120500D01*
X111766814Y-82186392D01*
X111894108Y-82220500D01*
X111894110Y-82220500D01*
X112025890Y-82220500D01*
X112025892Y-82220500D01*
X112153186Y-82186392D01*
X112267314Y-82120500D01*
X112360500Y-82027314D01*
X112426392Y-81913186D01*
X112460500Y-81785892D01*
X112460500Y-81695832D01*
X112480185Y-81628793D01*
X112496819Y-81608151D01*
X112785470Y-81319500D01*
X113167821Y-80937149D01*
X113229142Y-80903666D01*
X113298834Y-80908650D01*
X113354767Y-80950522D01*
X113379184Y-81015986D01*
X113379500Y-81024832D01*
X113379500Y-103554167D01*
X113359815Y-103621206D01*
X113343181Y-103641848D01*
X112831848Y-104153181D01*
X112770525Y-104186666D01*
X112744167Y-104189500D01*
X110888676Y-104189500D01*
X110821637Y-104169815D01*
X110800995Y-104153181D01*
X110737316Y-104089502D01*
X110737314Y-104089500D01*
X110671604Y-104051562D01*
X110623187Y-104023608D01*
X110529712Y-103998562D01*
X110495892Y-103989500D01*
X110387833Y-103989500D01*
X110320794Y-103969815D01*
X110275039Y-103917011D01*
X110265095Y-103847853D01*
X110294120Y-103784297D01*
X110300152Y-103777819D01*
X111660152Y-102417819D01*
X111721475Y-102384334D01*
X111747833Y-102381500D01*
X112109560Y-102381500D01*
X112109562Y-102381500D01*
X112185989Y-102361021D01*
X112254511Y-102321460D01*
X112310460Y-102265511D01*
X112662460Y-101913511D01*
X112667998Y-101903918D01*
X112702021Y-101844989D01*
X112722500Y-101768562D01*
X112722500Y-94920200D01*
X112722502Y-94882556D01*
X112722500Y-94882548D01*
X112722500Y-94882538D01*
X112708312Y-94829587D01*
X112703037Y-94809896D01*
X112702243Y-94806496D01*
X112701108Y-94804530D01*
X112680760Y-94769285D01*
X112676138Y-94761278D01*
X112662469Y-94737598D01*
X112636882Y-94712011D01*
X112171737Y-94246812D01*
X111814464Y-93889497D01*
X111814460Y-93889489D01*
X111784108Y-93859137D01*
X111784080Y-93859109D01*
X111758528Y-93833553D01*
X111758514Y-93833542D01*
X111758511Y-93833540D01*
X111726050Y-93814798D01*
X111726049Y-93814797D01*
X111690756Y-93794418D01*
X111690005Y-93793985D01*
X111690004Y-93793984D01*
X111689998Y-93793981D01*
X111661147Y-93786250D01*
X111661147Y-93786249D01*
X111661143Y-93786249D01*
X111615932Y-93774132D01*
X111615930Y-93774131D01*
X111613580Y-93773502D01*
X111613569Y-93773501D01*
X111613562Y-93773500D01*
X111574018Y-93773500D01*
X111573200Y-93773499D01*
X111573136Y-93773499D01*
X111540653Y-93773498D01*
X111534456Y-93773498D01*
X111534455Y-93773498D01*
X111525833Y-93773498D01*
X111525805Y-93773500D01*
X92906438Y-93773500D01*
X92830010Y-93793978D01*
X92761489Y-93833540D01*
X92761486Y-93833542D01*
X91411847Y-95183181D01*
X91350524Y-95216666D01*
X91324166Y-95219500D01*
X91234108Y-95219500D01*
X91106812Y-95253608D01*
X90992686Y-95319500D01*
X90992683Y-95319502D01*
X90899502Y-95412683D01*
X90899500Y-95412686D01*
X90833608Y-95526812D01*
X90811814Y-95608151D01*
X90799500Y-95654108D01*
X90799500Y-95785892D01*
X90808961Y-95821200D01*
X90833608Y-95913187D01*
X90849600Y-95940885D01*
X90899500Y-96027314D01*
X90992686Y-96120500D01*
X91106814Y-96186392D01*
X91234108Y-96220500D01*
X91234110Y-96220500D01*
X91365890Y-96220500D01*
X91365892Y-96220500D01*
X91493186Y-96186392D01*
X91607314Y-96120500D01*
X91700500Y-96027314D01*
X91766392Y-95913186D01*
X91800500Y-95785892D01*
X91800500Y-95695832D01*
X91820185Y-95628793D01*
X91836819Y-95608151D01*
X92434730Y-95010241D01*
X93034152Y-94410819D01*
X93095475Y-94377334D01*
X93121833Y-94374500D01*
X110725763Y-94374500D01*
X110743295Y-94379648D01*
X110761570Y-94379782D01*
X110776125Y-94389288D01*
X110792802Y-94394185D01*
X110804767Y-94407993D01*
X110820069Y-94417987D01*
X110827174Y-94433853D01*
X110838557Y-94446989D01*
X110841157Y-94465075D01*
X110848627Y-94481754D01*
X110847077Y-94506248D01*
X110848501Y-94516147D01*
X110848368Y-94517047D01*
X110847331Y-94523899D01*
X110824500Y-94609108D01*
X110824500Y-94674825D01*
X110823105Y-94684047D01*
X110812135Y-94707607D01*
X110804815Y-94732539D01*
X110797629Y-94738765D01*
X110793615Y-94747388D01*
X110771647Y-94761278D01*
X110752011Y-94778294D01*
X110740925Y-94780705D01*
X110734561Y-94784730D01*
X110722821Y-94784643D01*
X110700500Y-94789500D01*
X107780438Y-94789500D01*
X107749867Y-94797691D01*
X107704008Y-94809979D01*
X107704005Y-94809981D01*
X107670050Y-94829586D01*
X107670049Y-94829587D01*
X107670046Y-94829589D01*
X107635489Y-94849539D01*
X107635487Y-94849541D01*
X101744492Y-100740535D01*
X101683169Y-100774020D01*
X101613477Y-100769036D01*
X101587920Y-100755956D01*
X101577597Y-100749058D01*
X101386420Y-100669870D01*
X101386412Y-100669868D01*
X101183469Y-100629500D01*
X101183465Y-100629500D01*
X100976535Y-100629500D01*
X100976530Y-100629500D01*
X100773587Y-100669868D01*
X100773579Y-100669870D01*
X100582403Y-100749058D01*
X100410342Y-100864024D01*
X100264024Y-101010342D01*
X100149058Y-101182403D01*
X100069870Y-101373579D01*
X100069868Y-101373587D01*
X100029500Y-101576530D01*
X100029500Y-102083469D01*
X100069868Y-102286412D01*
X100069870Y-102286420D01*
X100147578Y-102474024D01*
X100149059Y-102477598D01*
X100177195Y-102519707D01*
X100264024Y-102649657D01*
X100410342Y-102795975D01*
X100410345Y-102795977D01*
X100582402Y-102910941D01*
X100773580Y-102990130D01*
X100928333Y-103020912D01*
X100976530Y-103030499D01*
X100976534Y-103030500D01*
X100976535Y-103030500D01*
X101183466Y-103030500D01*
X101183467Y-103030499D01*
X101386420Y-102990130D01*
X101577598Y-102910941D01*
X101749655Y-102795977D01*
X101895977Y-102649655D01*
X102010941Y-102477598D01*
X102090130Y-102286420D01*
X102130500Y-102083465D01*
X102130500Y-101576535D01*
X102090130Y-101373580D01*
X102084129Y-101359094D01*
X102076660Y-101289627D01*
X102107933Y-101227147D01*
X102110981Y-101223988D01*
X107908152Y-95426819D01*
X107969475Y-95393334D01*
X107995833Y-95390500D01*
X110949560Y-95390500D01*
X110949562Y-95390500D01*
X111025989Y-95370021D01*
X111094511Y-95330460D01*
X111150460Y-95274511D01*
X111197459Y-95227512D01*
X111213152Y-95211819D01*
X111274475Y-95178334D01*
X111300833Y-95175500D01*
X111390890Y-95175500D01*
X111390892Y-95175500D01*
X111518186Y-95141392D01*
X111632314Y-95075500D01*
X111725500Y-94982314D01*
X111766139Y-94911924D01*
X111784234Y-94894671D01*
X111799219Y-94874656D01*
X111809083Y-94870977D01*
X111816703Y-94863712D01*
X111841255Y-94858979D01*
X111864685Y-94850242D01*
X111874972Y-94852480D01*
X111885310Y-94850488D01*
X111908523Y-94859781D01*
X111932957Y-94865098D01*
X111945774Y-94874694D01*
X111950175Y-94876456D01*
X111961208Y-94886249D01*
X112085186Y-95010242D01*
X112118668Y-95071566D01*
X112121500Y-95097917D01*
X112121500Y-100880763D01*
X112101815Y-100947802D01*
X112049011Y-100993557D01*
X111979853Y-101003501D01*
X111965409Y-101000538D01*
X111886892Y-100979500D01*
X111755108Y-100979500D01*
X111627812Y-101013608D01*
X111513686Y-101079500D01*
X111513683Y-101079502D01*
X111450005Y-101143181D01*
X111388682Y-101176666D01*
X111362324Y-101179500D01*
X108620438Y-101179500D01*
X108544010Y-101199978D01*
X108475489Y-101239540D01*
X108475486Y-101239542D01*
X108112181Y-101602847D01*
X108050858Y-101636332D01*
X107981166Y-101631348D01*
X107925233Y-101589476D01*
X107900816Y-101524012D01*
X107900500Y-101515166D01*
X107900500Y-99880249D01*
X107900499Y-99880247D01*
X107888868Y-99821770D01*
X107888867Y-99821769D01*
X107844552Y-99755447D01*
X107778230Y-99711132D01*
X107778229Y-99711131D01*
X107719752Y-99699500D01*
X107719748Y-99699500D01*
X105980252Y-99699500D01*
X105980247Y-99699500D01*
X105921770Y-99711131D01*
X105921769Y-99711132D01*
X105855447Y-99755447D01*
X105811132Y-99821769D01*
X105811131Y-99821770D01*
X105799500Y-99880247D01*
X105799500Y-101619752D01*
X105811131Y-101678229D01*
X105811132Y-101678230D01*
X105855447Y-101744552D01*
X105921769Y-101788867D01*
X105921770Y-101788868D01*
X105980247Y-101800499D01*
X105980250Y-101800500D01*
X107615166Y-101800500D01*
X107682205Y-101820185D01*
X107727960Y-101872989D01*
X107737904Y-101942147D01*
X107708879Y-102005703D01*
X107702847Y-102012181D01*
X107412104Y-102302923D01*
X107350781Y-102336408D01*
X107281089Y-102331424D01*
X107276971Y-102329803D01*
X107156424Y-102279871D01*
X107156412Y-102279868D01*
X106953469Y-102239500D01*
X106953465Y-102239500D01*
X106746535Y-102239500D01*
X106746530Y-102239500D01*
X106543587Y-102279868D01*
X106543579Y-102279870D01*
X106352403Y-102359058D01*
X106180342Y-102474024D01*
X106034024Y-102620342D01*
X105919058Y-102792403D01*
X105839870Y-102983579D01*
X105839868Y-102983587D01*
X105799500Y-103186530D01*
X105799500Y-103393469D01*
X105839868Y-103596412D01*
X105839871Y-103596424D01*
X105889803Y-103716971D01*
X105897272Y-103786440D01*
X105865997Y-103848919D01*
X105862923Y-103852104D01*
X101315461Y-108399566D01*
X101254138Y-108433051D01*
X101203591Y-108433503D01*
X101183465Y-108429500D01*
X100976535Y-108429500D01*
X100976530Y-108429500D01*
X100773587Y-108469868D01*
X100773579Y-108469870D01*
X100582403Y-108549058D01*
X100410342Y-108664024D01*
X100264024Y-108810342D01*
X100149058Y-108982403D01*
X100069870Y-109173579D01*
X100069868Y-109173587D01*
X100029500Y-109376530D01*
X100029500Y-109883469D01*
X100069867Y-110086412D01*
X100069870Y-110086420D01*
X100075871Y-110100909D01*
X100083337Y-110170379D01*
X100052059Y-110232857D01*
X100048989Y-110236038D01*
X99842181Y-110442847D01*
X99780858Y-110476332D01*
X99711167Y-110471348D01*
X99655233Y-110429477D01*
X99630816Y-110364012D01*
X99630500Y-110355166D01*
X99630500Y-108825730D01*
X99627646Y-108795300D01*
X99627646Y-108795298D01*
X99592062Y-108693608D01*
X99582793Y-108667118D01*
X99502150Y-108557850D01*
X99392882Y-108477207D01*
X99392880Y-108477206D01*
X99264700Y-108432353D01*
X99234270Y-108429500D01*
X99234266Y-108429500D01*
X97925734Y-108429500D01*
X97925730Y-108429500D01*
X97895300Y-108432353D01*
X97895298Y-108432353D01*
X97767119Y-108477206D01*
X97767117Y-108477207D01*
X97657850Y-108557850D01*
X97577207Y-108667117D01*
X97577206Y-108667119D01*
X97532353Y-108795298D01*
X97532353Y-108795300D01*
X97529500Y-108825730D01*
X97529500Y-110434269D01*
X97532353Y-110464699D01*
X97532353Y-110464700D01*
X97532650Y-110465547D01*
X97532683Y-110466212D01*
X97533964Y-110472073D01*
X97532993Y-110472284D01*
X97536211Y-110535326D01*
X97501481Y-110595953D01*
X97439487Y-110628179D01*
X97415608Y-110630500D01*
X92539221Y-110630500D01*
X92472182Y-110610815D01*
X92426427Y-110558011D01*
X92416483Y-110488853D01*
X92443366Y-110427838D01*
X92445972Y-110424662D01*
X92454164Y-110412402D01*
X92560941Y-110252598D01*
X92640130Y-110061420D01*
X92680500Y-109858465D01*
X92680500Y-109401535D01*
X92640130Y-109198580D01*
X92560941Y-109007402D01*
X92445977Y-108835345D01*
X92445975Y-108835342D01*
X92299657Y-108689024D01*
X92186788Y-108613608D01*
X92127598Y-108574059D01*
X92127593Y-108574057D01*
X91936420Y-108494870D01*
X91936412Y-108494868D01*
X91733469Y-108454500D01*
X91733465Y-108454500D01*
X91526535Y-108454500D01*
X91526530Y-108454500D01*
X91323587Y-108494868D01*
X91323579Y-108494870D01*
X91132403Y-108574058D01*
X90960342Y-108689024D01*
X90814024Y-108835342D01*
X90699058Y-109007403D01*
X90619870Y-109198579D01*
X90619868Y-109198587D01*
X90579500Y-109401530D01*
X90579500Y-109858469D01*
X90619868Y-110061412D01*
X90619870Y-110061420D01*
X90693983Y-110240345D01*
X90699059Y-110252598D01*
X90737210Y-110309695D01*
X90814027Y-110424662D01*
X90816634Y-110427838D01*
X90822966Y-110442748D01*
X90833573Y-110454989D01*
X90836341Y-110474241D01*
X90843946Y-110492148D01*
X90841211Y-110508114D01*
X90843517Y-110524147D01*
X90835436Y-110541840D01*
X90832153Y-110561016D01*
X90821220Y-110572969D01*
X90814492Y-110587703D01*
X90798126Y-110598220D01*
X90784999Y-110612574D01*
X90768721Y-110617117D01*
X90755714Y-110625477D01*
X90720779Y-110630500D01*
X90606833Y-110630500D01*
X90539794Y-110610815D01*
X90519152Y-110594181D01*
X90153687Y-110228716D01*
X90120202Y-110167393D01*
X90125186Y-110097701D01*
X90126790Y-110093624D01*
X90140130Y-110061420D01*
X90180500Y-109858465D01*
X90180500Y-109401535D01*
X90140130Y-109198580D01*
X90060941Y-109007402D01*
X89945977Y-108835345D01*
X89945975Y-108835342D01*
X89799657Y-108689024D01*
X89627595Y-108574057D01*
X89507047Y-108524124D01*
X89452643Y-108480282D01*
X89430579Y-108413988D01*
X89430500Y-108409563D01*
X89430500Y-103050435D01*
X89450185Y-102983396D01*
X89502989Y-102937641D01*
X89507012Y-102935889D01*
X89627598Y-102885941D01*
X89799655Y-102770977D01*
X89945977Y-102624655D01*
X90060941Y-102452598D01*
X90140130Y-102261420D01*
X90180500Y-102058465D01*
X90180500Y-101601535D01*
X90140130Y-101398580D01*
X90060941Y-101207402D01*
X89945977Y-101035345D01*
X89945975Y-101035342D01*
X89799657Y-100889024D01*
X89649968Y-100789006D01*
X89627598Y-100774059D01*
X89627593Y-100774057D01*
X89436420Y-100694870D01*
X89436412Y-100694868D01*
X89233469Y-100654500D01*
X89233465Y-100654500D01*
X89026535Y-100654500D01*
X89026530Y-100654500D01*
X88823587Y-100694868D01*
X88823579Y-100694870D01*
X88632403Y-100774058D01*
X88460342Y-100889024D01*
X88460341Y-100889025D01*
X88374981Y-100974386D01*
X88313658Y-101007871D01*
X88243966Y-101002887D01*
X88188033Y-100961015D01*
X88163616Y-100895551D01*
X88163300Y-100886705D01*
X88163300Y-97044108D01*
X88899500Y-97044108D01*
X88899500Y-97175892D01*
X88904256Y-97193640D01*
X88933608Y-97303187D01*
X88958838Y-97346886D01*
X88999500Y-97417314D01*
X89092686Y-97510500D01*
X89206814Y-97576392D01*
X89317750Y-97606117D01*
X89373334Y-97638209D01*
X91222395Y-99487313D01*
X92387119Y-100652064D01*
X92420604Y-100713387D01*
X92415618Y-100783079D01*
X92373746Y-100839012D01*
X92308282Y-100863428D01*
X92240009Y-100848575D01*
X92230547Y-100842847D01*
X92127598Y-100774059D01*
X92127593Y-100774057D01*
X91936420Y-100694870D01*
X91936412Y-100694868D01*
X91733469Y-100654500D01*
X91733465Y-100654500D01*
X91526535Y-100654500D01*
X91526530Y-100654500D01*
X91323587Y-100694868D01*
X91323579Y-100694870D01*
X91132403Y-100774058D01*
X90960342Y-100889024D01*
X90814024Y-101035342D01*
X90699058Y-101207403D01*
X90619870Y-101398579D01*
X90619868Y-101398587D01*
X90579500Y-101601530D01*
X90579500Y-102058469D01*
X90619868Y-102261412D01*
X90619870Y-102261420D01*
X90661702Y-102362412D01*
X90699059Y-102452598D01*
X90747444Y-102525012D01*
X90814024Y-102624657D01*
X90960342Y-102770975D01*
X90960345Y-102770977D01*
X91132402Y-102885941D01*
X91323580Y-102965130D01*
X91516536Y-103003511D01*
X91526530Y-103005499D01*
X91526534Y-103005500D01*
X91526535Y-103005500D01*
X91733466Y-103005500D01*
X91733467Y-103005499D01*
X91936420Y-102965130D01*
X92127598Y-102885941D01*
X92299655Y-102770977D01*
X92445977Y-102624655D01*
X92560941Y-102452598D01*
X92640130Y-102261420D01*
X92680500Y-102058465D01*
X92680500Y-101601535D01*
X92640130Y-101398580D01*
X92560941Y-101207402D01*
X92492166Y-101104473D01*
X92471289Y-101037796D01*
X92489774Y-100970416D01*
X92541753Y-100923726D01*
X92610723Y-100912550D01*
X92674786Y-100940436D01*
X92682951Y-100947903D01*
X93024667Y-101289627D01*
X93367071Y-101632039D01*
X93393182Y-101658150D01*
X93426667Y-101719473D01*
X93429500Y-101745830D01*
X93429500Y-103611323D01*
X93409815Y-103678362D01*
X93393182Y-103699004D01*
X93329500Y-103762686D01*
X93263608Y-103876812D01*
X93233414Y-103989500D01*
X93229500Y-104004108D01*
X93229500Y-104135892D01*
X93240460Y-104176796D01*
X93263608Y-104263187D01*
X93284938Y-104300131D01*
X93329500Y-104377314D01*
X93422686Y-104470500D01*
X93536814Y-104536392D01*
X93664108Y-104570500D01*
X93664110Y-104570500D01*
X93795890Y-104570500D01*
X93795892Y-104570500D01*
X93923186Y-104536392D01*
X94037314Y-104470500D01*
X94130500Y-104377314D01*
X94196392Y-104263186D01*
X94230500Y-104135892D01*
X94230500Y-104004108D01*
X94196392Y-103876814D01*
X94130500Y-103762686D01*
X94066818Y-103699004D01*
X94033334Y-103637680D01*
X94030500Y-103611323D01*
X94030500Y-101744833D01*
X94050185Y-101677794D01*
X94102989Y-101632039D01*
X94172147Y-101622095D01*
X94235703Y-101651120D01*
X94242181Y-101657152D01*
X94743181Y-102158152D01*
X94776666Y-102219475D01*
X94779500Y-102245833D01*
X94779500Y-104231323D01*
X94759815Y-104298362D01*
X94743182Y-104319004D01*
X94679500Y-104382686D01*
X94613608Y-104496812D01*
X94588841Y-104589247D01*
X94579500Y-104624108D01*
X94579500Y-104755892D01*
X94595060Y-104813962D01*
X94613608Y-104883187D01*
X94638797Y-104926814D01*
X94679500Y-104997314D01*
X94772686Y-105090500D01*
X94886814Y-105156392D01*
X95014108Y-105190500D01*
X95014110Y-105190500D01*
X95145890Y-105190500D01*
X95145892Y-105190500D01*
X95273186Y-105156392D01*
X95387314Y-105090500D01*
X95480500Y-104997314D01*
X95546392Y-104883186D01*
X95580500Y-104755892D01*
X95580500Y-104624108D01*
X95546392Y-104496814D01*
X95480500Y-104382686D01*
X95416818Y-104319004D01*
X95383334Y-104257680D01*
X95380500Y-104231323D01*
X95380500Y-102030439D01*
X95373872Y-102005703D01*
X95360021Y-101954011D01*
X95353171Y-101942147D01*
X95320464Y-101885495D01*
X95320458Y-101885487D01*
X94460701Y-101025730D01*
X97529500Y-101025730D01*
X97529500Y-102634269D01*
X97532353Y-102664699D01*
X97532353Y-102664701D01*
X97577039Y-102792402D01*
X97577207Y-102792882D01*
X97657850Y-102902150D01*
X97767118Y-102982793D01*
X97788089Y-102990131D01*
X97895299Y-103027646D01*
X97925730Y-103030500D01*
X97925734Y-103030500D01*
X99234270Y-103030500D01*
X99264699Y-103027646D01*
X99264701Y-103027646D01*
X99333682Y-103003508D01*
X99392882Y-102982793D01*
X99502150Y-102902150D01*
X99582793Y-102792882D01*
X99620391Y-102685433D01*
X99627646Y-102664701D01*
X99627646Y-102664699D01*
X99630500Y-102634269D01*
X99630500Y-101025730D01*
X99627646Y-100995300D01*
X99627646Y-100995298D01*
X99591032Y-100890665D01*
X99582793Y-100867118D01*
X99502150Y-100757850D01*
X99392882Y-100677207D01*
X99392880Y-100677206D01*
X99264700Y-100632353D01*
X99234270Y-100629500D01*
X99234266Y-100629500D01*
X97925734Y-100629500D01*
X97925730Y-100629500D01*
X97895300Y-100632353D01*
X97895298Y-100632353D01*
X97767119Y-100677206D01*
X97767117Y-100677207D01*
X97657850Y-100757850D01*
X97577207Y-100867117D01*
X97577206Y-100867119D01*
X97532353Y-100995298D01*
X97532353Y-100995300D01*
X97529500Y-101025730D01*
X94460701Y-101025730D01*
X91826819Y-98391848D01*
X91793334Y-98330525D01*
X91790500Y-98304167D01*
X91790500Y-98214110D01*
X91790500Y-98214108D01*
X91756392Y-98086814D01*
X91690500Y-97972686D01*
X91597314Y-97879500D01*
X91540250Y-97846554D01*
X91483187Y-97813608D01*
X91396049Y-97790260D01*
X91355892Y-97779500D01*
X91224108Y-97779500D01*
X91096812Y-97813608D01*
X90982686Y-97879500D01*
X90982683Y-97879502D01*
X90889502Y-97972683D01*
X90889500Y-97972686D01*
X90848864Y-98043069D01*
X90798296Y-98091284D01*
X90729689Y-98104506D01*
X90664824Y-98078538D01*
X90653795Y-98068748D01*
X90599738Y-98014690D01*
X90209066Y-97624008D01*
X97751700Y-97624008D01*
X97751700Y-97755792D01*
X97760936Y-97790260D01*
X97785808Y-97883087D01*
X97813102Y-97930360D01*
X97851700Y-97997214D01*
X97944886Y-98090400D01*
X98059014Y-98156292D01*
X98186308Y-98190400D01*
X98186310Y-98190400D01*
X98318090Y-98190400D01*
X98318092Y-98190400D01*
X98445386Y-98156292D01*
X98559514Y-98090400D01*
X98623195Y-98026719D01*
X98684518Y-97993234D01*
X98710876Y-97990400D01*
X103531260Y-97990400D01*
X103531262Y-97990400D01*
X103607689Y-97969921D01*
X103676211Y-97930360D01*
X103732160Y-97874411D01*
X104090051Y-97516518D01*
X104151374Y-97483034D01*
X104177732Y-97480200D01*
X104267790Y-97480200D01*
X104267792Y-97480200D01*
X104395086Y-97446092D01*
X104509214Y-97380200D01*
X104602400Y-97287014D01*
X104668292Y-97172886D01*
X104702400Y-97045592D01*
X104702400Y-96913808D01*
X104668292Y-96786514D01*
X104602400Y-96672386D01*
X104509214Y-96579200D01*
X104452150Y-96546254D01*
X104395087Y-96513308D01*
X104331439Y-96496254D01*
X104267792Y-96479200D01*
X104136008Y-96479200D01*
X104008712Y-96513308D01*
X103894586Y-96579200D01*
X103894583Y-96579202D01*
X103801402Y-96672383D01*
X103801400Y-96672386D01*
X103735508Y-96786512D01*
X103701400Y-96913808D01*
X103701400Y-97003866D01*
X103681715Y-97070905D01*
X103665081Y-97091547D01*
X103403548Y-97353081D01*
X103342225Y-97386566D01*
X103315867Y-97389400D01*
X98710876Y-97389400D01*
X98643837Y-97369715D01*
X98623195Y-97353081D01*
X98559516Y-97289402D01*
X98559514Y-97289400D01*
X98490556Y-97249587D01*
X98445387Y-97223508D01*
X98381739Y-97206454D01*
X98318092Y-97189400D01*
X98186308Y-97189400D01*
X98059012Y-97223508D01*
X97944886Y-97289400D01*
X97944883Y-97289402D01*
X97851702Y-97382583D01*
X97851700Y-97382586D01*
X97785808Y-97496712D01*
X97762534Y-97583575D01*
X97751700Y-97624008D01*
X90209066Y-97624008D01*
X90161450Y-97576391D01*
X89921632Y-97336567D01*
X89888147Y-97275244D01*
X89889539Y-97216795D01*
X89900500Y-97175892D01*
X89900500Y-97044108D01*
X89866392Y-96916814D01*
X89864656Y-96913808D01*
X89825730Y-96846386D01*
X89800500Y-96802686D01*
X89707314Y-96709500D01*
X89643026Y-96672383D01*
X89593187Y-96643608D01*
X89529539Y-96626554D01*
X89465892Y-96609500D01*
X89334108Y-96609500D01*
X89206812Y-96643608D01*
X89092686Y-96709500D01*
X89092683Y-96709502D01*
X88999502Y-96802683D01*
X88999500Y-96802686D01*
X88933608Y-96916812D01*
X88920024Y-96967511D01*
X88899500Y-97044108D01*
X88163300Y-97044108D01*
X88163300Y-95483032D01*
X88182985Y-95415993D01*
X88199615Y-95395355D01*
X97004704Y-86590222D01*
X97066025Y-86556739D01*
X97135716Y-86561723D01*
X97191650Y-86603594D01*
X97212157Y-86645809D01*
X97243608Y-86763186D01*
X97309500Y-86877314D01*
X97402686Y-86970500D01*
X97516814Y-87036392D01*
X97644108Y-87070500D01*
X97644110Y-87070500D01*
X97775890Y-87070500D01*
X97775892Y-87070500D01*
X97903186Y-87036392D01*
X98017314Y-86970500D01*
X98080995Y-86906819D01*
X98142318Y-86873334D01*
X98168676Y-86870500D01*
X101914560Y-86870500D01*
X101914562Y-86870500D01*
X101990989Y-86850021D01*
X102059511Y-86810460D01*
X102115460Y-86754511D01*
X110041223Y-78828746D01*
X110102544Y-78795263D01*
X110172236Y-78800247D01*
X110176349Y-78801866D01*
X110273365Y-78842051D01*
X110320696Y-78851465D01*
X110466656Y-78880500D01*
X110466659Y-78880500D01*
X110663743Y-78880500D01*
X110793782Y-78854632D01*
X110857035Y-78842051D01*
X111039114Y-78766632D01*
X111202982Y-78657139D01*
X111342339Y-78517782D01*
X111451832Y-78353914D01*
X111527251Y-78171835D01*
X111565700Y-77978541D01*
X111565700Y-77781459D01*
X111565700Y-77781456D01*
X111527252Y-77588170D01*
X111527251Y-77588169D01*
X111527251Y-77588165D01*
X111527249Y-77588160D01*
X111451835Y-77406092D01*
X111451828Y-77406079D01*
X111342339Y-77242218D01*
X111342336Y-77242214D01*
X111202985Y-77102863D01*
X111202981Y-77102860D01*
X111039120Y-76993371D01*
X111039107Y-76993364D01*
X110857039Y-76917950D01*
X110857029Y-76917947D01*
X110663743Y-76879500D01*
X110663741Y-76879500D01*
X110466659Y-76879500D01*
X110466657Y-76879500D01*
X110273370Y-76917947D01*
X110273360Y-76917950D01*
X110091292Y-76993364D01*
X110091279Y-76993371D01*
X109927418Y-77102860D01*
X109927414Y-77102863D01*
X109788063Y-77242214D01*
X109788060Y-77242218D01*
X109678571Y-77406079D01*
X109678564Y-77406092D01*
X109603150Y-77588160D01*
X109603147Y-77588170D01*
X109564700Y-77781456D01*
X109564700Y-77781459D01*
X109564700Y-77978541D01*
X109564700Y-77978543D01*
X109564699Y-77978543D01*
X109603147Y-78171828D01*
X109603148Y-78171831D01*
X109603149Y-78171835D01*
X109603151Y-78171839D01*
X109643214Y-78268562D01*
X109650682Y-78338031D01*
X109619406Y-78400510D01*
X109616333Y-78403694D01*
X109377148Y-78642880D01*
X109040821Y-78979206D01*
X109029048Y-78990980D01*
X109029045Y-78990981D01*
X101786848Y-86233181D01*
X101725525Y-86266666D01*
X101699167Y-86269500D01*
X98168676Y-86269500D01*
X98101637Y-86249815D01*
X98080995Y-86233181D01*
X98017316Y-86169502D01*
X98017314Y-86169500D01*
X97903186Y-86103608D01*
X97785807Y-86072156D01*
X97726148Y-86035792D01*
X97695619Y-85972945D01*
X97703914Y-85903569D01*
X97730219Y-85864703D01*
X106319152Y-77275730D01*
X107064700Y-77275730D01*
X107064700Y-78484269D01*
X107067553Y-78514699D01*
X107067553Y-78514701D01*
X107112406Y-78642880D01*
X107112407Y-78642882D01*
X107193050Y-78752150D01*
X107302318Y-78832793D01*
X107345045Y-78847744D01*
X107430499Y-78877646D01*
X107460930Y-78880500D01*
X107460934Y-78880500D01*
X108669470Y-78880500D01*
X108699899Y-78877646D01*
X108699901Y-78877646D01*
X108763990Y-78855219D01*
X108828082Y-78832793D01*
X108937350Y-78752150D01*
X109017993Y-78642882D01*
X109040419Y-78578790D01*
X109062846Y-78514701D01*
X109062846Y-78514699D01*
X109065700Y-78484269D01*
X109065700Y-77275730D01*
X109062846Y-77245300D01*
X109062846Y-77245298D01*
X109017993Y-77117119D01*
X109017992Y-77117117D01*
X109007470Y-77102860D01*
X108937350Y-77007850D01*
X108828082Y-76927207D01*
X108828080Y-76927206D01*
X108699900Y-76882353D01*
X108669470Y-76879500D01*
X108669466Y-76879500D01*
X107460934Y-76879500D01*
X107460930Y-76879500D01*
X107430500Y-76882353D01*
X107430498Y-76882353D01*
X107302319Y-76927206D01*
X107302317Y-76927207D01*
X107193050Y-77007850D01*
X107112407Y-77117117D01*
X107112406Y-77117119D01*
X107067553Y-77245298D01*
X107067553Y-77245300D01*
X107064700Y-77275730D01*
X106319152Y-77275730D01*
X108580461Y-75014410D01*
X108620022Y-74945887D01*
X108640500Y-74869461D01*
X108640500Y-74790337D01*
X108640500Y-70828676D01*
X108660185Y-70761637D01*
X108676819Y-70740995D01*
X108740500Y-70677314D01*
X108806392Y-70563186D01*
X108840500Y-70435892D01*
X108840500Y-70304108D01*
X108806392Y-70176814D01*
X108783389Y-70136971D01*
X108766916Y-70069071D01*
X108789768Y-70003044D01*
X108844689Y-69959854D01*
X108914243Y-69953212D01*
X108976345Y-69985228D01*
G37*
%TD.AperFunction*%
%TA.AperFunction,NonConductor*%
G36*
X68238012Y-108789185D02*
G01*
X68258652Y-108805816D01*
X68747488Y-109294623D01*
X70786591Y-111333608D01*
X70793254Y-111340270D01*
X70826740Y-111401592D01*
X70821758Y-111471284D01*
X70779888Y-111527219D01*
X70753028Y-111542515D01*
X70628191Y-111594223D01*
X70628182Y-111594228D01*
X70513458Y-111670885D01*
X70442336Y-111742007D01*
X70381012Y-111775491D01*
X70311321Y-111770506D01*
X70266975Y-111742008D01*
X70250943Y-111725977D01*
X67506057Y-108981182D01*
X67472572Y-108919860D01*
X67477556Y-108850168D01*
X67519426Y-108794234D01*
X67584890Y-108769816D01*
X67593738Y-108769500D01*
X68170973Y-108769500D01*
X68238012Y-108789185D01*
G37*
%TD.AperFunction*%
%TA.AperFunction,NonConductor*%
G36*
X64398814Y-109252751D02*
G01*
X64454746Y-109294623D01*
X64462863Y-109306929D01*
X64503500Y-109377314D01*
X64596686Y-109470500D01*
X64665968Y-109510500D01*
X64710344Y-109536121D01*
X64710814Y-109536392D01*
X64838108Y-109570500D01*
X64838110Y-109570500D01*
X64969890Y-109570500D01*
X64969892Y-109570500D01*
X65097186Y-109536392D01*
X65211314Y-109470500D01*
X65274995Y-109406819D01*
X65336318Y-109373334D01*
X65362676Y-109370500D01*
X66994070Y-109370500D01*
X67061109Y-109390185D01*
X67081750Y-109406817D01*
X69318782Y-111643774D01*
X69326816Y-111658487D01*
X69338874Y-111670129D01*
X69343212Y-111688514D01*
X69352268Y-111705097D01*
X69351072Y-111721817D01*
X69354922Y-111738131D01*
X69348631Y-111755945D01*
X69347284Y-111774789D01*
X69337070Y-111788685D01*
X69331658Y-111804014D01*
X69314240Y-111819748D01*
X69307143Y-111829405D01*
X69300441Y-111834607D01*
X69222686Y-111879500D01*
X69153503Y-111948682D01*
X69147365Y-111953448D01*
X69121792Y-111963500D01*
X69097682Y-111976666D01*
X69084770Y-111978054D01*
X69082339Y-111979010D01*
X69080075Y-111978559D01*
X69071324Y-111979500D01*
X63054893Y-111979500D01*
X62987854Y-111959815D01*
X62957267Y-111927739D01*
X62955448Y-111929135D01*
X62950502Y-111922689D01*
X62950500Y-111922686D01*
X62857314Y-111829500D01*
X62774223Y-111781527D01*
X62743187Y-111763608D01*
X62662569Y-111742007D01*
X62615892Y-111729500D01*
X62484108Y-111729500D01*
X62405592Y-111750537D01*
X62335743Y-111748875D01*
X62277881Y-111709712D01*
X62250377Y-111645484D01*
X62249500Y-111630763D01*
X62249500Y-111350839D01*
X62269185Y-111283800D01*
X62285820Y-111263156D01*
X64267800Y-109281247D01*
X64329122Y-109247765D01*
X64398814Y-109252751D01*
G37*
%TD.AperFunction*%
%TA.AperFunction,NonConductor*%
G36*
X88368503Y-102679582D02*
G01*
X88374981Y-102685614D01*
X88460342Y-102770975D01*
X88460345Y-102770977D01*
X88632402Y-102885941D01*
X88752953Y-102935875D01*
X88807356Y-102979714D01*
X88829421Y-103046008D01*
X88829500Y-103050435D01*
X88829500Y-108409563D01*
X88809815Y-108476602D01*
X88757011Y-108522357D01*
X88752953Y-108524124D01*
X88632404Y-108574057D01*
X88460342Y-108689024D01*
X88314024Y-108835342D01*
X88199058Y-109007403D01*
X88119870Y-109198579D01*
X88119868Y-109198587D01*
X88079500Y-109401530D01*
X88079500Y-109858469D01*
X88119868Y-110061412D01*
X88119870Y-110061419D01*
X88119870Y-110061420D01*
X88130225Y-110086420D01*
X88133192Y-110093581D01*
X88140661Y-110163050D01*
X88109386Y-110225529D01*
X88106312Y-110228715D01*
X87892181Y-110442847D01*
X87830858Y-110476332D01*
X87761167Y-110471348D01*
X87705233Y-110429477D01*
X87680816Y-110364012D01*
X87680500Y-110355166D01*
X87680500Y-108850730D01*
X87677646Y-108820300D01*
X87677646Y-108820298D01*
X87637928Y-108706793D01*
X87632793Y-108692118D01*
X87552150Y-108582850D01*
X87442882Y-108502207D01*
X87442880Y-108502206D01*
X87314700Y-108457353D01*
X87284270Y-108454500D01*
X87284266Y-108454500D01*
X85975734Y-108454500D01*
X85975730Y-108454500D01*
X85945300Y-108457353D01*
X85945298Y-108457353D01*
X85817119Y-108502206D01*
X85817117Y-108502207D01*
X85707850Y-108582850D01*
X85627207Y-108692117D01*
X85627206Y-108692119D01*
X85582353Y-108820298D01*
X85582353Y-108820300D01*
X85579500Y-108850730D01*
X85579500Y-110409269D01*
X85582353Y-110439699D01*
X85582353Y-110439701D01*
X85623753Y-110558011D01*
X85627207Y-110567882D01*
X85707850Y-110677150D01*
X85817118Y-110757793D01*
X85838089Y-110765131D01*
X85945299Y-110802646D01*
X85975730Y-110805500D01*
X87230166Y-110805500D01*
X87297205Y-110825185D01*
X87342960Y-110877989D01*
X87352904Y-110947147D01*
X87323879Y-111010703D01*
X87317847Y-111017181D01*
X86056848Y-112278181D01*
X85995525Y-112311666D01*
X85969167Y-112314500D01*
X80424500Y-112314500D01*
X80357461Y-112294815D01*
X80311706Y-112242011D01*
X80300500Y-112190500D01*
X80300500Y-112146004D01*
X80273581Y-112010677D01*
X80273580Y-112010676D01*
X80273580Y-112010672D01*
X80260465Y-111979010D01*
X80220778Y-111883195D01*
X80220771Y-111883182D01*
X80144114Y-111768458D01*
X80144111Y-111768454D01*
X80046545Y-111670888D01*
X80046541Y-111670885D01*
X79931817Y-111594228D01*
X79931807Y-111594223D01*
X79807000Y-111542526D01*
X79752597Y-111498685D01*
X79730532Y-111432391D01*
X79747811Y-111364691D01*
X79766766Y-111340289D01*
X88079125Y-103027646D01*
X88101998Y-103004772D01*
X88103282Y-103003525D01*
X88104247Y-103001912D01*
X88108355Y-102995264D01*
X88109531Y-102992648D01*
X88129655Y-102957793D01*
X88142821Y-102934989D01*
X88142821Y-102934986D01*
X88142823Y-102934984D01*
X88151620Y-102902150D01*
X88163300Y-102858562D01*
X88163300Y-102773295D01*
X88182985Y-102706256D01*
X88235789Y-102660501D01*
X88304947Y-102650557D01*
X88368503Y-102679582D01*
G37*
%TD.AperFunction*%
%TA.AperFunction,NonConductor*%
G36*
X87481635Y-96690144D02*
G01*
X87537568Y-96732016D01*
X87561984Y-96797480D01*
X87562300Y-96806325D01*
X87562300Y-100569231D01*
X87542615Y-100636270D01*
X87489811Y-100682025D01*
X87420653Y-100691969D01*
X87397346Y-100686273D01*
X87314697Y-100657353D01*
X87284270Y-100654500D01*
X87284266Y-100654500D01*
X85975734Y-100654500D01*
X85975730Y-100654500D01*
X85945300Y-100657353D01*
X85945298Y-100657353D01*
X85817119Y-100702206D01*
X85817117Y-100702207D01*
X85707850Y-100782850D01*
X85627207Y-100892117D01*
X85627206Y-100892119D01*
X85582353Y-101020298D01*
X85582353Y-101020300D01*
X85579500Y-101050730D01*
X85579500Y-102609269D01*
X85582353Y-102639699D01*
X85582353Y-102639701D01*
X85627206Y-102767880D01*
X85627207Y-102767882D01*
X85707850Y-102877150D01*
X85817118Y-102957793D01*
X85838089Y-102965131D01*
X85945299Y-103002646D01*
X85975730Y-103005500D01*
X85975734Y-103005500D01*
X86951987Y-103005500D01*
X87019026Y-103025185D01*
X87064781Y-103077989D01*
X87074725Y-103147147D01*
X87045700Y-103210703D01*
X87039670Y-103217180D01*
X83611111Y-106645856D01*
X83549788Y-106679342D01*
X83480096Y-106674359D01*
X83424162Y-106632488D01*
X83399744Y-106567024D01*
X83403652Y-106526090D01*
X83430500Y-106425892D01*
X83430500Y-106294108D01*
X83396392Y-106166814D01*
X83330500Y-106052686D01*
X83237314Y-105959500D01*
X83167362Y-105919113D01*
X83123187Y-105893608D01*
X83048354Y-105873557D01*
X82995892Y-105859500D01*
X82864108Y-105859500D01*
X82736812Y-105893608D01*
X82622686Y-105959500D01*
X82622683Y-105959502D01*
X82529502Y-106052683D01*
X82529500Y-106052686D01*
X82463608Y-106166812D01*
X82454560Y-106200582D01*
X82429500Y-106294108D01*
X82429500Y-106425892D01*
X82442038Y-106472686D01*
X82463608Y-106553187D01*
X82487087Y-106593853D01*
X82517140Y-106645906D01*
X82533613Y-106713806D01*
X82510761Y-106779833D01*
X82497433Y-106795588D01*
X80512180Y-108780785D01*
X80450856Y-108814270D01*
X80381165Y-108809284D01*
X80325232Y-108767412D01*
X80300816Y-108701947D01*
X80300500Y-108693103D01*
X80300500Y-107816004D01*
X80273581Y-107680677D01*
X80273580Y-107680676D01*
X80273580Y-107680672D01*
X80221895Y-107555892D01*
X80220778Y-107553195D01*
X80220771Y-107553182D01*
X80144114Y-107438458D01*
X80144111Y-107438454D01*
X80046545Y-107340888D01*
X80046541Y-107340885D01*
X79931817Y-107264228D01*
X79931804Y-107264221D01*
X79804332Y-107211421D01*
X79804322Y-107211418D01*
X79668995Y-107184500D01*
X79668993Y-107184500D01*
X79531007Y-107184500D01*
X79531005Y-107184500D01*
X79395677Y-107211418D01*
X79395667Y-107211421D01*
X79268195Y-107264221D01*
X79268182Y-107264228D01*
X79153458Y-107340885D01*
X79153454Y-107340888D01*
X79055888Y-107438454D01*
X79055885Y-107438458D01*
X78979228Y-107553182D01*
X78979221Y-107553195D01*
X78926421Y-107680667D01*
X78926418Y-107680677D01*
X78899500Y-107816004D01*
X78899500Y-108584755D01*
X78879815Y-108651794D01*
X78827011Y-108697549D01*
X78757853Y-108707493D01*
X78694297Y-108678468D01*
X78668113Y-108646756D01*
X78655731Y-108625310D01*
X78630515Y-108581635D01*
X78523365Y-108474485D01*
X78457750Y-108436602D01*
X78392136Y-108398719D01*
X78313358Y-108377611D01*
X78245766Y-108359500D01*
X78094234Y-108359500D01*
X77947863Y-108398719D01*
X77816635Y-108474485D01*
X77816632Y-108474487D01*
X77709487Y-108581632D01*
X77709485Y-108581635D01*
X77633719Y-108712863D01*
X77596254Y-108852689D01*
X77594500Y-108859234D01*
X77594500Y-109010766D01*
X77606083Y-109053993D01*
X77633719Y-109157136D01*
X77655018Y-109194026D01*
X77709485Y-109288365D01*
X77816635Y-109395515D01*
X77915658Y-109452686D01*
X77946510Y-109470499D01*
X77947865Y-109471281D01*
X78094234Y-109510500D01*
X78094236Y-109510500D01*
X78245764Y-109510500D01*
X78245766Y-109510500D01*
X78302501Y-109495298D01*
X78372348Y-109496960D01*
X78430211Y-109536121D01*
X78457716Y-109600349D01*
X78446130Y-109669252D01*
X78422274Y-109702753D01*
X78241847Y-109883181D01*
X78180524Y-109916666D01*
X78154166Y-109919500D01*
X78064108Y-109919500D01*
X77936812Y-109953608D01*
X77822686Y-110019500D01*
X77822683Y-110019502D01*
X77729502Y-110112683D01*
X77729500Y-110112686D01*
X77663608Y-110226812D01*
X77646186Y-110291834D01*
X77629500Y-110354108D01*
X77629500Y-110485892D01*
X77635454Y-110508114D01*
X77663608Y-110613187D01*
X77695360Y-110668182D01*
X77729500Y-110727314D01*
X77822686Y-110820500D01*
X77936814Y-110886392D01*
X78064108Y-110920500D01*
X78064110Y-110920500D01*
X78073038Y-110920500D01*
X78140077Y-110940185D01*
X78185832Y-110992989D01*
X78195776Y-111062147D01*
X78166751Y-111125703D01*
X78160719Y-111132180D01*
X76873587Y-112419276D01*
X75769650Y-113523182D01*
X75708326Y-113556667D01*
X75681970Y-113559500D01*
X71670649Y-113559500D01*
X71603610Y-113539815D01*
X71557855Y-113487011D01*
X71547911Y-113417853D01*
X71567547Y-113366609D01*
X71580771Y-113346817D01*
X71580771Y-113346816D01*
X71580775Y-113346811D01*
X71633580Y-113219328D01*
X71642389Y-113175041D01*
X71660500Y-113083995D01*
X71660500Y-112307499D01*
X71662379Y-112301099D01*
X71661179Y-112294537D01*
X71672100Y-112267991D01*
X71680185Y-112240460D01*
X71685225Y-112236092D01*
X71687764Y-112229922D01*
X71711303Y-112213495D01*
X71732989Y-112194705D01*
X71740936Y-112192816D01*
X71745062Y-112189938D01*
X71770612Y-112185766D01*
X71779780Y-112183589D01*
X71782133Y-112183499D01*
X71800559Y-112183500D01*
X71800562Y-112183499D01*
X71800571Y-112183499D01*
X71803626Y-112182680D01*
X71803683Y-112182678D01*
X71804108Y-112182551D01*
X71857008Y-112168374D01*
X71857009Y-112168373D01*
X71873192Y-112164038D01*
X71876614Y-112163238D01*
X71876993Y-112163018D01*
X71876997Y-112163018D01*
X71919392Y-112138539D01*
X71937842Y-112127887D01*
X71941452Y-112126135D01*
X71942416Y-112125500D01*
X71945179Y-112123793D01*
X71945516Y-112123455D01*
X71945518Y-112123455D01*
X71961657Y-112107316D01*
X71973481Y-112095491D01*
X71973483Y-112095489D01*
X72357820Y-111711158D01*
X72419143Y-111677675D01*
X72488835Y-111682660D01*
X72544768Y-111724532D01*
X72569184Y-111789996D01*
X72569500Y-111798841D01*
X72569500Y-111815892D01*
X72582897Y-111865891D01*
X72603608Y-111943187D01*
X72624291Y-111979010D01*
X72669500Y-112057314D01*
X72762686Y-112150500D01*
X72876814Y-112216392D01*
X73004108Y-112250500D01*
X73004110Y-112250500D01*
X73135890Y-112250500D01*
X73135892Y-112250500D01*
X73263186Y-112216392D01*
X73377314Y-112150500D01*
X73470500Y-112057314D01*
X73536392Y-111943186D01*
X73570500Y-111815892D01*
X73570500Y-111725832D01*
X73590185Y-111658793D01*
X73606819Y-111638151D01*
X74254485Y-110990485D01*
X74953138Y-110291832D01*
X75008720Y-110259742D01*
X75133186Y-110226392D01*
X75247314Y-110160500D01*
X75340500Y-110067314D01*
X75406392Y-109953186D01*
X75440500Y-109825892D01*
X75440500Y-109694108D01*
X75406392Y-109566814D01*
X75340500Y-109452686D01*
X75247314Y-109359500D01*
X75156264Y-109306932D01*
X75133187Y-109293608D01*
X75087061Y-109281249D01*
X75058479Y-109273590D01*
X74998819Y-109237226D01*
X74968290Y-109174379D01*
X74976585Y-109105003D01*
X75002890Y-109066137D01*
X78107538Y-105961548D01*
X78168859Y-105928066D01*
X78238551Y-105933051D01*
X78294484Y-105974923D01*
X78318900Y-106040387D01*
X78304048Y-106108660D01*
X78302605Y-106111230D01*
X78293608Y-106126812D01*
X78263744Y-106238269D01*
X78259500Y-106254108D01*
X78259500Y-106385892D01*
X78268512Y-106419525D01*
X78293608Y-106513187D01*
X78324691Y-106567024D01*
X78359500Y-106627314D01*
X78452686Y-106720500D01*
X78551521Y-106777563D01*
X78555453Y-106779833D01*
X78566814Y-106786392D01*
X78694108Y-106820500D01*
X78694110Y-106820500D01*
X78825890Y-106820500D01*
X78825892Y-106820500D01*
X78953186Y-106786392D01*
X79067314Y-106720500D01*
X79160500Y-106627314D01*
X79226392Y-106513186D01*
X79260500Y-106385892D01*
X79260500Y-106254108D01*
X79226392Y-106126814D01*
X79160500Y-106012686D01*
X79120537Y-105972723D01*
X79116205Y-105964790D01*
X79108969Y-105959376D01*
X79099722Y-105934604D01*
X79087052Y-105911400D01*
X79087696Y-105902385D01*
X79084536Y-105893918D01*
X79090150Y-105868079D01*
X79092036Y-105841708D01*
X79097844Y-105832668D01*
X79099371Y-105825641D01*
X79120516Y-105797382D01*
X79260990Y-105656840D01*
X79322305Y-105623340D01*
X79348692Y-105620500D01*
X79438590Y-105620500D01*
X79438592Y-105620500D01*
X79565886Y-105586392D01*
X79680014Y-105520500D01*
X79773200Y-105427314D01*
X79839092Y-105313186D01*
X79873200Y-105185892D01*
X79873200Y-105054108D01*
X79839092Y-104926814D01*
X79773200Y-104812686D01*
X79680014Y-104719500D01*
X79610497Y-104679364D01*
X79562283Y-104628798D01*
X79549061Y-104560190D01*
X79575029Y-104495326D01*
X79584814Y-104484301D01*
X87350622Y-96718641D01*
X87411943Y-96685159D01*
X87481635Y-96690144D01*
G37*
%TD.AperFunction*%
%TA.AperFunction,NonConductor*%
G36*
X70185242Y-113012242D02*
G01*
X70241175Y-113054114D01*
X70263525Y-113104232D01*
X70286418Y-113219322D01*
X70286421Y-113219332D01*
X70339221Y-113346804D01*
X70339228Y-113346817D01*
X70352453Y-113366609D01*
X70355490Y-113376309D01*
X70362145Y-113383989D01*
X70365753Y-113409086D01*
X70373331Y-113433286D01*
X70370642Y-113443086D01*
X70372089Y-113453147D01*
X70361555Y-113476212D01*
X70354847Y-113500667D01*
X70347285Y-113507459D01*
X70343064Y-113516703D01*
X70321733Y-113530411D01*
X70302868Y-113547357D01*
X70291270Y-113549988D01*
X70284286Y-113554477D01*
X70249351Y-113559500D01*
X70118676Y-113559500D01*
X70051637Y-113539815D01*
X70030995Y-113523181D01*
X69967316Y-113459502D01*
X69967314Y-113459500D01*
X69896881Y-113418835D01*
X69848667Y-113368268D01*
X69835445Y-113299661D01*
X69861413Y-113234797D01*
X69871202Y-113223768D01*
X69990738Y-113104232D01*
X70054228Y-113040742D01*
X70115550Y-113007258D01*
X70185242Y-113012242D01*
G37*
%TD.AperFunction*%
D25*
X79372700Y-105120000D03*
X72920000Y-105120000D03*
X78760000Y-106320000D03*
X72950000Y-106320000D03*
X110310000Y-65570000D03*
X97710000Y-86570000D03*
X107050000Y-63190000D03*
X61100000Y-103670000D03*
X87200000Y-79580000D03*
X79940000Y-81910000D03*
X60550000Y-109160000D03*
X111821000Y-101480000D03*
X78130000Y-110420000D03*
X112266000Y-72850000D03*
X62550000Y-112230000D03*
X69530000Y-112280000D03*
X69950000Y-90630000D03*
X63087500Y-93000000D03*
X91687500Y-115200000D03*
X110430000Y-104490000D03*
X112370000Y-56470000D03*
X111840000Y-107490000D03*
X111960000Y-81720000D03*
X114530000Y-85630000D03*
X113620000Y-58570000D03*
X111325000Y-94675000D03*
X73540000Y-109080000D03*
X74230000Y-94440000D03*
X73070000Y-111750000D03*
X57490000Y-111800000D03*
X62740000Y-106320000D03*
X74940000Y-109760000D03*
X73490000Y-95120000D03*
X75780000Y-106360000D03*
X75360000Y-104520000D03*
X74050000Y-106780000D03*
X82930000Y-106360000D03*
X69660000Y-113860000D03*
X95080000Y-104690000D03*
X93512500Y-115200000D03*
X91290000Y-98280000D03*
X82600000Y-99180000D03*
X89400000Y-97110000D03*
X93730000Y-104070000D03*
X83190000Y-95680000D03*
X75237600Y-95420700D03*
X73799700Y-91553800D03*
X76576900Y-99796400D03*
X78051800Y-98329400D03*
X74984700Y-103512500D03*
X57498000Y-113630000D03*
X91300000Y-95720000D03*
X108340000Y-70370000D03*
X64904000Y-109070000D03*
X110270000Y-63030000D03*
X108410000Y-67260000D03*
X60550000Y-107630000D03*
X74540000Y-84100000D03*
X90740000Y-80490000D03*
X64920000Y-113680000D03*
X107030000Y-73410000D03*
X73510000Y-92496400D03*
X67869900Y-106424500D03*
X74739100Y-88552800D03*
X67975000Y-97153700D03*
X98252200Y-97689900D03*
X104954900Y-106461500D03*
X104201900Y-96979700D03*
D26*
X72390000Y-108935000D03*
X78170000Y-108935000D03*
D27*
X70960000Y-108435000D03*
D28*
X70960000Y-112615000D03*
D27*
X79600000Y-108435000D03*
D28*
X79600000Y-112615000D03*
D26*
X98580000Y-109630000D03*
X101080000Y-109630000D03*
X98580000Y-101830000D03*
X101080000Y-101830000D03*
X60960000Y-119380000D03*
X86630000Y-109630000D03*
X89130000Y-109630000D03*
X91630000Y-109630000D03*
D29*
X77830000Y-86240000D03*
X77830000Y-87640000D03*
X78530000Y-85540000D03*
X78530000Y-86940000D03*
X78530000Y-88340000D03*
X79230000Y-86240000D03*
X79230000Y-87640000D03*
X79930000Y-85540000D03*
X79930000Y-86940000D03*
X79930000Y-88340000D03*
X80630000Y-86240000D03*
X80630000Y-87640000D03*
D26*
X106850000Y-100750000D03*
X106850000Y-103290000D03*
X106850000Y-105830000D03*
X106850000Y-108370000D03*
X106850000Y-110910000D03*
X106850000Y-113450000D03*
X111760000Y-119380000D03*
X86630000Y-101830000D03*
X89130000Y-101830000D03*
X91630000Y-101830000D03*
X59680000Y-101830000D03*
X62180000Y-101830000D03*
X64680000Y-101830000D03*
X67180000Y-101830000D03*
X69680000Y-101830000D03*
X72180000Y-101830000D03*
X74680000Y-101830000D03*
X77180000Y-101830000D03*
X79680000Y-101830000D03*
X60960000Y-48260000D03*
X111760000Y-48260000D03*
X108065200Y-77880000D03*
X110565200Y-77880000D03*
M02*
