%TF.GenerationSoftware,KiCad,Pcbnew,9.0.7*%
%TF.CreationDate,2026-05-19T07:49:01-05:00*%
%TF.ProjectId,SmartWateringFlowerPot,536d6172-7457-4617-9465-72696e67466c,rev?*%
%TF.SameCoordinates,Original*%
%TF.FileFunction,Copper,L1,Top*%
%TF.FilePolarity,Positive*%
%FSLAX46Y46*%
G04 Gerber Fmt 4.6, Leading zero omitted, Abs format (unit mm)*
G04 Created by KiCad (PCBNEW 9.0.7) date 2026-05-19 07:49:01*
%MOMM*%
%LPD*%
G01*
G04 APERTURE LIST*
G04 Aperture macros list*
%AMRoundRect*
0 Rectangle with rounded corners*
0 $1 Rounding radius*
0 $2 $3 $4 $5 $6 $7 $8 $9 X,Y pos of 4 corners*
0 Add a 4 corners polygon primitive as box body*
4,1,4,$2,$3,$4,$5,$6,$7,$8,$9,$2,$3,0*
0 Add four circle primitives for the rounded corners*
1,1,$1+$1,$2,$3*
1,1,$1+$1,$4,$5*
1,1,$1+$1,$6,$7*
1,1,$1+$1,$8,$9*
0 Add four rect primitives between the rounded corners*
20,1,$1+$1,$2,$3,$4,$5,0*
20,1,$1+$1,$4,$5,$6,$7,0*
20,1,$1+$1,$6,$7,$8,$9,0*
20,1,$1+$1,$8,$9,$2,$3,0*%
G04 Aperture macros list end*
%TA.AperFunction,SMDPad,CuDef*%
%ADD10RoundRect,0.250000X-0.262500X-0.450000X0.262500X-0.450000X0.262500X0.450000X-0.262500X0.450000X0*%
%TD*%
%TA.AperFunction,SMDPad,CuDef*%
%ADD11RoundRect,0.150000X-0.150000X-0.425000X0.150000X-0.425000X0.150000X0.425000X-0.150000X0.425000X0*%
%TD*%
%TA.AperFunction,SMDPad,CuDef*%
%ADD12RoundRect,0.075000X-0.075000X-0.500000X0.075000X-0.500000X0.075000X0.500000X-0.075000X0.500000X0*%
%TD*%
%TA.AperFunction,HeatsinkPad*%
%ADD13O,1.000000X2.100000*%
%TD*%
%TA.AperFunction,HeatsinkPad*%
%ADD14O,1.000000X1.800000*%
%TD*%
%TA.AperFunction,ComponentPad*%
%ADD15RoundRect,0.250000X-0.600000X-0.750000X0.600000X-0.750000X0.600000X0.750000X-0.600000X0.750000X0*%
%TD*%
%TA.AperFunction,ComponentPad*%
%ADD16O,1.700000X2.000000*%
%TD*%
%TA.AperFunction,SMDPad,CuDef*%
%ADD17RoundRect,0.250000X-1.000000X-0.650000X1.000000X-0.650000X1.000000X0.650000X-1.000000X0.650000X0*%
%TD*%
%TA.AperFunction,SMDPad,CuDef*%
%ADD18C,1.500000*%
%TD*%
%TA.AperFunction,ComponentPad*%
%ADD19RoundRect,0.250000X-0.600000X-0.725000X0.600000X-0.725000X0.600000X0.725000X-0.600000X0.725000X0*%
%TD*%
%TA.AperFunction,ComponentPad*%
%ADD20O,1.700000X1.950000*%
%TD*%
%TA.AperFunction,SMDPad,CuDef*%
%ADD21R,1.500000X0.900000*%
%TD*%
%TA.AperFunction,SMDPad,CuDef*%
%ADD22R,0.900000X1.500000*%
%TD*%
%TA.AperFunction,HeatsinkPad*%
%ADD23C,0.600000*%
%TD*%
%TA.AperFunction,HeatsinkPad*%
%ADD24R,3.900000X3.900000*%
%TD*%
%TA.AperFunction,ComponentPad*%
%ADD25R,1.700000X1.700000*%
%TD*%
%TA.AperFunction,ComponentPad*%
%ADD26C,1.700000*%
%TD*%
%TA.AperFunction,SMDPad,CuDef*%
%ADD27RoundRect,0.250000X-0.250000X-0.475000X0.250000X-0.475000X0.250000X0.475000X-0.250000X0.475000X0*%
%TD*%
%TA.AperFunction,SMDPad,CuDef*%
%ADD28R,2.350000X5.100000*%
%TD*%
%TA.AperFunction,SMDPad,CuDef*%
%ADD29RoundRect,0.150000X-0.512500X-0.150000X0.512500X-0.150000X0.512500X0.150000X-0.512500X0.150000X0*%
%TD*%
%TA.AperFunction,SMDPad,CuDef*%
%ADD30RoundRect,0.150000X-0.587500X-0.150000X0.587500X-0.150000X0.587500X0.150000X-0.587500X0.150000X0*%
%TD*%
%TA.AperFunction,ComponentPad*%
%ADD31RoundRect,0.250000X-0.550000X-0.550000X0.550000X-0.550000X0.550000X0.550000X-0.550000X0.550000X0*%
%TD*%
%TA.AperFunction,ComponentPad*%
%ADD32C,1.600000*%
%TD*%
%TA.AperFunction,ViaPad*%
%ADD33C,0.600000*%
%TD*%
%TA.AperFunction,Conductor*%
%ADD34C,0.200000*%
%TD*%
%ADD35C,0.300000*%
%ADD36C,0.350000*%
%ADD37O,0.600000X1.700000*%
%ADD38O,0.600000X1.400000*%
%ADD39C,0.200000*%
G04 APERTURE END LIST*
D10*
%TO.P,R10,1*%
%TO.N,Net-(TP5-Pin_1)*%
X66317500Y-113630000D03*
%TO.P,R10,2*%
%TO.N,Net-(J3-Pin_3)*%
X68142500Y-113630000D03*
%TD*%
D11*
%TO.P,J1,A1,GND*%
%TO.N,GND*%
X72080000Y-107860000D03*
%TO.P,J1,A4,VBUS*%
%TO.N,+5V*%
X72880000Y-107860000D03*
D12*
%TO.P,J1,A5,CC1*%
%TO.N,Net-(J1-CC1)*%
X74030000Y-107860000D03*
%TO.P,J1,A6,D+*%
%TO.N,Net-(U1-USB_D+)*%
X75030000Y-107860000D03*
%TO.P,J1,A7,D-*%
%TO.N,Net-(U1-USB_D-)*%
X75530000Y-107860000D03*
%TO.P,J1,A8,SBU1*%
%TO.N,unconnected-(J1-SBU1-PadA8)*%
X76530000Y-107860000D03*
D11*
%TO.P,J1,A9,VBUS*%
%TO.N,+5V*%
X77680000Y-107860000D03*
%TO.P,J1,A12,GND*%
%TO.N,GND*%
X78480000Y-107860000D03*
%TO.P,J1,B1,GND*%
X78480000Y-107860000D03*
%TO.P,J1,B4,VBUS*%
%TO.N,+5V*%
X77680000Y-107860000D03*
D12*
%TO.P,J1,B5,CC2*%
%TO.N,Net-(J1-CC2)*%
X77030000Y-107860000D03*
%TO.P,J1,B6,D+*%
%TO.N,Net-(U1-USB_D+)*%
X76030000Y-107860000D03*
%TO.P,J1,B7,D-*%
%TO.N,Net-(U1-USB_D-)*%
X74530000Y-107860000D03*
%TO.P,J1,B8,SBU2*%
%TO.N,unconnected-(J1-SBU2-PadB8)*%
X73530000Y-107860000D03*
D11*
%TO.P,J1,B9,VBUS*%
%TO.N,+5V*%
X72880000Y-107860000D03*
%TO.P,J1,B12,GND*%
%TO.N,GND*%
X72080000Y-107860000D03*
D13*
%TO.P,J1,S1,SHIELD*%
X70960000Y-108435000D03*
D14*
X70960000Y-112615000D03*
D13*
X79600000Y-108435000D03*
D14*
X79600000Y-112615000D03*
%TD*%
D10*
%TO.P,R3,1*%
%TO.N,Net-(J7-Pin_5)*%
X57497500Y-113630000D03*
%TO.P,R3,2*%
%TO.N,+3V3*%
X59322500Y-113630000D03*
%TD*%
D15*
%TO.P,J4,1,Pin_1*%
%TO.N,Net-(J4-Pin_1)*%
X98580000Y-109630000D03*
D16*
%TO.P,J4,2,Pin_2*%
%TO.N,GND*%
X101080000Y-109630000D03*
%TD*%
D17*
%TO.P,D1,1,K*%
%TO.N,+5V*%
X107325000Y-91630000D03*
%TO.P,D1,2,A*%
%TO.N,Net-(D1-A)*%
X111325000Y-91630000D03*
%TD*%
D18*
%TO.P,TP2,1,Pin_1*%
%TO.N,GND*%
X107030000Y-61530000D03*
%TD*%
%TO.P,TP1,1,Pin_1*%
%TO.N,+5V*%
X107030000Y-57980000D03*
%TD*%
D15*
%TO.P,J2,1,Pin_1*%
%TO.N,+5V*%
X98580000Y-101830000D03*
D16*
%TO.P,J2,2,Pin_2*%
%TO.N,Net-(D1-A)*%
X101080000Y-101830000D03*
%TD*%
D10*
%TO.P,R6,1*%
%TO.N,+3V3*%
X63087500Y-93000000D03*
%TO.P,R6,2*%
%TO.N,Net-(J6-Pin_3)*%
X64912500Y-93000000D03*
%TD*%
D18*
%TO.P,TP3,1,Pin_1*%
%TO.N,+3V3*%
X107030000Y-65080000D03*
%TD*%
%TO.P,TP5,1,Pin_1*%
%TO.N,Net-(TP5-Pin_1)*%
X107030000Y-72180000D03*
%TD*%
D19*
%TO.P,J5,1,Pin_1*%
%TO.N,+3V3*%
X86630000Y-109630000D03*
D20*
%TO.P,J5,2,Pin_2*%
%TO.N,GND*%
X89130000Y-109630000D03*
%TO.P,J5,3,Pin_3*%
%TO.N,Net-(J5-Pin_3)*%
X91630000Y-109630000D03*
%TD*%
D21*
%TO.P,U1,1,GND*%
%TO.N,GND*%
X71980000Y-79220000D03*
%TO.P,U1,2,3V3*%
%TO.N,+3V3*%
X71980000Y-80490000D03*
%TO.P,U1,3,EN*%
%TO.N,Net-(J7-Pin_5)*%
X71980000Y-81760000D03*
%TO.P,U1,4,IO4*%
%TO.N,Net-(U1-IO4)*%
X71980000Y-83030000D03*
%TO.P,U1,5,IO5*%
%TO.N,unconnected-(U1-IO5-Pad5)*%
X71980000Y-84300000D03*
%TO.P,U1,6,IO6*%
%TO.N,unconnected-(U1-IO6-Pad6)*%
X71980000Y-85570000D03*
%TO.P,U1,7,IO7*%
%TO.N,unconnected-(U1-IO7-Pad7)*%
X71980000Y-86840000D03*
%TO.P,U1,8,IO15*%
%TO.N,Net-(J6-Pin_8)*%
X71980000Y-88110000D03*
%TO.P,U1,9,IO16*%
%TO.N,Net-(J6-Pin_9)*%
X71980000Y-89380000D03*
%TO.P,U1,10,IO17*%
%TO.N,unconnected-(U1-IO17-Pad10)*%
X71980000Y-90650000D03*
%TO.P,U1,11,IO18*%
%TO.N,unconnected-(U1-IO18-Pad11)*%
X71980000Y-91920000D03*
%TO.P,U1,12,IO8*%
%TO.N,Net-(J6-Pin_3)*%
X71980000Y-93190000D03*
%TO.P,U1,13,USB_D-*%
%TO.N,Net-(U1-USB_D-)*%
X71980000Y-94460000D03*
%TO.P,U1,14,USB_D+*%
%TO.N,Net-(U1-USB_D+)*%
X71980000Y-95730000D03*
D22*
%TO.P,U1,15,IO3*%
%TO.N,unconnected-(U1-IO3-Pad15)*%
X73745000Y-96980000D03*
%TO.P,U1,16,IO46*%
%TO.N,unconnected-(U1-IO46-Pad16)*%
X75015000Y-96980000D03*
%TO.P,U1,17,IO9*%
%TO.N,Net-(J6-Pin_4)*%
X76285000Y-96980000D03*
%TO.P,U1,18,IO10*%
%TO.N,Net-(J6-Pin_5)*%
X77555000Y-96980000D03*
%TO.P,U1,19,IO11*%
%TO.N,Net-(J6-Pin_6)*%
X78825000Y-96980000D03*
%TO.P,U1,20,IO12*%
%TO.N,Net-(J6-Pin_7)*%
X80095000Y-96980000D03*
%TO.P,U1,21,IO13*%
%TO.N,Net-(J4-Pin_1)*%
X81365000Y-96980000D03*
%TO.P,U1,22,IO14*%
%TO.N,Net-(J5-Pin_3)*%
X82635000Y-96980000D03*
%TO.P,U1,23,IO21*%
%TO.N,unconnected-(U1-IO21-Pad23)*%
X83905000Y-96980000D03*
%TO.P,U1,24,IO47*%
%TO.N,unconnected-(U1-IO47-Pad24)*%
X85175000Y-96980000D03*
%TO.P,U1,25,IO48*%
%TO.N,unconnected-(U1-IO48-Pad25)*%
X86445000Y-96980000D03*
%TO.P,U1,26,IO45*%
%TO.N,unconnected-(U1-IO45-Pad26)*%
X87715000Y-96980000D03*
D21*
%TO.P,U1,27,IO0*%
%TO.N,Net-(J7-Pin_6)*%
X89480000Y-95730000D03*
%TO.P,U1,28,IO35*%
%TO.N,unconnected-(U1-IO35-Pad28)*%
X89480000Y-94460000D03*
%TO.P,U1,29,IO36*%
%TO.N,unconnected-(U1-IO36-Pad29)*%
X89480000Y-93190000D03*
%TO.P,U1,30,IO37*%
%TO.N,unconnected-(U1-IO37-Pad30)*%
X89480000Y-91920000D03*
%TO.P,U1,31,IO38*%
%TO.N,unconnected-(U1-IO38-Pad31)*%
X89480000Y-90650000D03*
%TO.P,U1,32,IO39*%
%TO.N,unconnected-(U1-IO39-Pad32)*%
X89480000Y-89380000D03*
%TO.P,U1,33,IO40*%
%TO.N,unconnected-(U1-IO40-Pad33)*%
X89480000Y-88110000D03*
%TO.P,U1,34,IO41*%
%TO.N,unconnected-(U1-IO41-Pad34)*%
X89480000Y-86840000D03*
%TO.P,U1,35,IO42*%
%TO.N,unconnected-(U1-IO42-Pad35)*%
X89480000Y-85570000D03*
%TO.P,U1,36,RXD0*%
%TO.N,Net-(J7-Pin_4)*%
X89480000Y-84300000D03*
%TO.P,U1,37,TXD0*%
%TO.N,Net-(J7-Pin_3)*%
X89480000Y-83030000D03*
%TO.P,U1,38,IO2*%
%TO.N,unconnected-(U1-IO2-Pad38)*%
X89480000Y-81760000D03*
%TO.P,U1,39,IO1*%
%TO.N,Net-(TP5-Pin_1)*%
X89480000Y-80490000D03*
%TO.P,U1,40,GND*%
%TO.N,GND*%
X89480000Y-79220000D03*
D23*
%TO.P,U1,41,GND*%
X77830000Y-86240000D03*
X77830000Y-87640000D03*
X78530000Y-85540000D03*
X78530000Y-86940000D03*
X78530000Y-88340000D03*
X79230000Y-86240000D03*
D24*
X79230000Y-86940000D03*
D23*
X79230000Y-87640000D03*
X79930000Y-85540000D03*
X79930000Y-86940000D03*
X79930000Y-88340000D03*
X80630000Y-86240000D03*
X80630000Y-87640000D03*
%TD*%
D25*
%TO.P,J7,1,Pin_1*%
%TO.N,+3V3*%
X106850000Y-100750000D03*
D26*
%TO.P,J7,2,Pin_2*%
%TO.N,GND*%
X106850000Y-103290000D03*
%TO.P,J7,3,Pin_3*%
%TO.N,Net-(J7-Pin_3)*%
X106850000Y-105830000D03*
%TO.P,J7,4,Pin_4*%
%TO.N,Net-(J7-Pin_4)*%
X106850000Y-108370000D03*
%TO.P,J7,5,Pin_5*%
%TO.N,Net-(J7-Pin_5)*%
X106850000Y-110910000D03*
%TO.P,J7,6,Pin_6*%
%TO.N,Net-(J7-Pin_6)*%
X106850000Y-113450000D03*
%TD*%
D10*
%TO.P,R1,1*%
%TO.N,Net-(J1-CC1)*%
X57497500Y-107730000D03*
%TO.P,R1,2*%
%TO.N,GND*%
X59322500Y-107730000D03*
%TD*%
D27*
%TO.P,C1,1*%
%TO.N,+5V*%
X110420000Y-99960000D03*
%TO.P,C1,2*%
%TO.N,GND*%
X112320000Y-99960000D03*
%TD*%
D28*
%TO.P,L1,1,1*%
%TO.N,+3V3*%
X107205000Y-85580000D03*
%TO.P,L1,2,2*%
%TO.N,Net-(U2-SW)*%
X111355000Y-85580000D03*
%TD*%
D29*
%TO.P,U2,1,FB*%
%TO.N,+3V3*%
X110242500Y-57655000D03*
%TO.P,U2,2,EN*%
%TO.N,+5V*%
X110242500Y-58605000D03*
%TO.P,U2,3,IN*%
X110242500Y-59555000D03*
%TO.P,U2,4,GND*%
%TO.N,GND*%
X112517500Y-59555000D03*
%TO.P,U2,5,SW*%
%TO.N,Net-(U2-SW)*%
X112517500Y-58605000D03*
%TO.P,U2,6,BST*%
%TO.N,Net-(U2-BST)*%
X112517500Y-57655000D03*
%TD*%
D27*
%TO.P,C3,1*%
%TO.N,Net-(U2-BST)*%
X110420000Y-105980000D03*
%TO.P,C3,2*%
%TO.N,Net-(U2-SW)*%
X112320000Y-105980000D03*
%TD*%
D19*
%TO.P,J3,1,Pin_1*%
%TO.N,+3V3*%
X86630000Y-101830000D03*
D20*
%TO.P,J3,2,Pin_2*%
%TO.N,GND*%
X89130000Y-101830000D03*
%TO.P,J3,3,Pin_3*%
%TO.N,Net-(J3-Pin_3)*%
X91630000Y-101830000D03*
%TD*%
D27*
%TO.P,C2,1*%
%TO.N,+3V3*%
X110420000Y-102970000D03*
%TO.P,C2,2*%
%TO.N,GND*%
X112320000Y-102970000D03*
%TD*%
D18*
%TO.P,TP4,1,Pin_1*%
%TO.N,Net-(Q1-G)*%
X107030000Y-68630000D03*
%TD*%
D30*
%TO.P,Q1,1,G*%
%TO.N,Net-(Q1-G)*%
X110322500Y-62100000D03*
%TO.P,Q1,2,S*%
%TO.N,GND*%
X110322500Y-64000000D03*
%TO.P,Q1,3,D*%
%TO.N,Net-(D1-A)*%
X112197500Y-63050000D03*
%TD*%
D10*
%TO.P,R4,1*%
%TO.N,Net-(U1-IO4)*%
X61907500Y-107730000D03*
%TO.P,R4,2*%
%TO.N,Net-(Q1-G)*%
X63732500Y-107730000D03*
%TD*%
D19*
%TO.P,J6,1,Pin_1*%
%TO.N,+3V3*%
X59680000Y-101830000D03*
D20*
%TO.P,J6,2,Pin_2*%
%TO.N,GND*%
X62180000Y-101830000D03*
%TO.P,J6,3,Pin_3*%
%TO.N,Net-(J6-Pin_3)*%
X64680000Y-101830000D03*
%TO.P,J6,4,Pin_4*%
%TO.N,Net-(J6-Pin_4)*%
X67180000Y-101830000D03*
%TO.P,J6,5,Pin_5*%
%TO.N,Net-(J6-Pin_5)*%
X69680000Y-101830000D03*
%TO.P,J6,6,Pin_6*%
%TO.N,Net-(J6-Pin_6)*%
X72180000Y-101830000D03*
%TO.P,J6,7,Pin_7*%
%TO.N,Net-(J6-Pin_7)*%
X74680000Y-101830000D03*
%TO.P,J6,8,Pin_8*%
%TO.N,Net-(J6-Pin_8)*%
X77180000Y-101830000D03*
%TO.P,J6,9,Pin_9*%
%TO.N,Net-(J6-Pin_9)*%
X79680000Y-101830000D03*
%TD*%
D10*
%TO.P,R7,1*%
%TO.N,+3V3*%
X66317500Y-107730000D03*
%TO.P,R7,2*%
%TO.N,Net-(J6-Pin_4)*%
X68142500Y-107730000D03*
%TD*%
%TO.P,R2,1*%
%TO.N,Net-(J1-CC2)*%
X57497500Y-110680000D03*
%TO.P,R2,2*%
%TO.N,GND*%
X59322500Y-110680000D03*
%TD*%
%TO.P,R5,1*%
%TO.N,Net-(Q1-G)*%
X61907500Y-110680000D03*
%TO.P,R5,2*%
%TO.N,GND*%
X63732500Y-110680000D03*
%TD*%
D31*
%TO.P,C6,1*%
%TO.N,+5V*%
X108065200Y-77880000D03*
D32*
%TO.P,C6,2*%
%TO.N,GND*%
X110565200Y-77880000D03*
%TD*%
D27*
%TO.P,C5,1*%
%TO.N,+3V3*%
X110420000Y-112000000D03*
%TO.P,C5,2*%
%TO.N,GND*%
X112320000Y-112000000D03*
%TD*%
D33*
%TO.N,+5V*%
X79372700Y-105120000D03*
X72920000Y-105120000D03*
X78760000Y-106320000D03*
X72950000Y-106320000D03*
%TO.N,GND*%
X110310000Y-65570000D03*
X97710000Y-86570000D03*
X107050000Y-63190000D03*
X61100000Y-103670000D03*
X87200000Y-79580000D03*
X79940000Y-81910000D03*
X60550000Y-109160000D03*
X111821000Y-101480000D03*
X78130000Y-110420000D03*
X112266000Y-72850000D03*
X62550000Y-112230000D03*
X69530000Y-112280000D03*
X69950000Y-90630000D03*
%TO.N,+3V3*%
X63087500Y-93000000D03*
X91687500Y-115200000D03*
%TO.N,Net-(U2-BST)*%
X110430000Y-104490000D03*
X112370000Y-56470000D03*
%TO.N,Net-(U2-SW)*%
X111840000Y-107490000D03*
X111960000Y-81720000D03*
X114530000Y-85630000D03*
X113620000Y-58570000D03*
%TO.N,Net-(D1-A)*%
X111325000Y-94675000D03*
%TO.N,Net-(U1-USB_D-)*%
X73540000Y-109080000D03*
X74230000Y-94440000D03*
%TO.N,Net-(J1-CC2)*%
X73070000Y-111750000D03*
X57490000Y-111800000D03*
X62740000Y-106320000D03*
X74940000Y-109760000D03*
%TO.N,Net-(U1-USB_D+)*%
X73490000Y-95120000D03*
X75780000Y-106360000D03*
%TO.N,Net-(J1-CC1)*%
X75360000Y-104520000D03*
X74050000Y-106780000D03*
%TO.N,Net-(J3-Pin_3)*%
X82930000Y-106360000D03*
X69660000Y-113860000D03*
%TO.N,Net-(J4-Pin_1)*%
X95080000Y-104690000D03*
X93512500Y-115200000D03*
X91290000Y-98280000D03*
%TO.N,Net-(J5-Pin_3)*%
X82600000Y-99180000D03*
X89400000Y-97110000D03*
X93730000Y-104070000D03*
X83190000Y-95680000D03*
%TO.N,Net-(J6-Pin_8)*%
X75237600Y-95420700D03*
%TO.N,Net-(J6-Pin_9)*%
X73799700Y-91553800D03*
%TO.N,Net-(J6-Pin_7)*%
X76576900Y-99796400D03*
%TO.N,Net-(J6-Pin_6)*%
X78051800Y-98329400D03*
X74984700Y-103512500D03*
%TO.N,Net-(J7-Pin_5)*%
X57498000Y-113630000D03*
%TO.N,Net-(J7-Pin_6)*%
X91300000Y-95720000D03*
%TO.N,Net-(Q1-G)*%
X108340000Y-70370000D03*
X64904000Y-109070000D03*
X110270000Y-63030000D03*
X108410000Y-67260000D03*
%TO.N,Net-(U1-IO4)*%
X60550000Y-107630000D03*
X74540000Y-84100000D03*
%TO.N,Net-(TP5-Pin_1)*%
X90740000Y-80490000D03*
X64920000Y-113680000D03*
X107030000Y-73410000D03*
%TO.N,Net-(J6-Pin_3)*%
X73510000Y-92496400D03*
%TO.N,Net-(J6-Pin_4)*%
X67869900Y-106424500D03*
X74739100Y-88552800D03*
X67975000Y-97153700D03*
%TO.N,Net-(J7-Pin_3)*%
X98252200Y-97689900D03*
X104954900Y-106461500D03*
X104201900Y-96979700D03*
%TD*%
D34*
%TO.N,+5V*%
X107956000Y-57054000D02*
X110946000Y-57054000D01*
X111361000Y-62441000D02*
X111101000Y-62701000D01*
X107327000Y-112061000D02*
X108001000Y-111387000D01*
X108680000Y-78494800D02*
X108680000Y-90275000D01*
X110242000Y-58605000D02*
X110242000Y-59555000D01*
X111159000Y-63457000D02*
X111666000Y-63964300D01*
X77494000Y-109215000D02*
X78065000Y-109786000D01*
X110242500Y-59555000D02*
X110242000Y-59555000D01*
X108680000Y-90275000D02*
X107325000Y-91630000D01*
X111159000Y-62643000D02*
X111159000Y-63457000D01*
X90918800Y-103230000D02*
X97202900Y-103230000D01*
X110905000Y-58605000D02*
X111206000Y-58304000D01*
X72950000Y-106320000D02*
X72950000Y-107790000D01*
X111361000Y-62441000D02*
X111159000Y-62643000D01*
X107327000Y-109759000D02*
X106509000Y-109759000D01*
X111361000Y-62441000D02*
X111101000Y-62701000D01*
X108681000Y-78207200D02*
X108681000Y-96051900D01*
X111361000Y-63659000D02*
X111361000Y-75527200D01*
X108065000Y-77880000D02*
X108680000Y-78494800D01*
X106509000Y-109759000D02*
X98580000Y-101830000D01*
X111206000Y-58304000D02*
X111206000Y-57314000D01*
X108001000Y-110433000D02*
X107327000Y-109759000D01*
X111206000Y-57314000D02*
X111206000Y-58304000D01*
X97202900Y-103230000D02*
X106034000Y-112061000D01*
X77680000Y-107860000D02*
X77680000Y-108319000D01*
X107327000Y-112061000D02*
X108001000Y-111387000D01*
X77680000Y-107400000D02*
X78760000Y-106320000D01*
X77680000Y-107860000D02*
X77494000Y-108046000D01*
X111101000Y-63399000D02*
X111361000Y-63659000D01*
X108001000Y-111387000D02*
X108001000Y-110433000D01*
X107030000Y-57980000D02*
X107956000Y-57054000D01*
X111221000Y-112710000D02*
X110905000Y-113026000D01*
X111206000Y-58304000D02*
X110905000Y-58605000D01*
X111361000Y-75527200D02*
X108681000Y-78207200D01*
X111666000Y-63964300D02*
X111666000Y-74279000D01*
X111221000Y-100761000D02*
X111221000Y-112710000D01*
X110905000Y-58605000D02*
X111206000Y-58304000D01*
X111206000Y-58304000D02*
X111206000Y-57314000D01*
X111221000Y-100761000D02*
X111221000Y-112710000D01*
X72950000Y-107790000D02*
X72880000Y-107860000D01*
X111206000Y-58304000D02*
X111206000Y-57314000D01*
X111101000Y-62701000D02*
X111101000Y-63399000D01*
X107956000Y-57054000D02*
X110946000Y-57054000D01*
X111101000Y-62701000D02*
X111101000Y-63399000D01*
X111666000Y-63964300D02*
X111666000Y-74279000D01*
X97202900Y-103230000D02*
X106034000Y-112061000D01*
X78065000Y-109786000D02*
X84362800Y-109786000D01*
X78065000Y-109786000D02*
X84362800Y-109786000D01*
X110242000Y-58605000D02*
X110905000Y-58605000D01*
X110420000Y-94725000D02*
X110420000Y-99960000D01*
X110242500Y-58605000D02*
X110242000Y-58605000D01*
X108292000Y-113026000D02*
X108292000Y-110724000D01*
X84362800Y-109786000D02*
X90918800Y-103230000D01*
X106034000Y-112061000D02*
X107327000Y-112061000D01*
X111221000Y-98591900D02*
X111221000Y-112710000D01*
X110946000Y-57054000D02*
X111206000Y-57314000D01*
X111361000Y-75527200D02*
X108681000Y-78207200D01*
X107325000Y-91630000D02*
X110420000Y-94725000D01*
X111361000Y-57469000D02*
X111361000Y-62441000D01*
X108681000Y-78207200D02*
X108681000Y-96051900D01*
X106034000Y-112061000D02*
X107327000Y-112061000D01*
X111206000Y-57314000D02*
X110946000Y-57054000D01*
X111666000Y-74279000D02*
X108065000Y-77880000D01*
X111221000Y-112710000D02*
X110905000Y-113026000D01*
X106509000Y-109759000D02*
X98580000Y-101830000D01*
X111361000Y-63659000D02*
X111361000Y-75527200D01*
X111101000Y-63399000D02*
X111361000Y-63659000D01*
X108681000Y-96051900D02*
X111221000Y-98591900D01*
X110946000Y-57054000D02*
X111361000Y-57469000D01*
X111206000Y-57314000D02*
X110946000Y-57054000D01*
X108292000Y-110724000D02*
X107327000Y-109759000D01*
X90918800Y-103230000D02*
X97202900Y-103230000D01*
X77494000Y-108046000D02*
X77494000Y-109215000D01*
X77680000Y-107860000D02*
X77680000Y-107400000D01*
X108001000Y-111387000D02*
X108001000Y-110433000D01*
X72950000Y-106320000D02*
X72950000Y-107790000D01*
X110905000Y-58605000D02*
X110242000Y-58605000D01*
X108292000Y-113026000D02*
X108292000Y-110724000D01*
X110946000Y-57054000D02*
X111206000Y-57314000D01*
X111666000Y-74279000D02*
X108065000Y-77880000D01*
X111206000Y-57314000D02*
X110946000Y-57054000D01*
X111159000Y-63457000D02*
X111666000Y-63964300D01*
X77680000Y-107860000D02*
X77494000Y-108046000D01*
X110905000Y-113026000D02*
X108292000Y-113026000D01*
X84362800Y-109786000D02*
X90918800Y-103230000D01*
X110420000Y-94725000D02*
X110420000Y-99960000D01*
X108680000Y-90275000D02*
X107325000Y-91630000D01*
X110420000Y-99960000D02*
X111221000Y-100761000D01*
X108065000Y-77880000D02*
X108680000Y-78494800D01*
X111159000Y-62643000D02*
X111159000Y-63457000D01*
X108680000Y-78494800D02*
X108680000Y-90275000D01*
X110946000Y-57054000D02*
X111361000Y-57469000D01*
X77494000Y-109215000D02*
X78065000Y-109786000D01*
X77680000Y-107860000D02*
X77680000Y-107400000D01*
X79372700Y-105120000D02*
X72920000Y-105120000D01*
X72880000Y-108319000D02*
X72880000Y-107860000D01*
X108681000Y-96051900D02*
X111221000Y-98591900D01*
X110905000Y-113026000D02*
X108292000Y-113026000D01*
X77494000Y-108046000D02*
X77494000Y-109215000D01*
%TO.N,GND*%
X105979000Y-55911000D02*
X106940000Y-54950000D01*
X107030000Y-61530000D02*
X105979000Y-60479000D01*
X110310000Y-64012500D02*
X110322000Y-64000000D01*
X112620000Y-54950000D02*
X106940000Y-54950000D01*
X107030000Y-61530000D02*
X105979000Y-60479000D01*
X60550000Y-109160000D02*
X60550000Y-108958000D01*
X62130000Y-111810000D02*
X62130000Y-111681000D01*
X79055000Y-108435000D02*
X78480000Y-107860000D01*
X110565000Y-77880000D02*
X112266000Y-76179000D01*
X105979000Y-60479000D02*
X107030000Y-61530000D01*
X111821000Y-101480000D02*
X111821000Y-102471000D01*
X107030000Y-61530000D02*
X107030000Y-63170000D01*
X71714000Y-109215000D02*
X72919000Y-110420000D01*
X89120000Y-79580000D02*
X87200000Y-79580000D01*
X114220000Y-56550000D02*
X112620000Y-54950000D01*
X79930000Y-81920000D02*
X79940000Y-81910000D01*
X69865000Y-112615000D02*
X69530000Y-112280000D01*
X72080000Y-107860000D02*
X71714000Y-108226000D01*
X112320000Y-108990000D02*
X113121000Y-108189000D01*
X62180000Y-101830000D02*
X62180000Y-98400000D01*
X62180000Y-102590000D02*
X61100000Y-103670000D01*
X112320000Y-112000000D02*
X112320000Y-108990000D01*
X105979000Y-60479000D02*
X107030000Y-61530000D01*
X113180000Y-59555000D02*
X112518000Y-59555000D01*
X59322500Y-110388000D02*
X59322500Y-110680000D01*
X114056000Y-59254000D02*
X114220000Y-59090000D01*
X113481000Y-59254000D02*
X113180000Y-59555000D01*
X112620000Y-54950000D02*
X106940000Y-54950000D01*
X107030000Y-61530000D02*
X107030000Y-63170000D01*
X110310000Y-65570000D02*
X110310000Y-64012500D01*
X113121000Y-103771000D02*
X112320000Y-102970000D01*
X105979000Y-55911000D02*
X105979000Y-60479000D01*
X114220000Y-59090000D02*
X114220000Y-56550000D01*
X112320000Y-108990000D02*
X113121000Y-108189000D01*
X62550000Y-112230000D02*
X62130000Y-111810000D01*
X62731500Y-111681000D02*
X62130000Y-111681000D01*
X114220000Y-59090000D02*
X114056000Y-59254000D01*
X62180000Y-101830000D02*
X62180000Y-98400000D01*
X114220000Y-56550000D02*
X114220000Y-59090000D01*
X60550000Y-109160000D02*
X60550000Y-108958000D01*
X113180000Y-59555000D02*
X113481000Y-59254000D01*
X112620000Y-54950000D02*
X106940000Y-54950000D01*
X114220000Y-56550000D02*
X112620000Y-54950000D01*
X60550000Y-108958000D02*
X59322500Y-107730000D01*
X71535000Y-107860000D02*
X70960000Y-108435000D01*
X79930000Y-85540000D02*
X79930000Y-81920000D01*
X72919000Y-110420000D02*
X78130000Y-110420000D01*
X79230000Y-85250000D02*
X79230000Y-86940000D01*
X114220000Y-59090000D02*
X114220000Y-56550000D01*
X106940000Y-54950000D02*
X105979000Y-55911000D01*
X71714000Y-108226000D02*
X71714000Y-109215000D01*
X112620000Y-54950000D02*
X114220000Y-56550000D01*
X61409800Y-111681000D02*
X60550000Y-110821000D01*
X79600000Y-108435000D02*
X79055000Y-108435000D01*
X105979000Y-55911000D02*
X105979000Y-60479000D01*
X71714000Y-109215000D02*
X72919000Y-110420000D01*
X70960000Y-112615000D02*
X70960000Y-108435000D01*
X72080000Y-107860000D02*
X71714000Y-108226000D01*
X112620000Y-54950000D02*
X106940000Y-54950000D01*
X73200000Y-79220000D02*
X79230000Y-85250000D01*
X79600000Y-108435000D02*
X79055000Y-108435000D01*
X62130000Y-111681000D02*
X61409800Y-111681000D01*
X114056000Y-59254000D02*
X113481000Y-59254000D01*
X59322500Y-110388000D02*
X59322500Y-110680000D01*
X107030000Y-63170000D02*
X107050000Y-63190000D01*
X114220000Y-59090000D02*
X114220000Y-56550000D01*
X62180000Y-101830000D02*
X62180000Y-102590000D01*
X113481000Y-59254000D02*
X114056000Y-59254000D01*
X105979000Y-60479000D02*
X107030000Y-61530000D01*
X72080000Y-107860000D02*
X71535000Y-107860000D01*
X60550000Y-110821000D02*
X60550000Y-109160000D01*
X62180000Y-102590000D02*
X61100000Y-103670000D01*
X106940000Y-54950000D02*
X105979000Y-55911000D01*
X97710000Y-86570000D02*
X90360000Y-79220000D01*
X105979000Y-55911000D02*
X105979000Y-60479000D01*
X79600000Y-111890000D02*
X78130000Y-110420000D01*
X61409800Y-111681000D02*
X60550000Y-110821000D01*
X114220000Y-56550000D02*
X112620000Y-54950000D01*
X106940000Y-54950000D02*
X105979000Y-55911000D01*
X97710000Y-86570000D02*
X90360000Y-79220000D01*
X105979000Y-55911000D02*
X105979000Y-60479000D01*
X79930000Y-85540000D02*
X79930000Y-81920000D01*
X79600000Y-112615000D02*
X79600000Y-111890000D01*
X112620000Y-54950000D02*
X106940000Y-54950000D01*
X113481000Y-59254000D02*
X114056000Y-59254000D01*
X106940000Y-54950000D02*
X105979000Y-55911000D01*
X105979000Y-55911000D02*
X106940000Y-54950000D01*
X105979000Y-55911000D02*
X105979000Y-60479000D01*
X113121000Y-103771000D02*
X112320000Y-102970000D01*
X60550000Y-109160000D02*
X59322500Y-110388000D01*
X112620000Y-54950000D02*
X106940000Y-54950000D01*
X105979000Y-60479000D02*
X107030000Y-61530000D01*
X112266000Y-76179000D02*
X112266000Y-72850000D01*
X106940000Y-54950000D02*
X105979000Y-55911000D01*
X79230000Y-85250000D02*
X79230000Y-86940000D01*
X105979000Y-60479000D02*
X107030000Y-61530000D01*
X106940000Y-54950000D02*
X112620000Y-54950000D01*
X63732500Y-110680000D02*
X62731500Y-111681000D01*
X89480000Y-79220000D02*
X89120000Y-79580000D01*
X114056000Y-59254000D02*
X114220000Y-59090000D01*
X72919000Y-110420000D02*
X78130000Y-110420000D01*
X89480000Y-79220000D02*
X89120000Y-79580000D01*
X90360000Y-79220000D02*
X89480000Y-79220000D01*
X114220000Y-56550000D02*
X112620000Y-54950000D01*
X114056000Y-59254000D02*
X114220000Y-59090000D01*
X110310000Y-65570000D02*
X110310000Y-64012500D01*
X62550000Y-112230000D02*
X62130000Y-111810000D01*
X111821000Y-102471000D02*
X112320000Y-102970000D01*
X71535000Y-107860000D02*
X70960000Y-108435000D01*
X114220000Y-56550000D02*
X112620000Y-54950000D01*
X112266000Y-76179000D02*
X112266000Y-72850000D01*
X71980000Y-79220000D02*
X73200000Y-79220000D01*
X73200000Y-79220000D02*
X79230000Y-85250000D01*
X79600000Y-111890000D02*
X78130000Y-110420000D01*
X105979000Y-55911000D02*
X105979000Y-60479000D01*
X113121000Y-108189000D02*
X113121000Y-103771000D01*
X70960000Y-112615000D02*
X69865000Y-112615000D01*
X114220000Y-59090000D02*
X114220000Y-56550000D01*
X105979000Y-60479000D02*
X105979000Y-55911000D01*
X112320000Y-102970000D02*
X112320000Y-99960000D01*
X69865000Y-112615000D02*
X69530000Y-112280000D01*
X105979000Y-60479000D02*
X105979000Y-55911000D01*
X106940000Y-54950000D02*
X105979000Y-55911000D01*
X111821000Y-102471000D02*
X112320000Y-102970000D01*
X105979000Y-60479000D02*
X107030000Y-61530000D01*
X62130000Y-111681000D02*
X61409800Y-111681000D01*
X63732500Y-110680000D02*
X62731500Y-111681000D01*
%TO.N,+3V3*%
X71980000Y-80490000D02*
X72780000Y-80490000D01*
X66869000Y-114631000D02*
X67329000Y-114171000D01*
X81481000Y-80033000D02*
X83683000Y-77831000D01*
X71448000Y-80490000D02*
X70929000Y-79971000D01*
X56999800Y-114631000D02*
X57995200Y-114631000D01*
X65504000Y-108544000D02*
X66317500Y-107730000D01*
X109888000Y-57655000D02*
X110242000Y-57655000D01*
X70929000Y-78469000D02*
X104134000Y-78469000D01*
X61232800Y-114631000D02*
X64182800Y-111681000D01*
X83683000Y-77831000D02*
X81481000Y-80033000D01*
X57995200Y-114631000D02*
X58509000Y-114117000D01*
X59322500Y-113630000D02*
X58799000Y-113630000D01*
X82740000Y-105720000D02*
X86630000Y-101830000D01*
X78228000Y-90440000D02*
X88429000Y-90440000D01*
X109619000Y-97557000D02*
X109619000Y-100850000D01*
X109410000Y-100750000D02*
X106850000Y-100750000D01*
X58509000Y-114117000D02*
X58509000Y-113920000D01*
X76979000Y-89191000D02*
X81481000Y-89191000D01*
X70929000Y-78469000D02*
X90531000Y-78469000D01*
X61232800Y-114631000D02*
X64182800Y-111681000D01*
X88429000Y-90440000D02*
X88429000Y-82689000D01*
X76979000Y-84689000D02*
X76979000Y-89191000D01*
X59322500Y-113630000D02*
X58799000Y-113630000D01*
X104772000Y-77831000D02*
X83683000Y-77831000D01*
X86591000Y-78469000D02*
X90531000Y-78469000D01*
X76979000Y-89191000D02*
X81481000Y-89191000D01*
X64230200Y-111681000D02*
X65504000Y-110407000D01*
X86630000Y-115200000D02*
X86630000Y-109630000D01*
X110242500Y-57655000D02*
X110242000Y-57655000D01*
X109619000Y-100850000D02*
X109510000Y-100850000D01*
X67329000Y-114171000D02*
X67329000Y-111494000D01*
X56283000Y-95655000D02*
X56283000Y-113914000D01*
X58311000Y-107045000D02*
X59635800Y-105720000D01*
X64182800Y-111681000D02*
X64230200Y-111681000D01*
X109639000Y-102970000D02*
X109619000Y-102990000D01*
X71980000Y-80490000D02*
X71448000Y-80490000D01*
X58509000Y-103001000D02*
X59680000Y-101830000D01*
X109510000Y-100850000D02*
X109410000Y-100750000D01*
X60906500Y-114631000D02*
X61907500Y-113630000D01*
X76979000Y-84689000D02*
X76979000Y-89191000D01*
X109619000Y-111199000D02*
X110420000Y-112000000D01*
X65504000Y-110407000D02*
X65504000Y-108544000D01*
X85400000Y-79660000D02*
X86591000Y-78469000D01*
X58311000Y-114315000D02*
X58311000Y-107045000D01*
X83683000Y-77831000D02*
X104772000Y-77831000D01*
X66869000Y-114631000D02*
X67329000Y-114171000D01*
X109279000Y-58264000D02*
X109279000Y-73323800D01*
X60906500Y-114631000D02*
X61907500Y-113630000D01*
X100094000Y-78469000D02*
X107205000Y-85580000D01*
X67329000Y-114171000D02*
X67329000Y-111494000D01*
X109888000Y-57655000D02*
X109279000Y-58264000D01*
X100094000Y-78469000D02*
X107205000Y-85580000D01*
X76979000Y-89191000D02*
X78228000Y-90440000D01*
X81481000Y-89191000D02*
X81481000Y-80033000D01*
X85400000Y-79660000D02*
X86591000Y-78469000D01*
X104772000Y-77831000D02*
X109279000Y-73323800D01*
X105979000Y-76623800D02*
X105979000Y-66131000D01*
X81481000Y-80033000D02*
X81481000Y-89191000D01*
X90531000Y-78469000D02*
X106850000Y-94788000D01*
X88429000Y-82689000D02*
X85400000Y-79660000D01*
X109279000Y-73323800D02*
X109279000Y-58264000D01*
X56999800Y-114631000D02*
X61232800Y-114631000D01*
X81481000Y-80033000D02*
X83683000Y-77831000D01*
X90531000Y-78469000D02*
X109619000Y-97557000D01*
X72780000Y-80490000D02*
X76979000Y-84689000D01*
X71448000Y-80490000D02*
X56283000Y-95655000D01*
X109279000Y-73323800D02*
X109279000Y-58264000D01*
X105979000Y-66131000D02*
X107030000Y-65080000D01*
X71980000Y-80490000D02*
X72780000Y-80490000D01*
X81629000Y-114631000D02*
X86630000Y-109630000D01*
X59635800Y-105720000D02*
X82740000Y-105720000D01*
X109510000Y-100850000D02*
X109410000Y-100750000D01*
X58799000Y-113630000D02*
X58509000Y-113920000D01*
X58311000Y-114315000D02*
X58311000Y-107045000D01*
X109639000Y-102970000D02*
X109619000Y-102990000D01*
X110420000Y-102970000D02*
X109639000Y-102970000D01*
X64230200Y-111681000D02*
X65504000Y-110407000D01*
X109279000Y-58264000D02*
X109888000Y-57655000D01*
X104772000Y-77831000D02*
X109279000Y-73323800D01*
X56999800Y-114631000D02*
X66869000Y-114631000D01*
X106850000Y-94788000D02*
X106850000Y-100750000D01*
X81481000Y-89191000D02*
X76979000Y-89191000D01*
X56999800Y-114631000D02*
X66869000Y-114631000D01*
X56283000Y-113914000D02*
X56999800Y-114631000D01*
X59635800Y-105720000D02*
X82740000Y-105720000D01*
X71448000Y-80490000D02*
X70929000Y-79971000D01*
X70929000Y-79971000D02*
X70929000Y-78469000D01*
X65504000Y-110407000D02*
X65504000Y-108544000D01*
X56283000Y-113914000D02*
X56999800Y-114631000D01*
X83683000Y-77831000D02*
X104772000Y-77831000D01*
X76979000Y-89191000D02*
X78228000Y-90440000D01*
X71448000Y-80490000D02*
X56283000Y-95655000D01*
X109619000Y-102990000D02*
X109619000Y-111199000D01*
X109619000Y-102990000D02*
X109619000Y-111199000D01*
X56999800Y-114631000D02*
X61232800Y-114631000D01*
X109279000Y-73323800D02*
X104772000Y-77831000D01*
X57995200Y-114631000D02*
X58311000Y-114315000D01*
X91687500Y-115200000D02*
X86630000Y-115200000D01*
X64182800Y-111681000D02*
X64230200Y-111681000D01*
X109619000Y-100850000D02*
X109619000Y-102990000D01*
X78228000Y-90440000D02*
X88429000Y-90440000D01*
X56999800Y-114631000D02*
X81629000Y-114631000D01*
X105979000Y-66131000D02*
X107030000Y-65080000D01*
X81481000Y-89191000D02*
X81481000Y-80033000D01*
X57995200Y-114631000D02*
X58311000Y-114315000D01*
X70929000Y-78469000D02*
X100094000Y-78469000D01*
X105979000Y-76623800D02*
X105979000Y-66131000D01*
X104134000Y-78469000D02*
X105979000Y-76623800D01*
X86591000Y-78469000D02*
X90531000Y-78469000D01*
X56999800Y-114631000D02*
X60906500Y-114631000D01*
X88429000Y-82689000D02*
X85400000Y-79660000D01*
X109619000Y-97557000D02*
X109619000Y-100850000D01*
X58509000Y-114117000D02*
X58509000Y-113920000D01*
X90531000Y-78469000D02*
X106850000Y-94788000D01*
X70929000Y-78469000D02*
X104134000Y-78469000D01*
X58311000Y-107045000D02*
X59635800Y-105720000D01*
X56999800Y-114631000D02*
X81629000Y-114631000D01*
X58509000Y-113920000D02*
X58509000Y-103001000D01*
X58509000Y-113920000D02*
X58509000Y-103001000D01*
X109410000Y-100750000D02*
X106850000Y-100750000D01*
%TO.N,Net-(U2-BST)*%
X110430000Y-105970000D02*
X110420000Y-105980000D01*
X112518000Y-56617500D02*
X112370000Y-56470000D01*
X110430000Y-105970000D02*
X110420000Y-105980000D01*
X112518000Y-57655000D02*
X112518000Y-56617500D01*
X112518000Y-57655000D02*
X112518000Y-56617500D01*
X110430000Y-104490000D02*
X110430000Y-105970000D01*
%TO.N,Net-(U2-SW)*%
X114530000Y-85630000D02*
X114130000Y-85630000D01*
X112518000Y-58605000D02*
X113585000Y-58605000D01*
X111960000Y-81720000D02*
X111355000Y-82325000D01*
X112518000Y-58605000D02*
X113585000Y-58605000D01*
X114530000Y-85630000D02*
X114130000Y-85630000D01*
X114130000Y-85630000D02*
X114080000Y-85580000D01*
X112320000Y-105980000D02*
X112320000Y-107010000D01*
X112320000Y-107010000D02*
X111840000Y-107490000D01*
X114080000Y-85580000D02*
X111355000Y-85580000D01*
X113585000Y-58605000D02*
X113620000Y-58570000D01*
X114130000Y-85630000D02*
X114080000Y-85580000D01*
X111355000Y-82325000D02*
X111355000Y-85580000D01*
X112320000Y-107010000D02*
X111840000Y-107490000D01*
X111355000Y-82325000D02*
X111355000Y-85580000D01*
%TO.N,Net-(D1-A)*%
X115131000Y-87824000D02*
X111325000Y-91630000D01*
X111325000Y-94675000D02*
X111325000Y-91630000D01*
X115131000Y-65983500D02*
X115131000Y-87824000D01*
X112198000Y-63050000D02*
X115131000Y-65983500D01*
X115131000Y-87824000D02*
X111325000Y-91630000D01*
X112198000Y-63050000D02*
X115131000Y-65983500D01*
%TO.N,Net-(U1-USB_D-)*%
X75530000Y-108469000D02*
X75530000Y-107860000D01*
X74016800Y-109080000D02*
X74530000Y-108567000D01*
X74016800Y-109080000D02*
X74530000Y-108567000D01*
X74530000Y-108567000D02*
X74530000Y-107860000D01*
X74530000Y-108567000D02*
X74530000Y-107860000D01*
X74230000Y-94450000D02*
X74230000Y-94440000D01*
X74918800Y-109080000D02*
X75530000Y-108469000D01*
X74918800Y-109080000D02*
X75530000Y-108469000D01*
X73540000Y-109080000D02*
X74918800Y-109080000D01*
X74220000Y-94460000D02*
X74230000Y-94450000D01*
X71980000Y-94460000D02*
X74220000Y-94460000D01*
X74220000Y-94460000D02*
X74230000Y-94450000D01*
X73540000Y-109080000D02*
X74016800Y-109080000D01*
X74230000Y-94450000D02*
X74230000Y-94440000D01*
X75530000Y-108469000D02*
X75530000Y-107860000D01*
%TO.N,Net-(J1-CC2)*%
X70628200Y-113816000D02*
X69828200Y-113016000D01*
X69065000Y-113016000D02*
X68640200Y-112591000D01*
X67446800Y-108731000D02*
X67131000Y-108415000D01*
X66406200Y-106320000D02*
X62740000Y-106320000D01*
X70628200Y-113816000D02*
X69828200Y-113016000D01*
X71291800Y-113816000D02*
X70628200Y-113816000D01*
X68956000Y-109995000D02*
X67692200Y-108731000D01*
X71291800Y-113816000D02*
X70628200Y-113816000D01*
X77030000Y-108469000D02*
X75738800Y-109760000D01*
X69065000Y-113016000D02*
X68640200Y-112591000D01*
X67131000Y-108415000D02*
X67131000Y-107045000D01*
X67131000Y-107045000D02*
X66406200Y-106320000D01*
X75738800Y-109760000D02*
X74940000Y-109760000D01*
X73070000Y-111750000D02*
X73070000Y-112038000D01*
X77030000Y-108469000D02*
X75738800Y-109760000D01*
X68956000Y-111365000D02*
X68956000Y-109995000D01*
X73070000Y-112038000D02*
X71291800Y-113816000D01*
X69828200Y-113016000D02*
X69065000Y-113016000D01*
X67131000Y-107045000D02*
X66406200Y-106320000D01*
X68956000Y-109995000D02*
X67692200Y-108731000D01*
X77030000Y-107860000D02*
X77030000Y-108469000D01*
X68640200Y-111681000D02*
X68956000Y-111365000D01*
X68640200Y-112591000D02*
X68640200Y-111681000D01*
X67446800Y-108731000D02*
X67131000Y-108415000D01*
X57490000Y-111800000D02*
X57490000Y-110688000D01*
X69828200Y-113016000D02*
X69065000Y-113016000D01*
X75738800Y-109760000D02*
X74940000Y-109760000D01*
X66406200Y-106320000D02*
X62740000Y-106320000D01*
X73070000Y-111750000D02*
X73070000Y-112038000D01*
X57490000Y-110688000D02*
X57497500Y-110680000D01*
X67131000Y-108415000D02*
X67131000Y-107045000D01*
X67692200Y-108731000D02*
X67446800Y-108731000D01*
X68640200Y-111681000D02*
X68956000Y-111365000D01*
X57490000Y-111800000D02*
X57490000Y-110688000D01*
X73070000Y-112038000D02*
X71291800Y-113816000D01*
X67692200Y-108731000D02*
X67446800Y-108731000D01*
X68956000Y-111365000D02*
X68956000Y-109995000D01*
%TO.N,Net-(U1-USB_D+)*%
X76030000Y-106610000D02*
X76030000Y-107860000D01*
X72880000Y-95730000D02*
X73490000Y-95120000D01*
X71980000Y-95730000D02*
X72880000Y-95730000D01*
X75030000Y-107110000D02*
X75030000Y-107860000D01*
X75780000Y-106360000D02*
X75030000Y-107110000D01*
X75030000Y-107110000D02*
X75030000Y-107860000D01*
X72880000Y-95730000D02*
X73490000Y-95120000D01*
X75780000Y-106360000D02*
X76030000Y-106610000D01*
X76030000Y-106610000D02*
X76030000Y-107860000D01*
%TO.N,Net-(J1-CC1)*%
X74050000Y-107840000D02*
X74030000Y-107860000D01*
X59468800Y-99930000D02*
X59923100Y-99930000D01*
X60851100Y-100858000D02*
X60851100Y-103069000D01*
X61100100Y-104520000D02*
X75360000Y-104520000D01*
X60499000Y-103421000D02*
X60499000Y-103919000D01*
X59923100Y-99930000D02*
X60851100Y-100858000D01*
X60499000Y-103919000D02*
X61100100Y-104520000D01*
X57497500Y-101901000D02*
X59468800Y-99930000D01*
X74050000Y-107840000D02*
X74030000Y-107860000D01*
X61100100Y-104520000D02*
X75360000Y-104520000D01*
X74050000Y-106780000D02*
X74050000Y-107840000D01*
X57497500Y-107730000D02*
X57497500Y-101901000D01*
X59468800Y-99930000D02*
X59923100Y-99930000D01*
X57497500Y-107730000D02*
X57497500Y-101901000D01*
X57497500Y-101901000D02*
X59468800Y-99930000D01*
X60851100Y-103069000D02*
X60499000Y-103421000D01*
X60499000Y-103919000D02*
X61100100Y-104520000D01*
X60499000Y-103421000D02*
X60499000Y-103919000D01*
X59923100Y-99930000D02*
X60851100Y-100858000D01*
X60851100Y-103069000D02*
X60499000Y-103421000D01*
%TO.N,Net-(J3-Pin_3)*%
X68372500Y-113860000D02*
X68142500Y-113630000D01*
X87100000Y-106360000D02*
X82930000Y-106360000D01*
X69660000Y-113860000D02*
X68372500Y-113860000D01*
X91630000Y-101830000D02*
X87100000Y-106360000D01*
X87100000Y-106360000D02*
X82930000Y-106360000D01*
X68372500Y-113860000D02*
X68142500Y-113630000D01*
%TO.N,Net-(J4-Pin_1)*%
X98580000Y-109630000D02*
X98580000Y-108190000D01*
X98580000Y-115200000D02*
X98580000Y-109630000D01*
X91290000Y-98280000D02*
X81715000Y-98280000D01*
X98580000Y-108190000D02*
X95080000Y-104690000D01*
X93512500Y-115200000D02*
X98580000Y-115200000D01*
X98580000Y-109630000D02*
X98580000Y-108190000D01*
X81715000Y-98280000D02*
X81365000Y-97930000D01*
X81365000Y-97930000D02*
X81365000Y-96980000D01*
X81715000Y-98280000D02*
X81365000Y-97930000D01*
X81365000Y-97930000D02*
X81365000Y-96980000D01*
%TO.N,Net-(J5-Pin_3)*%
X91891000Y-98031100D02*
X91891000Y-98528900D01*
X89400000Y-97110000D02*
X90969900Y-97110000D01*
X91891000Y-98031100D02*
X91891000Y-98528900D01*
X90969900Y-97110000D02*
X91891000Y-98031100D01*
X91630000Y-109630000D02*
X91630000Y-106170000D01*
X83190000Y-95680000D02*
X82635000Y-96235000D01*
X91891000Y-98528900D02*
X91239900Y-99180000D01*
X91239900Y-99180000D02*
X82600000Y-99180000D01*
X90969900Y-97110000D02*
X91891000Y-98031100D01*
X91891000Y-98528900D02*
X91239900Y-99180000D01*
X89400000Y-97110000D02*
X90969900Y-97110000D01*
X82635000Y-96235000D02*
X82635000Y-96980000D01*
X91630000Y-106170000D02*
X93730000Y-104070000D01*
X91630000Y-106170000D02*
X93730000Y-104070000D01*
X83190000Y-95680000D02*
X82635000Y-96235000D01*
%TO.N,Net-(J6-Pin_8)*%
X71980000Y-88110000D02*
X72373800Y-88110000D01*
X75237600Y-90973800D02*
X75237600Y-95420700D01*
X72373800Y-88110000D02*
X75237600Y-90973800D01*
%TO.N,Net-(J6-Pin_9)*%
X73799700Y-90841300D02*
X72338400Y-89380000D01*
X72338400Y-89380000D02*
X71980000Y-89380000D01*
X73799700Y-91553800D02*
X73799700Y-90841300D01*
%TO.N,Net-(J6-Pin_7)*%
X80095000Y-97378200D02*
X77676800Y-99796400D01*
X80095000Y-96980000D02*
X80095000Y-97378200D01*
X77676800Y-99796400D02*
X76576900Y-99796400D01*
%TO.N,Net-(J6-Pin_6)*%
X78051800Y-98329400D02*
X78825000Y-97556200D01*
X72180000Y-101830000D02*
X73862500Y-103512500D01*
X73862500Y-103512500D02*
X74984700Y-103512500D01*
X78825000Y-97556200D02*
X78825000Y-96980000D01*
%TO.N,Net-(J7-Pin_4)*%
X90012000Y-84300000D02*
X105699000Y-99987000D01*
X105699000Y-99987000D02*
X105699000Y-107219000D01*
X105699000Y-99987000D02*
X105699000Y-107219000D01*
X89480000Y-84300000D02*
X90012000Y-84300000D01*
X90012000Y-84300000D02*
X105699000Y-99987000D01*
X105699000Y-107219000D02*
X106850000Y-108370000D01*
X105699000Y-107219000D02*
X106850000Y-108370000D01*
%TO.N,Net-(J7-Pin_5)*%
X71448000Y-81760000D02*
X70929000Y-82279000D01*
X56684000Y-112816000D02*
X57497500Y-113630000D01*
X56684000Y-96524000D02*
X56684000Y-112816000D01*
X71980000Y-81760000D02*
X71448000Y-81760000D01*
X71448000Y-81760000D02*
X70929000Y-82279000D01*
X56684000Y-96524000D02*
X56684000Y-112816000D01*
X71448000Y-81760000D02*
X56684000Y-96524000D01*
X56684000Y-112816000D02*
X57497500Y-113630000D01*
%TO.N,Net-(J7-Pin_6)*%
X91300000Y-95720000D02*
X89490000Y-95720000D01*
X89490000Y-95720000D02*
X89480000Y-95730000D01*
%TO.N,Net-(Q1-G)*%
X108340000Y-69940000D02*
X107030000Y-68630000D01*
X63732500Y-107898000D02*
X64904000Y-109070000D01*
X61907500Y-109555000D02*
X61907500Y-110680000D01*
X107040000Y-68630000D02*
X108410000Y-67260000D01*
X110322500Y-62100000D02*
X110322000Y-62100000D01*
X107030000Y-68630000D02*
X107040000Y-68630000D01*
X110270000Y-63030000D02*
X110270000Y-62152500D01*
X63732500Y-107730000D02*
X61907500Y-109555000D01*
X63732500Y-107730000D02*
X63732500Y-107898000D01*
X107040000Y-68630000D02*
X108410000Y-67260000D01*
X61907500Y-110680000D02*
X61907500Y-109555000D01*
X108340000Y-70370000D02*
X108340000Y-69940000D01*
X108340000Y-70370000D02*
X108340000Y-69940000D01*
X63732500Y-107898000D02*
X64904000Y-109070000D01*
X110270000Y-62152500D02*
X110270000Y-63030000D01*
X110270000Y-62152500D02*
X110322000Y-62100000D01*
%TO.N,Net-(U1-IO4)*%
X71980000Y-83030000D02*
X73470000Y-83030000D01*
X60550000Y-107630000D02*
X61807500Y-107630000D01*
X73470000Y-83030000D02*
X74540000Y-84100000D01*
X73470000Y-83030000D02*
X74540000Y-84100000D01*
X61807500Y-107630000D02*
X61907500Y-107730000D01*
%TO.N,Net-(TP5-Pin_1)*%
X64920000Y-113680000D02*
X66267500Y-113680000D01*
X107030000Y-72180000D02*
X107030000Y-73410000D01*
X90740000Y-80490000D02*
X89480000Y-80490000D01*
X66267500Y-113680000D02*
X66317500Y-113630000D01*
X66267500Y-113680000D02*
X66317500Y-113630000D01*
%TO.N,Net-(J6-Pin_3)*%
X72816400Y-93190000D02*
X71980000Y-93190000D01*
X64912499Y-93000000D02*
X72816000Y-93190000D01*
X73510000Y-92496400D02*
X72816400Y-93190000D01*
%TO.N,Net-(J6-Pin_4)*%
X67180000Y-97948700D02*
X67975000Y-97153700D01*
X76285000Y-90098700D02*
X76285000Y-96980000D01*
X68142500Y-106697100D02*
X68142500Y-107730000D01*
X67180000Y-101830000D02*
X67180000Y-97948700D01*
X74739100Y-88552800D02*
X76285000Y-90098700D01*
X67869900Y-106424500D02*
X68142500Y-106697100D01*
%TO.N,Net-(J6-Pin_5)*%
X76700000Y-98575000D02*
X70535000Y-98575000D01*
X69680000Y-99430000D02*
X69680000Y-101830000D01*
X70535000Y-98575000D02*
X69680000Y-99430000D01*
X77555000Y-97720000D02*
X76700000Y-98575000D01*
X77555000Y-96980000D02*
X77555000Y-97720000D01*
%TO.N,Net-(J7-Pin_3)*%
X90252200Y-83030000D02*
X89480000Y-83030000D01*
X104201900Y-96979700D02*
X90252200Y-83030000D01*
X104954900Y-106461500D02*
X104954900Y-103838600D01*
X98806200Y-97689900D02*
X98252200Y-97689900D01*
X104954900Y-103838600D02*
X98806200Y-97689900D01*
%TD*%
%TA.AperFunction,Conductor*%
%TO.N,GND*%
G36*
X116812539Y-44700185D02*
G01*
X116858294Y-44752989D01*
X116869500Y-44804500D01*
X116869500Y-124495500D01*
X116849815Y-124562539D01*
X116797011Y-124608294D01*
X116745500Y-124619500D01*
X56104500Y-124619500D01*
X56037461Y-124599815D01*
X55991706Y-124547011D01*
X55980500Y-124495500D01*
X55980500Y-119258711D01*
X59109500Y-119258711D01*
X59109500Y-119501288D01*
X59141161Y-119741785D01*
X59203947Y-119976104D01*
X59296773Y-120200205D01*
X59296776Y-120200212D01*
X59418064Y-120410289D01*
X59418066Y-120410292D01*
X59418067Y-120410293D01*
X59565733Y-120602736D01*
X59565739Y-120602743D01*
X59737256Y-120774260D01*
X59737262Y-120774265D01*
X59929711Y-120921936D01*
X60139788Y-121043224D01*
X60363900Y-121136054D01*
X60598211Y-121198838D01*
X60778586Y-121222584D01*
X60838711Y-121230500D01*
X60838712Y-121230500D01*
X61081289Y-121230500D01*
X61129388Y-121224167D01*
X61321789Y-121198838D01*
X61556100Y-121136054D01*
X61780212Y-121043224D01*
X61990289Y-120921936D01*
X62182738Y-120774265D01*
X62354265Y-120602738D01*
X62501936Y-120410289D01*
X62623224Y-120200212D01*
X62716054Y-119976100D01*
X62778838Y-119741789D01*
X62810500Y-119501288D01*
X62810500Y-119258712D01*
X62810500Y-119258711D01*
X109909500Y-119258711D01*
X109909500Y-119501288D01*
X109941161Y-119741785D01*
X110003947Y-119976104D01*
X110096773Y-120200205D01*
X110096776Y-120200212D01*
X110218064Y-120410289D01*
X110218066Y-120410292D01*
X110218067Y-120410293D01*
X110365733Y-120602736D01*
X110365739Y-120602743D01*
X110537256Y-120774260D01*
X110537262Y-120774265D01*
X110729711Y-120921936D01*
X110939788Y-121043224D01*
X111163900Y-121136054D01*
X111398211Y-121198838D01*
X111578586Y-121222584D01*
X111638711Y-121230500D01*
X111638712Y-121230500D01*
X111881289Y-121230500D01*
X111929388Y-121224167D01*
X112121789Y-121198838D01*
X112356100Y-121136054D01*
X112580212Y-121043224D01*
X112790289Y-120921936D01*
X112982738Y-120774265D01*
X113154265Y-120602738D01*
X113301936Y-120410289D01*
X113423224Y-120200212D01*
X113516054Y-119976100D01*
X113578838Y-119741789D01*
X113610500Y-119501288D01*
X113610500Y-119258712D01*
X113578838Y-119018211D01*
X113516054Y-118783900D01*
X113423224Y-118559788D01*
X113301936Y-118349711D01*
X113154265Y-118157262D01*
X113154260Y-118157256D01*
X112982743Y-117985739D01*
X112982736Y-117985733D01*
X112790293Y-117838067D01*
X112790292Y-117838066D01*
X112790289Y-117838064D01*
X112580212Y-117716776D01*
X112580205Y-117716773D01*
X112356104Y-117623947D01*
X112121785Y-117561161D01*
X111881289Y-117529500D01*
X111881288Y-117529500D01*
X111638712Y-117529500D01*
X111638711Y-117529500D01*
X111398214Y-117561161D01*
X111163895Y-117623947D01*
X110939794Y-117716773D01*
X110939785Y-117716777D01*
X110729706Y-117838067D01*
X110537263Y-117985733D01*
X110537256Y-117985739D01*
X110365739Y-118157256D01*
X110365733Y-118157263D01*
X110218067Y-118349706D01*
X110096777Y-118559785D01*
X110096773Y-118559794D01*
X110003947Y-118783895D01*
X109941161Y-119018214D01*
X109909500Y-119258711D01*
X62810500Y-119258711D01*
X62778838Y-119018211D01*
X62716054Y-118783900D01*
X62623224Y-118559788D01*
X62501936Y-118349711D01*
X62354265Y-118157262D01*
X62354260Y-118157256D01*
X62182743Y-117985739D01*
X62182736Y-117985733D01*
X61990293Y-117838067D01*
X61990292Y-117838066D01*
X61990289Y-117838064D01*
X61780212Y-117716776D01*
X61780205Y-117716773D01*
X61556104Y-117623947D01*
X61321785Y-117561161D01*
X61081289Y-117529500D01*
X61081288Y-117529500D01*
X60838712Y-117529500D01*
X60838711Y-117529500D01*
X60598214Y-117561161D01*
X60363895Y-117623947D01*
X60139794Y-117716773D01*
X60139785Y-117716777D01*
X59929706Y-117838067D01*
X59737263Y-117985733D01*
X59737256Y-117985739D01*
X59565739Y-118157256D01*
X59565733Y-118157263D01*
X59418067Y-118349706D01*
X59296777Y-118559785D01*
X59296773Y-118559794D01*
X59203947Y-118783895D01*
X59141161Y-119018214D01*
X59109500Y-119258711D01*
X55980500Y-119258711D01*
X55980500Y-114335866D01*
X56000185Y-114268827D01*
X56052989Y-114223072D01*
X56122147Y-114213128D01*
X56185703Y-114242153D01*
X56192168Y-114248173D01*
X56753596Y-114809757D01*
X56753595Y-114809757D01*
X56759329Y-114815493D01*
X56759340Y-114815511D01*
X56786635Y-114842806D01*
X56815256Y-114871435D01*
X56815258Y-114871436D01*
X56815267Y-114871445D01*
X56815310Y-114871478D01*
X56815839Y-114871777D01*
X56849538Y-114891233D01*
X56883773Y-114911005D01*
X56883775Y-114911005D01*
X56883804Y-114911018D01*
X56883807Y-114911018D01*
X56883811Y-114911021D01*
X56920603Y-114920879D01*
X56960196Y-114931495D01*
X56960199Y-114931495D01*
X56960236Y-114931500D01*
X56996161Y-114931500D01*
X57039320Y-114931506D01*
X57039323Y-114931505D01*
X57047520Y-114931506D01*
X57047625Y-114931500D01*
X57945676Y-114931500D01*
X57946141Y-114931501D01*
X57949606Y-114931514D01*
X57949718Y-114931547D01*
X57952148Y-114931676D01*
X57952687Y-114931651D01*
X57958513Y-114931511D01*
X57990925Y-114931500D01*
X57990968Y-114931500D01*
X81668560Y-114931500D01*
X81668562Y-114931500D01*
X81744989Y-114911021D01*
X81813511Y-114871460D01*
X81869460Y-114815511D01*
X85846505Y-110838464D01*
X85907826Y-110804981D01*
X85945761Y-110802689D01*
X85975734Y-110805500D01*
X86205500Y-110805500D01*
X86272539Y-110825185D01*
X86318294Y-110877989D01*
X86329500Y-110929500D01*
X86329500Y-115160438D01*
X86329500Y-115239562D01*
X86343152Y-115290513D01*
X86349979Y-115315990D01*
X86349982Y-115315995D01*
X86389535Y-115384504D01*
X86389539Y-115384509D01*
X86389540Y-115384511D01*
X86445489Y-115440460D01*
X86445491Y-115440461D01*
X86445495Y-115440464D01*
X86514004Y-115480017D01*
X86514011Y-115480021D01*
X86590438Y-115500500D01*
X91228824Y-115500500D01*
X91295863Y-115520185D01*
X91316505Y-115536819D01*
X91380186Y-115600500D01*
X91494314Y-115666392D01*
X91621608Y-115700500D01*
X91621610Y-115700500D01*
X91753390Y-115700500D01*
X91753392Y-115700500D01*
X91880686Y-115666392D01*
X91994814Y-115600500D01*
X92088000Y-115507314D01*
X92153892Y-115393186D01*
X92188000Y-115265892D01*
X92188000Y-115134108D01*
X92153892Y-115006814D01*
X92088000Y-114892686D01*
X91994814Y-114799500D01*
X91937750Y-114766554D01*
X91880687Y-114733608D01*
X91817039Y-114716554D01*
X91753392Y-114699500D01*
X91621608Y-114699500D01*
X91494312Y-114733608D01*
X91380186Y-114799500D01*
X91380183Y-114799502D01*
X91316505Y-114863181D01*
X91255182Y-114896666D01*
X91228824Y-114899500D01*
X87054500Y-114899500D01*
X86987461Y-114879815D01*
X86941706Y-114827011D01*
X86930500Y-114775500D01*
X86930500Y-110929500D01*
X86950185Y-110862461D01*
X87002989Y-110816706D01*
X87054500Y-110805500D01*
X87284270Y-110805500D01*
X87314699Y-110802646D01*
X87314701Y-110802646D01*
X87393707Y-110775000D01*
X87442882Y-110757793D01*
X87552150Y-110677150D01*
X87632793Y-110567882D01*
X87660900Y-110487557D01*
X87677646Y-110439701D01*
X87677646Y-110439699D01*
X87680500Y-110409269D01*
X87680500Y-110400323D01*
X87700185Y-110333284D01*
X87752989Y-110287529D01*
X87822147Y-110277585D01*
X87885703Y-110306610D01*
X87914985Y-110344028D01*
X87975379Y-110462557D01*
X88100272Y-110634459D01*
X88100276Y-110634464D01*
X88250535Y-110784723D01*
X88250540Y-110784727D01*
X88422442Y-110909620D01*
X88611782Y-111006095D01*
X88813871Y-111071757D01*
X88880000Y-111082231D01*
X88880000Y-110034145D01*
X88946657Y-110072630D01*
X89067465Y-110105000D01*
X89192535Y-110105000D01*
X89313343Y-110072630D01*
X89380000Y-110034145D01*
X89380000Y-111082230D01*
X89446126Y-111071757D01*
X89446129Y-111071757D01*
X89648217Y-111006095D01*
X89837557Y-110909620D01*
X90009459Y-110784727D01*
X90009464Y-110784723D01*
X90159723Y-110634464D01*
X90159727Y-110634459D01*
X90284620Y-110462557D01*
X90381095Y-110273217D01*
X90420759Y-110151144D01*
X90460196Y-110093469D01*
X90524555Y-110066270D01*
X90593401Y-110078184D01*
X90644877Y-110125428D01*
X90653251Y-110142009D01*
X90699057Y-110252596D01*
X90814024Y-110424657D01*
X90960342Y-110570975D01*
X90960345Y-110570977D01*
X91132402Y-110685941D01*
X91323580Y-110765130D01*
X91512187Y-110802646D01*
X91526530Y-110805499D01*
X91526534Y-110805500D01*
X91526535Y-110805500D01*
X91733466Y-110805500D01*
X91733467Y-110805499D01*
X91936420Y-110765130D01*
X92127598Y-110685941D01*
X92299655Y-110570977D01*
X92445977Y-110424655D01*
X92560941Y-110252598D01*
X92640130Y-110061420D01*
X92680500Y-109858465D01*
X92680500Y-109401535D01*
X92640130Y-109198580D01*
X92560941Y-109007402D01*
X92445977Y-108835345D01*
X92445975Y-108835342D01*
X92299657Y-108689024D01*
X92127595Y-108574057D01*
X92007047Y-108524124D01*
X91952643Y-108480282D01*
X91930579Y-108413988D01*
X91930500Y-108409563D01*
X91930500Y-106345832D01*
X91950185Y-106278793D01*
X91966814Y-106258156D01*
X93618151Y-104606818D01*
X93679474Y-104573334D01*
X93705832Y-104570500D01*
X93795890Y-104570500D01*
X93795892Y-104570500D01*
X93923186Y-104536392D01*
X94037314Y-104470500D01*
X94130500Y-104377314D01*
X94196392Y-104263186D01*
X94230500Y-104135892D01*
X94230500Y-104004108D01*
X94196392Y-103876814D01*
X94130500Y-103762686D01*
X94109995Y-103742181D01*
X94076510Y-103680858D01*
X94081494Y-103611166D01*
X94123366Y-103555233D01*
X94188830Y-103530816D01*
X94197676Y-103530500D01*
X97027067Y-103530500D01*
X97094106Y-103550185D01*
X97114748Y-103566818D01*
X101500664Y-107952684D01*
X101534149Y-108014007D01*
X101529165Y-108083699D01*
X101487294Y-108139633D01*
X101421830Y-108164050D01*
X101393584Y-108162839D01*
X101330000Y-108152767D01*
X101330000Y-109196988D01*
X101272993Y-109164075D01*
X101145826Y-109130000D01*
X101014174Y-109130000D01*
X100887007Y-109164075D01*
X100830000Y-109196988D01*
X100830000Y-108152768D01*
X100829999Y-108152768D01*
X100763875Y-108163241D01*
X100561784Y-108228903D01*
X100372442Y-108325379D01*
X100200540Y-108450272D01*
X100200535Y-108450276D01*
X100050276Y-108600535D01*
X100050272Y-108600540D01*
X99925379Y-108772442D01*
X99864985Y-108890971D01*
X99817010Y-108941767D01*
X99749189Y-108958562D01*
X99683054Y-108936024D01*
X99639603Y-108881309D01*
X99630500Y-108834676D01*
X99630500Y-108825730D01*
X99627646Y-108795300D01*
X99627646Y-108795298D01*
X99587680Y-108681084D01*
X99582793Y-108667118D01*
X99502150Y-108557850D01*
X99392882Y-108477207D01*
X99392880Y-108477206D01*
X99264700Y-108432353D01*
X99234270Y-108429500D01*
X99234266Y-108429500D01*
X99004500Y-108429500D01*
X98937461Y-108409815D01*
X98891706Y-108357011D01*
X98880500Y-108305500D01*
X98880500Y-108150439D01*
X98880500Y-108150438D01*
X98860021Y-108074011D01*
X98848843Y-108054650D01*
X98820464Y-108005495D01*
X98820458Y-108005487D01*
X95616819Y-104801848D01*
X95583334Y-104740525D01*
X95580500Y-104714167D01*
X95580500Y-104624110D01*
X95580500Y-104624108D01*
X95546392Y-104496814D01*
X95480500Y-104382686D01*
X95387314Y-104289500D01*
X95330250Y-104256554D01*
X95273187Y-104223608D01*
X95184388Y-104199815D01*
X95145892Y-104189500D01*
X95014108Y-104189500D01*
X94886812Y-104223608D01*
X94772686Y-104289500D01*
X94772683Y-104289502D01*
X94679502Y-104382683D01*
X94679500Y-104382686D01*
X94613608Y-104496812D01*
X94580735Y-104619500D01*
X94579500Y-104624108D01*
X94579500Y-104755892D01*
X94583544Y-104770985D01*
X94613608Y-104883187D01*
X94638797Y-104926814D01*
X94679500Y-104997314D01*
X94772686Y-105090500D01*
X94886814Y-105156392D01*
X95014108Y-105190500D01*
X95014110Y-105190500D01*
X95104167Y-105190500D01*
X95171206Y-105210185D01*
X95191848Y-105226819D01*
X98182848Y-108217819D01*
X98216333Y-108279142D01*
X98211349Y-108348834D01*
X98169477Y-108404767D01*
X98104013Y-108429184D01*
X98095167Y-108429500D01*
X97925730Y-108429500D01*
X97895300Y-108432353D01*
X97895298Y-108432353D01*
X97767119Y-108477206D01*
X97767117Y-108477207D01*
X97657850Y-108557850D01*
X97577207Y-108667117D01*
X97577206Y-108667119D01*
X97532353Y-108795298D01*
X97532353Y-108795300D01*
X97529500Y-108825730D01*
X97529500Y-110434269D01*
X97532353Y-110464699D01*
X97532353Y-110464701D01*
X97576727Y-110591511D01*
X97577207Y-110592882D01*
X97657850Y-110702150D01*
X97767118Y-110782793D01*
X97809845Y-110797744D01*
X97895299Y-110827646D01*
X97925730Y-110830500D01*
X97925734Y-110830500D01*
X98155500Y-110830500D01*
X98222539Y-110850185D01*
X98268294Y-110902989D01*
X98279500Y-110954500D01*
X98279500Y-114775500D01*
X98259815Y-114842539D01*
X98207011Y-114888294D01*
X98155500Y-114899500D01*
X93971176Y-114899500D01*
X93904137Y-114879815D01*
X93883495Y-114863181D01*
X93819816Y-114799502D01*
X93819814Y-114799500D01*
X93762750Y-114766554D01*
X93705687Y-114733608D01*
X93642039Y-114716554D01*
X93578392Y-114699500D01*
X93446608Y-114699500D01*
X93319312Y-114733608D01*
X93205186Y-114799500D01*
X93205183Y-114799502D01*
X93112002Y-114892683D01*
X93112000Y-114892686D01*
X93046108Y-115006812D01*
X93012000Y-115134108D01*
X93012000Y-115265891D01*
X93046108Y-115393187D01*
X93073402Y-115440460D01*
X93112000Y-115507314D01*
X93205186Y-115600500D01*
X93319314Y-115666392D01*
X93446608Y-115700500D01*
X93446610Y-115700500D01*
X93578390Y-115700500D01*
X93578392Y-115700500D01*
X93705686Y-115666392D01*
X93819814Y-115600500D01*
X93883495Y-115536819D01*
X93944818Y-115503334D01*
X93971176Y-115500500D01*
X98619560Y-115500500D01*
X98619562Y-115500500D01*
X98695989Y-115480021D01*
X98764511Y-115440460D01*
X98820460Y-115384511D01*
X98860021Y-115315989D01*
X98880500Y-115239562D01*
X98880500Y-110954500D01*
X98900185Y-110887461D01*
X98952989Y-110841706D01*
X99004500Y-110830500D01*
X99234270Y-110830500D01*
X99264699Y-110827646D01*
X99264701Y-110827646D01*
X99336145Y-110802646D01*
X99392882Y-110782793D01*
X99502150Y-110702150D01*
X99582793Y-110592882D01*
X99619648Y-110487557D01*
X99627646Y-110464701D01*
X99627646Y-110464699D01*
X99630500Y-110434269D01*
X99630500Y-110425323D01*
X99650185Y-110358284D01*
X99702989Y-110312529D01*
X99772147Y-110302585D01*
X99835703Y-110331610D01*
X99864985Y-110369028D01*
X99925379Y-110487557D01*
X100050272Y-110659459D01*
X100050276Y-110659464D01*
X100200535Y-110809723D01*
X100200540Y-110809727D01*
X100372442Y-110934620D01*
X100561782Y-111031095D01*
X100763871Y-111096757D01*
X100830000Y-111107231D01*
X100830000Y-110063012D01*
X100887007Y-110095925D01*
X101014174Y-110130000D01*
X101145826Y-110130000D01*
X101272993Y-110095925D01*
X101330000Y-110063012D01*
X101330000Y-111107230D01*
X101396126Y-111096757D01*
X101396129Y-111096757D01*
X101598217Y-111031095D01*
X101787557Y-110934620D01*
X101959459Y-110809727D01*
X101959464Y-110809723D01*
X102109723Y-110659464D01*
X102109727Y-110659459D01*
X102234620Y-110487557D01*
X102331095Y-110298217D01*
X102396757Y-110096130D01*
X102396757Y-110096127D01*
X102430000Y-109886246D01*
X102430000Y-109880000D01*
X101513012Y-109880000D01*
X101545925Y-109822993D01*
X101580000Y-109695826D01*
X101580000Y-109564174D01*
X101545925Y-109437007D01*
X101513012Y-109380000D01*
X102430000Y-109380000D01*
X102430000Y-109373753D01*
X102397158Y-109166399D01*
X102406113Y-109097106D01*
X102451109Y-109043654D01*
X102517860Y-109023014D01*
X102585174Y-109041739D01*
X102607311Y-109059318D01*
X105793539Y-112245510D01*
X105793540Y-112245511D01*
X105849489Y-112301460D01*
X105918011Y-112341021D01*
X105918013Y-112341021D01*
X105918014Y-112341022D01*
X105925425Y-112343007D01*
X105925427Y-112343009D01*
X105938473Y-112346504D01*
X105938486Y-112346507D01*
X105938490Y-112346508D01*
X105994438Y-112361500D01*
X105994439Y-112361500D01*
X106179432Y-112361500D01*
X106246471Y-112381185D01*
X106292226Y-112433989D01*
X106302170Y-112503147D01*
X106273145Y-112566703D01*
X106248324Y-112588601D01*
X106227017Y-112602837D01*
X106180342Y-112634024D01*
X106034024Y-112780342D01*
X105919058Y-112952403D01*
X105839870Y-113143579D01*
X105839868Y-113143587D01*
X105799500Y-113346530D01*
X105799500Y-113553469D01*
X105839868Y-113756412D01*
X105839870Y-113756420D01*
X105916533Y-113941501D01*
X105919059Y-113947598D01*
X105954414Y-114000511D01*
X106034024Y-114119657D01*
X106180342Y-114265975D01*
X106180345Y-114265977D01*
X106352402Y-114380941D01*
X106543580Y-114460130D01*
X106746530Y-114500499D01*
X106746534Y-114500500D01*
X106746535Y-114500500D01*
X106953466Y-114500500D01*
X106953467Y-114500499D01*
X107156420Y-114460130D01*
X107347598Y-114380941D01*
X107519655Y-114265977D01*
X107665977Y-114119655D01*
X107780941Y-113947598D01*
X107860130Y-113756420D01*
X107900500Y-113553465D01*
X107900500Y-113358833D01*
X107920185Y-113291794D01*
X107972989Y-113246039D01*
X108042147Y-113236095D01*
X108100203Y-113262608D01*
X108101044Y-113261514D01*
X108107486Y-113266457D01*
X108107489Y-113266460D01*
X108107492Y-113266461D01*
X108107495Y-113266464D01*
X108158659Y-113296003D01*
X108176011Y-113306021D01*
X108252438Y-113326500D01*
X108252440Y-113326500D01*
X110944560Y-113326500D01*
X110944562Y-113326500D01*
X111020989Y-113306021D01*
X111089511Y-113266460D01*
X111145460Y-113210511D01*
X111357478Y-112998492D01*
X111418795Y-112965011D01*
X111488487Y-112969995D01*
X111532835Y-112998496D01*
X111601654Y-113067315D01*
X111750875Y-113159356D01*
X111750880Y-113159358D01*
X111917302Y-113214505D01*
X111917309Y-113214506D01*
X112020019Y-113224999D01*
X112570000Y-113224999D01*
X112619972Y-113224999D01*
X112619986Y-113224998D01*
X112722697Y-113214505D01*
X112889119Y-113159358D01*
X112889124Y-113159356D01*
X113038345Y-113067315D01*
X113162315Y-112943345D01*
X113254356Y-112794124D01*
X113254358Y-112794119D01*
X113309505Y-112627697D01*
X113309506Y-112627690D01*
X113319999Y-112524986D01*
X113320000Y-112524973D01*
X113320000Y-112250000D01*
X112570000Y-112250000D01*
X112570000Y-113224999D01*
X112020019Y-113224999D01*
X112069999Y-113224998D01*
X112070000Y-113224998D01*
X112070000Y-111750000D01*
X112570000Y-111750000D01*
X113319999Y-111750000D01*
X113319999Y-111475028D01*
X113319998Y-111475013D01*
X113309505Y-111372302D01*
X113254358Y-111205880D01*
X113254356Y-111205875D01*
X113162315Y-111056654D01*
X113038345Y-110932684D01*
X112889124Y-110840643D01*
X112889119Y-110840641D01*
X112722697Y-110785494D01*
X112722690Y-110785493D01*
X112619986Y-110775000D01*
X112570000Y-110775000D01*
X112570000Y-111750000D01*
X112070000Y-111750000D01*
X112070000Y-110775000D01*
X112069999Y-110774999D01*
X112020029Y-110775000D01*
X112020011Y-110775001D01*
X111917302Y-110785494D01*
X111750880Y-110840641D01*
X111750875Y-110840643D01*
X111710597Y-110865488D01*
X111643204Y-110883928D01*
X111576541Y-110863005D01*
X111531771Y-110809363D01*
X111521500Y-110759949D01*
X111521500Y-108084413D01*
X111541185Y-108017374D01*
X111593989Y-107971619D01*
X111663147Y-107961675D01*
X111677571Y-107964633D01*
X111774108Y-107990500D01*
X111774111Y-107990500D01*
X111905890Y-107990500D01*
X111905892Y-107990500D01*
X112033186Y-107956392D01*
X112147314Y-107890500D01*
X112240500Y-107797314D01*
X112306392Y-107683186D01*
X112340500Y-107555892D01*
X112340500Y-107465832D01*
X112360185Y-107398793D01*
X112376814Y-107378156D01*
X112560460Y-107194511D01*
X112600022Y-107125988D01*
X112620500Y-107049562D01*
X112620500Y-107002595D01*
X112640185Y-106935556D01*
X112692989Y-106889801D01*
X112703523Y-106885561D01*
X112782882Y-106857793D01*
X112892150Y-106777150D01*
X112972793Y-106667882D01*
X112995219Y-106603790D01*
X113017646Y-106539701D01*
X113017646Y-106539699D01*
X113020500Y-106509269D01*
X113020500Y-105450730D01*
X113017646Y-105420300D01*
X113017646Y-105420298D01*
X112972793Y-105292119D01*
X112972792Y-105292117D01*
X112951603Y-105263407D01*
X112892150Y-105182850D01*
X112782882Y-105102207D01*
X112782880Y-105102206D01*
X112654700Y-105057353D01*
X112624270Y-105054500D01*
X112624266Y-105054500D01*
X112015734Y-105054500D01*
X112015730Y-105054500D01*
X111985300Y-105057353D01*
X111985298Y-105057353D01*
X111857119Y-105102206D01*
X111857117Y-105102207D01*
X111747849Y-105182851D01*
X111745269Y-105186347D01*
X111741464Y-105189235D01*
X111741279Y-105189421D01*
X111741253Y-105189395D01*
X111689621Y-105228597D01*
X111619964Y-105234054D01*
X111558415Y-105200986D01*
X111524515Y-105139891D01*
X111521500Y-105112712D01*
X111521500Y-104210050D01*
X111541185Y-104143011D01*
X111593989Y-104097256D01*
X111663147Y-104087312D01*
X111710598Y-104104512D01*
X111750874Y-104129355D01*
X111750880Y-104129358D01*
X111917302Y-104184505D01*
X111917309Y-104184506D01*
X112020019Y-104194999D01*
X112570000Y-104194999D01*
X112619972Y-104194999D01*
X112619986Y-104194998D01*
X112722697Y-104184505D01*
X112889119Y-104129358D01*
X112889124Y-104129356D01*
X113038345Y-104037315D01*
X113162315Y-103913345D01*
X113254356Y-103764124D01*
X113254358Y-103764119D01*
X113309505Y-103597697D01*
X113309506Y-103597690D01*
X113319999Y-103494986D01*
X113320000Y-103494973D01*
X113320000Y-103220000D01*
X112570000Y-103220000D01*
X112570000Y-104194999D01*
X112020019Y-104194999D01*
X112069999Y-104194998D01*
X112070000Y-104194998D01*
X112070000Y-102720000D01*
X112570000Y-102720000D01*
X113319999Y-102720000D01*
X113319999Y-102445028D01*
X113319998Y-102445013D01*
X113309505Y-102342302D01*
X113254358Y-102175880D01*
X113254356Y-102175875D01*
X113162315Y-102026654D01*
X113038345Y-101902684D01*
X112889124Y-101810643D01*
X112889119Y-101810641D01*
X112722697Y-101755494D01*
X112722690Y-101755493D01*
X112619986Y-101745000D01*
X112570000Y-101745000D01*
X112570000Y-102720000D01*
X112070000Y-102720000D01*
X112070000Y-101745000D01*
X112069999Y-101744999D01*
X112020029Y-101745000D01*
X112020011Y-101745001D01*
X111917302Y-101755494D01*
X111750880Y-101810641D01*
X111750875Y-101810643D01*
X111710597Y-101835488D01*
X111643204Y-101853928D01*
X111576541Y-101833005D01*
X111531771Y-101779363D01*
X111521500Y-101729949D01*
X111521500Y-101200050D01*
X111541185Y-101133011D01*
X111593989Y-101087256D01*
X111663147Y-101077312D01*
X111710598Y-101094512D01*
X111750874Y-101119355D01*
X111750880Y-101119358D01*
X111917302Y-101174505D01*
X111917309Y-101174506D01*
X112020019Y-101184999D01*
X112570000Y-101184999D01*
X112619972Y-101184999D01*
X112619986Y-101184998D01*
X112722697Y-101174505D01*
X112889119Y-101119358D01*
X112889124Y-101119356D01*
X113038345Y-101027315D01*
X113162315Y-100903345D01*
X113254356Y-100754124D01*
X113254358Y-100754119D01*
X113309505Y-100587697D01*
X113309506Y-100587690D01*
X113319999Y-100484986D01*
X113320000Y-100484973D01*
X113320000Y-100210000D01*
X112570000Y-100210000D01*
X112570000Y-101184999D01*
X112020019Y-101184999D01*
X112069999Y-101184998D01*
X112070000Y-101184998D01*
X112070000Y-99710000D01*
X112570000Y-99710000D01*
X113319999Y-99710000D01*
X113319999Y-99435028D01*
X113319998Y-99435013D01*
X113309505Y-99332302D01*
X113254358Y-99165880D01*
X113254356Y-99165875D01*
X113162315Y-99016654D01*
X113038345Y-98892684D01*
X112889124Y-98800643D01*
X112889119Y-98800641D01*
X112722697Y-98745494D01*
X112722690Y-98745493D01*
X112619986Y-98735000D01*
X112570000Y-98735000D01*
X112570000Y-99710000D01*
X112070000Y-99710000D01*
X112070000Y-98735000D01*
X112069999Y-98734999D01*
X112020029Y-98735000D01*
X112020011Y-98735001D01*
X111917302Y-98745494D01*
X111750880Y-98800641D01*
X111750875Y-98800643D01*
X111710597Y-98825488D01*
X111643204Y-98843928D01*
X111576541Y-98823005D01*
X111531771Y-98769363D01*
X111521500Y-98719949D01*
X111521500Y-98552339D01*
X111521500Y-98552338D01*
X111501021Y-98475911D01*
X111501017Y-98475904D01*
X111461464Y-98407395D01*
X111461458Y-98407387D01*
X110756819Y-97702748D01*
X110723334Y-97641425D01*
X110720500Y-97615067D01*
X110720500Y-95077676D01*
X110740185Y-95010637D01*
X110792989Y-94964882D01*
X110862147Y-94954938D01*
X110925703Y-94983963D01*
X110932181Y-94989995D01*
X111017686Y-95075500D01*
X111131814Y-95141392D01*
X111259108Y-95175500D01*
X111259110Y-95175500D01*
X111390890Y-95175500D01*
X111390892Y-95175500D01*
X111518186Y-95141392D01*
X111632314Y-95075500D01*
X111725500Y-94982314D01*
X111791392Y-94868186D01*
X111825500Y-94740892D01*
X111825500Y-94609108D01*
X111791392Y-94481814D01*
X111725500Y-94367686D01*
X111661818Y-94304004D01*
X111628334Y-94242680D01*
X111625500Y-94216323D01*
X111625500Y-92854500D01*
X111645185Y-92787461D01*
X111697989Y-92741706D01*
X111749500Y-92730500D01*
X112379270Y-92730500D01*
X112409699Y-92727646D01*
X112409701Y-92727646D01*
X112493931Y-92698172D01*
X112537882Y-92682793D01*
X112647150Y-92602150D01*
X112727793Y-92492882D01*
X112763880Y-92389752D01*
X112772646Y-92364701D01*
X112772646Y-92364699D01*
X112775500Y-92334269D01*
X112775500Y-90925730D01*
X112772646Y-90895300D01*
X112772646Y-90895298D01*
X112724724Y-90758348D01*
X112727655Y-90757322D01*
X112716891Y-90704346D01*
X112742204Y-90639223D01*
X112752753Y-90627216D01*
X115371460Y-88008511D01*
X115379831Y-87994012D01*
X115411021Y-87939989D01*
X115431500Y-87863562D01*
X115431500Y-65983526D01*
X115431503Y-65943964D01*
X115431500Y-65943952D01*
X115431500Y-65943938D01*
X115420329Y-65902249D01*
X115411816Y-65870469D01*
X115411163Y-65867759D01*
X115411021Y-65867514D01*
X115411021Y-65867511D01*
X115408652Y-65863408D01*
X115389653Y-65830499D01*
X115389649Y-65830492D01*
X115372147Y-65800172D01*
X115371549Y-65799107D01*
X115371463Y-65798992D01*
X115342179Y-65769708D01*
X115342174Y-65769698D01*
X115342172Y-65769701D01*
X113105644Y-63532791D01*
X113072166Y-63471467D01*
X113077156Y-63401776D01*
X113081934Y-63390658D01*
X113125573Y-63301392D01*
X113135500Y-63233260D01*
X113135500Y-62866739D01*
X113125573Y-62798608D01*
X113125573Y-62798607D01*
X113074198Y-62693517D01*
X113074196Y-62693515D01*
X113074196Y-62693514D01*
X112991485Y-62610803D01*
X112886391Y-62559426D01*
X112818261Y-62549500D01*
X112818260Y-62549500D01*
X111785500Y-62549500D01*
X111718461Y-62529815D01*
X111672706Y-62477011D01*
X111661500Y-62425500D01*
X111661500Y-60447233D01*
X111681185Y-60380194D01*
X111733989Y-60334439D01*
X111803147Y-60324495D01*
X111820095Y-60328157D01*
X111902504Y-60352099D01*
X111902510Y-60352100D01*
X111939350Y-60354999D01*
X111939366Y-60355000D01*
X112267500Y-60355000D01*
X112767500Y-60355000D01*
X113095634Y-60355000D01*
X113095649Y-60354999D01*
X113132489Y-60352100D01*
X113132495Y-60352099D01*
X113290193Y-60306283D01*
X113290196Y-60306282D01*
X113431552Y-60222685D01*
X113431561Y-60222678D01*
X113547678Y-60106561D01*
X113547685Y-60106552D01*
X113631281Y-59965198D01*
X113677100Y-59807486D01*
X113677295Y-59805001D01*
X113677295Y-59805000D01*
X112767500Y-59805000D01*
X112767500Y-60355000D01*
X112267500Y-60355000D01*
X112267500Y-59679000D01*
X112287185Y-59611961D01*
X112339989Y-59566206D01*
X112391500Y-59555000D01*
X112517500Y-59555000D01*
X112517500Y-59429000D01*
X112537185Y-59361961D01*
X112589989Y-59316206D01*
X112641500Y-59305000D01*
X113677295Y-59305000D01*
X113677295Y-59304998D01*
X113677100Y-59302511D01*
X113677099Y-59302508D01*
X113650525Y-59211040D01*
X113650724Y-59141170D01*
X113688666Y-59082500D01*
X113737505Y-59056670D01*
X113813186Y-59036392D01*
X113927314Y-58970500D01*
X114020500Y-58877314D01*
X114086392Y-58763186D01*
X114120500Y-58635892D01*
X114120500Y-58504108D01*
X114086392Y-58376814D01*
X114020500Y-58262686D01*
X113927314Y-58169500D01*
X113858898Y-58130000D01*
X113813187Y-58103608D01*
X113749539Y-58086554D01*
X113685892Y-58069500D01*
X113554108Y-58069500D01*
X113514290Y-58080168D01*
X113444441Y-58078506D01*
X113386579Y-58039343D01*
X113359075Y-57975114D01*
X113369017Y-57915992D01*
X113367730Y-57915595D01*
X113370573Y-57906392D01*
X113380500Y-57838260D01*
X113380500Y-57471739D01*
X113370573Y-57403608D01*
X113370573Y-57403607D01*
X113319198Y-57298517D01*
X113319196Y-57298515D01*
X113319196Y-57298514D01*
X113236485Y-57215803D01*
X113131391Y-57164426D01*
X113063261Y-57154500D01*
X113063260Y-57154500D01*
X112942500Y-57154500D01*
X112875461Y-57134815D01*
X112829706Y-57082011D01*
X112818500Y-57030500D01*
X112818500Y-56727400D01*
X112833654Y-56670847D01*
X112833282Y-56670693D01*
X112834453Y-56667863D01*
X112835115Y-56665397D01*
X112836392Y-56663186D01*
X112870500Y-56535892D01*
X112870500Y-56404108D01*
X112836392Y-56276814D01*
X112770500Y-56162686D01*
X112677314Y-56069500D01*
X112620250Y-56036554D01*
X112563187Y-56003608D01*
X112499539Y-55986554D01*
X112435892Y-55969500D01*
X112304108Y-55969500D01*
X112176812Y-56003608D01*
X112062686Y-56069500D01*
X112062683Y-56069502D01*
X111969502Y-56162683D01*
X111969500Y-56162686D01*
X111903608Y-56276812D01*
X111869500Y-56404108D01*
X111869500Y-56535891D01*
X111903608Y-56663187D01*
X111936554Y-56720250D01*
X111969500Y-56777314D01*
X112062686Y-56870500D01*
X112143823Y-56917344D01*
X112153814Y-56923113D01*
X112202030Y-56973680D01*
X112215252Y-57042287D01*
X112189284Y-57107152D01*
X112132370Y-57147680D01*
X112091814Y-57154500D01*
X111971739Y-57154500D01*
X111903608Y-57164426D01*
X111798514Y-57215803D01*
X111753324Y-57260993D01*
X111692001Y-57294477D01*
X111622309Y-57289492D01*
X111577963Y-57260992D01*
X111130510Y-56813539D01*
X111123619Y-56809561D01*
X111109837Y-56801604D01*
X111109836Y-56801603D01*
X111085913Y-56787791D01*
X111061990Y-56773979D01*
X111036513Y-56767152D01*
X110985562Y-56753500D01*
X107995562Y-56753500D01*
X107916438Y-56753500D01*
X107840010Y-56773978D01*
X107771489Y-56813539D01*
X107515567Y-57069461D01*
X107454244Y-57102945D01*
X107384552Y-57097961D01*
X107380433Y-57096340D01*
X107307251Y-57066027D01*
X107307243Y-57066025D01*
X107123620Y-57029500D01*
X107123616Y-57029500D01*
X106936384Y-57029500D01*
X106936379Y-57029500D01*
X106752756Y-57066025D01*
X106752748Y-57066027D01*
X106579771Y-57137676D01*
X106579762Y-57137681D01*
X106424092Y-57241697D01*
X106424088Y-57241700D01*
X106291700Y-57374088D01*
X106291697Y-57374092D01*
X106187681Y-57529762D01*
X106187676Y-57529771D01*
X106116027Y-57702748D01*
X106116025Y-57702756D01*
X106079500Y-57886379D01*
X106079500Y-58073620D01*
X106116025Y-58257243D01*
X106116027Y-58257251D01*
X106187676Y-58430228D01*
X106187681Y-58430237D01*
X106291697Y-58585907D01*
X106291700Y-58585911D01*
X106424088Y-58718299D01*
X106424092Y-58718302D01*
X106579762Y-58822318D01*
X106579768Y-58822321D01*
X106579769Y-58822322D01*
X106752749Y-58893973D01*
X106924499Y-58928136D01*
X106936379Y-58930499D01*
X106936383Y-58930500D01*
X106936384Y-58930500D01*
X107123617Y-58930500D01*
X107123618Y-58930499D01*
X107307251Y-58893973D01*
X107480231Y-58822322D01*
X107635908Y-58718302D01*
X107768302Y-58585908D01*
X107872322Y-58430231D01*
X107943973Y-58257251D01*
X107980500Y-58073616D01*
X107980500Y-57886384D01*
X107943973Y-57702749D01*
X107913658Y-57629564D01*
X107911521Y-57609686D01*
X107904536Y-57590957D01*
X107907863Y-57575660D01*
X107906190Y-57560095D01*
X107915138Y-57542217D01*
X107919388Y-57522685D01*
X107936074Y-57500394D01*
X107937465Y-57497616D01*
X107940503Y-57494466D01*
X108044153Y-57390817D01*
X108105475Y-57357334D01*
X108131833Y-57354500D01*
X109255500Y-57354500D01*
X109322539Y-57374185D01*
X109368294Y-57426989D01*
X109379500Y-57478500D01*
X109379500Y-57687167D01*
X109359815Y-57754206D01*
X109343181Y-57774848D01*
X109038541Y-58079487D01*
X109038535Y-58079495D01*
X108998982Y-58148004D01*
X108998979Y-58148009D01*
X108978500Y-58224439D01*
X108978500Y-66821324D01*
X108958815Y-66888363D01*
X108906011Y-66934118D01*
X108836853Y-66944062D01*
X108773297Y-66915037D01*
X108766819Y-66909005D01*
X108717316Y-66859502D01*
X108717314Y-66859500D01*
X108660250Y-66826554D01*
X108603187Y-66793608D01*
X108539539Y-66776554D01*
X108475892Y-66759500D01*
X108344108Y-66759500D01*
X108216812Y-66793608D01*
X108102686Y-66859500D01*
X108102683Y-66859502D01*
X108009502Y-66952683D01*
X108009500Y-66952686D01*
X107943608Y-67066812D01*
X107909500Y-67194108D01*
X107909500Y-67284166D01*
X107889815Y-67351205D01*
X107873181Y-67371847D01*
X107522638Y-67722389D01*
X107461315Y-67755874D01*
X107391623Y-67750890D01*
X107387504Y-67749269D01*
X107307251Y-67716027D01*
X107307243Y-67716025D01*
X107123620Y-67679500D01*
X107123616Y-67679500D01*
X106936384Y-67679500D01*
X106936379Y-67679500D01*
X106752756Y-67716025D01*
X106752748Y-67716027D01*
X106579771Y-67787676D01*
X106579762Y-67787681D01*
X106472391Y-67859425D01*
X106405713Y-67880303D01*
X106338333Y-67861818D01*
X106291643Y-67809840D01*
X106279500Y-67756323D01*
X106279500Y-66306832D01*
X106299185Y-66239793D01*
X106315815Y-66219155D01*
X106544433Y-65990536D01*
X106605754Y-65957053D01*
X106675445Y-65962037D01*
X106679498Y-65963631D01*
X106752749Y-65993973D01*
X106936379Y-66030499D01*
X106936383Y-66030500D01*
X106936384Y-66030500D01*
X107123617Y-66030500D01*
X107123618Y-66030499D01*
X107307251Y-65993973D01*
X107480231Y-65922322D01*
X107635908Y-65818302D01*
X107768302Y-65685908D01*
X107872322Y-65530231D01*
X107943973Y-65357251D01*
X107980500Y-65173616D01*
X107980500Y-64986384D01*
X107943973Y-64802749D01*
X107872322Y-64629769D01*
X107872321Y-64629768D01*
X107872318Y-64629762D01*
X107768302Y-64474092D01*
X107768299Y-64474088D01*
X107635911Y-64341700D01*
X107635907Y-64341697D01*
X107480237Y-64237681D01*
X107480228Y-64237676D01*
X107307251Y-64166027D01*
X107307243Y-64166025D01*
X107123620Y-64129500D01*
X107123616Y-64129500D01*
X106936384Y-64129500D01*
X106936379Y-64129500D01*
X106752756Y-64166025D01*
X106752748Y-64166027D01*
X106579771Y-64237676D01*
X106579762Y-64237681D01*
X106424092Y-64341697D01*
X106424088Y-64341700D01*
X106291700Y-64474088D01*
X106291697Y-64474092D01*
X106187681Y-64629762D01*
X106187676Y-64629771D01*
X106116027Y-64802748D01*
X106116025Y-64802756D01*
X106079500Y-64986379D01*
X106079500Y-65173620D01*
X106116025Y-65357243D01*
X106116027Y-65357251D01*
X106146340Y-65430433D01*
X106153809Y-65499903D01*
X106122534Y-65562382D01*
X106119461Y-65565567D01*
X105794489Y-65890540D01*
X105738541Y-65946487D01*
X105738535Y-65946495D01*
X105698982Y-66015004D01*
X105698979Y-66015009D01*
X105678500Y-66091439D01*
X105678500Y-76447979D01*
X105658815Y-76515018D01*
X105642186Y-76535655D01*
X104941686Y-77236232D01*
X104880365Y-77269721D01*
X104810673Y-77264740D01*
X104754737Y-77222872D01*
X104730316Y-77157409D01*
X104730000Y-77148556D01*
X104730000Y-62573677D01*
X106339873Y-62573677D01*
X106339873Y-62573678D01*
X106374858Y-62599096D01*
X106550164Y-62688418D01*
X106737294Y-62749221D01*
X106931618Y-62780000D01*
X107128382Y-62780000D01*
X107322705Y-62749221D01*
X107509835Y-62688418D01*
X107685143Y-62599095D01*
X107720125Y-62573678D01*
X107720126Y-62573678D01*
X107030001Y-61883553D01*
X107030000Y-61883553D01*
X106339873Y-62573677D01*
X104730000Y-62573677D01*
X104730000Y-61431617D01*
X105780000Y-61431617D01*
X105780000Y-61628382D01*
X105810778Y-61822705D01*
X105871581Y-62009835D01*
X105960905Y-62185145D01*
X105986319Y-62220125D01*
X105986320Y-62220125D01*
X106676446Y-61530000D01*
X106676446Y-61529999D01*
X107383553Y-61529999D01*
X107383553Y-61530001D01*
X108073678Y-62220126D01*
X108073678Y-62220125D01*
X108099095Y-62185143D01*
X108188418Y-62009835D01*
X108249221Y-61822705D01*
X108280000Y-61628382D01*
X108280000Y-61431617D01*
X108249221Y-61237294D01*
X108188418Y-61050164D01*
X108099096Y-60874858D01*
X108073678Y-60839873D01*
X108073677Y-60839873D01*
X107383553Y-61529999D01*
X106676446Y-61529999D01*
X105986320Y-60839872D01*
X105986320Y-60839873D01*
X105960902Y-60874859D01*
X105960899Y-60874863D01*
X105871582Y-61050161D01*
X105810778Y-61237294D01*
X105780000Y-61431617D01*
X104730000Y-61431617D01*
X104730000Y-60486320D01*
X106339872Y-60486320D01*
X107030000Y-61176446D01*
X107030001Y-61176446D01*
X107720125Y-60486320D01*
X107720125Y-60486319D01*
X107685145Y-60460905D01*
X107509835Y-60371581D01*
X107322705Y-60310778D01*
X107128382Y-60280000D01*
X106931618Y-60280000D01*
X106737294Y-60310778D01*
X106550161Y-60371582D01*
X106374863Y-60460899D01*
X106374859Y-60460902D01*
X106339873Y-60486320D01*
X106339872Y-60486320D01*
X104730000Y-60486320D01*
X104730000Y-56730000D01*
X56730000Y-56730000D01*
X56730000Y-77730000D01*
X83059667Y-77730000D01*
X83126706Y-77749685D01*
X83172461Y-77802489D01*
X83182405Y-77871647D01*
X83153380Y-77935203D01*
X83147348Y-77941681D01*
X82956848Y-78132181D01*
X82895525Y-78165666D01*
X82869167Y-78168500D01*
X70968562Y-78168500D01*
X70889438Y-78168500D01*
X70851224Y-78178739D01*
X70813009Y-78188979D01*
X70813004Y-78188982D01*
X70744495Y-78228535D01*
X70744487Y-78228541D01*
X70688541Y-78284487D01*
X70688535Y-78284495D01*
X70648982Y-78353004D01*
X70648979Y-78353009D01*
X70642007Y-78379031D01*
X70628500Y-78429438D01*
X70628500Y-80010562D01*
X70632955Y-80027187D01*
X70648979Y-80086990D01*
X70648980Y-80086991D01*
X70684773Y-80148986D01*
X70684773Y-80148987D01*
X70688537Y-80155507D01*
X70688541Y-80155512D01*
X70935348Y-80402319D01*
X70968833Y-80463642D01*
X70963849Y-80533334D01*
X70935348Y-80577681D01*
X56192181Y-95320848D01*
X56130858Y-95354333D01*
X56061166Y-95349349D01*
X56005233Y-95307477D01*
X55980816Y-95242013D01*
X55980500Y-95233167D01*
X55980500Y-48138711D01*
X59109500Y-48138711D01*
X59109500Y-48381288D01*
X59141161Y-48621785D01*
X59203947Y-48856104D01*
X59296773Y-49080205D01*
X59296776Y-49080212D01*
X59418064Y-49290289D01*
X59418066Y-49290292D01*
X59418067Y-49290293D01*
X59565733Y-49482736D01*
X59565739Y-49482743D01*
X59737256Y-49654260D01*
X59737262Y-49654265D01*
X59929711Y-49801936D01*
X60139788Y-49923224D01*
X60363900Y-50016054D01*
X60598211Y-50078838D01*
X60778586Y-50102584D01*
X60838711Y-50110500D01*
X60838712Y-50110500D01*
X61081289Y-50110500D01*
X61129388Y-50104167D01*
X61321789Y-50078838D01*
X61556100Y-50016054D01*
X61780212Y-49923224D01*
X61990289Y-49801936D01*
X62182738Y-49654265D01*
X62354265Y-49482738D01*
X62501936Y-49290289D01*
X62623224Y-49080212D01*
X62716054Y-48856100D01*
X62778838Y-48621789D01*
X62810500Y-48381288D01*
X62810500Y-48138712D01*
X62810500Y-48138711D01*
X109909500Y-48138711D01*
X109909500Y-48381288D01*
X109941161Y-48621785D01*
X110003947Y-48856104D01*
X110096773Y-49080205D01*
X110096776Y-49080212D01*
X110218064Y-49290289D01*
X110218066Y-49290292D01*
X110218067Y-49290293D01*
X110365733Y-49482736D01*
X110365739Y-49482743D01*
X110537256Y-49654260D01*
X110537262Y-49654265D01*
X110729711Y-49801936D01*
X110939788Y-49923224D01*
X111163900Y-50016054D01*
X111398211Y-50078838D01*
X111578586Y-50102584D01*
X111638711Y-50110500D01*
X111638712Y-50110500D01*
X111881289Y-50110500D01*
X111929388Y-50104167D01*
X112121789Y-50078838D01*
X112356100Y-50016054D01*
X112580212Y-49923224D01*
X112790289Y-49801936D01*
X112982738Y-49654265D01*
X113154265Y-49482738D01*
X113301936Y-49290289D01*
X113423224Y-49080212D01*
X113516054Y-48856100D01*
X113578838Y-48621789D01*
X113610500Y-48381288D01*
X113610500Y-48138712D01*
X113578838Y-47898211D01*
X113516054Y-47663900D01*
X113423224Y-47439788D01*
X113301936Y-47229711D01*
X113154265Y-47037262D01*
X113154260Y-47037256D01*
X112982743Y-46865739D01*
X112982736Y-46865733D01*
X112790293Y-46718067D01*
X112790292Y-46718066D01*
X112790289Y-46718064D01*
X112580212Y-46596776D01*
X112580205Y-46596773D01*
X112356104Y-46503947D01*
X112121785Y-46441161D01*
X111881289Y-46409500D01*
X111881288Y-46409500D01*
X111638712Y-46409500D01*
X111638711Y-46409500D01*
X111398214Y-46441161D01*
X111163895Y-46503947D01*
X110939794Y-46596773D01*
X110939785Y-46596777D01*
X110729706Y-46718067D01*
X110537263Y-46865733D01*
X110537256Y-46865739D01*
X110365739Y-47037256D01*
X110365733Y-47037263D01*
X110218067Y-47229706D01*
X110096777Y-47439785D01*
X110096773Y-47439794D01*
X110003947Y-47663895D01*
X109941161Y-47898214D01*
X109909500Y-48138711D01*
X62810500Y-48138711D01*
X62778838Y-47898211D01*
X62716054Y-47663900D01*
X62623224Y-47439788D01*
X62501936Y-47229711D01*
X62354265Y-47037262D01*
X62354260Y-47037256D01*
X62182743Y-46865739D01*
X62182736Y-46865733D01*
X61990293Y-46718067D01*
X61990292Y-46718066D01*
X61990289Y-46718064D01*
X61780212Y-46596776D01*
X61780205Y-46596773D01*
X61556104Y-46503947D01*
X61321785Y-46441161D01*
X61081289Y-46409500D01*
X61081288Y-46409500D01*
X60838712Y-46409500D01*
X60838711Y-46409500D01*
X60598214Y-46441161D01*
X60363895Y-46503947D01*
X60139794Y-46596773D01*
X60139785Y-46596777D01*
X59929706Y-46718067D01*
X59737263Y-46865733D01*
X59737256Y-46865739D01*
X59565739Y-47037256D01*
X59565733Y-47037263D01*
X59418067Y-47229706D01*
X59296777Y-47439785D01*
X59296773Y-47439794D01*
X59203947Y-47663895D01*
X59141161Y-47898214D01*
X59109500Y-48138711D01*
X55980500Y-48138711D01*
X55980500Y-44804500D01*
X56000185Y-44737461D01*
X56052989Y-44691706D01*
X56104500Y-44680500D01*
X116745500Y-44680500D01*
X116812539Y-44700185D01*
G37*
%TD.AperFunction*%
%TA.AperFunction,Conductor*%
G36*
X59515539Y-107749685D02*
G01*
X59561294Y-107802489D01*
X59572500Y-107854000D01*
X59572500Y-108929999D01*
X59634972Y-108929999D01*
X59634986Y-108929998D01*
X59737697Y-108919505D01*
X59904119Y-108864358D01*
X59904124Y-108864356D01*
X60053345Y-108772315D01*
X60177315Y-108648345D01*
X60269356Y-108499124D01*
X60269358Y-108499119D01*
X60324505Y-108332697D01*
X60324506Y-108332690D01*
X60334066Y-108239120D01*
X60360462Y-108174429D01*
X60417643Y-108134277D01*
X60475728Y-108131894D01*
X60476052Y-108129439D01*
X60484106Y-108130499D01*
X60484108Y-108130500D01*
X60484110Y-108130500D01*
X60615890Y-108130500D01*
X60615892Y-108130500D01*
X60743186Y-108096392D01*
X60857314Y-108030500D01*
X60920995Y-107966819D01*
X60947922Y-107952115D01*
X60973741Y-107935523D01*
X60979941Y-107934631D01*
X60982318Y-107933334D01*
X61008676Y-107930500D01*
X61070500Y-107930500D01*
X61137539Y-107950185D01*
X61183294Y-108002989D01*
X61194500Y-108054500D01*
X61194500Y-108234269D01*
X61197353Y-108264699D01*
X61197353Y-108264701D01*
X61238403Y-108382011D01*
X61242207Y-108392882D01*
X61322850Y-108502150D01*
X61432118Y-108582793D01*
X61474845Y-108597744D01*
X61560299Y-108627646D01*
X61590730Y-108630500D01*
X62107667Y-108630500D01*
X62174706Y-108650185D01*
X62220461Y-108702989D01*
X62230405Y-108772147D01*
X62201380Y-108835703D01*
X62195348Y-108842181D01*
X61667041Y-109370487D01*
X61667035Y-109370495D01*
X61627482Y-109439004D01*
X61627479Y-109439009D01*
X61616363Y-109480497D01*
X61608324Y-109510499D01*
X61607000Y-109515439D01*
X61607000Y-109678030D01*
X61587315Y-109745069D01*
X61534511Y-109790824D01*
X61523956Y-109795071D01*
X61432117Y-109827207D01*
X61322850Y-109907850D01*
X61242207Y-110017117D01*
X61242206Y-110017119D01*
X61197353Y-110145298D01*
X61197353Y-110145300D01*
X61194500Y-110175730D01*
X61194500Y-111184269D01*
X61197353Y-111214699D01*
X61197353Y-111214701D01*
X61236701Y-111327147D01*
X61242207Y-111342882D01*
X61322850Y-111452150D01*
X61432118Y-111532793D01*
X61468910Y-111545667D01*
X61560299Y-111577646D01*
X61590730Y-111580500D01*
X61590734Y-111580500D01*
X62224270Y-111580500D01*
X62254699Y-111577646D01*
X62254701Y-111577646D01*
X62318790Y-111555219D01*
X62382882Y-111532793D01*
X62492150Y-111452150D01*
X62553225Y-111369395D01*
X62608870Y-111327147D01*
X62678526Y-111321688D01*
X62740075Y-111354755D01*
X62770699Y-111404026D01*
X62785642Y-111449121D01*
X62785643Y-111449124D01*
X62877684Y-111598345D01*
X63001654Y-111722315D01*
X63150875Y-111814356D01*
X63150880Y-111814358D01*
X63315766Y-111868996D01*
X63373211Y-111908769D01*
X63400034Y-111973284D01*
X63387719Y-112042060D01*
X63364443Y-112074383D01*
X62125659Y-113313167D01*
X62064336Y-113346652D01*
X62005886Y-113345261D01*
X61947063Y-113329500D01*
X61947062Y-113329500D01*
X61867938Y-113329500D01*
X61791510Y-113349978D01*
X61722989Y-113389540D01*
X61722986Y-113389542D01*
X60818348Y-114294181D01*
X60757025Y-114327666D01*
X60730667Y-114330500D01*
X60149392Y-114330500D01*
X60082353Y-114310815D01*
X60036598Y-114258011D01*
X60026654Y-114188853D01*
X60032350Y-114165547D01*
X60032646Y-114164700D01*
X60032646Y-114164699D01*
X60035500Y-114134269D01*
X60035500Y-113125730D01*
X60032646Y-113095300D01*
X60032646Y-113095298D01*
X59989342Y-112971546D01*
X59987793Y-112967118D01*
X59907150Y-112857850D01*
X59797882Y-112777207D01*
X59797880Y-112777206D01*
X59669700Y-112732353D01*
X59639270Y-112729500D01*
X59639266Y-112729500D01*
X59005734Y-112729500D01*
X59005730Y-112729500D01*
X58975300Y-112732353D01*
X58975299Y-112732353D01*
X58974453Y-112732650D01*
X58973787Y-112732683D01*
X58967927Y-112733964D01*
X58967715Y-112732993D01*
X58904674Y-112736211D01*
X58844047Y-112701481D01*
X58811821Y-112639487D01*
X58809500Y-112615608D01*
X58809500Y-111996827D01*
X58829185Y-111929788D01*
X58881989Y-111884033D01*
X58946105Y-111873469D01*
X59010021Y-111879999D01*
X59572500Y-111879999D01*
X59634972Y-111879999D01*
X59634986Y-111879998D01*
X59737697Y-111869505D01*
X59904119Y-111814358D01*
X59904124Y-111814356D01*
X60053345Y-111722315D01*
X60177315Y-111598345D01*
X60269356Y-111449124D01*
X60269358Y-111449119D01*
X60324505Y-111282697D01*
X60324506Y-111282690D01*
X60334999Y-111179986D01*
X60335000Y-111179973D01*
X60335000Y-110930000D01*
X59572500Y-110930000D01*
X59572500Y-111879999D01*
X59010021Y-111879999D01*
X59072499Y-111879998D01*
X59072500Y-111879998D01*
X59072500Y-110430000D01*
X59572500Y-110430000D01*
X60334999Y-110430000D01*
X60334999Y-110180028D01*
X60334998Y-110180013D01*
X60324505Y-110077302D01*
X60269358Y-109910880D01*
X60269356Y-109910875D01*
X60177315Y-109761654D01*
X60053345Y-109637684D01*
X59904124Y-109545643D01*
X59904119Y-109545641D01*
X59737697Y-109490494D01*
X59737690Y-109490493D01*
X59634986Y-109480000D01*
X59572500Y-109480000D01*
X59572500Y-110430000D01*
X59072500Y-110430000D01*
X59072500Y-109480000D01*
X59072499Y-109479999D01*
X59010028Y-109480000D01*
X59010009Y-109480001D01*
X58946101Y-109486530D01*
X58877408Y-109473760D01*
X58826524Y-109425879D01*
X58809500Y-109363172D01*
X58809500Y-109046827D01*
X58829185Y-108979788D01*
X58881989Y-108934033D01*
X58946105Y-108923469D01*
X59010021Y-108929999D01*
X59072499Y-108929998D01*
X59072500Y-108929998D01*
X59072500Y-107854000D01*
X59092185Y-107786961D01*
X59144989Y-107741206D01*
X59196500Y-107730000D01*
X59448500Y-107730000D01*
X59515539Y-107749685D01*
G37*
%TD.AperFunction*%
%TA.AperFunction,Conductor*%
G36*
X72417534Y-106040185D02*
G01*
X72463289Y-106092989D01*
X72473233Y-106162147D01*
X72470270Y-106176591D01*
X72449500Y-106254108D01*
X72449500Y-106385892D01*
X72482558Y-106509269D01*
X72483609Y-106513188D01*
X72483609Y-106513189D01*
X72550406Y-106628884D01*
X72566879Y-106696784D01*
X72544027Y-106762811D01*
X72489105Y-106806002D01*
X72419552Y-106812643D01*
X72408424Y-106809960D01*
X72332494Y-106787900D01*
X72332497Y-106787900D01*
X72330000Y-106787703D01*
X72330000Y-108260127D01*
X72310315Y-108327166D01*
X72257511Y-108372921D01*
X72238096Y-108379900D01*
X72211968Y-108386901D01*
X72167863Y-108398719D01*
X72036635Y-108474485D01*
X72030189Y-108479432D01*
X72028178Y-108476811D01*
X71980358Y-108502924D01*
X71910666Y-108497940D01*
X71854733Y-108456068D01*
X71830316Y-108390604D01*
X71830000Y-108381758D01*
X71830000Y-108110000D01*
X71260000Y-108110000D01*
X71260000Y-107845504D01*
X71239556Y-107769204D01*
X71200060Y-107700795D01*
X71144205Y-107644940D01*
X71075796Y-107605444D01*
X70999496Y-107585000D01*
X70920504Y-107585000D01*
X70844204Y-107605444D01*
X70775795Y-107644940D01*
X70719940Y-107700795D01*
X70710000Y-107718011D01*
X70710000Y-106915136D01*
X70709999Y-106915135D01*
X71210000Y-106915135D01*
X71210000Y-107610000D01*
X71830000Y-107610000D01*
X71830000Y-106787703D01*
X71827503Y-106787900D01*
X71669806Y-106833716D01*
X71669803Y-106833717D01*
X71528449Y-106917313D01*
X71528443Y-106917318D01*
X71501646Y-106944114D01*
X71440321Y-106977597D01*
X71370630Y-106972610D01*
X71366514Y-106970991D01*
X71251687Y-106923428D01*
X71251683Y-106923427D01*
X71210000Y-106915135D01*
X70709999Y-106915135D01*
X70668316Y-106923427D01*
X70668308Y-106923429D01*
X70486328Y-106998807D01*
X70486315Y-106998814D01*
X70322537Y-107108248D01*
X70322533Y-107108251D01*
X70183251Y-107247533D01*
X70183248Y-107247537D01*
X70073814Y-107411315D01*
X70073807Y-107411328D01*
X69998430Y-107593306D01*
X69998427Y-107593318D01*
X69960000Y-107786504D01*
X69960000Y-108185000D01*
X70660000Y-108185000D01*
X70660000Y-108685000D01*
X69960000Y-108685000D01*
X69960000Y-109083495D01*
X69998427Y-109276681D01*
X69998430Y-109276693D01*
X70073807Y-109458671D01*
X70073814Y-109458684D01*
X70183248Y-109622462D01*
X70183251Y-109622466D01*
X70322533Y-109761748D01*
X70322537Y-109761751D01*
X70486315Y-109871185D01*
X70486328Y-109871192D01*
X70668308Y-109946569D01*
X70710000Y-109954862D01*
X70710000Y-109151988D01*
X70719940Y-109169205D01*
X70775795Y-109225060D01*
X70844204Y-109264556D01*
X70920504Y-109285000D01*
X70999496Y-109285000D01*
X71075796Y-109264556D01*
X71144205Y-109225060D01*
X71200060Y-109169205D01*
X71210000Y-109151988D01*
X71210000Y-109954862D01*
X71251690Y-109946569D01*
X71251692Y-109946569D01*
X71433671Y-109871192D01*
X71433684Y-109871185D01*
X71597462Y-109761751D01*
X71597466Y-109761748D01*
X71736748Y-109622466D01*
X71736751Y-109622462D01*
X71846185Y-109458684D01*
X71846186Y-109458682D01*
X71850129Y-109449163D01*
X71893968Y-109394757D01*
X71960261Y-109372689D01*
X72027961Y-109389965D01*
X72033400Y-109393647D01*
X72036634Y-109395514D01*
X72036635Y-109395515D01*
X72111972Y-109439011D01*
X72158397Y-109465815D01*
X72167865Y-109471281D01*
X72314234Y-109510500D01*
X72314236Y-109510500D01*
X72465764Y-109510500D01*
X72465766Y-109510500D01*
X72612135Y-109471281D01*
X72743365Y-109395515D01*
X72850515Y-109288365D01*
X72859056Y-109273570D01*
X72909622Y-109225356D01*
X72978229Y-109212132D01*
X73043094Y-109238100D01*
X73073830Y-109273571D01*
X73085030Y-109292969D01*
X73139500Y-109387314D01*
X73232686Y-109480500D01*
X73298575Y-109518541D01*
X73345516Y-109545643D01*
X73346814Y-109546392D01*
X73474108Y-109580500D01*
X73474110Y-109580500D01*
X73605890Y-109580500D01*
X73605892Y-109580500D01*
X73733186Y-109546392D01*
X73847314Y-109480500D01*
X73910995Y-109416819D01*
X73937922Y-109402115D01*
X73963741Y-109385523D01*
X73969941Y-109384631D01*
X73972318Y-109383334D01*
X73998676Y-109380500D01*
X74016741Y-109380500D01*
X74056303Y-109380508D01*
X74056304Y-109380507D01*
X74064297Y-109380509D01*
X74064450Y-109380500D01*
X74366402Y-109380500D01*
X74433441Y-109400185D01*
X74479196Y-109452989D01*
X74489140Y-109522147D01*
X74476335Y-109559140D01*
X74476720Y-109559300D01*
X74474044Y-109565759D01*
X74473787Y-109566504D01*
X74473608Y-109566812D01*
X74443808Y-109678030D01*
X74439500Y-109694108D01*
X74439500Y-109825892D01*
X74445500Y-109848285D01*
X74473608Y-109953187D01*
X74497763Y-109995024D01*
X74539500Y-110067314D01*
X74632686Y-110160500D01*
X74746814Y-110226392D01*
X74874108Y-110260500D01*
X74874110Y-110260500D01*
X75005890Y-110260500D01*
X75005892Y-110260500D01*
X75133186Y-110226392D01*
X75247314Y-110160500D01*
X75310995Y-110096819D01*
X75372318Y-110063334D01*
X75398676Y-110060500D01*
X75738777Y-110060500D01*
X75778339Y-110060503D01*
X75778350Y-110060500D01*
X75778362Y-110060500D01*
X75818628Y-110049710D01*
X75851830Y-110040816D01*
X75854387Y-110040200D01*
X75854758Y-110040031D01*
X75854766Y-110040030D01*
X75854772Y-110040025D01*
X75854777Y-110040023D01*
X75854789Y-110040021D01*
X75854810Y-110040008D01*
X75855681Y-110039615D01*
X75858174Y-110038067D01*
X75894864Y-110016883D01*
X75894866Y-110016881D01*
X75894881Y-110016873D01*
X75920174Y-110002273D01*
X75922856Y-110000830D01*
X75923283Y-110000479D01*
X75923292Y-110000474D01*
X75923299Y-110000466D01*
X75923311Y-110000460D01*
X75923331Y-110000439D01*
X75924116Y-109999795D01*
X75926156Y-109997614D01*
X75955367Y-109968403D01*
X76981827Y-108942102D01*
X77043151Y-108908624D01*
X77112843Y-108913614D01*
X77168773Y-108955489D01*
X77193185Y-109020956D01*
X77193500Y-109029792D01*
X77193500Y-109254562D01*
X77207152Y-109305513D01*
X77213979Y-109330990D01*
X77213980Y-109330991D01*
X77230440Y-109359500D01*
X77242560Y-109380493D01*
X77253540Y-109399511D01*
X77824540Y-109970511D01*
X77880489Y-110026460D01*
X77880491Y-110026461D01*
X77880495Y-110026464D01*
X77920759Y-110049710D01*
X77949011Y-110066021D01*
X78025438Y-110086500D01*
X78025440Y-110086500D01*
X84402360Y-110086500D01*
X84402362Y-110086500D01*
X84478789Y-110066021D01*
X84547311Y-110026460D01*
X84603260Y-109970511D01*
X85367819Y-109205952D01*
X85429142Y-109172467D01*
X85498834Y-109177451D01*
X85554767Y-109219323D01*
X85579184Y-109284787D01*
X85579500Y-109293633D01*
X85579500Y-110204167D01*
X85559815Y-110271206D01*
X85543181Y-110291848D01*
X81540848Y-114294181D01*
X81479525Y-114327666D01*
X81453167Y-114330500D01*
X71464435Y-114330500D01*
X71461536Y-114329648D01*
X71458599Y-114330363D01*
X71428213Y-114319864D01*
X71397396Y-114310815D01*
X71395418Y-114308532D01*
X71392560Y-114307545D01*
X71372670Y-114282279D01*
X71351641Y-114258011D01*
X71351211Y-114255021D01*
X71349341Y-114252646D01*
X71346269Y-114220656D01*
X71341697Y-114188853D01*
X71342952Y-114186103D01*
X71342664Y-114183096D01*
X71357368Y-114154536D01*
X71370722Y-114125297D01*
X71373683Y-114122850D01*
X71374648Y-114120977D01*
X71402379Y-114099145D01*
X71403308Y-114098608D01*
X71408642Y-114095813D01*
X71412945Y-114093044D01*
X71438334Y-114078385D01*
X71438337Y-114078382D01*
X71438344Y-114078379D01*
X71476298Y-114056471D01*
X71476302Y-114056467D01*
X71476307Y-114056461D01*
X71476311Y-114056460D01*
X71497829Y-114034942D01*
X73254505Y-112278463D01*
X73254511Y-112278460D01*
X73274835Y-112258135D01*
X73305642Y-112227332D01*
X73308560Y-112224721D01*
X73310427Y-112222547D01*
X73310450Y-112222525D01*
X73310455Y-112222515D01*
X73310460Y-112222511D01*
X73310462Y-112222507D01*
X73310794Y-112222121D01*
X73312283Y-112219353D01*
X73322785Y-112201162D01*
X73368172Y-112155777D01*
X73377314Y-112150500D01*
X73411310Y-112116504D01*
X78600000Y-112116504D01*
X78600000Y-112365000D01*
X79300000Y-112365000D01*
X79300000Y-112865000D01*
X78600000Y-112865000D01*
X78600000Y-113113495D01*
X78638427Y-113306681D01*
X78638430Y-113306693D01*
X78713807Y-113488671D01*
X78713814Y-113488684D01*
X78823248Y-113652462D01*
X78823251Y-113652466D01*
X78962533Y-113791748D01*
X78962537Y-113791751D01*
X79126315Y-113901185D01*
X79126328Y-113901192D01*
X79308308Y-113976569D01*
X79350000Y-113984862D01*
X79350000Y-113181988D01*
X79359940Y-113199205D01*
X79415795Y-113255060D01*
X79484204Y-113294556D01*
X79560504Y-113315000D01*
X79639496Y-113315000D01*
X79715796Y-113294556D01*
X79784205Y-113255060D01*
X79840060Y-113199205D01*
X79850000Y-113181988D01*
X79850000Y-113984862D01*
X79891690Y-113976569D01*
X79891692Y-113976569D01*
X80073671Y-113901192D01*
X80073684Y-113901185D01*
X80237462Y-113791751D01*
X80237466Y-113791748D01*
X80376748Y-113652466D01*
X80376751Y-113652462D01*
X80486185Y-113488684D01*
X80486192Y-113488671D01*
X80561569Y-113306693D01*
X80561572Y-113306681D01*
X80599999Y-113113495D01*
X80600000Y-113113492D01*
X80600000Y-112865000D01*
X79900000Y-112865000D01*
X79900000Y-112365000D01*
X80600000Y-112365000D01*
X80600000Y-112116508D01*
X80599999Y-112116504D01*
X80561572Y-111923318D01*
X80561569Y-111923306D01*
X80486192Y-111741328D01*
X80486185Y-111741315D01*
X80376751Y-111577537D01*
X80376748Y-111577533D01*
X80237466Y-111438251D01*
X80237462Y-111438248D01*
X80073684Y-111328814D01*
X80073671Y-111328807D01*
X79891691Y-111253429D01*
X79891683Y-111253427D01*
X79850000Y-111245135D01*
X79850000Y-112048011D01*
X79840060Y-112030795D01*
X79784205Y-111974940D01*
X79715796Y-111935444D01*
X79639496Y-111915000D01*
X79560504Y-111915000D01*
X79484204Y-111935444D01*
X79415795Y-111974940D01*
X79359940Y-112030795D01*
X79350000Y-112048011D01*
X79350000Y-111245136D01*
X79349999Y-111245135D01*
X79308316Y-111253427D01*
X79308308Y-111253429D01*
X79126328Y-111328807D01*
X79126315Y-111328814D01*
X78962537Y-111438248D01*
X78962533Y-111438251D01*
X78823251Y-111577533D01*
X78823248Y-111577537D01*
X78713814Y-111741315D01*
X78713807Y-111741328D01*
X78638430Y-111923306D01*
X78638427Y-111923318D01*
X78600000Y-112116504D01*
X73411310Y-112116504D01*
X73470500Y-112057314D01*
X73536392Y-111943186D01*
X73570500Y-111815892D01*
X73570500Y-111684108D01*
X73536392Y-111556814D01*
X73532178Y-111549516D01*
X73521478Y-111530982D01*
X73470500Y-111442686D01*
X73377314Y-111349500D01*
X73317539Y-111314989D01*
X73263187Y-111283608D01*
X73199539Y-111266554D01*
X73135892Y-111249500D01*
X73004108Y-111249500D01*
X72876812Y-111283608D01*
X72762686Y-111349500D01*
X72762683Y-111349502D01*
X72669502Y-111442683D01*
X72669500Y-111442686D01*
X72603608Y-111556812D01*
X72569500Y-111684108D01*
X72569500Y-111815891D01*
X72603608Y-111943188D01*
X72605886Y-111947132D01*
X72622360Y-112015032D01*
X72599509Y-112081059D01*
X72586176Y-112096820D01*
X72171676Y-112511274D01*
X72110351Y-112544756D01*
X72040660Y-112539767D01*
X71984729Y-112497893D01*
X71960315Y-112432427D01*
X71960000Y-112423588D01*
X71960000Y-112116508D01*
X71959999Y-112116504D01*
X71921572Y-111923318D01*
X71921569Y-111923306D01*
X71846192Y-111741328D01*
X71846185Y-111741315D01*
X71736751Y-111577537D01*
X71736748Y-111577533D01*
X71597466Y-111438251D01*
X71597462Y-111438248D01*
X71433684Y-111328814D01*
X71433671Y-111328807D01*
X71251691Y-111253429D01*
X71251683Y-111253427D01*
X71210000Y-111245135D01*
X71210000Y-112048011D01*
X71200060Y-112030795D01*
X71144205Y-111974940D01*
X71075796Y-111935444D01*
X70999496Y-111915000D01*
X70920504Y-111915000D01*
X70844204Y-111935444D01*
X70775795Y-111974940D01*
X70719940Y-112030795D01*
X70710000Y-112048011D01*
X70710000Y-111245136D01*
X70709999Y-111245135D01*
X70668316Y-111253427D01*
X70668308Y-111253429D01*
X70486328Y-111328807D01*
X70486315Y-111328814D01*
X70322537Y-111438248D01*
X70322533Y-111438251D01*
X70183251Y-111577533D01*
X70183248Y-111577537D01*
X70073814Y-111741315D01*
X70073807Y-111741328D01*
X69998430Y-111923306D01*
X69998427Y-111923318D01*
X69960000Y-112116504D01*
X69960000Y-112365000D01*
X70660000Y-112365000D01*
X70660000Y-112865000D01*
X70153533Y-112865000D01*
X70126365Y-112857022D01*
X70098479Y-112852108D01*
X70090765Y-112846569D01*
X70086494Y-112845315D01*
X70069406Y-112832097D01*
X70067602Y-112830431D01*
X70012711Y-112775540D01*
X70012562Y-112775454D01*
X69944191Y-112735980D01*
X69944190Y-112735979D01*
X69915912Y-112728402D01*
X69867762Y-112715500D01*
X69867760Y-112715500D01*
X69240892Y-112715500D01*
X69211437Y-112706851D01*
X69181439Y-112700318D01*
X69176441Y-112696575D01*
X69173853Y-112695815D01*
X69153190Y-112679160D01*
X69127053Y-112653011D01*
X69035298Y-112561212D01*
X68976998Y-112502884D01*
X68943528Y-112441553D01*
X68940700Y-112415224D01*
X68940700Y-111856755D01*
X68960385Y-111789716D01*
X68976991Y-111769101D01*
X69168325Y-111577646D01*
X69168328Y-111577649D01*
X69168348Y-111577622D01*
X69196460Y-111549511D01*
X69196461Y-111549508D01*
X69196491Y-111549478D01*
X69196513Y-111549439D01*
X69196518Y-111549435D01*
X69216086Y-111515515D01*
X69216114Y-111515489D01*
X69216105Y-111515484D01*
X69226863Y-111496850D01*
X69236021Y-111480989D01*
X69236022Y-111480984D01*
X69236038Y-111480957D01*
X69236047Y-111480935D01*
X69236055Y-111480904D01*
X69236058Y-111480900D01*
X69246284Y-111442686D01*
X69247149Y-111439460D01*
X69256500Y-111404562D01*
X69256512Y-111404469D01*
X69256500Y-111366488D01*
X69256500Y-109990601D01*
X69256503Y-109955462D01*
X69256500Y-109955450D01*
X69256500Y-109955438D01*
X69253304Y-109943511D01*
X69245554Y-109914585D01*
X69245552Y-109914578D01*
X69237041Y-109882805D01*
X69236245Y-109879399D01*
X69235217Y-109877619D01*
X69218286Y-109848293D01*
X69196846Y-109811152D01*
X69196504Y-109810547D01*
X69196462Y-109810491D01*
X69194729Y-109808758D01*
X69168325Y-109782354D01*
X68228293Y-108842173D01*
X68194814Y-108780848D01*
X68199804Y-108711157D01*
X68241679Y-108655227D01*
X68307146Y-108630815D01*
X68315982Y-108630500D01*
X68459270Y-108630500D01*
X68489699Y-108627646D01*
X68489701Y-108627646D01*
X68558396Y-108603608D01*
X68617882Y-108582793D01*
X68727150Y-108502150D01*
X68807793Y-108392882D01*
X68838369Y-108305500D01*
X68852646Y-108264701D01*
X68852646Y-108264699D01*
X68855500Y-108234269D01*
X68855500Y-107225730D01*
X68852646Y-107195300D01*
X68852646Y-107195298D01*
X68814860Y-107087314D01*
X68807793Y-107067118D01*
X68727150Y-106957850D01*
X68617882Y-106877207D01*
X68604296Y-106872453D01*
X68526044Y-106845071D01*
X68510687Y-106834056D01*
X68492961Y-106827500D01*
X68482882Y-106814113D01*
X68469269Y-106804349D01*
X68462305Y-106786780D01*
X68450937Y-106771681D01*
X68446375Y-106746595D01*
X68443522Y-106739396D01*
X68443341Y-106737214D01*
X68443000Y-106732622D01*
X68443000Y-106657538D01*
X68438306Y-106640021D01*
X68422522Y-106581112D01*
X68399071Y-106540494D01*
X68387013Y-106519608D01*
X68370400Y-106457608D01*
X68370400Y-106358610D01*
X68370400Y-106358608D01*
X68336292Y-106231314D01*
X68321965Y-106206500D01*
X68305493Y-106138601D01*
X68328345Y-106072574D01*
X68383266Y-106029383D01*
X68429353Y-106020500D01*
X72350495Y-106020500D01*
X72417534Y-106040185D01*
G37*
%TD.AperFunction*%
%TA.AperFunction,Conductor*%
G36*
X109261539Y-101070185D02*
G01*
X109307294Y-101122989D01*
X109318500Y-101174500D01*
X109318500Y-102950438D01*
X109318500Y-111238562D01*
X109338979Y-111314989D01*
X109358904Y-111349500D01*
X109364829Y-111359763D01*
X109364830Y-111359765D01*
X109378537Y-111383507D01*
X109378541Y-111383512D01*
X109683181Y-111688152D01*
X109716666Y-111749475D01*
X109719500Y-111775833D01*
X109719500Y-112529269D01*
X109722353Y-112559699D01*
X109722353Y-112559700D01*
X109722650Y-112560547D01*
X109722683Y-112561212D01*
X109723964Y-112567073D01*
X109722993Y-112567284D01*
X109726211Y-112630326D01*
X109691481Y-112690953D01*
X109629487Y-112723179D01*
X109605608Y-112725500D01*
X108716500Y-112725500D01*
X108649461Y-112705815D01*
X108603706Y-112653011D01*
X108592500Y-112601500D01*
X108592500Y-110684439D01*
X108585808Y-110659464D01*
X108572021Y-110608011D01*
X108550640Y-110570977D01*
X108532464Y-110539495D01*
X108532458Y-110539487D01*
X107511512Y-109518541D01*
X107511504Y-109518535D01*
X107442995Y-109478982D01*
X107442992Y-109478980D01*
X107442989Y-109478979D01*
X107442985Y-109478978D01*
X107435482Y-109475870D01*
X107436651Y-109473045D01*
X107389387Y-109444223D01*
X107358871Y-109381370D01*
X107367180Y-109311996D01*
X107411676Y-109258127D01*
X107411978Y-109257923D01*
X107519655Y-109185977D01*
X107665977Y-109039655D01*
X107780941Y-108867598D01*
X107860130Y-108676420D01*
X107900500Y-108473465D01*
X107900500Y-108266535D01*
X107860130Y-108063580D01*
X107780941Y-107872402D01*
X107665977Y-107700345D01*
X107665975Y-107700342D01*
X107519657Y-107554024D01*
X107352616Y-107442412D01*
X107347598Y-107439059D01*
X107342178Y-107436814D01*
X107156420Y-107359870D01*
X107156412Y-107359868D01*
X106953469Y-107319500D01*
X106953465Y-107319500D01*
X106746535Y-107319500D01*
X106746530Y-107319500D01*
X106543587Y-107359868D01*
X106543579Y-107359870D01*
X106423029Y-107409804D01*
X106353559Y-107417273D01*
X106291080Y-107385998D01*
X106287895Y-107382924D01*
X106035819Y-107130848D01*
X106002334Y-107069525D01*
X105999500Y-107043167D01*
X105999500Y-106757128D01*
X106019185Y-106690089D01*
X106071989Y-106644334D01*
X106141147Y-106634390D01*
X106192390Y-106654026D01*
X106352400Y-106760940D01*
X106352401Y-106760940D01*
X106352402Y-106760941D01*
X106543580Y-106840130D01*
X106726833Y-106876581D01*
X106746530Y-106880499D01*
X106746534Y-106880500D01*
X106746535Y-106880500D01*
X106953466Y-106880500D01*
X106953467Y-106880499D01*
X107156420Y-106840130D01*
X107347598Y-106760941D01*
X107519655Y-106645977D01*
X107665977Y-106499655D01*
X107780941Y-106327598D01*
X107860130Y-106136420D01*
X107900500Y-105933465D01*
X107900500Y-105726535D01*
X107860130Y-105523580D01*
X107780941Y-105332402D01*
X107665977Y-105160345D01*
X107665975Y-105160342D01*
X107519657Y-105014024D01*
X107433396Y-104956387D01*
X107347598Y-104899059D01*
X107336432Y-104894434D01*
X107205464Y-104840185D01*
X107182890Y-104830834D01*
X107128488Y-104786994D01*
X107106423Y-104720700D01*
X107123702Y-104653001D01*
X107174839Y-104605390D01*
X107192026Y-104598343D01*
X107368217Y-104541095D01*
X107557554Y-104444622D01*
X107611716Y-104405270D01*
X107611717Y-104405270D01*
X106979409Y-103772962D01*
X107042993Y-103755925D01*
X107157007Y-103690099D01*
X107250099Y-103597007D01*
X107315925Y-103482993D01*
X107332962Y-103419408D01*
X107965270Y-104051717D01*
X107965270Y-104051716D01*
X108004622Y-103997554D01*
X108101095Y-103808217D01*
X108166757Y-103606130D01*
X108166757Y-103606127D01*
X108200000Y-103396246D01*
X108200000Y-103183753D01*
X108166757Y-102973872D01*
X108166757Y-102973869D01*
X108101095Y-102771782D01*
X108004624Y-102582449D01*
X107965270Y-102528282D01*
X107965269Y-102528282D01*
X107332962Y-103160590D01*
X107315925Y-103097007D01*
X107250099Y-102982993D01*
X107157007Y-102889901D01*
X107042993Y-102824075D01*
X106979407Y-102807036D01*
X107611716Y-102174728D01*
X107557550Y-102135375D01*
X107363879Y-102036694D01*
X107364396Y-102035678D01*
X107314192Y-101995221D01*
X107292127Y-101928927D01*
X107309406Y-101861228D01*
X107360542Y-101813617D01*
X107416048Y-101800500D01*
X107719750Y-101800500D01*
X107719751Y-101800499D01*
X107734568Y-101797552D01*
X107778229Y-101788868D01*
X107778229Y-101788867D01*
X107778231Y-101788867D01*
X107844552Y-101744552D01*
X107888867Y-101678231D01*
X107888867Y-101678229D01*
X107888868Y-101678229D01*
X107900499Y-101619752D01*
X107900500Y-101619750D01*
X107900500Y-101174500D01*
X107920185Y-101107461D01*
X107972989Y-101061706D01*
X108024500Y-101050500D01*
X109194500Y-101050500D01*
X109261539Y-101070185D01*
G37*
%TD.AperFunction*%
%TA.AperFunction,Conductor*%
G36*
X70948834Y-82786651D02*
G01*
X71004767Y-82828523D01*
X71029184Y-82893987D01*
X71029500Y-82902833D01*
X71029500Y-83499752D01*
X71041131Y-83558229D01*
X71041132Y-83558230D01*
X71066442Y-83596109D01*
X71087320Y-83662787D01*
X71068835Y-83730167D01*
X71066442Y-83733891D01*
X71041132Y-83771769D01*
X71041131Y-83771770D01*
X71029500Y-83830247D01*
X71029500Y-84769752D01*
X71041131Y-84828229D01*
X71041132Y-84828230D01*
X71066442Y-84866109D01*
X71087320Y-84932787D01*
X71068835Y-85000167D01*
X71066442Y-85003891D01*
X71041132Y-85041769D01*
X71041131Y-85041770D01*
X71029500Y-85100247D01*
X71029500Y-86039752D01*
X71041131Y-86098229D01*
X71041132Y-86098230D01*
X71066442Y-86136109D01*
X71087320Y-86202787D01*
X71068835Y-86270167D01*
X71066442Y-86273891D01*
X71041132Y-86311769D01*
X71041131Y-86311770D01*
X71029500Y-86370247D01*
X71029500Y-87309752D01*
X71041131Y-87368229D01*
X71041132Y-87368230D01*
X71066442Y-87406109D01*
X71087320Y-87472787D01*
X71068835Y-87540167D01*
X71066442Y-87543891D01*
X71041132Y-87581769D01*
X71041131Y-87581770D01*
X71029500Y-87640247D01*
X71029500Y-88579752D01*
X71041131Y-88638229D01*
X71041132Y-88638230D01*
X71066442Y-88676109D01*
X71087320Y-88742787D01*
X71068835Y-88810167D01*
X71066442Y-88813891D01*
X71041132Y-88851769D01*
X71041131Y-88851770D01*
X71029500Y-88910247D01*
X71029500Y-89849752D01*
X71041131Y-89908229D01*
X71041132Y-89908230D01*
X71066442Y-89946109D01*
X71087320Y-90012787D01*
X71068835Y-90080167D01*
X71066442Y-90083891D01*
X71041132Y-90121769D01*
X71041131Y-90121770D01*
X71029500Y-90180247D01*
X71029500Y-91119752D01*
X71041131Y-91178229D01*
X71041132Y-91178230D01*
X71066442Y-91216109D01*
X71087320Y-91282787D01*
X71068835Y-91350167D01*
X71066442Y-91353891D01*
X71041132Y-91391769D01*
X71041131Y-91391770D01*
X71029500Y-91450247D01*
X71029500Y-92389752D01*
X71041131Y-92448229D01*
X71041132Y-92448230D01*
X71066442Y-92486109D01*
X71087320Y-92552787D01*
X71080316Y-92596143D01*
X71075128Y-92610891D01*
X71041133Y-92661769D01*
X71029500Y-92720252D01*
X71029500Y-92740621D01*
X71022476Y-92760592D01*
X71013933Y-92772461D01*
X71009815Y-92786488D01*
X70993938Y-92800245D01*
X70981663Y-92817302D01*
X70968059Y-92822668D01*
X70957011Y-92832243D01*
X70929500Y-92837882D01*
X70916669Y-92842945D01*
X70910632Y-92841750D01*
X70902520Y-92843413D01*
X65746520Y-92719462D01*
X65679973Y-92698172D01*
X65635500Y-92644284D01*
X65625500Y-92595498D01*
X65625500Y-92495730D01*
X65622646Y-92465300D01*
X65622646Y-92465298D01*
X65577793Y-92337119D01*
X65577792Y-92337117D01*
X65575688Y-92334266D01*
X65497150Y-92227850D01*
X65387882Y-92147207D01*
X65387880Y-92147206D01*
X65259700Y-92102353D01*
X65229270Y-92099500D01*
X65229266Y-92099500D01*
X64595734Y-92099500D01*
X64595730Y-92099500D01*
X64565300Y-92102353D01*
X64565298Y-92102353D01*
X64437119Y-92147206D01*
X64437117Y-92147207D01*
X64327850Y-92227850D01*
X64247207Y-92337117D01*
X64247206Y-92337119D01*
X64202353Y-92465298D01*
X64202353Y-92465300D01*
X64199500Y-92495730D01*
X64199500Y-93504269D01*
X64202353Y-93534699D01*
X64202353Y-93534701D01*
X64247206Y-93662880D01*
X64247207Y-93662882D01*
X64327850Y-93772150D01*
X64437118Y-93852793D01*
X64473284Y-93865448D01*
X64565299Y-93897646D01*
X64595730Y-93900500D01*
X64595734Y-93900500D01*
X65229270Y-93900500D01*
X65259699Y-93897646D01*
X65259701Y-93897646D01*
X65323790Y-93875219D01*
X65387882Y-93852793D01*
X65497150Y-93772150D01*
X65577793Y-93662882D01*
X65610751Y-93568693D01*
X65622646Y-93534701D01*
X65622646Y-93534699D01*
X65625500Y-93504269D01*
X65625500Y-93444742D01*
X65645185Y-93377703D01*
X65697989Y-93331948D01*
X65752477Y-93320778D01*
X70908482Y-93444729D01*
X70975027Y-93466019D01*
X71019500Y-93519907D01*
X71029500Y-93568693D01*
X71029500Y-93659752D01*
X71041131Y-93718229D01*
X71041132Y-93718230D01*
X71066442Y-93756109D01*
X71087320Y-93822787D01*
X71068835Y-93890167D01*
X71066442Y-93893891D01*
X71041132Y-93931769D01*
X71041131Y-93931770D01*
X71029500Y-93990247D01*
X71029500Y-94929752D01*
X71041131Y-94988229D01*
X71041132Y-94988230D01*
X71066442Y-95026109D01*
X71087320Y-95092787D01*
X71068835Y-95160167D01*
X71066442Y-95163891D01*
X71041132Y-95201769D01*
X71041131Y-95201770D01*
X71029500Y-95260247D01*
X71029500Y-96199752D01*
X71041131Y-96258229D01*
X71041132Y-96258230D01*
X71085447Y-96324552D01*
X71151769Y-96368867D01*
X71151770Y-96368868D01*
X71210247Y-96380499D01*
X71210250Y-96380500D01*
X71210252Y-96380500D01*
X72749750Y-96380500D01*
X72749751Y-96380499D01*
X72764568Y-96377552D01*
X72808229Y-96368868D01*
X72808229Y-96368867D01*
X72808231Y-96368867D01*
X72874552Y-96324552D01*
X72874553Y-96324551D01*
X72882819Y-96316286D01*
X72944142Y-96282801D01*
X73013834Y-96287785D01*
X73069767Y-96329657D01*
X73094184Y-96395121D01*
X73094500Y-96403967D01*
X73094500Y-97749752D01*
X73106131Y-97808229D01*
X73106132Y-97808230D01*
X73150447Y-97874552D01*
X73216769Y-97918867D01*
X73216770Y-97918868D01*
X73275247Y-97930499D01*
X73275250Y-97930500D01*
X73275252Y-97930500D01*
X74214750Y-97930500D01*
X74214751Y-97930499D01*
X74229568Y-97927552D01*
X74273229Y-97918868D01*
X74273231Y-97918867D01*
X74311108Y-97893558D01*
X74377785Y-97872679D01*
X74445165Y-97891163D01*
X74448892Y-97893558D01*
X74486768Y-97918867D01*
X74486770Y-97918868D01*
X74545247Y-97930499D01*
X74545250Y-97930500D01*
X74545252Y-97930500D01*
X75484750Y-97930500D01*
X75484751Y-97930499D01*
X75499568Y-97927552D01*
X75543229Y-97918868D01*
X75543231Y-97918867D01*
X75581108Y-97893558D01*
X75647785Y-97872679D01*
X75715165Y-97891163D01*
X75718892Y-97893558D01*
X75756768Y-97918867D01*
X75756770Y-97918868D01*
X75815247Y-97930499D01*
X75815250Y-97930500D01*
X76620167Y-97930500D01*
X76641412Y-97936738D01*
X76663501Y-97938318D01*
X76674284Y-97946390D01*
X76687206Y-97950185D01*
X76701705Y-97966918D01*
X76719434Y-97980190D01*
X76724141Y-97992810D01*
X76732961Y-98002989D01*
X76736112Y-98024906D01*
X76743851Y-98045654D01*
X76740988Y-98058814D01*
X76742905Y-98072147D01*
X76733705Y-98092290D01*
X76728999Y-98113927D01*
X76715730Y-98131652D01*
X76713880Y-98135703D01*
X76707848Y-98142181D01*
X76611848Y-98238181D01*
X76550525Y-98271666D01*
X76524167Y-98274500D01*
X70495438Y-98274500D01*
X70419010Y-98294978D01*
X70350489Y-98334540D01*
X70350486Y-98334542D01*
X69439541Y-99245487D01*
X69439535Y-99245495D01*
X69399982Y-99314004D01*
X69399979Y-99314009D01*
X69386447Y-99364511D01*
X69384123Y-99373187D01*
X69379500Y-99390439D01*
X69379500Y-100609563D01*
X69359815Y-100676602D01*
X69307011Y-100722357D01*
X69302953Y-100724124D01*
X69182404Y-100774057D01*
X69010342Y-100889024D01*
X68864024Y-101035342D01*
X68749058Y-101207403D01*
X68669870Y-101398579D01*
X68669868Y-101398587D01*
X68629500Y-101601530D01*
X68629500Y-102058469D01*
X68669868Y-102261412D01*
X68669870Y-102261420D01*
X68737846Y-102425529D01*
X68749059Y-102452598D01*
X68775285Y-102491848D01*
X68864024Y-102624657D01*
X69010342Y-102770975D01*
X69010345Y-102770977D01*
X69182402Y-102885941D01*
X69373580Y-102965130D01*
X69542686Y-102998767D01*
X69576530Y-103005499D01*
X69576534Y-103005500D01*
X69576535Y-103005500D01*
X69783466Y-103005500D01*
X69783467Y-103005499D01*
X69986420Y-102965130D01*
X70177598Y-102885941D01*
X70349655Y-102770977D01*
X70495977Y-102624655D01*
X70610941Y-102452598D01*
X70690130Y-102261420D01*
X70730500Y-102058465D01*
X70730500Y-101601535D01*
X70690130Y-101398580D01*
X70610941Y-101207402D01*
X70495977Y-101035345D01*
X70495975Y-101035342D01*
X70349657Y-100889024D01*
X70177595Y-100774057D01*
X70057047Y-100724124D01*
X70002643Y-100680282D01*
X69980579Y-100613988D01*
X69980500Y-100609563D01*
X69980500Y-99605833D01*
X70000185Y-99538794D01*
X70016819Y-99518152D01*
X70623152Y-98911819D01*
X70684475Y-98878334D01*
X70710833Y-98875500D01*
X76739560Y-98875500D01*
X76739562Y-98875500D01*
X76815989Y-98855021D01*
X76884511Y-98815460D01*
X76940460Y-98759511D01*
X77347317Y-98352653D01*
X77408637Y-98319170D01*
X77478328Y-98324154D01*
X77534262Y-98366025D01*
X77554769Y-98408241D01*
X77585408Y-98522586D01*
X77651300Y-98636714D01*
X77744486Y-98729900D01*
X77841139Y-98785703D01*
X77852359Y-98792181D01*
X77858614Y-98795792D01*
X77961757Y-98823428D01*
X78021417Y-98859793D01*
X78051946Y-98922640D01*
X78043651Y-98992015D01*
X78017344Y-99030884D01*
X77588648Y-99459581D01*
X77527325Y-99493066D01*
X77500967Y-99495900D01*
X77035576Y-99495900D01*
X76968537Y-99476215D01*
X76947895Y-99459581D01*
X76884216Y-99395902D01*
X76884214Y-99395900D01*
X76827150Y-99362954D01*
X76770087Y-99330008D01*
X76706439Y-99312954D01*
X76642792Y-99295900D01*
X76511008Y-99295900D01*
X76383712Y-99330008D01*
X76269586Y-99395900D01*
X76269583Y-99395902D01*
X76176402Y-99489083D01*
X76176400Y-99489086D01*
X76110508Y-99603212D01*
X76097977Y-99649979D01*
X76076400Y-99730508D01*
X76076400Y-99862292D01*
X76093454Y-99925939D01*
X76110508Y-99989587D01*
X76137802Y-100036860D01*
X76176400Y-100103714D01*
X76269586Y-100196900D01*
X76383714Y-100262792D01*
X76511008Y-100296900D01*
X76511010Y-100296900D01*
X76642790Y-100296900D01*
X76642792Y-100296900D01*
X76770086Y-100262792D01*
X76884214Y-100196900D01*
X76947895Y-100133219D01*
X77009218Y-100099734D01*
X77035576Y-100096900D01*
X77716360Y-100096900D01*
X77716362Y-100096900D01*
X77792789Y-100076421D01*
X77861311Y-100036860D01*
X77917260Y-99980911D01*
X79931352Y-97966819D01*
X79992675Y-97933334D01*
X80019033Y-97930500D01*
X80564750Y-97930500D01*
X80564751Y-97930499D01*
X80579568Y-97927552D01*
X80623229Y-97918868D01*
X80623231Y-97918867D01*
X80661108Y-97893558D01*
X80727785Y-97872679D01*
X80760381Y-97876438D01*
X80781110Y-97881676D01*
X80836769Y-97918867D01*
X80895252Y-97930500D01*
X80974312Y-97930500D01*
X80989266Y-97934279D01*
X81006608Y-97944513D01*
X81025924Y-97950185D01*
X81036079Y-97961905D01*
X81049439Y-97969789D01*
X81058494Y-97987773D01*
X81071679Y-98002989D01*
X81078659Y-98022404D01*
X81084978Y-98045986D01*
X81084980Y-98045991D01*
X81100081Y-98072147D01*
X81108549Y-98086814D01*
X81124540Y-98114511D01*
X81530489Y-98520460D01*
X81599012Y-98560022D01*
X81675438Y-98580500D01*
X81754562Y-98580500D01*
X82192324Y-98580500D01*
X82259363Y-98600185D01*
X82305118Y-98652989D01*
X82315062Y-98722147D01*
X82286037Y-98785703D01*
X82280005Y-98792181D01*
X82199502Y-98872683D01*
X82199500Y-98872686D01*
X82133608Y-98986812D01*
X82120066Y-99037354D01*
X82099500Y-99114108D01*
X82099500Y-99245892D01*
X82116554Y-99309539D01*
X82133608Y-99373187D01*
X82160902Y-99420460D01*
X82199500Y-99487314D01*
X82292686Y-99580500D01*
X82406814Y-99646392D01*
X82534108Y-99680500D01*
X82534110Y-99680500D01*
X82665890Y-99680500D01*
X82665892Y-99680500D01*
X82793186Y-99646392D01*
X82907314Y-99580500D01*
X82970995Y-99516819D01*
X83032318Y-99483334D01*
X83058676Y-99480500D01*
X91279460Y-99480500D01*
X91279462Y-99480500D01*
X91355889Y-99460021D01*
X91424411Y-99420460D01*
X91480360Y-99364511D01*
X92131460Y-98713411D01*
X92151038Y-98679500D01*
X92171021Y-98644889D01*
X92191500Y-98568462D01*
X92191500Y-97991538D01*
X92171021Y-97915111D01*
X92167573Y-97909138D01*
X92131464Y-97846595D01*
X92131458Y-97846587D01*
X92075511Y-97790640D01*
X91154413Y-96869541D01*
X91154411Y-96869540D01*
X91144833Y-96864010D01*
X91144833Y-96864009D01*
X91144831Y-96864009D01*
X91085889Y-96829979D01*
X91009462Y-96809500D01*
X91009460Y-96809500D01*
X89858676Y-96809500D01*
X89791637Y-96789815D01*
X89770995Y-96773181D01*
X89707316Y-96709502D01*
X89707314Y-96709500D01*
X89609800Y-96653200D01*
X89593187Y-96643608D01*
X89552827Y-96632794D01*
X89521030Y-96624274D01*
X89461371Y-96587910D01*
X89430842Y-96525063D01*
X89439137Y-96455688D01*
X89483622Y-96401810D01*
X89550174Y-96380535D01*
X89553125Y-96380500D01*
X90249750Y-96380500D01*
X90249751Y-96380499D01*
X90264568Y-96377552D01*
X90308229Y-96368868D01*
X90308229Y-96368867D01*
X90308231Y-96368867D01*
X90374552Y-96324552D01*
X90418867Y-96258231D01*
X90418867Y-96258229D01*
X90418868Y-96258229D01*
X90430499Y-96199752D01*
X90430500Y-96199750D01*
X90430500Y-96144500D01*
X90450185Y-96077461D01*
X90502989Y-96031706D01*
X90554500Y-96020500D01*
X90841324Y-96020500D01*
X90908363Y-96040185D01*
X90929005Y-96056819D01*
X90992686Y-96120500D01*
X91106814Y-96186392D01*
X91234108Y-96220500D01*
X91234110Y-96220500D01*
X91365890Y-96220500D01*
X91365892Y-96220500D01*
X91493186Y-96186392D01*
X91607314Y-96120500D01*
X91700500Y-96027314D01*
X91766392Y-95913186D01*
X91800500Y-95785892D01*
X91800500Y-95654108D01*
X91766392Y-95526814D01*
X91700500Y-95412686D01*
X91607314Y-95319500D01*
X91538032Y-95279500D01*
X91493187Y-95253608D01*
X91416898Y-95233167D01*
X91365892Y-95219500D01*
X91234108Y-95219500D01*
X91106812Y-95253608D01*
X90992686Y-95319500D01*
X90992683Y-95319502D01*
X90929005Y-95383181D01*
X90867682Y-95416666D01*
X90841324Y-95419500D01*
X90554500Y-95419500D01*
X90487461Y-95399815D01*
X90441706Y-95347011D01*
X90435359Y-95329870D01*
X90430500Y-95313026D01*
X90430500Y-95260252D01*
X90418867Y-95201769D01*
X90382857Y-95147877D01*
X90377518Y-95129370D01*
X90377595Y-95112917D01*
X90372679Y-95097215D01*
X90377758Y-95078700D01*
X90377849Y-95059501D01*
X90386810Y-95045700D01*
X90391163Y-95029835D01*
X90393558Y-95026108D01*
X90418867Y-94988231D01*
X90418868Y-94988229D01*
X90430499Y-94929752D01*
X90430500Y-94929750D01*
X90430500Y-93990249D01*
X90430499Y-93990247D01*
X90418868Y-93931770D01*
X90418867Y-93931768D01*
X90393558Y-93893892D01*
X90372679Y-93827215D01*
X90391163Y-93759835D01*
X90393558Y-93756108D01*
X90418867Y-93718231D01*
X90418868Y-93718229D01*
X90427552Y-93674568D01*
X90430500Y-93659748D01*
X90430500Y-92720252D01*
X90430500Y-92720249D01*
X90430499Y-92720247D01*
X90418868Y-92661770D01*
X90418867Y-92661768D01*
X90393558Y-92623892D01*
X90372679Y-92557215D01*
X90391163Y-92489835D01*
X90393558Y-92486108D01*
X90418867Y-92448231D01*
X90418868Y-92448229D01*
X90430499Y-92389752D01*
X90430500Y-92389750D01*
X90430500Y-91450249D01*
X90430499Y-91450247D01*
X90418868Y-91391770D01*
X90418867Y-91391768D01*
X90393558Y-91353892D01*
X90372679Y-91287215D01*
X90391163Y-91219835D01*
X90393558Y-91216108D01*
X90418867Y-91178231D01*
X90418868Y-91178229D01*
X90430499Y-91119752D01*
X90430500Y-91119750D01*
X90430500Y-90180249D01*
X90430499Y-90180247D01*
X90418868Y-90121770D01*
X90418867Y-90121768D01*
X90393558Y-90083892D01*
X90372679Y-90017215D01*
X90391163Y-89949835D01*
X90393558Y-89946108D01*
X90418867Y-89908231D01*
X90418868Y-89908229D01*
X90430499Y-89849752D01*
X90430500Y-89849750D01*
X90430500Y-88910249D01*
X90430499Y-88910247D01*
X90418868Y-88851770D01*
X90418867Y-88851768D01*
X90393558Y-88813892D01*
X90372679Y-88747215D01*
X90391163Y-88679835D01*
X90393558Y-88676108D01*
X90418867Y-88638231D01*
X90418868Y-88638229D01*
X90430499Y-88579752D01*
X90430500Y-88579750D01*
X90430500Y-87640249D01*
X90430499Y-87640247D01*
X90418868Y-87581770D01*
X90418867Y-87581768D01*
X90393558Y-87543892D01*
X90372679Y-87477215D01*
X90391163Y-87409835D01*
X90393558Y-87406108D01*
X90418867Y-87368231D01*
X90418868Y-87368229D01*
X90430499Y-87309752D01*
X90430500Y-87309750D01*
X90430500Y-86370249D01*
X90430499Y-86370247D01*
X90418868Y-86311770D01*
X90418867Y-86311768D01*
X90393558Y-86273892D01*
X90372679Y-86207215D01*
X90391163Y-86139835D01*
X90393558Y-86136108D01*
X90418867Y-86098231D01*
X90418868Y-86098229D01*
X90430499Y-86039752D01*
X90430500Y-86039750D01*
X90430500Y-85442833D01*
X90450185Y-85375794D01*
X90502989Y-85330039D01*
X90572147Y-85320095D01*
X90635703Y-85349120D01*
X90642181Y-85355152D01*
X105362181Y-100075152D01*
X105395666Y-100136475D01*
X105398500Y-100162833D01*
X105398500Y-103557867D01*
X105392261Y-103579112D01*
X105390682Y-103601201D01*
X105382609Y-103611984D01*
X105378815Y-103624906D01*
X105362081Y-103639405D01*
X105348810Y-103657134D01*
X105336189Y-103661841D01*
X105326011Y-103670661D01*
X105304093Y-103673812D01*
X105283346Y-103681551D01*
X105270185Y-103678688D01*
X105256853Y-103680605D01*
X105236709Y-103671405D01*
X105215073Y-103666699D01*
X105197347Y-103653430D01*
X105193297Y-103651580D01*
X105186819Y-103645548D01*
X105139411Y-103598140D01*
X98990715Y-97449443D01*
X98990714Y-97449442D01*
X98990711Y-97449440D01*
X98976111Y-97441011D01*
X98976108Y-97441009D01*
X98922194Y-97409881D01*
X98922191Y-97409879D01*
X98883975Y-97399639D01*
X98845762Y-97389400D01*
X98845760Y-97389400D01*
X98710876Y-97389400D01*
X98643837Y-97369715D01*
X98623195Y-97353081D01*
X98559516Y-97289402D01*
X98559514Y-97289400D01*
X98482447Y-97244905D01*
X98445387Y-97223508D01*
X98381739Y-97206454D01*
X98318092Y-97189400D01*
X98186308Y-97189400D01*
X98059012Y-97223508D01*
X97944886Y-97289400D01*
X97944883Y-97289402D01*
X97851702Y-97382583D01*
X97851700Y-97382586D01*
X97785808Y-97496712D01*
X97755320Y-97610499D01*
X97751700Y-97624008D01*
X97751700Y-97755792D01*
X97764628Y-97804039D01*
X97785808Y-97883087D01*
X97814819Y-97933334D01*
X97851700Y-97997214D01*
X97944886Y-98090400D01*
X98059014Y-98156292D01*
X98186308Y-98190400D01*
X98186310Y-98190400D01*
X98318090Y-98190400D01*
X98318092Y-98190400D01*
X98445386Y-98156292D01*
X98559514Y-98090400D01*
X98582942Y-98066971D01*
X98644261Y-98033488D01*
X98713953Y-98038471D01*
X98758302Y-98066973D01*
X101109148Y-100417819D01*
X101142633Y-100479142D01*
X101137649Y-100548834D01*
X101095777Y-100604767D01*
X101030313Y-100629184D01*
X101021467Y-100629500D01*
X100976530Y-100629500D01*
X100773587Y-100669868D01*
X100773579Y-100669870D01*
X100582403Y-100749058D01*
X100410342Y-100864024D01*
X100264024Y-101010342D01*
X100149058Y-101182403D01*
X100069870Y-101373579D01*
X100069868Y-101373587D01*
X100029500Y-101576530D01*
X100029500Y-102083469D01*
X100069868Y-102286412D01*
X100069870Y-102286420D01*
X100138703Y-102452598D01*
X100149059Y-102477598D01*
X100182925Y-102528282D01*
X100264024Y-102649657D01*
X100410342Y-102795975D01*
X100410345Y-102795977D01*
X100582402Y-102910941D01*
X100773580Y-102990130D01*
X100971412Y-103029481D01*
X100976530Y-103030499D01*
X100976534Y-103030500D01*
X100976535Y-103030500D01*
X101183466Y-103030500D01*
X101183467Y-103030499D01*
X101386420Y-102990130D01*
X101577598Y-102910941D01*
X101749655Y-102795977D01*
X101895977Y-102649655D01*
X102010941Y-102477598D01*
X102090130Y-102286420D01*
X102130500Y-102083465D01*
X102130500Y-101738533D01*
X102150185Y-101671494D01*
X102202989Y-101625739D01*
X102272147Y-101615795D01*
X102335703Y-101644820D01*
X102342181Y-101650852D01*
X104618081Y-103926752D01*
X104651566Y-103988075D01*
X104654400Y-104014433D01*
X104654400Y-106002823D01*
X104634715Y-106069862D01*
X104618082Y-106090504D01*
X104554400Y-106154186D01*
X104488508Y-106268312D01*
X104458269Y-106381170D01*
X104454400Y-106395608D01*
X104454400Y-106527392D01*
X104461312Y-106553187D01*
X104488508Y-106654687D01*
X104515011Y-106700591D01*
X104554400Y-106768814D01*
X104647586Y-106862000D01*
X104722012Y-106904970D01*
X104761710Y-106927890D01*
X104761714Y-106927892D01*
X104889008Y-106962000D01*
X104889010Y-106962000D01*
X105020790Y-106962000D01*
X105020792Y-106962000D01*
X105148086Y-106927892D01*
X105212499Y-106890702D01*
X105280399Y-106874229D01*
X105346426Y-106897081D01*
X105389617Y-106952001D01*
X105398500Y-106998089D01*
X105398500Y-107258562D01*
X105410676Y-107304003D01*
X105418979Y-107334990D01*
X105418980Y-107334991D01*
X105433344Y-107359870D01*
X105433345Y-107359871D01*
X105458539Y-107403509D01*
X105458541Y-107403512D01*
X105862924Y-107807895D01*
X105896409Y-107869218D01*
X105891425Y-107938910D01*
X105889804Y-107943029D01*
X105839870Y-108063579D01*
X105839868Y-108063587D01*
X105799500Y-108266530D01*
X105799500Y-108325167D01*
X105779815Y-108392206D01*
X105727011Y-108437961D01*
X105657853Y-108447905D01*
X105594297Y-108418880D01*
X105587819Y-108412848D01*
X99666819Y-102491848D01*
X99633334Y-102430525D01*
X99630500Y-102404167D01*
X99630500Y-101025730D01*
X99627646Y-100995300D01*
X99627646Y-100995298D01*
X99588124Y-100882353D01*
X99582793Y-100867118D01*
X99502150Y-100757850D01*
X99392882Y-100677207D01*
X99392880Y-100677206D01*
X99264700Y-100632353D01*
X99234270Y-100629500D01*
X99234266Y-100629500D01*
X97925734Y-100629500D01*
X97925730Y-100629500D01*
X97895300Y-100632353D01*
X97895298Y-100632353D01*
X97767119Y-100677206D01*
X97767117Y-100677207D01*
X97657850Y-100757850D01*
X97577207Y-100867117D01*
X97577206Y-100867119D01*
X97532353Y-100995298D01*
X97532353Y-100995300D01*
X97529500Y-101025730D01*
X97529500Y-102634269D01*
X97532353Y-102664699D01*
X97532353Y-102664701D01*
X97577206Y-102792880D01*
X97577207Y-102792882D01*
X97657850Y-102902150D01*
X97767118Y-102982793D01*
X97788089Y-102990131D01*
X97895299Y-103027646D01*
X97925730Y-103030500D01*
X97925734Y-103030500D01*
X99234270Y-103030500D01*
X99264690Y-103027647D01*
X99264691Y-103027646D01*
X99264699Y-103027646D01*
X99264706Y-103027643D01*
X99270678Y-103026339D01*
X99340374Y-103031259D01*
X99384829Y-103059800D01*
X106216599Y-109891570D01*
X106250084Y-109952893D01*
X106245100Y-110022585D01*
X106203228Y-110078518D01*
X106197811Y-110082352D01*
X106180343Y-110094023D01*
X106034024Y-110240342D01*
X105919058Y-110412403D01*
X105839870Y-110603579D01*
X105839868Y-110603587D01*
X105799500Y-110806530D01*
X105799500Y-111013463D01*
X105816111Y-111096976D01*
X105809882Y-111166567D01*
X105767019Y-111221744D01*
X105701129Y-111244988D01*
X105633132Y-111228920D01*
X105606812Y-111208848D01*
X97387410Y-102989539D01*
X97340062Y-102962203D01*
X97340060Y-102962202D01*
X97332423Y-102957793D01*
X97318889Y-102949979D01*
X97318888Y-102949978D01*
X97318887Y-102949978D01*
X97295275Y-102943651D01*
X97295270Y-102943649D01*
X97283418Y-102940474D01*
X97283418Y-102940473D01*
X97242463Y-102929500D01*
X97242462Y-102929500D01*
X92440495Y-102929500D01*
X92373456Y-102909815D01*
X92327701Y-102857011D01*
X92317757Y-102787853D01*
X92346782Y-102724297D01*
X92352814Y-102717819D01*
X92445974Y-102624658D01*
X92445975Y-102624657D01*
X92445977Y-102624655D01*
X92560941Y-102452598D01*
X92640130Y-102261420D01*
X92680500Y-102058465D01*
X92680500Y-101601535D01*
X92640130Y-101398580D01*
X92560941Y-101207402D01*
X92445977Y-101035345D01*
X92445975Y-101035342D01*
X92299657Y-100889024D01*
X92181431Y-100810029D01*
X92127598Y-100774059D01*
X92127593Y-100774057D01*
X91936420Y-100694870D01*
X91936412Y-100694868D01*
X91733469Y-100654500D01*
X91733465Y-100654500D01*
X91526535Y-100654500D01*
X91526530Y-100654500D01*
X91323587Y-100694868D01*
X91323579Y-100694870D01*
X91132403Y-100774058D01*
X90960342Y-100889024D01*
X90814024Y-101035342D01*
X90699058Y-101207403D01*
X90619870Y-101398579D01*
X90619868Y-101398587D01*
X90579500Y-101601530D01*
X90579500Y-102058469D01*
X90619868Y-102261412D01*
X90619870Y-102261419D01*
X90619870Y-102261420D01*
X90633145Y-102293469D01*
X90633192Y-102293581D01*
X90640661Y-102363050D01*
X90609386Y-102425529D01*
X90606312Y-102428715D01*
X87011848Y-106023181D01*
X86950525Y-106056666D01*
X86924167Y-106059500D01*
X83388676Y-106059500D01*
X83365807Y-106052784D01*
X83342090Y-106050416D01*
X83329639Y-106042164D01*
X83321637Y-106039815D01*
X83311601Y-106032636D01*
X83306027Y-106028213D01*
X83237314Y-105959500D01*
X83171650Y-105921589D01*
X83164487Y-105915905D01*
X83149403Y-105894526D01*
X83131346Y-105875588D01*
X83129581Y-105866432D01*
X83124207Y-105858815D01*
X83123075Y-105832674D01*
X83118124Y-105806981D01*
X83121589Y-105798325D01*
X83121186Y-105789011D01*
X83134366Y-105766408D01*
X83144092Y-105742116D01*
X83153873Y-105731096D01*
X85846505Y-103038464D01*
X85907826Y-103004981D01*
X85945761Y-103002689D01*
X85975734Y-103005500D01*
X87284270Y-103005500D01*
X87314699Y-103002646D01*
X87314701Y-103002646D01*
X87378790Y-102980219D01*
X87442882Y-102957793D01*
X87552150Y-102877150D01*
X87632793Y-102767882D01*
X87655219Y-102703790D01*
X87677646Y-102639701D01*
X87677646Y-102639699D01*
X87680500Y-102609269D01*
X87680500Y-101050730D01*
X87677646Y-101020300D01*
X87677646Y-101020298D01*
X87632793Y-100892119D01*
X87632792Y-100892117D01*
X87552150Y-100782850D01*
X87442882Y-100702207D01*
X87442880Y-100702206D01*
X87314700Y-100657353D01*
X87284270Y-100654500D01*
X87284266Y-100654500D01*
X85975734Y-100654500D01*
X85975730Y-100654500D01*
X85945300Y-100657353D01*
X85945298Y-100657353D01*
X85817119Y-100702206D01*
X85817117Y-100702207D01*
X85707850Y-100782850D01*
X85627207Y-100892117D01*
X85627206Y-100892119D01*
X85582353Y-101020298D01*
X85582353Y-101020300D01*
X85579500Y-101050730D01*
X85579500Y-102404167D01*
X85559815Y-102471206D01*
X85543181Y-102491848D01*
X82651848Y-105383181D01*
X82590525Y-105416666D01*
X82564167Y-105419500D01*
X79972205Y-105419500D01*
X79905166Y-105399815D01*
X79859411Y-105347011D01*
X79849467Y-105277853D01*
X79852430Y-105263407D01*
X79861757Y-105228597D01*
X79873200Y-105185892D01*
X79873200Y-105054108D01*
X79839092Y-104926814D01*
X79773200Y-104812686D01*
X79680014Y-104719500D01*
X79622950Y-104686554D01*
X79565887Y-104653608D01*
X79502239Y-104636554D01*
X79438592Y-104619500D01*
X79306808Y-104619500D01*
X79179512Y-104653608D01*
X79065386Y-104719500D01*
X79065383Y-104719502D01*
X79001705Y-104783181D01*
X78940382Y-104816666D01*
X78914024Y-104819500D01*
X75959505Y-104819500D01*
X75892466Y-104799815D01*
X75846711Y-104747011D01*
X75836767Y-104677853D01*
X75839730Y-104663407D01*
X75860500Y-104585892D01*
X75860500Y-104454108D01*
X75826392Y-104326814D01*
X75760500Y-104212686D01*
X75667314Y-104119500D01*
X75610250Y-104086554D01*
X75553187Y-104053608D01*
X75483780Y-104035011D01*
X75443765Y-104024289D01*
X75384106Y-103987925D01*
X75353577Y-103925078D01*
X75361872Y-103855703D01*
X75381273Y-103827042D01*
X75380253Y-103826260D01*
X75385192Y-103819821D01*
X75385200Y-103819814D01*
X75451092Y-103705686D01*
X75485200Y-103578392D01*
X75485200Y-103446608D01*
X75451092Y-103319314D01*
X75385200Y-103205186D01*
X75292014Y-103112000D01*
X75221830Y-103071479D01*
X75173614Y-103020912D01*
X75160392Y-102952305D01*
X75186360Y-102887440D01*
X75214935Y-102860992D01*
X75349655Y-102770977D01*
X75495977Y-102624655D01*
X75610941Y-102452598D01*
X75690130Y-102261420D01*
X75730500Y-102058465D01*
X75730500Y-101601535D01*
X75730499Y-101601530D01*
X76129500Y-101601530D01*
X76129500Y-102058469D01*
X76169868Y-102261412D01*
X76169870Y-102261420D01*
X76237846Y-102425529D01*
X76249059Y-102452598D01*
X76275285Y-102491848D01*
X76364024Y-102624657D01*
X76510342Y-102770975D01*
X76510345Y-102770977D01*
X76682402Y-102885941D01*
X76873580Y-102965130D01*
X77042686Y-102998767D01*
X77076530Y-103005499D01*
X77076534Y-103005500D01*
X77076535Y-103005500D01*
X77283466Y-103005500D01*
X77283467Y-103005499D01*
X77486420Y-102965130D01*
X77677598Y-102885941D01*
X77849655Y-102770977D01*
X77995977Y-102624655D01*
X78110941Y-102452598D01*
X78190130Y-102261420D01*
X78230500Y-102058465D01*
X78230500Y-101601535D01*
X78230499Y-101601530D01*
X78629500Y-101601530D01*
X78629500Y-102058469D01*
X78669868Y-102261412D01*
X78669870Y-102261420D01*
X78737846Y-102425529D01*
X78749059Y-102452598D01*
X78775285Y-102491848D01*
X78864024Y-102624657D01*
X79010342Y-102770975D01*
X79010345Y-102770977D01*
X79182402Y-102885941D01*
X79373580Y-102965130D01*
X79542686Y-102998767D01*
X79576530Y-103005499D01*
X79576534Y-103005500D01*
X79576535Y-103005500D01*
X79783466Y-103005500D01*
X79783467Y-103005499D01*
X79986420Y-102965130D01*
X80177598Y-102885941D01*
X80349655Y-102770977D01*
X80495977Y-102624655D01*
X80610941Y-102452598D01*
X80690130Y-102261420D01*
X80730500Y-102058465D01*
X80730500Y-101601535D01*
X80690130Y-101398580D01*
X80610941Y-101207402D01*
X80495977Y-101035345D01*
X80495975Y-101035342D01*
X80349657Y-100889024D01*
X80231431Y-100810029D01*
X80177598Y-100774059D01*
X80177593Y-100774057D01*
X79986420Y-100694870D01*
X79986412Y-100694868D01*
X79783469Y-100654500D01*
X79783465Y-100654500D01*
X79576535Y-100654500D01*
X79576530Y-100654500D01*
X79373587Y-100694868D01*
X79373579Y-100694870D01*
X79182403Y-100774058D01*
X79010342Y-100889024D01*
X78864024Y-101035342D01*
X78749058Y-101207403D01*
X78669870Y-101398579D01*
X78669868Y-101398587D01*
X78629500Y-101601530D01*
X78230499Y-101601530D01*
X78190130Y-101398580D01*
X78110941Y-101207402D01*
X77995977Y-101035345D01*
X77995975Y-101035342D01*
X77849657Y-100889024D01*
X77731431Y-100810029D01*
X77677598Y-100774059D01*
X77677593Y-100774057D01*
X77486420Y-100694870D01*
X77486412Y-100694868D01*
X77283469Y-100654500D01*
X77283465Y-100654500D01*
X77076535Y-100654500D01*
X77076530Y-100654500D01*
X76873587Y-100694868D01*
X76873579Y-100694870D01*
X76682403Y-100774058D01*
X76510342Y-100889024D01*
X76364024Y-101035342D01*
X76249058Y-101207403D01*
X76169870Y-101398579D01*
X76169868Y-101398587D01*
X76129500Y-101601530D01*
X75730499Y-101601530D01*
X75690130Y-101398580D01*
X75610941Y-101207402D01*
X75495977Y-101035345D01*
X75495975Y-101035342D01*
X75349657Y-100889024D01*
X75231431Y-100810029D01*
X75177598Y-100774059D01*
X75177593Y-100774057D01*
X74986420Y-100694870D01*
X74986412Y-100694868D01*
X74783469Y-100654500D01*
X74783465Y-100654500D01*
X74576535Y-100654500D01*
X74576530Y-100654500D01*
X74373587Y-100694868D01*
X74373579Y-100694870D01*
X74182403Y-100774058D01*
X74010342Y-100889024D01*
X73864024Y-101035342D01*
X73749058Y-101207403D01*
X73669870Y-101398579D01*
X73669868Y-101398587D01*
X73629500Y-101601530D01*
X73629500Y-102058469D01*
X73669868Y-102261412D01*
X73669870Y-102261420D01*
X73737846Y-102425529D01*
X73749059Y-102452598D01*
X73775285Y-102491848D01*
X73864024Y-102624657D01*
X74010342Y-102770975D01*
X74010345Y-102770977D01*
X74182402Y-102885941D01*
X74373580Y-102965130D01*
X74376493Y-102965709D01*
X74379877Y-102966383D01*
X74441788Y-102998767D01*
X74476362Y-103059483D01*
X74472623Y-103129252D01*
X74431757Y-103185925D01*
X74366739Y-103211506D01*
X74355686Y-103212000D01*
X74038333Y-103212000D01*
X73971294Y-103192315D01*
X73950652Y-103175681D01*
X73203687Y-102428716D01*
X73170202Y-102367393D01*
X73175186Y-102297701D01*
X73176790Y-102293624D01*
X73190130Y-102261420D01*
X73230500Y-102058465D01*
X73230500Y-101601535D01*
X73190130Y-101398580D01*
X73110941Y-101207402D01*
X72995977Y-101035345D01*
X72995975Y-101035342D01*
X72849657Y-100889024D01*
X72731431Y-100810029D01*
X72677598Y-100774059D01*
X72677593Y-100774057D01*
X72486420Y-100694870D01*
X72486412Y-100694868D01*
X72283469Y-100654500D01*
X72283465Y-100654500D01*
X72076535Y-100654500D01*
X72076530Y-100654500D01*
X71873587Y-100694868D01*
X71873579Y-100694870D01*
X71682403Y-100774058D01*
X71510342Y-100889024D01*
X71364024Y-101035342D01*
X71249058Y-101207403D01*
X71169870Y-101398579D01*
X71169868Y-101398587D01*
X71129500Y-101601530D01*
X71129500Y-102058469D01*
X71169868Y-102261412D01*
X71169870Y-102261420D01*
X71237846Y-102425529D01*
X71249059Y-102452598D01*
X71275285Y-102491848D01*
X71364024Y-102624657D01*
X71510342Y-102770975D01*
X71510345Y-102770977D01*
X71682402Y-102885941D01*
X71873580Y-102965130D01*
X72042686Y-102998767D01*
X72076530Y-103005499D01*
X72076534Y-103005500D01*
X72076535Y-103005500D01*
X72283466Y-103005500D01*
X72283467Y-103005499D01*
X72486420Y-102965130D01*
X72677598Y-102885941D01*
X72677605Y-102885935D01*
X72682965Y-102883072D01*
X72684287Y-102885545D01*
X72739385Y-102868182D01*
X72806799Y-102886544D01*
X72829506Y-102904477D01*
X73622040Y-103697011D01*
X73677989Y-103752960D01*
X73677991Y-103752961D01*
X73677995Y-103752964D01*
X73742144Y-103790000D01*
X73746511Y-103792521D01*
X73822938Y-103813000D01*
X74526024Y-103813000D01*
X74593063Y-103832685D01*
X74613705Y-103849319D01*
X74677386Y-103913000D01*
X74791514Y-103978892D01*
X74791516Y-103978893D01*
X74796453Y-103980938D01*
X74850857Y-104024777D01*
X74872924Y-104091071D01*
X74855646Y-104158771D01*
X74804510Y-104206383D01*
X74749003Y-104219500D01*
X61275914Y-104219500D01*
X61208875Y-104199815D01*
X61188240Y-104183188D01*
X60835826Y-103830832D01*
X60821117Y-103803900D01*
X60804523Y-103778079D01*
X60803632Y-103771885D01*
X60802336Y-103769512D01*
X60799500Y-103743144D01*
X60799500Y-103596868D01*
X60819185Y-103529829D01*
X60835831Y-103509175D01*
X61028973Y-103316087D01*
X61029051Y-103316020D01*
X61064036Y-103281035D01*
X61064050Y-103281021D01*
X61090318Y-103254759D01*
X61091432Y-103253682D01*
X61091529Y-103253549D01*
X61091534Y-103253545D01*
X61091537Y-103253539D01*
X61091552Y-103253517D01*
X61091560Y-103253511D01*
X61091568Y-103253496D01*
X61091760Y-103253236D01*
X61092670Y-103251587D01*
X61108497Y-103224174D01*
X61111084Y-103219693D01*
X61111093Y-103219677D01*
X61129615Y-103187607D01*
X61129616Y-103187606D01*
X61131105Y-103185028D01*
X61131105Y-103185026D01*
X61131113Y-103185013D01*
X61131118Y-103184993D01*
X61131121Y-103184989D01*
X61141375Y-103146720D01*
X61141376Y-103146716D01*
X61141378Y-103146716D01*
X61141378Y-103146706D01*
X61151594Y-103108605D01*
X61151594Y-103108597D01*
X61151595Y-103108594D01*
X61151598Y-103108567D01*
X61151600Y-103108562D01*
X61151600Y-103108556D01*
X61152322Y-103103165D01*
X61180722Y-103039328D01*
X61239127Y-103000979D01*
X61308993Y-103000294D01*
X61348112Y-103019290D01*
X61472442Y-103109620D01*
X61661782Y-103206095D01*
X61863871Y-103271757D01*
X61930000Y-103282231D01*
X61930000Y-102234145D01*
X61996657Y-102272630D01*
X62117465Y-102305000D01*
X62242535Y-102305000D01*
X62363343Y-102272630D01*
X62430000Y-102234145D01*
X62430000Y-103282230D01*
X62496126Y-103271757D01*
X62496129Y-103271757D01*
X62698217Y-103206095D01*
X62887557Y-103109620D01*
X63059459Y-102984727D01*
X63059464Y-102984723D01*
X63209723Y-102834464D01*
X63209727Y-102834459D01*
X63334620Y-102662557D01*
X63431095Y-102473217D01*
X63470759Y-102351144D01*
X63510196Y-102293469D01*
X63574555Y-102266270D01*
X63643401Y-102278184D01*
X63694877Y-102325428D01*
X63703251Y-102342009D01*
X63749057Y-102452596D01*
X63864024Y-102624657D01*
X64010342Y-102770975D01*
X64010345Y-102770977D01*
X64182402Y-102885941D01*
X64373580Y-102965130D01*
X64542686Y-102998767D01*
X64576530Y-103005499D01*
X64576534Y-103005500D01*
X64576535Y-103005500D01*
X64783466Y-103005500D01*
X64783467Y-103005499D01*
X64986420Y-102965130D01*
X65177598Y-102885941D01*
X65349655Y-102770977D01*
X65495977Y-102624655D01*
X65610941Y-102452598D01*
X65690130Y-102261420D01*
X65730500Y-102058465D01*
X65730500Y-101601535D01*
X65730499Y-101601530D01*
X66129500Y-101601530D01*
X66129500Y-102058469D01*
X66169868Y-102261412D01*
X66169870Y-102261420D01*
X66237846Y-102425529D01*
X66249059Y-102452598D01*
X66275285Y-102491848D01*
X66364024Y-102624657D01*
X66510342Y-102770975D01*
X66510345Y-102770977D01*
X66682402Y-102885941D01*
X66873580Y-102965130D01*
X67042686Y-102998767D01*
X67076530Y-103005499D01*
X67076534Y-103005500D01*
X67076535Y-103005500D01*
X67283466Y-103005500D01*
X67283467Y-103005499D01*
X67486420Y-102965130D01*
X67677598Y-102885941D01*
X67849655Y-102770977D01*
X67995977Y-102624655D01*
X68110941Y-102452598D01*
X68190130Y-102261420D01*
X68230500Y-102058465D01*
X68230500Y-101601535D01*
X68190130Y-101398580D01*
X68110941Y-101207402D01*
X67995977Y-101035345D01*
X67995975Y-101035342D01*
X67849657Y-100889024D01*
X67677595Y-100774057D01*
X67557047Y-100724124D01*
X67502643Y-100680282D01*
X67480579Y-100613988D01*
X67480500Y-100609563D01*
X67480500Y-98124532D01*
X67500185Y-98057493D01*
X67516815Y-98036855D01*
X67863151Y-97690518D01*
X67924474Y-97657034D01*
X67950832Y-97654200D01*
X68040890Y-97654200D01*
X68040892Y-97654200D01*
X68168186Y-97620092D01*
X68282314Y-97554200D01*
X68375500Y-97461014D01*
X68441392Y-97346886D01*
X68475500Y-97219592D01*
X68475500Y-97087808D01*
X68441392Y-96960514D01*
X68375500Y-96846386D01*
X68282314Y-96753200D01*
X68206624Y-96709500D01*
X68168187Y-96687308D01*
X68104539Y-96670254D01*
X68040892Y-96653200D01*
X67909108Y-96653200D01*
X67781812Y-96687308D01*
X67667686Y-96753200D01*
X67667683Y-96753202D01*
X67574502Y-96846383D01*
X67574500Y-96846386D01*
X67508608Y-96960512D01*
X67474500Y-97087808D01*
X67474500Y-97177866D01*
X67454815Y-97244905D01*
X67438181Y-97265547D01*
X66995489Y-97708240D01*
X66939541Y-97764187D01*
X66939535Y-97764195D01*
X66899982Y-97832704D01*
X66899979Y-97832709D01*
X66889269Y-97872679D01*
X66884317Y-97891163D01*
X66879500Y-97909139D01*
X66879500Y-100609563D01*
X66859815Y-100676602D01*
X66807011Y-100722357D01*
X66802953Y-100724124D01*
X66682404Y-100774057D01*
X66510342Y-100889024D01*
X66364024Y-101035342D01*
X66249058Y-101207403D01*
X66169870Y-101398579D01*
X66169868Y-101398587D01*
X66129500Y-101601530D01*
X65730499Y-101601530D01*
X65690130Y-101398580D01*
X65610941Y-101207402D01*
X65495977Y-101035345D01*
X65495975Y-101035342D01*
X65349657Y-100889024D01*
X65231431Y-100810029D01*
X65177598Y-100774059D01*
X65177593Y-100774057D01*
X64986420Y-100694870D01*
X64986412Y-100694868D01*
X64783469Y-100654500D01*
X64783465Y-100654500D01*
X64576535Y-100654500D01*
X64576530Y-100654500D01*
X64373587Y-100694868D01*
X64373579Y-100694870D01*
X64182403Y-100774058D01*
X64010342Y-100889024D01*
X63864024Y-101035342D01*
X63749057Y-101207404D01*
X63703251Y-101317990D01*
X63659409Y-101372394D01*
X63593115Y-101394458D01*
X63525416Y-101377178D01*
X63477806Y-101326041D01*
X63470759Y-101308855D01*
X63431095Y-101186782D01*
X63334620Y-100997442D01*
X63209727Y-100825540D01*
X63209723Y-100825535D01*
X63059464Y-100675276D01*
X63059459Y-100675272D01*
X62887557Y-100550379D01*
X62698215Y-100453903D01*
X62496124Y-100388241D01*
X62430000Y-100377768D01*
X62430000Y-101425854D01*
X62363343Y-101387370D01*
X62242535Y-101355000D01*
X62117465Y-101355000D01*
X61996657Y-101387370D01*
X61930000Y-101425854D01*
X61930000Y-100377768D01*
X61929999Y-100377768D01*
X61863875Y-100388241D01*
X61661784Y-100453903D01*
X61472442Y-100550379D01*
X61300540Y-100675272D01*
X61300534Y-100675277D01*
X61282971Y-100692840D01*
X61221647Y-100726324D01*
X61151956Y-100721338D01*
X61105670Y-100690854D01*
X61095361Y-100680073D01*
X61091560Y-100673489D01*
X61035611Y-100617540D01*
X60580904Y-100162833D01*
X60107613Y-99689541D01*
X60107563Y-99689512D01*
X60039089Y-99649979D01*
X60039090Y-99649979D01*
X60011323Y-99642539D01*
X59962662Y-99629500D01*
X59962660Y-99629500D01*
X59470063Y-99629500D01*
X59468823Y-99629500D01*
X59429261Y-99629497D01*
X59429250Y-99629500D01*
X59429238Y-99629500D01*
X59426043Y-99630355D01*
X59426040Y-99630356D01*
X59390700Y-99639826D01*
X59390695Y-99639827D01*
X59352837Y-99649968D01*
X59352820Y-99649974D01*
X59352807Y-99649980D01*
X59318651Y-99669700D01*
X59318593Y-99669733D01*
X59318129Y-99670002D01*
X59284307Y-99689526D01*
X59284298Y-99689534D01*
X59284289Y-99689540D01*
X59283371Y-99690457D01*
X59283367Y-99690460D01*
X59257982Y-99715845D01*
X59257979Y-99715849D01*
X57316837Y-101656695D01*
X57316836Y-101656694D01*
X57294531Y-101678996D01*
X57283381Y-101690147D01*
X57283378Y-101690150D01*
X57257045Y-101716479D01*
X57257044Y-101716481D01*
X57237101Y-101751023D01*
X57237098Y-101751028D01*
X57215883Y-101787768D01*
X57165313Y-101835980D01*
X57096705Y-101849199D01*
X57031842Y-101823227D01*
X56991317Y-101766310D01*
X56984500Y-101725761D01*
X56984500Y-96699833D01*
X57004185Y-96632794D01*
X57020819Y-96612152D01*
X61137241Y-92495730D01*
X62374500Y-92495730D01*
X62374500Y-93504269D01*
X62377353Y-93534699D01*
X62377353Y-93534701D01*
X62422206Y-93662880D01*
X62422207Y-93662882D01*
X62502850Y-93772150D01*
X62612118Y-93852793D01*
X62648284Y-93865448D01*
X62740299Y-93897646D01*
X62770730Y-93900500D01*
X62770734Y-93900500D01*
X63404270Y-93900500D01*
X63434699Y-93897646D01*
X63434701Y-93897646D01*
X63498790Y-93875219D01*
X63562882Y-93852793D01*
X63672150Y-93772150D01*
X63752793Y-93662882D01*
X63785751Y-93568693D01*
X63797646Y-93534701D01*
X63797646Y-93534699D01*
X63800500Y-93504269D01*
X63800500Y-92495730D01*
X63797646Y-92465300D01*
X63797646Y-92465298D01*
X63752793Y-92337119D01*
X63752792Y-92337117D01*
X63750688Y-92334266D01*
X63672150Y-92227850D01*
X63562882Y-92147207D01*
X63562880Y-92147206D01*
X63434700Y-92102353D01*
X63404270Y-92099500D01*
X63404266Y-92099500D01*
X62770734Y-92099500D01*
X62770730Y-92099500D01*
X62740300Y-92102353D01*
X62740298Y-92102353D01*
X62612119Y-92147206D01*
X62612117Y-92147207D01*
X62502850Y-92227850D01*
X62422207Y-92337117D01*
X62422206Y-92337119D01*
X62377353Y-92465298D01*
X62377353Y-92465300D01*
X62374500Y-92495730D01*
X61137241Y-92495730D01*
X70817819Y-82815152D01*
X70879142Y-82781667D01*
X70948834Y-82786651D01*
G37*
%TD.AperFunction*%
%TA.AperFunction,Conductor*%
G36*
X63365888Y-108620854D02*
G01*
X63385300Y-108627646D01*
X63415730Y-108630500D01*
X63415734Y-108630500D01*
X63988429Y-108630500D01*
X64055468Y-108650185D01*
X64076126Y-108666834D01*
X64367200Y-108958033D01*
X64400672Y-109019363D01*
X64403500Y-109045695D01*
X64403500Y-109135892D01*
X64414636Y-109177451D01*
X64437608Y-109263187D01*
X64466973Y-109314048D01*
X64499558Y-109370487D01*
X64503502Y-109377317D01*
X64508281Y-109383545D01*
X64533475Y-109448715D01*
X64519436Y-109517160D01*
X64470622Y-109567149D01*
X64402530Y-109582812D01*
X64344808Y-109564569D01*
X64314130Y-109545646D01*
X64314119Y-109545641D01*
X64147697Y-109490494D01*
X64147690Y-109490493D01*
X64044986Y-109480000D01*
X63982500Y-109480000D01*
X63982500Y-110556000D01*
X63962815Y-110623039D01*
X63910011Y-110668794D01*
X63858500Y-110680000D01*
X63606500Y-110680000D01*
X63539461Y-110660315D01*
X63493706Y-110607511D01*
X63482500Y-110556000D01*
X63482500Y-109480000D01*
X63482499Y-109479999D01*
X63420028Y-109480000D01*
X63420011Y-109480001D01*
X63317302Y-109490494D01*
X63150880Y-109545641D01*
X63150875Y-109545643D01*
X63001654Y-109637684D01*
X62877684Y-109761654D01*
X62785643Y-109910875D01*
X62785640Y-109910883D01*
X62770698Y-109955974D01*
X62730925Y-110013418D01*
X62666409Y-110040240D01*
X62597633Y-110027924D01*
X62553223Y-109990601D01*
X62492151Y-109907851D01*
X62382882Y-109827207D01*
X62330159Y-109808758D01*
X62273383Y-109768035D01*
X62247637Y-109703082D01*
X62261094Y-109634521D01*
X62283431Y-109604039D01*
X63237256Y-108650213D01*
X63298577Y-108616730D01*
X63365888Y-108620854D01*
G37*
%TD.AperFunction*%
%TA.AperFunction,Conductor*%
G36*
X79850000Y-109361500D02*
G01*
X79830315Y-109428539D01*
X79777511Y-109474294D01*
X79726000Y-109485500D01*
X79474000Y-109485500D01*
X79406961Y-109465815D01*
X79361206Y-109413011D01*
X79350000Y-109361500D01*
X79350000Y-109151988D01*
X79359940Y-109169205D01*
X79415795Y-109225060D01*
X79484204Y-109264556D01*
X79560504Y-109285000D01*
X79639496Y-109285000D01*
X79715796Y-109264556D01*
X79784205Y-109225060D01*
X79840060Y-109169205D01*
X79850000Y-109151988D01*
X79850000Y-109361500D01*
G37*
%TD.AperFunction*%
%TA.AperFunction,Conductor*%
G36*
X82365201Y-106027543D02*
G01*
X82390025Y-106030512D01*
X82398146Y-106037217D01*
X82408252Y-106040185D01*
X82424623Y-106059078D01*
X82443903Y-106074997D01*
X82447110Y-106085029D01*
X82454007Y-106092989D01*
X82457565Y-106117734D01*
X82465178Y-106141549D01*
X82463276Y-106157454D01*
X82463951Y-106162147D01*
X82460988Y-106176589D01*
X82429500Y-106294108D01*
X82429500Y-106425892D01*
X82442038Y-106472686D01*
X82463608Y-106553187D01*
X82496554Y-106610250D01*
X82529500Y-106667314D01*
X82622686Y-106760500D01*
X82701498Y-106806002D01*
X82735620Y-106825703D01*
X82736814Y-106826392D01*
X82864108Y-106860500D01*
X82864110Y-106860500D01*
X82995890Y-106860500D01*
X82995892Y-106860500D01*
X83123186Y-106826392D01*
X83237314Y-106760500D01*
X83300995Y-106696819D01*
X83362318Y-106663334D01*
X83388676Y-106660500D01*
X86763967Y-106660500D01*
X86831006Y-106680185D01*
X86876761Y-106732989D01*
X86886705Y-106802147D01*
X86857680Y-106865703D01*
X86851648Y-106872181D01*
X84274648Y-109449181D01*
X84213325Y-109482666D01*
X84186967Y-109485500D01*
X80660658Y-109485500D01*
X80593619Y-109465815D01*
X80547864Y-109413011D01*
X80537920Y-109343853D01*
X80546097Y-109314048D01*
X80561569Y-109276693D01*
X80561572Y-109276681D01*
X80599999Y-109083495D01*
X80600000Y-109083492D01*
X80600000Y-108685000D01*
X79900000Y-108685000D01*
X79900000Y-108185000D01*
X80600000Y-108185000D01*
X80600000Y-107786508D01*
X80599999Y-107786504D01*
X80561572Y-107593318D01*
X80561569Y-107593306D01*
X80486192Y-107411328D01*
X80486185Y-107411315D01*
X80376751Y-107247537D01*
X80376748Y-107247533D01*
X80237466Y-107108251D01*
X80237462Y-107108248D01*
X80073684Y-106998814D01*
X80073671Y-106998807D01*
X79891691Y-106923429D01*
X79891683Y-106923427D01*
X79850000Y-106915135D01*
X79850000Y-107718011D01*
X79840060Y-107700795D01*
X79784205Y-107644940D01*
X79715796Y-107605444D01*
X79639496Y-107585000D01*
X79560504Y-107585000D01*
X79484204Y-107605444D01*
X79415795Y-107644940D01*
X79359940Y-107700795D01*
X79350000Y-107718011D01*
X79350000Y-106915136D01*
X79349999Y-106915135D01*
X79308316Y-106923427D01*
X79308308Y-106923429D01*
X79193483Y-106970991D01*
X79173606Y-106973127D01*
X79154875Y-106980114D01*
X79139579Y-106976786D01*
X79124013Y-106978460D01*
X79106134Y-106969510D01*
X79086602Y-106965261D01*
X79064315Y-106948576D01*
X79061534Y-106947184D01*
X79058348Y-106944109D01*
X79034134Y-106919894D01*
X79000650Y-106858571D01*
X79005636Y-106788879D01*
X79047509Y-106732946D01*
X79059819Y-106724827D01*
X79060500Y-106724434D01*
X79067314Y-106720500D01*
X79160500Y-106627314D01*
X79226392Y-106513186D01*
X79260500Y-106385892D01*
X79260500Y-106254108D01*
X79239730Y-106176592D01*
X79241393Y-106106743D01*
X79280556Y-106048881D01*
X79344784Y-106021377D01*
X79359505Y-106020500D01*
X82341213Y-106020500D01*
X82365201Y-106027543D01*
G37*
%TD.AperFunction*%
%TA.AperFunction,Conductor*%
G36*
X93329363Y-103550185D02*
G01*
X93375118Y-103602989D01*
X93385062Y-103672147D01*
X93356037Y-103735703D01*
X93350005Y-103742181D01*
X93329502Y-103762683D01*
X93329500Y-103762686D01*
X93263608Y-103876812D01*
X93229500Y-104004108D01*
X93229500Y-104094166D01*
X93209815Y-104161205D01*
X93193181Y-104181847D01*
X91445489Y-105929540D01*
X91389541Y-105985487D01*
X91389535Y-105985495D01*
X91349982Y-106054004D01*
X91349979Y-106054009D01*
X91337348Y-106101150D01*
X91332905Y-106117733D01*
X91329500Y-106130439D01*
X91329500Y-108409563D01*
X91309815Y-108476602D01*
X91257011Y-108522357D01*
X91252953Y-108524124D01*
X91132404Y-108574057D01*
X90960342Y-108689024D01*
X90814024Y-108835342D01*
X90699057Y-109007404D01*
X90653251Y-109117990D01*
X90609409Y-109172394D01*
X90543115Y-109194458D01*
X90475416Y-109177178D01*
X90427806Y-109126041D01*
X90420759Y-109108855D01*
X90381095Y-108986782D01*
X90284620Y-108797442D01*
X90159727Y-108625540D01*
X90159723Y-108625535D01*
X90009464Y-108475276D01*
X90009459Y-108475272D01*
X89837557Y-108350379D01*
X89648215Y-108253903D01*
X89446124Y-108188241D01*
X89380000Y-108177768D01*
X89380000Y-109225854D01*
X89313343Y-109187370D01*
X89192535Y-109155000D01*
X89067465Y-109155000D01*
X88946657Y-109187370D01*
X88880000Y-109225854D01*
X88880000Y-108177768D01*
X88879999Y-108177768D01*
X88813875Y-108188241D01*
X88611784Y-108253903D01*
X88422442Y-108350379D01*
X88250540Y-108475272D01*
X88250535Y-108475276D01*
X88100276Y-108625535D01*
X88100272Y-108625540D01*
X87975379Y-108797442D01*
X87914985Y-108915971D01*
X87867010Y-108966767D01*
X87799189Y-108983562D01*
X87733054Y-108961024D01*
X87689603Y-108906309D01*
X87680500Y-108859676D01*
X87680500Y-108850730D01*
X87677646Y-108820300D01*
X87677646Y-108820298D01*
X87632793Y-108692119D01*
X87632792Y-108692117D01*
X87552150Y-108582850D01*
X87442882Y-108502207D01*
X87442880Y-108502206D01*
X87314700Y-108457353D01*
X87284270Y-108454500D01*
X87284266Y-108454500D01*
X86418633Y-108454500D01*
X86351594Y-108434815D01*
X86305839Y-108382011D01*
X86295895Y-108312853D01*
X86324920Y-108249297D01*
X86330952Y-108242819D01*
X91006952Y-103566819D01*
X91068275Y-103533334D01*
X91094633Y-103530500D01*
X93262324Y-103530500D01*
X93329363Y-103550185D01*
G37*
%TD.AperFunction*%
%TA.AperFunction,Conductor*%
G36*
X78423039Y-107629685D02*
G01*
X78468794Y-107682489D01*
X78480000Y-107734000D01*
X78480000Y-107860000D01*
X78606000Y-107860000D01*
X78673039Y-107879685D01*
X78718794Y-107932489D01*
X78730000Y-107984000D01*
X78730000Y-108381758D01*
X78710315Y-108448797D01*
X78657511Y-108494552D01*
X78588353Y-108504496D01*
X78530760Y-108478194D01*
X78529811Y-108479432D01*
X78523368Y-108474488D01*
X78523365Y-108474485D01*
X78418582Y-108413988D01*
X78392136Y-108398719D01*
X78359988Y-108390105D01*
X78321906Y-108379901D01*
X78262246Y-108343537D01*
X78231717Y-108280690D01*
X78230000Y-108260127D01*
X78230000Y-108110000D01*
X78216819Y-108096819D01*
X78204584Y-108074413D01*
X78188982Y-108054210D01*
X78188120Y-108044261D01*
X78183334Y-108035496D01*
X78180500Y-108009138D01*
X78180500Y-107734000D01*
X78200185Y-107666961D01*
X78252989Y-107621206D01*
X78304500Y-107610000D01*
X78356000Y-107610000D01*
X78423039Y-107629685D01*
G37*
%TD.AperFunction*%
%TA.AperFunction,Conductor*%
G36*
X90935203Y-79298620D02*
G01*
X90941681Y-79304652D01*
X106513181Y-94876152D01*
X106546666Y-94937475D01*
X106549500Y-94963833D01*
X106549500Y-99575500D01*
X106529815Y-99642539D01*
X106477011Y-99688294D01*
X106425500Y-99699500D01*
X105980251Y-99699500D01*
X105925328Y-99710424D01*
X105855737Y-99704195D01*
X105813458Y-99676487D01*
X90466819Y-84329848D01*
X90433334Y-84268525D01*
X90430500Y-84242167D01*
X90430500Y-83932633D01*
X90450185Y-83865594D01*
X90502989Y-83819839D01*
X90572147Y-83809895D01*
X90635703Y-83838920D01*
X90642181Y-83844952D01*
X103665081Y-96867852D01*
X103698566Y-96929175D01*
X103701400Y-96955533D01*
X103701400Y-97045591D01*
X103735508Y-97172887D01*
X103738383Y-97177866D01*
X103801400Y-97287014D01*
X103894586Y-97380200D01*
X104008714Y-97446092D01*
X104136008Y-97480200D01*
X104136010Y-97480200D01*
X104267790Y-97480200D01*
X104267792Y-97480200D01*
X104395086Y-97446092D01*
X104509214Y-97380200D01*
X104602400Y-97287014D01*
X104668292Y-97172886D01*
X104702400Y-97045592D01*
X104702400Y-96913808D01*
X104668292Y-96786514D01*
X104602400Y-96672386D01*
X104509214Y-96579200D01*
X104452150Y-96546254D01*
X104395087Y-96513308D01*
X104331439Y-96496254D01*
X104267792Y-96479200D01*
X104177733Y-96479200D01*
X104110694Y-96459515D01*
X104090052Y-96442881D01*
X90466819Y-82819647D01*
X90433334Y-82758324D01*
X90430500Y-82731966D01*
X90430500Y-82560249D01*
X90430499Y-82560247D01*
X90418868Y-82501770D01*
X90418867Y-82501768D01*
X90393558Y-82463892D01*
X90372679Y-82397215D01*
X90391163Y-82329835D01*
X90393558Y-82326108D01*
X90418867Y-82288231D01*
X90418868Y-82288229D01*
X90430499Y-82229752D01*
X90430500Y-82229750D01*
X90430500Y-81290249D01*
X90430499Y-81290247D01*
X90418868Y-81231770D01*
X90418867Y-81231768D01*
X90393558Y-81193892D01*
X90387584Y-81174814D01*
X90377077Y-81157805D01*
X90377356Y-81142152D01*
X90372679Y-81127215D01*
X90377967Y-81107935D01*
X90378325Y-81087946D01*
X90390341Y-81062830D01*
X90391163Y-81059835D01*
X90393557Y-81056109D01*
X90423975Y-81010586D01*
X90477588Y-80965781D01*
X90546913Y-80957074D01*
X90559152Y-80959697D01*
X90674108Y-80990500D01*
X90674111Y-80990500D01*
X90805890Y-80990500D01*
X90805892Y-80990500D01*
X90933186Y-80956392D01*
X91047314Y-80890500D01*
X91140500Y-80797314D01*
X91206392Y-80683186D01*
X91240500Y-80555892D01*
X91240500Y-80424108D01*
X91206392Y-80296814D01*
X91140500Y-80182686D01*
X91047314Y-80089500D01*
X90990250Y-80056554D01*
X90933187Y-80023608D01*
X90877399Y-80008660D01*
X90805892Y-79989500D01*
X90805891Y-79989500D01*
X90798042Y-79987397D01*
X90798412Y-79986015D01*
X90742562Y-79961304D01*
X90704094Y-79902977D01*
X90703267Y-79833112D01*
X90706468Y-79823300D01*
X90723597Y-79777377D01*
X90723598Y-79777372D01*
X90729999Y-79717844D01*
X90730000Y-79717827D01*
X90730000Y-79392333D01*
X90749685Y-79325294D01*
X90802489Y-79279539D01*
X90871647Y-79269595D01*
X90935203Y-79298620D01*
G37*
%TD.AperFunction*%
%TA.AperFunction,Conductor*%
G36*
X112289149Y-63570185D02*
G01*
X112309798Y-63586825D01*
X114794190Y-66071638D01*
X114827668Y-66132963D01*
X114830500Y-66159311D01*
X114830500Y-85030763D01*
X114810815Y-85097802D01*
X114758011Y-85143557D01*
X114688853Y-85153501D01*
X114674409Y-85150538D01*
X114595892Y-85129500D01*
X114464108Y-85129500D01*
X114336814Y-85163608D01*
X114336813Y-85163608D01*
X114336811Y-85163609D01*
X114336810Y-85163609D01*
X114222684Y-85229500D01*
X114209004Y-85243181D01*
X114147681Y-85276666D01*
X114121323Y-85279500D01*
X112854500Y-85279500D01*
X112787461Y-85259815D01*
X112741706Y-85207011D01*
X112730500Y-85155500D01*
X112730500Y-83010249D01*
X112730499Y-83010247D01*
X112718868Y-82951770D01*
X112718867Y-82951769D01*
X112674552Y-82885447D01*
X112608230Y-82841132D01*
X112608229Y-82841131D01*
X112549752Y-82829500D01*
X112549748Y-82829500D01*
X111779500Y-82829500D01*
X111770814Y-82826949D01*
X111761853Y-82828238D01*
X111737812Y-82817259D01*
X111712461Y-82809815D01*
X111706533Y-82802974D01*
X111698297Y-82799213D01*
X111684007Y-82776978D01*
X111666706Y-82757011D01*
X111664418Y-82746496D01*
X111660523Y-82740435D01*
X111655500Y-82705500D01*
X111655500Y-82500832D01*
X111675185Y-82433793D01*
X111691815Y-82413155D01*
X111848151Y-82256818D01*
X111909474Y-82223334D01*
X111935832Y-82220500D01*
X112025890Y-82220500D01*
X112025892Y-82220500D01*
X112153186Y-82186392D01*
X112267314Y-82120500D01*
X112360500Y-82027314D01*
X112426392Y-81913186D01*
X112460500Y-81785892D01*
X112460500Y-81654108D01*
X112426392Y-81526814D01*
X112360500Y-81412686D01*
X112267314Y-81319500D01*
X112210250Y-81286554D01*
X112153187Y-81253608D01*
X112089539Y-81236554D01*
X112025892Y-81219500D01*
X111894108Y-81219500D01*
X111766812Y-81253608D01*
X111652686Y-81319500D01*
X111652683Y-81319502D01*
X111559502Y-81412683D01*
X111559500Y-81412686D01*
X111493608Y-81526812D01*
X111459500Y-81654108D01*
X111459500Y-81744166D01*
X111439815Y-81811205D01*
X111423181Y-81831847D01*
X111170489Y-82084540D01*
X111114541Y-82140487D01*
X111114535Y-82140495D01*
X111074982Y-82209004D01*
X111074979Y-82209009D01*
X111054500Y-82285439D01*
X111054500Y-82705500D01*
X111034815Y-82772539D01*
X110982011Y-82818294D01*
X110930500Y-82829500D01*
X110160247Y-82829500D01*
X110101770Y-82841131D01*
X110101769Y-82841132D01*
X110035447Y-82885447D01*
X109991132Y-82951769D01*
X109991131Y-82951770D01*
X109979500Y-83010247D01*
X109979500Y-88149752D01*
X109991131Y-88208229D01*
X109991132Y-88208230D01*
X110035447Y-88274552D01*
X110101769Y-88318867D01*
X110101770Y-88318868D01*
X110160247Y-88330499D01*
X110160250Y-88330500D01*
X110160252Y-88330500D01*
X112549750Y-88330500D01*
X112549751Y-88330499D01*
X112564568Y-88327552D01*
X112608229Y-88318868D01*
X112608229Y-88318867D01*
X112608231Y-88318867D01*
X112674552Y-88274552D01*
X112718867Y-88208231D01*
X112718867Y-88208229D01*
X112718868Y-88208229D01*
X112730499Y-88149752D01*
X112730500Y-88149750D01*
X112730500Y-86004500D01*
X112750185Y-85937461D01*
X112802989Y-85891706D01*
X112854500Y-85880500D01*
X113929652Y-85880500D01*
X113970116Y-85887288D01*
X113981358Y-85891169D01*
X114014012Y-85910022D01*
X114090438Y-85930500D01*
X114095287Y-85930500D01*
X114110121Y-85935621D01*
X114128779Y-85948885D01*
X114149718Y-85958143D01*
X114157338Y-85965152D01*
X114222686Y-86030500D01*
X114336814Y-86096392D01*
X114464108Y-86130500D01*
X114464110Y-86130500D01*
X114595889Y-86130500D01*
X114595892Y-86130500D01*
X114674410Y-86109461D01*
X114744256Y-86111124D01*
X114802118Y-86150286D01*
X114829623Y-86214514D01*
X114830500Y-86229236D01*
X114830500Y-87648167D01*
X114810815Y-87715206D01*
X114794181Y-87735848D01*
X112036848Y-90493181D01*
X111975525Y-90526666D01*
X111949167Y-90529500D01*
X110270730Y-90529500D01*
X110240300Y-90532353D01*
X110240298Y-90532353D01*
X110112119Y-90577206D01*
X110112117Y-90577207D01*
X110002850Y-90657850D01*
X109922207Y-90767117D01*
X109922206Y-90767119D01*
X109877353Y-90895298D01*
X109877353Y-90895300D01*
X109874500Y-90925730D01*
X109874500Y-92334269D01*
X109877353Y-92364699D01*
X109877353Y-92364701D01*
X109922206Y-92492880D01*
X109922207Y-92492882D01*
X110002850Y-92602150D01*
X110112118Y-92682793D01*
X110154845Y-92697744D01*
X110240299Y-92727646D01*
X110270730Y-92730500D01*
X110270734Y-92730500D01*
X110900500Y-92730500D01*
X110967539Y-92750185D01*
X111013294Y-92802989D01*
X111024500Y-92854500D01*
X111024500Y-94216323D01*
X111004815Y-94283362D01*
X110988182Y-94304004D01*
X110924500Y-94367686D01*
X110858607Y-94481814D01*
X110855500Y-94489318D01*
X110852997Y-94488281D01*
X110823523Y-94536599D01*
X110760665Y-94567105D01*
X110691293Y-94558784D01*
X110652466Y-94532495D01*
X109017819Y-92897848D01*
X108984334Y-92836525D01*
X108981500Y-92810167D01*
X108981500Y-78733131D01*
X109001185Y-78666092D01*
X109005722Y-78659507D01*
X109017993Y-78642882D01*
X109046523Y-78561349D01*
X109062846Y-78514701D01*
X109062846Y-78514699D01*
X109065700Y-78484269D01*
X109065700Y-78298832D01*
X109074342Y-78269397D01*
X109080865Y-78239410D01*
X109084622Y-78234390D01*
X109085385Y-78231793D01*
X109102010Y-78211160D01*
X109112815Y-78200355D01*
X109174132Y-78166870D01*
X109243824Y-78171851D01*
X109299760Y-78213720D01*
X109318427Y-78249716D01*
X109360444Y-78379031D01*
X109453341Y-78561350D01*
X109453347Y-78561359D01*
X109485723Y-78605921D01*
X109485724Y-78605922D01*
X110165200Y-77926446D01*
X110165200Y-77932661D01*
X110192459Y-78034394D01*
X110245120Y-78125606D01*
X110319594Y-78200080D01*
X110410806Y-78252741D01*
X110512539Y-78280000D01*
X110518753Y-78280000D01*
X109839276Y-78959474D01*
X109883850Y-78991859D01*
X110066168Y-79084755D01*
X110260782Y-79147990D01*
X110462883Y-79180000D01*
X110667517Y-79180000D01*
X110869617Y-79147990D01*
X111064231Y-79084755D01*
X111246549Y-78991859D01*
X111291121Y-78959474D01*
X110611647Y-78280000D01*
X110617861Y-78280000D01*
X110719594Y-78252741D01*
X110810806Y-78200080D01*
X110885280Y-78125606D01*
X110937941Y-78034394D01*
X110965200Y-77932661D01*
X110965200Y-77926447D01*
X111644674Y-78605921D01*
X111677059Y-78561349D01*
X111769955Y-78379031D01*
X111833190Y-78184417D01*
X111865200Y-77982317D01*
X111865200Y-77777682D01*
X111833190Y-77575582D01*
X111769955Y-77380968D01*
X111677059Y-77198650D01*
X111644674Y-77154077D01*
X111644674Y-77154076D01*
X110965200Y-77833551D01*
X110965200Y-77827339D01*
X110937941Y-77725606D01*
X110885280Y-77634394D01*
X110810806Y-77559920D01*
X110719594Y-77507259D01*
X110617861Y-77480000D01*
X110611646Y-77480000D01*
X111291122Y-76800524D01*
X111291121Y-76800523D01*
X111246559Y-76768147D01*
X111246550Y-76768141D01*
X111064231Y-76675244D01*
X110934916Y-76633227D01*
X110877241Y-76593789D01*
X110850043Y-76529430D01*
X110861958Y-76460584D01*
X110885548Y-76427622D01*
X111601460Y-75711711D01*
X111641021Y-75643189D01*
X111661500Y-75566762D01*
X111661500Y-74759833D01*
X111681185Y-74692794D01*
X111697819Y-74672152D01*
X111906460Y-74463511D01*
X111946021Y-74394989D01*
X111966500Y-74318562D01*
X111966500Y-63962668D01*
X111966511Y-63924827D01*
X111966500Y-63924785D01*
X111966500Y-63924738D01*
X111955830Y-63884920D01*
X111946055Y-63848394D01*
X111946033Y-63848355D01*
X111946021Y-63848311D01*
X111925615Y-63812967D01*
X111906514Y-63779860D01*
X111906513Y-63779859D01*
X111906511Y-63779855D01*
X111906461Y-63779790D01*
X111888852Y-63762181D01*
X111855367Y-63700858D01*
X111860351Y-63631166D01*
X111902223Y-63575233D01*
X111967687Y-63550816D01*
X111976533Y-63550500D01*
X112222110Y-63550500D01*
X112289149Y-63570185D01*
G37*
%TD.AperFunction*%
%TA.AperFunction,Conductor*%
G36*
X72173039Y-78789185D02*
G01*
X72218794Y-78841989D01*
X72230000Y-78893500D01*
X72230000Y-78970000D01*
X73230000Y-78970000D01*
X73230000Y-78893500D01*
X73249685Y-78826461D01*
X73302489Y-78780706D01*
X73354000Y-78769500D01*
X82020167Y-78769500D01*
X82087206Y-78789185D01*
X82132961Y-78841989D01*
X82142905Y-78911147D01*
X82113880Y-78974703D01*
X82107848Y-78981181D01*
X81240541Y-79848487D01*
X81240535Y-79848495D01*
X81200982Y-79917004D01*
X81200979Y-79917009D01*
X81180500Y-79993439D01*
X81180500Y-88766500D01*
X81160815Y-88833539D01*
X81108011Y-88879294D01*
X81056500Y-88890500D01*
X77403500Y-88890500D01*
X77336461Y-88870815D01*
X77290706Y-88818011D01*
X77279500Y-88766500D01*
X77279500Y-84649440D01*
X77279499Y-84649436D01*
X77274149Y-84629471D01*
X77266387Y-84600500D01*
X77259022Y-84573012D01*
X77219460Y-84504489D01*
X72991060Y-80276089D01*
X72957575Y-80214766D01*
X72962559Y-80145074D01*
X73004430Y-80089141D01*
X73087191Y-80027186D01*
X73173350Y-79912093D01*
X73173354Y-79912086D01*
X73223596Y-79777379D01*
X73223598Y-79777372D01*
X73229999Y-79717844D01*
X73230000Y-79717827D01*
X73230000Y-79470000D01*
X71353500Y-79470000D01*
X71286461Y-79450315D01*
X71240706Y-79397511D01*
X71229500Y-79346000D01*
X71229500Y-79094000D01*
X71249185Y-79026961D01*
X71301989Y-78981206D01*
X71353500Y-78970000D01*
X71730000Y-78970000D01*
X71730000Y-78893500D01*
X71749685Y-78826461D01*
X71802489Y-78780706D01*
X71854000Y-78769500D01*
X72106000Y-78769500D01*
X72173039Y-78789185D01*
G37*
%TD.AperFunction*%
%TA.AperFunction,Conductor*%
G36*
X110265539Y-63769685D02*
G01*
X110311294Y-63822489D01*
X110322500Y-63874000D01*
X110322500Y-64000000D01*
X110448500Y-64000000D01*
X110515539Y-64019685D01*
X110561294Y-64072489D01*
X110572500Y-64124000D01*
X110572500Y-64800000D01*
X110936500Y-64800000D01*
X111003539Y-64819685D01*
X111049294Y-64872489D01*
X111060500Y-64924000D01*
X111060500Y-74408167D01*
X111040815Y-74475206D01*
X111024181Y-74495848D01*
X108676848Y-76843181D01*
X108615525Y-76876666D01*
X108589167Y-76879500D01*
X107460930Y-76879500D01*
X107430500Y-76882353D01*
X107430498Y-76882353D01*
X107302319Y-76927206D01*
X107302317Y-76927207D01*
X107193050Y-77007850D01*
X107112407Y-77117117D01*
X107112406Y-77117119D01*
X107067553Y-77245298D01*
X107067553Y-77245300D01*
X107064700Y-77275730D01*
X107064700Y-78484269D01*
X107067553Y-78514699D01*
X107067553Y-78514701D01*
X107112406Y-78642880D01*
X107112407Y-78642882D01*
X107193050Y-78752150D01*
X107302318Y-78832793D01*
X107328599Y-78841989D01*
X107430499Y-78877646D01*
X107460930Y-78880500D01*
X107460934Y-78880500D01*
X108255500Y-78880500D01*
X108322539Y-78900185D01*
X108368294Y-78952989D01*
X108379500Y-79004500D01*
X108379500Y-82705500D01*
X108359815Y-82772539D01*
X108307011Y-82818294D01*
X108255500Y-82829500D01*
X106010247Y-82829500D01*
X105951770Y-82841131D01*
X105951769Y-82841132D01*
X105885447Y-82885447D01*
X105841132Y-82951769D01*
X105841131Y-82951770D01*
X105829500Y-83010247D01*
X105829500Y-83480167D01*
X105809815Y-83547206D01*
X105757011Y-83592961D01*
X105687853Y-83602905D01*
X105624297Y-83573880D01*
X105617819Y-83567848D01*
X101031152Y-78981181D01*
X100997667Y-78919858D01*
X101002651Y-78850166D01*
X101044523Y-78794233D01*
X101109987Y-78769816D01*
X101118833Y-78769500D01*
X104094447Y-78769500D01*
X104094454Y-78769502D01*
X104134016Y-78769500D01*
X104173562Y-78769500D01*
X104173576Y-78769500D01*
X104173610Y-78769495D01*
X104174284Y-78769308D01*
X104212116Y-78759169D01*
X104242849Y-78750933D01*
X104247144Y-78750055D01*
X104249391Y-78749367D01*
X104249999Y-78749015D01*
X104250003Y-78749015D01*
X104281182Y-78731011D01*
X104318511Y-78709460D01*
X104318511Y-78709459D01*
X104319241Y-78709038D01*
X104322455Y-78705518D01*
X104348699Y-78679272D01*
X104374460Y-78653511D01*
X104374462Y-78653507D01*
X104381507Y-78646462D01*
X104381522Y-78646443D01*
X104946475Y-78081429D01*
X104955392Y-78072581D01*
X104955416Y-78072567D01*
X104958067Y-78070004D01*
X104963205Y-78065201D01*
X104965182Y-78062788D01*
X104979104Y-78048866D01*
X105012460Y-78015511D01*
X105012461Y-78015509D01*
X105019517Y-78008453D01*
X105019522Y-78008446D01*
X109501782Y-73525989D01*
X109510784Y-73516987D01*
X109513122Y-73515070D01*
X109518086Y-73509775D01*
X109519380Y-73508438D01*
X109519456Y-73508314D01*
X109519460Y-73508311D01*
X109519461Y-73508308D01*
X109519464Y-73508306D01*
X109519497Y-73508248D01*
X109520438Y-73506727D01*
X109520465Y-73506682D01*
X109524556Y-73500062D01*
X109525730Y-73497450D01*
X109539903Y-73472901D01*
X109559021Y-73439789D01*
X109559021Y-73439786D01*
X109559022Y-73439785D01*
X109559022Y-73439783D01*
X109559024Y-73439782D01*
X109570535Y-73396818D01*
X109578553Y-73366892D01*
X109579443Y-73363930D01*
X109579500Y-73363542D01*
X109579500Y-73363358D01*
X109579501Y-73363355D01*
X109579500Y-73323793D01*
X109579500Y-64924000D01*
X109599185Y-64856961D01*
X109651989Y-64811206D01*
X109703500Y-64800000D01*
X110072500Y-64800000D01*
X110072500Y-64250000D01*
X109703500Y-64250000D01*
X109636461Y-64230315D01*
X109590706Y-64177511D01*
X109579500Y-64126000D01*
X109579500Y-63874000D01*
X109599185Y-63806961D01*
X109651989Y-63761206D01*
X109703500Y-63750000D01*
X110198500Y-63750000D01*
X110265539Y-63769685D01*
G37*
%TD.AperFunction*%
%TA.AperFunction,Conductor*%
G36*
X88173039Y-78789185D02*
G01*
X88218794Y-78841989D01*
X88230000Y-78893500D01*
X88230000Y-78970000D01*
X89356000Y-78970000D01*
X89423039Y-78989685D01*
X89468794Y-79042489D01*
X89480000Y-79094000D01*
X89480000Y-79346000D01*
X89460315Y-79413039D01*
X89407511Y-79458794D01*
X89356000Y-79470000D01*
X88230000Y-79470000D01*
X88230000Y-79717844D01*
X88236401Y-79777372D01*
X88236403Y-79777379D01*
X88286645Y-79912086D01*
X88286649Y-79912093D01*
X88372809Y-80027187D01*
X88372812Y-80027190D01*
X88479811Y-80107290D01*
X88521682Y-80163223D01*
X88529500Y-80206556D01*
X88529500Y-80959752D01*
X88541131Y-81018229D01*
X88541132Y-81018230D01*
X88566442Y-81056109D01*
X88587320Y-81122787D01*
X88568835Y-81190167D01*
X88566442Y-81193891D01*
X88541132Y-81231769D01*
X88541131Y-81231770D01*
X88529500Y-81290247D01*
X88529500Y-82065167D01*
X88509815Y-82132206D01*
X88457011Y-82177961D01*
X88387853Y-82187905D01*
X88324297Y-82158880D01*
X88317819Y-82152848D01*
X85912652Y-79747681D01*
X85879167Y-79686358D01*
X85884151Y-79616666D01*
X85912652Y-79572319D01*
X86679152Y-78805819D01*
X86740475Y-78772334D01*
X86766833Y-78769500D01*
X88106000Y-78769500D01*
X88173039Y-78789185D01*
G37*
%TD.AperFunction*%
%TD*%
D35*
X79372700Y-105120000D03*
X72920000Y-105120000D03*
X78760000Y-106320000D03*
X72950000Y-106320000D03*
X110310000Y-65570000D03*
X97710000Y-86570000D03*
X107050000Y-63190000D03*
X61100000Y-103670000D03*
X87200000Y-79580000D03*
X79940000Y-81910000D03*
X60550000Y-109160000D03*
X111821000Y-101480000D03*
X78130000Y-110420000D03*
X112266000Y-72850000D03*
X62550000Y-112230000D03*
X69530000Y-112280000D03*
X69950000Y-90630000D03*
X63087500Y-93000000D03*
X91687500Y-115200000D03*
X110430000Y-104490000D03*
X112370000Y-56470000D03*
X111840000Y-107490000D03*
X111960000Y-81720000D03*
X114530000Y-85630000D03*
X113620000Y-58570000D03*
X111325000Y-94675000D03*
X73540000Y-109080000D03*
X74230000Y-94440000D03*
X73070000Y-111750000D03*
X57490000Y-111800000D03*
X62740000Y-106320000D03*
X74940000Y-109760000D03*
X73490000Y-95120000D03*
X75780000Y-106360000D03*
X75360000Y-104520000D03*
X74050000Y-106780000D03*
X82930000Y-106360000D03*
X69660000Y-113860000D03*
X95080000Y-104690000D03*
X93512500Y-115200000D03*
X91290000Y-98280000D03*
X82600000Y-99180000D03*
X89400000Y-97110000D03*
X93730000Y-104070000D03*
X83190000Y-95680000D03*
X75237600Y-95420700D03*
X73799700Y-91553800D03*
X76576900Y-99796400D03*
X78051800Y-98329400D03*
X74984700Y-103512500D03*
X57498000Y-113630000D03*
X91300000Y-95720000D03*
X108340000Y-70370000D03*
X64904000Y-109070000D03*
X110270000Y-63030000D03*
X108410000Y-67260000D03*
X60550000Y-107630000D03*
X74540000Y-84100000D03*
X90740000Y-80490000D03*
X64920000Y-113680000D03*
X107030000Y-73410000D03*
X73510000Y-92496400D03*
X67869900Y-106424500D03*
X74739100Y-88552800D03*
X67975000Y-97153700D03*
X98252200Y-97689900D03*
X104954900Y-106461500D03*
X104201900Y-96979700D03*
D36*
X72390000Y-108935000D03*
X78170000Y-108935000D03*
D37*
X70960000Y-108435000D03*
D38*
X70960000Y-112615000D03*
D37*
X79600000Y-108435000D03*
D38*
X79600000Y-112615000D03*
D36*
X98580000Y-109630000D03*
X101080000Y-109630000D03*
X98580000Y-101830000D03*
X101080000Y-101830000D03*
X60960000Y-119380000D03*
X86630000Y-109630000D03*
X89130000Y-109630000D03*
X91630000Y-109630000D03*
D39*
X77830000Y-86240000D03*
X77830000Y-87640000D03*
X78530000Y-85540000D03*
X78530000Y-86940000D03*
X78530000Y-88340000D03*
X79230000Y-86240000D03*
X79230000Y-87640000D03*
X79930000Y-85540000D03*
X79930000Y-86940000D03*
X79930000Y-88340000D03*
X80630000Y-86240000D03*
X80630000Y-87640000D03*
D36*
X106850000Y-100750000D03*
X106850000Y-103290000D03*
X106850000Y-105830000D03*
X106850000Y-108370000D03*
X106850000Y-110910000D03*
X106850000Y-113450000D03*
X111760000Y-119380000D03*
X86630000Y-101830000D03*
X89130000Y-101830000D03*
X91630000Y-101830000D03*
X59680000Y-101830000D03*
X62180000Y-101830000D03*
X64680000Y-101830000D03*
X67180000Y-101830000D03*
X69680000Y-101830000D03*
X72180000Y-101830000D03*
X74680000Y-101830000D03*
X77180000Y-101830000D03*
X79680000Y-101830000D03*
X60960000Y-48260000D03*
X111760000Y-48260000D03*
X108065200Y-77880000D03*
X110565200Y-77880000D03*
M02*
