%TF.GenerationSoftware,KiCad,Pcbnew,9.0.7*%
%TF.CreationDate,2026-05-19T14:18:53-05:00*%
%TF.ProjectId,SmartWateringFlowerPot,536d6172-7457-4617-9465-72696e67466c,rev?*%
%TF.SameCoordinates,Original*%
%TF.FileFunction,Soldermask,Top*%
%TF.FilePolarity,Negative*%
%FSLAX46Y46*%
G04 Gerber Fmt 4.6, Leading zero omitted, Abs format (unit mm)*
G04 Created by KiCad (PCBNEW 9.0.7) date 2026-05-19 14:18:53*
%MOMM*%
%LPD*%
G01*
G04 APERTURE LIST*
G04 Aperture macros list*
%AMRoundRect*
0 Rectangle with rounded corners*
0 $1 Rounding radius*
0 $2 $3 $4 $5 $6 $7 $8 $9 X,Y pos of 4 corners*
0 Add a 4 corners polygon primitive as box body*
4,1,4,$2,$3,$4,$5,$6,$7,$8,$9,$2,$3,0*
0 Add four circle primitives for the rounded corners*
1,1,$1+$1,$2,$3*
1,1,$1+$1,$4,$5*
1,1,$1+$1,$6,$7*
1,1,$1+$1,$8,$9*
0 Add four rect primitives between the rounded corners*
20,1,$1+$1,$2,$3,$4,$5,0*
20,1,$1+$1,$4,$5,$6,$7,0*
20,1,$1+$1,$6,$7,$8,$9,0*
20,1,$1+$1,$8,$9,$2,$3,0*%
G04 Aperture macros list end*
%ADD10RoundRect,0.250000X-0.262500X-0.450000X0.262500X-0.450000X0.262500X0.450000X-0.262500X0.450000X0*%
%ADD11C,0.650000*%
%ADD12RoundRect,0.150000X-0.150000X-0.425000X0.150000X-0.425000X0.150000X0.425000X-0.150000X0.425000X0*%
%ADD13RoundRect,0.075000X-0.075000X-0.500000X0.075000X-0.500000X0.075000X0.500000X-0.075000X0.500000X0*%
%ADD14O,1.000000X2.100000*%
%ADD15O,1.000000X1.800000*%
%ADD16RoundRect,0.250000X-0.600000X-0.750000X0.600000X-0.750000X0.600000X0.750000X-0.600000X0.750000X0*%
%ADD17O,1.700000X2.000000*%
%ADD18RoundRect,0.250000X-1.000000X-0.650000X1.000000X-0.650000X1.000000X0.650000X-1.000000X0.650000X0*%
%ADD19C,1.500000*%
%ADD20C,3.200000*%
%ADD21RoundRect,0.250000X-0.600000X-0.725000X0.600000X-0.725000X0.600000X0.725000X-0.600000X0.725000X0*%
%ADD22O,1.700000X1.950000*%
%ADD23R,1.500000X0.900000*%
%ADD24R,0.900000X1.500000*%
%ADD25C,0.600000*%
%ADD26R,3.900000X3.900000*%
%ADD27R,1.700000X1.700000*%
%ADD28C,1.700000*%
%ADD29RoundRect,0.250000X-0.250000X-0.475000X0.250000X-0.475000X0.250000X0.475000X-0.250000X0.475000X0*%
%ADD30R,2.350000X5.100000*%
%ADD31RoundRect,0.150000X-0.512500X-0.150000X0.512500X-0.150000X0.512500X0.150000X-0.512500X0.150000X0*%
%ADD32RoundRect,0.150000X-0.587500X-0.150000X0.587500X-0.150000X0.587500X0.150000X-0.587500X0.150000X0*%
%ADD33RoundRect,0.250000X-0.550000X-0.550000X0.550000X-0.550000X0.550000X0.550000X-0.550000X0.550000X0*%
%ADD34C,1.600000*%
%ADD35C,0.350000*%
%ADD36O,0.600000X1.700000*%
%ADD37O,0.600000X1.400000*%
%ADD38C,0.200000*%
G04 APERTURE END LIST*
D10*
%TO.C,R10*%
X66317500Y-113630000D03*
X68142500Y-113630000D03*
%TD*%
D11*
%TO.C,J1*%
X72390000Y-108935000D03*
X78170000Y-108935000D03*
D12*
X72080000Y-107860000D03*
X72880000Y-107860000D03*
D13*
X74030000Y-107860000D03*
X75030000Y-107860000D03*
X75530000Y-107860000D03*
X76530000Y-107860000D03*
D12*
X77680000Y-107860000D03*
X78480000Y-107860000D03*
X78480000Y-107860000D03*
X77680000Y-107860000D03*
D13*
X77030000Y-107860000D03*
X76030000Y-107860000D03*
X74530000Y-107860000D03*
X73530000Y-107860000D03*
D12*
X72880000Y-107860000D03*
X72080000Y-107860000D03*
D14*
X70960000Y-108435000D03*
D15*
X70960000Y-112615000D03*
D14*
X79600000Y-108435000D03*
D15*
X79600000Y-112615000D03*
%TD*%
D10*
%TO.C,R3*%
X57497500Y-113630000D03*
X59322500Y-113630000D03*
%TD*%
D16*
%TO.C,J4*%
X98580000Y-109630000D03*
D17*
X101080000Y-109630000D03*
%TD*%
D18*
%TO.C,D1*%
X107325000Y-91630000D03*
X111325000Y-91630000D03*
%TD*%
D19*
%TO.C,TP2*%
X107030000Y-61530000D03*
%TD*%
%TO.C,TP1*%
X107030000Y-57980000D03*
%TD*%
D16*
%TO.C,J2*%
X98580000Y-101830000D03*
D17*
X101080000Y-101830000D03*
%TD*%
D10*
%TO.C,R6*%
X63087500Y-93000000D03*
X64912500Y-93000000D03*
%TD*%
D19*
%TO.C,TP3*%
X107030000Y-65080000D03*
%TD*%
D20*
%TO.C,H3*%
X60960000Y-119380000D03*
%TD*%
D19*
%TO.C,TP5*%
X107030000Y-72180000D03*
%TD*%
D21*
%TO.C,J5*%
X86630000Y-109630000D03*
D22*
X89130000Y-109630000D03*
X91630000Y-109630000D03*
%TD*%
D23*
%TO.C,U1*%
X71980000Y-79220000D03*
X71980000Y-80490000D03*
X71980000Y-81760000D03*
X71980000Y-83030000D03*
X71980000Y-84300000D03*
X71980000Y-85570000D03*
X71980000Y-86840000D03*
X71980000Y-88110000D03*
X71980000Y-89380000D03*
X71980000Y-90650000D03*
X71980000Y-91920000D03*
X71980000Y-93190000D03*
X71980000Y-94460000D03*
X71980000Y-95730000D03*
D24*
X73745000Y-96980000D03*
X75015000Y-96980000D03*
X76285000Y-96980000D03*
X77555000Y-96980000D03*
X78825000Y-96980000D03*
X80095000Y-96980000D03*
X81365000Y-96980000D03*
X82635000Y-96980000D03*
X83905000Y-96980000D03*
X85175000Y-96980000D03*
X86445000Y-96980000D03*
X87715000Y-96980000D03*
D23*
X89480000Y-95730000D03*
X89480000Y-94460000D03*
X89480000Y-93190000D03*
X89480000Y-91920000D03*
X89480000Y-90650000D03*
X89480000Y-89380000D03*
X89480000Y-88110000D03*
X89480000Y-86840000D03*
X89480000Y-85570000D03*
X89480000Y-84300000D03*
X89480000Y-83030000D03*
X89480000Y-81760000D03*
X89480000Y-80490000D03*
X89480000Y-79220000D03*
D25*
X77830000Y-86240000D03*
X77830000Y-87640000D03*
X78530000Y-85540000D03*
X78530000Y-86940000D03*
X78530000Y-88340000D03*
X79230000Y-86240000D03*
D26*
X79230000Y-86940000D03*
D25*
X79230000Y-87640000D03*
X79930000Y-85540000D03*
X79930000Y-86940000D03*
X79930000Y-88340000D03*
X80630000Y-86240000D03*
X80630000Y-87640000D03*
%TD*%
D27*
%TO.C,J7*%
X106850000Y-100750000D03*
D28*
X106850000Y-103290000D03*
X106850000Y-105830000D03*
X106850000Y-108370000D03*
X106850000Y-110910000D03*
X106850000Y-113450000D03*
%TD*%
D10*
%TO.C,R1*%
X57497500Y-107730000D03*
X59322500Y-107730000D03*
%TD*%
D29*
%TO.C,C1*%
X110420000Y-99960000D03*
X112320000Y-99960000D03*
%TD*%
D30*
%TO.C,L1*%
X107205000Y-85580000D03*
X111355000Y-85580000D03*
%TD*%
D20*
%TO.C,H4*%
X111760000Y-119380000D03*
%TD*%
D31*
%TO.C,U2*%
X110242500Y-57655000D03*
X110242500Y-58605000D03*
X110242500Y-59555000D03*
X112517500Y-59555000D03*
X112517500Y-58605000D03*
X112517500Y-57655000D03*
%TD*%
D29*
%TO.C,C3*%
X110420000Y-105980000D03*
X112320000Y-105980000D03*
%TD*%
D21*
%TO.C,J3*%
X86630000Y-101830000D03*
D22*
X89130000Y-101830000D03*
X91630000Y-101830000D03*
%TD*%
D29*
%TO.C,C2*%
X110420000Y-102970000D03*
X112320000Y-102970000D03*
%TD*%
D19*
%TO.C,TP4*%
X107030000Y-68630000D03*
%TD*%
D32*
%TO.C,Q1*%
X110322500Y-62100000D03*
X110322500Y-64000000D03*
X112197500Y-63050000D03*
%TD*%
D10*
%TO.C,R4*%
X61907500Y-107730000D03*
X63732500Y-107730000D03*
%TD*%
D21*
%TO.C,J6*%
X59680000Y-101830000D03*
D22*
X62180000Y-101830000D03*
X64680000Y-101830000D03*
X67180000Y-101830000D03*
X69680000Y-101830000D03*
X72180000Y-101830000D03*
X74680000Y-101830000D03*
X77180000Y-101830000D03*
X79680000Y-101830000D03*
%TD*%
D20*
%TO.C,H1*%
X60960000Y-48260000D03*
%TD*%
D10*
%TO.C,R7*%
X66317500Y-107730000D03*
X68142500Y-107730000D03*
%TD*%
%TO.C,R2*%
X57497500Y-110680000D03*
X59322500Y-110680000D03*
%TD*%
D20*
%TO.C,H2*%
X111760000Y-48260000D03*
%TD*%
D10*
%TO.C,R5*%
X61907500Y-110680000D03*
X63732500Y-110680000D03*
%TD*%
D33*
%TO.C,C6*%
X108065200Y-77880000D03*
D34*
X110565200Y-77880000D03*
%TD*%
D29*
%TO.C,C5*%
X110420000Y-112000000D03*
X112320000Y-112000000D03*
%TD*%
D35*
X72390000Y-108935000D03*
X78170000Y-108935000D03*
D36*
X70960000Y-108435000D03*
D37*
X70960000Y-112615000D03*
D36*
X79600000Y-108435000D03*
D37*
X79600000Y-112615000D03*
D35*
X98580000Y-109630000D03*
X101080000Y-109630000D03*
X98580000Y-101830000D03*
X101080000Y-101830000D03*
X60960000Y-119380000D03*
X86630000Y-109630000D03*
X89130000Y-109630000D03*
X91630000Y-109630000D03*
D38*
X77830000Y-86240000D03*
X77830000Y-87640000D03*
X78530000Y-85540000D03*
X78530000Y-86940000D03*
X78530000Y-88340000D03*
X79230000Y-86240000D03*
X79230000Y-87640000D03*
X79930000Y-85540000D03*
X79930000Y-86940000D03*
X79930000Y-88340000D03*
X80630000Y-86240000D03*
X80630000Y-87640000D03*
D35*
X106850000Y-100750000D03*
X106850000Y-103290000D03*
X106850000Y-105830000D03*
X106850000Y-108370000D03*
X106850000Y-110910000D03*
X106850000Y-113450000D03*
X111760000Y-119380000D03*
X86630000Y-101830000D03*
X89130000Y-101830000D03*
X91630000Y-101830000D03*
X59680000Y-101830000D03*
X62180000Y-101830000D03*
X64680000Y-101830000D03*
X67180000Y-101830000D03*
X69680000Y-101830000D03*
X72180000Y-101830000D03*
X74680000Y-101830000D03*
X77180000Y-101830000D03*
X79680000Y-101830000D03*
X60960000Y-48260000D03*
X111760000Y-48260000D03*
X108065200Y-77880000D03*
X110565200Y-77880000D03*
M02*
