%TF.GenerationSoftware,KiCad,Pcbnew,9.0.7*%
%TF.CreationDate,2026-05-19T14:18:53-05:00*%
%TF.ProjectId,SmartWateringFlowerPot,536d6172-7457-4617-9465-72696e67466c,rev?*%
%TF.SameCoordinates,Original*%
%TF.FileFunction,Soldermask,Bot*%
%TF.FilePolarity,Negative*%
%FSLAX46Y46*%
G04 Gerber Fmt 4.6, Leading zero omitted, Abs format (unit mm)*
G04 Created by KiCad (PCBNEW 9.0.7) date 2026-05-19 14:18:53*
%MOMM*%
%LPD*%
G01*
G04 APERTURE LIST*
G04 Aperture macros list*
%AMRoundRect*
0 Rectangle with rounded corners*
0 $1 Rounding radius*
0 $2 $3 $4 $5 $6 $7 $8 $9 X,Y pos of 4 corners*
0 Add a 4 corners polygon primitive as box body*
4,1,4,$2,$3,$4,$5,$6,$7,$8,$9,$2,$3,0*
0 Add four circle primitives for the rounded corners*
1,1,$1+$1,$2,$3*
1,1,$1+$1,$4,$5*
1,1,$1+$1,$6,$7*
1,1,$1+$1,$8,$9*
0 Add four rect primitives between the rounded corners*
20,1,$1+$1,$2,$3,$4,$5,0*
20,1,$1+$1,$4,$5,$6,$7,0*
20,1,$1+$1,$6,$7,$8,$9,0*
20,1,$1+$1,$8,$9,$2,$3,0*%
G04 Aperture macros list end*
%ADD10C,0.650000*%
%ADD11O,1.000000X2.100000*%
%ADD12O,1.000000X1.800000*%
%ADD13RoundRect,0.250000X-0.600000X-0.750000X0.600000X-0.750000X0.600000X0.750000X-0.600000X0.750000X0*%
%ADD14O,1.700000X2.000000*%
%ADD15C,3.200000*%
%ADD16RoundRect,0.250000X-0.600000X-0.725000X0.600000X-0.725000X0.600000X0.725000X-0.600000X0.725000X0*%
%ADD17O,1.700000X1.950000*%
%ADD18R,1.700000X1.700000*%
%ADD19C,1.700000*%
%ADD20RoundRect,0.250000X-0.550000X-0.550000X0.550000X-0.550000X0.550000X0.550000X-0.550000X0.550000X0*%
%ADD21C,1.600000*%
%ADD22RoundRect,0.250000X0.475000X-0.250000X0.475000X0.250000X-0.475000X0.250000X-0.475000X-0.250000X0*%
%ADD23RoundRect,0.250000X0.262500X0.450000X-0.262500X0.450000X-0.262500X-0.450000X0.262500X-0.450000X0*%
%ADD24C,0.350000*%
%ADD25O,0.600000X1.700000*%
%ADD26O,0.600000X1.400000*%
%ADD27C,0.200000*%
G04 APERTURE END LIST*
D10*
%TO.C,J1*%
X72390000Y-108935000D03*
X78170000Y-108935000D03*
D11*
X70960000Y-108435000D03*
D12*
X70960000Y-112615000D03*
D11*
X79600000Y-108435000D03*
D12*
X79600000Y-112615000D03*
%TD*%
D13*
%TO.C,J4*%
X98580000Y-109630000D03*
D14*
X101080000Y-109630000D03*
%TD*%
D13*
%TO.C,J2*%
X98580000Y-101830000D03*
D14*
X101080000Y-101830000D03*
%TD*%
D15*
%TO.C,H3*%
X60960000Y-119380000D03*
%TD*%
D16*
%TO.C,J5*%
X86630000Y-109630000D03*
D17*
X89130000Y-109630000D03*
X91630000Y-109630000D03*
%TD*%
D18*
%TO.C,J7*%
X106850000Y-100750000D03*
D19*
X106850000Y-103290000D03*
X106850000Y-105830000D03*
X106850000Y-108370000D03*
X106850000Y-110910000D03*
X106850000Y-113450000D03*
%TD*%
D15*
%TO.C,H4*%
X111760000Y-119380000D03*
%TD*%
D16*
%TO.C,J3*%
X86630000Y-101830000D03*
D17*
X89130000Y-101830000D03*
X91630000Y-101830000D03*
%TD*%
D16*
%TO.C,J6*%
X59680000Y-101830000D03*
D17*
X62180000Y-101830000D03*
X64680000Y-101830000D03*
X67180000Y-101830000D03*
X69680000Y-101830000D03*
X72180000Y-101830000D03*
X74680000Y-101830000D03*
X77180000Y-101830000D03*
X79680000Y-101830000D03*
%TD*%
D15*
%TO.C,H1*%
X60960000Y-48260000D03*
%TD*%
%TO.C,H2*%
X111760000Y-48260000D03*
%TD*%
D20*
%TO.C,C6*%
X108065200Y-77880000D03*
D21*
X110565200Y-77880000D03*
%TD*%
D22*
%TO.C,C4*%
X106000000Y-73450000D03*
X106000000Y-71550000D03*
%TD*%
D23*
%TO.C,R8*%
X93512500Y-115200000D03*
X91687500Y-115200000D03*
%TD*%
D24*
X72390000Y-108935000D03*
X78170000Y-108935000D03*
D25*
X70960000Y-108435000D03*
D26*
X70960000Y-112615000D03*
D25*
X79600000Y-108435000D03*
D26*
X79600000Y-112615000D03*
D24*
X98580000Y-109630000D03*
X101080000Y-109630000D03*
X98580000Y-101830000D03*
X101080000Y-101830000D03*
X60960000Y-119380000D03*
X86630000Y-109630000D03*
X89130000Y-109630000D03*
X91630000Y-109630000D03*
D27*
X77830000Y-86240000D03*
X77830000Y-87640000D03*
X78530000Y-85540000D03*
X78530000Y-86940000D03*
X78530000Y-88340000D03*
X79230000Y-86240000D03*
X79230000Y-87640000D03*
X79930000Y-85540000D03*
X79930000Y-86940000D03*
X79930000Y-88340000D03*
X80630000Y-86240000D03*
X80630000Y-87640000D03*
D24*
X106850000Y-100750000D03*
X106850000Y-103290000D03*
X106850000Y-105830000D03*
X106850000Y-108370000D03*
X106850000Y-110910000D03*
X106850000Y-113450000D03*
X111760000Y-119380000D03*
X86630000Y-101830000D03*
X89130000Y-101830000D03*
X91630000Y-101830000D03*
X59680000Y-101830000D03*
X62180000Y-101830000D03*
X64680000Y-101830000D03*
X67180000Y-101830000D03*
X69680000Y-101830000D03*
X72180000Y-101830000D03*
X74680000Y-101830000D03*
X77180000Y-101830000D03*
X79680000Y-101830000D03*
X60960000Y-48260000D03*
X111760000Y-48260000D03*
X108065200Y-77880000D03*
X110565200Y-77880000D03*
M02*
