M48
; DRILL file {KiCad 9.0.7} date 2026-05-19T14:22:45-0500
; FORMAT={-:-/ absolute / metric / decimal}
; #@! TF.CreationDate,2026-05-19T14:22:45-05:00
; #@! TF.GenerationSoftware,Kicad,Pcbnew,9.0.7
; #@! TF.FileFunction,Plated,1,2,PTH
FMAT,2
METRIC
; #@! TA.AperFunction,Plated,PTH,ViaDrill
T1C0.400
; #@! TA.AperFunction,Plated,PTH,ComponentDrill
T2C0.950
; #@! TA.AperFunction,Plated,PTH,ComponentDrill
T3C1.000
; #@! TA.AperFunction,Plated,PTH,ComponentDrill
T4C1.500
%
G90
G05
T1
X30.0Y-16.05
X45.2Y-8.5
X54.2Y-8.5
T2
X20.0Y-34.0
X22.5Y-34.0
X25.0Y-34.0
X27.5Y-34.0
X30.0Y-34.0
X32.5Y-34.0
X35.0Y-34.0
X37.5Y-34.0
X40.0Y-34.0
T3
X12.0Y-10.0
X12.0Y-12.54
X12.0Y-15.08
X12.0Y-17.62
X44.0Y-20.0
X44.0Y-22.5
X44.0Y-25.0
X58.5Y-20.0
X58.5Y-25.0
T4
X50.85Y-16.9G85X52.15Y-16.9
G05
X50.85Y-28.1G85X52.15Y-28.1
G05
M30
